M48
;Layer_Color=9474304
;FILE_FORMAT=2:4
INCH
;TYPE=PLATED
T1F00S00C0.0080
T2F00S00C0.0276
T3F00S00C0.0315
T4F00S00C0.0350
T5F00S00C0.0394
T6F00S00C0.0400
T7F00S00C0.0700
%
T01
X024570Y000475
X021600Y000470
X020380Y000460
X018670Y000390
X018070Y002000
X017290Y001400
X016450Y000400
X013670
Y001780
X011330Y001750
X010040Y000350
X008430Y000370
X008330Y002240
X016130Y002930
X019260Y002970
X021090Y003100
X006570Y001580
X007120Y000330
X005540
X003930
X003860Y002980
X000440Y000420
X000420Y003880
X003830Y004920
X004750Y004010
X006640Y003960
X007060Y006680
X006940Y007660
X006040Y008630
X005150Y008850
X004040Y008590
Y008100
Y007580
Y007000
X004990Y006720
X003890Y010680
X003540Y012120
X003560Y013460
X001400Y013560
X001270Y017540
X003570Y017300
X004000Y015898
X007150Y015810
X006010Y014520
X006340Y017490
X006190Y018610
X005010Y018720
X007160Y010390
X007760Y011040
X008720Y010950
X009300
X009874Y011276
X010600Y011270
Y011700
X010830Y012100
X011380Y013140
X011920
X011250Y013670
X011330Y014450
X011430Y015090
X011400Y015360
X011410Y015630
Y015900
X011050Y016120
X011200Y016360
X011020Y016580
X010840Y016800
X010420Y015880
X009790Y016020
X010350Y018110
X010250Y018400
X012120Y018750
X012140Y017990
X012830Y017840
X012550Y017500
X012750Y017280
X013070Y016800
X013250Y016580
X013080Y016360
X013280Y016140
X014210Y016710
X014480
X014790Y016700
X014820Y017710
X015580
X015670Y018220
X016250Y018500
X017150Y018280
Y018010
X017560Y018390
X017470Y018740
X017835Y016985
X018050Y017200
X018594Y017014
X019000Y016460
X018594Y015914
X018270Y015030
X019190Y014630
X019710Y015470
X020400Y015250
X020660Y015420
X021389Y014960
X021380Y014640
X021980Y015340
X022350Y015700
X022880Y015930
X021780Y016150
X021670Y017570
X021940Y018510
X020130Y018500
X018880Y017970
X017240Y016300
X016820Y015910
X016900Y015040
X017210Y014150
X015840
X015530Y014360
X014480Y014150
X014170Y014360
X013110Y014150
X012810Y014350
X013010Y013340
X013610
X014770Y013180
X014800Y012460
X014770Y011330
X014810Y010360
X015930Y010390
X015960Y011000
X016210Y011640
X017260
X017820Y011140
X019090Y010380
X020020Y010560
Y011530
X020010Y012480
X019480Y012990
X020020Y013580
X020970Y012990
X018170Y013090
X015980Y013200
X015950Y012490
X016440Y009820
X017000
X016840Y007820
X017180
X017510
X016410Y007810
X016090
X015950Y008180
X015380Y008880
X014890Y009080
X014310Y009120
X014316Y009676
X013566
X012520Y011360
X011540Y010740
X010850Y010060
X009500
X008140Y009940
X008210Y007720
X009180Y007560
X009100Y006430
X009480Y006420
X009820Y006430
X010858Y006332
X011527Y006747
Y005703
X010400Y005670
X010430Y004620
X010520Y007340
X011300Y009050
X007440Y008230
X008320Y006580
X008230Y003750
X016710Y003570
X017170Y005700
X019960Y005750
X020020Y004560
X018740Y004240
X022000Y004580
X021060Y006430
X020120Y007170
X020050Y008130
X020700Y008350
X021090Y008740
X021170Y009110
X020010Y009320
X019060Y009260
X022640Y011050
X015230Y015790
X014030Y017620
X013450Y017630
X007820Y018030
X007540Y018530
X023660Y018670
X024520Y018035
Y016035
X024390Y014780
Y013700
X024610Y012450
X023550Y012970
X023630Y011120
X024600Y009945
X024590Y006675
X024580Y003645
X024520Y020035
X023570Y020280
Y020550
Y019450
Y019180
X024520Y022035
Y024035
X023180Y024500
X024520Y032035
X022800Y031400
Y031100
X021400
Y031400
X020570Y031770
X020430Y033070
X019940Y034380
X017950Y033610
X017720Y031890
X017700Y031550
X017300Y031300
X017040Y030980
X016810Y031790
X017251Y031960
X016730Y032370
X016210Y031950
X015720Y030900
X015430Y030890
X014910Y030970
X014350Y030850
X014050
X013750Y030870
X013380
X013340Y031890
X013640Y031720
X013970Y031530
X014310Y031350
X014990Y032730
X016040Y033680
X012650Y033450
X011770Y034330
X011300Y031850
X009570Y030730
X008630Y030760
X007940Y032770
X007770Y034310
X009550Y033330
X012880Y030180
X013660Y029770
X014876Y029196
X015624Y029196
X017150Y029180
X017670Y029130
X017560Y029800
X018200Y030600
X018000Y030800
X018570Y031370
X018780Y031180
X018320Y031790
X019080Y030140
X019640Y027970
X020530Y027290
X022254Y027684
Y026636
X022440Y029210
X022100Y023220
X022000Y021000
X022450Y020550
Y020280
X022050Y019450
X022080Y019180
X021180Y019590
X020390Y019540
X020320Y020060
X020240Y020330
X020390Y020840
X018930Y020320
Y020050
X018650Y019800
X017700Y019860
X017450Y019040
X016250Y018800
X015730Y018900
X015930Y019620
Y020300
Y021000
Y021620
X015870Y022200
X015760Y023140
X013680Y023090
X013500Y023950
X012850Y024170
X012830Y024440
X012870Y025110
X012970Y025380
X013380Y025790
X013170Y026010
X014040Y025790
X014970Y025860
X015310Y025850
Y026990
X014876Y027004
X014270Y026970
X013400
X013180Y027140
X012170Y027050
X012840Y028550
X016398Y027098
X016772Y026768
X017050Y026850
X017450Y027250
X017970Y027290
X019250Y024500
X018590Y021650
X017970Y021700
X013620Y021560
Y020130
X012879Y020039
X012100Y020190
Y019470
Y020930
Y021610
X010200Y020800
X010100Y019140
X007660Y019870
X007870Y020500
Y020800
X009590Y023622
X009690Y023910
X010090Y025170
X010310Y024961
X008560Y027800
X006650Y026770
X007230Y025950
X007240Y023720
X007060Y023100
X006440Y022840
X004820Y023100
X005380Y023720
X004000Y023920
X003718Y025252
X003780Y026820
X004005Y027045
X004850Y026890
X005390Y027700
X005980Y028280
X003940Y028560
X004050Y031620
X005140Y030660
X006260Y030570
X006800Y030210
X006230Y033220
X004130Y033630
X000490Y034100
Y031800
X000500Y030370
Y028630
X001390Y027550
X001380Y024270
X001460Y021780
X001420Y019790
X004190Y019020
X004530
X007130Y018900
Y019210
X005910Y020480
X003990Y021360
X004005Y022145
X003735
X004680Y035400
X005250Y037600
X006300Y037590
X006830Y037020
X006544Y039866
X006280Y041790
X005240
X004020Y041390
X002350Y041180
X000500Y040690
X000480Y039160
X000430Y037200
X000490Y035270
X004260Y038850
X004350Y043570
X005240Y045340
X004330Y046340
X005040Y047770
X003360Y047650
X002120Y046410
X000490Y046390
X000400Y047760
X000500Y044820
Y042820
X007210Y042760
X007200Y043710
X007750Y044540
X007950Y046280
X008180Y048080
X010820
X010090Y046940
X010740Y045970
X009470Y045490
X009760Y043660
X009530Y042830
X009040Y042540
X008620Y042100
X009690Y041640
X011870Y041630
X014940Y041570
X014880Y040060
X014451Y038209
X013740Y037500
X013340Y036490
X014550Y036660
X011570Y036400
X010630Y036820
X008490Y036470
X007730
X007510Y037920
X008490Y037510
X008790Y039070
X009610Y038460
X010800Y043820
X013250Y043840
X013870Y045560
X012220Y045530
X013200Y046940
X012540Y049690
X016320Y047660
X016220Y046090
X016540Y043730
X018130Y043690
Y044680
X019170Y043600
X020870Y043460
X020875Y041175
X020650Y040450
X021451Y040449
X021784Y041084
X022190Y041350
X022040Y041590
X020140Y040950
X019250
X018850Y041790
X018410Y041940
X016470Y041100
X017860Y039410
X017900Y038540
X019140
X019220Y038110
X019250Y039090
X020550Y039000
X020850Y038530
X020630Y038180
X022260Y038520
X019480Y036440
X020740Y035060
X017300Y037430
X017720Y047950
X021220Y048660
X020330Y046270
X021650Y045166
X022950Y046860
X024440Y047830
X024480Y034530
X024400Y050840
X020400
X018400
X016400
X014400
X012400
X010280
X008400
X006400
X004400
X000400
T02
X008734Y019622
Y020122
Y020622
Y021122
Y021622
Y022122
Y022622
Y023122
Y023622
Y024122
Y024622
Y025122
Y025622
Y026122
Y026622
X009000Y035135
X009500
X010000
X010500
X011000
X011500
X012000
X012500
X013000
X013500
X014000
X014500
X015000
X015500
X016000
X013080Y040010
X012080
X011080
T03
X007671Y002958
X005561
X006228Y009659
X018041Y003318
T04
X007670Y004560
Y005560
T05
X023228Y005906
Y006890
Y007874
Y008858
Y009843
T06
X007900Y008930
X009900
X002400Y043051
Y044051
X008500Y049180
X009500
X010500
X011500
X013790
X014790
X015790
X016790
T07
X002400Y004969
Y006528
Y008087
Y011220
Y012780
Y014339
Y015898
Y019016
Y020575
Y022134
Y023693
Y025252
Y026811
Y028370
Y029929
Y031488
Y033047
Y037541
Y039100
M30
