G04 Layer_Color=8388736*
%FSLAX24Y24*%
%MOIN*%
G70*
G01*
G75*
%ADD10C,0.0100*%
%ADD31C,0.0060*%
D10*
X25000Y-1710D02*
Y-125D01*
X0Y-1710D02*
Y-125D01*
X14499Y-1610D02*
X25000D01*
X0D02*
X10181D01*
X24400Y-1410D02*
X25000Y-1610D01*
X24400Y-1810D02*
X25000Y-1610D01*
X0D02*
X600Y-1810D01*
X0Y-1610D02*
X600Y-1410D01*
X-2230Y51250D02*
X-125D01*
X-2230Y0D02*
X-125D01*
X-2130Y27824D02*
Y51250D01*
Y0D02*
Y23106D01*
X-2330Y50650D02*
X-2130Y51250D01*
X-1930Y50650D01*
X-2130Y0D02*
X-1930Y600D01*
X-2330D02*
X-2130Y0D01*
X-4952Y-6455D02*
X40728D01*
X-4952Y-8305D02*
Y-6455D01*
Y-8305D02*
X40728D01*
Y-6455D01*
Y-5505D02*
Y-3655D01*
X-4952Y-5505D02*
X40728D01*
X-4952D02*
Y-3655D01*
X40728D01*
X4528Y-7021D02*
Y-7878D01*
X4570Y-7021D02*
Y-7878D01*
X4528Y-7021D02*
X4742D01*
X4528Y-7878D02*
X4742D01*
X4857Y-7107D02*
X4943Y-7064D01*
X5072Y-6935D01*
Y-7835D01*
X5774Y-6935D02*
X5646Y-6978D01*
X5560Y-7107D01*
X5517Y-7321D01*
Y-7449D01*
X5560Y-7664D01*
X5646Y-7792D01*
X5774Y-7835D01*
X5860D01*
X5989Y-7792D01*
X6074Y-7664D01*
X6117Y-7449D01*
Y-7321D01*
X6074Y-7107D01*
X5989Y-6978D01*
X5860Y-6935D01*
X5774D01*
X6833D02*
X6404D01*
X6361Y-7321D01*
X6404Y-7278D01*
X6533Y-7235D01*
X6661D01*
X6790Y-7278D01*
X6876Y-7364D01*
X6918Y-7492D01*
Y-7578D01*
X6876Y-7706D01*
X6790Y-7792D01*
X6661Y-7835D01*
X6533D01*
X6404Y-7792D01*
X6361Y-7749D01*
X6319Y-7664D01*
X7120Y-7107D02*
X7206Y-7064D01*
X7334Y-6935D01*
Y-7835D01*
X7823Y-7749D02*
X7780Y-7792D01*
X7823Y-7835D01*
X7865Y-7792D01*
X7823Y-7749D01*
X8320Y-6935D02*
X8191Y-6978D01*
X8105Y-7107D01*
X8063Y-7321D01*
Y-7449D01*
X8105Y-7664D01*
X8191Y-7792D01*
X8320Y-7835D01*
X8405D01*
X8534Y-7792D01*
X8620Y-7664D01*
X8662Y-7449D01*
Y-7321D01*
X8620Y-7107D01*
X8534Y-6978D01*
X8405Y-6935D01*
X8320D01*
X9121D02*
X8992Y-6978D01*
X8907Y-7107D01*
X8864Y-7321D01*
Y-7449D01*
X8907Y-7664D01*
X8992Y-7792D01*
X9121Y-7835D01*
X9207D01*
X9335Y-7792D01*
X9421Y-7664D01*
X9464Y-7449D01*
Y-7321D01*
X9421Y-7107D01*
X9335Y-6978D01*
X9207Y-6935D01*
X9121D01*
X9922D02*
X9794Y-6978D01*
X9708Y-7107D01*
X9665Y-7321D01*
Y-7449D01*
X9708Y-7664D01*
X9794Y-7792D01*
X9922Y-7835D01*
X10008D01*
X10136Y-7792D01*
X10222Y-7664D01*
X10265Y-7449D01*
Y-7321D01*
X10222Y-7107D01*
X10136Y-6978D01*
X10008Y-6935D01*
X9922D01*
X10895D02*
X10466Y-7535D01*
X11109D01*
X10895Y-6935D02*
Y-7835D01*
X11268Y-7107D02*
X11353Y-7064D01*
X11482Y-6935D01*
Y-7835D01*
X11970Y-7749D02*
X11927Y-7792D01*
X11970Y-7835D01*
X12013Y-7792D01*
X11970Y-7749D01*
X12467Y-6935D02*
X12339Y-6978D01*
X12253Y-7107D01*
X12210Y-7321D01*
Y-7449D01*
X12253Y-7664D01*
X12339Y-7792D01*
X12467Y-7835D01*
X12553D01*
X12682Y-7792D01*
X12767Y-7664D01*
X12810Y-7449D01*
Y-7321D01*
X12767Y-7107D01*
X12682Y-6978D01*
X12553Y-6935D01*
X12467D01*
X13269D02*
X13140Y-6978D01*
X13054Y-7107D01*
X13011Y-7321D01*
Y-7449D01*
X13054Y-7664D01*
X13140Y-7792D01*
X13269Y-7835D01*
X13354D01*
X13483Y-7792D01*
X13568Y-7664D01*
X13611Y-7449D01*
Y-7321D01*
X13568Y-7107D01*
X13483Y-6978D01*
X13354Y-6935D01*
X13269D01*
X13813Y-8135D02*
X14498D01*
X14700Y-6935D02*
X15171D01*
X14914Y-7278D01*
X15042D01*
X15128Y-7321D01*
X15171Y-7364D01*
X15214Y-7492D01*
Y-7578D01*
X15171Y-7706D01*
X15085Y-7792D01*
X14957Y-7835D01*
X14828D01*
X14700Y-7792D01*
X14657Y-7749D01*
X14614Y-7664D01*
X15415Y-7449D02*
X16186D01*
X17138Y-7835D02*
X16795Y-6935D01*
X16452Y-7835D01*
X16581Y-7535D02*
X17009D01*
X17391Y-7749D02*
X17348Y-7792D01*
X17391Y-7835D01*
X17433Y-7792D01*
X17391Y-7749D01*
X17716Y-6935D02*
X18187D01*
X17930Y-7278D01*
X18059D01*
X18145Y-7321D01*
X18187Y-7364D01*
X18230Y-7492D01*
Y-7578D01*
X18187Y-7706D01*
X18102Y-7792D01*
X17973Y-7835D01*
X17845D01*
X17716Y-7792D01*
X17673Y-7749D01*
X17630Y-7664D01*
X18603Y-7021D02*
Y-7878D01*
X18646Y-7021D02*
Y-7878D01*
X18432Y-7021D02*
X18646D01*
X18432Y-7878D02*
X18646D01*
X20159Y-7149D02*
X20116Y-7064D01*
X20030Y-6978D01*
X19944Y-6935D01*
X19773D01*
X19687Y-6978D01*
X19601Y-7064D01*
X19559Y-7149D01*
X19516Y-7278D01*
Y-7492D01*
X19559Y-7621D01*
X19601Y-7706D01*
X19687Y-7792D01*
X19773Y-7835D01*
X19944D01*
X20030Y-7792D01*
X20116Y-7706D01*
X20159Y-7621D01*
X20411Y-6935D02*
Y-7835D01*
Y-6935D02*
X20797D01*
X20925Y-6978D01*
X20968Y-7021D01*
X21011Y-7107D01*
Y-7192D01*
X20968Y-7278D01*
X20925Y-7321D01*
X20797Y-7364D01*
X20411D02*
X20797D01*
X20925Y-7407D01*
X20968Y-7449D01*
X21011Y-7535D01*
Y-7664D01*
X20968Y-7749D01*
X20925Y-7792D01*
X20797Y-7835D01*
X20411D01*
X21812Y-7064D02*
X21727Y-6978D01*
X21598Y-6935D01*
X21427D01*
X21298Y-6978D01*
X21213Y-7064D01*
Y-7149D01*
X21255Y-7235D01*
X21298Y-7278D01*
X21384Y-7321D01*
X21641Y-7407D01*
X21727Y-7449D01*
X21770Y-7492D01*
X21812Y-7578D01*
Y-7706D01*
X21727Y-7792D01*
X21598Y-7835D01*
X21427D01*
X21298Y-7792D01*
X21213Y-7706D01*
X22057Y-7149D02*
Y-7107D01*
X22100Y-7021D01*
X22142Y-6978D01*
X22228Y-6935D01*
X22399D01*
X22485Y-6978D01*
X22528Y-7021D01*
X22571Y-7107D01*
Y-7192D01*
X22528Y-7278D01*
X22442Y-7407D01*
X22014Y-7835D01*
X22614D01*
X22815Y-7107D02*
X22901Y-7064D01*
X23029Y-6935D01*
Y-7835D01*
X23732Y-6935D02*
X23603Y-6978D01*
X23518Y-7107D01*
X23475Y-7321D01*
Y-7449D01*
X23518Y-7664D01*
X23603Y-7792D01*
X23732Y-7835D01*
X23818D01*
X23946Y-7792D01*
X24032Y-7664D01*
X24075Y-7449D01*
Y-7321D01*
X24032Y-7107D01*
X23946Y-6978D01*
X23818Y-6935D01*
X23732D01*
X24533D02*
X24405Y-6978D01*
X24319Y-7107D01*
X24276Y-7321D01*
Y-7449D01*
X24319Y-7664D01*
X24405Y-7792D01*
X24533Y-7835D01*
X24619D01*
X24748Y-7792D01*
X24833Y-7664D01*
X24876Y-7449D01*
Y-7321D01*
X24833Y-7107D01*
X24748Y-6978D01*
X24619Y-6935D01*
X24533D01*
X25634D02*
X25077D01*
Y-7835D01*
X25634D01*
X25077Y-7364D02*
X25420D01*
X26341Y-6935D02*
X25784D01*
Y-7835D01*
X26341D01*
X25784Y-7364D02*
X26127D01*
X26534Y-7749D02*
X26491Y-7792D01*
X26534Y-7835D01*
X26577Y-7792D01*
X26534Y-7749D01*
X27417Y-7149D02*
X27374Y-7064D01*
X27288Y-6978D01*
X27203Y-6935D01*
X27031D01*
X26946Y-6978D01*
X26860Y-7064D01*
X26817Y-7149D01*
X26774Y-7278D01*
Y-7492D01*
X26817Y-7621D01*
X26860Y-7706D01*
X26946Y-7792D01*
X27031Y-7835D01*
X27203D01*
X27288Y-7792D01*
X27374Y-7706D01*
X27417Y-7621D01*
Y-7492D01*
X27203D02*
X27417D01*
X27623Y-6935D02*
Y-7835D01*
Y-6935D02*
X27965Y-7835D01*
X28308Y-6935D02*
X27965Y-7835D01*
X28308Y-6935D02*
Y-7835D01*
X28608Y-7149D02*
Y-7107D01*
X28651Y-7021D01*
X28694Y-6978D01*
X28780Y-6935D01*
X28951D01*
X29037Y-6978D01*
X29079Y-7021D01*
X29122Y-7107D01*
Y-7192D01*
X29079Y-7278D01*
X28994Y-7407D01*
X28565Y-7835D01*
X29165D01*
X-4462Y-7407D02*
X-4077D01*
X-3948Y-7364D01*
X-3905Y-7321D01*
X-3863Y-7235D01*
Y-7107D01*
X-3905Y-7021D01*
X-3948Y-6978D01*
X-4077Y-6935D01*
X-4462D01*
Y-7835D01*
X-3661Y-6935D02*
Y-7835D01*
X-3147D01*
X-2791Y-6935D02*
X-2877Y-6978D01*
X-2963Y-7064D01*
X-3006Y-7149D01*
X-3048Y-7278D01*
Y-7492D01*
X-3006Y-7621D01*
X-2963Y-7706D01*
X-2877Y-7792D01*
X-2791Y-7835D01*
X-2620D01*
X-2534Y-7792D01*
X-2449Y-7706D01*
X-2406Y-7621D01*
X-2363Y-7492D01*
Y-7278D01*
X-2406Y-7149D01*
X-2449Y-7064D01*
X-2534Y-6978D01*
X-2620Y-6935D01*
X-2791D01*
X-1853D02*
Y-7835D01*
X-2153Y-6935D02*
X-1553D01*
X-739D02*
Y-7835D01*
Y-6935D02*
X-182D01*
X-739Y-7364D02*
X-396D01*
X-79Y-6935D02*
Y-7835D01*
X109Y-6935D02*
Y-7835D01*
X624D01*
X1279Y-6935D02*
X722D01*
Y-7835D01*
X1279D01*
X722Y-7364D02*
X1065D01*
X1472Y-7235D02*
X1429Y-7278D01*
X1472Y-7321D01*
X1515Y-7278D01*
X1472Y-7235D01*
Y-7749D02*
X1429Y-7792D01*
X1472Y-7835D01*
X1515Y-7792D01*
X1472Y-7749D01*
X-4462Y-4135D02*
Y-5035D01*
X-3948D01*
X-3164D02*
X-3507Y-4135D01*
X-3850Y-5035D01*
X-3721Y-4735D02*
X-3293D01*
X-2954Y-4135D02*
X-2611Y-4564D01*
Y-5035D01*
X-2269Y-4135D02*
X-2611Y-4564D01*
X-1596Y-4135D02*
X-2153D01*
Y-5035D01*
X-1596D01*
X-2153Y-4564D02*
X-1810D01*
X-1446Y-4135D02*
Y-5035D01*
Y-4135D02*
X-1060D01*
X-932Y-4178D01*
X-889Y-4221D01*
X-846Y-4307D01*
Y-4392D01*
X-889Y-4478D01*
X-932Y-4521D01*
X-1060Y-4564D01*
X-1446D01*
X-1146D02*
X-846Y-5035D01*
X62Y-4135D02*
Y-5035D01*
Y-4135D02*
X662Y-5035D01*
Y-4135D02*
Y-5035D01*
X1596D02*
X1253Y-4135D01*
X911Y-5035D01*
X1039Y-4735D02*
X1468D01*
X1806Y-4135D02*
Y-5035D01*
Y-4135D02*
X2149Y-5035D01*
X2492Y-4135D02*
X2149Y-5035D01*
X2492Y-4135D02*
Y-5035D01*
X3306Y-4135D02*
X2749D01*
Y-5035D01*
X3306D01*
X2749Y-4564D02*
X3092D01*
X3499Y-4435D02*
X3456Y-4478D01*
X3499Y-4521D01*
X3542Y-4478D01*
X3499Y-4435D01*
Y-4949D02*
X3456Y-4992D01*
X3499Y-5035D01*
X3542Y-4992D01*
X3499Y-4949D01*
X4528Y-4135D02*
Y-5035D01*
Y-4135D02*
X4913D01*
X5042Y-4178D01*
X5085Y-4221D01*
X5127Y-4307D01*
Y-4392D01*
X5085Y-4478D01*
X5042Y-4521D01*
X4913Y-4564D01*
X4528D02*
X4913D01*
X5042Y-4607D01*
X5085Y-4649D01*
X5127Y-4735D01*
Y-4864D01*
X5085Y-4949D01*
X5042Y-4992D01*
X4913Y-5035D01*
X4528D01*
X5543Y-4435D02*
X5457Y-4478D01*
X5372Y-4564D01*
X5329Y-4692D01*
Y-4778D01*
X5372Y-4906D01*
X5457Y-4992D01*
X5543Y-5035D01*
X5672D01*
X5757Y-4992D01*
X5843Y-4906D01*
X5886Y-4778D01*
Y-4692D01*
X5843Y-4564D01*
X5757Y-4478D01*
X5672Y-4435D01*
X5543D01*
X6597D02*
Y-5035D01*
Y-4564D02*
X6511Y-4478D01*
X6426Y-4435D01*
X6297D01*
X6211Y-4478D01*
X6126Y-4564D01*
X6083Y-4692D01*
Y-4778D01*
X6126Y-4906D01*
X6211Y-4992D01*
X6297Y-5035D01*
X6426D01*
X6511Y-4992D01*
X6597Y-4906D01*
X6837Y-4435D02*
Y-5035D01*
Y-4692D02*
X6880Y-4564D01*
X6966Y-4478D01*
X7051Y-4435D01*
X7180D01*
X7775Y-4135D02*
Y-5035D01*
Y-4564D02*
X7690Y-4478D01*
X7604Y-4435D01*
X7476D01*
X7390Y-4478D01*
X7304Y-4564D01*
X7261Y-4692D01*
Y-4778D01*
X7304Y-4906D01*
X7390Y-4992D01*
X7476Y-5035D01*
X7604D01*
X7690Y-4992D01*
X7775Y-4906D01*
X8722Y-4135D02*
Y-5035D01*
Y-4135D02*
X9022D01*
X9151Y-4178D01*
X9237Y-4264D01*
X9279Y-4349D01*
X9322Y-4478D01*
Y-4692D01*
X9279Y-4821D01*
X9237Y-4906D01*
X9151Y-4992D01*
X9022Y-5035D01*
X8722D01*
X9609Y-4135D02*
X9652Y-4178D01*
X9695Y-4135D01*
X9652Y-4092D01*
X9609Y-4135D01*
X9652Y-4435D02*
Y-5035D01*
X9854Y-4435D02*
Y-5035D01*
Y-4607D02*
X9982Y-4478D01*
X10068Y-4435D01*
X10196D01*
X10282Y-4478D01*
X10325Y-4607D01*
Y-5035D01*
Y-4607D02*
X10453Y-4478D01*
X10539Y-4435D01*
X10668D01*
X10753Y-4478D01*
X10796Y-4607D01*
Y-5035D01*
X11079Y-4692D02*
X11593D01*
Y-4607D01*
X11550Y-4521D01*
X11507Y-4478D01*
X11422Y-4435D01*
X11293D01*
X11208Y-4478D01*
X11122Y-4564D01*
X11079Y-4692D01*
Y-4778D01*
X11122Y-4906D01*
X11208Y-4992D01*
X11293Y-5035D01*
X11422D01*
X11507Y-4992D01*
X11593Y-4906D01*
X11786Y-4435D02*
Y-5035D01*
Y-4607D02*
X11915Y-4478D01*
X12000Y-4435D01*
X12129D01*
X12214Y-4478D01*
X12257Y-4607D01*
Y-5035D01*
X12964Y-4564D02*
X12921Y-4478D01*
X12793Y-4435D01*
X12664D01*
X12536Y-4478D01*
X12493Y-4564D01*
X12536Y-4649D01*
X12622Y-4692D01*
X12836Y-4735D01*
X12921Y-4778D01*
X12964Y-4864D01*
Y-4906D01*
X12921Y-4992D01*
X12793Y-5035D01*
X12664D01*
X12536Y-4992D01*
X12493Y-4906D01*
X13239Y-4135D02*
X13281Y-4178D01*
X13324Y-4135D01*
X13281Y-4092D01*
X13239Y-4135D01*
X13281Y-4435D02*
Y-5035D01*
X13697Y-4435D02*
X13611Y-4478D01*
X13526Y-4564D01*
X13483Y-4692D01*
Y-4778D01*
X13526Y-4906D01*
X13611Y-4992D01*
X13697Y-5035D01*
X13826D01*
X13911Y-4992D01*
X13997Y-4906D01*
X14040Y-4778D01*
Y-4692D01*
X13997Y-4564D01*
X13911Y-4478D01*
X13826Y-4435D01*
X13697D01*
X14237D02*
Y-5035D01*
Y-4607D02*
X14365Y-4478D01*
X14451Y-4435D01*
X14580D01*
X14665Y-4478D01*
X14708Y-4607D01*
Y-5035D01*
D31*
X10741Y-1470D02*
X10541Y-1570D01*
X10341Y-1770D01*
Y-1970D01*
X10441Y-2070D01*
X10641D01*
X10741Y-1970D01*
Y-1870D01*
X10641Y-1770D01*
X10341D01*
X10940Y-1570D02*
X11040Y-1470D01*
X11240D01*
X11340Y-1570D01*
Y-1670D01*
X11240Y-1770D01*
X11140D01*
X11240D01*
X11340Y-1870D01*
Y-1970D01*
X11240Y-2070D01*
X11040D01*
X10940Y-1970D01*
X11640Y-2170D02*
X11740Y-2070D01*
Y-1970D01*
X11640D01*
Y-2070D01*
X11740D01*
X11640Y-2170D01*
X11540Y-2270D01*
X12540Y-1470D02*
X12140D01*
Y-1770D01*
X12340Y-1670D01*
X12440D01*
X12540Y-1770D01*
Y-1970D01*
X12440Y-2070D01*
X12240D01*
X12140Y-1970D01*
X12740Y-1570D02*
X12840Y-1470D01*
X13040D01*
X13140Y-1570D01*
Y-1970D01*
X13040Y-2070D01*
X12840D01*
X12740Y-1970D01*
Y-1570D01*
X13340Y-2070D02*
Y-1670D01*
X13440D01*
X13540Y-1770D01*
Y-2070D01*
Y-1770D01*
X13640Y-1670D01*
X13740Y-1770D01*
Y-2070D01*
X13939D02*
Y-1670D01*
X14039D01*
X14139Y-1770D01*
Y-2070D01*
Y-1770D01*
X14239Y-1670D01*
X14339Y-1770D01*
Y-2070D01*
X-1670Y23266D02*
Y23466D01*
Y23366D01*
X-2270D01*
X-2170Y23266D01*
Y23766D02*
X-2270Y23866D01*
Y24065D01*
X-2170Y24165D01*
X-2070D01*
X-1970Y24065D01*
Y23965D01*
Y24065D01*
X-1870Y24165D01*
X-1770D01*
X-1670Y24065D01*
Y23866D01*
X-1770Y23766D01*
X-2170Y24365D02*
X-2270Y24465D01*
Y24665D01*
X-2170Y24765D01*
X-1770D01*
X-1670Y24665D01*
Y24465D01*
X-1770Y24365D01*
X-2170D01*
X-1570Y25065D02*
X-1670Y25165D01*
X-1770D01*
Y25065D01*
X-1670D01*
Y25165D01*
X-1570Y25065D01*
X-1470Y24965D01*
X-1670Y25565D02*
Y25765D01*
Y25665D01*
X-2270D01*
X-2170Y25565D01*
Y26065D02*
X-2270Y26165D01*
Y26365D01*
X-2170Y26465D01*
X-2070D01*
X-1970Y26365D01*
X-1870Y26465D01*
X-1770D01*
X-1670Y26365D01*
Y26165D01*
X-1770Y26065D01*
X-1870D01*
X-1970Y26165D01*
X-2070Y26065D01*
X-2170D01*
X-1970Y26165D02*
Y26365D01*
X-1670Y26665D02*
X-2070D01*
Y26765D01*
X-1970Y26865D01*
X-1670D01*
X-1970D01*
X-2070Y26965D01*
X-1970Y27064D01*
X-1670D01*
Y27264D02*
X-2070D01*
Y27364D01*
X-1970Y27464D01*
X-1670D01*
X-1970D01*
X-2070Y27564D01*
X-1970Y27664D01*
X-1670D01*
M02*
