G04 Layer_Color=32768*
%FSLAX24Y24*%
%MOIN*%
G70*
G01*
G75*
%ADD10C,0.0100*%
%ADD30C,0.0050*%
%ADD35C,0.0020*%
%ADD36C,0.0010*%
%ADD37C,0.0001*%
%ADD38C,0.0070*%
D10*
X131750Y127198D02*
Y127644D01*
X131973Y127867D01*
X132196Y127644D01*
Y127198D01*
Y127532D01*
X131750D01*
X132865Y127867D02*
Y127198D01*
X132531D01*
X132419Y127309D01*
Y127532D01*
X132531Y127644D01*
X132865D01*
X133534Y127867D02*
Y127198D01*
X133200D01*
X133088Y127309D01*
Y127532D01*
X133200Y127644D01*
X133534D01*
X134092Y127198D02*
X133869D01*
X133757Y127309D01*
Y127532D01*
X133869Y127644D01*
X134092D01*
X134203Y127532D01*
Y127421D01*
X133757D01*
X134872Y127867D02*
Y127198D01*
X134538D01*
X134426Y127309D01*
Y127532D01*
X134538Y127644D01*
X134872D01*
X136210D02*
X135876D01*
X135764Y127532D01*
Y127309D01*
X135876Y127198D01*
X136210D01*
X136434D02*
X136657D01*
X136545D01*
Y127644D01*
X136434D01*
X136991D02*
Y127198D01*
Y127421D01*
X137103Y127532D01*
X137214Y127644D01*
X137326D01*
X138106D02*
X137772D01*
X137660Y127532D01*
Y127309D01*
X137772Y127198D01*
X138106D01*
X138329Y127644D02*
Y127309D01*
X138441Y127198D01*
X138775D01*
Y127644D01*
X138998Y127198D02*
X139221D01*
X139110D01*
Y127644D01*
X138998D01*
X139667Y127755D02*
Y127644D01*
X139556D01*
X139779D01*
X139667D01*
Y127309D01*
X139779Y127198D01*
X140113Y127644D02*
Y127198D01*
Y127421D01*
X140225Y127532D01*
X140336Y127644D01*
X140448D01*
X140783D02*
Y127309D01*
X140894Y127198D01*
X141229D01*
Y127086D01*
X141117Y126975D01*
X141006D01*
X141229Y127198D02*
Y127644D01*
X142232Y127198D02*
Y127755D01*
Y127532D01*
X142121D01*
X142344D01*
X142232D01*
Y127755D01*
X142344Y127867D01*
X142790Y127198D02*
X143013D01*
X143124Y127309D01*
Y127532D01*
X143013Y127644D01*
X142790D01*
X142678Y127532D01*
Y127309D01*
X142790Y127198D01*
X143347Y127644D02*
Y127198D01*
Y127421D01*
X143459Y127532D01*
X143570Y127644D01*
X143682D01*
X144797Y127755D02*
Y127644D01*
X144685D01*
X144908D01*
X144797D01*
Y127309D01*
X144908Y127198D01*
X145243Y127644D02*
Y127309D01*
X145355Y127198D01*
X145466Y127309D01*
X145578Y127198D01*
X145689Y127309D01*
Y127644D01*
X146024Y127198D02*
X146247D01*
X146358Y127309D01*
Y127532D01*
X146247Y127644D01*
X146024D01*
X145912Y127532D01*
Y127309D01*
X146024Y127198D01*
X147250Y127867D02*
Y127198D01*
X147585D01*
X147696Y127309D01*
Y127421D01*
Y127532D01*
X147585Y127644D01*
X147250D01*
X147919D02*
Y127309D01*
X148031Y127198D01*
X148365D01*
Y127086D01*
X148254Y126975D01*
X148142D01*
X148365Y127198D02*
Y127644D01*
X148588Y126975D02*
Y127644D01*
X148923D01*
X149034Y127532D01*
Y127309D01*
X148923Y127198D01*
X148588D01*
X149369Y127644D02*
X149592D01*
X149704Y127532D01*
Y127198D01*
X149369D01*
X149257Y127309D01*
X149369Y127421D01*
X149704D01*
X149927Y127198D02*
X150261D01*
X150373Y127309D01*
X150261Y127421D01*
X150038D01*
X149927Y127532D01*
X150038Y127644D01*
X150373D01*
X150596Y127198D02*
X150930D01*
X151042Y127309D01*
X150930Y127421D01*
X150707D01*
X150596Y127532D01*
X150707Y127644D01*
X151042D01*
X151934D02*
X152157Y127198D01*
X152380Y127644D01*
X152714D02*
X152937D01*
X153049Y127532D01*
Y127198D01*
X152714D01*
X152603Y127309D01*
X152714Y127421D01*
X153049D01*
X153272Y127198D02*
X153495D01*
X153383D01*
Y127867D01*
X153272D01*
X153829Y127644D02*
X154052Y127198D01*
X154276Y127644D01*
X154833Y127198D02*
X154610D01*
X154499Y127309D01*
Y127532D01*
X154610Y127644D01*
X154833D01*
X154945Y127532D01*
Y127421D01*
X154499D01*
X155168Y127198D02*
X155502D01*
X155614Y127309D01*
X155502Y127421D01*
X155279D01*
X155168Y127532D01*
X155279Y127644D01*
X155614D01*
X160006Y127945D02*
X159856Y128095D01*
X159556D01*
X159406Y127945D01*
Y127795D01*
X159556Y127645D01*
X159856D01*
X160006Y127495D01*
Y127345D01*
X159856Y127195D01*
X159556D01*
X159406Y127345D01*
X160306Y127195D02*
Y127345D01*
X160456D01*
Y127195D01*
X160306D01*
X161056Y128095D02*
Y127195D01*
X161506D01*
X161656Y127345D01*
Y127495D01*
X161506Y127645D01*
X161056D01*
X161506D01*
X161656Y127795D01*
Y127945D01*
X161506Y128095D01*
X161056D01*
X161955Y127195D02*
X162255D01*
X162105D01*
Y128095D01*
X161955D01*
X162705Y127195D02*
X163005D01*
X162855D01*
Y127795D01*
X162705D01*
X164055D02*
X163605D01*
X163455Y127645D01*
Y127345D01*
X163605Y127195D01*
X164055D01*
X164355Y128095D02*
Y127195D01*
Y127645D01*
X164505Y127795D01*
X164805D01*
X164955Y127645D01*
Y127195D01*
X165404Y127795D02*
X165704D01*
X165854Y127645D01*
Y127195D01*
X165404D01*
X165254Y127345D01*
X165404Y127495D01*
X165854D01*
X166154Y127795D02*
Y127195D01*
Y127495D01*
X166304Y127645D01*
X166454Y127795D01*
X166604D01*
X167054D02*
X167654D01*
X167054Y127195D01*
X167654D01*
X124281Y127135D02*
X124504D01*
X124393D01*
Y127804D01*
X124281Y127693D01*
X125285Y127804D02*
X124839D01*
Y127470D01*
X125062Y127581D01*
X125173D01*
X125285Y127470D01*
Y127247D01*
X125173Y127135D01*
X124950D01*
X124839Y127247D01*
X125508Y127135D02*
Y127247D01*
X125620D01*
Y127135D01*
X125508D01*
X126066Y127693D02*
X126177Y127804D01*
X126400D01*
X126512Y127693D01*
Y127247D01*
X126400Y127135D01*
X126177D01*
X126066Y127247D01*
Y127693D01*
X126735D02*
X126846Y127804D01*
X127069D01*
X127181Y127693D01*
Y127581D01*
X127069Y127470D01*
X126958D01*
X127069D01*
X127181Y127358D01*
Y127247D01*
X127069Y127135D01*
X126846D01*
X126735Y127247D01*
X127404Y127135D02*
Y127247D01*
X127515D01*
Y127135D01*
X127404D01*
X128407D02*
X127961D01*
X128407Y127581D01*
Y127693D01*
X128296Y127804D01*
X128073D01*
X127961Y127693D01*
X128630D02*
X128742Y127804D01*
X128965D01*
X129076Y127693D01*
Y127247D01*
X128965Y127135D01*
X128742D01*
X128630Y127247D01*
Y127693D01*
X129299Y127135D02*
X129522D01*
X129411D01*
Y127804D01*
X129299Y127693D01*
X129857Y127804D02*
X130303D01*
Y127693D01*
X129857Y127247D01*
Y127135D01*
X120848Y127098D02*
Y127697D01*
X121147Y127997D01*
X121447Y127697D01*
Y127098D01*
Y127547D01*
X120848D01*
X121747Y127098D02*
Y127248D01*
X121897D01*
Y127098D01*
X121747D01*
X122497Y127847D02*
X122647Y127997D01*
X122947D01*
X123097Y127847D01*
Y127697D01*
X122947Y127547D01*
X122797D01*
X122947D01*
X123097Y127397D01*
Y127248D01*
X122947Y127098D01*
X122647D01*
X122497Y127248D01*
X120845Y128785D02*
Y129384D01*
X121145Y129684D01*
X121445Y129384D01*
Y128785D01*
Y129234D01*
X120845D01*
X121745Y128785D02*
Y128935D01*
X121895D01*
Y128785D01*
X121745D01*
X123094D02*
X122495D01*
X123094Y129384D01*
Y129534D01*
X122944Y129684D01*
X122645D01*
X122495Y129534D01*
X124279Y129380D02*
X124390Y129491D01*
X124613D01*
X124725Y129380D01*
Y128934D01*
X124613Y128822D01*
X124390D01*
X124279Y128934D01*
Y129380D01*
X125394Y129491D02*
X125171Y129380D01*
X124948Y129157D01*
Y128934D01*
X125060Y128822D01*
X125283D01*
X125394Y128934D01*
Y129045D01*
X125283Y129157D01*
X124948D01*
X125617Y128822D02*
Y128934D01*
X125729D01*
Y128822D01*
X125617D01*
X126175Y129380D02*
X126286Y129491D01*
X126509D01*
X126621Y129380D01*
Y128934D01*
X126509Y128822D01*
X126286D01*
X126175Y128934D01*
Y129380D01*
X126844Y128822D02*
X127067D01*
X126955D01*
Y129491D01*
X126844Y129380D01*
X127401Y128822D02*
Y128934D01*
X127513D01*
Y128822D01*
X127401D01*
X128405D02*
X127959D01*
X128405Y129268D01*
Y129380D01*
X128293Y129491D01*
X128070D01*
X127959Y129380D01*
X128628D02*
X128739Y129491D01*
X128962D01*
X129074Y129380D01*
Y128934D01*
X128962Y128822D01*
X128739D01*
X128628Y128934D01*
Y129380D01*
X129297Y128822D02*
X129520D01*
X129408D01*
Y129491D01*
X129297Y129380D01*
X129855Y129491D02*
X130301D01*
Y129380D01*
X129855Y128934D01*
Y128822D01*
X160004Y129632D02*
X159854Y129782D01*
X159554D01*
X159404Y129632D01*
Y129482D01*
X159554Y129332D01*
X159854D01*
X160004Y129182D01*
Y129032D01*
X159854Y128882D01*
X159554D01*
X159404Y129032D01*
X160304Y128882D02*
Y129032D01*
X160454D01*
Y128882D01*
X160304D01*
X161053Y129782D02*
Y128882D01*
X161503D01*
X161653Y129032D01*
Y129182D01*
X161503Y129332D01*
X161053D01*
X161503D01*
X161653Y129482D01*
Y129632D01*
X161503Y129782D01*
X161053D01*
X161953Y128882D02*
X162253D01*
X162103D01*
Y129782D01*
X161953D01*
X162703Y128882D02*
X163003D01*
X162853D01*
Y129482D01*
X162703D01*
X164052D02*
X163603D01*
X163453Y129332D01*
Y129032D01*
X163603Y128882D01*
X164052D01*
X164352Y129782D02*
Y128882D01*
Y129332D01*
X164502Y129482D01*
X164802D01*
X164952Y129332D01*
Y128882D01*
X165402Y129482D02*
X165702D01*
X165852Y129332D01*
Y128882D01*
X165402D01*
X165252Y129032D01*
X165402Y129182D01*
X165852D01*
X166152Y129482D02*
Y128882D01*
Y129182D01*
X166302Y129332D01*
X166452Y129482D01*
X166602D01*
X167051D02*
X167651D01*
X167051Y128882D01*
X167651D01*
X132181Y129344D02*
X132070Y129455D01*
X131847D01*
X131735Y129344D01*
Y128898D01*
X131847Y128786D01*
X132070D01*
X132181Y128898D01*
X132404Y129455D02*
Y128786D01*
Y129121D01*
X132516Y129232D01*
X132739D01*
X132850Y129121D01*
Y128786D01*
X133185Y129232D02*
X133408D01*
X133519Y129121D01*
Y128786D01*
X133185D01*
X133073Y128898D01*
X133185Y129009D01*
X133519D01*
X133742Y128786D02*
Y129232D01*
X134077D01*
X134188Y129121D01*
Y128786D01*
X134634Y128563D02*
X134746D01*
X134857Y128674D01*
Y129232D01*
X134523D01*
X134411Y129121D01*
Y128898D01*
X134523Y128786D01*
X134857D01*
X135415D02*
X135192D01*
X135080Y128898D01*
Y129121D01*
X135192Y129232D01*
X135415D01*
X135527Y129121D01*
Y129009D01*
X135080D01*
X136196Y129455D02*
Y128786D01*
X135861D01*
X135750Y128898D01*
Y129121D01*
X135861Y129232D01*
X136196D01*
X137088Y128786D02*
Y129455D01*
X137422D01*
X137534Y129344D01*
Y129121D01*
X137422Y129009D01*
X137088D01*
X137311D02*
X137534Y128786D01*
X138203D02*
X137757D01*
X138203Y129232D01*
Y129344D01*
X138091Y129455D01*
X137868D01*
X137757Y129344D01*
X138426Y128786D02*
X138649D01*
X138537D01*
Y129455D01*
X138426Y129344D01*
X139095Y128674D02*
X139206Y128786D01*
Y128898D01*
X139095D01*
Y128786D01*
X139206D01*
X139095Y128674D01*
X138983Y128563D01*
X140322Y128786D02*
Y129455D01*
X140656D01*
X140768Y129344D01*
Y129121D01*
X140656Y129009D01*
X140322D01*
X140545D02*
X140768Y128786D01*
X141437D02*
X140991D01*
X141437Y129232D01*
Y129344D01*
X141325Y129455D01*
X141102D01*
X140991Y129344D01*
X142106Y128786D02*
X141660D01*
X142106Y129232D01*
Y129344D01*
X141994Y129455D01*
X141771D01*
X141660Y129344D01*
X143109D02*
Y129232D01*
X142998D01*
X143221D01*
X143109D01*
Y128898D01*
X143221Y128786D01*
X143667D02*
X143890D01*
X144002Y128898D01*
Y129121D01*
X143890Y129232D01*
X143667D01*
X143555Y129121D01*
Y128898D01*
X143667Y128786D01*
X144894D02*
X145117D01*
X145005D01*
Y129455D01*
X144894Y129344D01*
X145451Y128786D02*
Y129455D01*
Y129009D02*
X145786Y129232D01*
X145451Y129009D02*
X145786Y128786D01*
X146566Y129455D02*
X146120D01*
Y129121D01*
X146343Y129232D01*
X146455D01*
X146566Y129121D01*
Y128898D01*
X146455Y128786D01*
X146232D01*
X146120Y128898D01*
X146789Y129121D02*
Y129232D01*
X146901D01*
Y129121D01*
X146789D01*
Y128898D02*
X146901D01*
Y128786D01*
X146789Y128674D01*
X146901Y128786D02*
X146789D01*
Y128898D01*
X148016Y128786D02*
Y129232D01*
X148127D01*
X148239Y129121D01*
Y128786D01*
Y129121D01*
X148350Y129232D01*
X148462Y129121D01*
Y128786D01*
X148797D02*
X149020D01*
X149131Y128898D01*
Y129121D01*
X149020Y129232D01*
X148797D01*
X148685Y129121D01*
Y128898D01*
X148797Y128786D01*
X149354Y129232D02*
X149577Y128786D01*
X149800Y129232D01*
X150358Y128786D02*
X150135D01*
X150023Y128898D01*
Y129121D01*
X150135Y129232D01*
X150358D01*
X150469Y129121D01*
Y129009D01*
X150023D01*
X151138Y129455D02*
Y128786D01*
X150804D01*
X150692Y128898D01*
Y129121D01*
X150804Y129232D01*
X151138D01*
X152030Y129455D02*
Y128786D01*
X152476D01*
X153146Y129344D02*
X153034Y129455D01*
X152811D01*
X152699Y129344D01*
Y128898D01*
X152811Y128786D01*
X153034D01*
X153146Y128898D01*
X153369Y129455D02*
Y128786D01*
X153703D01*
X153815Y128898D01*
Y129344D01*
X153703Y129455D01*
X153369D01*
X154038Y128786D02*
X154261D01*
X154149D01*
Y129455D01*
X154038Y129344D01*
X154707Y128674D02*
X154818Y128786D01*
Y128898D01*
X154707D01*
Y128786D01*
X154818D01*
X154707Y128674D01*
X154595Y128563D01*
X155933Y129455D02*
Y128786D01*
X156379D01*
X157048Y129344D02*
X156937Y129455D01*
X156714D01*
X156602Y129344D01*
Y128898D01*
X156714Y128786D01*
X156937D01*
X157048Y128898D01*
X157271Y129455D02*
Y128786D01*
X157606D01*
X157718Y128898D01*
Y129344D01*
X157606Y129455D01*
X157271D01*
X158387Y128786D02*
X157941D01*
X158387Y129232D01*
Y129344D01*
X158275Y129455D01*
X158052D01*
X157941Y129344D01*
X120306Y132255D02*
Y133305D01*
X120831D01*
X121006Y133130D01*
Y132780D01*
X120831Y132605D01*
X120306D01*
X120656D02*
X121006Y132255D01*
X122056Y133305D02*
X121356D01*
Y132255D01*
X122056D01*
X121356Y132780D02*
X121706D01*
X122406Y133305D02*
Y132605D01*
X122756Y132255D01*
X123105Y132605D01*
Y133305D01*
X125506D02*
Y132255D01*
X126031D01*
X126206Y132430D01*
Y133130D01*
X126031Y133305D01*
X125506D01*
X126556Y132255D02*
Y132955D01*
X126906Y133305D01*
X127256Y132955D01*
Y132255D01*
Y132780D01*
X126556D01*
X127606Y133305D02*
X128305D01*
X127956D01*
Y132255D01*
X129355Y133305D02*
X128655D01*
Y132255D01*
X129355D01*
X128655Y132780D02*
X129005D01*
X135567Y133134D02*
X135392Y133309D01*
X135042D01*
X134868Y133134D01*
Y132434D01*
X135042Y132259D01*
X135392D01*
X135567Y132434D01*
X135917Y133309D02*
Y132259D01*
Y132784D01*
X136617D01*
Y133309D01*
Y132259D01*
X136967D02*
Y132959D01*
X137317Y133309D01*
X137667Y132959D01*
Y132259D01*
Y132784D01*
X136967D01*
X138017Y132259D02*
Y133309D01*
X138716Y132259D01*
Y133309D01*
X139766Y133134D02*
X139591Y133309D01*
X139241D01*
X139066Y133134D01*
Y132434D01*
X139241Y132259D01*
X139591D01*
X139766Y132434D01*
Y132784D01*
X139416D01*
X140816Y133309D02*
X140116D01*
Y132259D01*
X140816D01*
X140116Y132784D02*
X140466D01*
X141865Y133134D02*
X141690Y133309D01*
X141340D01*
X141166Y133134D01*
Y132959D01*
X141340Y132784D01*
X141690D01*
X141865Y132609D01*
Y132434D01*
X141690Y132259D01*
X141340D01*
X141166Y132434D01*
X143265Y133309D02*
Y132259D01*
X143790D01*
X143965Y132434D01*
Y133134D01*
X143790Y133309D01*
X143265D01*
X145014D02*
X144315D01*
Y132259D01*
X145014D01*
X144315Y132784D02*
X144664D01*
X146064Y133134D02*
X145889Y133309D01*
X145539D01*
X145364Y133134D01*
Y132959D01*
X145539Y132784D01*
X145889D01*
X146064Y132609D01*
Y132434D01*
X145889Y132259D01*
X145539D01*
X145364Y132434D01*
X147114Y133134D02*
X146939Y133309D01*
X146589D01*
X146414Y133134D01*
Y132434D01*
X146589Y132259D01*
X146939D01*
X147114Y132434D01*
X147463Y132259D02*
Y133309D01*
X147988D01*
X148163Y133134D01*
Y132784D01*
X147988Y132609D01*
X147463D01*
X147813D02*
X148163Y132259D01*
X148513Y133309D02*
X148863D01*
X148688D01*
Y132259D01*
X148513D01*
X148863D01*
X149388D02*
Y133309D01*
X149913D01*
X150088Y133134D01*
Y132784D01*
X149913Y132609D01*
X149388D01*
X150438Y133309D02*
X151137D01*
X150787D01*
Y132259D01*
X151487Y133309D02*
X151837D01*
X151662D01*
Y132259D01*
X151487D01*
X151837D01*
X152887Y133309D02*
X152537D01*
X152362Y133134D01*
Y132434D01*
X152537Y132259D01*
X152887D01*
X153062Y132434D01*
Y133134D01*
X152887Y133309D01*
X153412Y132259D02*
Y133309D01*
X154111Y132259D01*
Y133309D01*
X160006Y132255D02*
Y133305D01*
X160706Y132255D01*
Y133305D01*
X161056Y132255D02*
Y132955D01*
X161406Y133305D01*
X161756Y132955D01*
Y132255D01*
Y132780D01*
X161056D01*
X162106Y132255D02*
Y133305D01*
X162456Y132955D01*
X162805Y133305D01*
Y132255D01*
X163855Y133305D02*
X163155D01*
Y132255D01*
X163855D01*
X163155Y132780D02*
X163505D01*
X164205Y132955D02*
X164380D01*
Y132780D01*
X164205D01*
Y132955D01*
Y132430D02*
X164380D01*
Y132255D01*
X164205D01*
Y132430D01*
X131738Y131359D02*
X132037D01*
X131888D01*
Y130459D01*
X131738D01*
X132037D01*
X132487D02*
Y131359D01*
X133087Y130459D01*
Y131359D01*
X133387D02*
X133687D01*
X133537D01*
Y130459D01*
X133387D01*
X133687D01*
X134137Y131359D02*
X134737D01*
X134437D01*
Y130459D01*
X135036Y131359D02*
X135336D01*
X135186D01*
Y130459D01*
X135036D01*
X135336D01*
X135786D02*
Y131059D01*
X136086Y131359D01*
X136386Y131059D01*
Y130459D01*
Y130909D01*
X135786D01*
X136686Y131359D02*
Y130459D01*
X137286D01*
X138485D02*
Y131359D01*
X138935D01*
X139085Y131209D01*
Y130909D01*
X138935Y130759D01*
X138485D01*
X138785D02*
X139085Y130459D01*
X139985Y131359D02*
X139385D01*
Y130459D01*
X139985D01*
X139385Y130909D02*
X139685D01*
X140285Y131359D02*
Y130459D01*
X140885D01*
X141784Y131359D02*
X141185D01*
Y130459D01*
X141784D01*
X141185Y130909D02*
X141484D01*
X142084Y130459D02*
Y131059D01*
X142384Y131359D01*
X142684Y131059D01*
Y130459D01*
Y130909D01*
X142084D01*
X143584Y131209D02*
X143434Y131359D01*
X143134D01*
X142984Y131209D01*
Y131059D01*
X143134Y130909D01*
X143434D01*
X143584Y130759D01*
Y130609D01*
X143434Y130459D01*
X143134D01*
X142984Y130609D01*
X144483Y131359D02*
X143884D01*
Y130459D01*
X144483D01*
X143884Y130909D02*
X144184D01*
X160006Y131305D02*
X159856Y131455D01*
X159556D01*
X159406Y131305D01*
Y131155D01*
X159556Y131005D01*
X159856D01*
X160006Y130855D01*
Y130705D01*
X159856Y130555D01*
X159556D01*
X159406Y130705D01*
X160306Y130555D02*
Y130705D01*
X160456D01*
Y130555D01*
X160306D01*
X161056Y131455D02*
Y130555D01*
X161506D01*
X161656Y130705D01*
Y130855D01*
X161506Y131005D01*
X161056D01*
X161506D01*
X161656Y131155D01*
Y131305D01*
X161506Y131455D01*
X161056D01*
X161955Y130555D02*
X162255D01*
X162105D01*
Y131455D01*
X161955D01*
X162705Y130555D02*
X163005D01*
X162855D01*
Y131155D01*
X162705D01*
X164055D02*
X163605D01*
X163455Y131005D01*
Y130705D01*
X163605Y130555D01*
X164055D01*
X164355Y131455D02*
Y130555D01*
Y131005D01*
X164505Y131155D01*
X164805D01*
X164955Y131005D01*
Y130555D01*
X165404Y131155D02*
X165704D01*
X165854Y131005D01*
Y130555D01*
X165404D01*
X165254Y130705D01*
X165404Y130855D01*
X165854D01*
X166154Y131155D02*
Y130555D01*
Y130855D01*
X166304Y131005D01*
X166454Y131155D01*
X166604D01*
X167054D02*
X167654D01*
X167054Y130555D01*
X167654D01*
X124727Y130495D02*
X124281D01*
X124727Y130941D01*
Y131053D01*
X124616Y131164D01*
X124393D01*
X124281Y131053D01*
X125285Y130495D02*
Y131164D01*
X124950Y130830D01*
X125396D01*
X125620Y130495D02*
Y130607D01*
X125731D01*
Y130495D01*
X125620D01*
X126177Y131053D02*
X126289Y131164D01*
X126512D01*
X126623Y131053D01*
Y130607D01*
X126512Y130495D01*
X126289D01*
X126177Y130607D01*
Y131053D01*
X126846D02*
X126958Y131164D01*
X127181D01*
X127292Y131053D01*
Y130941D01*
X127181Y130830D01*
X127292Y130718D01*
Y130607D01*
X127181Y130495D01*
X126958D01*
X126846Y130607D01*
Y130718D01*
X126958Y130830D01*
X126846Y130941D01*
Y131053D01*
X126958Y130830D02*
X127181D01*
X127515Y130495D02*
Y130607D01*
X127627D01*
Y130495D01*
X127515D01*
X128519D02*
X128073D01*
X128519Y130941D01*
Y131053D01*
X128407Y131164D01*
X128184D01*
X128073Y131053D01*
X128742D02*
X128853Y131164D01*
X129076D01*
X129188Y131053D01*
Y130607D01*
X129076Y130495D01*
X128853D01*
X128742Y130607D01*
Y131053D01*
X129411Y130495D02*
X129634D01*
X129522D01*
Y131164D01*
X129411Y131053D01*
X130415Y131164D02*
X130192Y131053D01*
X129968Y130830D01*
Y130607D01*
X130080Y130495D01*
X130303D01*
X130415Y130607D01*
Y130718D01*
X130303Y130830D01*
X129968D01*
X120728Y130440D02*
Y131040D01*
X121027Y131340D01*
X121327Y131040D01*
Y130440D01*
Y130890D01*
X120728D01*
X121627Y130440D02*
Y130590D01*
X121777D01*
Y130440D01*
X121627D01*
X122377D02*
X122677D01*
X122527D01*
Y131340D01*
X122377Y131190D01*
X-139164Y-78033D02*
X-138907D01*
X-138821Y-78004D01*
X-138792Y-77976D01*
X-138764Y-77919D01*
Y-77833D01*
X-138792Y-77776D01*
X-138821Y-77747D01*
X-138907Y-77719D01*
X-139164D01*
Y-78319D01*
X-138630Y-77719D02*
Y-78319D01*
Y-77719D02*
X-138372D01*
X-138287Y-77747D01*
X-138258Y-77776D01*
X-138230Y-77833D01*
Y-77890D01*
X-138258Y-77947D01*
X-138287Y-77976D01*
X-138372Y-78004D01*
X-138630D01*
X-138430D02*
X-138230Y-78319D01*
X-137924Y-77719D02*
X-137981Y-77747D01*
X-138038Y-77804D01*
X-138067Y-77862D01*
X-138095Y-77947D01*
Y-78090D01*
X-138067Y-78176D01*
X-138038Y-78233D01*
X-137981Y-78290D01*
X-137924Y-78319D01*
X-137810D01*
X-137753Y-78290D01*
X-137695Y-78233D01*
X-137667Y-78176D01*
X-137638Y-78090D01*
Y-77947D01*
X-137667Y-77862D01*
X-137695Y-77804D01*
X-137753Y-77747D01*
X-137810Y-77719D01*
X-137924D01*
X-137498Y-78033D02*
X-137241D01*
X-137156Y-78004D01*
X-137127Y-77976D01*
X-137098Y-77919D01*
Y-77833D01*
X-137127Y-77776D01*
X-137156Y-77747D01*
X-137241Y-77719D01*
X-137498D01*
Y-78319D01*
X-136964Y-77719D02*
Y-78319D01*
Y-77719D02*
X-136707D01*
X-136621Y-77747D01*
X-136593Y-77776D01*
X-136564Y-77833D01*
Y-77890D01*
X-136593Y-77947D01*
X-136621Y-77976D01*
X-136707Y-78004D01*
X-136964D01*
X-136764D02*
X-136564Y-78319D01*
X-136430Y-77719D02*
Y-78319D01*
X-135933Y-77719D02*
X-136304D01*
Y-78319D01*
X-135933D01*
X-136304Y-78004D02*
X-136076D01*
X-135633Y-77719D02*
Y-78319D01*
X-135833Y-77719D02*
X-135433D01*
X-134905Y-78319D02*
X-135133Y-77719D01*
X-135362Y-78319D01*
X-135276Y-78119D02*
X-134990D01*
X-134765Y-77719D02*
Y-78319D01*
Y-77719D02*
X-134508D01*
X-134422Y-77747D01*
X-134393Y-77776D01*
X-134365Y-77833D01*
Y-77890D01*
X-134393Y-77947D01*
X-134422Y-77976D01*
X-134508Y-78004D01*
X-134765D01*
X-134565D02*
X-134365Y-78319D01*
X-134230Y-77719D02*
X-134002Y-78004D01*
Y-78319D01*
X-133773Y-77719D02*
X-134002Y-78004D01*
X-132768Y-78319D02*
X-132996Y-77719D01*
X-133225Y-78319D01*
X-133139Y-78119D02*
X-132854D01*
X-132628Y-77719D02*
Y-78319D01*
Y-77719D02*
X-132228Y-78319D01*
Y-77719D02*
Y-78319D01*
X-132062Y-77719D02*
Y-78319D01*
Y-77719D02*
X-131862D01*
X-131777Y-77747D01*
X-131720Y-77804D01*
X-131691Y-77862D01*
X-131662Y-77947D01*
Y-78090D01*
X-131691Y-78176D01*
X-131720Y-78233D01*
X-131777Y-78290D01*
X-131862Y-78319D01*
X-132062D01*
X-130628Y-77862D02*
X-130657Y-77804D01*
X-130714Y-77747D01*
X-130771Y-77719D01*
X-130885D01*
X-130943Y-77747D01*
X-131000Y-77804D01*
X-131028Y-77862D01*
X-131057Y-77947D01*
Y-78090D01*
X-131028Y-78176D01*
X-131000Y-78233D01*
X-130943Y-78290D01*
X-130885Y-78319D01*
X-130771D01*
X-130714Y-78290D01*
X-130657Y-78233D01*
X-130628Y-78176D01*
X-130288Y-77719D02*
X-130346Y-77747D01*
X-130403Y-77804D01*
X-130431Y-77862D01*
X-130460Y-77947D01*
Y-78090D01*
X-130431Y-78176D01*
X-130403Y-78233D01*
X-130346Y-78290D01*
X-130288Y-78319D01*
X-130174D01*
X-130117Y-78290D01*
X-130060Y-78233D01*
X-130031Y-78176D01*
X-130003Y-78090D01*
Y-77947D01*
X-130031Y-77862D01*
X-130060Y-77804D01*
X-130117Y-77747D01*
X-130174Y-77719D01*
X-130288D01*
X-129863D02*
Y-78319D01*
Y-77719D02*
X-129463Y-78319D01*
Y-77719D02*
Y-78319D01*
X-129297Y-77719D02*
Y-78319D01*
Y-77719D02*
X-128926D01*
X-129297Y-78004D02*
X-129069D01*
X-128857Y-77719D02*
Y-78319D01*
X-128732Y-77719D02*
Y-78319D01*
Y-77719D02*
X-128532D01*
X-128446Y-77747D01*
X-128389Y-77804D01*
X-128360Y-77862D01*
X-128332Y-77947D01*
Y-78090D01*
X-128360Y-78176D01*
X-128389Y-78233D01*
X-128446Y-78290D01*
X-128532Y-78319D01*
X-128732D01*
X-127826Y-77719D02*
X-128197D01*
Y-78319D01*
X-127826D01*
X-128197Y-78004D02*
X-127969D01*
X-127726Y-77719D02*
Y-78319D01*
Y-77719D02*
X-127326Y-78319D01*
Y-77719D02*
Y-78319D01*
X-126961Y-77719D02*
Y-78319D01*
X-127161Y-77719D02*
X-126761D01*
X-126689D02*
Y-78319D01*
X-126107D02*
X-126335Y-77719D01*
X-126564Y-78319D01*
X-126478Y-78119D02*
X-126192D01*
X-125967Y-77719D02*
Y-78319D01*
X-125624D01*
X-125529Y-78261D02*
X-125558Y-78290D01*
X-125529Y-78319D01*
X-125501Y-78290D01*
X-125529Y-78261D01*
X-139014Y-79139D02*
Y-79739D01*
X-139214Y-79139D02*
X-138814D01*
X-138742D02*
Y-79739D01*
X-138342Y-79139D02*
Y-79739D01*
X-138742Y-79424D02*
X-138342D01*
X-137805Y-79139D02*
X-138177D01*
Y-79739D01*
X-137805D01*
X-138177Y-79424D02*
X-137948D01*
X-137234Y-79139D02*
Y-79739D01*
X-137108Y-79139D02*
Y-79739D01*
Y-79139D02*
X-136709Y-79739D01*
Y-79139D02*
Y-79739D01*
X-136543Y-79139D02*
Y-79739D01*
Y-79139D02*
X-136171D01*
X-136543Y-79424D02*
X-136314D01*
X-135932Y-79139D02*
X-135989Y-79167D01*
X-136046Y-79224D01*
X-136074Y-79282D01*
X-136103Y-79367D01*
Y-79510D01*
X-136074Y-79596D01*
X-136046Y-79653D01*
X-135989Y-79710D01*
X-135932Y-79739D01*
X-135817D01*
X-135760Y-79710D01*
X-135703Y-79653D01*
X-135674Y-79596D01*
X-135646Y-79510D01*
Y-79367D01*
X-135674Y-79282D01*
X-135703Y-79224D01*
X-135760Y-79167D01*
X-135817Y-79139D01*
X-135932D01*
X-135506D02*
Y-79739D01*
Y-79139D02*
X-135249D01*
X-135163Y-79167D01*
X-135135Y-79196D01*
X-135106Y-79253D01*
Y-79310D01*
X-135135Y-79367D01*
X-135163Y-79396D01*
X-135249Y-79424D01*
X-135506D01*
X-135306D02*
X-135106Y-79739D01*
X-134972Y-79139D02*
Y-79739D01*
Y-79139D02*
X-134743Y-79739D01*
X-134515Y-79139D02*
X-134743Y-79739D01*
X-134515Y-79139D02*
Y-79739D01*
X-133886D02*
X-134115Y-79139D01*
X-134343Y-79739D01*
X-134258Y-79539D02*
X-133972D01*
X-133546Y-79139D02*
Y-79739D01*
X-133746Y-79139D02*
X-133346D01*
X-133275D02*
Y-79739D01*
X-132978Y-79139D02*
X-133035Y-79167D01*
X-133092Y-79224D01*
X-133121Y-79282D01*
X-133149Y-79367D01*
Y-79510D01*
X-133121Y-79596D01*
X-133092Y-79653D01*
X-133035Y-79710D01*
X-132978Y-79739D01*
X-132864D01*
X-132807Y-79710D01*
X-132749Y-79653D01*
X-132721Y-79596D01*
X-132692Y-79510D01*
Y-79367D01*
X-132721Y-79282D01*
X-132749Y-79224D01*
X-132807Y-79167D01*
X-132864Y-79139D01*
X-132978D01*
X-132552D02*
Y-79739D01*
Y-79139D02*
X-132152Y-79739D01*
Y-79139D02*
Y-79739D01*
X-131087Y-79282D02*
X-131115Y-79224D01*
X-131173Y-79167D01*
X-131230Y-79139D01*
X-131344D01*
X-131401Y-79167D01*
X-131458Y-79224D01*
X-131487Y-79282D01*
X-131515Y-79367D01*
Y-79510D01*
X-131487Y-79596D01*
X-131458Y-79653D01*
X-131401Y-79710D01*
X-131344Y-79739D01*
X-131230D01*
X-131173Y-79710D01*
X-131115Y-79653D01*
X-131087Y-79596D01*
X-130747Y-79139D02*
X-130804Y-79167D01*
X-130861Y-79224D01*
X-130890Y-79282D01*
X-130918Y-79367D01*
Y-79510D01*
X-130890Y-79596D01*
X-130861Y-79653D01*
X-130804Y-79710D01*
X-130747Y-79739D01*
X-130633D01*
X-130576Y-79710D01*
X-130518Y-79653D01*
X-130490Y-79596D01*
X-130461Y-79510D01*
Y-79367D01*
X-130490Y-79282D01*
X-130518Y-79224D01*
X-130576Y-79167D01*
X-130633Y-79139D01*
X-130747D01*
X-130321D02*
Y-79739D01*
Y-79139D02*
X-129921Y-79739D01*
Y-79139D02*
Y-79739D01*
X-129556Y-79139D02*
Y-79739D01*
X-129756Y-79139D02*
X-129356D01*
X-128827Y-79739D02*
X-129056Y-79139D01*
X-129284Y-79739D01*
X-129199Y-79539D02*
X-128913D01*
X-128687Y-79139D02*
Y-79739D01*
X-128562Y-79139D02*
Y-79739D01*
Y-79139D02*
X-128162Y-79739D01*
Y-79139D02*
Y-79739D01*
X-127625Y-79139D02*
X-127996D01*
Y-79739D01*
X-127625D01*
X-127996Y-79424D02*
X-127768D01*
X-127525Y-79139D02*
Y-79739D01*
Y-79139D02*
X-127325D01*
X-127239Y-79167D01*
X-127182Y-79224D01*
X-127153Y-79282D01*
X-127125Y-79367D01*
Y-79510D01*
X-127153Y-79596D01*
X-127182Y-79653D01*
X-127239Y-79710D01*
X-127325Y-79739D01*
X-127525D01*
X-126519Y-79139D02*
Y-79739D01*
X-126394Y-79139D02*
Y-79739D01*
Y-79139D02*
X-125994Y-79739D01*
Y-79139D02*
Y-79739D01*
X-125157Y-79139D02*
Y-79739D01*
X-125357Y-79139D02*
X-124957D01*
X-124885D02*
Y-79739D01*
X-124485Y-79139D02*
Y-79739D01*
X-124885Y-79424D02*
X-124485D01*
X-124320Y-79139D02*
Y-79739D01*
X-123794Y-79224D02*
X-123851Y-79167D01*
X-123937Y-79139D01*
X-124051D01*
X-124137Y-79167D01*
X-124194Y-79224D01*
Y-79282D01*
X-124165Y-79339D01*
X-124137Y-79367D01*
X-124080Y-79396D01*
X-123908Y-79453D01*
X-123851Y-79482D01*
X-123823Y-79510D01*
X-123794Y-79567D01*
Y-79653D01*
X-123851Y-79710D01*
X-123937Y-79739D01*
X-124051D01*
X-124137Y-79710D01*
X-124194Y-79653D01*
X-123189Y-79139D02*
Y-79739D01*
Y-79139D02*
X-122989D01*
X-122903Y-79167D01*
X-122846Y-79224D01*
X-122817Y-79282D01*
X-122789Y-79367D01*
Y-79510D01*
X-122817Y-79596D01*
X-122846Y-79653D01*
X-122903Y-79710D01*
X-122989Y-79739D01*
X-123189D01*
X-122654Y-79139D02*
Y-79739D01*
Y-79139D02*
X-122397D01*
X-122312Y-79167D01*
X-122283Y-79196D01*
X-122254Y-79253D01*
Y-79310D01*
X-122283Y-79367D01*
X-122312Y-79396D01*
X-122397Y-79424D01*
X-122654D01*
X-122454D02*
X-122254Y-79739D01*
X-121663D02*
X-121892Y-79139D01*
X-122120Y-79739D01*
X-122035Y-79539D02*
X-121749D01*
X-121523Y-79139D02*
X-121380Y-79739D01*
X-121238Y-79139D02*
X-121380Y-79739D01*
X-121238Y-79139D02*
X-121095Y-79739D01*
X-120952Y-79139D02*
X-121095Y-79739D01*
X-120832Y-79139D02*
Y-79739D01*
X-120706Y-79139D02*
Y-79739D01*
Y-79139D02*
X-120306Y-79739D01*
Y-79139D02*
Y-79739D01*
X-119712Y-79282D02*
X-119741Y-79224D01*
X-119798Y-79167D01*
X-119855Y-79139D01*
X-119969D01*
X-120026Y-79167D01*
X-120084Y-79224D01*
X-120112Y-79282D01*
X-120141Y-79367D01*
Y-79510D01*
X-120112Y-79596D01*
X-120084Y-79653D01*
X-120026Y-79710D01*
X-119969Y-79739D01*
X-119855D01*
X-119798Y-79710D01*
X-119741Y-79653D01*
X-119712Y-79596D01*
Y-79510D01*
X-119855D02*
X-119712D01*
X-119104Y-79139D02*
Y-79739D01*
X-118578Y-79224D02*
X-118635Y-79167D01*
X-118721Y-79139D01*
X-118835D01*
X-118921Y-79167D01*
X-118978Y-79224D01*
Y-79282D01*
X-118949Y-79339D01*
X-118921Y-79367D01*
X-118864Y-79396D01*
X-118692Y-79453D01*
X-118635Y-79482D01*
X-118607Y-79510D01*
X-118578Y-79567D01*
Y-79653D01*
X-118635Y-79710D01*
X-118721Y-79739D01*
X-118835D01*
X-118921Y-79710D01*
X-118978Y-79653D01*
X-117773Y-79139D02*
Y-79739D01*
X-117973Y-79139D02*
X-117573D01*
X-117501D02*
Y-79739D01*
X-117101Y-79139D02*
Y-79739D01*
X-117501Y-79424D02*
X-117101D01*
X-116564Y-79139D02*
X-116936D01*
Y-79739D01*
X-116564D01*
X-116936Y-79424D02*
X-116707D01*
X-115593Y-79224D02*
X-115650Y-79167D01*
X-115736Y-79139D01*
X-115850D01*
X-115936Y-79167D01*
X-115993Y-79224D01*
Y-79282D01*
X-115964Y-79339D01*
X-115936Y-79367D01*
X-115879Y-79396D01*
X-115707Y-79453D01*
X-115650Y-79482D01*
X-115622Y-79510D01*
X-115593Y-79567D01*
Y-79653D01*
X-115650Y-79710D01*
X-115736Y-79739D01*
X-115850D01*
X-115936Y-79710D01*
X-115993Y-79653D01*
X-115287Y-79139D02*
X-115345Y-79167D01*
X-115402Y-79224D01*
X-115430Y-79282D01*
X-115459Y-79367D01*
Y-79510D01*
X-115430Y-79596D01*
X-115402Y-79653D01*
X-115345Y-79710D01*
X-115287Y-79739D01*
X-115173D01*
X-115116Y-79710D01*
X-115059Y-79653D01*
X-115030Y-79596D01*
X-115002Y-79510D01*
Y-79367D01*
X-115030Y-79282D01*
X-115059Y-79224D01*
X-115116Y-79167D01*
X-115173Y-79139D01*
X-115287D01*
X-114862D02*
Y-79739D01*
X-114519D01*
X-114082Y-79139D02*
X-114453D01*
Y-79739D01*
X-114082D01*
X-114453Y-79424D02*
X-114225D01*
X-113511Y-79453D02*
X-113254D01*
X-113168Y-79424D01*
X-113139Y-79396D01*
X-113111Y-79339D01*
Y-79253D01*
X-113139Y-79196D01*
X-113168Y-79167D01*
X-113254Y-79139D01*
X-113511D01*
Y-79739D01*
X-112976Y-79139D02*
Y-79739D01*
Y-79139D02*
X-112719D01*
X-112634Y-79167D01*
X-112605Y-79196D01*
X-112577Y-79253D01*
Y-79310D01*
X-112605Y-79367D01*
X-112634Y-79396D01*
X-112719Y-79424D01*
X-112976D01*
X-112776D02*
X-112577Y-79739D01*
X-112271Y-79139D02*
X-112328Y-79167D01*
X-112385Y-79224D01*
X-112414Y-79282D01*
X-112442Y-79367D01*
Y-79510D01*
X-112414Y-79596D01*
X-112385Y-79653D01*
X-112328Y-79710D01*
X-112271Y-79739D01*
X-112157D01*
X-112100Y-79710D01*
X-112042Y-79653D01*
X-112014Y-79596D01*
X-111985Y-79510D01*
Y-79367D01*
X-112014Y-79282D01*
X-112042Y-79224D01*
X-112100Y-79167D01*
X-112157Y-79139D01*
X-112271D01*
X-111845Y-79453D02*
X-111588D01*
X-111502Y-79424D01*
X-111474Y-79396D01*
X-111445Y-79339D01*
Y-79253D01*
X-111474Y-79196D01*
X-111502Y-79167D01*
X-111588Y-79139D01*
X-111845D01*
Y-79739D01*
X-110940Y-79139D02*
X-111311D01*
Y-79739D01*
X-110940D01*
X-111311Y-79424D02*
X-111083D01*
X-110840Y-79139D02*
Y-79739D01*
Y-79139D02*
X-110583D01*
X-110497Y-79167D01*
X-110468Y-79196D01*
X-110440Y-79253D01*
Y-79310D01*
X-110468Y-79367D01*
X-110497Y-79396D01*
X-110583Y-79424D01*
X-110840D01*
X-110640D02*
X-110440Y-79739D01*
X-110106Y-79139D02*
Y-79739D01*
X-110306Y-79139D02*
X-109906D01*
X-109834D02*
X-109606Y-79424D01*
Y-79739D01*
X-109377Y-79139D02*
X-109606Y-79424D01*
X-108657Y-79139D02*
X-108715Y-79167D01*
X-108772Y-79224D01*
X-108800Y-79282D01*
X-108829Y-79367D01*
Y-79510D01*
X-108800Y-79596D01*
X-108772Y-79653D01*
X-108715Y-79710D01*
X-108657Y-79739D01*
X-108543D01*
X-108486Y-79710D01*
X-108429Y-79653D01*
X-108400Y-79596D01*
X-108372Y-79510D01*
Y-79367D01*
X-108400Y-79282D01*
X-108429Y-79224D01*
X-108486Y-79167D01*
X-108543Y-79139D01*
X-108657D01*
X-108232D02*
Y-79739D01*
Y-79139D02*
X-107860D01*
X-108232Y-79424D02*
X-108003D01*
X-107321Y-79139D02*
Y-79739D01*
Y-79139D02*
X-106949D01*
X-107321Y-79424D02*
X-107092D01*
X-106509Y-79139D02*
X-106881D01*
Y-79739D01*
X-106509D01*
X-106881Y-79424D02*
X-106652D01*
X-106209Y-79139D02*
Y-79739D01*
X-106409Y-79139D02*
X-106009D01*
X-105509Y-79282D02*
X-105538Y-79224D01*
X-105595Y-79167D01*
X-105652Y-79139D01*
X-105767D01*
X-105824Y-79167D01*
X-105881Y-79224D01*
X-105909Y-79282D01*
X-105938Y-79367D01*
Y-79510D01*
X-105909Y-79596D01*
X-105881Y-79653D01*
X-105824Y-79710D01*
X-105767Y-79739D01*
X-105652D01*
X-105595Y-79710D01*
X-105538Y-79653D01*
X-105509Y-79596D01*
X-105170Y-79139D02*
X-105227Y-79167D01*
X-105284Y-79224D01*
X-105312Y-79282D01*
X-105341Y-79367D01*
Y-79510D01*
X-105312Y-79596D01*
X-105284Y-79653D01*
X-105227Y-79710D01*
X-105170Y-79739D01*
X-105055D01*
X-104998Y-79710D01*
X-104941Y-79653D01*
X-104912Y-79596D01*
X-104884Y-79510D01*
Y-79367D01*
X-104912Y-79282D01*
X-104941Y-79224D01*
X-104998Y-79167D01*
X-105055Y-79139D01*
X-105170D01*
X-104715Y-79681D02*
X-104744Y-79710D01*
X-104715Y-79739D01*
X-104687Y-79710D01*
X-104715Y-79681D01*
X-138707Y-81219D02*
X-138935Y-80619D01*
X-139164Y-81219D01*
X-139078Y-81019D02*
X-138792D01*
X-138567Y-80619D02*
Y-81219D01*
Y-80619D02*
X-138167Y-81219D01*
Y-80619D02*
Y-81219D01*
X-138001Y-80619D02*
X-137773Y-80904D01*
Y-81219D01*
X-137544Y-80619D02*
X-137773Y-80904D01*
X-136996Y-80619D02*
Y-81219D01*
Y-80619D02*
X-136739D01*
X-136653Y-80647D01*
X-136624Y-80676D01*
X-136596Y-80733D01*
Y-80790D01*
X-136624Y-80847D01*
X-136653Y-80876D01*
X-136739Y-80904D01*
X-136996D01*
X-136796D02*
X-136596Y-81219D01*
X-136090Y-80619D02*
X-136461D01*
Y-81219D01*
X-136090D01*
X-136461Y-80904D02*
X-136233D01*
X-135990Y-80933D02*
X-135733D01*
X-135647Y-80904D01*
X-135619Y-80876D01*
X-135590Y-80819D01*
Y-80733D01*
X-135619Y-80676D01*
X-135647Y-80647D01*
X-135733Y-80619D01*
X-135990D01*
Y-81219D01*
X-135456Y-80619D02*
Y-81219D01*
Y-80619D02*
X-135199D01*
X-135113Y-80647D01*
X-135085Y-80676D01*
X-135056Y-80733D01*
Y-80790D01*
X-135085Y-80847D01*
X-135113Y-80876D01*
X-135199Y-80904D01*
X-135456D01*
X-135256D02*
X-135056Y-81219D01*
X-134750Y-80619D02*
X-134807Y-80647D01*
X-134865Y-80704D01*
X-134893Y-80762D01*
X-134922Y-80847D01*
Y-80990D01*
X-134893Y-81076D01*
X-134865Y-81133D01*
X-134807Y-81190D01*
X-134750Y-81219D01*
X-134636D01*
X-134579Y-81190D01*
X-134522Y-81133D01*
X-134493Y-81076D01*
X-134465Y-80990D01*
Y-80847D01*
X-134493Y-80762D01*
X-134522Y-80704D01*
X-134579Y-80647D01*
X-134636Y-80619D01*
X-134750D01*
X-134325D02*
Y-81219D01*
Y-80619D02*
X-134125D01*
X-134039Y-80647D01*
X-133982Y-80704D01*
X-133953Y-80762D01*
X-133925Y-80847D01*
Y-80990D01*
X-133953Y-81076D01*
X-133982Y-81133D01*
X-134039Y-81190D01*
X-134125Y-81219D01*
X-134325D01*
X-133791Y-80619D02*
Y-81047D01*
X-133762Y-81133D01*
X-133705Y-81190D01*
X-133619Y-81219D01*
X-133562D01*
X-133476Y-81190D01*
X-133419Y-81133D01*
X-133391Y-81047D01*
Y-80619D01*
X-132796Y-80762D02*
X-132825Y-80704D01*
X-132882Y-80647D01*
X-132939Y-80619D01*
X-133054D01*
X-133111Y-80647D01*
X-133168Y-80704D01*
X-133196Y-80762D01*
X-133225Y-80847D01*
Y-80990D01*
X-133196Y-81076D01*
X-133168Y-81133D01*
X-133111Y-81190D01*
X-133054Y-81219D01*
X-132939D01*
X-132882Y-81190D01*
X-132825Y-81133D01*
X-132796Y-81076D01*
X-132428Y-80619D02*
Y-81219D01*
X-132628Y-80619D02*
X-132228D01*
X-132157D02*
Y-81219D01*
X-131860Y-80619D02*
X-131917Y-80647D01*
X-131974Y-80704D01*
X-132002Y-80762D01*
X-132031Y-80847D01*
Y-80990D01*
X-132002Y-81076D01*
X-131974Y-81133D01*
X-131917Y-81190D01*
X-131860Y-81219D01*
X-131745D01*
X-131688Y-81190D01*
X-131631Y-81133D01*
X-131602Y-81076D01*
X-131574Y-80990D01*
Y-80847D01*
X-131602Y-80762D01*
X-131631Y-80704D01*
X-131688Y-80647D01*
X-131745Y-80619D01*
X-131860D01*
X-131434D02*
Y-81219D01*
Y-80619D02*
X-131034Y-81219D01*
Y-80619D02*
Y-81219D01*
X-130397Y-80619D02*
Y-81219D01*
X-130271Y-80619D02*
Y-81219D01*
Y-80619D02*
X-129871Y-81219D01*
Y-80619D02*
Y-81219D01*
X-129234Y-80933D02*
X-128977D01*
X-128892Y-80904D01*
X-128863Y-80876D01*
X-128834Y-80819D01*
Y-80733D01*
X-128863Y-80676D01*
X-128892Y-80647D01*
X-128977Y-80619D01*
X-129234D01*
Y-81219D01*
X-128243D02*
X-128472Y-80619D01*
X-128700Y-81219D01*
X-128615Y-81019D02*
X-128329D01*
X-128103Y-80619D02*
Y-81219D01*
Y-80619D02*
X-127846D01*
X-127760Y-80647D01*
X-127732Y-80676D01*
X-127703Y-80733D01*
Y-80790D01*
X-127732Y-80847D01*
X-127760Y-80876D01*
X-127846Y-80904D01*
X-128103D01*
X-127903D02*
X-127703Y-81219D01*
X-127369Y-80619D02*
Y-81219D01*
X-127569Y-80619D02*
X-127169D01*
X-126455D02*
X-126512Y-80647D01*
X-126569Y-80704D01*
X-126598Y-80762D01*
X-126626Y-80847D01*
Y-80990D01*
X-126598Y-81076D01*
X-126569Y-81133D01*
X-126512Y-81190D01*
X-126455Y-81219D01*
X-126341D01*
X-126284Y-81190D01*
X-126226Y-81133D01*
X-126198Y-81076D01*
X-126169Y-80990D01*
Y-80847D01*
X-126198Y-80762D01*
X-126226Y-80704D01*
X-126284Y-80647D01*
X-126341Y-80619D01*
X-126455D01*
X-126029D02*
Y-81219D01*
Y-80619D02*
X-125772D01*
X-125687Y-80647D01*
X-125658Y-80676D01*
X-125629Y-80733D01*
Y-80790D01*
X-125658Y-80847D01*
X-125687Y-80876D01*
X-125772Y-80904D01*
X-126029D01*
X-125829D02*
X-125629Y-81219D01*
X-124567D02*
X-124795Y-80619D01*
X-125024Y-81219D01*
X-124938Y-81019D02*
X-124653D01*
X-124027Y-80704D02*
X-124084Y-80647D01*
X-124170Y-80619D01*
X-124284D01*
X-124370Y-80647D01*
X-124427Y-80704D01*
Y-80762D01*
X-124398Y-80819D01*
X-124370Y-80847D01*
X-124313Y-80876D01*
X-124141Y-80933D01*
X-124084Y-80962D01*
X-124056Y-80990D01*
X-124027Y-81047D01*
Y-81133D01*
X-124084Y-81190D01*
X-124170Y-81219D01*
X-124284D01*
X-124370Y-81190D01*
X-124427Y-81133D01*
X-123421Y-80619D02*
X-123279Y-81219D01*
X-123136Y-80619D02*
X-123279Y-81219D01*
X-123136Y-80619D02*
X-122993Y-81219D01*
X-122850Y-80619D02*
X-122993Y-81219D01*
X-122730Y-80619D02*
Y-81219D01*
X-122330Y-80619D02*
Y-81219D01*
X-122730Y-80904D02*
X-122330D01*
X-121993Y-80619D02*
X-122050Y-80647D01*
X-122107Y-80704D01*
X-122136Y-80762D01*
X-122164Y-80847D01*
Y-80990D01*
X-122136Y-81076D01*
X-122107Y-81133D01*
X-122050Y-81190D01*
X-121993Y-81219D01*
X-121879D01*
X-121822Y-81190D01*
X-121765Y-81133D01*
X-121736Y-81076D01*
X-121707Y-80990D01*
Y-80847D01*
X-121736Y-80762D01*
X-121765Y-80704D01*
X-121822Y-80647D01*
X-121879Y-80619D01*
X-121993D01*
X-121567D02*
Y-81219D01*
X-121225D01*
X-120788Y-80619D02*
X-121159D01*
Y-81219D01*
X-120788D01*
X-121159Y-80904D02*
X-120930D01*
X-120216Y-80619D02*
X-120073Y-81219D01*
X-119931Y-80619D02*
X-120073Y-81219D01*
X-119931Y-80619D02*
X-119788Y-81219D01*
X-119645Y-80619D02*
X-119788Y-81219D01*
X-119525Y-80619D02*
Y-81219D01*
X-119199Y-80619D02*
Y-81219D01*
X-119399Y-80619D02*
X-118999D01*
X-118928D02*
Y-81219D01*
X-118528Y-80619D02*
Y-81219D01*
X-118928Y-80904D02*
X-118528D01*
X-118191Y-80619D02*
X-118248Y-80647D01*
X-118305Y-80704D01*
X-118334Y-80762D01*
X-118362Y-80847D01*
Y-80990D01*
X-118334Y-81076D01*
X-118305Y-81133D01*
X-118248Y-81190D01*
X-118191Y-81219D01*
X-118077D01*
X-118020Y-81190D01*
X-117963Y-81133D01*
X-117934Y-81076D01*
X-117905Y-80990D01*
Y-80847D01*
X-117934Y-80762D01*
X-117963Y-80704D01*
X-118020Y-80647D01*
X-118077Y-80619D01*
X-118191D01*
X-117765D02*
Y-81047D01*
X-117737Y-81133D01*
X-117680Y-81190D01*
X-117594Y-81219D01*
X-117537D01*
X-117451Y-81190D01*
X-117394Y-81133D01*
X-117366Y-81047D01*
Y-80619D01*
X-117000D02*
Y-81219D01*
X-117200Y-80619D02*
X-116800D01*
X-116057D02*
Y-81219D01*
X-116257Y-80619D02*
X-115857D01*
X-115786D02*
Y-81219D01*
X-115386Y-80619D02*
Y-81219D01*
X-115786Y-80904D02*
X-115386D01*
X-114849Y-80619D02*
X-115220D01*
Y-81219D01*
X-114849D01*
X-115220Y-80904D02*
X-114992D01*
X-114278Y-80619D02*
X-114135Y-81219D01*
X-113992Y-80619D02*
X-114135Y-81219D01*
X-113992Y-80619D02*
X-113849Y-81219D01*
X-113706Y-80619D02*
X-113849Y-81219D01*
X-113586Y-80619D02*
Y-81219D01*
Y-80619D02*
X-113329D01*
X-113244Y-80647D01*
X-113215Y-80676D01*
X-113186Y-80733D01*
Y-80790D01*
X-113215Y-80847D01*
X-113244Y-80876D01*
X-113329Y-80904D01*
X-113586D01*
X-113386D02*
X-113186Y-81219D01*
X-113052Y-80619D02*
Y-81219D01*
X-112726Y-80619D02*
Y-81219D01*
X-112926Y-80619D02*
X-112527D01*
X-112255D02*
Y-81219D01*
X-112455Y-80619D02*
X-112055D01*
X-111612D02*
X-111984D01*
Y-81219D01*
X-111612D01*
X-111984Y-80904D02*
X-111755D01*
X-111512Y-80619D02*
Y-81219D01*
Y-80619D02*
X-111113Y-81219D01*
Y-80619D02*
Y-81219D01*
X-110476Y-80933D02*
X-110218D01*
X-110133Y-80904D01*
X-110104Y-80876D01*
X-110076Y-80819D01*
Y-80733D01*
X-110104Y-80676D01*
X-110133Y-80647D01*
X-110218Y-80619D01*
X-110476D01*
Y-81219D01*
X-109570Y-80619D02*
X-109941D01*
Y-81219D01*
X-109570D01*
X-109941Y-80904D02*
X-109713D01*
X-109470Y-80619D02*
Y-81219D01*
Y-80619D02*
X-109213D01*
X-109127Y-80647D01*
X-109099Y-80676D01*
X-109070Y-80733D01*
Y-80790D01*
X-109099Y-80847D01*
X-109127Y-80876D01*
X-109213Y-80904D01*
X-109470D01*
X-109270D02*
X-109070Y-81219D01*
X-108936Y-80619D02*
Y-81219D01*
Y-80619D02*
X-108707Y-81219D01*
X-108479Y-80619D02*
X-108707Y-81219D01*
X-108479Y-80619D02*
Y-81219D01*
X-108307Y-80619D02*
Y-81219D01*
X-107782Y-80704D02*
X-107839Y-80647D01*
X-107925Y-80619D01*
X-108039D01*
X-108125Y-80647D01*
X-108182Y-80704D01*
Y-80762D01*
X-108153Y-80819D01*
X-108125Y-80847D01*
X-108068Y-80876D01*
X-107896Y-80933D01*
X-107839Y-80962D01*
X-107810Y-80990D01*
X-107782Y-81047D01*
Y-81133D01*
X-107839Y-81190D01*
X-107925Y-81219D01*
X-108039D01*
X-108125Y-81190D01*
X-108182Y-81133D01*
X-107248Y-80704D02*
X-107305Y-80647D01*
X-107390Y-80619D01*
X-107505D01*
X-107590Y-80647D01*
X-107648Y-80704D01*
Y-80762D01*
X-107619Y-80819D01*
X-107590Y-80847D01*
X-107533Y-80876D01*
X-107362Y-80933D01*
X-107305Y-80962D01*
X-107276Y-80990D01*
X-107248Y-81047D01*
Y-81133D01*
X-107305Y-81190D01*
X-107390Y-81219D01*
X-107505D01*
X-107590Y-81190D01*
X-107648Y-81133D01*
X-107113Y-80619D02*
Y-81219D01*
X-106816Y-80619D02*
X-106873Y-80647D01*
X-106931Y-80704D01*
X-106959Y-80762D01*
X-106988Y-80847D01*
Y-80990D01*
X-106959Y-81076D01*
X-106931Y-81133D01*
X-106873Y-81190D01*
X-106816Y-81219D01*
X-106702D01*
X-106645Y-81190D01*
X-106588Y-81133D01*
X-106559Y-81076D01*
X-106531Y-80990D01*
Y-80847D01*
X-106559Y-80762D01*
X-106588Y-80704D01*
X-106645Y-80647D01*
X-106702Y-80619D01*
X-106816D01*
X-106391D02*
Y-81219D01*
Y-80619D02*
X-105991Y-81219D01*
Y-80619D02*
Y-81219D01*
X-105182Y-80619D02*
X-105240Y-80647D01*
X-105297Y-80704D01*
X-105325Y-80762D01*
X-105354Y-80847D01*
Y-80990D01*
X-105325Y-81076D01*
X-105297Y-81133D01*
X-105240Y-81190D01*
X-105182Y-81219D01*
X-105068D01*
X-105011Y-81190D01*
X-104954Y-81133D01*
X-104925Y-81076D01*
X-104897Y-80990D01*
Y-80847D01*
X-104925Y-80762D01*
X-104954Y-80704D01*
X-105011Y-80647D01*
X-105068Y-80619D01*
X-105182D01*
X-104757D02*
Y-81219D01*
Y-80619D02*
X-104385D01*
X-104757Y-80904D02*
X-104528D01*
X-103846Y-80619D02*
Y-81219D01*
Y-80619D02*
X-103474D01*
X-103846Y-80904D02*
X-103617D01*
X-103034Y-80619D02*
X-103406D01*
Y-81219D01*
X-103034D01*
X-103406Y-80904D02*
X-103177D01*
X-102734Y-80619D02*
Y-81219D01*
X-102934Y-80619D02*
X-102534D01*
X-102035Y-80762D02*
X-102063Y-80704D01*
X-102120Y-80647D01*
X-102177Y-80619D01*
X-102292D01*
X-102349Y-80647D01*
X-102406Y-80704D01*
X-102434Y-80762D01*
X-102463Y-80847D01*
Y-80990D01*
X-102434Y-81076D01*
X-102406Y-81133D01*
X-102349Y-81190D01*
X-102292Y-81219D01*
X-102177D01*
X-102120Y-81190D01*
X-102063Y-81133D01*
X-102035Y-81076D01*
X-101695Y-80619D02*
X-101752Y-80647D01*
X-101809Y-80704D01*
X-101837Y-80762D01*
X-101866Y-80847D01*
Y-80990D01*
X-101837Y-81076D01*
X-101809Y-81133D01*
X-101752Y-81190D01*
X-101695Y-81219D01*
X-101580D01*
X-101523Y-81190D01*
X-101466Y-81133D01*
X-101437Y-81076D01*
X-101409Y-80990D01*
Y-80847D01*
X-101437Y-80762D01*
X-101466Y-80704D01*
X-101523Y-80647D01*
X-101580Y-80619D01*
X-101695D01*
X-100798D02*
Y-81219D01*
X-100272Y-80704D02*
X-100329Y-80647D01*
X-100415Y-80619D01*
X-100529D01*
X-100615Y-80647D01*
X-100672Y-80704D01*
Y-80762D01*
X-100643Y-80819D01*
X-100615Y-80847D01*
X-100558Y-80876D01*
X-100386Y-80933D01*
X-100329Y-80962D01*
X-100301Y-80990D01*
X-100272Y-81047D01*
Y-81133D01*
X-100329Y-81190D01*
X-100415Y-81219D01*
X-100529D01*
X-100615Y-81190D01*
X-100672Y-81133D01*
X-99666Y-80933D02*
X-99409D01*
X-99324Y-80904D01*
X-99295Y-80876D01*
X-99267Y-80819D01*
Y-80733D01*
X-99295Y-80676D01*
X-99324Y-80647D01*
X-99409Y-80619D01*
X-99666D01*
Y-81219D01*
X-99132Y-80619D02*
Y-81219D01*
Y-80619D02*
X-98875D01*
X-98789Y-80647D01*
X-98761Y-80676D01*
X-98732Y-80733D01*
Y-80790D01*
X-98761Y-80847D01*
X-98789Y-80876D01*
X-98875Y-80904D01*
X-99132D01*
X-98932D02*
X-98732Y-81219D01*
X-98427Y-80619D02*
X-98484Y-80647D01*
X-98541Y-80704D01*
X-98570Y-80762D01*
X-98598Y-80847D01*
Y-80990D01*
X-98570Y-81076D01*
X-98541Y-81133D01*
X-98484Y-81190D01*
X-98427Y-81219D01*
X-98312D01*
X-98255Y-81190D01*
X-98198Y-81133D01*
X-98170Y-81076D01*
X-98141Y-80990D01*
Y-80847D01*
X-98170Y-80762D01*
X-98198Y-80704D01*
X-98255Y-80647D01*
X-98312Y-80619D01*
X-98427D01*
X-98001D02*
Y-81219D01*
X-97601Y-80619D02*
Y-81219D01*
X-98001Y-80904D02*
X-97601D01*
X-97435Y-80619D02*
Y-81219D01*
X-97310Y-80619D02*
Y-81219D01*
Y-80619D02*
X-97053D01*
X-96967Y-80647D01*
X-96938Y-80676D01*
X-96910Y-80733D01*
Y-80790D01*
X-96938Y-80847D01*
X-96967Y-80876D01*
X-97053Y-80904D01*
X-97310D02*
X-97053D01*
X-96967Y-80933D01*
X-96938Y-80962D01*
X-96910Y-81019D01*
Y-81104D01*
X-96938Y-81161D01*
X-96967Y-81190D01*
X-97053Y-81219D01*
X-97310D01*
X-96776Y-80619D02*
Y-81219D01*
X-96450Y-80619D02*
Y-81219D01*
X-96650Y-80619D02*
X-96250D01*
X-95807D02*
X-96179D01*
Y-81219D01*
X-95807D01*
X-96179Y-80904D02*
X-95950D01*
X-95707Y-80619D02*
Y-81219D01*
Y-80619D02*
X-95507D01*
X-95422Y-80647D01*
X-95365Y-80704D01*
X-95336Y-80762D01*
X-95307Y-80847D01*
Y-80990D01*
X-95336Y-81076D01*
X-95365Y-81133D01*
X-95422Y-81190D01*
X-95507Y-81219D01*
X-95707D01*
X-95145Y-81161D02*
X-95173Y-81190D01*
X-95145Y-81219D01*
X-95116Y-81190D01*
X-95145Y-81161D01*
X160938Y-79615D02*
Y-79015D01*
X161237Y-78715D01*
X161537Y-79015D01*
Y-79615D01*
Y-79165D01*
X160938D01*
X161837Y-79615D02*
Y-79465D01*
X161987D01*
Y-79615D01*
X161837D01*
X162587Y-78865D02*
X162737Y-78715D01*
X163037D01*
X163187Y-78865D01*
Y-79015D01*
X163037Y-79165D01*
X162887D01*
X163037D01*
X163187Y-79315D01*
Y-79465D01*
X163037Y-79615D01*
X162737D01*
X162587Y-79465D01*
X120136Y-75991D02*
Y-75624D01*
X120320Y-75441D01*
X120503Y-75624D01*
Y-75991D01*
Y-75716D01*
X120136D01*
X120686Y-75991D02*
Y-75441D01*
X121053Y-75991D01*
Y-75441D01*
X121602Y-75533D02*
X121511Y-75441D01*
X121328D01*
X121236Y-75533D01*
Y-75899D01*
X121328Y-75991D01*
X121511D01*
X121602Y-75899D01*
Y-75716D01*
X121419D01*
X121786Y-75441D02*
Y-75899D01*
X121877Y-75991D01*
X122061D01*
X122152Y-75899D01*
Y-75441D01*
X122336D02*
Y-75991D01*
X122702D01*
X122885D02*
Y-75624D01*
X123069Y-75441D01*
X123252Y-75624D01*
Y-75991D01*
Y-75716D01*
X122885D01*
X123435Y-75991D02*
Y-75441D01*
X123710D01*
X123802Y-75533D01*
Y-75716D01*
X123710Y-75808D01*
X123435D01*
X123619D02*
X123802Y-75991D01*
X124535Y-75716D02*
X124901D01*
X124718Y-75533D02*
Y-75899D01*
X125085Y-75716D02*
X125451D01*
X126184Y-75991D02*
X126368D01*
X126276D01*
Y-75441D01*
X126184Y-75533D01*
X126643Y-75991D02*
X127009Y-75624D01*
X127559Y-75991D02*
X127192D01*
X127559Y-75624D01*
Y-75533D01*
X127467Y-75441D01*
X127284D01*
X127192Y-75533D01*
X120176Y-74371D02*
Y-74921D01*
X120451D01*
X120543Y-74829D01*
Y-74463D01*
X120451Y-74371D01*
X120176D01*
X121093D02*
X120726D01*
Y-74921D01*
X121093D01*
X120726Y-74646D02*
X120909D01*
X121642Y-74463D02*
X121551Y-74371D01*
X121368D01*
X121276Y-74463D01*
Y-74829D01*
X121368Y-74921D01*
X121551D01*
X121642Y-74829D01*
X121826Y-74371D02*
X122009D01*
X121917D01*
Y-74921D01*
X121826D01*
X122009D01*
X122284D02*
Y-74371D01*
X122467Y-74555D01*
X122650Y-74371D01*
Y-74921D01*
X122834D02*
Y-74555D01*
X123017Y-74371D01*
X123200Y-74555D01*
Y-74921D01*
Y-74646D01*
X122834D01*
X123384Y-74371D02*
Y-74921D01*
X123750D01*
X124483Y-74646D02*
X124850D01*
X124667Y-74463D02*
Y-74829D01*
X125033Y-74646D02*
X125400D01*
X125583Y-74921D02*
Y-74829D01*
X125675D01*
Y-74921D01*
X125583D01*
X126041Y-74463D02*
X126133Y-74371D01*
X126316D01*
X126408Y-74463D01*
Y-74829D01*
X126316Y-74921D01*
X126133D01*
X126041Y-74829D01*
Y-74463D01*
X126591D02*
X126683Y-74371D01*
X126866D01*
X126957Y-74463D01*
Y-74829D01*
X126866Y-74921D01*
X126683D01*
X126591Y-74829D01*
Y-74463D01*
X127507Y-74371D02*
X127141D01*
Y-74646D01*
X127324Y-74555D01*
X127416D01*
X127507Y-74646D01*
Y-74829D01*
X127416Y-74921D01*
X127232D01*
X127141Y-74829D01*
X123066Y-73831D02*
Y-73464D01*
X123250Y-73281D01*
X123433Y-73464D01*
Y-73831D01*
Y-73556D01*
X123066D01*
X123616Y-73281D02*
Y-73831D01*
X123983D01*
X124166Y-73281D02*
Y-73831D01*
X124532D01*
X152608Y-79375D02*
Y-78825D01*
X152882D01*
X152974Y-78917D01*
Y-79100D01*
X152882Y-79192D01*
X152608D01*
X152791D02*
X152974Y-79375D01*
X153524Y-78825D02*
X153157D01*
Y-79375D01*
X153524D01*
X153157Y-79100D02*
X153341D01*
X153707Y-78825D02*
Y-79192D01*
X153890Y-79375D01*
X154074Y-79192D01*
Y-78825D01*
X154257D02*
X154440D01*
X154349D01*
Y-79375D01*
X154257D01*
X154440D01*
X155082Y-78917D02*
X154990Y-78825D01*
X154807D01*
X154715Y-78917D01*
Y-79008D01*
X154807Y-79100D01*
X154990D01*
X155082Y-79192D01*
Y-79283D01*
X154990Y-79375D01*
X154807D01*
X154715Y-79283D01*
X155265Y-78825D02*
X155448D01*
X155357D01*
Y-79375D01*
X155265D01*
X155448D01*
X155998Y-78825D02*
X155815D01*
X155723Y-78917D01*
Y-79283D01*
X155815Y-79375D01*
X155998D01*
X156090Y-79283D01*
Y-78917D01*
X155998Y-78825D01*
X156273Y-79375D02*
Y-78825D01*
X156640Y-79375D01*
Y-78825D01*
X121843Y-67953D02*
X121751Y-67861D01*
X121568D01*
X121476Y-67953D01*
Y-68045D01*
X121568Y-68136D01*
X121751D01*
X121843Y-68228D01*
Y-68319D01*
X121751Y-68411D01*
X121568D01*
X121476Y-68319D01*
X122026Y-68411D02*
Y-67861D01*
X122301D01*
X122393Y-67953D01*
Y-68136D01*
X122301Y-68228D01*
X122026D01*
X122942Y-67861D02*
X122576D01*
Y-68411D01*
X122942D01*
X122576Y-68136D02*
X122759D01*
X123492Y-67953D02*
X123401Y-67861D01*
X123217D01*
X123126Y-67953D01*
Y-68319D01*
X123217Y-68411D01*
X123401D01*
X123492Y-68319D01*
X123676Y-67861D02*
X123859D01*
X123767D01*
Y-68411D01*
X123676D01*
X123859D01*
X124500Y-67861D02*
X124134D01*
Y-68136D01*
X124317D01*
X124134D01*
Y-68411D01*
X124684Y-67861D02*
X124867D01*
X124775D01*
Y-68411D01*
X124684D01*
X124867D01*
X125508Y-67861D02*
X125142D01*
Y-68411D01*
X125508D01*
X125142Y-68136D02*
X125325D01*
X125692Y-67861D02*
Y-68411D01*
X125967D01*
X126058Y-68319D01*
Y-67953D01*
X125967Y-67861D01*
X125692D01*
X121751Y-66761D02*
X121568D01*
X121476Y-66853D01*
Y-67219D01*
X121568Y-67311D01*
X121751D01*
X121843Y-67219D01*
Y-66853D01*
X121751Y-66761D01*
X122026D02*
X122393D01*
X122209D01*
Y-67311D01*
X122576Y-66761D02*
Y-67311D01*
Y-67036D01*
X122942D01*
Y-66761D01*
Y-67311D01*
X123492Y-66761D02*
X123126D01*
Y-67311D01*
X123492D01*
X123126Y-67036D02*
X123309D01*
X123676Y-67311D02*
Y-66761D01*
X123951D01*
X124042Y-66853D01*
Y-67036D01*
X123951Y-67128D01*
X123676D01*
X123859D02*
X124042Y-67311D01*
X124225Y-66761D02*
Y-67311D01*
X124409Y-67128D01*
X124592Y-67311D01*
Y-66761D01*
X124775D02*
X124959D01*
X124867D01*
Y-67311D01*
X124775D01*
X124959D01*
X125600Y-66853D02*
X125508Y-66761D01*
X125325D01*
X125233Y-66853D01*
Y-66944D01*
X125325Y-67036D01*
X125508D01*
X125600Y-67128D01*
Y-67219D01*
X125508Y-67311D01*
X125325D01*
X125233Y-67219D01*
X126150Y-66761D02*
X125783D01*
Y-67311D01*
X126150D01*
X125783Y-67036D02*
X125967D01*
X121620Y-77141D02*
X121286D01*
Y-77391D01*
X121453D01*
X121286D01*
Y-77641D01*
X121786Y-77141D02*
X121953D01*
X121869D01*
Y-77641D01*
X121786D01*
X121953D01*
X122203D02*
Y-77141D01*
X122453D01*
X122536Y-77225D01*
Y-77391D01*
X122453Y-77474D01*
X122203D01*
X122369D02*
X122536Y-77641D01*
X123036Y-77225D02*
X122952Y-77141D01*
X122786D01*
X122703Y-77225D01*
Y-77308D01*
X122786Y-77391D01*
X122952D01*
X123036Y-77474D01*
Y-77558D01*
X122952Y-77641D01*
X122786D01*
X122703Y-77558D01*
X123202Y-77141D02*
X123536D01*
X123369D01*
Y-77641D01*
X123702Y-77391D02*
X124035D01*
X124202Y-77641D02*
Y-77308D01*
X124369Y-77141D01*
X124535Y-77308D01*
Y-77641D01*
Y-77391D01*
X124202D01*
X124702Y-77641D02*
Y-77141D01*
X125035Y-77641D01*
Y-77141D01*
X125535Y-77225D02*
X125452Y-77141D01*
X125285D01*
X125202Y-77225D01*
Y-77558D01*
X125285Y-77641D01*
X125452D01*
X125535Y-77558D01*
Y-77391D01*
X125368D01*
X125702Y-77141D02*
Y-77641D01*
X126035D01*
X126535Y-77141D02*
X126201D01*
Y-77641D01*
X126535D01*
X126201Y-77391D02*
X126368D01*
X141206Y-67981D02*
X140786D01*
Y-68611D01*
X141206D01*
X140786Y-68296D02*
X140996D01*
X141416D02*
X141836D01*
X142046Y-68611D02*
Y-67981D01*
X142256Y-68191D01*
X142466Y-67981D01*
Y-68611D01*
X142676D02*
Y-68191D01*
X142886Y-67981D01*
X143096Y-68191D01*
Y-68611D01*
Y-68296D01*
X142676D01*
X143305Y-67981D02*
X143515D01*
X143410D01*
Y-68611D01*
X143305D01*
X143515D01*
X143830Y-67981D02*
Y-68611D01*
X144250D01*
X144460Y-68191D02*
X144565D01*
Y-68296D01*
X144460D01*
Y-68191D01*
Y-68506D02*
X144565D01*
Y-68611D01*
X144460D01*
Y-68506D01*
X145930Y-68611D02*
X145720D01*
X145615Y-68506D01*
Y-68296D01*
X145720Y-68191D01*
X145930D01*
X146035Y-68296D01*
Y-68401D01*
X145615D01*
X146245Y-68611D02*
Y-68191D01*
X146559D01*
X146664Y-68296D01*
Y-68611D01*
X147084Y-68821D02*
X147189D01*
X147294Y-68716D01*
Y-68191D01*
X146979D01*
X146874Y-68296D01*
Y-68506D01*
X146979Y-68611D01*
X147294D01*
X147504D02*
X147714D01*
X147609D01*
Y-68191D01*
X147504D01*
X148029Y-68611D02*
Y-68191D01*
X148344D01*
X148449Y-68296D01*
Y-68611D01*
X148974D02*
X148764D01*
X148659Y-68506D01*
Y-68296D01*
X148764Y-68191D01*
X148974D01*
X149079Y-68296D01*
Y-68401D01*
X148659D01*
X149603Y-68611D02*
X149394D01*
X149289Y-68506D01*
Y-68296D01*
X149394Y-68191D01*
X149603D01*
X149708Y-68296D01*
Y-68401D01*
X149289D01*
X149918Y-68191D02*
Y-68611D01*
Y-68401D01*
X150023Y-68296D01*
X150128Y-68191D01*
X150233D01*
X150548Y-68611D02*
X150758D01*
X150653D01*
Y-68191D01*
X150548D01*
X151073Y-68611D02*
Y-68191D01*
X151388D01*
X151493Y-68296D01*
Y-68611D01*
X151913Y-68821D02*
X152018D01*
X152123Y-68716D01*
Y-68191D01*
X151808D01*
X151703Y-68296D01*
Y-68506D01*
X151808Y-68611D01*
X152123D01*
X152647Y-68401D02*
Y-68296D01*
X152542D01*
Y-68401D01*
X152647D01*
X152752Y-68296D01*
Y-68086D01*
X152647Y-67981D01*
X152438D01*
X152333Y-68086D01*
Y-68506D01*
X152438Y-68611D01*
X152752D01*
X153067D02*
Y-68086D01*
Y-68296D01*
X152962D01*
X153172D01*
X153067D01*
Y-68086D01*
X153172Y-67981D01*
X153802Y-68611D02*
X153592D01*
X153487Y-68506D01*
Y-68296D01*
X153592Y-68191D01*
X153802D01*
X153907Y-68296D01*
Y-68401D01*
X153487D01*
X154222Y-68086D02*
Y-68191D01*
X154117D01*
X154327D01*
X154222D01*
Y-68506D01*
X154327Y-68611D01*
X155062Y-68191D02*
X154747D01*
X154642Y-68296D01*
Y-68506D01*
X154747Y-68611D01*
X155062D01*
X155377D02*
X155587D01*
X155691Y-68506D01*
Y-68296D01*
X155587Y-68191D01*
X155377D01*
X155272Y-68296D01*
Y-68506D01*
X155377Y-68611D01*
X155901D02*
Y-68506D01*
X156006D01*
Y-68611D01*
X155901D01*
X156846Y-68191D02*
X156531D01*
X156426Y-68296D01*
Y-68506D01*
X156531Y-68611D01*
X156846D01*
X157161D02*
X157371D01*
X157476Y-68506D01*
Y-68296D01*
X157371Y-68191D01*
X157161D01*
X157056Y-68296D01*
Y-68506D01*
X157161Y-68611D01*
X157686D02*
Y-68191D01*
X157791D01*
X157896Y-68296D01*
Y-68611D01*
Y-68296D01*
X158001Y-68191D01*
X158106Y-68296D01*
Y-68611D01*
X159575Y-68191D02*
Y-68506D01*
X159680Y-68611D01*
X159785Y-68506D01*
X159890Y-68611D01*
X159995Y-68506D01*
Y-68191D01*
X160205D02*
Y-68506D01*
X160310Y-68611D01*
X160415Y-68506D01*
X160520Y-68611D01*
X160625Y-68506D01*
Y-68191D01*
X160835D02*
Y-68506D01*
X160940Y-68611D01*
X161045Y-68506D01*
X161150Y-68611D01*
X161255Y-68506D01*
Y-68191D01*
X161465Y-68611D02*
Y-68506D01*
X161570D01*
Y-68611D01*
X161465D01*
X162094D02*
Y-68086D01*
Y-68296D01*
X161989D01*
X162199D01*
X162094D01*
Y-68086D01*
X162199Y-67981D01*
X162829Y-68611D02*
X162619D01*
X162514Y-68506D01*
Y-68296D01*
X162619Y-68191D01*
X162829D01*
X162934Y-68296D01*
Y-68401D01*
X162514D01*
X163249Y-68086D02*
Y-68191D01*
X163144D01*
X163354D01*
X163249D01*
Y-68506D01*
X163354Y-68611D01*
X164089Y-68191D02*
X163774D01*
X163669Y-68296D01*
Y-68506D01*
X163774Y-68611D01*
X164089D01*
X164404D02*
X164614D01*
X164719Y-68506D01*
Y-68296D01*
X164614Y-68191D01*
X164404D01*
X164299Y-68296D01*
Y-68506D01*
X164404Y-68611D01*
X164928D02*
Y-68506D01*
X165033D01*
Y-68611D01*
X164928D01*
X165873Y-68191D02*
X165558D01*
X165453Y-68296D01*
Y-68506D01*
X165558Y-68611D01*
X165873D01*
X166188D02*
X166398D01*
X166503Y-68506D01*
Y-68296D01*
X166398Y-68191D01*
X166188D01*
X166083Y-68296D01*
Y-68506D01*
X166188Y-68611D01*
X166713D02*
Y-68191D01*
X166818D01*
X166923Y-68296D01*
Y-68611D01*
Y-68296D01*
X167028Y-68191D01*
X167133Y-68296D01*
Y-68611D01*
X140786Y-67291D02*
Y-66661D01*
X141101D01*
X141206Y-66766D01*
Y-66976D01*
X141101Y-67081D01*
X140786D01*
X141416Y-66661D02*
Y-67291D01*
Y-66976D01*
X141836D01*
Y-66661D01*
Y-67291D01*
X142361Y-66661D02*
X142151D01*
X142046Y-66766D01*
Y-67186D01*
X142151Y-67291D01*
X142361D01*
X142466Y-67186D01*
Y-66766D01*
X142361Y-66661D01*
X142676Y-67291D02*
Y-66661D01*
X143096Y-67291D01*
Y-66661D01*
X143725D02*
X143305D01*
Y-67291D01*
X143725D01*
X143305Y-66976D02*
X143515D01*
X143935Y-66871D02*
X144040D01*
Y-66976D01*
X143935D01*
Y-66871D01*
Y-67186D02*
X144040D01*
Y-67291D01*
X143935D01*
Y-67186D01*
X145090Y-66976D02*
X145510D01*
X145300Y-66766D02*
Y-67186D01*
X146035Y-67291D02*
Y-66661D01*
X145720Y-66976D01*
X146140D01*
X146349Y-66766D02*
X146454Y-66661D01*
X146664D01*
X146769Y-66766D01*
Y-66871D01*
X146664Y-66976D01*
X146769Y-67081D01*
Y-67186D01*
X146664Y-67291D01*
X146454D01*
X146349Y-67186D01*
Y-67081D01*
X146454Y-66976D01*
X146349Y-66871D01*
Y-66766D01*
X146454Y-66976D02*
X146664D01*
X148029Y-67291D02*
X147609D01*
X148029Y-66871D01*
Y-66766D01*
X147924Y-66661D01*
X147714D01*
X147609Y-66766D01*
X148659Y-67291D02*
X148239D01*
X148659Y-66871D01*
Y-66766D01*
X148554Y-66661D01*
X148344D01*
X148239Y-66766D01*
X149498Y-66661D02*
X149918D01*
Y-66766D01*
X149498Y-67186D01*
Y-67291D01*
X150548D02*
X150128D01*
X150548Y-66871D01*
Y-66766D01*
X150443Y-66661D01*
X150233D01*
X150128Y-66766D01*
X150758Y-66661D02*
X151178D01*
Y-66766D01*
X150758Y-67186D01*
Y-67291D01*
X151703D02*
Y-66661D01*
X151388Y-66976D01*
X151808D01*
X152018Y-66661D02*
X152438D01*
Y-66766D01*
X152018Y-67186D01*
Y-67291D01*
X152647Y-66766D02*
X152752Y-66661D01*
X152962D01*
X153067Y-66766D01*
Y-66871D01*
X152962Y-66976D01*
X153067Y-67081D01*
Y-67186D01*
X152962Y-67291D01*
X152752D01*
X152647Y-67186D01*
Y-67081D01*
X152752Y-66976D01*
X152647Y-66871D01*
Y-66766D01*
X152752Y-66976D02*
X152962D01*
X153277Y-66661D02*
X153697D01*
Y-66766D01*
X153277Y-67186D01*
Y-67291D01*
X154957Y-66661D02*
X154537D01*
Y-66976D01*
X154747D01*
X154537D01*
Y-67291D01*
X155167D02*
Y-66871D01*
X155377Y-66661D01*
X155587Y-66871D01*
Y-67291D01*
Y-66976D01*
X155167D01*
X155796Y-66661D02*
X156216Y-67291D01*
Y-66661D02*
X155796Y-67291D01*
X156426Y-66871D02*
X156531D01*
Y-66976D01*
X156426D01*
Y-66871D01*
Y-67186D02*
X156531D01*
Y-67291D01*
X156426D01*
Y-67186D01*
X157581Y-66976D02*
X158001D01*
X157791Y-66766D02*
Y-67186D01*
X158526Y-67291D02*
Y-66661D01*
X158211Y-66976D01*
X158631D01*
X158840Y-66766D02*
X158945Y-66661D01*
X159155D01*
X159260Y-66766D01*
Y-66871D01*
X159155Y-66976D01*
X159260Y-67081D01*
Y-67186D01*
X159155Y-67291D01*
X158945D01*
X158840Y-67186D01*
Y-67081D01*
X158945Y-66976D01*
X158840Y-66871D01*
Y-66766D01*
X158945Y-66976D02*
X159155D01*
X160520Y-67291D02*
X160100D01*
X160520Y-66871D01*
Y-66766D01*
X160415Y-66661D01*
X160205D01*
X160100Y-66766D01*
X161150Y-67291D02*
X160730D01*
X161150Y-66871D01*
Y-66766D01*
X161045Y-66661D01*
X160835D01*
X160730Y-66766D01*
X161989Y-66661D02*
X162409D01*
Y-66766D01*
X161989Y-67186D01*
Y-67291D01*
X163039D02*
X162619D01*
X163039Y-66871D01*
Y-66766D01*
X162934Y-66661D01*
X162724D01*
X162619Y-66766D01*
X163249Y-66661D02*
X163669D01*
Y-66766D01*
X163249Y-67186D01*
Y-67291D01*
X164194D02*
Y-66661D01*
X163879Y-66976D01*
X164299D01*
X164509Y-66661D02*
X164928D01*
Y-66766D01*
X164509Y-67186D01*
Y-67291D01*
X165138Y-66766D02*
X165243Y-66661D01*
X165453D01*
X165558Y-66766D01*
Y-66871D01*
X165453Y-66976D01*
X165558Y-67081D01*
Y-67186D01*
X165453Y-67291D01*
X165243D01*
X165138Y-67186D01*
Y-67081D01*
X165243Y-66976D01*
X165138Y-66871D01*
Y-66766D01*
X165243Y-66976D02*
X165453D01*
X165768Y-66766D02*
X165873Y-66661D01*
X166083D01*
X166188Y-66766D01*
Y-66871D01*
X166083Y-66976D01*
X166188Y-67081D01*
Y-67186D01*
X166083Y-67291D01*
X165873D01*
X165768Y-67186D01*
Y-67081D01*
X165873Y-66976D01*
X165768Y-66871D01*
Y-66766D01*
X165873Y-66976D02*
X166083D01*
X140786Y-65931D02*
Y-65511D01*
X140996Y-65301D01*
X141206Y-65511D01*
Y-65931D01*
Y-65616D01*
X140786D01*
X141836Y-65301D02*
Y-65931D01*
X141521D01*
X141416Y-65826D01*
Y-65616D01*
X141521Y-65511D01*
X141836D01*
X142151D02*
X142361D01*
X142466Y-65616D01*
Y-65931D01*
X142151D01*
X142046Y-65826D01*
X142151Y-65721D01*
X142466D01*
X142676Y-65931D02*
Y-65511D01*
X142781D01*
X142886Y-65616D01*
Y-65931D01*
Y-65616D01*
X142991Y-65511D01*
X143096Y-65616D01*
Y-65931D01*
X143410D02*
X143620D01*
X143725Y-65826D01*
Y-65616D01*
X143620Y-65511D01*
X143410D01*
X143305Y-65616D01*
Y-65826D01*
X143410Y-65931D01*
X143935Y-65511D02*
Y-65826D01*
X144040Y-65931D01*
X144145Y-65826D01*
X144250Y-65931D01*
X144355Y-65826D01*
Y-65511D01*
X144565Y-65931D02*
X144775D01*
X144670D01*
Y-65511D01*
X144565D01*
X145510D02*
X145195D01*
X145090Y-65616D01*
Y-65826D01*
X145195Y-65931D01*
X145510D01*
X145720Y-65511D02*
X146140D01*
X145720Y-65931D01*
X146140D01*
X146454Y-65511D02*
X146664D01*
X146769Y-65616D01*
Y-65931D01*
X146454D01*
X146349Y-65826D01*
X146454Y-65721D01*
X146769D01*
X147609Y-65406D02*
X147714Y-65301D01*
X147924D01*
X148029Y-65406D01*
Y-65511D01*
X147924Y-65616D01*
X148029Y-65721D01*
Y-65826D01*
X147924Y-65931D01*
X147714D01*
X147609Y-65826D01*
Y-65721D01*
X147714Y-65616D01*
X147609Y-65511D01*
Y-65406D01*
X147714Y-65616D02*
X147924D01*
X148344Y-66036D02*
X148449Y-65931D01*
Y-65826D01*
X148344D01*
Y-65931D01*
X148449D01*
X148344Y-66036D01*
X148239Y-66141D01*
X149498Y-65406D02*
X149603Y-65301D01*
X149813D01*
X149918Y-65406D01*
Y-65826D01*
X149813Y-65931D01*
X149603D01*
X149498Y-65826D01*
Y-65406D01*
X150548Y-65301D02*
X150128D01*
Y-65616D01*
X150338Y-65511D01*
X150443D01*
X150548Y-65616D01*
Y-65826D01*
X150443Y-65931D01*
X150233D01*
X150128Y-65826D01*
X150758Y-65616D02*
X151178D01*
X151808Y-65301D02*
X151388D01*
Y-65616D01*
X151598Y-65511D01*
X151703D01*
X151808Y-65616D01*
Y-65826D01*
X151703Y-65931D01*
X151493D01*
X151388Y-65826D01*
X152018Y-65406D02*
X152123Y-65301D01*
X152333D01*
X152438Y-65406D01*
Y-65511D01*
X152333Y-65616D01*
X152228D01*
X152333D01*
X152438Y-65721D01*
Y-65826D01*
X152333Y-65931D01*
X152123D01*
X152018Y-65826D01*
X152647Y-65406D02*
X152752Y-65301D01*
X152962D01*
X153067Y-65406D01*
Y-65826D01*
X152962Y-65931D01*
X152752D01*
X152647Y-65826D01*
Y-65406D01*
X154327D02*
X154222Y-65301D01*
X154012D01*
X153907Y-65406D01*
Y-65826D01*
X154012Y-65931D01*
X154222D01*
X154327Y-65826D01*
Y-65616D01*
X154117D01*
X154642Y-65931D02*
X154852D01*
X154957Y-65826D01*
Y-65616D01*
X154852Y-65511D01*
X154642D01*
X154537Y-65616D01*
Y-65826D01*
X154642Y-65931D01*
X155167Y-65511D02*
Y-65931D01*
Y-65721D01*
X155272Y-65616D01*
X155377Y-65511D01*
X155482D01*
X155901D02*
X156111D01*
X156216Y-65616D01*
Y-65931D01*
X155901D01*
X155796Y-65826D01*
X155901Y-65721D01*
X156216D01*
X157056Y-65301D02*
Y-65931D01*
Y-65721D01*
X157476Y-65301D01*
X157161Y-65616D01*
X157476Y-65931D01*
X157791Y-65511D02*
X158001D01*
X158106Y-65616D01*
Y-65931D01*
X157791D01*
X157686Y-65826D01*
X157791Y-65721D01*
X158106D01*
X158316Y-65931D02*
X158526D01*
X158421D01*
Y-65301D01*
X158316D01*
X158840Y-65511D02*
Y-65826D01*
X158945Y-65931D01*
X159050Y-65826D01*
X159155Y-65931D01*
X159260Y-65826D01*
Y-65511D01*
X159575D02*
X159785D01*
X159890Y-65616D01*
Y-65931D01*
X159575D01*
X159470Y-65826D01*
X159575Y-65721D01*
X159890D01*
X160100Y-65511D02*
Y-65931D01*
Y-65721D01*
X160205Y-65616D01*
X160310Y-65511D01*
X160415D01*
X160730Y-65931D02*
X160940D01*
X160835D01*
Y-65511D01*
X160730D01*
X161360D02*
X161570D01*
X161675Y-65616D01*
Y-65931D01*
X161360D01*
X161255Y-65826D01*
X161360Y-65721D01*
X161675D01*
X161989Y-66036D02*
X162094Y-65931D01*
Y-65826D01*
X161989D01*
Y-65931D01*
X162094D01*
X161989Y-66036D01*
X161884Y-66141D01*
X163144Y-65931D02*
Y-65301D01*
X163459D01*
X163564Y-65406D01*
Y-65616D01*
X163459Y-65721D01*
X163144D01*
X164089Y-65301D02*
X163879D01*
X163774Y-65406D01*
Y-65826D01*
X163879Y-65931D01*
X164089D01*
X164194Y-65826D01*
Y-65406D01*
X164089Y-65301D01*
X164404D02*
Y-65931D01*
X164824D01*
X165033D02*
Y-65511D01*
X165243Y-65301D01*
X165453Y-65511D01*
Y-65931D01*
Y-65616D01*
X165033D01*
X165663Y-65931D02*
Y-65301D01*
X166083Y-65931D01*
Y-65301D01*
X166293D02*
Y-65931D01*
X166608D01*
X166713Y-65826D01*
Y-65406D01*
X166608Y-65301D01*
X166293D01*
X128306Y-78591D02*
Y-78225D01*
X128490Y-78041D01*
X128673Y-78225D01*
Y-78591D01*
Y-78316D01*
X128306D01*
X128856Y-78591D02*
Y-78041D01*
X129131D01*
X129223Y-78133D01*
Y-78316D01*
X129131Y-78408D01*
X128856D01*
X129406Y-78591D02*
Y-78041D01*
X129681D01*
X129772Y-78133D01*
Y-78316D01*
X129681Y-78408D01*
X129406D01*
X130047Y-77950D02*
Y-78133D01*
X129956Y-78225D01*
X130322Y-78041D02*
Y-78591D01*
X130597D01*
X130689Y-78499D01*
Y-78133D01*
X130597Y-78041D01*
X130322D01*
X131422D02*
Y-78591D01*
X131697D01*
X131789Y-78499D01*
Y-78408D01*
X131697Y-78316D01*
X131422D01*
X131697D01*
X131789Y-78225D01*
Y-78133D01*
X131697Y-78041D01*
X131422D01*
X131972D02*
Y-78133D01*
X132155Y-78316D01*
X132338Y-78133D01*
Y-78041D01*
X132155Y-78316D02*
Y-78591D01*
X132522Y-78225D02*
X132613D01*
Y-78316D01*
X132522D01*
Y-78225D01*
Y-78499D02*
X132613D01*
Y-78591D01*
X132522D01*
Y-78499D01*
X141659Y-76565D02*
X141526Y-76431D01*
X141260D01*
X141126Y-76565D01*
Y-76698D01*
X141260Y-76831D01*
X141526D01*
X141659Y-76964D01*
Y-77098D01*
X141526Y-77231D01*
X141260D01*
X141126Y-77098D01*
X142459Y-76565D02*
X142326Y-76431D01*
X142059D01*
X141926Y-76565D01*
Y-77098D01*
X142059Y-77231D01*
X142326D01*
X142459Y-77098D01*
X142726Y-77231D02*
Y-76698D01*
X142992Y-76431D01*
X143259Y-76698D01*
Y-77231D01*
Y-76831D01*
X142726D01*
X143526Y-76431D02*
Y-77231D01*
X144059D01*
X144858Y-76431D02*
X144325D01*
Y-77231D01*
X144858D01*
X144325Y-76831D02*
X144592D01*
X145125Y-76698D02*
X145258D01*
Y-76831D01*
X145125D01*
Y-76698D01*
Y-77098D02*
X145258D01*
Y-77231D01*
X145125D01*
Y-77098D01*
X146591Y-77231D02*
X146858D01*
X146724D01*
Y-76431D01*
X146591Y-76565D01*
X147258Y-77231D02*
Y-77098D01*
X147391D01*
Y-77231D01*
X147258D01*
X147924Y-76565D02*
X148057Y-76431D01*
X148324D01*
X148457Y-76565D01*
Y-77098D01*
X148324Y-77231D01*
X148057D01*
X147924Y-77098D01*
Y-76565D01*
X148724D02*
X148857Y-76431D01*
X149124D01*
X149257Y-76565D01*
Y-77098D01*
X149124Y-77231D01*
X148857D01*
X148724Y-77098D01*
Y-76565D01*
X140673Y-75333D02*
X140581Y-75241D01*
X140398D01*
X140306Y-75333D01*
Y-75424D01*
X140398Y-75516D01*
X140581D01*
X140673Y-75608D01*
Y-75699D01*
X140581Y-75791D01*
X140398D01*
X140306Y-75699D01*
X141223Y-75333D02*
X141131Y-75241D01*
X140948D01*
X140856Y-75333D01*
Y-75699D01*
X140948Y-75791D01*
X141131D01*
X141223Y-75699D01*
X141406Y-75791D02*
Y-75424D01*
X141589Y-75241D01*
X141772Y-75424D01*
Y-75791D01*
Y-75516D01*
X141406D01*
X141956Y-75241D02*
Y-75791D01*
X142322D01*
X142872Y-75241D02*
X142506D01*
Y-75791D01*
X142872D01*
X142506Y-75516D02*
X142689D01*
X128573Y-75433D02*
X128481Y-75341D01*
X128298D01*
X128206Y-75433D01*
Y-75799D01*
X128298Y-75891D01*
X128481D01*
X128573Y-75799D01*
X128756Y-75341D02*
Y-75891D01*
Y-75616D01*
X129123D01*
Y-75341D01*
Y-75891D01*
X129306Y-75341D02*
Y-75891D01*
Y-75708D01*
X129672Y-75341D01*
X129398Y-75616D01*
X129672Y-75891D01*
X129947Y-75250D02*
Y-75433D01*
X129856Y-75525D01*
X130222Y-75341D02*
Y-75891D01*
X130497D01*
X130589Y-75799D01*
Y-75433D01*
X130497Y-75341D01*
X130222D01*
X131322D02*
Y-75891D01*
X131597D01*
X131689Y-75799D01*
Y-75708D01*
X131597Y-75616D01*
X131322D01*
X131597D01*
X131689Y-75525D01*
Y-75433D01*
X131597Y-75341D01*
X131322D01*
X131872D02*
Y-75433D01*
X132055Y-75616D01*
X132238Y-75433D01*
Y-75341D01*
X132055Y-75616D02*
Y-75891D01*
X132422Y-75525D02*
X132513D01*
Y-75616D01*
X132422D01*
Y-75525D01*
Y-75799D02*
X132513D01*
Y-75891D01*
X132422D01*
Y-75799D01*
X153038Y-75845D02*
X153371D01*
X153204D01*
Y-74845D01*
X153038Y-75012D01*
X153871D02*
X154037Y-74845D01*
X154370D01*
X154537Y-75012D01*
Y-75678D01*
X154370Y-75845D01*
X154037D01*
X153871Y-75678D01*
Y-75012D01*
X155537Y-74845D02*
X154870D01*
Y-75345D01*
X155204Y-75179D01*
X155370D01*
X155537Y-75345D01*
Y-75678D01*
X155370Y-75845D01*
X155037D01*
X154870Y-75678D01*
X155870Y-75845D02*
X156203D01*
X156037D01*
Y-74845D01*
X155870Y-75012D01*
X156703Y-75845D02*
Y-75678D01*
X156870D01*
Y-75845D01*
X156703D01*
X157536Y-75012D02*
X157703Y-74845D01*
X158036D01*
X158203Y-75012D01*
Y-75678D01*
X158036Y-75845D01*
X157703D01*
X157536Y-75678D01*
Y-75012D01*
X158536D02*
X158702Y-74845D01*
X159036D01*
X159202Y-75012D01*
Y-75678D01*
X159036Y-75845D01*
X158702D01*
X158536Y-75678D01*
Y-75012D01*
X159535D02*
X159702Y-74845D01*
X160035D01*
X160202Y-75012D01*
Y-75678D01*
X160035Y-75845D01*
X159702D01*
X159535Y-75678D01*
Y-75012D01*
X161035Y-75845D02*
Y-74845D01*
X160535Y-75345D01*
X161202D01*
X161535Y-75845D02*
X161868D01*
X161701D01*
Y-74845D01*
X161535Y-75012D01*
X162368Y-75845D02*
Y-75678D01*
X162534D01*
Y-75845D01*
X162368D01*
X163201Y-75012D02*
X163368Y-74845D01*
X163701D01*
X163867Y-75012D01*
Y-75678D01*
X163701Y-75845D01*
X163368D01*
X163201Y-75678D01*
Y-75012D01*
X164201D02*
X164367Y-74845D01*
X164700D01*
X164867Y-75012D01*
Y-75678D01*
X164700Y-75845D01*
X164367D01*
X164201Y-75678D01*
Y-75012D01*
X165200Y-76012D02*
X165867D01*
X166200Y-75012D02*
X166367Y-74845D01*
X166700D01*
X166866Y-75012D01*
Y-75179D01*
X166700Y-75345D01*
X166533D01*
X166700D01*
X166866Y-75512D01*
Y-75678D01*
X166700Y-75845D01*
X166367D01*
X166200Y-75678D01*
X141426Y-74581D02*
X140726D01*
X141426Y-73881D01*
Y-73706D01*
X141251Y-73531D01*
X140901D01*
X140726Y-73706D01*
X141776D02*
X141951Y-73531D01*
X142301D01*
X142476Y-73706D01*
Y-74406D01*
X142301Y-74581D01*
X141951D01*
X141776Y-74406D01*
Y-73706D01*
X142826Y-74581D02*
X143176D01*
X143001D01*
Y-73531D01*
X142826Y-73706D01*
X143700Y-73531D02*
X144400D01*
Y-73706D01*
X143700Y-74406D01*
Y-74581D01*
X144750Y-74056D02*
X145450D01*
X145800Y-73706D02*
X145975Y-73531D01*
X146324D01*
X146499Y-73706D01*
Y-74406D01*
X146324Y-74581D01*
X145975D01*
X145800Y-74406D01*
Y-73706D01*
X146849D02*
X147024Y-73531D01*
X147374D01*
X147549Y-73706D01*
Y-73881D01*
X147374Y-74056D01*
X147199D01*
X147374D01*
X147549Y-74231D01*
Y-74406D01*
X147374Y-74581D01*
X147024D01*
X146849Y-74406D01*
X147899Y-74056D02*
X148599D01*
X149648Y-74581D02*
X148949D01*
X149648Y-73881D01*
Y-73706D01*
X149473Y-73531D01*
X149124D01*
X148949Y-73706D01*
X150698Y-74581D02*
X149998D01*
X150698Y-73881D01*
Y-73706D01*
X150523Y-73531D01*
X150173D01*
X149998Y-73706D01*
X152306Y-72641D02*
Y-73191D01*
X152581D01*
X152673Y-73099D01*
Y-72733D01*
X152581Y-72641D01*
X152306D01*
X152856Y-73191D02*
Y-72641D01*
X153131D01*
X153223Y-72733D01*
Y-72916D01*
X153131Y-73008D01*
X152856D01*
X153039D02*
X153223Y-73191D01*
X153406D02*
Y-72825D01*
X153589Y-72641D01*
X153772Y-72825D01*
Y-73191D01*
Y-72916D01*
X153406D01*
X153956Y-72641D02*
Y-73191D01*
X154139Y-73008D01*
X154322Y-73191D01*
Y-72641D01*
X154506D02*
X154689D01*
X154597D01*
Y-73191D01*
X154506D01*
X154689D01*
X154964D02*
Y-72641D01*
X155330Y-73191D01*
Y-72641D01*
X155880Y-72733D02*
X155789Y-72641D01*
X155605D01*
X155514Y-72733D01*
Y-73099D01*
X155605Y-73191D01*
X155789D01*
X155880Y-73099D01*
Y-72916D01*
X155697D01*
X156613Y-73191D02*
Y-72641D01*
X156980Y-73191D01*
Y-72641D01*
X157438D02*
X157255D01*
X157163Y-72733D01*
Y-73099D01*
X157255Y-73191D01*
X157438D01*
X157530Y-73099D01*
Y-72733D01*
X157438Y-72641D01*
X140306Y-72541D02*
Y-73091D01*
X140581D01*
X140673Y-72999D01*
Y-72633D01*
X140581Y-72541D01*
X140306D01*
X140856Y-73091D02*
Y-72724D01*
X141039Y-72541D01*
X141223Y-72724D01*
Y-73091D01*
Y-72816D01*
X140856D01*
X141406Y-72541D02*
X141772D01*
X141589D01*
Y-73091D01*
X142322Y-72541D02*
X141956D01*
Y-73091D01*
X142322D01*
X141956Y-72816D02*
X142139D01*
X128573Y-72633D02*
X128481Y-72541D01*
X128298D01*
X128206Y-72633D01*
Y-72999D01*
X128298Y-73091D01*
X128481D01*
X128573Y-72999D01*
X128756Y-73091D02*
Y-72541D01*
X129031D01*
X129123Y-72633D01*
Y-72816D01*
X129031Y-72908D01*
X128756D01*
X128939D02*
X129123Y-73091D01*
X129672Y-72541D02*
X129306D01*
Y-73091D01*
X129672D01*
X129306Y-72816D02*
X129489D01*
X129856Y-73091D02*
Y-72724D01*
X130039Y-72541D01*
X130222Y-72724D01*
Y-73091D01*
Y-72816D01*
X129856D01*
X130406Y-72541D02*
X130772D01*
X130589D01*
Y-73091D01*
X131322Y-72541D02*
X130955D01*
Y-73091D01*
X131322D01*
X130955Y-72816D02*
X131139D01*
X131505Y-72541D02*
Y-73091D01*
X131780D01*
X131872Y-72999D01*
Y-72633D01*
X131780Y-72541D01*
X131505D01*
X132605D02*
Y-73091D01*
X132880D01*
X132971Y-72999D01*
Y-72908D01*
X132880Y-72816D01*
X132605D01*
X132880D01*
X132971Y-72724D01*
Y-72633D01*
X132880Y-72541D01*
X132605D01*
X133155D02*
Y-72633D01*
X133338Y-72816D01*
X133521Y-72633D01*
Y-72541D01*
X133338Y-72816D02*
Y-73091D01*
X133705Y-72724D02*
X133796D01*
Y-72816D01*
X133705D01*
Y-72724D01*
Y-72999D02*
X133796D01*
Y-73091D01*
X133705D01*
Y-72999D01*
X136327Y-70215D02*
X136177Y-70065D01*
X135878D01*
X135728Y-70215D01*
Y-70365D01*
X135878Y-70515D01*
X136177D01*
X136327Y-70665D01*
Y-70815D01*
X136177Y-70965D01*
X135878D01*
X135728Y-70815D01*
X136777Y-70215D02*
Y-70365D01*
X136627D01*
X136927D01*
X136777D01*
Y-70815D01*
X136927Y-70965D01*
X137827D02*
X137527D01*
X137377Y-70815D01*
Y-70515D01*
X137527Y-70365D01*
X137827D01*
X137977Y-70515D01*
Y-70665D01*
X137377D01*
X138277Y-70965D02*
Y-70365D01*
X138727D01*
X138877Y-70515D01*
Y-70965D01*
X139776Y-70365D02*
X139326D01*
X139176Y-70515D01*
Y-70815D01*
X139326Y-70965D01*
X139776D01*
X140076D02*
X140376D01*
X140226D01*
Y-70365D01*
X140076D01*
X140826Y-70965D02*
X141126D01*
X140976D01*
Y-70065D01*
X140826D01*
X141576Y-70515D02*
Y-70365D01*
X141726D01*
Y-70515D01*
X141576D01*
Y-70815D02*
X141726D01*
Y-70965D01*
X141576Y-71115D01*
X141726Y-70965D02*
X141576D01*
Y-70815D01*
X143825Y-70215D02*
X143675Y-70065D01*
X143375D01*
X143225Y-70215D01*
Y-70815D01*
X143375Y-70965D01*
X143675D01*
X143825Y-70815D01*
X144125Y-70065D02*
Y-70965D01*
X144575D01*
X144725Y-70815D01*
Y-70665D01*
X144575Y-70515D01*
X144125D01*
X144575D01*
X144725Y-70365D01*
Y-70215D01*
X144575Y-70065D01*
X144125D01*
X145624Y-70215D02*
X145474Y-70065D01*
X145175D01*
X145025Y-70215D01*
Y-70365D01*
X145175Y-70515D01*
X145474D01*
X145624Y-70665D01*
Y-70815D01*
X145474Y-70965D01*
X145175D01*
X145025Y-70815D01*
X146524Y-70965D02*
X145924D01*
X146524Y-70365D01*
Y-70215D01*
X146374Y-70065D01*
X146074D01*
X145924Y-70215D01*
X146824Y-70965D02*
X147124D01*
X146974D01*
Y-70065D01*
X146824Y-70215D01*
X147574D02*
X147724Y-70065D01*
X148024D01*
X148174Y-70215D01*
Y-70815D01*
X148024Y-70965D01*
X147724D01*
X147574Y-70815D01*
Y-70215D01*
X148473D02*
X148623Y-70065D01*
X148923D01*
X149073Y-70215D01*
Y-70815D01*
X148923Y-70965D01*
X148623D01*
X148473Y-70815D01*
Y-70215D01*
X149973Y-70065D02*
X149373D01*
Y-70965D01*
X149973D01*
X149373Y-70515D02*
X149673D01*
X150873Y-70065D02*
X150273D01*
Y-70965D01*
X150873D01*
X150273Y-70515D02*
X150573D01*
X120176Y-70311D02*
Y-69945D01*
X120360Y-69761D01*
X120543Y-69945D01*
Y-70311D01*
Y-70036D01*
X120176D01*
X120726Y-69761D02*
Y-70311D01*
X121093D01*
X121276Y-69761D02*
Y-70311D01*
X121642D01*
X122376Y-69761D02*
Y-70311D01*
X122650D01*
X122742Y-70219D01*
Y-69853D01*
X122650Y-69761D01*
X122376D01*
X122925D02*
X123109D01*
X123017D01*
Y-70311D01*
X122925D01*
X123109D01*
X123384D02*
Y-69761D01*
X123567Y-69945D01*
X123750Y-69761D01*
Y-70311D01*
X124300Y-69761D02*
X123933D01*
Y-70311D01*
X124300D01*
X123933Y-70036D02*
X124117D01*
X124483Y-70311D02*
Y-69761D01*
X124850Y-70311D01*
Y-69761D01*
X125400Y-69853D02*
X125308Y-69761D01*
X125125D01*
X125033Y-69853D01*
Y-69945D01*
X125125Y-70036D01*
X125308D01*
X125400Y-70128D01*
Y-70219D01*
X125308Y-70311D01*
X125125D01*
X125033Y-70219D01*
X125583Y-69761D02*
X125766D01*
X125675D01*
Y-70311D01*
X125583D01*
X125766D01*
X126316Y-69761D02*
X126133D01*
X126041Y-69853D01*
Y-70219D01*
X126133Y-70311D01*
X126316D01*
X126408Y-70219D01*
Y-69853D01*
X126316Y-69761D01*
X126591Y-70311D02*
Y-69761D01*
X126957Y-70311D01*
Y-69761D01*
X127507Y-69853D02*
X127416Y-69761D01*
X127232D01*
X127141Y-69853D01*
Y-69945D01*
X127232Y-70036D01*
X127416D01*
X127507Y-70128D01*
Y-70219D01*
X127416Y-70311D01*
X127232D01*
X127141Y-70219D01*
X128206Y-69441D02*
Y-69991D01*
X128481D01*
X128573Y-69899D01*
Y-69533D01*
X128481Y-69441D01*
X128206D01*
X128756Y-69991D02*
Y-69441D01*
X129031D01*
X129123Y-69533D01*
Y-69716D01*
X129031Y-69808D01*
X128756D01*
X128939D02*
X129123Y-69991D01*
X129306D02*
Y-69625D01*
X129489Y-69441D01*
X129672Y-69625D01*
Y-69991D01*
Y-69716D01*
X129306D01*
X129856Y-69441D02*
Y-69991D01*
X130039Y-69808D01*
X130222Y-69991D01*
Y-69441D01*
X130406D02*
X130589D01*
X130497D01*
Y-69991D01*
X130406D01*
X130589D01*
X130864D02*
Y-69441D01*
X131230Y-69991D01*
Y-69441D01*
X131780Y-69533D02*
X131689Y-69441D01*
X131505D01*
X131414Y-69533D01*
Y-69899D01*
X131505Y-69991D01*
X131689D01*
X131780Y-69899D01*
Y-69716D01*
X131597D01*
X132513Y-69991D02*
Y-69441D01*
X132880Y-69991D01*
Y-69441D01*
X133063Y-69991D02*
Y-69625D01*
X133246Y-69441D01*
X133430Y-69625D01*
Y-69991D01*
Y-69716D01*
X133063D01*
X133613Y-69991D02*
Y-69441D01*
X133796Y-69625D01*
X133979Y-69441D01*
Y-69991D01*
X134529Y-69441D02*
X134163D01*
Y-69991D01*
X134529D01*
X134163Y-69716D02*
X134346D01*
X134713Y-69625D02*
X134804D01*
Y-69716D01*
X134713D01*
Y-69625D01*
Y-69899D02*
X134804D01*
Y-69991D01*
X134713D01*
Y-69899D01*
X122276Y-65661D02*
Y-66119D01*
X122368Y-66211D01*
X122551D01*
X122643Y-66119D01*
Y-65661D01*
X122826Y-66211D02*
Y-65661D01*
X123193Y-66211D01*
Y-65661D01*
X123376D02*
Y-66211D01*
X123742D01*
X124292Y-65661D02*
X123926D01*
Y-66211D01*
X124292D01*
X123926Y-65936D02*
X124109D01*
X124842Y-65753D02*
X124750Y-65661D01*
X124567D01*
X124476Y-65753D01*
Y-65844D01*
X124567Y-65936D01*
X124750D01*
X124842Y-66028D01*
Y-66119D01*
X124750Y-66211D01*
X124567D01*
X124476Y-66119D01*
X125392Y-65753D02*
X125300Y-65661D01*
X125117D01*
X125025Y-65753D01*
Y-65844D01*
X125117Y-65936D01*
X125300D01*
X125392Y-66028D01*
Y-66119D01*
X125300Y-66211D01*
X125117D01*
X125025Y-66119D01*
X141226Y-63981D02*
X140806D01*
Y-64296D01*
X141016D01*
X140806D01*
Y-64611D01*
X141751Y-63981D02*
X141541D01*
X141436Y-64086D01*
Y-64506D01*
X141541Y-64611D01*
X141751D01*
X141856Y-64506D01*
Y-64086D01*
X141751Y-63981D01*
X142381D02*
X142171D01*
X142066Y-64086D01*
Y-64506D01*
X142171Y-64611D01*
X142381D01*
X142486Y-64506D01*
Y-64086D01*
X142381Y-63981D01*
X142696D02*
Y-64611D01*
X143011D01*
X143116Y-64506D01*
Y-64086D01*
X143011Y-63981D01*
X142696D01*
X144375D02*
X143955D01*
Y-64611D01*
X144375D01*
X143955Y-64296D02*
X144165D01*
X145005Y-64506D02*
Y-64086D01*
X144900Y-63981D01*
X144690D01*
X144585Y-64086D01*
Y-64506D01*
X144690Y-64611D01*
X144900D01*
X144795Y-64401D02*
X145005Y-64611D01*
X144900D02*
X145005Y-64506D01*
X145215Y-63981D02*
Y-64506D01*
X145320Y-64611D01*
X145530D01*
X145635Y-64506D01*
Y-63981D01*
X145845D02*
X146055D01*
X145950D01*
Y-64611D01*
X145845D01*
X146055D01*
X146369D02*
Y-63981D01*
X146684D01*
X146789Y-64086D01*
Y-64296D01*
X146684Y-64401D01*
X146369D01*
X146999Y-64611D02*
Y-63981D01*
X147209Y-64191D01*
X147419Y-63981D01*
Y-64611D01*
X148049Y-63981D02*
X147629D01*
Y-64611D01*
X148049D01*
X147629Y-64296D02*
X147839D01*
X148259Y-64611D02*
Y-63981D01*
X148679Y-64611D01*
Y-63981D01*
X148889D02*
X149309D01*
X149099D01*
Y-64611D01*
X150148Y-63981D02*
X150568D01*
X150358D01*
Y-64611D01*
X151198Y-63981D02*
X150778D01*
Y-64611D01*
X151198D01*
X150778Y-64296D02*
X150988D01*
X151828Y-64086D02*
X151723Y-63981D01*
X151513D01*
X151408Y-64086D01*
Y-64506D01*
X151513Y-64611D01*
X151723D01*
X151828Y-64506D01*
X152038Y-63981D02*
Y-64611D01*
Y-64296D01*
X152458D01*
Y-63981D01*
Y-64611D01*
X152667D02*
Y-63981D01*
X153087Y-64611D01*
Y-63981D01*
X153612D02*
X153402D01*
X153297Y-64086D01*
Y-64506D01*
X153402Y-64611D01*
X153612D01*
X153717Y-64506D01*
Y-64086D01*
X153612Y-63981D01*
X153927D02*
Y-64611D01*
X154347D01*
X154872Y-63981D02*
X154662D01*
X154557Y-64086D01*
Y-64506D01*
X154662Y-64611D01*
X154872D01*
X154977Y-64506D01*
Y-64086D01*
X154872Y-63981D01*
X155607Y-64086D02*
X155502Y-63981D01*
X155292D01*
X155187Y-64086D01*
Y-64506D01*
X155292Y-64611D01*
X155502D01*
X155607Y-64506D01*
Y-64296D01*
X155397D01*
X155816Y-63981D02*
X156026D01*
X155921D01*
Y-64611D01*
X155816D01*
X156026D01*
X156761Y-63981D02*
X156341D01*
Y-64611D01*
X156761D01*
X156341Y-64296D02*
X156551D01*
X157391Y-64086D02*
X157286Y-63981D01*
X157076D01*
X156971Y-64086D01*
Y-64191D01*
X157076Y-64296D01*
X157286D01*
X157391Y-64401D01*
Y-64506D01*
X157286Y-64611D01*
X157076D01*
X156971Y-64506D01*
X158651Y-64086D02*
X158546Y-63981D01*
X158336D01*
X158231Y-64086D01*
Y-64506D01*
X158336Y-64611D01*
X158546D01*
X158651Y-64506D01*
X159175Y-63981D02*
X158965D01*
X158860Y-64086D01*
Y-64506D01*
X158965Y-64611D01*
X159175D01*
X159280Y-64506D01*
Y-64086D01*
X159175Y-63981D01*
X159490Y-64611D02*
Y-63981D01*
X159700Y-64191D01*
X159910Y-63981D01*
Y-64611D01*
X160120D02*
Y-63981D01*
X160435D01*
X160540Y-64086D01*
Y-64296D01*
X160435Y-64401D01*
X160120D01*
X160750Y-64611D02*
Y-64191D01*
X160960Y-63981D01*
X161170Y-64191D01*
Y-64611D01*
Y-64296D01*
X160750D01*
X161380Y-64611D02*
Y-63981D01*
X161800Y-64611D01*
Y-63981D01*
X162009D02*
Y-64086D01*
X162219Y-64296D01*
X162429Y-64086D01*
Y-63981D01*
X162219Y-64296D02*
Y-64611D01*
X162744Y-64716D02*
X162849Y-64611D01*
Y-64506D01*
X162744D01*
Y-64611D01*
X162849D01*
X162744Y-64716D01*
X162639Y-64821D01*
X163899Y-63981D02*
X164109D01*
X164004D01*
Y-64611D01*
X163899D01*
X164109D01*
X164424D02*
Y-63981D01*
X164844Y-64611D01*
Y-63981D01*
X165473Y-64086D02*
X165368Y-63981D01*
X165158D01*
X165053Y-64086D01*
Y-64506D01*
X165158Y-64611D01*
X165368D01*
X165473Y-64506D01*
X165683Y-64611D02*
Y-64506D01*
X165788D01*
Y-64611D01*
X165683D01*
X121206Y-64141D02*
X121573D01*
X121390D01*
Y-64691D01*
X122031Y-64141D02*
X121848D01*
X121756Y-64233D01*
Y-64599D01*
X121848Y-64691D01*
X122031D01*
X122123Y-64599D01*
Y-64233D01*
X122031Y-64141D01*
X122306D02*
Y-64691D01*
X122672D01*
X123222Y-64141D02*
X122856D01*
Y-64691D01*
X123222D01*
X122856Y-64416D02*
X123039D01*
X123406Y-64691D02*
Y-64141D01*
X123680D01*
X123772Y-64233D01*
Y-64416D01*
X123680Y-64508D01*
X123406D01*
X123589D02*
X123772Y-64691D01*
X123955D02*
Y-64324D01*
X124139Y-64141D01*
X124322Y-64324D01*
Y-64691D01*
Y-64416D01*
X123955D01*
X124505Y-64691D02*
Y-64141D01*
X124872Y-64691D01*
Y-64141D01*
X125422Y-64233D02*
X125330Y-64141D01*
X125147D01*
X125055Y-64233D01*
Y-64599D01*
X125147Y-64691D01*
X125330D01*
X125422Y-64599D01*
X125971Y-64141D02*
X125605D01*
Y-64691D01*
X125971D01*
X125605Y-64416D02*
X125788D01*
X126521Y-64233D02*
X126430Y-64141D01*
X126246D01*
X126155Y-64233D01*
Y-64324D01*
X126246Y-64416D01*
X126430D01*
X126521Y-64508D01*
Y-64599D01*
X126430Y-64691D01*
X126246D01*
X126155Y-64599D01*
X130226Y-73931D02*
X130076Y-73781D01*
X129776D01*
X129626Y-73931D01*
Y-74081D01*
X129776Y-74231D01*
X130076D01*
X130226Y-74381D01*
Y-74531D01*
X130076Y-74681D01*
X129776D01*
X129626Y-74531D01*
X130526Y-74681D02*
Y-74531D01*
X130676D01*
Y-74681D01*
X130526D01*
X131276Y-73781D02*
Y-74681D01*
X131726D01*
X131876Y-74531D01*
Y-74381D01*
X131726Y-74231D01*
X131276D01*
X131726D01*
X131876Y-74081D01*
Y-73931D01*
X131726Y-73781D01*
X131276D01*
X132175Y-74681D02*
X132475D01*
X132325D01*
Y-73781D01*
X132175D01*
X132925Y-74681D02*
X133225D01*
X133075D01*
Y-74081D01*
X132925D01*
X134275D02*
X133825D01*
X133675Y-74231D01*
Y-74531D01*
X133825Y-74681D01*
X134275D01*
X134575Y-73781D02*
Y-74681D01*
Y-74231D01*
X134725Y-74081D01*
X135025D01*
X135175Y-74231D01*
Y-74681D01*
X135624Y-74081D02*
X135924D01*
X136074Y-74231D01*
Y-74681D01*
X135624D01*
X135474Y-74531D01*
X135624Y-74381D01*
X136074D01*
X136374Y-74081D02*
Y-74681D01*
Y-74381D01*
X136524Y-74231D01*
X136674Y-74081D01*
X136824D01*
X137274D02*
X137874D01*
X137274Y-74681D01*
X137874D01*
X120536Y-71321D02*
Y-70954D01*
X120720Y-70771D01*
X120903Y-70954D01*
Y-71321D01*
Y-71046D01*
X120536D01*
X121086Y-71321D02*
Y-70771D01*
X121361D01*
X121453Y-70863D01*
Y-71046D01*
X121361Y-71138D01*
X121086D01*
X121269D02*
X121453Y-71321D01*
X122002Y-70771D02*
X121636D01*
Y-71321D01*
X122002D01*
X121636Y-71046D02*
X121819D01*
X122736Y-70771D02*
X122919D01*
X122827D01*
Y-71321D01*
X122736D01*
X122919D01*
X123194D02*
Y-70771D01*
X123560Y-71321D01*
Y-70771D01*
X124293Y-71321D02*
Y-70771D01*
X124477Y-70954D01*
X124660Y-70771D01*
Y-71321D01*
X125210Y-70771D02*
X124843D01*
Y-71321D01*
X125210D01*
X124843Y-71046D02*
X125027D01*
X125393Y-70771D02*
X125760D01*
X125576D01*
Y-71321D01*
X125943D02*
Y-70771D01*
X126218D01*
X126309Y-70863D01*
Y-71046D01*
X126218Y-71138D01*
X125943D01*
X126126D02*
X126309Y-71321D01*
X126493Y-70771D02*
X126676D01*
X126584D01*
Y-71321D01*
X126493D01*
X126676D01*
X127317Y-70863D02*
X127226Y-70771D01*
X127043D01*
X126951Y-70863D01*
Y-71229D01*
X127043Y-71321D01*
X127226D01*
X127317Y-71229D01*
X120376Y-82569D02*
Y-82202D01*
X120560Y-82019D01*
X120743Y-82202D01*
Y-82569D01*
Y-82294D01*
X120376D01*
X120926Y-82569D02*
Y-82019D01*
X121293Y-82569D01*
Y-82019D01*
X121476D02*
Y-82569D01*
X121751D01*
X121842Y-82477D01*
Y-82110D01*
X121751Y-82019D01*
X121476D01*
X122576Y-82569D02*
Y-82019D01*
X122942Y-82569D01*
Y-82019D01*
X123125D02*
Y-82477D01*
X123217Y-82569D01*
X123400D01*
X123492Y-82477D01*
Y-82019D01*
X123675Y-82569D02*
Y-82019D01*
X123859Y-82202D01*
X124042Y-82019D01*
Y-82569D01*
X124225Y-82019D02*
Y-82569D01*
X124500D01*
X124592Y-82477D01*
Y-82385D01*
X124500Y-82294D01*
X124225D01*
X124500D01*
X124592Y-82202D01*
Y-82110D01*
X124500Y-82019D01*
X124225D01*
X125141D02*
X124775D01*
Y-82569D01*
X125141D01*
X124775Y-82294D02*
X124958D01*
X125325Y-82569D02*
Y-82019D01*
X125600D01*
X125691Y-82110D01*
Y-82294D01*
X125600Y-82385D01*
X125325D01*
X125508D02*
X125691Y-82569D01*
X120753Y-81180D02*
X120661Y-81089D01*
X120478D01*
X120386Y-81180D01*
Y-81272D01*
X120478Y-81364D01*
X120661D01*
X120753Y-81455D01*
Y-81547D01*
X120661Y-81639D01*
X120478D01*
X120386Y-81547D01*
X120936Y-81089D02*
Y-81639D01*
Y-81364D01*
X121303D01*
Y-81089D01*
Y-81639D01*
X121852Y-81089D02*
X121486D01*
Y-81639D01*
X121852D01*
X121486Y-81364D02*
X121669D01*
X122402Y-81089D02*
X122036D01*
Y-81639D01*
X122402D01*
X122036Y-81364D02*
X122219D01*
X122586Y-81089D02*
X122952D01*
X122769D01*
Y-81639D01*
X123685D02*
Y-81089D01*
X124052Y-81639D01*
Y-81089D01*
X124235Y-81639D02*
Y-81272D01*
X124418Y-81089D01*
X124602Y-81272D01*
Y-81639D01*
Y-81364D01*
X124235D01*
X124785Y-81639D02*
Y-81089D01*
X124968Y-81272D01*
X125151Y-81089D01*
Y-81639D01*
X125701Y-81089D02*
X125335D01*
Y-81639D01*
X125701D01*
X125335Y-81364D02*
X125518D01*
X128268Y-81295D02*
X128867D01*
X128567D01*
Y-82195D01*
X129617D02*
X129317D01*
X129167Y-82045D01*
Y-81745D01*
X129317Y-81595D01*
X129617D01*
X129767Y-81745D01*
Y-81895D01*
X129167D01*
X130067Y-82195D02*
Y-81595D01*
X130217D01*
X130367Y-81745D01*
Y-82195D01*
Y-81745D01*
X130517Y-81595D01*
X130667Y-81745D01*
Y-82195D01*
X130967Y-82495D02*
Y-81595D01*
X131417D01*
X131566Y-81745D01*
Y-82045D01*
X131417Y-82195D01*
X130967D01*
X131866D02*
X132166D01*
X132016D01*
Y-81295D01*
X131866D01*
X132766Y-81595D02*
X133066D01*
X133216Y-81745D01*
Y-82195D01*
X132766D01*
X132616Y-82045D01*
X132766Y-81895D01*
X133216D01*
X133666Y-81445D02*
Y-81595D01*
X133516D01*
X133816D01*
X133666D01*
Y-82045D01*
X133816Y-82195D01*
X134715D02*
X134416D01*
X134266Y-82045D01*
Y-81745D01*
X134416Y-81595D01*
X134715D01*
X134865Y-81745D01*
Y-81895D01*
X134266D01*
X136665Y-81445D02*
X136515Y-81295D01*
X136215D01*
X136065Y-81445D01*
Y-81595D01*
X136215Y-81745D01*
X136515D01*
X136665Y-81895D01*
Y-82045D01*
X136515Y-82195D01*
X136215D01*
X136065Y-82045D01*
X137565Y-81595D02*
X137115D01*
X136965Y-81745D01*
Y-82045D01*
X137115Y-82195D01*
X137565D01*
X137864Y-81295D02*
Y-82195D01*
Y-81745D01*
X138014Y-81595D01*
X138314D01*
X138464Y-81745D01*
Y-82195D01*
X139214D02*
X138914D01*
X138764Y-82045D01*
Y-81745D01*
X138914Y-81595D01*
X139214D01*
X139364Y-81745D01*
Y-81895D01*
X138764D01*
X140114Y-82195D02*
X139814D01*
X139664Y-82045D01*
Y-81745D01*
X139814Y-81595D01*
X140114D01*
X140264Y-81745D01*
Y-81895D01*
X139664D01*
X140714Y-81445D02*
Y-81595D01*
X140564D01*
X140863D01*
X140714D01*
Y-82045D01*
X140863Y-82195D01*
X142213D02*
Y-81595D01*
X142513Y-81295D01*
X142813Y-81595D01*
Y-82195D01*
Y-81745D01*
X142213D01*
X143113Y-82195D02*
X143413D01*
X143263D01*
Y-81295D01*
X143113Y-81445D01*
X-4952Y-6455D02*
X40728D01*
X-4952Y-8305D02*
Y-6455D01*
Y-8305D02*
X40728D01*
Y-6455D01*
Y-5505D02*
Y-3655D01*
X-4952Y-5505D02*
X40728D01*
X-4952D02*
Y-3655D01*
X40728D01*
X4528Y-7021D02*
Y-7878D01*
X4570Y-7021D02*
Y-7878D01*
X4528Y-7021D02*
X4742D01*
X4528Y-7878D02*
X4742D01*
X4857Y-7107D02*
X4943Y-7064D01*
X5072Y-6935D01*
Y-7835D01*
X5774Y-6935D02*
X5646Y-6978D01*
X5560Y-7107D01*
X5517Y-7321D01*
Y-7449D01*
X5560Y-7664D01*
X5646Y-7792D01*
X5774Y-7835D01*
X5860D01*
X5989Y-7792D01*
X6074Y-7664D01*
X6117Y-7449D01*
Y-7321D01*
X6074Y-7107D01*
X5989Y-6978D01*
X5860Y-6935D01*
X5774D01*
X6833D02*
X6404D01*
X6361Y-7321D01*
X6404Y-7278D01*
X6533Y-7235D01*
X6661D01*
X6790Y-7278D01*
X6876Y-7364D01*
X6918Y-7492D01*
Y-7578D01*
X6876Y-7706D01*
X6790Y-7792D01*
X6661Y-7835D01*
X6533D01*
X6404Y-7792D01*
X6361Y-7749D01*
X6319Y-7664D01*
X7120Y-7107D02*
X7206Y-7064D01*
X7334Y-6935D01*
Y-7835D01*
X7823Y-7749D02*
X7780Y-7792D01*
X7823Y-7835D01*
X7865Y-7792D01*
X7823Y-7749D01*
X8320Y-6935D02*
X8191Y-6978D01*
X8105Y-7107D01*
X8063Y-7321D01*
Y-7449D01*
X8105Y-7664D01*
X8191Y-7792D01*
X8320Y-7835D01*
X8405D01*
X8534Y-7792D01*
X8620Y-7664D01*
X8662Y-7449D01*
Y-7321D01*
X8620Y-7107D01*
X8534Y-6978D01*
X8405Y-6935D01*
X8320D01*
X9121D02*
X8992Y-6978D01*
X8907Y-7107D01*
X8864Y-7321D01*
Y-7449D01*
X8907Y-7664D01*
X8992Y-7792D01*
X9121Y-7835D01*
X9207D01*
X9335Y-7792D01*
X9421Y-7664D01*
X9464Y-7449D01*
Y-7321D01*
X9421Y-7107D01*
X9335Y-6978D01*
X9207Y-6935D01*
X9121D01*
X9922D02*
X9794Y-6978D01*
X9708Y-7107D01*
X9665Y-7321D01*
Y-7449D01*
X9708Y-7664D01*
X9794Y-7792D01*
X9922Y-7835D01*
X10008D01*
X10136Y-7792D01*
X10222Y-7664D01*
X10265Y-7449D01*
Y-7321D01*
X10222Y-7107D01*
X10136Y-6978D01*
X10008Y-6935D01*
X9922D01*
X10895D02*
X10466Y-7535D01*
X11109D01*
X10895Y-6935D02*
Y-7835D01*
X11268Y-7107D02*
X11353Y-7064D01*
X11482Y-6935D01*
Y-7835D01*
X11970Y-7749D02*
X11927Y-7792D01*
X11970Y-7835D01*
X12013Y-7792D01*
X11970Y-7749D01*
X12467Y-6935D02*
X12339Y-6978D01*
X12253Y-7107D01*
X12210Y-7321D01*
Y-7449D01*
X12253Y-7664D01*
X12339Y-7792D01*
X12467Y-7835D01*
X12553D01*
X12682Y-7792D01*
X12767Y-7664D01*
X12810Y-7449D01*
Y-7321D01*
X12767Y-7107D01*
X12682Y-6978D01*
X12553Y-6935D01*
X12467D01*
X13269D02*
X13140Y-6978D01*
X13054Y-7107D01*
X13011Y-7321D01*
Y-7449D01*
X13054Y-7664D01*
X13140Y-7792D01*
X13269Y-7835D01*
X13354D01*
X13483Y-7792D01*
X13568Y-7664D01*
X13611Y-7449D01*
Y-7321D01*
X13568Y-7107D01*
X13483Y-6978D01*
X13354Y-6935D01*
X13269D01*
X13813Y-8135D02*
X14498D01*
X14700Y-6935D02*
X15171D01*
X14914Y-7278D01*
X15042D01*
X15128Y-7321D01*
X15171Y-7364D01*
X15214Y-7492D01*
Y-7578D01*
X15171Y-7706D01*
X15085Y-7792D01*
X14957Y-7835D01*
X14828D01*
X14700Y-7792D01*
X14657Y-7749D01*
X14614Y-7664D01*
X15415Y-7449D02*
X16186D01*
X17138Y-7835D02*
X16795Y-6935D01*
X16452Y-7835D01*
X16581Y-7535D02*
X17009D01*
X17391Y-7749D02*
X17348Y-7792D01*
X17391Y-7835D01*
X17433Y-7792D01*
X17391Y-7749D01*
X17716Y-6935D02*
X18187D01*
X17930Y-7278D01*
X18059D01*
X18145Y-7321D01*
X18187Y-7364D01*
X18230Y-7492D01*
Y-7578D01*
X18187Y-7706D01*
X18102Y-7792D01*
X17973Y-7835D01*
X17845D01*
X17716Y-7792D01*
X17673Y-7749D01*
X17630Y-7664D01*
X18603Y-7021D02*
Y-7878D01*
X18646Y-7021D02*
Y-7878D01*
X18432Y-7021D02*
X18646D01*
X18432Y-7878D02*
X18646D01*
X20159Y-7149D02*
X20116Y-7064D01*
X20030Y-6978D01*
X19944Y-6935D01*
X19773D01*
X19687Y-6978D01*
X19601Y-7064D01*
X19559Y-7149D01*
X19516Y-7278D01*
Y-7492D01*
X19559Y-7621D01*
X19601Y-7706D01*
X19687Y-7792D01*
X19773Y-7835D01*
X19944D01*
X20030Y-7792D01*
X20116Y-7706D01*
X20159Y-7621D01*
X20411Y-6935D02*
Y-7835D01*
Y-6935D02*
X20797D01*
X20925Y-6978D01*
X20968Y-7021D01*
X21011Y-7107D01*
Y-7192D01*
X20968Y-7278D01*
X20925Y-7321D01*
X20797Y-7364D01*
X20411D02*
X20797D01*
X20925Y-7407D01*
X20968Y-7449D01*
X21011Y-7535D01*
Y-7664D01*
X20968Y-7749D01*
X20925Y-7792D01*
X20797Y-7835D01*
X20411D01*
X21812Y-7064D02*
X21727Y-6978D01*
X21598Y-6935D01*
X21427D01*
X21298Y-6978D01*
X21213Y-7064D01*
Y-7149D01*
X21255Y-7235D01*
X21298Y-7278D01*
X21384Y-7321D01*
X21641Y-7407D01*
X21727Y-7449D01*
X21770Y-7492D01*
X21812Y-7578D01*
Y-7706D01*
X21727Y-7792D01*
X21598Y-7835D01*
X21427D01*
X21298Y-7792D01*
X21213Y-7706D01*
X22057Y-7149D02*
Y-7107D01*
X22100Y-7021D01*
X22142Y-6978D01*
X22228Y-6935D01*
X22399D01*
X22485Y-6978D01*
X22528Y-7021D01*
X22571Y-7107D01*
Y-7192D01*
X22528Y-7278D01*
X22442Y-7407D01*
X22014Y-7835D01*
X22614D01*
X22815Y-7107D02*
X22901Y-7064D01*
X23029Y-6935D01*
Y-7835D01*
X23732Y-6935D02*
X23603Y-6978D01*
X23518Y-7107D01*
X23475Y-7321D01*
Y-7449D01*
X23518Y-7664D01*
X23603Y-7792D01*
X23732Y-7835D01*
X23818D01*
X23946Y-7792D01*
X24032Y-7664D01*
X24075Y-7449D01*
Y-7321D01*
X24032Y-7107D01*
X23946Y-6978D01*
X23818Y-6935D01*
X23732D01*
X24533D02*
X24405Y-6978D01*
X24319Y-7107D01*
X24276Y-7321D01*
Y-7449D01*
X24319Y-7664D01*
X24405Y-7792D01*
X24533Y-7835D01*
X24619D01*
X24748Y-7792D01*
X24833Y-7664D01*
X24876Y-7449D01*
Y-7321D01*
X24833Y-7107D01*
X24748Y-6978D01*
X24619Y-6935D01*
X24533D01*
X25634D02*
X25077D01*
Y-7835D01*
X25634D01*
X25077Y-7364D02*
X25420D01*
X26341Y-6935D02*
X25784D01*
Y-7835D01*
X26341D01*
X25784Y-7364D02*
X26127D01*
X26534Y-7749D02*
X26491Y-7792D01*
X26534Y-7835D01*
X26577Y-7792D01*
X26534Y-7749D01*
X27417Y-7149D02*
X27374Y-7064D01*
X27288Y-6978D01*
X27203Y-6935D01*
X27031D01*
X26946Y-6978D01*
X26860Y-7064D01*
X26817Y-7149D01*
X26774Y-7278D01*
Y-7492D01*
X26817Y-7621D01*
X26860Y-7706D01*
X26946Y-7792D01*
X27031Y-7835D01*
X27203D01*
X27288Y-7792D01*
X27374Y-7706D01*
X27417Y-7621D01*
Y-7492D01*
X27203D02*
X27417D01*
X27623Y-6935D02*
Y-7835D01*
Y-6935D02*
X27965Y-7835D01*
X28308Y-6935D02*
X27965Y-7835D01*
X28308Y-6935D02*
Y-7835D01*
X28651Y-6935D02*
X29122D01*
X28865Y-7278D01*
X28994D01*
X29079Y-7321D01*
X29122Y-7364D01*
X29165Y-7492D01*
Y-7578D01*
X29122Y-7706D01*
X29037Y-7792D01*
X28908Y-7835D01*
X28780D01*
X28651Y-7792D01*
X28608Y-7749D01*
X28565Y-7664D01*
X29367Y-7107D02*
X29452Y-7064D01*
X29581Y-6935D01*
Y-7835D01*
X-4462Y-7407D02*
X-4077D01*
X-3948Y-7364D01*
X-3905Y-7321D01*
X-3863Y-7235D01*
Y-7107D01*
X-3905Y-7021D01*
X-3948Y-6978D01*
X-4077Y-6935D01*
X-4462D01*
Y-7835D01*
X-3661Y-6935D02*
Y-7835D01*
X-3147D01*
X-2791Y-6935D02*
X-2877Y-6978D01*
X-2963Y-7064D01*
X-3006Y-7149D01*
X-3048Y-7278D01*
Y-7492D01*
X-3006Y-7621D01*
X-2963Y-7706D01*
X-2877Y-7792D01*
X-2791Y-7835D01*
X-2620D01*
X-2534Y-7792D01*
X-2449Y-7706D01*
X-2406Y-7621D01*
X-2363Y-7492D01*
Y-7278D01*
X-2406Y-7149D01*
X-2449Y-7064D01*
X-2534Y-6978D01*
X-2620Y-6935D01*
X-2791D01*
X-1853D02*
Y-7835D01*
X-2153Y-6935D02*
X-1553D01*
X-739D02*
Y-7835D01*
Y-6935D02*
X-182D01*
X-739Y-7364D02*
X-396D01*
X-79Y-6935D02*
Y-7835D01*
X109Y-6935D02*
Y-7835D01*
X624D01*
X1279Y-6935D02*
X722D01*
Y-7835D01*
X1279D01*
X722Y-7364D02*
X1065D01*
X1472Y-7235D02*
X1429Y-7278D01*
X1472Y-7321D01*
X1515Y-7278D01*
X1472Y-7235D01*
Y-7749D02*
X1429Y-7792D01*
X1472Y-7835D01*
X1515Y-7792D01*
X1472Y-7749D01*
X-4462Y-4135D02*
Y-5035D01*
X-3948D01*
X-3164D02*
X-3507Y-4135D01*
X-3850Y-5035D01*
X-3721Y-4735D02*
X-3293D01*
X-2954Y-4135D02*
X-2611Y-4564D01*
Y-5035D01*
X-2269Y-4135D02*
X-2611Y-4564D01*
X-1596Y-4135D02*
X-2153D01*
Y-5035D01*
X-1596D01*
X-2153Y-4564D02*
X-1810D01*
X-1446Y-4135D02*
Y-5035D01*
Y-4135D02*
X-1060D01*
X-932Y-4178D01*
X-889Y-4221D01*
X-846Y-4307D01*
Y-4392D01*
X-889Y-4478D01*
X-932Y-4521D01*
X-1060Y-4564D01*
X-1446D01*
X-1146D02*
X-846Y-5035D01*
X62Y-4135D02*
Y-5035D01*
Y-4135D02*
X662Y-5035D01*
Y-4135D02*
Y-5035D01*
X1596D02*
X1253Y-4135D01*
X911Y-5035D01*
X1039Y-4735D02*
X1468D01*
X1806Y-4135D02*
Y-5035D01*
Y-4135D02*
X2149Y-5035D01*
X2492Y-4135D02*
X2149Y-5035D01*
X2492Y-4135D02*
Y-5035D01*
X3306Y-4135D02*
X2749D01*
Y-5035D01*
X3306D01*
X2749Y-4564D02*
X3092D01*
X3499Y-4435D02*
X3456Y-4478D01*
X3499Y-4521D01*
X3542Y-4478D01*
X3499Y-4435D01*
Y-4949D02*
X3456Y-4992D01*
X3499Y-5035D01*
X3542Y-4992D01*
X3499Y-4949D01*
X4827Y-4135D02*
Y-5035D01*
X4528Y-4135D02*
X5127D01*
X5235Y-4692D02*
X5749D01*
Y-4607D01*
X5706Y-4521D01*
X5663Y-4478D01*
X5577Y-4435D01*
X5449D01*
X5363Y-4478D01*
X5277Y-4564D01*
X5235Y-4692D01*
Y-4778D01*
X5277Y-4906D01*
X5363Y-4992D01*
X5449Y-5035D01*
X5577D01*
X5663Y-4992D01*
X5749Y-4906D01*
X5942Y-4435D02*
Y-5035D01*
Y-4607D02*
X6070Y-4478D01*
X6156Y-4435D01*
X6284D01*
X6370Y-4478D01*
X6413Y-4607D01*
Y-5035D01*
Y-4607D02*
X6541Y-4478D01*
X6627Y-4435D01*
X6756D01*
X6841Y-4478D01*
X6884Y-4607D01*
Y-5035D01*
X7167Y-4435D02*
Y-5335D01*
Y-4564D02*
X7253Y-4478D01*
X7338Y-4435D01*
X7467D01*
X7553Y-4478D01*
X7638Y-4564D01*
X7681Y-4692D01*
Y-4778D01*
X7638Y-4906D01*
X7553Y-4992D01*
X7467Y-5035D01*
X7338D01*
X7253Y-4992D01*
X7167Y-4906D01*
X7874Y-4135D02*
Y-5035D01*
X8577Y-4435D02*
Y-5035D01*
Y-4564D02*
X8491Y-4478D01*
X8405Y-4435D01*
X8277D01*
X8191Y-4478D01*
X8105Y-4564D01*
X8063Y-4692D01*
Y-4778D01*
X8105Y-4906D01*
X8191Y-4992D01*
X8277Y-5035D01*
X8405D01*
X8491Y-4992D01*
X8577Y-4906D01*
X8945Y-4135D02*
Y-4864D01*
X8988Y-4992D01*
X9074Y-5035D01*
X9159D01*
X8817Y-4435D02*
X9117D01*
X9288Y-4692D02*
X9802D01*
Y-4607D01*
X9759Y-4521D01*
X9716Y-4478D01*
X9631Y-4435D01*
X9502D01*
X9417Y-4478D01*
X9331Y-4564D01*
X9288Y-4692D01*
Y-4778D01*
X9331Y-4906D01*
X9417Y-4992D01*
X9502Y-5035D01*
X9631D01*
X9716Y-4992D01*
X9802Y-4906D01*
X11302Y-4264D02*
X11216Y-4178D01*
X11088Y-4135D01*
X10916D01*
X10788Y-4178D01*
X10702Y-4264D01*
Y-4349D01*
X10745Y-4435D01*
X10788Y-4478D01*
X10873Y-4521D01*
X11130Y-4607D01*
X11216Y-4649D01*
X11259Y-4692D01*
X11302Y-4778D01*
Y-4906D01*
X11216Y-4992D01*
X11088Y-5035D01*
X10916D01*
X10788Y-4992D01*
X10702Y-4906D01*
X12017Y-4564D02*
X11932Y-4478D01*
X11846Y-4435D01*
X11717D01*
X11632Y-4478D01*
X11546Y-4564D01*
X11503Y-4692D01*
Y-4778D01*
X11546Y-4906D01*
X11632Y-4992D01*
X11717Y-5035D01*
X11846D01*
X11932Y-4992D01*
X12017Y-4906D01*
X12210Y-4135D02*
Y-5035D01*
Y-4607D02*
X12339Y-4478D01*
X12424Y-4435D01*
X12553D01*
X12639Y-4478D01*
X12682Y-4607D01*
Y-5035D01*
X12917Y-4692D02*
X13431D01*
Y-4607D01*
X13389Y-4521D01*
X13346Y-4478D01*
X13260Y-4435D01*
X13131D01*
X13046Y-4478D01*
X12960Y-4564D01*
X12917Y-4692D01*
Y-4778D01*
X12960Y-4906D01*
X13046Y-4992D01*
X13131Y-5035D01*
X13260D01*
X13346Y-4992D01*
X13431Y-4906D01*
X13624Y-4692D02*
X14138D01*
Y-4607D01*
X14096Y-4521D01*
X14053Y-4478D01*
X13967Y-4435D01*
X13838D01*
X13753Y-4478D01*
X13667Y-4564D01*
X13624Y-4692D01*
Y-4778D01*
X13667Y-4906D01*
X13753Y-4992D01*
X13838Y-5035D01*
X13967D01*
X14053Y-4992D01*
X14138Y-4906D01*
X14460Y-4135D02*
Y-4864D01*
X14503Y-4992D01*
X14588Y-5035D01*
X14674D01*
X14331Y-4435D02*
X14631D01*
X16195Y-5035D02*
X15852Y-4135D01*
X15509Y-5035D01*
X15638Y-4735D02*
X16067D01*
X16405Y-4307D02*
X16491Y-4264D01*
X16619Y-4135D01*
Y-5035D01*
D30*
X167876Y126745D02*
Y133769D01*
X119888Y131766D02*
X167880Y131777D01*
X119888Y130073D02*
X167880Y130077D01*
X119888Y126745D02*
X167876Y126735D01*
X123625Y118493D02*
X123630Y133773D01*
X131116Y118483D02*
Y133775D01*
X159130Y133777D02*
X159140Y118473D01*
X162880Y131777D02*
X167880D01*
X119888Y128405D02*
X167876Y128395D01*
X119872Y133777D02*
X167878D01*
X119864Y133769D02*
X119886Y133747D01*
X119888Y121785D02*
X167876Y121775D01*
X119888Y120135D02*
X167876Y120125D01*
X119888Y118485D02*
X167876Y118475D01*
X119886Y123435D02*
Y133747D01*
Y123435D02*
X167876D01*
X119886Y118493D02*
Y125007D01*
X167876Y125095D02*
Y126765D01*
X119888Y125095D02*
X167876D01*
Y118493D02*
Y125109D01*
X116136Y133765D02*
X119868D01*
X127999Y-69127D02*
X140332D01*
Y-63747D01*
X127999D02*
X140332D01*
X127999Y-69127D02*
Y-63747D01*
X167880Y-83235D02*
Y-63635D01*
X139880Y-80515D02*
Y-72355D01*
X127876Y-63635D02*
X127880Y-80515D01*
X119880Y-83235D02*
X167880D01*
X119880Y-80515D02*
X167880D01*
X127880Y-77795D02*
X167880D01*
X127880Y-75075D02*
X151880D01*
X127880Y-72355D02*
X167880D01*
X127880Y-69235D02*
X167880D01*
X119880Y-65185D02*
X127880D01*
X119880Y-83235D02*
Y-63635D01*
X167880D01*
X-144124Y-86231D02*
Y136769D01*
Y-86231D02*
X170876D01*
Y136769D01*
X-144124D02*
X170876D01*
X-141124Y-83231D02*
Y133769D01*
Y-83231D02*
X167876D01*
Y133769D01*
X-141124D02*
X167876D01*
X-117824D02*
Y136769D01*
X-91624Y133769D02*
Y136769D01*
X-65374Y133769D02*
Y136769D01*
X-39124Y133769D02*
Y136769D01*
X-12874Y133769D02*
Y136769D01*
X13376Y133769D02*
Y136769D01*
X39626Y133769D02*
Y136769D01*
X65876Y133769D02*
Y136769D01*
X92126Y133769D02*
Y136769D01*
X118376Y133769D02*
Y136769D01*
X144626Y133769D02*
Y136769D01*
X-144124Y81069D02*
X-141124D01*
X-144124Y25269D02*
X-141124D01*
X-144124Y-30481D02*
X-141124D01*
X-117824Y-86231D02*
Y-83231D01*
X-91624Y-86231D02*
Y-83231D01*
X-65374Y-86231D02*
Y-83231D01*
X-39124Y-86231D02*
Y-83231D01*
X-12874Y-86231D02*
Y-83231D01*
X13376Y-86231D02*
Y-83231D01*
X39626Y-86231D02*
Y-83231D01*
X65876Y-86231D02*
Y-83231D01*
X92126Y-86231D02*
Y-83231D01*
X118376Y-86231D02*
Y-83231D01*
X144626Y-86231D02*
Y-83231D01*
X167876Y81069D02*
X170876D01*
X167876Y25269D02*
X170876D01*
X167876Y-30481D02*
X170876D01*
X116135Y133754D02*
X116136Y133755D01*
Y133765D01*
X151880Y-80515D02*
Y-72355D01*
D35*
X126526Y-79111D02*
G03*
X126526Y-79111I-820J0D01*
G01*
X126097D02*
G03*
X126097Y-79111I-380J0D01*
G01*
X121307Y-79535D02*
X123372Y-79961D01*
X121307Y-78764D02*
X123372Y-78337D01*
X121307Y-79535D02*
Y-78764D01*
X123372Y-79961D02*
Y-78337D01*
D36*
X137258Y-67405D02*
X137328D01*
X135418D02*
X135488D01*
X133608D02*
X133688D01*
X137788Y-67395D02*
X137918D01*
X137568D02*
X137658D01*
X137218D02*
X137378D01*
X136868D02*
X137058D01*
X136608D02*
X136708D01*
X136388D02*
X136498D01*
X136078D02*
X136188D01*
X135808D02*
X135948D01*
X135378D02*
X135538D01*
X135048D02*
X135188D01*
X134828D02*
X134928D01*
X134598D02*
X134728D01*
X134378D02*
X134468D01*
X134108D02*
X134298D01*
X133568D02*
X133728D01*
X133208D02*
X133308D01*
X132658D02*
X132798D01*
X132438D02*
X132538D01*
X132068D02*
X132348D01*
X131738D02*
X131878D01*
X131368D02*
X131558D01*
X131198D02*
X131318D01*
X130958D02*
X131058D01*
X130528D02*
X130768D01*
X137778Y-67385D02*
X137918D01*
X137558D02*
X137658D01*
X137188D02*
X137398D01*
X136868D02*
X137058D01*
X136608D02*
X136708D01*
X136378D02*
X136498D01*
X136078D02*
X136188D01*
X135808D02*
X135948D01*
X135348D02*
X135558D01*
X135048D02*
X135188D01*
X134828D02*
X134928D01*
X134588D02*
X134728D01*
X134378D02*
X134468D01*
X134108D02*
X134298D01*
X133538D02*
X133748D01*
X133208D02*
X133308D01*
X132658D02*
X132798D01*
X132438D02*
X132538D01*
X132068D02*
X132348D01*
X131738D02*
X131878D01*
X131368D02*
X131558D01*
X131198D02*
X131318D01*
X130958D02*
X131058D01*
X130528D02*
X130788D01*
X137778Y-67375D02*
X137918D01*
X137558D02*
X137658D01*
X137178D02*
X137418D01*
X136868D02*
X137058D01*
X136608D02*
X136708D01*
X136378D02*
X136488D01*
X136078D02*
X136188D01*
X135798D02*
X135958D01*
X135338D02*
X135578D01*
X135038D02*
X135188D01*
X134828D02*
X134928D01*
X134588D02*
X134728D01*
X134378D02*
X134468D01*
X134108D02*
X134298D01*
X133528D02*
X133768D01*
X133208D02*
X133308D01*
X132648D02*
X132798D01*
X132438D02*
X132538D01*
X132068D02*
X132348D01*
X131728D02*
X131888D01*
X131368D02*
X131558D01*
X131188D02*
X131308D01*
X130958D02*
X131058D01*
X130528D02*
X130808D01*
X137768Y-67365D02*
X137918D01*
X137558D02*
X137658D01*
X137158D02*
X137428D01*
X136868D02*
X137058D01*
X136608D02*
X136708D01*
X136378D02*
X136488D01*
X136088D02*
X136198D01*
X135798D02*
X135958D01*
X135328D02*
X135588D01*
X135038D02*
X135188D01*
X134828D02*
X134928D01*
X134578D02*
X134728D01*
X134378D02*
X134468D01*
X134108D02*
X134298D01*
X133518D02*
X133778D01*
X133208D02*
X133308D01*
X132648D02*
X132798D01*
X132438D02*
X132538D01*
X132068D02*
X132348D01*
X131728D02*
X131888D01*
X131368D02*
X131558D01*
X131188D02*
X131308D01*
X130958D02*
X131058D01*
X130528D02*
X130818D01*
X137768Y-67355D02*
X137918D01*
X137558D02*
X137658D01*
X137158D02*
X137438D01*
X136868D02*
X137058D01*
X136608D02*
X136708D01*
X136368D02*
X136488D01*
X136088D02*
X136198D01*
X135798D02*
X135958D01*
X135318D02*
X135598D01*
X135028D02*
X135188D01*
X134828D02*
X134928D01*
X134578D02*
X134728D01*
X134378D02*
X134468D01*
X134108D02*
X134298D01*
X133508D02*
X133788D01*
X133208D02*
X133308D01*
X132638D02*
X132798D01*
X132438D02*
X132538D01*
X132068D02*
X132348D01*
X131728D02*
X131888D01*
X131368D02*
X131558D01*
X131188D02*
X131298D01*
X130958D02*
X131058D01*
X130528D02*
X130828D01*
X137758Y-67345D02*
X137918D01*
X137558D02*
X137658D01*
X137148D02*
X137448D01*
X136868D02*
X137058D01*
X136608D02*
X136708D01*
X136368D02*
X136478D01*
X136088D02*
X136198D01*
X135788D02*
X135968D01*
X135308D02*
X135608D01*
X135028D02*
X135188D01*
X134828D02*
X134928D01*
X134568D02*
X134728D01*
X134378D02*
X134468D01*
X134118D02*
X134298D01*
X133498D02*
X133798D01*
X133208D02*
X133308D01*
X132638D02*
X132798D01*
X132438D02*
X132538D01*
X132068D02*
X132348D01*
X131718D02*
X131898D01*
X131368D02*
X131558D01*
X131178D02*
X131298D01*
X130958D02*
X131058D01*
X130528D02*
X130838D01*
X137758Y-67335D02*
X137918D01*
X137558D02*
X137658D01*
X137328D02*
X137448D01*
X137138D02*
X137258D01*
X136908D02*
X137018D01*
X136608D02*
X136708D01*
X136368D02*
X136478D01*
X136098D02*
X136198D01*
X135888D02*
X135968D01*
X135788D02*
X135878D01*
X135488D02*
X135608D01*
X135298D02*
X135418D01*
X135028D02*
X135188D01*
X134828D02*
X134928D01*
X134568D02*
X134728D01*
X134378D02*
X134468D01*
X134158D02*
X134258D01*
X133678D02*
X133798D01*
X133488D02*
X133608D01*
X133208D02*
X133308D01*
X132628D02*
X132798D01*
X132438D02*
X132538D01*
X132068D02*
X132348D01*
X131718D02*
X131898D01*
X131408D02*
X131518D01*
X131178D02*
X131288D01*
X130958D02*
X131058D01*
X130528D02*
X130848D01*
X137748Y-67325D02*
X137918D01*
X137558D02*
X137658D01*
X137348D02*
X137458D01*
X137128D02*
X137248D01*
X136908D02*
X137018D01*
X136608D02*
X136708D01*
X136358D02*
X136478D01*
X136098D02*
X136208D01*
X135888D02*
X135968D01*
X135788D02*
X135878D01*
X135508D02*
X135618D01*
X135298D02*
X135408D01*
X135018D02*
X135188D01*
X134828D02*
X134928D01*
X134558D02*
X134728D01*
X134378D02*
X134468D01*
X134158D02*
X134258D01*
X133698D02*
X133808D01*
X133488D02*
X133598D01*
X133208D02*
X133308D01*
X132628D02*
X132798D01*
X132438D02*
X132538D01*
X132068D02*
X132168D01*
X131818D02*
X131898D01*
X131718D02*
X131808D01*
X131408D02*
X131518D01*
X131178D02*
X131288D01*
X130958D02*
X131058D01*
X130718D02*
X130848D01*
X130528D02*
X130628D01*
X137748Y-67315D02*
X137918D01*
X137558D02*
X137658D01*
X137348D02*
X137458D01*
X137128D02*
X137238D01*
X136908D02*
X137018D01*
X136608D02*
X136708D01*
X136358D02*
X136468D01*
X136098D02*
X136208D01*
X135888D02*
X135978D01*
X135778D02*
X135878D01*
X135518D02*
X135618D01*
X135288D02*
X135398D01*
X135018D02*
X135188D01*
X134828D02*
X134928D01*
X134558D02*
X134728D01*
X134378D02*
X134468D01*
X134158D02*
X134258D01*
X133708D02*
X133818D01*
X133478D02*
X133588D01*
X133208D02*
X133308D01*
X132618D02*
X132798D01*
X132438D02*
X132538D01*
X132068D02*
X132168D01*
X131818D02*
X131908D01*
X131708D02*
X131808D01*
X131408D02*
X131518D01*
X131168D02*
X131278D01*
X130958D02*
X131058D01*
X130738D02*
X130858D01*
X130528D02*
X130628D01*
X137738Y-67305D02*
X137918D01*
X137558D02*
X137658D01*
X137358D02*
X137468D01*
X137128D02*
X137228D01*
X136908D02*
X137018D01*
X136608D02*
X136708D01*
X136108D02*
X136468D01*
X135888D02*
X135978D01*
X135778D02*
X135878D01*
X135518D02*
X135628D01*
X135288D02*
X135388D01*
X135008D02*
X135188D01*
X134828D02*
X134928D01*
X134558D02*
X134728D01*
X134378D02*
X134468D01*
X134158D02*
X134258D01*
X133708D02*
X133818D01*
X133478D02*
X133578D01*
X133208D02*
X133308D01*
X132618D02*
X132798D01*
X132438D02*
X132538D01*
X132068D02*
X132168D01*
X131818D02*
X131908D01*
X131708D02*
X131808D01*
X131408D02*
X131518D01*
X131168D02*
X131278D01*
X130958D02*
X131058D01*
X130748D02*
X130858D01*
X130528D02*
X130628D01*
X137738Y-67295D02*
X137918D01*
X137558D02*
X137658D01*
X137368D02*
X137468D01*
X137118D02*
X137228D01*
X136908D02*
X137018D01*
X136608D02*
X136708D01*
X136108D02*
X136468D01*
X135888D02*
X135978D01*
X135778D02*
X135868D01*
X135528D02*
X135628D01*
X135278D02*
X135388D01*
X135008D02*
X135188D01*
X134828D02*
X134928D01*
X134548D02*
X134728D01*
X134378D02*
X134468D01*
X134158D02*
X134258D01*
X133718D02*
X133818D01*
X133468D02*
X133578D01*
X133208D02*
X133308D01*
X132708D02*
X132798D01*
X132608D02*
X132698D01*
X132438D02*
X132538D01*
X132068D02*
X132168D01*
X131818D02*
X131908D01*
X131708D02*
X131798D01*
X131408D02*
X131518D01*
X131158D02*
X131268D01*
X130958D02*
X131058D01*
X130748D02*
X130868D01*
X130528D02*
X130628D01*
X137728Y-67285D02*
X137918D01*
X137558D02*
X137658D01*
X137368D02*
X137468D01*
X137118D02*
X137218D01*
X136908D02*
X137018D01*
X136608D02*
X136708D01*
X136108D02*
X136458D01*
X135888D02*
X135988D01*
X135768D02*
X135868D01*
X135528D02*
X135638D01*
X135278D02*
X135388D01*
X135098D02*
X135188D01*
X134998D02*
X135088D01*
X134828D02*
X134928D01*
X134548D02*
X134728D01*
X134378D02*
X134468D01*
X134158D02*
X134258D01*
X133718D02*
X133828D01*
X133468D02*
X133578D01*
X133208D02*
X133308D01*
X132708D02*
X132798D01*
X132608D02*
X132698D01*
X132438D02*
X132538D01*
X132068D02*
X132168D01*
X131818D02*
X131918D01*
X131698D02*
X131798D01*
X131408D02*
X131518D01*
X131158D02*
X131268D01*
X130958D02*
X131058D01*
X130758D02*
X130868D01*
X130528D02*
X130628D01*
X137828Y-67275D02*
X137918D01*
X137728D02*
X137818D01*
X137558D02*
X137658D01*
X137368D02*
X137478D01*
X137118D02*
X137218D01*
X136908D02*
X137018D01*
X136608D02*
X136708D01*
X136118D02*
X136458D01*
X135898D02*
X135988D01*
X135768D02*
X135868D01*
X135528D02*
X135638D01*
X135278D02*
X135378D01*
X135098D02*
X135188D01*
X134998D02*
X135088D01*
X134828D02*
X134928D01*
X134638D02*
X134728D01*
X134538D02*
X134628D01*
X134378D02*
X134468D01*
X134158D02*
X134258D01*
X133718D02*
X133828D01*
X133468D02*
X133568D01*
X133208D02*
X133308D01*
X132708D02*
X132798D01*
X132598D02*
X132698D01*
X132438D02*
X132538D01*
X132068D02*
X132168D01*
X131828D02*
X131918D01*
X131698D02*
X131798D01*
X131408D02*
X131518D01*
X131148D02*
X131258D01*
X130958D02*
X131058D01*
X130758D02*
X130868D01*
X130528D02*
X130628D01*
X137828Y-67265D02*
X137918D01*
X137718D02*
X137818D01*
X137558D02*
X137658D01*
X137368D02*
X137478D01*
X137108D02*
X137218D01*
X136908D02*
X137018D01*
X136608D02*
X136708D01*
X136118D02*
X136448D01*
X135898D02*
X135998D01*
X135768D02*
X135868D01*
X135538D02*
X135638D01*
X135278D02*
X135378D01*
X135098D02*
X135188D01*
X134988D02*
X135088D01*
X134828D02*
X134928D01*
X134638D02*
X134728D01*
X134538D02*
X134628D01*
X134378D02*
X134468D01*
X134158D02*
X134258D01*
X133728D02*
X133828D01*
X133468D02*
X133568D01*
X133208D02*
X133308D01*
X132698D02*
X132798D01*
X132598D02*
X132688D01*
X132438D02*
X132538D01*
X132068D02*
X132168D01*
X131828D02*
X131918D01*
X131688D02*
X131798D01*
X131408D02*
X131518D01*
X131138D02*
X131258D01*
X130958D02*
X131058D01*
X130758D02*
X130868D01*
X130528D02*
X130628D01*
X137828Y-67255D02*
X137918D01*
X137718D02*
X137818D01*
X137558D02*
X137658D01*
X137368D02*
X137478D01*
X137108D02*
X137218D01*
X136908D02*
X137018D01*
X136608D02*
X136708D01*
X136118D02*
X136448D01*
X135898D02*
X135998D01*
X135758D02*
X135868D01*
X135538D02*
X135638D01*
X135278D02*
X135378D01*
X135098D02*
X135188D01*
X134988D02*
X135078D01*
X134828D02*
X134928D01*
X134638D02*
X134728D01*
X134528D02*
X134628D01*
X134378D02*
X134468D01*
X134158D02*
X134258D01*
X133728D02*
X133828D01*
X133468D02*
X133568D01*
X133208D02*
X133308D01*
X132698D02*
X132798D01*
X132598D02*
X132688D01*
X132438D02*
X132538D01*
X132068D02*
X132168D01*
X131828D02*
X131928D01*
X131688D02*
X131788D01*
X131408D02*
X131518D01*
X131128D02*
X131248D01*
X130958D02*
X131058D01*
X130768D02*
X130868D01*
X130528D02*
X130628D01*
X137828Y-67245D02*
X137918D01*
X137718D02*
X137808D01*
X137558D02*
X137658D01*
X137368D02*
X137478D01*
X137108D02*
X137218D01*
X136908D02*
X137018D01*
X136608D02*
X136708D01*
X136128D02*
X136448D01*
X135898D02*
X135998D01*
X135758D02*
X135858D01*
X135538D02*
X135638D01*
X135268D02*
X135378D01*
X135098D02*
X135188D01*
X134978D02*
X135078D01*
X134828D02*
X134928D01*
X134638D02*
X134728D01*
X134528D02*
X134618D01*
X134378D02*
X134468D01*
X134158D02*
X134258D01*
X133728D02*
X133828D01*
X133458D02*
X133568D01*
X133208D02*
X133308D01*
X132698D02*
X132798D01*
X132588D02*
X132688D01*
X132438D02*
X132538D01*
X132068D02*
X132168D01*
X131828D02*
X131928D01*
X131688D02*
X131788D01*
X131408D02*
X131518D01*
X131118D02*
X131248D01*
X130958D02*
X131058D01*
X130768D02*
X130868D01*
X130528D02*
X130628D01*
X137828Y-67235D02*
X137918D01*
X137708D02*
X137808D01*
X137558D02*
X137658D01*
X137378D02*
X137478D01*
X137108D02*
X137218D01*
X136908D02*
X137018D01*
X136608D02*
X136708D01*
X136328D02*
X136438D01*
X136128D02*
X136228D01*
X135908D02*
X136008D01*
X135748D02*
X135858D01*
X135538D02*
X135638D01*
X135268D02*
X135378D01*
X135088D02*
X135188D01*
X134978D02*
X135078D01*
X134828D02*
X134928D01*
X134638D02*
X134728D01*
X134518D02*
X134618D01*
X134378D02*
X134468D01*
X134158D02*
X134258D01*
X133728D02*
X133828D01*
X133458D02*
X133568D01*
X133208D02*
X133308D01*
X132698D02*
X132798D01*
X132588D02*
X132678D01*
X132438D02*
X132538D01*
X132068D02*
X132168D01*
X131838D02*
X131938D01*
X131678D02*
X131788D01*
X131408D02*
X131518D01*
X131108D02*
X131238D01*
X130958D02*
X131058D01*
X130768D02*
X130868D01*
X130528D02*
X130628D01*
X137828Y-67225D02*
X137918D01*
X137708D02*
X137808D01*
X137558D02*
X137658D01*
X137378D02*
X137478D01*
X137108D02*
X137218D01*
X136908D02*
X137018D01*
X136608D02*
X136708D01*
X136328D02*
X136438D01*
X136128D02*
X136238D01*
X135908D02*
X136008D01*
X135748D02*
X135858D01*
X135538D02*
X135638D01*
X135268D02*
X135378D01*
X135088D02*
X135188D01*
X134968D02*
X135068D01*
X134828D02*
X134928D01*
X134638D02*
X134728D01*
X134518D02*
X134618D01*
X134378D02*
X134468D01*
X134158D02*
X134258D01*
X133728D02*
X133828D01*
X133458D02*
X133568D01*
X133208D02*
X133308D01*
X132698D02*
X132798D01*
X132578D02*
X132678D01*
X132438D02*
X132538D01*
X132068D02*
X132168D01*
X131838D02*
X131938D01*
X131678D02*
X131788D01*
X131408D02*
X131518D01*
X130958D02*
X131228D01*
X130768D02*
X130878D01*
X130528D02*
X130628D01*
X137828Y-67215D02*
X137918D01*
X137698D02*
X137798D01*
X137558D02*
X137658D01*
X137378D02*
X137478D01*
X137108D02*
X137218D01*
X136908D02*
X137018D01*
X136608D02*
X136708D01*
X136328D02*
X136438D01*
X136138D02*
X136238D01*
X135908D02*
X136008D01*
X135748D02*
X135848D01*
X135538D02*
X135638D01*
X135268D02*
X135378D01*
X135088D02*
X135188D01*
X134968D02*
X135068D01*
X134828D02*
X134928D01*
X134638D02*
X134728D01*
X134508D02*
X134608D01*
X134378D02*
X134468D01*
X134158D02*
X134258D01*
X133728D02*
X133838D01*
X133458D02*
X133568D01*
X133208D02*
X133308D01*
X132698D02*
X132798D01*
X132578D02*
X132678D01*
X132438D02*
X132538D01*
X132068D02*
X132338D01*
X131838D02*
X131938D01*
X131678D02*
X131778D01*
X131408D02*
X131518D01*
X130958D02*
X131208D01*
X130768D02*
X130878D01*
X130528D02*
X130628D01*
X137828Y-67205D02*
X137918D01*
X137698D02*
X137798D01*
X137558D02*
X137658D01*
X137378D02*
X137478D01*
X137108D02*
X137218D01*
X136908D02*
X137018D01*
X136608D02*
X136708D01*
X136328D02*
X136428D01*
X136138D02*
X136238D01*
X135918D02*
X136018D01*
X135738D02*
X135848D01*
X135538D02*
X135648D01*
X135268D02*
X135378D01*
X135088D02*
X135188D01*
X134958D02*
X135058D01*
X134828D02*
X134928D01*
X134638D02*
X134728D01*
X134508D02*
X134608D01*
X134378D02*
X134468D01*
X134158D02*
X134258D01*
X133728D02*
X133838D01*
X133458D02*
X133568D01*
X133208D02*
X133308D01*
X132698D02*
X132798D01*
X132568D02*
X132668D01*
X132438D02*
X132538D01*
X132068D02*
X132338D01*
X131848D02*
X131948D01*
X131668D02*
X131778D01*
X131408D02*
X131518D01*
X130958D02*
X131188D01*
X130768D02*
X130878D01*
X130528D02*
X130628D01*
X137828Y-67195D02*
X137918D01*
X137688D02*
X137788D01*
X137558D02*
X137658D01*
X137378D02*
X137478D01*
X137108D02*
X137218D01*
X136908D02*
X137018D01*
X136608D02*
X136708D01*
X136318D02*
X136428D01*
X136138D02*
X136248D01*
X135918D02*
X136018D01*
X135738D02*
X135848D01*
X135538D02*
X135648D01*
X135268D02*
X135378D01*
X135088D02*
X135188D01*
X134958D02*
X135058D01*
X134828D02*
X134928D01*
X134638D02*
X134728D01*
X134498D02*
X134598D01*
X134378D02*
X134468D01*
X134158D02*
X134258D01*
X133728D02*
X133838D01*
X133458D02*
X133568D01*
X133208D02*
X133308D01*
X132698D02*
X132798D01*
X132568D02*
X132668D01*
X132438D02*
X132538D01*
X132068D02*
X132338D01*
X131848D02*
X131948D01*
X131668D02*
X131778D01*
X131408D02*
X131518D01*
X130958D02*
X131198D01*
X130768D02*
X130878D01*
X130528D02*
X130628D01*
X137828Y-67185D02*
X137918D01*
X137688D02*
X137788D01*
X137558D02*
X137658D01*
X137378D02*
X137478D01*
X137108D02*
X137218D01*
X136908D02*
X137018D01*
X136608D02*
X136708D01*
X136318D02*
X136428D01*
X136148D02*
X136248D01*
X135918D02*
X136018D01*
X135738D02*
X135838D01*
X135538D02*
X135638D01*
X135268D02*
X135378D01*
X135088D02*
X135188D01*
X134948D02*
X135048D01*
X134828D02*
X134928D01*
X134638D02*
X134728D01*
X134498D02*
X134598D01*
X134378D02*
X134468D01*
X134158D02*
X134258D01*
X133728D02*
X133838D01*
X133458D02*
X133568D01*
X133208D02*
X133308D01*
X132698D02*
X132798D01*
X132558D02*
X132658D01*
X132438D02*
X132538D01*
X132068D02*
X132338D01*
X131848D02*
X131948D01*
X131668D02*
X131768D01*
X131408D02*
X131518D01*
X130958D02*
X131228D01*
X130768D02*
X130878D01*
X130528D02*
X130628D01*
X137828Y-67175D02*
X137918D01*
X137678D02*
X137778D01*
X137558D02*
X137658D01*
X137378D02*
X137478D01*
X137108D02*
X137218D01*
X136908D02*
X137018D01*
X136608D02*
X136708D01*
X136318D02*
X136418D01*
X136148D02*
X136248D01*
X135928D02*
X136028D01*
X135728D02*
X135838D01*
X135538D02*
X135638D01*
X135268D02*
X135378D01*
X135088D02*
X135188D01*
X134948D02*
X135048D01*
X134828D02*
X134928D01*
X134638D02*
X134728D01*
X134488D02*
X134588D01*
X134378D02*
X134468D01*
X134158D02*
X134258D01*
X133728D02*
X133828D01*
X133458D02*
X133568D01*
X133208D02*
X133308D01*
X132698D02*
X132798D01*
X132558D02*
X132658D01*
X132438D02*
X132538D01*
X132068D02*
X132338D01*
X131848D02*
X131958D01*
X131658D02*
X131768D01*
X131408D02*
X131518D01*
X130958D02*
X131248D01*
X130768D02*
X130878D01*
X130528D02*
X130628D01*
X137828Y-67165D02*
X137918D01*
X137678D02*
X137778D01*
X137558D02*
X137658D01*
X137378D02*
X137478D01*
X137108D02*
X137218D01*
X136908D02*
X137018D01*
X136608D02*
X136708D01*
X136308D02*
X136418D01*
X136148D02*
X136248D01*
X135928D02*
X136028D01*
X135728D02*
X135838D01*
X135538D02*
X135638D01*
X135268D02*
X135378D01*
X135088D02*
X135188D01*
X134938D02*
X135048D01*
X134828D02*
X134928D01*
X134638D02*
X134728D01*
X134488D02*
X134588D01*
X134378D02*
X134468D01*
X134158D02*
X134258D01*
X133728D02*
X133828D01*
X133458D02*
X133568D01*
X133208D02*
X133308D01*
X132698D02*
X132798D01*
X132548D02*
X132648D01*
X132438D02*
X132538D01*
X132068D02*
X132338D01*
X131858D02*
X131958D01*
X131658D02*
X131768D01*
X131408D02*
X131518D01*
X131128D02*
X131258D01*
X130958D02*
X131058D01*
X130768D02*
X130868D01*
X130528D02*
X130628D01*
X137828Y-67155D02*
X137918D01*
X137668D02*
X137768D01*
X137558D02*
X137658D01*
X137368D02*
X137478D01*
X137108D02*
X137218D01*
X136908D02*
X137018D01*
X136608D02*
X136708D01*
X136308D02*
X136408D01*
X136158D02*
X136258D01*
X135928D02*
X136028D01*
X135728D02*
X135838D01*
X135538D02*
X135638D01*
X135268D02*
X135378D01*
X135088D02*
X135188D01*
X134938D02*
X135038D01*
X134828D02*
X134928D01*
X134638D02*
X134728D01*
X134478D02*
X134588D01*
X134378D02*
X134468D01*
X134158D02*
X134258D01*
X133728D02*
X133828D01*
X133458D02*
X133568D01*
X133208D02*
X133308D01*
X132698D02*
X132798D01*
X132548D02*
X132648D01*
X132438D02*
X132528D01*
X132068D02*
X132168D01*
X131858D02*
X131958D01*
X131658D02*
X131758D01*
X131408D02*
X131518D01*
X131148D02*
X131268D01*
X130958D02*
X131058D01*
X130768D02*
X130868D01*
X130528D02*
X130628D01*
X137828Y-67145D02*
X137918D01*
X137668D02*
X137768D01*
X137558D02*
X137658D01*
X137368D02*
X137478D01*
X137108D02*
X137218D01*
X136908D02*
X137018D01*
X136608D02*
X136708D01*
X136308D02*
X136408D01*
X136158D02*
X136258D01*
X135928D02*
X136038D01*
X135718D02*
X135828D01*
X135538D02*
X135638D01*
X135278D02*
X135378D01*
X135088D02*
X135188D01*
X134938D02*
X135038D01*
X134828D02*
X134928D01*
X134638D02*
X134728D01*
X134478D02*
X134578D01*
X134378D02*
X134468D01*
X134158D02*
X134258D01*
X133728D02*
X133828D01*
X133468D02*
X133568D01*
X133208D02*
X133308D01*
X132698D02*
X132798D01*
X132548D02*
X132638D01*
X132438D02*
X132528D01*
X132068D02*
X132168D01*
X131858D02*
X131968D01*
X131648D02*
X131758D01*
X131408D02*
X131518D01*
X131158D02*
X131268D01*
X130958D02*
X131058D01*
X130758D02*
X130868D01*
X130528D02*
X130628D01*
X137828Y-67135D02*
X137918D01*
X137668D02*
X137758D01*
X137558D02*
X137658D01*
X137368D02*
X137478D01*
X137108D02*
X137218D01*
X136908D02*
X137018D01*
X136608D02*
X136708D01*
X136298D02*
X136408D01*
X136158D02*
X136258D01*
X135938D02*
X136038D01*
X135718D02*
X135828D01*
X135538D02*
X135638D01*
X135278D02*
X135378D01*
X135088D02*
X135188D01*
X134928D02*
X135028D01*
X134828D02*
X134918D01*
X134638D02*
X134728D01*
X134478D02*
X134578D01*
X134378D02*
X134468D01*
X134158D02*
X134258D01*
X133728D02*
X133828D01*
X133468D02*
X133568D01*
X133208D02*
X133308D01*
X132698D02*
X132798D01*
X132538D02*
X132638D01*
X132438D02*
X132528D01*
X132068D02*
X132168D01*
X131868D02*
X131968D01*
X131648D02*
X131758D01*
X131408D02*
X131518D01*
X131168D02*
X131268D01*
X130958D02*
X131058D01*
X130758D02*
X130868D01*
X130528D02*
X130628D01*
X137828Y-67125D02*
X137918D01*
X137558D02*
X137758D01*
X137368D02*
X137478D01*
X137118D02*
X137218D01*
X136908D02*
X137018D01*
X136608D02*
X136708D01*
X136298D02*
X136398D01*
X136168D02*
X136258D01*
X135938D02*
X136038D01*
X135718D02*
X135828D01*
X135528D02*
X135638D01*
X135278D02*
X135378D01*
X135088D02*
X135188D01*
X134928D02*
X135028D01*
X134828D02*
X134918D01*
X134638D02*
X134728D01*
X134478D02*
X134568D01*
X134378D02*
X134468D01*
X134158D02*
X134258D01*
X133718D02*
X133828D01*
X133468D02*
X133568D01*
X133208D02*
X133308D01*
X132698D02*
X132798D01*
X132538D02*
X132638D01*
X132438D02*
X132528D01*
X132068D02*
X132168D01*
X131868D02*
X131968D01*
X131638D02*
X131758D01*
X131408D02*
X131518D01*
X131168D02*
X131278D01*
X130958D02*
X131058D01*
X130758D02*
X130868D01*
X130528D02*
X130628D01*
X137828Y-67115D02*
X137918D01*
X137658D02*
X137758D01*
X137558D02*
X137648D01*
X137368D02*
X137468D01*
X137118D02*
X137218D01*
X136908D02*
X137018D01*
X136608D02*
X136708D01*
X136298D02*
X136398D01*
X136168D02*
X136268D01*
X135938D02*
X136048D01*
X135708D02*
X135818D01*
X135528D02*
X135638D01*
X135278D02*
X135388D01*
X135088D02*
X135188D01*
X134928D02*
X135018D01*
X134828D02*
X134918D01*
X134638D02*
X134728D01*
X134378D02*
X134568D01*
X134158D02*
X134258D01*
X133718D02*
X133828D01*
X133468D02*
X133578D01*
X133208D02*
X133308D01*
X132698D02*
X132798D01*
X132538D02*
X132628D01*
X132438D02*
X132528D01*
X132068D02*
X132168D01*
X131868D02*
X131978D01*
X131638D02*
X131748D01*
X131408D02*
X131518D01*
X131168D02*
X131278D01*
X130958D02*
X131058D01*
X130758D02*
X130868D01*
X130528D02*
X130628D01*
X137828Y-67105D02*
X137918D01*
X137658D02*
X137748D01*
X137558D02*
X137648D01*
X137358D02*
X137468D01*
X137118D02*
X137228D01*
X136908D02*
X137018D01*
X136608D02*
X136708D01*
X136298D02*
X136398D01*
X136168D02*
X136268D01*
X135948D02*
X136048D01*
X135708D02*
X135818D01*
X135528D02*
X135628D01*
X135278D02*
X135388D01*
X135088D02*
X135188D01*
X134828D02*
X135018D01*
X134638D02*
X134728D01*
X134468D02*
X134558D01*
X134378D02*
X134458D01*
X134158D02*
X134258D01*
X133718D02*
X133818D01*
X133478D02*
X133578D01*
X133208D02*
X133308D01*
X132698D02*
X132798D01*
X132438D02*
X132628D01*
X132068D02*
X132168D01*
X131868D02*
X131978D01*
X131638D02*
X131748D01*
X131408D02*
X131518D01*
X131168D02*
X131278D01*
X130958D02*
X131058D01*
X130748D02*
X130858D01*
X130528D02*
X130628D01*
X137828Y-67095D02*
X137918D01*
X137558D02*
X137748D01*
X137358D02*
X137468D01*
X137128D02*
X137228D01*
X136908D02*
X137018D01*
X136608D02*
X136708D01*
X136288D02*
X136388D01*
X136178D02*
X136268D01*
X135948D02*
X136048D01*
X135698D02*
X135818D01*
X135518D02*
X135628D01*
X135288D02*
X135388D01*
X135088D02*
X135188D01*
X134828D02*
X135008D01*
X134638D02*
X134728D01*
X134468D02*
X134558D01*
X134378D02*
X134458D01*
X134158D02*
X134258D01*
X133708D02*
X133818D01*
X133478D02*
X133578D01*
X133208D02*
X133308D01*
X132698D02*
X132798D01*
X132438D02*
X132618D01*
X132068D02*
X132168D01*
X131878D02*
X131978D01*
X131628D02*
X131748D01*
X131408D02*
X131518D01*
X131168D02*
X131278D01*
X130958D02*
X131058D01*
X130738D02*
X130858D01*
X130528D02*
X130628D01*
X137828Y-67085D02*
X137918D01*
X137558D02*
X137738D01*
X137348D02*
X137458D01*
X137128D02*
X137238D01*
X136908D02*
X137018D01*
X136608D02*
X136708D01*
X136288D02*
X136388D01*
X136178D02*
X136268D01*
X135948D02*
X136058D01*
X135698D02*
X135808D01*
X135518D02*
X135618D01*
X135288D02*
X135398D01*
X135088D02*
X135188D01*
X134828D02*
X135008D01*
X134638D02*
X134728D01*
X134378D02*
X134548D01*
X134158D02*
X134258D01*
X133708D02*
X133808D01*
X133478D02*
X133588D01*
X133208D02*
X133308D01*
X132698D02*
X132798D01*
X132438D02*
X132618D01*
X132068D02*
X132168D01*
X131878D02*
X131988D01*
X131628D02*
X131738D01*
X131408D02*
X131518D01*
X131158D02*
X131278D01*
X130958D02*
X131058D01*
X130728D02*
X130848D01*
X130528D02*
X130628D01*
X137828Y-67075D02*
X137918D01*
X137558D02*
X137738D01*
X137338D02*
X137458D01*
X137128D02*
X137248D01*
X136908D02*
X137018D01*
X136608D02*
X136708D01*
X136288D02*
X136388D01*
X136178D02*
X136278D01*
X135948D02*
X136058D01*
X135698D02*
X135808D01*
X135508D02*
X135618D01*
X135298D02*
X135408D01*
X135088D02*
X135188D01*
X134828D02*
X134998D01*
X134638D02*
X134728D01*
X134378D02*
X134548D01*
X134158D02*
X134258D01*
X133698D02*
X133808D01*
X133488D02*
X133598D01*
X133208D02*
X133308D01*
X132698D02*
X132798D01*
X132438D02*
X132608D01*
X132068D02*
X132168D01*
X131878D02*
X131988D01*
X131628D02*
X131738D01*
X131408D02*
X131518D01*
X131138D02*
X131268D01*
X130958D02*
X131058D01*
X130718D02*
X130848D01*
X130528D02*
X130628D01*
X137828Y-67065D02*
X137918D01*
X137558D02*
X137728D01*
X137328D02*
X137448D01*
X137138D02*
X137258D01*
X136908D02*
X137018D01*
X136488D02*
X136828D01*
X136288D02*
X136378D01*
X136188D02*
X136278D01*
X135958D02*
X136058D01*
X135688D02*
X135808D01*
X135488D02*
X135608D01*
X135298D02*
X135418D01*
X135088D02*
X135188D01*
X134828D02*
X134998D01*
X134638D02*
X134728D01*
X134378D02*
X134538D01*
X134158D02*
X134258D01*
X133678D02*
X133798D01*
X133488D02*
X133608D01*
X133088D02*
X133428D01*
X132698D02*
X132798D01*
X132438D02*
X132608D01*
X132068D02*
X132348D01*
X131888D02*
X131988D01*
X131618D02*
X131738D01*
X131408D02*
X131518D01*
X130958D02*
X131268D01*
X130528D02*
X130838D01*
X137828Y-67055D02*
X137918D01*
X137558D02*
X137728D01*
X137148D02*
X137438D01*
X136868D02*
X137058D01*
X136488D02*
X136828D01*
X136188D02*
X136378D01*
X135958D02*
X136068D01*
X135688D02*
X135808D01*
X135308D02*
X135608D01*
X135088D02*
X135188D01*
X134828D02*
X134998D01*
X134638D02*
X134728D01*
X134378D02*
X134538D01*
X134108D02*
X134298D01*
X133498D02*
X133798D01*
X133088D02*
X133428D01*
X132698D02*
X132798D01*
X132438D02*
X132598D01*
X132068D02*
X132348D01*
X131888D02*
X131998D01*
X131618D02*
X131728D01*
X131368D02*
X131558D01*
X130958D02*
X131268D01*
X130528D02*
X130838D01*
X137828Y-67045D02*
X137918D01*
X137558D02*
X137718D01*
X137158D02*
X137438D01*
X136868D02*
X137058D01*
X136488D02*
X136828D01*
X136188D02*
X136368D01*
X135958D02*
X136068D01*
X135688D02*
X135798D01*
X135318D02*
X135598D01*
X135088D02*
X135188D01*
X134828D02*
X134988D01*
X134638D02*
X134728D01*
X134378D02*
X134528D01*
X134108D02*
X134298D01*
X133508D02*
X133788D01*
X133088D02*
X133428D01*
X132698D02*
X132798D01*
X132438D02*
X132598D01*
X132068D02*
X132348D01*
X131888D02*
X131998D01*
X131618D02*
X131728D01*
X131368D02*
X131558D01*
X130958D02*
X131258D01*
X130528D02*
X130828D01*
X137828Y-67035D02*
X137918D01*
X137558D02*
X137718D01*
X137158D02*
X137428D01*
X136868D02*
X137058D01*
X136488D02*
X136828D01*
X136198D02*
X136368D01*
X135968D02*
X136068D01*
X135678D02*
X135798D01*
X135328D02*
X135588D01*
X135088D02*
X135188D01*
X134828D02*
X134988D01*
X134638D02*
X134728D01*
X134378D02*
X134528D01*
X134108D02*
X134298D01*
X133518D02*
X133778D01*
X133088D02*
X133428D01*
X132698D02*
X132798D01*
X132438D02*
X132588D01*
X132068D02*
X132348D01*
X131888D02*
X131998D01*
X131608D02*
X131728D01*
X131368D02*
X131558D01*
X130958D02*
X131248D01*
X130528D02*
X130818D01*
X137828Y-67025D02*
X137918D01*
X137558D02*
X137708D01*
X137178D02*
X137418D01*
X136868D02*
X137058D01*
X136488D02*
X136828D01*
X136198D02*
X136368D01*
X135968D02*
X136078D01*
X135678D02*
X135798D01*
X135338D02*
X135578D01*
X135088D02*
X135188D01*
X134828D02*
X134978D01*
X134638D02*
X134728D01*
X134378D02*
X134528D01*
X134108D02*
X134298D01*
X133528D02*
X133768D01*
X133088D02*
X133428D01*
X132698D02*
X132798D01*
X132438D02*
X132588D01*
X132068D02*
X132348D01*
X131898D02*
X132008D01*
X131608D02*
X131728D01*
X131368D02*
X131558D01*
X130958D02*
X131238D01*
X130528D02*
X130798D01*
X137828Y-67015D02*
X137918D01*
X137558D02*
X137708D01*
X137188D02*
X137398D01*
X136868D02*
X137058D01*
X136488D02*
X136828D01*
X136198D02*
X136358D01*
X135968D02*
X136078D01*
X135678D02*
X135788D01*
X135358D02*
X135558D01*
X135088D02*
X135188D01*
X134828D02*
X134978D01*
X134638D02*
X134728D01*
X134378D02*
X134518D01*
X134108D02*
X134298D01*
X133548D02*
X133748D01*
X133088D02*
X133428D01*
X132698D02*
X132798D01*
X132438D02*
X132578D01*
X132068D02*
X132348D01*
X131898D02*
X132008D01*
X131608D02*
X131718D01*
X131368D02*
X131558D01*
X130958D02*
X131218D01*
X130528D02*
X130778D01*
X137828Y-67005D02*
X137918D01*
X137568D02*
X137698D01*
X137218D02*
X137378D01*
X136868D02*
X137058D01*
X136488D02*
X136828D01*
X136208D02*
X136358D01*
X135978D02*
X136078D01*
X135678D02*
X135788D01*
X135378D02*
X135538D01*
X135098D02*
X135188D01*
X134838D02*
X134968D01*
X134638D02*
X134728D01*
X134378D02*
X134508D01*
X134108D02*
X134298D01*
X133568D02*
X133728D01*
X133088D02*
X133428D01*
X132698D02*
X132788D01*
X132438D02*
X132578D01*
X132068D02*
X132348D01*
X131908D02*
X132008D01*
X131608D02*
X131718D01*
X131368D02*
X131558D01*
X130958D02*
X131178D01*
X130538D02*
X130748D01*
X137258Y-66995D02*
X137328D01*
X135428D02*
X135488D01*
X133618D02*
X133678D01*
X130508Y-66815D02*
X137958D01*
X130508Y-66805D02*
X137958D01*
X130508Y-66795D02*
X137958D01*
X130508Y-66785D02*
X137958D01*
X130508Y-66775D02*
X137958D01*
X130508Y-66765D02*
X137958D01*
X130508Y-66755D02*
X137958D01*
X130508Y-66745D02*
X137958D01*
X136608Y-66535D02*
X137758D01*
X135098D02*
X136198D01*
X133908D02*
X134288D01*
X132158D02*
X133248D01*
X130538D02*
X130918D01*
X136578Y-66525D02*
X137788D01*
X135068D02*
X136208D01*
X133898D02*
X134298D01*
X132128D02*
X133268D01*
X130528D02*
X130928D01*
X136548Y-66515D02*
X137808D01*
X135048D02*
X136218D01*
X133888D02*
X134308D01*
X132098D02*
X133268D01*
X130518D02*
X130938D01*
X136538Y-66505D02*
X137828D01*
X135028D02*
X136218D01*
X133878D02*
X134318D01*
X132088D02*
X133278D01*
X130508D02*
X130938D01*
X136518Y-66495D02*
X137838D01*
X135008D02*
X136228D01*
X133878D02*
X134318D01*
X132068D02*
X133278D01*
X130508D02*
X130948D01*
X136508Y-66485D02*
X137858D01*
X134998D02*
X136228D01*
X133878D02*
X134318D01*
X132058D02*
X133278D01*
X130508D02*
X130948D01*
X136498Y-66475D02*
X137868D01*
X134988D02*
X136228D01*
X133878D02*
X134318D01*
X132048D02*
X133278D01*
X130508D02*
X130948D01*
X136488Y-66465D02*
X137878D01*
X134978D02*
X136228D01*
X133878D02*
X134318D01*
X132038D02*
X133278D01*
X130508D02*
X130948D01*
X136478Y-66455D02*
X137888D01*
X134968D02*
X136228D01*
X133878D02*
X134318D01*
X132028D02*
X133278D01*
X130508D02*
X130948D01*
X136468Y-66445D02*
X137898D01*
X134958D02*
X136228D01*
X133878D02*
X134318D01*
X132018D02*
X133278D01*
X130508D02*
X130948D01*
X136458Y-66435D02*
X137898D01*
X134948D02*
X136228D01*
X133878D02*
X134318D01*
X132008D02*
X133278D01*
X130508D02*
X130948D01*
X136448Y-66425D02*
X137908D01*
X134948D02*
X136228D01*
X133878D02*
X134318D01*
X131998D02*
X133278D01*
X130508D02*
X130948D01*
X136448Y-66415D02*
X137918D01*
X134938D02*
X136228D01*
X133878D02*
X134318D01*
X131998D02*
X133278D01*
X130508D02*
X130948D01*
X136438Y-66405D02*
X137918D01*
X134938D02*
X136228D01*
X133878D02*
X134318D01*
X131988D02*
X133278D01*
X130508D02*
X130948D01*
X136438Y-66395D02*
X137928D01*
X134928D02*
X136228D01*
X133878D02*
X134318D01*
X131988D02*
X133278D01*
X130508D02*
X130948D01*
X136428Y-66385D02*
X137928D01*
X134928D02*
X136228D01*
X133878D02*
X134318D01*
X131978D02*
X133278D01*
X130508D02*
X130948D01*
X136428Y-66375D02*
X137938D01*
X134918D02*
X136228D01*
X133878D02*
X134318D01*
X131978D02*
X133278D01*
X130508D02*
X130948D01*
X136428Y-66365D02*
X137938D01*
X134918D02*
X136218D01*
X133878D02*
X134318D01*
X131978D02*
X133278D01*
X130508D02*
X130948D01*
X136418Y-66355D02*
X137938D01*
X134918D02*
X136218D01*
X133878D02*
X134318D01*
X131968D02*
X133268D01*
X130508D02*
X130948D01*
X136418Y-66345D02*
X137948D01*
X134908D02*
X136208D01*
X133878D02*
X134318D01*
X131968D02*
X133268D01*
X130508D02*
X130948D01*
X136418Y-66335D02*
X137948D01*
X134908D02*
X136198D01*
X133878D02*
X134318D01*
X131968D02*
X133258D01*
X130508D02*
X130948D01*
X136418Y-66325D02*
X137948D01*
X134908D02*
X136178D01*
X133878D02*
X134318D01*
X131968D02*
X133228D01*
X130508D02*
X130948D01*
X137428Y-66315D02*
X137948D01*
X136408D02*
X136938D01*
X134908D02*
X135428D01*
X133878D02*
X134318D01*
X131958D02*
X132488D01*
X130508D02*
X130948D01*
X137448Y-66305D02*
X137948D01*
X136408D02*
X136918D01*
X134908D02*
X135408D01*
X133878D02*
X134318D01*
X131958D02*
X132468D01*
X130508D02*
X130948D01*
X137458Y-66295D02*
X137948D01*
X136408D02*
X136908D01*
X134908D02*
X135398D01*
X133878D02*
X134318D01*
X131958D02*
X132458D01*
X130508D02*
X130948D01*
X137468Y-66285D02*
X137948D01*
X136408D02*
X136888D01*
X134908D02*
X135388D01*
X133878D02*
X134318D01*
X131958D02*
X132438D01*
X130508D02*
X130948D01*
X137478Y-66275D02*
X137948D01*
X136408D02*
X136888D01*
X134908D02*
X135378D01*
X133878D02*
X134318D01*
X131958D02*
X132438D01*
X130508D02*
X130948D01*
X137488Y-66265D02*
X137948D01*
X136408D02*
X136878D01*
X134908D02*
X135368D01*
X133878D02*
X134318D01*
X131958D02*
X132428D01*
X130508D02*
X130948D01*
X137498Y-66255D02*
X137948D01*
X136408D02*
X136868D01*
X134908D02*
X135358D01*
X133878D02*
X134318D01*
X131958D02*
X132418D01*
X130508D02*
X130948D01*
X137498Y-66245D02*
X137948D01*
X136408D02*
X136868D01*
X134908D02*
X135358D01*
X133878D02*
X134318D01*
X131958D02*
X132418D01*
X130508D02*
X130948D01*
X137498Y-66235D02*
X137948D01*
X136408D02*
X136858D01*
X134908D02*
X135358D01*
X133878D02*
X134318D01*
X131958D02*
X132408D01*
X130508D02*
X130948D01*
X137508Y-66225D02*
X137948D01*
X136408D02*
X136858D01*
X134908D02*
X135348D01*
X133878D02*
X134318D01*
X131958D02*
X132408D01*
X130508D02*
X130948D01*
X137508Y-66215D02*
X137948D01*
X136408D02*
X136858D01*
X134908D02*
X135348D01*
X133878D02*
X134318D01*
X131958D02*
X132408D01*
X130508D02*
X130948D01*
X137508Y-66205D02*
X137948D01*
X136408D02*
X136848D01*
X134908D02*
X135348D01*
X133878D02*
X134318D01*
X131958D02*
X132398D01*
X130508D02*
X130948D01*
X137508Y-66195D02*
X137948D01*
X136408D02*
X136848D01*
X134908D02*
X135348D01*
X133878D02*
X134318D01*
X131958D02*
X132398D01*
X130508D02*
X130948D01*
X137508Y-66185D02*
X137948D01*
X136408D02*
X136848D01*
X134908D02*
X135348D01*
X133878D02*
X134318D01*
X131958D02*
X132398D01*
X130508D02*
X130948D01*
X137508Y-66175D02*
X137948D01*
X136408D02*
X136848D01*
X134908D02*
X135348D01*
X133878D02*
X134318D01*
X131958D02*
X132398D01*
X130508D02*
X130948D01*
X137508Y-66165D02*
X137948D01*
X136408D02*
X136848D01*
X134908D02*
X135348D01*
X133878D02*
X134318D01*
X131958D02*
X132398D01*
X130508D02*
X130948D01*
X137508Y-66155D02*
X137948D01*
X136408D02*
X136848D01*
X134908D02*
X135348D01*
X133878D02*
X134318D01*
X131958D02*
X132398D01*
X130508D02*
X130948D01*
X137508Y-66145D02*
X137948D01*
X136408D02*
X136848D01*
X134908D02*
X135348D01*
X133878D02*
X134318D01*
X131958D02*
X132398D01*
X130508D02*
X130948D01*
X137508Y-66135D02*
X137948D01*
X136408D02*
X136848D01*
X134908D02*
X135348D01*
X133878D02*
X134318D01*
X131958D02*
X132398D01*
X130508D02*
X130948D01*
X137508Y-66125D02*
X137948D01*
X136408D02*
X136848D01*
X134908D02*
X135348D01*
X133878D02*
X134318D01*
X131958D02*
X132398D01*
X130508D02*
X130948D01*
X137508Y-66115D02*
X137948D01*
X136408D02*
X136848D01*
X134908D02*
X135348D01*
X133878D02*
X134318D01*
X131958D02*
X132398D01*
X130508D02*
X130948D01*
X137508Y-66105D02*
X137948D01*
X136408D02*
X136848D01*
X134908D02*
X135348D01*
X133878D02*
X134318D01*
X131958D02*
X132398D01*
X130508D02*
X130948D01*
X137508Y-66095D02*
X137948D01*
X136408D02*
X136848D01*
X134908D02*
X135348D01*
X133878D02*
X134318D01*
X131958D02*
X132398D01*
X130508D02*
X130948D01*
X137508Y-66085D02*
X137948D01*
X136408D02*
X136848D01*
X134908D02*
X135348D01*
X133878D02*
X134318D01*
X131958D02*
X132398D01*
X130508D02*
X130948D01*
X137508Y-66075D02*
X137948D01*
X136408D02*
X136848D01*
X134908D02*
X135348D01*
X133878D02*
X134318D01*
X131958D02*
X132398D01*
X130508D02*
X130948D01*
X137508Y-66065D02*
X137948D01*
X136408D02*
X136848D01*
X134908D02*
X135348D01*
X133878D02*
X134318D01*
X131958D02*
X132398D01*
X130508D02*
X130948D01*
X137508Y-66055D02*
X137948D01*
X136408D02*
X136848D01*
X134908D02*
X135348D01*
X133878D02*
X134318D01*
X131958D02*
X132928D01*
X130508D02*
X131478D01*
X137508Y-66045D02*
X137948D01*
X136408D02*
X136848D01*
X134908D02*
X135348D01*
X133878D02*
X134318D01*
X131958D02*
X132948D01*
X130508D02*
X131498D01*
X137508Y-66035D02*
X137948D01*
X136408D02*
X136848D01*
X134908D02*
X135348D01*
X133878D02*
X134318D01*
X131958D02*
X132958D01*
X130508D02*
X131508D01*
X137508Y-66025D02*
X137948D01*
X136408D02*
X136848D01*
X134908D02*
X135348D01*
X133878D02*
X134318D01*
X131958D02*
X132968D01*
X130508D02*
X131508D01*
X137508Y-66015D02*
X137948D01*
X136408D02*
X136848D01*
X134908D02*
X135348D01*
X133878D02*
X134318D01*
X131958D02*
X132968D01*
X130508D02*
X131518D01*
X137508Y-66005D02*
X137948D01*
X136408D02*
X136848D01*
X134908D02*
X135348D01*
X133878D02*
X134318D01*
X131958D02*
X132968D01*
X130508D02*
X131518D01*
X137508Y-65995D02*
X137948D01*
X136408D02*
X136848D01*
X134908D02*
X135348D01*
X133878D02*
X134318D01*
X131958D02*
X132978D01*
X130508D02*
X131518D01*
X137508Y-65985D02*
X137948D01*
X136408D02*
X136848D01*
X134908D02*
X135348D01*
X133878D02*
X134318D01*
X131958D02*
X132978D01*
X130508D02*
X131518D01*
X137508Y-65975D02*
X137948D01*
X136408D02*
X136848D01*
X134908D02*
X135348D01*
X133878D02*
X134318D01*
X131958D02*
X132978D01*
X130508D02*
X131518D01*
X137508Y-65965D02*
X137948D01*
X136408D02*
X136848D01*
X134908D02*
X135348D01*
X133878D02*
X134318D01*
X131958D02*
X132978D01*
X130508D02*
X131518D01*
X137508Y-65955D02*
X137948D01*
X136408D02*
X136848D01*
X134908D02*
X135348D01*
X133878D02*
X134318D01*
X131958D02*
X132978D01*
X130508D02*
X131518D01*
X137508Y-65945D02*
X137948D01*
X136408D02*
X136848D01*
X134908D02*
X135348D01*
X133878D02*
X134318D01*
X131958D02*
X132978D01*
X130508D02*
X131518D01*
X137508Y-65935D02*
X137948D01*
X136408D02*
X136848D01*
X134908D02*
X135348D01*
X133878D02*
X134318D01*
X131958D02*
X132978D01*
X130508D02*
X131518D01*
X137508Y-65925D02*
X137948D01*
X136408D02*
X136848D01*
X134908D02*
X135348D01*
X133878D02*
X134318D01*
X131958D02*
X132978D01*
X130508D02*
X131518D01*
X137508Y-65915D02*
X137948D01*
X136408D02*
X136848D01*
X134908D02*
X135348D01*
X133878D02*
X134318D01*
X131958D02*
X132978D01*
X130508D02*
X131518D01*
X137508Y-65905D02*
X137948D01*
X136408D02*
X136848D01*
X134908D02*
X135348D01*
X133878D02*
X134318D01*
X131958D02*
X132978D01*
X130508D02*
X131518D01*
X137508Y-65895D02*
X137948D01*
X136408D02*
X136848D01*
X134908D02*
X135348D01*
X133878D02*
X134318D01*
X131958D02*
X132968D01*
X130508D02*
X131518D01*
X137508Y-65885D02*
X137948D01*
X136408D02*
X136848D01*
X134908D02*
X135348D01*
X133878D02*
X134318D01*
X131958D02*
X132968D01*
X130508D02*
X131518D01*
X137508Y-65875D02*
X137948D01*
X136408D02*
X136848D01*
X134908D02*
X135348D01*
X133878D02*
X134318D01*
X131958D02*
X132968D01*
X130508D02*
X131518D01*
X137508Y-65865D02*
X137948D01*
X136408D02*
X136848D01*
X134908D02*
X135348D01*
X133878D02*
X134318D01*
X131958D02*
X132958D01*
X130508D02*
X131508D01*
X137508Y-65855D02*
X137948D01*
X136408D02*
X136848D01*
X134908D02*
X135348D01*
X133878D02*
X134318D01*
X131958D02*
X132948D01*
X130508D02*
X131498D01*
X137508Y-65845D02*
X137948D01*
X136408D02*
X136848D01*
X134908D02*
X135348D01*
X133878D02*
X134318D01*
X131958D02*
X132938D01*
X130508D02*
X131488D01*
X137508Y-65835D02*
X137948D01*
X136408D02*
X136848D01*
X134908D02*
X135348D01*
X133878D02*
X134318D01*
X131958D02*
X132398D01*
X130508D02*
X130948D01*
X137508Y-65825D02*
X137948D01*
X136408D02*
X136848D01*
X134908D02*
X135348D01*
X133878D02*
X134318D01*
X131958D02*
X132398D01*
X130508D02*
X130948D01*
X137508Y-65815D02*
X137948D01*
X136408D02*
X136848D01*
X134908D02*
X135348D01*
X133878D02*
X134318D01*
X131958D02*
X132398D01*
X130508D02*
X130948D01*
X137508Y-65805D02*
X137948D01*
X136408D02*
X136848D01*
X134908D02*
X135348D01*
X133878D02*
X134318D01*
X131958D02*
X132398D01*
X130508D02*
X130948D01*
X137508Y-65795D02*
X137948D01*
X136408D02*
X136848D01*
X134908D02*
X135348D01*
X133878D02*
X134318D01*
X131958D02*
X132398D01*
X130508D02*
X130948D01*
X137508Y-65785D02*
X137948D01*
X136408D02*
X136848D01*
X134908D02*
X135348D01*
X133878D02*
X134318D01*
X131958D02*
X132398D01*
X130508D02*
X130948D01*
X137508Y-65775D02*
X137948D01*
X136408D02*
X136848D01*
X134908D02*
X135348D01*
X133878D02*
X134318D01*
X131958D02*
X132398D01*
X130508D02*
X130948D01*
X137508Y-65765D02*
X137948D01*
X136408D02*
X136848D01*
X134908D02*
X135348D01*
X133878D02*
X134318D01*
X131958D02*
X132398D01*
X130508D02*
X130948D01*
X137508Y-65755D02*
X137948D01*
X136408D02*
X136848D01*
X134908D02*
X135348D01*
X133878D02*
X134318D01*
X131958D02*
X132398D01*
X130508D02*
X130948D01*
X137508Y-65745D02*
X137948D01*
X136408D02*
X136848D01*
X134908D02*
X135348D01*
X133878D02*
X134318D01*
X131958D02*
X132398D01*
X130508D02*
X130948D01*
X137508Y-65735D02*
X137948D01*
X136408D02*
X136848D01*
X134908D02*
X135348D01*
X133878D02*
X134318D01*
X131958D02*
X132398D01*
X130508D02*
X130948D01*
X137508Y-65725D02*
X137948D01*
X136408D02*
X136848D01*
X134908D02*
X135348D01*
X133878D02*
X134318D01*
X131958D02*
X132398D01*
X130508D02*
X130948D01*
X137508Y-65715D02*
X137948D01*
X136408D02*
X136848D01*
X134908D02*
X135348D01*
X133878D02*
X134318D01*
X131958D02*
X132398D01*
X130508D02*
X130948D01*
X137508Y-65705D02*
X137948D01*
X136408D02*
X136848D01*
X134908D02*
X135348D01*
X133878D02*
X134318D01*
X131958D02*
X132398D01*
X130508D02*
X130948D01*
X137508Y-65695D02*
X137948D01*
X136408D02*
X136848D01*
X134908D02*
X135348D01*
X133878D02*
X134318D01*
X131958D02*
X132398D01*
X130508D02*
X130948D01*
X137508Y-65685D02*
X137948D01*
X136408D02*
X136858D01*
X134908D02*
X135348D01*
X133878D02*
X134318D01*
X131958D02*
X132408D01*
X130508D02*
X130948D01*
X137508Y-65675D02*
X137948D01*
X136408D02*
X136858D01*
X134908D02*
X135348D01*
X133878D02*
X134318D01*
X131958D02*
X132408D01*
X130508D02*
X130948D01*
X137498Y-65665D02*
X137948D01*
X136408D02*
X136858D01*
X134908D02*
X135348D01*
X133878D02*
X134318D01*
X131958D02*
X132408D01*
X130508D02*
X130958D01*
X137498Y-65655D02*
X137948D01*
X136408D02*
X136858D01*
X134908D02*
X135358D01*
X133878D02*
X134318D01*
X131958D02*
X132408D01*
X130508D02*
X130958D01*
X137498Y-65645D02*
X137948D01*
X136408D02*
X136868D01*
X134908D02*
X135358D01*
X133878D02*
X134318D01*
X131958D02*
X132418D01*
X130508D02*
X130968D01*
X137488Y-65635D02*
X137948D01*
X136408D02*
X136878D01*
X134908D02*
X135368D01*
X133878D02*
X134318D01*
X131958D02*
X132428D01*
X130508D02*
X130968D01*
X137478Y-65625D02*
X137948D01*
X136408D02*
X136878D01*
X134908D02*
X135378D01*
X133878D02*
X134318D01*
X131958D02*
X132428D01*
X130508D02*
X130978D01*
X137468Y-65615D02*
X137948D01*
X136408D02*
X136888D01*
X134908D02*
X135388D01*
X133878D02*
X134318D01*
X131958D02*
X132438D01*
X130508D02*
X130988D01*
X137458Y-65605D02*
X137948D01*
X136408D02*
X136898D01*
X134908D02*
X135398D01*
X133878D02*
X134318D01*
X131958D02*
X132448D01*
X130508D02*
X130998D01*
X137448Y-65595D02*
X137948D01*
X136408D02*
X136918D01*
X134908D02*
X135408D01*
X133878D02*
X134318D01*
X131958D02*
X132468D01*
X130508D02*
X131008D01*
X137428Y-65585D02*
X137948D01*
X136408D02*
X136938D01*
X134908D02*
X135428D01*
X133878D02*
X134318D01*
X131958D02*
X132488D01*
X130508D02*
X131028D01*
X137378Y-65575D02*
X137948D01*
X136418D02*
X136978D01*
X134908D02*
X135478D01*
X133878D02*
X134318D01*
X131968D02*
X132528D01*
X130508D02*
X131078D01*
X136418Y-65565D02*
X137948D01*
X134908D02*
X136198D01*
X133468D02*
X134728D01*
X131968D02*
X133248D01*
X130508D02*
X131798D01*
X136418Y-65555D02*
X137948D01*
X134908D02*
X136208D01*
X133458D02*
X134738D01*
X131968D02*
X133268D01*
X130518D02*
X131808D01*
X136418Y-65545D02*
X137938D01*
X134918D02*
X136218D01*
X133448D02*
X134748D01*
X131968D02*
X133268D01*
X130518D02*
X131818D01*
X136428Y-65535D02*
X137938D01*
X134918D02*
X136218D01*
X133438D02*
X134758D01*
X131978D02*
X133278D01*
X130518D02*
X131828D01*
X136428Y-65525D02*
X137938D01*
X134918D02*
X136228D01*
X133438D02*
X134758D01*
X131978D02*
X133278D01*
X130528D02*
X131828D01*
X136428Y-65515D02*
X137928D01*
X134928D02*
X136228D01*
X133438D02*
X134758D01*
X131978D02*
X133278D01*
X130528D02*
X131828D01*
X136438Y-65505D02*
X137928D01*
X134928D02*
X136228D01*
X133438D02*
X134758D01*
X131988D02*
X133278D01*
X130528D02*
X131828D01*
X136438Y-65495D02*
X137918D01*
X134938D02*
X136228D01*
X133438D02*
X134758D01*
X131988D02*
X133278D01*
X130538D02*
X131828D01*
X136448Y-65485D02*
X137918D01*
X134938D02*
X136228D01*
X133438D02*
X134758D01*
X131998D02*
X133278D01*
X130538D02*
X131828D01*
X136448Y-65475D02*
X137908D01*
X134948D02*
X136228D01*
X133438D02*
X134758D01*
X131998D02*
X133278D01*
X130548D02*
X131828D01*
X136458Y-65465D02*
X137908D01*
X134948D02*
X136228D01*
X133438D02*
X134758D01*
X132008D02*
X133278D01*
X130558D02*
X131828D01*
X136468Y-65455D02*
X137898D01*
X134958D02*
X136228D01*
X133438D02*
X134758D01*
X132018D02*
X133278D01*
X130558D02*
X131828D01*
X136478Y-65445D02*
X137888D01*
X134968D02*
X136228D01*
X133438D02*
X134758D01*
X132028D02*
X133278D01*
X130568D02*
X131828D01*
X136488Y-65435D02*
X137878D01*
X134978D02*
X136228D01*
X133438D02*
X134758D01*
X132028D02*
X133278D01*
X130578D02*
X131828D01*
X136498Y-65425D02*
X137868D01*
X134988D02*
X136228D01*
X133438D02*
X134758D01*
X132038D02*
X133278D01*
X130588D02*
X131828D01*
X136508Y-65415D02*
X137858D01*
X134998D02*
X136228D01*
X133438D02*
X134758D01*
X132058D02*
X133278D01*
X130598D02*
X131828D01*
X136518Y-65405D02*
X137848D01*
X135008D02*
X136228D01*
X133438D02*
X134758D01*
X132068D02*
X133278D01*
X130618D02*
X131828D01*
X136528Y-65395D02*
X137828D01*
X135028D02*
X136218D01*
X133438D02*
X134758D01*
X132078D02*
X133278D01*
X130628D02*
X131828D01*
X136548Y-65385D02*
X137808D01*
X135038D02*
X136218D01*
X133448D02*
X134748D01*
X132098D02*
X133268D01*
X130648D02*
X131818D01*
X136568Y-65375D02*
X137788D01*
X135068D02*
X136208D01*
X133458D02*
X134738D01*
X132118D02*
X133268D01*
X130668D02*
X131808D01*
X136598Y-65365D02*
X137758D01*
X135088D02*
X136198D01*
X133468D02*
X134728D01*
X132148D02*
X133258D01*
X130698D02*
X131798D01*
X136668Y-65355D02*
X137698D01*
X135158D02*
X136168D01*
X133498D02*
X134698D01*
X132208D02*
X133228D01*
X130758D02*
X131768D01*
D37*
X124708Y-79111D02*
X126727D01*
X125717D02*
Y-78041D01*
Y-80182D02*
Y-79111D01*
X121037Y-79149D02*
X123552D01*
D38*
X128412Y-71726D02*
X128393Y-71688D01*
X128355Y-71650D01*
X128317Y-71631D01*
X128241D01*
X128202Y-71650D01*
X128164Y-71688D01*
X128145Y-71726D01*
X128126Y-71783D01*
Y-71879D01*
X128145Y-71936D01*
X128164Y-71974D01*
X128202Y-72012D01*
X128241Y-72031D01*
X128317D01*
X128355Y-72012D01*
X128393Y-71974D01*
X128412Y-71936D01*
X128524Y-71631D02*
Y-72031D01*
Y-71631D02*
X128696D01*
X128753Y-71650D01*
X128772Y-71669D01*
X128791Y-71707D01*
Y-71745D01*
X128772Y-71783D01*
X128753Y-71803D01*
X128696Y-71822D01*
X128524D02*
X128696D01*
X128753Y-71841D01*
X128772Y-71860D01*
X128791Y-71898D01*
Y-71955D01*
X128772Y-71993D01*
X128753Y-72012D01*
X128696Y-72031D01*
X128524D01*
X129147Y-71688D02*
X129109Y-71650D01*
X129052Y-71631D01*
X128976D01*
X128919Y-71650D01*
X128880Y-71688D01*
Y-71726D01*
X128899Y-71764D01*
X128919Y-71783D01*
X128957Y-71803D01*
X129071Y-71841D01*
X129109Y-71860D01*
X129128Y-71879D01*
X129147Y-71917D01*
Y-71974D01*
X129109Y-72012D01*
X129052Y-72031D01*
X128976D01*
X128919Y-72012D01*
X128880Y-71974D01*
X129256Y-71726D02*
Y-71707D01*
X129275Y-71669D01*
X129294Y-71650D01*
X129332Y-71631D01*
X129408D01*
X129446Y-71650D01*
X129465Y-71669D01*
X129484Y-71707D01*
Y-71745D01*
X129465Y-71783D01*
X129427Y-71841D01*
X129237Y-72031D01*
X129503D01*
X129593Y-71707D02*
X129631Y-71688D01*
X129688Y-71631D01*
Y-72031D01*
X130000Y-71631D02*
X129943Y-71650D01*
X129905Y-71707D01*
X129886Y-71803D01*
Y-71860D01*
X129905Y-71955D01*
X129943Y-72012D01*
X130000Y-72031D01*
X130038D01*
X130095Y-72012D01*
X130133Y-71955D01*
X130153Y-71860D01*
Y-71803D01*
X130133Y-71707D01*
X130095Y-71650D01*
X130038Y-71631D01*
X130000D01*
X130356D02*
X130299Y-71650D01*
X130261Y-71707D01*
X130242Y-71803D01*
Y-71860D01*
X130261Y-71955D01*
X130299Y-72012D01*
X130356Y-72031D01*
X130394D01*
X130452Y-72012D01*
X130490Y-71955D01*
X130509Y-71860D01*
Y-71803D01*
X130490Y-71707D01*
X130452Y-71650D01*
X130394Y-71631D01*
X130356D01*
X130846D02*
X130598D01*
Y-72031D01*
X130846D01*
X130598Y-71822D02*
X130751D01*
X131160Y-71631D02*
X130912D01*
Y-72031D01*
X131160D01*
X130912Y-71822D02*
X131065D01*
X131246Y-71993D02*
X131227Y-72012D01*
X131246Y-72031D01*
X131265Y-72012D01*
X131246Y-71993D01*
X131352Y-71841D02*
X131524D01*
X131581Y-71822D01*
X131600Y-71803D01*
X131619Y-71764D01*
Y-71707D01*
X131600Y-71669D01*
X131581Y-71650D01*
X131524Y-71631D01*
X131352D01*
Y-72031D01*
X131937Y-71822D02*
X131899Y-71783D01*
X131861Y-71764D01*
X131804D01*
X131766Y-71783D01*
X131727Y-71822D01*
X131708Y-71879D01*
Y-71917D01*
X131727Y-71974D01*
X131766Y-72012D01*
X131804Y-72031D01*
X131861D01*
X131899Y-72012D01*
X131937Y-71974D01*
X132023Y-71631D02*
Y-72031D01*
Y-71822D02*
X132061Y-71783D01*
X132099Y-71764D01*
X132156D01*
X132194Y-71783D01*
X132232Y-71822D01*
X132251Y-71879D01*
Y-71917D01*
X132232Y-71974D01*
X132194Y-72012D01*
X132156Y-72031D01*
X132099D01*
X132061Y-72012D01*
X132023Y-71974D01*
X132337Y-71631D02*
Y-72031D01*
Y-71631D02*
X132470D01*
X132527Y-71650D01*
X132565Y-71688D01*
X132584Y-71726D01*
X132603Y-71783D01*
Y-71879D01*
X132584Y-71936D01*
X132565Y-71974D01*
X132527Y-72012D01*
X132470Y-72031D01*
X132337D01*
X132788Y-71764D02*
X132750Y-71783D01*
X132712Y-71822D01*
X132693Y-71879D01*
Y-71917D01*
X132712Y-71974D01*
X132750Y-72012D01*
X132788Y-72031D01*
X132845D01*
X132883Y-72012D01*
X132921Y-71974D01*
X132941Y-71917D01*
Y-71879D01*
X132921Y-71822D01*
X132883Y-71783D01*
X132845Y-71764D01*
X132788D01*
X133257Y-71822D02*
X133219Y-71783D01*
X133180Y-71764D01*
X133123D01*
X133085Y-71783D01*
X133047Y-71822D01*
X133028Y-71879D01*
Y-71917D01*
X133047Y-71974D01*
X133085Y-72012D01*
X133123Y-72031D01*
X133180D01*
X133219Y-72012D01*
X133257Y-71974D01*
X52613Y135619D02*
X52513Y135585D01*
X52480Y135519D01*
Y135452D01*
X52513Y135386D01*
X52580Y135352D01*
X52713Y135319D01*
X52813Y135286D01*
X52880Y135219D01*
X52913Y135152D01*
Y135052D01*
X52880Y134986D01*
X52846Y134952D01*
X52746Y134919D01*
X52613D01*
X52513Y134952D01*
X52480Y134986D01*
X52446Y135052D01*
Y135152D01*
X52480Y135219D01*
X52546Y135286D01*
X52646Y135319D01*
X52780Y135352D01*
X52846Y135386D01*
X52880Y135452D01*
Y135519D01*
X52846Y135585D01*
X52746Y135619D01*
X52613D01*
X26713D02*
X26380Y134919D01*
X26246Y135619D02*
X26713D01*
X346Y135519D02*
X313Y135585D01*
X213Y135619D01*
X146D01*
X46Y135585D01*
X-20Y135485D01*
X-54Y135319D01*
Y135152D01*
X-20Y135019D01*
X46Y134952D01*
X146Y134919D01*
X180D01*
X280Y134952D01*
X346Y135019D01*
X380Y135119D01*
Y135152D01*
X346Y135252D01*
X280Y135319D01*
X180Y135352D01*
X146D01*
X46Y135319D01*
X-20Y135252D01*
X-54Y135152D01*
X-25854Y135619D02*
X-26187D01*
X-26220Y135319D01*
X-26187Y135352D01*
X-26087Y135386D01*
X-25987D01*
X-25887Y135352D01*
X-25820Y135286D01*
X-25787Y135186D01*
Y135119D01*
X-25820Y135019D01*
X-25887Y134952D01*
X-25987Y134919D01*
X-26087D01*
X-26187Y134952D01*
X-26220Y134986D01*
X-26254Y135052D01*
X-52160Y135619D02*
X-52494Y135152D01*
X-51994D01*
X-52160Y135619D02*
Y134919D01*
X-78694Y135619D02*
X-78327D01*
X-78527Y135352D01*
X-78427D01*
X-78360Y135319D01*
X-78327Y135286D01*
X-78294Y135186D01*
Y135119D01*
X-78327Y135019D01*
X-78394Y134952D01*
X-78494Y134919D01*
X-78594D01*
X-78694Y134952D01*
X-78727Y134986D01*
X-78760Y135052D01*
X-104920Y135452D02*
Y135485D01*
X-104887Y135552D01*
X-104854Y135585D01*
X-104787Y135619D01*
X-104654D01*
X-104587Y135585D01*
X-104554Y135552D01*
X-104520Y135485D01*
Y135419D01*
X-104554Y135352D01*
X-104620Y135252D01*
X-104954Y134919D01*
X-104487D01*
X-131160Y135485D02*
X-131094Y135519D01*
X-130994Y135619D01*
Y134919D01*
X79080Y135386D02*
X79046Y135286D01*
X78980Y135219D01*
X78880Y135186D01*
X78846D01*
X78746Y135219D01*
X78680Y135286D01*
X78646Y135386D01*
Y135419D01*
X78680Y135519D01*
X78746Y135585D01*
X78846Y135619D01*
X78880D01*
X78980Y135585D01*
X79046Y135519D01*
X79080Y135386D01*
Y135219D01*
X79046Y135052D01*
X78980Y134952D01*
X78880Y134919D01*
X78813D01*
X78713Y134952D01*
X78680Y135019D01*
X104746Y135485D02*
X104813Y135519D01*
X104913Y135619D01*
Y134919D01*
X105459Y135619D02*
X105359Y135585D01*
X105293Y135485D01*
X105260Y135319D01*
Y135219D01*
X105293Y135052D01*
X105359Y134952D01*
X105459Y134919D01*
X105526D01*
X105626Y134952D01*
X105693Y135052D01*
X105726Y135219D01*
Y135319D01*
X105693Y135485D01*
X105626Y135585D01*
X105526Y135619D01*
X105459D01*
X131146Y135485D02*
X131213Y135519D01*
X131313Y135619D01*
Y134919D01*
X131660Y135485D02*
X131726Y135519D01*
X131826Y135619D01*
Y134919D01*
X157346Y135485D02*
X157413Y135519D01*
X157513Y135619D01*
Y134919D01*
X157893Y135452D02*
Y135485D01*
X157926Y135552D01*
X157959Y135585D01*
X158026Y135619D01*
X158159D01*
X158226Y135585D01*
X158259Y135552D01*
X158293Y135485D01*
Y135419D01*
X158259Y135352D01*
X158193Y135252D01*
X157860Y134919D01*
X158326D01*
X-142854Y-58461D02*
Y-59161D01*
Y-58461D02*
X-142620D01*
X-142520Y-58495D01*
X-142454Y-58561D01*
X-142420Y-58628D01*
X-142387Y-58728D01*
Y-58894D01*
X-142420Y-58994D01*
X-142454Y-59061D01*
X-142520Y-59128D01*
X-142620Y-59161D01*
X-142854D01*
X-142354Y-2928D02*
X-142387Y-2861D01*
X-142454Y-2795D01*
X-142520Y-2761D01*
X-142654D01*
X-142720Y-2795D01*
X-142787Y-2861D01*
X-142820Y-2928D01*
X-142854Y-3028D01*
Y-3194D01*
X-142820Y-3294D01*
X-142787Y-3361D01*
X-142720Y-3428D01*
X-142654Y-3461D01*
X-142520D01*
X-142454Y-3428D01*
X-142387Y-3361D01*
X-142354Y-3294D01*
X-142860Y52939D02*
Y52239D01*
Y52939D02*
X-142560D01*
X-142460Y52905D01*
X-142427Y52872D01*
X-142394Y52806D01*
Y52739D01*
X-142427Y52672D01*
X-142460Y52639D01*
X-142560Y52606D01*
X-142860D02*
X-142560D01*
X-142460Y52572D01*
X-142427Y52539D01*
X-142394Y52472D01*
Y52372D01*
X-142427Y52306D01*
X-142460Y52272D01*
X-142560Y52239D01*
X-142860D01*
X-142394Y107999D02*
X-142660Y108699D01*
X-142927Y107999D01*
X-142827Y108232D02*
X-142494D01*
X52613Y-84381D02*
X52513Y-84415D01*
X52480Y-84481D01*
Y-84548D01*
X52513Y-84614D01*
X52580Y-84648D01*
X52713Y-84681D01*
X52813Y-84714D01*
X52880Y-84781D01*
X52913Y-84848D01*
Y-84948D01*
X52880Y-85014D01*
X52846Y-85048D01*
X52746Y-85081D01*
X52613D01*
X52513Y-85048D01*
X52480Y-85014D01*
X52446Y-84948D01*
Y-84848D01*
X52480Y-84781D01*
X52546Y-84714D01*
X52646Y-84681D01*
X52780Y-84648D01*
X52846Y-84614D01*
X52880Y-84548D01*
Y-84481D01*
X52846Y-84415D01*
X52746Y-84381D01*
X52613D01*
X26713D02*
X26380Y-85081D01*
X26246Y-84381D02*
X26713D01*
X346Y-84481D02*
X313Y-84415D01*
X213Y-84381D01*
X146D01*
X46Y-84415D01*
X-20Y-84515D01*
X-54Y-84681D01*
Y-84848D01*
X-20Y-84981D01*
X46Y-85048D01*
X146Y-85081D01*
X180D01*
X280Y-85048D01*
X346Y-84981D01*
X380Y-84881D01*
Y-84848D01*
X346Y-84748D01*
X280Y-84681D01*
X180Y-84648D01*
X146D01*
X46Y-84681D01*
X-20Y-84748D01*
X-54Y-84848D01*
X-25854Y-84381D02*
X-26187D01*
X-26220Y-84681D01*
X-26187Y-84648D01*
X-26087Y-84614D01*
X-25987D01*
X-25887Y-84648D01*
X-25820Y-84714D01*
X-25787Y-84814D01*
Y-84881D01*
X-25820Y-84981D01*
X-25887Y-85048D01*
X-25987Y-85081D01*
X-26087D01*
X-26187Y-85048D01*
X-26220Y-85014D01*
X-26254Y-84948D01*
X-52160Y-84381D02*
X-52494Y-84848D01*
X-51994D01*
X-52160Y-84381D02*
Y-85081D01*
X-78694Y-84381D02*
X-78327D01*
X-78527Y-84648D01*
X-78427D01*
X-78360Y-84681D01*
X-78327Y-84714D01*
X-78294Y-84814D01*
Y-84881D01*
X-78327Y-84981D01*
X-78394Y-85048D01*
X-78494Y-85081D01*
X-78594D01*
X-78694Y-85048D01*
X-78727Y-85014D01*
X-78760Y-84948D01*
X-104920Y-84548D02*
Y-84515D01*
X-104887Y-84448D01*
X-104854Y-84415D01*
X-104787Y-84381D01*
X-104654D01*
X-104587Y-84415D01*
X-104554Y-84448D01*
X-104520Y-84515D01*
Y-84581D01*
X-104554Y-84648D01*
X-104620Y-84748D01*
X-104954Y-85081D01*
X-104487D01*
X-131160Y-84515D02*
X-131094Y-84481D01*
X-130994Y-84381D01*
Y-85081D01*
X79080Y-84614D02*
X79046Y-84714D01*
X78980Y-84781D01*
X78880Y-84814D01*
X78846D01*
X78746Y-84781D01*
X78680Y-84714D01*
X78646Y-84614D01*
Y-84581D01*
X78680Y-84481D01*
X78746Y-84415D01*
X78846Y-84381D01*
X78880D01*
X78980Y-84415D01*
X79046Y-84481D01*
X79080Y-84614D01*
Y-84781D01*
X79046Y-84948D01*
X78980Y-85048D01*
X78880Y-85081D01*
X78813D01*
X78713Y-85048D01*
X78680Y-84981D01*
X104746Y-84515D02*
X104813Y-84481D01*
X104913Y-84381D01*
Y-85081D01*
X105459Y-84381D02*
X105359Y-84415D01*
X105293Y-84515D01*
X105260Y-84681D01*
Y-84781D01*
X105293Y-84948D01*
X105359Y-85048D01*
X105459Y-85081D01*
X105526D01*
X105626Y-85048D01*
X105693Y-84948D01*
X105726Y-84781D01*
Y-84681D01*
X105693Y-84515D01*
X105626Y-84415D01*
X105526Y-84381D01*
X105459D01*
X131146Y-84515D02*
X131213Y-84481D01*
X131313Y-84381D01*
Y-85081D01*
X131660Y-84515D02*
X131726Y-84481D01*
X131826Y-84381D01*
Y-85081D01*
X157346Y-84515D02*
X157413Y-84481D01*
X157513Y-84381D01*
Y-85081D01*
X157893Y-84548D02*
Y-84515D01*
X157926Y-84448D01*
X157959Y-84415D01*
X158026Y-84381D01*
X158159D01*
X158226Y-84415D01*
X158259Y-84448D01*
X158293Y-84515D01*
Y-84581D01*
X158259Y-84648D01*
X158193Y-84748D01*
X157860Y-85081D01*
X158326D01*
X169146Y-58461D02*
Y-59161D01*
Y-58461D02*
X169380D01*
X169480Y-58495D01*
X169546Y-58561D01*
X169580Y-58628D01*
X169613Y-58728D01*
Y-58894D01*
X169580Y-58994D01*
X169546Y-59061D01*
X169480Y-59128D01*
X169380Y-59161D01*
X169146D01*
X169646Y-2928D02*
X169613Y-2861D01*
X169546Y-2795D01*
X169480Y-2761D01*
X169346D01*
X169280Y-2795D01*
X169213Y-2861D01*
X169180Y-2928D01*
X169146Y-3028D01*
Y-3194D01*
X169180Y-3294D01*
X169213Y-3361D01*
X169280Y-3428D01*
X169346Y-3461D01*
X169480D01*
X169546Y-3428D01*
X169613Y-3361D01*
X169646Y-3294D01*
X169140Y52939D02*
Y52239D01*
Y52939D02*
X169440D01*
X169540Y52905D01*
X169573Y52872D01*
X169606Y52806D01*
Y52739D01*
X169573Y52672D01*
X169540Y52639D01*
X169440Y52606D01*
X169140D02*
X169440D01*
X169540Y52572D01*
X169573Y52539D01*
X169606Y52472D01*
Y52372D01*
X169573Y52306D01*
X169540Y52272D01*
X169440Y52239D01*
X169140D01*
X169606Y107999D02*
X169340Y108699D01*
X169073Y107999D01*
X169173Y108232D02*
X169506D01*
M02*
