G04 Layer_Color=8388736*
%FSLAX24Y24*%
%MOIN*%
G70*
G01*
G75*
%ADD10C,0.0100*%
D10*
X-48963Y-21612D02*
G03*
X-48963Y-21612I-1535J0D01*
G01*
Y-5864D02*
G03*
X-48963Y-5864I-1535J0D01*
G01*
Y9885D02*
G03*
X-48963Y9885I-1535J0D01*
G01*
Y25633D02*
G03*
X-48963Y25633I-1535J0D01*
G01*
Y41381D02*
G03*
X-48963Y41381I-1535J0D01*
G01*
Y57129D02*
G03*
X-48963Y57129I-1535J0D01*
G01*
Y72877D02*
G03*
X-48963Y72877I-1535J0D01*
G01*
X77021Y-21612D02*
G03*
X77021Y-21612I-1535J0D01*
G01*
X77030Y-5834D02*
G03*
X77030Y-5834I-1535J0D01*
G01*
X77021Y9885D02*
G03*
X77021Y9885I-1535J0D01*
G01*
Y25633D02*
G03*
X77021Y25633I-1535J0D01*
G01*
Y41381D02*
G03*
X77021Y41381I-1535J0D01*
G01*
Y57129D02*
G03*
X77021Y57129I-1535J0D01*
G01*
Y72877D02*
G03*
X77021Y72877I-1535J0D01*
G01*
X-41089Y-43265D02*
G03*
X-41089Y-43265I-1535J0D01*
G01*
X-25341D02*
G03*
X-25341Y-43265I-1535J0D01*
G01*
X-9593D02*
G03*
X-9593Y-43265I-1535J0D01*
G01*
X6155D02*
G03*
X6155Y-43265I-1535J0D01*
G01*
X21903D02*
G03*
X21903Y-43265I-1535J0D01*
G01*
X37651D02*
G03*
X37651Y-43265I-1535J0D01*
G01*
X53399D02*
G03*
X53399Y-43265I-1535J0D01*
G01*
X69147D02*
G03*
X69147Y-43265I-1535J0D01*
G01*
X-41089Y94530D02*
G03*
X-41089Y94530I-1535J0D01*
G01*
X-25341D02*
G03*
X-25341Y94530I-1535J0D01*
G01*
X-9593D02*
G03*
X-9593Y94530I-1535J0D01*
G01*
X6155D02*
G03*
X6155Y94530I-1535J0D01*
G01*
X21903D02*
G03*
X21903Y94530I-1535J0D01*
G01*
X37651D02*
G03*
X37651Y94530I-1535J0D01*
G01*
X53399D02*
G03*
X53399Y94530I-1535J0D01*
G01*
X69147D02*
G03*
X69147Y94530I-1535J0D01*
G01*
X79422Y-47202D02*
Y98467D01*
X-54436Y-47202D02*
X79422D01*
X-54436Y98467D02*
X79422D01*
X-54436Y-47202D02*
Y98467D01*
X-4952Y-6455D02*
X40728D01*
X-4952Y-8305D02*
Y-6455D01*
Y-8305D02*
X40728D01*
Y-6455D01*
Y-5505D02*
Y-3655D01*
X-4952Y-5505D02*
X40728D01*
X-4952D02*
Y-3655D01*
X40728D01*
X4528Y-7021D02*
Y-7878D01*
X4570Y-7021D02*
Y-7878D01*
X4528Y-7021D02*
X4742D01*
X4528Y-7878D02*
X4742D01*
X4857Y-7107D02*
X4943Y-7064D01*
X5072Y-6935D01*
Y-7835D01*
X5774Y-6935D02*
X5646Y-6978D01*
X5560Y-7107D01*
X5517Y-7321D01*
Y-7449D01*
X5560Y-7664D01*
X5646Y-7792D01*
X5774Y-7835D01*
X5860D01*
X5989Y-7792D01*
X6074Y-7664D01*
X6117Y-7449D01*
Y-7321D01*
X6074Y-7107D01*
X5989Y-6978D01*
X5860Y-6935D01*
X5774D01*
X6833D02*
X6404D01*
X6361Y-7321D01*
X6404Y-7278D01*
X6533Y-7235D01*
X6661D01*
X6790Y-7278D01*
X6876Y-7364D01*
X6918Y-7492D01*
Y-7578D01*
X6876Y-7706D01*
X6790Y-7792D01*
X6661Y-7835D01*
X6533D01*
X6404Y-7792D01*
X6361Y-7749D01*
X6319Y-7664D01*
X7120Y-7107D02*
X7206Y-7064D01*
X7334Y-6935D01*
Y-7835D01*
X7823Y-7749D02*
X7780Y-7792D01*
X7823Y-7835D01*
X7865Y-7792D01*
X7823Y-7749D01*
X8320Y-6935D02*
X8191Y-6978D01*
X8105Y-7107D01*
X8063Y-7321D01*
Y-7449D01*
X8105Y-7664D01*
X8191Y-7792D01*
X8320Y-7835D01*
X8405D01*
X8534Y-7792D01*
X8620Y-7664D01*
X8662Y-7449D01*
Y-7321D01*
X8620Y-7107D01*
X8534Y-6978D01*
X8405Y-6935D01*
X8320D01*
X9121D02*
X8992Y-6978D01*
X8907Y-7107D01*
X8864Y-7321D01*
Y-7449D01*
X8907Y-7664D01*
X8992Y-7792D01*
X9121Y-7835D01*
X9207D01*
X9335Y-7792D01*
X9421Y-7664D01*
X9464Y-7449D01*
Y-7321D01*
X9421Y-7107D01*
X9335Y-6978D01*
X9207Y-6935D01*
X9121D01*
X9922D02*
X9794Y-6978D01*
X9708Y-7107D01*
X9665Y-7321D01*
Y-7449D01*
X9708Y-7664D01*
X9794Y-7792D01*
X9922Y-7835D01*
X10008D01*
X10136Y-7792D01*
X10222Y-7664D01*
X10265Y-7449D01*
Y-7321D01*
X10222Y-7107D01*
X10136Y-6978D01*
X10008Y-6935D01*
X9922D01*
X10895D02*
X10466Y-7535D01*
X11109D01*
X10895Y-6935D02*
Y-7835D01*
X11268Y-7107D02*
X11353Y-7064D01*
X11482Y-6935D01*
Y-7835D01*
X11970Y-7749D02*
X11927Y-7792D01*
X11970Y-7835D01*
X12013Y-7792D01*
X11970Y-7749D01*
X12467Y-6935D02*
X12339Y-6978D01*
X12253Y-7107D01*
X12210Y-7321D01*
Y-7449D01*
X12253Y-7664D01*
X12339Y-7792D01*
X12467Y-7835D01*
X12553D01*
X12682Y-7792D01*
X12767Y-7664D01*
X12810Y-7449D01*
Y-7321D01*
X12767Y-7107D01*
X12682Y-6978D01*
X12553Y-6935D01*
X12467D01*
X13269D02*
X13140Y-6978D01*
X13054Y-7107D01*
X13011Y-7321D01*
Y-7449D01*
X13054Y-7664D01*
X13140Y-7792D01*
X13269Y-7835D01*
X13354D01*
X13483Y-7792D01*
X13568Y-7664D01*
X13611Y-7449D01*
Y-7321D01*
X13568Y-7107D01*
X13483Y-6978D01*
X13354Y-6935D01*
X13269D01*
X13813Y-8135D02*
X14498D01*
X14700Y-6935D02*
X15171D01*
X14914Y-7278D01*
X15042D01*
X15128Y-7321D01*
X15171Y-7364D01*
X15214Y-7492D01*
Y-7578D01*
X15171Y-7706D01*
X15085Y-7792D01*
X14957Y-7835D01*
X14828D01*
X14700Y-7792D01*
X14657Y-7749D01*
X14614Y-7664D01*
X15415Y-7449D02*
X16186D01*
X17138Y-7835D02*
X16795Y-6935D01*
X16452Y-7835D01*
X16581Y-7535D02*
X17009D01*
X17391Y-7749D02*
X17348Y-7792D01*
X17391Y-7835D01*
X17433Y-7792D01*
X17391Y-7749D01*
X17716Y-6935D02*
X18187D01*
X17930Y-7278D01*
X18059D01*
X18145Y-7321D01*
X18187Y-7364D01*
X18230Y-7492D01*
Y-7578D01*
X18187Y-7706D01*
X18102Y-7792D01*
X17973Y-7835D01*
X17845D01*
X17716Y-7792D01*
X17673Y-7749D01*
X17630Y-7664D01*
X18603Y-7021D02*
Y-7878D01*
X18646Y-7021D02*
Y-7878D01*
X18432Y-7021D02*
X18646D01*
X18432Y-7878D02*
X18646D01*
X20159Y-7149D02*
X20116Y-7064D01*
X20030Y-6978D01*
X19944Y-6935D01*
X19773D01*
X19687Y-6978D01*
X19601Y-7064D01*
X19559Y-7149D01*
X19516Y-7278D01*
Y-7492D01*
X19559Y-7621D01*
X19601Y-7706D01*
X19687Y-7792D01*
X19773Y-7835D01*
X19944D01*
X20030Y-7792D01*
X20116Y-7706D01*
X20159Y-7621D01*
X20411Y-6935D02*
Y-7835D01*
Y-6935D02*
X20797D01*
X20925Y-6978D01*
X20968Y-7021D01*
X21011Y-7107D01*
Y-7192D01*
X20968Y-7278D01*
X20925Y-7321D01*
X20797Y-7364D01*
X20411D02*
X20797D01*
X20925Y-7407D01*
X20968Y-7449D01*
X21011Y-7535D01*
Y-7664D01*
X20968Y-7749D01*
X20925Y-7792D01*
X20797Y-7835D01*
X20411D01*
X21812Y-7064D02*
X21727Y-6978D01*
X21598Y-6935D01*
X21427D01*
X21298Y-6978D01*
X21213Y-7064D01*
Y-7149D01*
X21255Y-7235D01*
X21298Y-7278D01*
X21384Y-7321D01*
X21641Y-7407D01*
X21727Y-7449D01*
X21770Y-7492D01*
X21812Y-7578D01*
Y-7706D01*
X21727Y-7792D01*
X21598Y-7835D01*
X21427D01*
X21298Y-7792D01*
X21213Y-7706D01*
X22057Y-7149D02*
Y-7107D01*
X22100Y-7021D01*
X22142Y-6978D01*
X22228Y-6935D01*
X22399D01*
X22485Y-6978D01*
X22528Y-7021D01*
X22571Y-7107D01*
Y-7192D01*
X22528Y-7278D01*
X22442Y-7407D01*
X22014Y-7835D01*
X22614D01*
X22815Y-7107D02*
X22901Y-7064D01*
X23029Y-6935D01*
Y-7835D01*
X23732Y-6935D02*
X23603Y-6978D01*
X23518Y-7107D01*
X23475Y-7321D01*
Y-7449D01*
X23518Y-7664D01*
X23603Y-7792D01*
X23732Y-7835D01*
X23818D01*
X23946Y-7792D01*
X24032Y-7664D01*
X24075Y-7449D01*
Y-7321D01*
X24032Y-7107D01*
X23946Y-6978D01*
X23818Y-6935D01*
X23732D01*
X24533D02*
X24405Y-6978D01*
X24319Y-7107D01*
X24276Y-7321D01*
Y-7449D01*
X24319Y-7664D01*
X24405Y-7792D01*
X24533Y-7835D01*
X24619D01*
X24748Y-7792D01*
X24833Y-7664D01*
X24876Y-7449D01*
Y-7321D01*
X24833Y-7107D01*
X24748Y-6978D01*
X24619Y-6935D01*
X24533D01*
X25634D02*
X25077D01*
Y-7835D01*
X25634D01*
X25077Y-7364D02*
X25420D01*
X26341Y-6935D02*
X25784D01*
Y-7835D01*
X26341D01*
X25784Y-7364D02*
X26127D01*
X26534Y-7749D02*
X26491Y-7792D01*
X26534Y-7835D01*
X26577Y-7792D01*
X26534Y-7749D01*
X27417Y-7149D02*
X27374Y-7064D01*
X27288Y-6978D01*
X27203Y-6935D01*
X27031D01*
X26946Y-6978D01*
X26860Y-7064D01*
X26817Y-7149D01*
X26774Y-7278D01*
Y-7492D01*
X26817Y-7621D01*
X26860Y-7706D01*
X26946Y-7792D01*
X27031Y-7835D01*
X27203D01*
X27288Y-7792D01*
X27374Y-7706D01*
X27417Y-7621D01*
Y-7492D01*
X27203D02*
X27417D01*
X27623Y-6935D02*
Y-7835D01*
Y-6935D02*
X27965Y-7835D01*
X28308Y-6935D02*
X27965Y-7835D01*
X28308Y-6935D02*
Y-7835D01*
X28565Y-7107D02*
X28651Y-7064D01*
X28780Y-6935D01*
Y-7835D01*
X29439Y-6935D02*
X29311Y-6978D01*
X29268Y-7064D01*
Y-7149D01*
X29311Y-7235D01*
X29397Y-7278D01*
X29568Y-7321D01*
X29696Y-7364D01*
X29782Y-7449D01*
X29825Y-7535D01*
Y-7664D01*
X29782Y-7749D01*
X29739Y-7792D01*
X29611Y-7835D01*
X29439D01*
X29311Y-7792D01*
X29268Y-7749D01*
X29225Y-7664D01*
Y-7535D01*
X29268Y-7449D01*
X29354Y-7364D01*
X29482Y-7321D01*
X29654Y-7278D01*
X29739Y-7235D01*
X29782Y-7149D01*
Y-7064D01*
X29739Y-6978D01*
X29611Y-6935D01*
X29439D01*
X-4462Y-7407D02*
X-4077D01*
X-3948Y-7364D01*
X-3905Y-7321D01*
X-3863Y-7235D01*
Y-7107D01*
X-3905Y-7021D01*
X-3948Y-6978D01*
X-4077Y-6935D01*
X-4462D01*
Y-7835D01*
X-3661Y-6935D02*
Y-7835D01*
X-3147D01*
X-2791Y-6935D02*
X-2877Y-6978D01*
X-2963Y-7064D01*
X-3006Y-7149D01*
X-3048Y-7278D01*
Y-7492D01*
X-3006Y-7621D01*
X-2963Y-7706D01*
X-2877Y-7792D01*
X-2791Y-7835D01*
X-2620D01*
X-2534Y-7792D01*
X-2449Y-7706D01*
X-2406Y-7621D01*
X-2363Y-7492D01*
Y-7278D01*
X-2406Y-7149D01*
X-2449Y-7064D01*
X-2534Y-6978D01*
X-2620Y-6935D01*
X-2791D01*
X-1853D02*
Y-7835D01*
X-2153Y-6935D02*
X-1553D01*
X-739D02*
Y-7835D01*
Y-6935D02*
X-182D01*
X-739Y-7364D02*
X-396D01*
X-79Y-6935D02*
Y-7835D01*
X109Y-6935D02*
Y-7835D01*
X624D01*
X1279Y-6935D02*
X722D01*
Y-7835D01*
X1279D01*
X722Y-7364D02*
X1065D01*
X1472Y-7235D02*
X1429Y-7278D01*
X1472Y-7321D01*
X1515Y-7278D01*
X1472Y-7235D01*
Y-7749D02*
X1429Y-7792D01*
X1472Y-7835D01*
X1515Y-7792D01*
X1472Y-7749D01*
X-4462Y-4135D02*
Y-5035D01*
X-3948D01*
X-3164D02*
X-3507Y-4135D01*
X-3850Y-5035D01*
X-3721Y-4735D02*
X-3293D01*
X-2954Y-4135D02*
X-2611Y-4564D01*
Y-5035D01*
X-2269Y-4135D02*
X-2611Y-4564D01*
X-1596Y-4135D02*
X-2153D01*
Y-5035D01*
X-1596D01*
X-2153Y-4564D02*
X-1810D01*
X-1446Y-4135D02*
Y-5035D01*
Y-4135D02*
X-1060D01*
X-932Y-4178D01*
X-889Y-4221D01*
X-846Y-4307D01*
Y-4392D01*
X-889Y-4478D01*
X-932Y-4521D01*
X-1060Y-4564D01*
X-1446D01*
X-1146D02*
X-846Y-5035D01*
X62Y-4135D02*
Y-5035D01*
Y-4135D02*
X662Y-5035D01*
Y-4135D02*
Y-5035D01*
X1596D02*
X1253Y-4135D01*
X911Y-5035D01*
X1039Y-4735D02*
X1468D01*
X1806Y-4135D02*
Y-5035D01*
Y-4135D02*
X2149Y-5035D01*
X2492Y-4135D02*
X2149Y-5035D01*
X2492Y-4135D02*
Y-5035D01*
X3306Y-4135D02*
X2749D01*
Y-5035D01*
X3306D01*
X2749Y-4564D02*
X3092D01*
X3499Y-4435D02*
X3456Y-4478D01*
X3499Y-4521D01*
X3542Y-4478D01*
X3499Y-4435D01*
Y-4949D02*
X3456Y-4992D01*
X3499Y-5035D01*
X3542Y-4992D01*
X3499Y-4949D01*
X5127Y-4264D02*
X5042Y-4178D01*
X4913Y-4135D01*
X4742D01*
X4613Y-4178D01*
X4528Y-4264D01*
Y-4349D01*
X4570Y-4435D01*
X4613Y-4478D01*
X4699Y-4521D01*
X4956Y-4607D01*
X5042Y-4649D01*
X5085Y-4692D01*
X5127Y-4778D01*
Y-4906D01*
X5042Y-4992D01*
X4913Y-5035D01*
X4742D01*
X4613Y-4992D01*
X4528Y-4906D01*
X5457Y-4135D02*
Y-4864D01*
X5500Y-4992D01*
X5586Y-5035D01*
X5672D01*
X5329Y-4435D02*
X5629D01*
X5800Y-4692D02*
X6314D01*
Y-4607D01*
X6271Y-4521D01*
X6229Y-4478D01*
X6143Y-4435D01*
X6014D01*
X5929Y-4478D01*
X5843Y-4564D01*
X5800Y-4692D01*
Y-4778D01*
X5843Y-4906D01*
X5929Y-4992D01*
X6014Y-5035D01*
X6143D01*
X6229Y-4992D01*
X6314Y-4906D01*
X6507Y-4435D02*
Y-5035D01*
Y-4607D02*
X6636Y-4478D01*
X6721Y-4435D01*
X6850D01*
X6936Y-4478D01*
X6978Y-4607D01*
Y-5035D01*
X7728Y-4564D02*
X7643Y-4478D01*
X7557Y-4435D01*
X7428D01*
X7343Y-4478D01*
X7257Y-4564D01*
X7214Y-4692D01*
Y-4778D01*
X7257Y-4906D01*
X7343Y-4992D01*
X7428Y-5035D01*
X7557D01*
X7643Y-4992D01*
X7728Y-4906D01*
X8007Y-4135D02*
X8050Y-4178D01*
X8093Y-4135D01*
X8050Y-4092D01*
X8007Y-4135D01*
X8050Y-4435D02*
Y-5035D01*
X8251Y-4135D02*
Y-5035D01*
X9147Y-4135D02*
Y-5035D01*
Y-4135D02*
X9704D01*
X9147Y-4564D02*
X9489D01*
X9806Y-4435D02*
Y-5035D01*
Y-4692D02*
X9849Y-4564D01*
X9935Y-4478D01*
X10021Y-4435D01*
X10149D01*
X10745D02*
Y-5035D01*
Y-4564D02*
X10659Y-4478D01*
X10573Y-4435D01*
X10445D01*
X10359Y-4478D01*
X10273Y-4564D01*
X10231Y-4692D01*
Y-4778D01*
X10273Y-4906D01*
X10359Y-4992D01*
X10445Y-5035D01*
X10573D01*
X10659Y-4992D01*
X10745Y-4906D01*
X10985Y-4435D02*
Y-5035D01*
Y-4607D02*
X11113Y-4478D01*
X11199Y-4435D01*
X11328D01*
X11413Y-4478D01*
X11456Y-4607D01*
Y-5035D01*
Y-4607D02*
X11585Y-4478D01*
X11670Y-4435D01*
X11799D01*
X11885Y-4478D01*
X11927Y-4607D01*
Y-5035D01*
X12210Y-4692D02*
X12724D01*
Y-4607D01*
X12682Y-4521D01*
X12639Y-4478D01*
X12553Y-4435D01*
X12424D01*
X12339Y-4478D01*
X12253Y-4564D01*
X12210Y-4692D01*
Y-4778D01*
X12253Y-4906D01*
X12339Y-4992D01*
X12424Y-5035D01*
X12553D01*
X12639Y-4992D01*
X12724Y-4906D01*
M02*
