G04 Layer_Color=32768*
%FSLAX24Y24*%
%MOIN*%
G70*
G01*
G75*
%ADD10C,0.0100*%
%ADD31C,0.0060*%
%ADD32C,0.0197*%
D10*
X79422Y98617D02*
Y129273D01*
X-54436Y98617D02*
Y129273D01*
X17019Y129173D02*
X79422D01*
X-54436D02*
X7647D01*
X78822Y129373D02*
X79422Y129173D01*
X78822Y128973D02*
X79422Y129173D01*
X-54436D02*
X-53836Y128973D01*
X-54436Y129173D02*
X-53836Y129373D01*
X67611Y96216D02*
Y126233D01*
X-54436Y98617D02*
Y126233D01*
X11016Y126133D02*
X67611D01*
X-54436D02*
X1840D01*
X67011Y126333D02*
X67611Y126133D01*
X67011Y125933D02*
X67611Y126133D01*
X-54436D02*
X-53836Y125933D01*
X-54436Y126133D02*
X-53836Y126333D01*
X51863Y96216D02*
Y123123D01*
X-54436Y98617D02*
Y123123D01*
X3240Y123023D02*
X51863D01*
X-54436D02*
X-6132D01*
X51263Y123223D02*
X51863Y123023D01*
X51263Y122823D02*
X51863Y123023D01*
X-54436D02*
X-53836Y122823D01*
X-54436Y123023D02*
X-53836Y123223D01*
X36115Y96216D02*
Y120143D01*
X-54436Y98617D02*
Y120143D01*
X-4634Y120043D02*
X36115D01*
X-54436D02*
X-14006D01*
X35515Y120243D02*
X36115Y120043D01*
X35515Y119843D02*
X36115Y120043D01*
X-54436D02*
X-53836Y119843D01*
X-54436Y120043D02*
X-53836Y120243D01*
X20367Y96216D02*
Y117353D01*
X-54436Y98617D02*
Y117353D01*
X-12606Y117253D02*
X20367D01*
X-54436D02*
X-21782D01*
X19767Y117453D02*
X20367Y117253D01*
X19767Y117053D02*
X20367Y117253D01*
X-54436D02*
X-53836Y117053D01*
X-54436Y117253D02*
X-53836Y117453D01*
X4619Y96216D02*
Y114683D01*
X-54436Y98617D02*
Y114683D01*
X-20480Y114583D02*
X4619D01*
X-54436D02*
X-29656D01*
X4019Y114783D02*
X4619Y114583D01*
X4019Y114383D02*
X4619Y114583D01*
X-54436D02*
X-53836Y114383D01*
X-54436Y114583D02*
X-53836Y114783D01*
X-11129Y96216D02*
Y112083D01*
X-54436Y98617D02*
Y112083D01*
X-28453Y111983D02*
X-11129D01*
X-54436D02*
X-37432D01*
X-11729Y112183D02*
X-11129Y111983D01*
X-11729Y111783D02*
X-11129Y111983D01*
X-54436D02*
X-53836Y111783D01*
X-54436Y111983D02*
X-53836Y112183D01*
X-26877Y96216D02*
Y109473D01*
X-54436Y98617D02*
Y109473D01*
X-36720Y109373D02*
X-26877D01*
X-54436D02*
X-44912D01*
X-27477Y109573D02*
X-26877Y109373D01*
X-27477Y109173D02*
X-26877Y109373D01*
X-54436D02*
X-53836Y109173D01*
X-54436Y109373D02*
X-53836Y109573D01*
X-42625Y96216D02*
Y106933D01*
X-54436Y98617D02*
Y106933D01*
X-44595Y106833D02*
X-42625D01*
X-54436D02*
X-52786D01*
X-43225Y107033D02*
X-42625Y106833D01*
X-43225Y106633D02*
X-42625Y106833D01*
X-54436D02*
X-53836Y106633D01*
X-54436Y106833D02*
X-53836Y107033D01*
X-50499Y74562D02*
Y101653D01*
X-54436Y98617D02*
Y101653D01*
X-55436Y101553D02*
X-54436D01*
X-50499D02*
X-49499D01*
X-55036Y101753D02*
X-54436Y101553D01*
X-55036Y101353D02*
X-54436Y101553D01*
X-50499D02*
X-49899Y101353D01*
X-50499Y101553D02*
X-49899Y101753D01*
X-82208Y98467D02*
X-54586D01*
X-82208Y-47202D02*
X-54586D01*
X-82108Y30159D02*
Y98467D01*
Y-47202D02*
Y20786D01*
X-82308Y97867D02*
X-82108Y98467D01*
X-81908Y97867D01*
X-82108Y-47202D02*
X-81908Y-46602D01*
X-82308D02*
X-82108Y-47202D01*
X-79458Y72877D02*
X-52184D01*
X-79458Y-47202D02*
X-54586D01*
X-79358Y17363D02*
Y72877D01*
Y-47202D02*
Y7991D01*
X-79558Y72277D02*
X-79358Y72877D01*
X-79158Y72277D01*
X-79358Y-47202D02*
X-79158Y-46602D01*
X-79558D02*
X-79358Y-47202D01*
X-76798Y57129D02*
X-52184D01*
X-76798Y-47202D02*
X-54586D01*
X-76698Y9489D02*
Y57129D01*
Y-47202D02*
Y117D01*
X-76898Y56529D02*
X-76698Y57129D01*
X-76498Y56529D01*
X-76698Y-47202D02*
X-76498Y-46602D01*
X-76898D02*
X-76698Y-47202D01*
X-74018Y41381D02*
X-52184D01*
X-74018Y-47202D02*
X-54586D01*
X-73918Y1615D02*
Y41381D01*
Y-47202D02*
Y-7757D01*
X-74118Y40781D02*
X-73918Y41381D01*
X-73718Y40781D01*
X-73918Y-47202D02*
X-73718Y-46602D01*
X-74118D02*
X-73918Y-47202D01*
X-71478Y25633D02*
X-52184D01*
X-71478Y-47202D02*
X-54586D01*
X-71378Y-6357D02*
Y25633D01*
Y-47202D02*
Y-15532D01*
X-71578Y25033D02*
X-71378Y25633D01*
X-71178Y25033D01*
X-71378Y-47202D02*
X-71178Y-46602D01*
X-71578D02*
X-71378Y-47202D01*
X-69058Y9885D02*
X-52184D01*
X-69058Y-47202D02*
X-54586D01*
X-68958Y-14231D02*
Y9885D01*
Y-47202D02*
Y-23406D01*
X-69158Y9285D02*
X-68958Y9885D01*
X-68758Y9285D01*
X-68958Y-47202D02*
X-68758Y-46602D01*
X-69158D02*
X-68958Y-47202D01*
X-66438Y-5864D02*
X-52184D01*
X-66438Y-47202D02*
X-54586D01*
X-66338Y-22105D02*
Y-5864D01*
Y-47202D02*
Y-31280D01*
X-66538Y-6464D02*
X-66338Y-5864D01*
X-66138Y-6464D01*
X-66338Y-47202D02*
X-66138Y-46602D01*
X-66538D02*
X-66338Y-47202D01*
X-63658Y-21612D02*
X-52184D01*
X-63658Y-47202D02*
X-54586D01*
X-63558Y-30471D02*
Y-21612D01*
Y-47202D02*
Y-38663D01*
X-63758Y-22212D02*
X-63558Y-21612D01*
X-63358Y-22212D01*
X-63558Y-47202D02*
X-63358Y-46602D01*
X-63758D02*
X-63558Y-47202D01*
X-59348Y-43265D02*
X-44310D01*
X-59348Y-47202D02*
X-54586D01*
X-59248Y-48202D02*
Y-47202D01*
Y-43265D02*
Y-42265D01*
X-59448Y-47802D02*
X-59248Y-47202D01*
X-59048Y-47802D01*
X-59248Y-43265D02*
X-59048Y-42665D01*
X-59448D02*
X-59248Y-43265D01*
X80407Y-51987D02*
Y-48336D01*
X-55420Y-51987D02*
Y-48336D01*
X17019Y-51887D02*
X80407D01*
X-55420D02*
X7647D01*
X79807Y-51687D02*
X80407Y-51887D01*
X79807Y-52087D02*
X80407Y-51887D01*
X-55420D02*
X-54820Y-52087D01*
X-55420Y-51887D02*
X-54820Y-51687D01*
X80557Y-48186D02*
X85522D01*
X80557Y99451D02*
X85522D01*
X85422Y-48186D02*
Y20786D01*
Y30159D02*
Y99451D01*
Y-48186D02*
X85622Y-47586D01*
X85222D02*
X85422Y-48186D01*
X85222Y98851D02*
X85422Y99451D01*
X85622Y98851D01*
X-52292Y71084D02*
X-51584Y71791D01*
X-52150Y71508D02*
X-51584Y71791D01*
X-51867Y71225D02*
X-51584Y71791D01*
X-38629Y84746D02*
X-22266D01*
X-49413Y73962D02*
X-38629Y84746D01*
X-49413Y73962D02*
X-48847Y74245D01*
X-49413Y73962D02*
X-49130Y74528D01*
X-45478Y70321D02*
X-16158Y71213D01*
X-45578Y70318D02*
X-16158Y71213D01*
X-45578Y70318D02*
X-16158Y71213D01*
X-45578Y70318D02*
X-16158Y71213D01*
X-45578Y70318D02*
X-16158Y71213D01*
X-45478Y70321D02*
X-44872Y70139D01*
X-45478Y70321D02*
X-44884Y70539D01*
X70564Y87640D02*
Y89609D01*
Y83703D02*
Y86066D01*
Y79766D02*
Y82129D01*
Y75829D02*
Y78192D01*
Y71892D02*
Y74255D01*
Y67955D02*
Y70318D01*
Y64018D02*
Y66381D01*
Y60081D02*
Y62444D01*
Y56144D02*
Y58507D01*
Y52207D02*
Y54570D01*
Y48270D02*
Y50633D01*
Y44333D02*
Y46696D01*
Y40396D02*
Y42759D01*
Y36459D02*
Y38822D01*
Y32522D02*
Y34885D01*
Y28585D02*
Y30948D01*
Y24648D02*
Y27011D01*
Y20711D02*
Y23073D01*
Y16774D02*
Y19137D01*
Y12837D02*
Y15200D01*
Y8900D02*
Y11262D01*
Y4963D02*
Y7325D01*
Y1026D02*
Y3388D01*
Y-2911D02*
Y-549D01*
Y-6848D02*
Y-4486D01*
Y-10785D02*
Y-8423D01*
Y-14722D02*
Y-12360D01*
Y-18659D02*
Y-16297D01*
Y-22596D02*
Y-20234D01*
Y-26533D02*
Y-24171D01*
Y-30470D02*
Y-28108D01*
Y-34407D02*
Y-32045D01*
Y-38344D02*
Y-35982D01*
X68596Y89609D02*
X70564D01*
X64659D02*
X67021D01*
X60722D02*
X63084D01*
X56785D02*
X59147D01*
X52848D02*
X55210D01*
X48911D02*
X51273D01*
X44974D02*
X47336D01*
X41037D02*
X43399D01*
X37100D02*
X39462D01*
X33163D02*
X35525D01*
X29226D02*
X31588D01*
X25289D02*
X27651D01*
X21352D02*
X23714D01*
X17415D02*
X19777D01*
X13478D02*
X15840D01*
X9541D02*
X11903D01*
X5604D02*
X7966D01*
X1667D02*
X4029D01*
X-2270D02*
X92D01*
X-6207D02*
X-3845D01*
X-10144D02*
X-7782D01*
X-14081D02*
X-11719D01*
X-18018D02*
X-15656D01*
X-21955D02*
X-19593D01*
X-25892D02*
X-23530D01*
X-29829D02*
X-27467D01*
X-33766D02*
X-31404D01*
X-37703D02*
X-35341D01*
X-41641D02*
X-39278D01*
X-45578D02*
X-43215D01*
X-45578Y87640D02*
Y89609D01*
Y83703D02*
Y86066D01*
Y79766D02*
Y82129D01*
Y75829D02*
Y78192D01*
Y71892D02*
Y74255D01*
Y67955D02*
Y70318D01*
Y64018D02*
Y66381D01*
Y60081D02*
Y62444D01*
Y56144D02*
Y58507D01*
Y52207D02*
Y54570D01*
Y48270D02*
Y50633D01*
Y44333D02*
Y46696D01*
Y40396D02*
Y42759D01*
Y36459D02*
Y38822D01*
Y32522D02*
Y34885D01*
Y28585D02*
Y30948D01*
Y24648D02*
Y27011D01*
Y20711D02*
Y23073D01*
Y16774D02*
Y19137D01*
Y12837D02*
Y15200D01*
Y8900D02*
Y11262D01*
Y4963D02*
Y7325D01*
Y1026D02*
Y3388D01*
Y-2911D02*
Y-549D01*
Y-6848D02*
Y-4486D01*
Y-10785D02*
Y-8423D01*
Y-14722D02*
Y-12360D01*
Y-18659D02*
Y-16297D01*
Y-22596D02*
Y-20234D01*
Y-26533D02*
Y-24171D01*
Y-30470D02*
Y-28108D01*
Y-34407D02*
Y-32045D01*
Y-38344D02*
Y-35982D01*
X68596Y-38344D02*
X70564D01*
X64659D02*
X67021D01*
X60722D02*
X63084D01*
X56785D02*
X59147D01*
X52848D02*
X55210D01*
X48911D02*
X51273D01*
X44974D02*
X47336D01*
X41037D02*
X43399D01*
X37100D02*
X39462D01*
X33163D02*
X35525D01*
X29226D02*
X31588D01*
X25289D02*
X27651D01*
X21352D02*
X23714D01*
X17415D02*
X19777D01*
X13478D02*
X15840D01*
X9541D02*
X11903D01*
X5604D02*
X7966D01*
X1667D02*
X4029D01*
X-2270D02*
X92D01*
X-6207D02*
X-3845D01*
X-10144D02*
X-7782D01*
X-14081D02*
X-11719D01*
X-18018D02*
X-15656D01*
X-21955D02*
X-19593D01*
X-25892D02*
X-23530D01*
X-29829D02*
X-27467D01*
X-33766D02*
X-31404D01*
X-37703D02*
X-35341D01*
X-41641D02*
X-39278D01*
X-45578D02*
X-43215D01*
X80407Y97483D02*
Y99451D01*
Y93546D02*
Y95908D01*
Y89609D02*
Y91971D01*
Y85672D02*
Y88034D01*
Y81735D02*
Y84097D01*
Y77798D02*
Y80160D01*
Y73861D02*
Y76223D01*
Y69924D02*
Y72286D01*
Y65987D02*
Y68349D01*
Y62050D02*
Y64412D01*
Y58113D02*
Y60475D01*
Y54176D02*
Y56538D01*
Y50239D02*
Y52601D01*
Y46302D02*
Y48664D01*
Y42365D02*
Y44727D01*
Y38428D02*
Y40790D01*
Y34491D02*
Y36853D01*
Y30554D02*
Y32916D01*
Y26617D02*
Y28979D01*
Y22680D02*
Y25042D01*
Y18743D02*
Y21105D01*
Y14806D02*
Y17168D01*
Y10869D02*
Y13231D01*
Y6932D02*
Y9294D01*
Y2995D02*
Y5357D01*
Y-942D02*
Y1420D01*
Y-4879D02*
Y-2517D01*
Y-8816D02*
Y-6454D01*
Y-12753D02*
Y-10391D01*
Y-16690D02*
Y-14328D01*
Y-20627D02*
Y-18265D01*
Y-24564D02*
Y-22202D01*
Y-28501D02*
Y-26139D01*
Y-32438D02*
Y-30076D01*
Y-36375D02*
Y-34013D01*
Y-40312D02*
Y-37950D01*
Y-44249D02*
Y-41887D01*
Y-48186D02*
Y-45824D01*
X78438Y99451D02*
X80407D01*
X74501D02*
X76863D01*
X70564D02*
X72926D01*
X66627D02*
X68989D01*
X62690D02*
X65052D01*
X58753D02*
X61115D01*
X54816D02*
X57178D01*
X50879D02*
X53241D01*
X46942D02*
X49304D01*
X43005D02*
X45367D01*
X39068D02*
X41430D01*
X35131D02*
X37493D01*
X31194D02*
X33556D01*
X27257D02*
X29619D01*
X23320D02*
X25682D01*
X19383D02*
X21745D01*
X15446D02*
X17808D01*
X11509D02*
X13871D01*
X7572D02*
X9934D01*
X3635D02*
X5997D01*
X-302D02*
X2060D01*
X-4239D02*
X-1877D01*
X-8176D02*
X-5814D01*
X-12113D02*
X-9751D01*
X-16050D02*
X-13688D01*
X-19987D02*
X-17625D01*
X-23924D02*
X-21562D01*
X-27861D02*
X-25499D01*
X-31798D02*
X-29436D01*
X-35735D02*
X-33373D01*
X-39672D02*
X-37310D01*
X-43609D02*
X-41247D01*
X-47546D02*
X-45184D01*
X-51483D02*
X-49121D01*
X-55420D02*
X-53058D01*
X-55420Y97483D02*
Y99451D01*
Y93546D02*
Y95908D01*
Y89609D02*
Y91971D01*
Y85672D02*
Y88034D01*
Y81735D02*
Y84097D01*
Y77798D02*
Y80160D01*
Y73861D02*
Y76223D01*
Y69924D02*
Y72286D01*
Y65987D02*
Y68349D01*
Y62050D02*
Y64412D01*
Y58113D02*
Y60475D01*
Y54176D02*
Y56538D01*
Y50239D02*
Y52601D01*
Y46302D02*
Y48664D01*
Y42365D02*
Y44727D01*
Y38428D02*
Y40790D01*
Y34491D02*
Y36853D01*
Y30554D02*
Y32916D01*
Y26617D02*
Y28979D01*
Y22680D02*
Y25042D01*
Y18743D02*
Y21105D01*
Y14806D02*
Y17168D01*
Y10869D02*
Y13231D01*
Y6932D02*
Y9294D01*
Y2995D02*
Y5357D01*
Y-942D02*
Y1420D01*
Y-4879D02*
Y-2517D01*
Y-8816D02*
Y-6454D01*
Y-12753D02*
Y-10391D01*
Y-16690D02*
Y-14328D01*
Y-20627D02*
Y-18265D01*
Y-24564D02*
Y-22202D01*
Y-28501D02*
Y-26139D01*
Y-32438D02*
Y-30076D01*
Y-36375D02*
Y-34013D01*
Y-40312D02*
Y-37950D01*
Y-44249D02*
Y-41887D01*
Y-48186D02*
Y-45824D01*
X78438Y-48186D02*
X80407D01*
X74501D02*
X76863D01*
X70564D02*
X72926D01*
X66627D02*
X68989D01*
X62690D02*
X65052D01*
X58753D02*
X61115D01*
X54816D02*
X57178D01*
X50879D02*
X53241D01*
X46942D02*
X49304D01*
X43005D02*
X45367D01*
X39068D02*
X41430D01*
X35131D02*
X37493D01*
X31194D02*
X33556D01*
X27257D02*
X29619D01*
X23320D02*
X25682D01*
X19383D02*
X21745D01*
X15446D02*
X17808D01*
X11509D02*
X13871D01*
X7572D02*
X9934D01*
X3635D02*
X5997D01*
X-302D02*
X2060D01*
X-4239D02*
X-1877D01*
X-8176D02*
X-5814D01*
X-12113D02*
X-9751D01*
X-16050D02*
X-13688D01*
X-19987D02*
X-17625D01*
X-23924D02*
X-21562D01*
X-27861D02*
X-25499D01*
X-31798D02*
X-29436D01*
X-35735D02*
X-33373D01*
X-39672D02*
X-37310D01*
X-43609D02*
X-41247D01*
X-47546D02*
X-45184D01*
X-51483D02*
X-49121D01*
X-55420D02*
X-53058D01*
X12493Y25633D02*
X20367D01*
X12493D02*
Y33507D01*
X4619Y25633D02*
X12493D01*
Y17759D02*
Y25633D01*
X40052Y61070D02*
X47926D01*
Y53196D02*
Y61070D01*
Y-9796D02*
Y-1922D01*
X40052Y-9796D02*
X47926D01*
X-22940D02*
X-15066D01*
X-22940D02*
Y-1922D01*
Y61070D02*
X-15066D01*
X-22940Y53196D02*
Y61070D01*
X-8278Y78300D02*
Y80268D01*
X-7622Y79612D01*
X-6966Y80268D01*
Y78300D01*
X-4998Y80268D02*
X-5654Y79940D01*
X-6310Y79284D01*
Y78628D01*
X-5982Y78300D01*
X-5326D01*
X-4998Y78628D01*
Y78956D01*
X-5326Y79284D01*
X-6310D01*
X-2374Y79612D02*
X-1062Y78300D01*
X-1718Y78956D01*
X-1062Y79612D01*
X-2374Y78300D01*
X1562Y79940D02*
X1890Y80268D01*
X2546D01*
X2874Y79940D01*
Y79612D01*
X2546Y79284D01*
X2218D01*
X2546D01*
X2874Y78956D01*
Y78628D01*
X2546Y78300D01*
X1890D01*
X1562Y78628D01*
X3530Y79940D02*
X3858Y80268D01*
X4514D01*
X4842Y79940D01*
Y78628D01*
X4514Y78300D01*
X3858D01*
X3530Y78628D01*
Y79940D01*
X7465Y79284D02*
X8777D01*
X11401Y78300D02*
X12057D01*
X11729D01*
Y79612D01*
X11401D01*
X13041Y78300D02*
Y79612D01*
X14025D01*
X14353Y79284D01*
Y78300D01*
X17305Y79940D02*
Y79612D01*
X16977D01*
X17633D01*
X17305D01*
Y78628D01*
X17633Y78300D01*
X18617Y80268D02*
Y78300D01*
Y79284D01*
X18945Y79612D01*
X19601D01*
X19929Y79284D01*
Y78300D01*
X21568D02*
X20912D01*
X20584Y78628D01*
Y79284D01*
X20912Y79612D01*
X21568D01*
X21896Y79284D01*
Y78956D01*
X20584D01*
X24848Y78300D02*
Y79940D01*
Y79284D01*
X24520D01*
X25176D01*
X24848D01*
Y79940D01*
X25176Y80268D01*
X26160Y79612D02*
Y78300D01*
Y78956D01*
X26488Y79284D01*
X26816Y79612D01*
X27144D01*
X28456D02*
X29112D01*
X29440Y79284D01*
Y78300D01*
X28456D01*
X28128Y78628D01*
X28456Y78956D01*
X29440D01*
X30096Y78300D02*
Y79612D01*
X30424D01*
X30752Y79284D01*
Y78300D01*
Y79284D01*
X31080Y79612D01*
X31408Y79284D01*
Y78300D01*
X33048D02*
X32392D01*
X32064Y78628D01*
Y79284D01*
X32392Y79612D01*
X33048D01*
X33376Y79284D01*
Y78956D01*
X32064D01*
X-4952Y-6455D02*
X40728D01*
X-4952Y-8305D02*
Y-6455D01*
Y-8305D02*
X40728D01*
Y-6455D01*
Y-5505D02*
Y-3655D01*
X-4952Y-5505D02*
X40728D01*
X-4952D02*
Y-3655D01*
X40728D01*
X4528Y-7021D02*
Y-7878D01*
X4570Y-7021D02*
Y-7878D01*
X4528Y-7021D02*
X4742D01*
X4528Y-7878D02*
X4742D01*
X4857Y-7107D02*
X4943Y-7064D01*
X5072Y-6935D01*
Y-7835D01*
X5774Y-6935D02*
X5646Y-6978D01*
X5560Y-7107D01*
X5517Y-7321D01*
Y-7449D01*
X5560Y-7664D01*
X5646Y-7792D01*
X5774Y-7835D01*
X5860D01*
X5989Y-7792D01*
X6074Y-7664D01*
X6117Y-7449D01*
Y-7321D01*
X6074Y-7107D01*
X5989Y-6978D01*
X5860Y-6935D01*
X5774D01*
X6833D02*
X6404D01*
X6361Y-7321D01*
X6404Y-7278D01*
X6533Y-7235D01*
X6661D01*
X6790Y-7278D01*
X6876Y-7364D01*
X6918Y-7492D01*
Y-7578D01*
X6876Y-7706D01*
X6790Y-7792D01*
X6661Y-7835D01*
X6533D01*
X6404Y-7792D01*
X6361Y-7749D01*
X6319Y-7664D01*
X7120Y-7107D02*
X7206Y-7064D01*
X7334Y-6935D01*
Y-7835D01*
X7823Y-7749D02*
X7780Y-7792D01*
X7823Y-7835D01*
X7865Y-7792D01*
X7823Y-7749D01*
X8320Y-6935D02*
X8191Y-6978D01*
X8105Y-7107D01*
X8063Y-7321D01*
Y-7449D01*
X8105Y-7664D01*
X8191Y-7792D01*
X8320Y-7835D01*
X8405D01*
X8534Y-7792D01*
X8620Y-7664D01*
X8662Y-7449D01*
Y-7321D01*
X8620Y-7107D01*
X8534Y-6978D01*
X8405Y-6935D01*
X8320D01*
X9121D02*
X8992Y-6978D01*
X8907Y-7107D01*
X8864Y-7321D01*
Y-7449D01*
X8907Y-7664D01*
X8992Y-7792D01*
X9121Y-7835D01*
X9207D01*
X9335Y-7792D01*
X9421Y-7664D01*
X9464Y-7449D01*
Y-7321D01*
X9421Y-7107D01*
X9335Y-6978D01*
X9207Y-6935D01*
X9121D01*
X9922D02*
X9794Y-6978D01*
X9708Y-7107D01*
X9665Y-7321D01*
Y-7449D01*
X9708Y-7664D01*
X9794Y-7792D01*
X9922Y-7835D01*
X10008D01*
X10136Y-7792D01*
X10222Y-7664D01*
X10265Y-7449D01*
Y-7321D01*
X10222Y-7107D01*
X10136Y-6978D01*
X10008Y-6935D01*
X9922D01*
X10895D02*
X10466Y-7535D01*
X11109D01*
X10895Y-6935D02*
Y-7835D01*
X11268Y-7107D02*
X11353Y-7064D01*
X11482Y-6935D01*
Y-7835D01*
X11970Y-7749D02*
X11927Y-7792D01*
X11970Y-7835D01*
X12013Y-7792D01*
X11970Y-7749D01*
X12467Y-6935D02*
X12339Y-6978D01*
X12253Y-7107D01*
X12210Y-7321D01*
Y-7449D01*
X12253Y-7664D01*
X12339Y-7792D01*
X12467Y-7835D01*
X12553D01*
X12682Y-7792D01*
X12767Y-7664D01*
X12810Y-7449D01*
Y-7321D01*
X12767Y-7107D01*
X12682Y-6978D01*
X12553Y-6935D01*
X12467D01*
X13269D02*
X13140Y-6978D01*
X13054Y-7107D01*
X13011Y-7321D01*
Y-7449D01*
X13054Y-7664D01*
X13140Y-7792D01*
X13269Y-7835D01*
X13354D01*
X13483Y-7792D01*
X13568Y-7664D01*
X13611Y-7449D01*
Y-7321D01*
X13568Y-7107D01*
X13483Y-6978D01*
X13354Y-6935D01*
X13269D01*
X13813Y-8135D02*
X14498D01*
X14700Y-6935D02*
X15171D01*
X14914Y-7278D01*
X15042D01*
X15128Y-7321D01*
X15171Y-7364D01*
X15214Y-7492D01*
Y-7578D01*
X15171Y-7706D01*
X15085Y-7792D01*
X14957Y-7835D01*
X14828D01*
X14700Y-7792D01*
X14657Y-7749D01*
X14614Y-7664D01*
X15415Y-7449D02*
X16186D01*
X17138Y-7835D02*
X16795Y-6935D01*
X16452Y-7835D01*
X16581Y-7535D02*
X17009D01*
X17391Y-7749D02*
X17348Y-7792D01*
X17391Y-7835D01*
X17433Y-7792D01*
X17391Y-7749D01*
X17716Y-6935D02*
X18187D01*
X17930Y-7278D01*
X18059D01*
X18145Y-7321D01*
X18187Y-7364D01*
X18230Y-7492D01*
Y-7578D01*
X18187Y-7706D01*
X18102Y-7792D01*
X17973Y-7835D01*
X17845D01*
X17716Y-7792D01*
X17673Y-7749D01*
X17630Y-7664D01*
X18603Y-7021D02*
Y-7878D01*
X18646Y-7021D02*
Y-7878D01*
X18432Y-7021D02*
X18646D01*
X18432Y-7878D02*
X18646D01*
X20159Y-7149D02*
X20116Y-7064D01*
X20030Y-6978D01*
X19944Y-6935D01*
X19773D01*
X19687Y-6978D01*
X19601Y-7064D01*
X19559Y-7149D01*
X19516Y-7278D01*
Y-7492D01*
X19559Y-7621D01*
X19601Y-7706D01*
X19687Y-7792D01*
X19773Y-7835D01*
X19944D01*
X20030Y-7792D01*
X20116Y-7706D01*
X20159Y-7621D01*
X20411Y-6935D02*
Y-7835D01*
Y-6935D02*
X20797D01*
X20925Y-6978D01*
X20968Y-7021D01*
X21011Y-7107D01*
Y-7192D01*
X20968Y-7278D01*
X20925Y-7321D01*
X20797Y-7364D01*
X20411D02*
X20797D01*
X20925Y-7407D01*
X20968Y-7449D01*
X21011Y-7535D01*
Y-7664D01*
X20968Y-7749D01*
X20925Y-7792D01*
X20797Y-7835D01*
X20411D01*
X21812Y-7064D02*
X21727Y-6978D01*
X21598Y-6935D01*
X21427D01*
X21298Y-6978D01*
X21213Y-7064D01*
Y-7149D01*
X21255Y-7235D01*
X21298Y-7278D01*
X21384Y-7321D01*
X21641Y-7407D01*
X21727Y-7449D01*
X21770Y-7492D01*
X21812Y-7578D01*
Y-7706D01*
X21727Y-7792D01*
X21598Y-7835D01*
X21427D01*
X21298Y-7792D01*
X21213Y-7706D01*
X22057Y-7149D02*
Y-7107D01*
X22100Y-7021D01*
X22142Y-6978D01*
X22228Y-6935D01*
X22399D01*
X22485Y-6978D01*
X22528Y-7021D01*
X22571Y-7107D01*
Y-7192D01*
X22528Y-7278D01*
X22442Y-7407D01*
X22014Y-7835D01*
X22614D01*
X22815Y-7107D02*
X22901Y-7064D01*
X23029Y-6935D01*
Y-7835D01*
X23732Y-6935D02*
X23603Y-6978D01*
X23518Y-7107D01*
X23475Y-7321D01*
Y-7449D01*
X23518Y-7664D01*
X23603Y-7792D01*
X23732Y-7835D01*
X23818D01*
X23946Y-7792D01*
X24032Y-7664D01*
X24075Y-7449D01*
Y-7321D01*
X24032Y-7107D01*
X23946Y-6978D01*
X23818Y-6935D01*
X23732D01*
X24533D02*
X24405Y-6978D01*
X24319Y-7107D01*
X24276Y-7321D01*
Y-7449D01*
X24319Y-7664D01*
X24405Y-7792D01*
X24533Y-7835D01*
X24619D01*
X24748Y-7792D01*
X24833Y-7664D01*
X24876Y-7449D01*
Y-7321D01*
X24833Y-7107D01*
X24748Y-6978D01*
X24619Y-6935D01*
X24533D01*
X25634D02*
X25077D01*
Y-7835D01*
X25634D01*
X25077Y-7364D02*
X25420D01*
X26341Y-6935D02*
X25784D01*
Y-7835D01*
X26341D01*
X25784Y-7364D02*
X26127D01*
X26534Y-7749D02*
X26491Y-7792D01*
X26534Y-7835D01*
X26577Y-7792D01*
X26534Y-7749D01*
X27417Y-7149D02*
X27374Y-7064D01*
X27288Y-6978D01*
X27203Y-6935D01*
X27031D01*
X26946Y-6978D01*
X26860Y-7064D01*
X26817Y-7149D01*
X26774Y-7278D01*
Y-7492D01*
X26817Y-7621D01*
X26860Y-7706D01*
X26946Y-7792D01*
X27031Y-7835D01*
X27203D01*
X27288Y-7792D01*
X27374Y-7706D01*
X27417Y-7621D01*
Y-7492D01*
X27203D02*
X27417D01*
X27623Y-6935D02*
Y-7835D01*
Y-6935D02*
X27965Y-7835D01*
X28308Y-6935D02*
X27965Y-7835D01*
X28308Y-6935D02*
Y-7835D01*
X28565Y-7107D02*
X28651Y-7064D01*
X28780Y-6935D01*
Y-7835D01*
X29782Y-7235D02*
X29739Y-7364D01*
X29654Y-7449D01*
X29525Y-7492D01*
X29482D01*
X29354Y-7449D01*
X29268Y-7364D01*
X29225Y-7235D01*
Y-7192D01*
X29268Y-7064D01*
X29354Y-6978D01*
X29482Y-6935D01*
X29525D01*
X29654Y-6978D01*
X29739Y-7064D01*
X29782Y-7235D01*
Y-7449D01*
X29739Y-7664D01*
X29654Y-7792D01*
X29525Y-7835D01*
X29439D01*
X29311Y-7792D01*
X29268Y-7706D01*
X-4462Y-7407D02*
X-4077D01*
X-3948Y-7364D01*
X-3905Y-7321D01*
X-3863Y-7235D01*
Y-7107D01*
X-3905Y-7021D01*
X-3948Y-6978D01*
X-4077Y-6935D01*
X-4462D01*
Y-7835D01*
X-3661Y-6935D02*
Y-7835D01*
X-3147D01*
X-2791Y-6935D02*
X-2877Y-6978D01*
X-2963Y-7064D01*
X-3006Y-7149D01*
X-3048Y-7278D01*
Y-7492D01*
X-3006Y-7621D01*
X-2963Y-7706D01*
X-2877Y-7792D01*
X-2791Y-7835D01*
X-2620D01*
X-2534Y-7792D01*
X-2449Y-7706D01*
X-2406Y-7621D01*
X-2363Y-7492D01*
Y-7278D01*
X-2406Y-7149D01*
X-2449Y-7064D01*
X-2534Y-6978D01*
X-2620Y-6935D01*
X-2791D01*
X-1853D02*
Y-7835D01*
X-2153Y-6935D02*
X-1553D01*
X-739D02*
Y-7835D01*
Y-6935D02*
X-182D01*
X-739Y-7364D02*
X-396D01*
X-79Y-6935D02*
Y-7835D01*
X109Y-6935D02*
Y-7835D01*
X624D01*
X1279Y-6935D02*
X722D01*
Y-7835D01*
X1279D01*
X722Y-7364D02*
X1065D01*
X1472Y-7235D02*
X1429Y-7278D01*
X1472Y-7321D01*
X1515Y-7278D01*
X1472Y-7235D01*
Y-7749D02*
X1429Y-7792D01*
X1472Y-7835D01*
X1515Y-7792D01*
X1472Y-7749D01*
X-4462Y-4135D02*
Y-5035D01*
X-3948D01*
X-3164D02*
X-3507Y-4135D01*
X-3850Y-5035D01*
X-3721Y-4735D02*
X-3293D01*
X-2954Y-4135D02*
X-2611Y-4564D01*
Y-5035D01*
X-2269Y-4135D02*
X-2611Y-4564D01*
X-1596Y-4135D02*
X-2153D01*
Y-5035D01*
X-1596D01*
X-2153Y-4564D02*
X-1810D01*
X-1446Y-4135D02*
Y-5035D01*
Y-4135D02*
X-1060D01*
X-932Y-4178D01*
X-889Y-4221D01*
X-846Y-4307D01*
Y-4392D01*
X-889Y-4478D01*
X-932Y-4521D01*
X-1060Y-4564D01*
X-1446D01*
X-1146D02*
X-846Y-5035D01*
X62Y-4135D02*
Y-5035D01*
Y-4135D02*
X662Y-5035D01*
Y-4135D02*
Y-5035D01*
X1596D02*
X1253Y-4135D01*
X911Y-5035D01*
X1039Y-4735D02*
X1468D01*
X1806Y-4135D02*
Y-5035D01*
Y-4135D02*
X2149Y-5035D01*
X2492Y-4135D02*
X2149Y-5035D01*
X2492Y-4135D02*
Y-5035D01*
X3306Y-4135D02*
X2749D01*
Y-5035D01*
X3306D01*
X2749Y-4564D02*
X3092D01*
X3499Y-4435D02*
X3456Y-4478D01*
X3499Y-4521D01*
X3542Y-4478D01*
X3499Y-4435D01*
Y-4949D02*
X3456Y-4992D01*
X3499Y-5035D01*
X3542Y-4992D01*
X3499Y-4949D01*
X5127Y-4264D02*
X5042Y-4178D01*
X4913Y-4135D01*
X4742D01*
X4613Y-4178D01*
X4528Y-4264D01*
Y-4349D01*
X4570Y-4435D01*
X4613Y-4478D01*
X4699Y-4521D01*
X4956Y-4607D01*
X5042Y-4649D01*
X5085Y-4692D01*
X5127Y-4778D01*
Y-4906D01*
X5042Y-4992D01*
X4913Y-5035D01*
X4742D01*
X4613Y-4992D01*
X4528Y-4906D01*
X5457Y-4135D02*
Y-4864D01*
X5500Y-4992D01*
X5586Y-5035D01*
X5672D01*
X5329Y-4435D02*
X5629D01*
X5800Y-4692D02*
X6314D01*
Y-4607D01*
X6271Y-4521D01*
X6229Y-4478D01*
X6143Y-4435D01*
X6014D01*
X5929Y-4478D01*
X5843Y-4564D01*
X5800Y-4692D01*
Y-4778D01*
X5843Y-4906D01*
X5929Y-4992D01*
X6014Y-5035D01*
X6143D01*
X6229Y-4992D01*
X6314Y-4906D01*
X6507Y-4435D02*
Y-5035D01*
Y-4607D02*
X6636Y-4478D01*
X6721Y-4435D01*
X6850D01*
X6936Y-4478D01*
X6978Y-4607D01*
Y-5035D01*
X7728Y-4564D02*
X7643Y-4478D01*
X7557Y-4435D01*
X7428D01*
X7343Y-4478D01*
X7257Y-4564D01*
X7214Y-4692D01*
Y-4778D01*
X7257Y-4906D01*
X7343Y-4992D01*
X7428Y-5035D01*
X7557D01*
X7643Y-4992D01*
X7728Y-4906D01*
X8007Y-4135D02*
X8050Y-4178D01*
X8093Y-4135D01*
X8050Y-4092D01*
X8007Y-4135D01*
X8050Y-4435D02*
Y-5035D01*
X8251Y-4135D02*
Y-5035D01*
X9789Y-4349D02*
X9746Y-4264D01*
X9661Y-4178D01*
X9575Y-4135D01*
X9404D01*
X9318Y-4178D01*
X9232Y-4264D01*
X9189Y-4349D01*
X9147Y-4478D01*
Y-4692D01*
X9189Y-4821D01*
X9232Y-4906D01*
X9318Y-4992D01*
X9404Y-5035D01*
X9575D01*
X9661Y-4992D01*
X9746Y-4906D01*
X9789Y-4821D01*
Y-4692D01*
X9575D02*
X9789D01*
X9995Y-4435D02*
Y-4864D01*
X10038Y-4992D01*
X10123Y-5035D01*
X10252D01*
X10338Y-4992D01*
X10466Y-4864D01*
Y-4435D02*
Y-5035D01*
X10788Y-4135D02*
X10831Y-4178D01*
X10873Y-4135D01*
X10831Y-4092D01*
X10788Y-4135D01*
X10831Y-4435D02*
Y-5035D01*
X11546Y-4135D02*
Y-5035D01*
Y-4564D02*
X11460Y-4478D01*
X11375Y-4435D01*
X11246D01*
X11160Y-4478D01*
X11075Y-4564D01*
X11032Y-4692D01*
Y-4778D01*
X11075Y-4906D01*
X11160Y-4992D01*
X11246Y-5035D01*
X11375D01*
X11460Y-4992D01*
X11546Y-4906D01*
X11786Y-4692D02*
X12300D01*
Y-4607D01*
X12257Y-4521D01*
X12214Y-4478D01*
X12129Y-4435D01*
X12000D01*
X11915Y-4478D01*
X11829Y-4564D01*
X11786Y-4692D01*
Y-4778D01*
X11829Y-4906D01*
X11915Y-4992D01*
X12000Y-5035D01*
X12129D01*
X12214Y-4992D01*
X12300Y-4906D01*
D31*
X7807Y129309D02*
X8004Y129506D01*
X8398D01*
X8594Y129309D01*
Y129113D01*
X8398Y128916D01*
X8201D01*
X8398D01*
X8594Y128719D01*
Y128522D01*
X8398Y128325D01*
X8004D01*
X7807Y128522D01*
X9578Y128325D02*
Y129506D01*
X8988Y128916D01*
X9775D01*
X10169Y129309D02*
X10366Y129506D01*
X10759D01*
X10956Y129309D01*
Y128522D01*
X10759Y128325D01*
X10366D01*
X10169Y128522D01*
Y129309D01*
X11546Y128129D02*
X11743Y128325D01*
Y128522D01*
X11546D01*
Y128325D01*
X11743D01*
X11546Y128129D01*
X11349Y127932D01*
X12530Y129309D02*
X12727Y129506D01*
X13121D01*
X13317Y129309D01*
Y128522D01*
X13121Y128325D01*
X12727D01*
X12530Y128522D01*
Y129309D01*
X13711D02*
X13908Y129506D01*
X14301D01*
X14498Y129309D01*
Y128522D01*
X14301Y128325D01*
X13908D01*
X13711Y128522D01*
Y129309D01*
X14892Y128325D02*
Y129113D01*
X15088D01*
X15285Y128916D01*
Y128325D01*
Y128916D01*
X15482Y129113D01*
X15679Y128916D01*
Y128325D01*
X16072D02*
Y129113D01*
X16269D01*
X16466Y128916D01*
Y128325D01*
Y128916D01*
X16663Y129113D01*
X16859Y128916D01*
Y128325D01*
X2000Y126269D02*
X2197Y126466D01*
X2591D01*
X2787Y126269D01*
Y126073D01*
X2591Y125876D01*
X2394D01*
X2591D01*
X2787Y125679D01*
Y125482D01*
X2591Y125285D01*
X2197D01*
X2000Y125482D01*
X3181Y125285D02*
X3574D01*
X3378D01*
Y126466D01*
X3181Y126269D01*
X4165D02*
X4362Y126466D01*
X4755D01*
X4952Y126269D01*
Y125482D01*
X4755Y125285D01*
X4362D01*
X4165Y125482D01*
Y126269D01*
X5542Y125089D02*
X5739Y125285D01*
Y125482D01*
X5542D01*
Y125285D01*
X5739D01*
X5542Y125089D01*
X5346Y124892D01*
X6526Y126269D02*
X6723Y126466D01*
X7117D01*
X7313Y126269D01*
Y125482D01*
X7117Y125285D01*
X6723D01*
X6526Y125482D01*
Y126269D01*
X7707D02*
X7904Y126466D01*
X8297D01*
X8494Y126269D01*
Y125482D01*
X8297Y125285D01*
X7904D01*
X7707Y125482D01*
Y126269D01*
X8888Y125285D02*
Y126073D01*
X9084D01*
X9281Y125876D01*
Y125285D01*
Y125876D01*
X9478Y126073D01*
X9675Y125876D01*
Y125285D01*
X10068D02*
Y126073D01*
X10265D01*
X10462Y125876D01*
Y125285D01*
Y125876D01*
X10659Y126073D01*
X10856Y125876D01*
Y125285D01*
X-5185Y122175D02*
X-5972D01*
X-5185Y122963D01*
Y123159D01*
X-5382Y123356D01*
X-5775D01*
X-5972Y123159D01*
X-4792Y123356D02*
X-4004D01*
Y123159D01*
X-4792Y122372D01*
Y122175D01*
X-3611Y123159D02*
X-3414Y123356D01*
X-3020D01*
X-2824Y123159D01*
Y122372D01*
X-3020Y122175D01*
X-3414D01*
X-3611Y122372D01*
Y123159D01*
X-2233Y121979D02*
X-2037Y122175D01*
Y122372D01*
X-2233D01*
Y122175D01*
X-2037D01*
X-2233Y121979D01*
X-2430Y121782D01*
X-1249Y123159D02*
X-1053Y123356D01*
X-659D01*
X-462Y123159D01*
Y122372D01*
X-659Y122175D01*
X-1053D01*
X-1249Y122372D01*
Y123159D01*
X-69D02*
X128Y123356D01*
X522D01*
X719Y123159D01*
Y122372D01*
X522Y122175D01*
X128D01*
X-69Y122372D01*
Y123159D01*
X1112Y122175D02*
Y122963D01*
X1309D01*
X1506Y122766D01*
Y122175D01*
Y122766D01*
X1702Y122963D01*
X1899Y122766D01*
Y122175D01*
X2293D02*
Y122963D01*
X2490D01*
X2686Y122766D01*
Y122175D01*
Y122766D01*
X2883Y122963D01*
X3080Y122766D01*
Y122175D01*
X-13059Y119195D02*
X-13846D01*
X-13059Y119983D01*
Y120179D01*
X-13256Y120376D01*
X-13649D01*
X-13846Y120179D01*
X-12666D02*
X-12469Y120376D01*
X-12075D01*
X-11878Y120179D01*
Y119983D01*
X-12075Y119786D01*
X-12272D01*
X-12075D01*
X-11878Y119589D01*
Y119392D01*
X-12075Y119195D01*
X-12469D01*
X-12666Y119392D01*
X-11485Y120179D02*
X-11288Y120376D01*
X-10894D01*
X-10698Y120179D01*
Y119392D01*
X-10894Y119195D01*
X-11288D01*
X-11485Y119392D01*
Y120179D01*
X-10107Y118999D02*
X-9911Y119195D01*
Y119392D01*
X-10107D01*
Y119195D01*
X-9911D01*
X-10107Y118999D01*
X-10304Y118802D01*
X-9123Y120179D02*
X-8927Y120376D01*
X-8533D01*
X-8336Y120179D01*
Y119392D01*
X-8533Y119195D01*
X-8927D01*
X-9123Y119392D01*
Y120179D01*
X-7943D02*
X-7746Y120376D01*
X-7352D01*
X-7156Y120179D01*
Y119392D01*
X-7352Y119195D01*
X-7746D01*
X-7943Y119392D01*
Y120179D01*
X-6762Y119195D02*
Y119983D01*
X-6565D01*
X-6368Y119786D01*
Y119195D01*
Y119786D01*
X-6172Y119983D01*
X-5975Y119786D01*
Y119195D01*
X-5581D02*
Y119983D01*
X-5384D01*
X-5188Y119786D01*
Y119195D01*
Y119786D01*
X-4991Y119983D01*
X-4794Y119786D01*
Y119195D01*
X-21622Y116405D02*
X-21228D01*
X-21425D01*
Y117586D01*
X-21622Y117389D01*
X-20638Y116602D02*
X-20441Y116405D01*
X-20048D01*
X-19851Y116602D01*
Y117389D01*
X-20048Y117586D01*
X-20441D01*
X-20638Y117389D01*
Y117193D01*
X-20441Y116996D01*
X-19851D01*
X-19457Y117389D02*
X-19260Y117586D01*
X-18867D01*
X-18670Y117389D01*
Y116602D01*
X-18867Y116405D01*
X-19260D01*
X-19457Y116602D01*
Y117389D01*
X-18080Y116209D02*
X-17883Y116405D01*
Y116602D01*
X-18080D01*
Y116405D01*
X-17883D01*
X-18080Y116209D01*
X-18277Y116012D01*
X-17096Y117389D02*
X-16899Y117586D01*
X-16505D01*
X-16309Y117389D01*
Y116602D01*
X-16505Y116405D01*
X-16899D01*
X-17096Y116602D01*
Y117389D01*
X-15915D02*
X-15718Y117586D01*
X-15325D01*
X-15128Y117389D01*
Y116602D01*
X-15325Y116405D01*
X-15718D01*
X-15915Y116602D01*
Y117389D01*
X-14734Y116405D02*
Y117193D01*
X-14538D01*
X-14341Y116996D01*
Y116405D01*
Y116996D01*
X-14144Y117193D01*
X-13947Y116996D01*
Y116405D01*
X-13554D02*
Y117193D01*
X-13357D01*
X-13160Y116996D01*
Y116405D01*
Y116996D01*
X-12963Y117193D01*
X-12766Y116996D01*
Y116405D01*
X-29496Y113735D02*
X-29102D01*
X-29299D01*
Y114916D01*
X-29496Y114719D01*
X-27725Y114916D02*
X-28512D01*
Y114326D01*
X-28118Y114523D01*
X-27922D01*
X-27725Y114326D01*
Y113932D01*
X-27922Y113735D01*
X-28315D01*
X-28512Y113932D01*
X-27331Y114719D02*
X-27134Y114916D01*
X-26741D01*
X-26544Y114719D01*
Y113932D01*
X-26741Y113735D01*
X-27134D01*
X-27331Y113932D01*
Y114719D01*
X-25954Y113539D02*
X-25757Y113735D01*
Y113932D01*
X-25954D01*
Y113735D01*
X-25757D01*
X-25954Y113539D01*
X-26151Y113342D01*
X-24970Y114719D02*
X-24773Y114916D01*
X-24379D01*
X-24183Y114719D01*
Y113932D01*
X-24379Y113735D01*
X-24773D01*
X-24970Y113932D01*
Y114719D01*
X-23789D02*
X-23592Y114916D01*
X-23199D01*
X-23002Y114719D01*
Y113932D01*
X-23199Y113735D01*
X-23592D01*
X-23789Y113932D01*
Y114719D01*
X-22608Y113735D02*
Y114523D01*
X-22412D01*
X-22215Y114326D01*
Y113735D01*
Y114326D01*
X-22018Y114523D01*
X-21821Y114326D01*
Y113735D01*
X-21428D02*
Y114523D01*
X-21231D01*
X-21034Y114326D01*
Y113735D01*
Y114326D01*
X-20837Y114523D01*
X-20640Y114326D01*
Y113735D01*
X-37272Y111135D02*
X-36878D01*
X-37075D01*
Y112316D01*
X-37272Y112119D01*
X-36288Y111135D02*
X-35894D01*
X-36091D01*
Y112316D01*
X-36288Y112119D01*
X-35304D02*
X-35107Y112316D01*
X-34713D01*
X-34517Y112119D01*
Y111332D01*
X-34713Y111135D01*
X-35107D01*
X-35304Y111332D01*
Y112119D01*
X-33926Y110939D02*
X-33729Y111135D01*
Y111332D01*
X-33926D01*
Y111135D01*
X-33729D01*
X-33926Y110939D01*
X-34123Y110742D01*
X-32942Y112119D02*
X-32745Y112316D01*
X-32352D01*
X-32155Y112119D01*
Y111332D01*
X-32352Y111135D01*
X-32745D01*
X-32942Y111332D01*
Y112119D01*
X-31762D02*
X-31565Y112316D01*
X-31171D01*
X-30974Y112119D01*
Y111332D01*
X-31171Y111135D01*
X-31565D01*
X-31762Y111332D01*
Y112119D01*
X-30581Y111135D02*
Y111923D01*
X-30384D01*
X-30187Y111726D01*
Y111135D01*
Y111726D01*
X-29990Y111923D01*
X-29794Y111726D01*
Y111135D01*
X-29400D02*
Y111923D01*
X-29203D01*
X-29006Y111726D01*
Y111135D01*
Y111726D01*
X-28810Y111923D01*
X-28613Y111726D01*
Y111135D01*
X-44752Y109706D02*
X-43965D01*
Y109509D01*
X-44752Y108722D01*
Y108525D01*
X-43571Y109509D02*
X-43374Y109706D01*
X-42981D01*
X-42784Y109509D01*
Y108722D01*
X-42981Y108525D01*
X-43374D01*
X-43571Y108722D01*
Y109509D01*
X-42194Y108329D02*
X-41997Y108525D01*
Y108722D01*
X-42194D01*
Y108525D01*
X-41997D01*
X-42194Y108329D01*
X-42391Y108132D01*
X-41210Y109509D02*
X-41013Y109706D01*
X-40619D01*
X-40423Y109509D01*
Y108722D01*
X-40619Y108525D01*
X-41013D01*
X-41210Y108722D01*
Y109509D01*
X-40029D02*
X-39832Y109706D01*
X-39439D01*
X-39242Y109509D01*
Y108722D01*
X-39439Y108525D01*
X-39832D01*
X-40029Y108722D01*
Y109509D01*
X-38848Y108525D02*
Y109313D01*
X-38652D01*
X-38455Y109116D01*
Y108525D01*
Y109116D01*
X-38258Y109313D01*
X-38061Y109116D01*
Y108525D01*
X-37668D02*
Y109313D01*
X-37471D01*
X-37274Y109116D01*
Y108525D01*
Y109116D01*
X-37077Y109313D01*
X-36881Y109116D01*
Y108525D01*
X-52626Y106969D02*
X-52429Y107166D01*
X-52036D01*
X-51839Y106969D01*
Y106773D01*
X-52036Y106576D01*
X-52232D01*
X-52036D01*
X-51839Y106379D01*
Y106182D01*
X-52036Y105985D01*
X-52429D01*
X-52626Y106182D01*
X-51445Y106969D02*
X-51248Y107166D01*
X-50855D01*
X-50658Y106969D01*
Y106182D01*
X-50855Y105985D01*
X-51248D01*
X-51445Y106182D01*
Y106969D01*
X-50068Y105789D02*
X-49871Y105985D01*
Y106182D01*
X-50068D01*
Y105985D01*
X-49871D01*
X-50068Y105789D01*
X-50265Y105592D01*
X-49084Y106969D02*
X-48887Y107166D01*
X-48493D01*
X-48297Y106969D01*
Y106182D01*
X-48493Y105985D01*
X-48887D01*
X-49084Y106182D01*
Y106969D01*
X-47903D02*
X-47706Y107166D01*
X-47313D01*
X-47116Y106969D01*
Y106182D01*
X-47313Y105985D01*
X-47706D01*
X-47903Y106182D01*
Y106969D01*
X-46722Y105985D02*
Y106773D01*
X-46526D01*
X-46329Y106576D01*
Y105985D01*
Y106576D01*
X-46132Y106773D01*
X-45935Y106576D01*
Y105985D01*
X-45542D02*
Y106773D01*
X-45345D01*
X-45148Y106576D01*
Y105985D01*
Y106576D01*
X-44951Y106773D01*
X-44755Y106576D01*
Y105985D01*
X-56465Y103247D02*
X-56071D01*
X-56268D01*
Y104428D01*
X-56465Y104231D01*
X-55481D02*
X-55284Y104428D01*
X-54890D01*
X-54694Y104231D01*
Y103444D01*
X-54890Y103247D01*
X-55284D01*
X-55481Y103444D01*
Y104231D01*
X-54103Y103050D02*
X-53906Y103247D01*
Y103444D01*
X-54103D01*
Y103247D01*
X-53906D01*
X-54103Y103050D01*
X-54300Y102853D01*
X-53119Y104231D02*
X-52922Y104428D01*
X-52529D01*
X-52332Y104231D01*
Y103444D01*
X-52529Y103247D01*
X-52922D01*
X-53119Y103444D01*
Y104231D01*
X-51939D02*
X-51742Y104428D01*
X-51348D01*
X-51151Y104231D01*
Y103444D01*
X-51348Y103247D01*
X-51742D01*
X-51939Y103444D01*
Y104231D01*
X-50758Y103247D02*
Y104034D01*
X-50561D01*
X-50364Y103837D01*
Y103247D01*
Y103837D01*
X-50167Y104034D01*
X-49971Y103837D01*
Y103247D01*
X-49577D02*
Y104034D01*
X-49380D01*
X-49183Y103837D01*
Y103247D01*
Y103837D01*
X-48987Y104034D01*
X-48790Y103837D01*
Y103247D01*
X-82244Y20946D02*
X-82441Y21143D01*
Y21537D01*
X-82244Y21734D01*
X-82048D01*
X-81851Y21537D01*
Y21340D01*
Y21537D01*
X-81654Y21734D01*
X-81457D01*
X-81260Y21537D01*
Y21143D01*
X-81457Y20946D01*
X-82441Y22127D02*
Y22914D01*
X-82244D01*
X-81457Y22127D01*
X-81260D01*
X-82244Y23308D02*
X-82441Y23505D01*
Y23898D01*
X-82244Y24095D01*
X-81457D01*
X-81260Y23898D01*
Y23505D01*
X-81457Y23308D01*
X-82244D01*
X-81064Y24685D02*
X-81260Y24882D01*
X-81457D01*
Y24685D01*
X-81260D01*
Y24882D01*
X-81064Y24685D01*
X-80867Y24489D01*
X-82244Y25669D02*
X-82441Y25866D01*
Y26260D01*
X-82244Y26456D01*
X-81457D01*
X-81260Y26260D01*
Y25866D01*
X-81457Y25669D01*
X-82244D01*
Y26850D02*
X-82441Y27047D01*
Y27440D01*
X-82244Y27637D01*
X-81457D01*
X-81260Y27440D01*
Y27047D01*
X-81457Y26850D01*
X-82244D01*
X-81260Y28031D02*
X-82048D01*
Y28228D01*
X-81851Y28424D01*
X-81260D01*
X-81851D01*
X-82048Y28621D01*
X-81851Y28818D01*
X-81260D01*
Y29212D02*
X-82048D01*
Y29408D01*
X-81851Y29605D01*
X-81260D01*
X-81851D01*
X-82048Y29802D01*
X-81851Y29999D01*
X-81260D01*
X-79494Y8151D02*
X-79691Y8348D01*
Y8742D01*
X-79494Y8938D01*
X-79298D01*
X-79101Y8742D01*
Y8545D01*
Y8742D01*
X-78904Y8938D01*
X-78707D01*
X-78510Y8742D01*
Y8348D01*
X-78707Y8151D01*
X-79494Y9332D02*
X-79691Y9529D01*
Y9922D01*
X-79494Y10119D01*
X-78707D01*
X-78510Y9922D01*
Y9529D01*
X-78707Y9332D01*
X-79494D01*
X-79691Y11300D02*
Y10513D01*
X-79101D01*
X-79298Y10906D01*
Y11103D01*
X-79101Y11300D01*
X-78707D01*
X-78510Y11103D01*
Y10709D01*
X-78707Y10513D01*
X-78314Y11890D02*
X-78510Y12087D01*
X-78707D01*
Y11890D01*
X-78510D01*
Y12087D01*
X-78314Y11890D01*
X-78117Y11693D01*
X-79494Y12874D02*
X-79691Y13071D01*
Y13464D01*
X-79494Y13661D01*
X-78707D01*
X-78510Y13464D01*
Y13071D01*
X-78707Y12874D01*
X-79494D01*
Y14055D02*
X-79691Y14252D01*
Y14645D01*
X-79494Y14842D01*
X-78707D01*
X-78510Y14645D01*
Y14252D01*
X-78707Y14055D01*
X-79494D01*
X-78510Y15236D02*
X-79298D01*
Y15432D01*
X-79101Y15629D01*
X-78510D01*
X-79101D01*
X-79298Y15826D01*
X-79101Y16023D01*
X-78510D01*
Y16416D02*
X-79298D01*
Y16613D01*
X-79101Y16810D01*
X-78510D01*
X-79101D01*
X-79298Y17007D01*
X-79101Y17203D01*
X-78510D01*
X-75850Y1064D02*
Y277D01*
X-76638Y1064D01*
X-76834D01*
X-77031Y868D01*
Y474D01*
X-76834Y277D01*
X-77031Y2245D02*
X-76834Y1851D01*
X-76441Y1458D01*
X-76047D01*
X-75850Y1655D01*
Y2048D01*
X-76047Y2245D01*
X-76244D01*
X-76441Y2048D01*
Y1458D01*
X-77031Y3426D02*
Y2639D01*
X-76441D01*
X-76638Y3032D01*
Y3229D01*
X-76441Y3426D01*
X-76047D01*
X-75850Y3229D01*
Y2835D01*
X-76047Y2639D01*
X-75654Y4016D02*
X-75850Y4213D01*
X-76047D01*
Y4016D01*
X-75850D01*
Y4213D01*
X-75654Y4016D01*
X-75457Y3819D01*
X-76834Y5000D02*
X-77031Y5197D01*
Y5590D01*
X-76834Y5787D01*
X-76047D01*
X-75850Y5590D01*
Y5197D01*
X-76047Y5000D01*
X-76834D01*
Y6181D02*
X-77031Y6378D01*
Y6771D01*
X-76834Y6968D01*
X-76047D01*
X-75850Y6771D01*
Y6378D01*
X-76047Y6181D01*
X-76834D01*
X-75850Y7362D02*
X-76638D01*
Y7558D01*
X-76441Y7755D01*
X-75850D01*
X-76441D01*
X-76638Y7952D01*
X-76441Y8149D01*
X-75850D01*
Y8542D02*
X-76638D01*
Y8739D01*
X-76441Y8936D01*
X-75850D01*
X-76441D01*
X-76638Y9133D01*
X-76441Y9329D01*
X-75850D01*
X-73070Y-6810D02*
Y-7597D01*
X-73858Y-6810D01*
X-74054D01*
X-74251Y-7006D01*
Y-7400D01*
X-74054Y-7597D01*
X-73070Y-5629D02*
Y-6416D01*
X-73858Y-5629D01*
X-74054D01*
X-74251Y-5826D01*
Y-6219D01*
X-74054Y-6416D01*
X-74251Y-4448D02*
Y-5235D01*
X-73661D01*
X-73858Y-4842D01*
Y-4645D01*
X-73661Y-4448D01*
X-73267D01*
X-73070Y-4645D01*
Y-5039D01*
X-73267Y-5235D01*
X-72874Y-3858D02*
X-73070Y-3661D01*
X-73267D01*
Y-3858D01*
X-73070D01*
Y-3661D01*
X-72874Y-3858D01*
X-72677Y-4055D01*
X-74054Y-2874D02*
X-74251Y-2677D01*
Y-2284D01*
X-74054Y-2087D01*
X-73267D01*
X-73070Y-2284D01*
Y-2677D01*
X-73267Y-2874D01*
X-74054D01*
Y-1693D02*
X-74251Y-1496D01*
Y-1103D01*
X-74054Y-906D01*
X-73267D01*
X-73070Y-1103D01*
Y-1496D01*
X-73267Y-1693D01*
X-74054D01*
X-73070Y-513D02*
X-73858D01*
Y-316D01*
X-73661Y-119D01*
X-73070D01*
X-73661D01*
X-73858Y78D01*
X-73661Y275D01*
X-73070D01*
Y668D02*
X-73858D01*
Y865D01*
X-73661Y1062D01*
X-73070D01*
X-73661D01*
X-73858Y1259D01*
X-73661Y1455D01*
X-73070D01*
X-70530Y-15372D02*
Y-14979D01*
Y-15176D01*
X-71711D01*
X-71514Y-15372D01*
Y-14389D02*
X-71711Y-14192D01*
Y-13798D01*
X-71514Y-13601D01*
X-71318D01*
X-71121Y-13798D01*
X-70924Y-13601D01*
X-70727D01*
X-70530Y-13798D01*
Y-14192D01*
X-70727Y-14389D01*
X-70924D01*
X-71121Y-14192D01*
X-71318Y-14389D01*
X-71514D01*
X-71121Y-14192D02*
Y-13798D01*
X-71711Y-12421D02*
Y-13208D01*
X-71121D01*
X-71318Y-12814D01*
Y-12617D01*
X-71121Y-12421D01*
X-70727D01*
X-70530Y-12617D01*
Y-13011D01*
X-70727Y-13208D01*
X-70334Y-11830D02*
X-70530Y-11634D01*
X-70727D01*
Y-11830D01*
X-70530D01*
Y-11634D01*
X-70334Y-11830D01*
X-70137Y-12027D01*
X-71514Y-10846D02*
X-71711Y-10650D01*
Y-10256D01*
X-71514Y-10059D01*
X-70727D01*
X-70530Y-10256D01*
Y-10650D01*
X-70727Y-10846D01*
X-71514D01*
Y-9666D02*
X-71711Y-9469D01*
Y-9075D01*
X-71514Y-8878D01*
X-70727D01*
X-70530Y-9075D01*
Y-9469D01*
X-70727Y-9666D01*
X-71514D01*
X-70530Y-8485D02*
X-71318D01*
Y-8288D01*
X-71121Y-8091D01*
X-70530D01*
X-71121D01*
X-71318Y-7895D01*
X-71121Y-7698D01*
X-70530D01*
Y-7304D02*
X-71318D01*
Y-7107D01*
X-71121Y-6911D01*
X-70530D01*
X-71121D01*
X-71318Y-6714D01*
X-71121Y-6517D01*
X-70530D01*
X-68110Y-23246D02*
Y-22853D01*
Y-23050D01*
X-69291D01*
X-69094Y-23246D01*
X-68110Y-21672D02*
X-69291D01*
X-68701Y-22263D01*
Y-21475D01*
X-69291Y-20295D02*
Y-21082D01*
X-68701D01*
X-68898Y-20688D01*
Y-20491D01*
X-68701Y-20295D01*
X-68307D01*
X-68110Y-20491D01*
Y-20885D01*
X-68307Y-21082D01*
X-67914Y-19704D02*
X-68110Y-19508D01*
X-68307D01*
Y-19704D01*
X-68110D01*
Y-19508D01*
X-67914Y-19704D01*
X-67717Y-19901D01*
X-69094Y-18720D02*
X-69291Y-18524D01*
Y-18130D01*
X-69094Y-17933D01*
X-68307D01*
X-68110Y-18130D01*
Y-18524D01*
X-68307Y-18720D01*
X-69094D01*
Y-17540D02*
X-69291Y-17343D01*
Y-16949D01*
X-69094Y-16753D01*
X-68307D01*
X-68110Y-16949D01*
Y-17343D01*
X-68307Y-17540D01*
X-69094D01*
X-68110Y-16359D02*
X-68898D01*
Y-16162D01*
X-68701Y-15965D01*
X-68110D01*
X-68701D01*
X-68898Y-15769D01*
X-68701Y-15572D01*
X-68110D01*
Y-15178D02*
X-68898D01*
Y-14981D01*
X-68701Y-14785D01*
X-68110D01*
X-68701D01*
X-68898Y-14588D01*
X-68701Y-14391D01*
X-68110D01*
X-65490Y-31120D02*
Y-30727D01*
Y-30924D01*
X-66671D01*
X-66474Y-31120D01*
Y-30137D02*
X-66671Y-29940D01*
Y-29546D01*
X-66474Y-29349D01*
X-65687D01*
X-65490Y-29546D01*
Y-29940D01*
X-65687Y-30137D01*
X-66474D01*
X-66671Y-28169D02*
Y-28956D01*
X-66081D01*
X-66278Y-28562D01*
Y-28365D01*
X-66081Y-28169D01*
X-65687D01*
X-65490Y-28365D01*
Y-28759D01*
X-65687Y-28956D01*
X-65294Y-27578D02*
X-65490Y-27382D01*
X-65687D01*
Y-27578D01*
X-65490D01*
Y-27382D01*
X-65294Y-27578D01*
X-65097Y-27775D01*
X-66474Y-26594D02*
X-66671Y-26398D01*
Y-26004D01*
X-66474Y-25807D01*
X-65687D01*
X-65490Y-26004D01*
Y-26398D01*
X-65687Y-26594D01*
X-66474D01*
Y-25414D02*
X-66671Y-25217D01*
Y-24823D01*
X-66474Y-24627D01*
X-65687D01*
X-65490Y-24823D01*
Y-25217D01*
X-65687Y-25414D01*
X-66474D01*
X-65490Y-24233D02*
X-66278D01*
Y-24036D01*
X-66081Y-23839D01*
X-65490D01*
X-66081D01*
X-66278Y-23643D01*
X-66081Y-23446D01*
X-65490D01*
Y-23052D02*
X-66278D01*
Y-22855D01*
X-66081Y-22659D01*
X-65490D01*
X-66081D01*
X-66278Y-22462D01*
X-66081Y-22265D01*
X-65490D01*
X-63891Y-37715D02*
X-63694Y-38109D01*
X-63301Y-38503D01*
X-62907D01*
X-62710Y-38306D01*
Y-37912D01*
X-62907Y-37715D01*
X-63104D01*
X-63301Y-37912D01*
Y-38503D01*
X-63891Y-36535D02*
Y-37322D01*
X-63301D01*
X-63498Y-36928D01*
Y-36731D01*
X-63301Y-36535D01*
X-62907D01*
X-62710Y-36731D01*
Y-37125D01*
X-62907Y-37322D01*
X-62514Y-35944D02*
X-62710Y-35748D01*
X-62907D01*
Y-35944D01*
X-62710D01*
Y-35748D01*
X-62514Y-35944D01*
X-62317Y-36141D01*
X-63694Y-34960D02*
X-63891Y-34764D01*
Y-34370D01*
X-63694Y-34173D01*
X-62907D01*
X-62710Y-34370D01*
Y-34764D01*
X-62907Y-34960D01*
X-63694D01*
Y-33780D02*
X-63891Y-33583D01*
Y-33189D01*
X-63694Y-32993D01*
X-62907D01*
X-62710Y-33189D01*
Y-33583D01*
X-62907Y-33780D01*
X-63694D01*
X-62710Y-32599D02*
X-63498D01*
Y-32402D01*
X-63301Y-32205D01*
X-62710D01*
X-63301D01*
X-63498Y-32009D01*
X-63301Y-31812D01*
X-62710D01*
Y-31418D02*
X-63498D01*
Y-31221D01*
X-63301Y-31025D01*
X-62710D01*
X-63301D01*
X-63498Y-30828D01*
X-63301Y-30631D01*
X-62710D01*
X-60942Y-49231D02*
Y-48837D01*
Y-49034D01*
X-62123D01*
X-61926Y-49231D01*
Y-48247D02*
X-62123Y-48050D01*
Y-47657D01*
X-61926Y-47460D01*
X-61139D01*
X-60942Y-47657D01*
Y-48050D01*
X-61139Y-48247D01*
X-61926D01*
X-60745Y-46869D02*
X-60942Y-46673D01*
X-61139D01*
Y-46869D01*
X-60942D01*
Y-46673D01*
X-60745Y-46869D01*
X-60548Y-47066D01*
X-61926Y-45886D02*
X-62123Y-45689D01*
Y-45295D01*
X-61926Y-45098D01*
X-61139D01*
X-60942Y-45295D01*
Y-45689D01*
X-61139Y-45886D01*
X-61926D01*
Y-44705D02*
X-62123Y-44508D01*
Y-44114D01*
X-61926Y-43918D01*
X-61139D01*
X-60942Y-44114D01*
Y-44508D01*
X-61139Y-44705D01*
X-61926D01*
X-60942Y-43524D02*
X-61729D01*
Y-43327D01*
X-61532Y-43131D01*
X-60942D01*
X-61532D01*
X-61729Y-42934D01*
X-61532Y-42737D01*
X-60942D01*
Y-42343D02*
X-61729D01*
Y-42147D01*
X-61532Y-41950D01*
X-60942D01*
X-61532D01*
X-61729Y-41753D01*
X-61532Y-41556D01*
X-60942D01*
X7807Y-51751D02*
X8004Y-51554D01*
X8398D01*
X8594Y-51751D01*
Y-51947D01*
X8398Y-52144D01*
X8201D01*
X8398D01*
X8594Y-52341D01*
Y-52538D01*
X8398Y-52735D01*
X8004D01*
X7807Y-52538D01*
X9578Y-52735D02*
Y-51554D01*
X8988Y-52144D01*
X9775D01*
X10956Y-51554D02*
X10169D01*
Y-52144D01*
X10562Y-51947D01*
X10759D01*
X10956Y-52144D01*
Y-52538D01*
X10759Y-52735D01*
X10366D01*
X10169Y-52538D01*
X11546Y-52931D02*
X11743Y-52735D01*
Y-52538D01*
X11546D01*
Y-52735D01*
X11743D01*
X11546Y-52931D01*
X11349Y-53128D01*
X12530Y-51751D02*
X12727Y-51554D01*
X13121D01*
X13317Y-51751D01*
Y-52538D01*
X13121Y-52735D01*
X12727D01*
X12530Y-52538D01*
Y-51751D01*
X13711D02*
X13908Y-51554D01*
X14301D01*
X14498Y-51751D01*
Y-52538D01*
X14301Y-52735D01*
X13908D01*
X13711Y-52538D01*
Y-51751D01*
X14892Y-52735D02*
Y-51947D01*
X15088D01*
X15285Y-52144D01*
Y-52735D01*
Y-52144D01*
X15482Y-51947D01*
X15679Y-52144D01*
Y-52735D01*
X16072D02*
Y-51947D01*
X16269D01*
X16466Y-52144D01*
Y-52735D01*
Y-52144D01*
X16663Y-51947D01*
X16859Y-52144D01*
Y-52735D01*
X85286Y20946D02*
X85089Y21143D01*
Y21537D01*
X85286Y21734D01*
X85482D01*
X85679Y21537D01*
Y21340D01*
Y21537D01*
X85876Y21734D01*
X86073D01*
X86270Y21537D01*
Y21143D01*
X86073Y20946D01*
X85089Y22127D02*
Y22914D01*
X85286D01*
X86073Y22127D01*
X86270D01*
X85089Y24095D02*
Y23308D01*
X85679D01*
X85482Y23701D01*
Y23898D01*
X85679Y24095D01*
X86073D01*
X86270Y23898D01*
Y23505D01*
X86073Y23308D01*
X86466Y24685D02*
X86270Y24882D01*
X86073D01*
Y24685D01*
X86270D01*
Y24882D01*
X86466Y24685D01*
X86663Y24489D01*
X85286Y25669D02*
X85089Y25866D01*
Y26260D01*
X85286Y26456D01*
X86073D01*
X86270Y26260D01*
Y25866D01*
X86073Y25669D01*
X85286D01*
Y26850D02*
X85089Y27047D01*
Y27440D01*
X85286Y27637D01*
X86073D01*
X86270Y27440D01*
Y27047D01*
X86073Y26850D01*
X85286D01*
X86270Y28031D02*
X85482D01*
Y28228D01*
X85679Y28424D01*
X86270D01*
X85679D01*
X85482Y28621D01*
X85679Y28818D01*
X86270D01*
Y29212D02*
X85482D01*
Y29408D01*
X85679Y29605D01*
X86270D01*
X85679D01*
X85482Y29802D01*
X85679Y29999D01*
X86270D01*
X-21838Y83374D02*
X-21182D01*
X-20854Y83702D01*
Y84358D01*
X-21182Y84686D01*
X-21838D01*
X-22166Y84358D01*
Y83702D01*
X-21838Y83374D01*
X-18230Y85342D02*
X-16919D01*
Y85014D01*
X-18230Y83702D01*
Y83374D01*
X-15935Y83046D02*
X-15607Y83374D01*
Y83702D01*
X-15935D01*
Y83374D01*
X-15607D01*
X-15935Y83046D01*
X-16263Y82718D01*
X-14295Y85014D02*
X-13967Y85342D01*
X-13311D01*
X-12983Y85014D01*
Y84686D01*
X-13311Y84358D01*
X-12983Y84030D01*
Y83702D01*
X-13311Y83374D01*
X-13967D01*
X-14295Y83702D01*
Y84030D01*
X-13967Y84358D01*
X-14295Y84686D01*
Y85014D01*
X-13967Y84358D02*
X-13311D01*
X-12327Y85014D02*
X-11999Y85342D01*
X-11343D01*
X-11015Y85014D01*
Y83702D01*
X-11343Y83374D01*
X-11999D01*
X-12327Y83702D01*
Y85014D01*
X-10359Y83374D02*
Y84686D01*
X-10031D01*
X-9703Y84358D01*
Y83374D01*
Y84358D01*
X-9375Y84686D01*
X-9047Y84358D01*
Y83374D01*
X-8391D02*
Y84686D01*
X-8063D01*
X-7735Y84358D01*
Y83374D01*
Y84358D01*
X-7407Y84686D01*
X-7079Y84358D01*
Y83374D01*
X-6423Y83046D02*
X-5111D01*
X-4455Y84686D02*
X-3143Y83374D01*
X-3799Y84030D01*
X-3143Y84686D01*
X-4455Y83374D01*
X-2488Y83046D02*
X-1176D01*
X-520Y85014D02*
X-192Y85342D01*
X464D01*
X792Y85014D01*
Y84686D01*
X464Y84358D01*
X136D01*
X464D01*
X792Y84030D01*
Y83702D01*
X464Y83374D01*
X-192D01*
X-520Y83702D01*
X1448Y85014D02*
X1776Y85342D01*
X2432D01*
X2760Y85014D01*
Y83702D01*
X2432Y83374D01*
X1776D01*
X1448Y83702D01*
Y85014D01*
X3416Y83046D02*
X4728D01*
X5384Y83374D02*
X6040D01*
X5712D01*
Y84686D01*
X5384D01*
X7024Y83374D02*
Y84686D01*
X8008D01*
X8336Y84358D01*
Y83374D01*
X8992Y83046D02*
X10304D01*
X11288Y85014D02*
Y84686D01*
X10960D01*
X11616D01*
X11288D01*
Y83702D01*
X11616Y83374D01*
X12599Y85342D02*
Y83374D01*
Y84358D01*
X12927Y84686D01*
X13583D01*
X13911Y84358D01*
Y83374D01*
X15551D02*
X14895D01*
X14567Y83702D01*
Y84358D01*
X14895Y84686D01*
X15551D01*
X15879Y84358D01*
Y84030D01*
X14567D01*
X16535Y83046D02*
X17847D01*
X18503Y83374D02*
X19487D01*
X19815Y83702D01*
X19487Y84030D01*
X18831D01*
X18503Y84358D01*
X18831Y84686D01*
X19815D01*
X20799Y85014D02*
Y84686D01*
X20471D01*
X21127D01*
X20799D01*
Y83702D01*
X21127Y83374D01*
X23095D02*
X22439D01*
X22111Y83702D01*
Y84358D01*
X22439Y84686D01*
X23095D01*
X23423Y84358D01*
Y84030D01*
X22111D01*
X24079Y83374D02*
Y84686D01*
X25063D01*
X25391Y84358D01*
Y83374D01*
X27358Y84686D02*
X26375D01*
X26047Y84358D01*
Y83702D01*
X26375Y83374D01*
X27358D01*
X28014D02*
X28670D01*
X28342D01*
Y84686D01*
X28014D01*
X29654Y83374D02*
X30310D01*
X29982D01*
Y85342D01*
X29654D01*
X-16058Y71809D02*
Y69841D01*
X-15074D01*
X-14746Y70169D01*
Y70497D01*
X-15074Y70825D01*
X-16058D01*
X-15074D01*
X-14746Y71153D01*
Y71481D01*
X-15074Y71809D01*
X-16058D01*
X-13762Y69841D02*
X-13106D01*
X-12778Y70169D01*
Y70825D01*
X-13106Y71153D01*
X-13762D01*
X-14090Y70825D01*
Y70169D01*
X-13762Y69841D01*
X-10810Y71809D02*
Y69841D01*
X-11794D01*
X-12122Y70169D01*
Y70825D01*
X-11794Y71153D01*
X-10810D01*
X-10154D02*
Y70169D01*
X-9826Y69841D01*
X-8842D01*
Y69513D01*
X-9170Y69185D01*
X-9498D01*
X-8842Y69841D02*
Y71153D01*
X-5890Y69841D02*
X-5234D01*
X-4906Y70169D01*
Y70825D01*
X-5234Y71153D01*
X-5890D01*
X-6218Y70825D01*
Y70169D01*
X-5890Y69841D01*
X-3922D02*
Y71481D01*
Y70825D01*
X-4250D01*
X-3594D01*
X-3922D01*
Y71481D01*
X-3594Y71809D01*
X669D02*
X-643D01*
Y70825D01*
X13D01*
X-643D01*
Y69841D01*
X1325Y71153D02*
Y69841D01*
Y70497D01*
X1653Y70825D01*
X1981Y71153D01*
X2309D01*
X3621D02*
X4277D01*
X4605Y70825D01*
Y69841D01*
X3621D01*
X3293Y70169D01*
X3621Y70497D01*
X4605D01*
X5261Y69841D02*
Y71153D01*
X5589D01*
X5917Y70825D01*
Y69841D01*
Y70825D01*
X6245Y71153D01*
X6573Y70825D01*
Y69841D01*
X8213D02*
X7557D01*
X7229Y70169D01*
Y70825D01*
X7557Y71153D01*
X8213D01*
X8541Y70825D01*
Y70497D01*
X7229D01*
D32*
X-29628Y-63158D02*
X-30940D01*
Y-64142D01*
X-30284D01*
X-30940D01*
Y-65126D01*
X-28972Y-63814D02*
Y-65126D01*
Y-64470D01*
X-28644Y-64142D01*
X-28316Y-63814D01*
X-27988D01*
X-26676D02*
X-26020D01*
X-25692Y-64142D01*
Y-65126D01*
X-26676D01*
X-27004Y-64798D01*
X-26676Y-64470D01*
X-25692D01*
X-25036Y-65126D02*
Y-63814D01*
X-24708D01*
X-24380Y-64142D01*
Y-65126D01*
Y-64142D01*
X-24052Y-63814D01*
X-23725Y-64142D01*
Y-65126D01*
X-22085D02*
X-22741D01*
X-23069Y-64798D01*
Y-64142D01*
X-22741Y-63814D01*
X-22085D01*
X-21757Y-64142D01*
Y-64470D01*
X-23069D01*
X-17821Y-63158D02*
Y-65126D01*
X-18805D01*
X-19133Y-64798D01*
Y-64142D01*
X-18805Y-63814D01*
X-17821D01*
X-16181Y-65126D02*
X-16837D01*
X-17165Y-64798D01*
Y-64142D01*
X-16837Y-63814D01*
X-16181D01*
X-15853Y-64142D01*
Y-64470D01*
X-17165D01*
X-14869Y-63486D02*
Y-63814D01*
X-15197D01*
X-14541D01*
X-14869D01*
Y-64798D01*
X-14541Y-65126D01*
X-13229Y-63814D02*
X-12573D01*
X-12245Y-64142D01*
Y-65126D01*
X-13229D01*
X-13557Y-64798D01*
X-13229Y-64470D01*
X-12245D01*
X-11589Y-65126D02*
X-10933D01*
X-11261D01*
Y-63814D01*
X-11589D01*
X-9949Y-65126D02*
X-9293D01*
X-9621D01*
Y-63158D01*
X-9949D01*
X-6014Y-65126D02*
Y-63486D01*
Y-64142D01*
X-6342D01*
X-5686D01*
X-6014D01*
Y-63486D01*
X-5686Y-63158D01*
X-4374Y-65126D02*
X-3718D01*
X-3390Y-64798D01*
Y-64142D01*
X-3718Y-63814D01*
X-4374D01*
X-4702Y-64142D01*
Y-64798D01*
X-4374Y-65126D01*
X-2734Y-63814D02*
Y-65126D01*
Y-64470D01*
X-2406Y-64142D01*
X-2078Y-63814D01*
X-1750D01*
X2514Y-63486D02*
X2186Y-63158D01*
X1530D01*
X1202Y-63486D01*
Y-63814D01*
X1530Y-64142D01*
X2186D01*
X2514Y-64470D01*
Y-64798D01*
X2186Y-65126D01*
X1530D01*
X1202Y-64798D01*
X3498Y-63486D02*
Y-63814D01*
X3170D01*
X3826D01*
X3498D01*
Y-64798D01*
X3826Y-65126D01*
X5794D02*
X5138D01*
X4810Y-64798D01*
Y-64142D01*
X5138Y-63814D01*
X5794D01*
X6121Y-64142D01*
Y-64470D01*
X4810D01*
X6777Y-65126D02*
Y-63814D01*
X7761D01*
X8089Y-64142D01*
Y-65126D01*
X10057Y-63814D02*
X9073D01*
X8745Y-64142D01*
Y-64798D01*
X9073Y-65126D01*
X10057D01*
X10713D02*
X11369D01*
X11041D01*
Y-63814D01*
X10713D01*
X12353Y-65126D02*
X13009D01*
X12681D01*
Y-63158D01*
X12353D01*
X15961Y-65126D02*
Y-63158D01*
X16945D01*
X17273Y-63486D01*
Y-64142D01*
X16945Y-64470D01*
X15961D01*
X17929Y-63814D02*
Y-65126D01*
Y-64470D01*
X18257Y-64142D01*
X18585Y-63814D01*
X18913D01*
X19897Y-65126D02*
X20553D01*
X20225D01*
Y-63814D01*
X19897D01*
X21536Y-65126D02*
Y-63814D01*
X22520D01*
X22848Y-64142D01*
Y-65126D01*
X23832Y-63486D02*
Y-63814D01*
X23504D01*
X24160D01*
X23832D01*
Y-64798D01*
X24160Y-65126D01*
X26128D02*
X25472D01*
X25144Y-64798D01*
Y-64142D01*
X25472Y-63814D01*
X26128D01*
X26456Y-64142D01*
Y-64470D01*
X25144D01*
X27112Y-63814D02*
Y-65126D01*
Y-64470D01*
X27440Y-64142D01*
X27768Y-63814D01*
X28096D01*
X31048Y-65126D02*
Y-63158D01*
X31704Y-63814D01*
X32360Y-63158D01*
Y-65126D01*
X34000D02*
X33344D01*
X33016Y-64798D01*
Y-64142D01*
X33344Y-63814D01*
X34000D01*
X34328Y-64142D01*
Y-64470D01*
X33016D01*
X36295Y-63814D02*
X35312D01*
X34984Y-64142D01*
Y-64798D01*
X35312Y-65126D01*
X36295D01*
X36951Y-63158D02*
Y-65126D01*
Y-64142D01*
X37279Y-63814D01*
X37935D01*
X38263Y-64142D01*
Y-65126D01*
X39247Y-63814D02*
X39903D01*
X40231Y-64142D01*
Y-65126D01*
X39247D01*
X38919Y-64798D01*
X39247Y-64470D01*
X40231D01*
X41215Y-63486D02*
Y-63814D01*
X40887D01*
X41543D01*
X41215D01*
Y-64798D01*
X41543Y-65126D01*
X42527Y-63814D02*
Y-65126D01*
Y-64470D01*
X42855Y-64142D01*
X43183Y-63814D01*
X43511D01*
X44823Y-65126D02*
X45479D01*
X45807Y-64798D01*
Y-64142D01*
X45479Y-63814D01*
X44823D01*
X44495Y-64142D01*
Y-64798D01*
X44823Y-65126D01*
X46463D02*
Y-63814D01*
X47447D01*
X47775Y-64142D01*
Y-65126D01*
X48431D02*
X49087D01*
X48759D01*
Y-63814D01*
X48431D01*
X50071Y-65126D02*
Y-63158D01*
Y-64470D02*
X51054Y-63814D01*
X50071Y-64470D02*
X51054Y-65126D01*
X52366Y-63814D02*
X53022D01*
X53350Y-64142D01*
Y-65126D01*
X52366D01*
X52038Y-64798D01*
X52366Y-64470D01*
X53350D01*
X55974Y-65126D02*
Y-63158D01*
X56630Y-63814D01*
X57286Y-63158D01*
Y-65126D01*
X59254Y-63486D02*
X58926Y-63158D01*
X58270D01*
X57942Y-63486D01*
Y-63814D01*
X58270Y-64142D01*
X58926D01*
X59254Y-64470D01*
Y-64798D01*
X58926Y-65126D01*
X58270D01*
X57942Y-64798D01*
X61222Y-65126D02*
X59910D01*
X61222Y-63814D01*
Y-63486D01*
X60894Y-63158D01*
X60238D01*
X59910Y-63486D01*
X61878D02*
X62206Y-63158D01*
X62862D01*
X63190Y-63486D01*
Y-64798D01*
X62862Y-65126D01*
X62206D01*
X61878Y-64798D01*
Y-63486D01*
M02*
