G04 Layer_Color=128*
%FSLAX24Y24*%
%MOIN*%
G70*
G01*
G75*
%ADD10C,0.0100*%
%ADD94C,0.0050*%
D10*
X-4952Y-6455D02*
X40728D01*
X-4952Y-8305D02*
Y-6455D01*
Y-8305D02*
X40728D01*
Y-6455D01*
Y-5505D02*
Y-3655D01*
X-4952Y-5505D02*
X40728D01*
X-4952D02*
Y-3655D01*
X40728D01*
X4528Y-7021D02*
Y-7878D01*
X4570Y-7021D02*
Y-7878D01*
X4528Y-7021D02*
X4742D01*
X4528Y-7878D02*
X4742D01*
X4857Y-7107D02*
X4943Y-7064D01*
X5072Y-6935D01*
Y-7835D01*
X5774Y-6935D02*
X5646Y-6978D01*
X5560Y-7107D01*
X5517Y-7321D01*
Y-7449D01*
X5560Y-7664D01*
X5646Y-7792D01*
X5774Y-7835D01*
X5860D01*
X5989Y-7792D01*
X6074Y-7664D01*
X6117Y-7449D01*
Y-7321D01*
X6074Y-7107D01*
X5989Y-6978D01*
X5860Y-6935D01*
X5774D01*
X6833D02*
X6404D01*
X6361Y-7321D01*
X6404Y-7278D01*
X6533Y-7235D01*
X6661D01*
X6790Y-7278D01*
X6876Y-7364D01*
X6918Y-7492D01*
Y-7578D01*
X6876Y-7706D01*
X6790Y-7792D01*
X6661Y-7835D01*
X6533D01*
X6404Y-7792D01*
X6361Y-7749D01*
X6319Y-7664D01*
X7120Y-7107D02*
X7206Y-7064D01*
X7334Y-6935D01*
Y-7835D01*
X7823Y-7749D02*
X7780Y-7792D01*
X7823Y-7835D01*
X7865Y-7792D01*
X7823Y-7749D01*
X8320Y-6935D02*
X8191Y-6978D01*
X8105Y-7107D01*
X8063Y-7321D01*
Y-7449D01*
X8105Y-7664D01*
X8191Y-7792D01*
X8320Y-7835D01*
X8405D01*
X8534Y-7792D01*
X8620Y-7664D01*
X8662Y-7449D01*
Y-7321D01*
X8620Y-7107D01*
X8534Y-6978D01*
X8405Y-6935D01*
X8320D01*
X9121D02*
X8992Y-6978D01*
X8907Y-7107D01*
X8864Y-7321D01*
Y-7449D01*
X8907Y-7664D01*
X8992Y-7792D01*
X9121Y-7835D01*
X9207D01*
X9335Y-7792D01*
X9421Y-7664D01*
X9464Y-7449D01*
Y-7321D01*
X9421Y-7107D01*
X9335Y-6978D01*
X9207Y-6935D01*
X9121D01*
X9922D02*
X9794Y-6978D01*
X9708Y-7107D01*
X9665Y-7321D01*
Y-7449D01*
X9708Y-7664D01*
X9794Y-7792D01*
X9922Y-7835D01*
X10008D01*
X10136Y-7792D01*
X10222Y-7664D01*
X10265Y-7449D01*
Y-7321D01*
X10222Y-7107D01*
X10136Y-6978D01*
X10008Y-6935D01*
X9922D01*
X10895D02*
X10466Y-7535D01*
X11109D01*
X10895Y-6935D02*
Y-7835D01*
X11268Y-7107D02*
X11353Y-7064D01*
X11482Y-6935D01*
Y-7835D01*
X11970Y-7749D02*
X11927Y-7792D01*
X11970Y-7835D01*
X12013Y-7792D01*
X11970Y-7749D01*
X12467Y-6935D02*
X12339Y-6978D01*
X12253Y-7107D01*
X12210Y-7321D01*
Y-7449D01*
X12253Y-7664D01*
X12339Y-7792D01*
X12467Y-7835D01*
X12553D01*
X12682Y-7792D01*
X12767Y-7664D01*
X12810Y-7449D01*
Y-7321D01*
X12767Y-7107D01*
X12682Y-6978D01*
X12553Y-6935D01*
X12467D01*
X13269D02*
X13140Y-6978D01*
X13054Y-7107D01*
X13011Y-7321D01*
Y-7449D01*
X13054Y-7664D01*
X13140Y-7792D01*
X13269Y-7835D01*
X13354D01*
X13483Y-7792D01*
X13568Y-7664D01*
X13611Y-7449D01*
Y-7321D01*
X13568Y-7107D01*
X13483Y-6978D01*
X13354Y-6935D01*
X13269D01*
X13813Y-8135D02*
X14498D01*
X14871Y-6935D02*
X14743Y-6978D01*
X14657Y-7107D01*
X14614Y-7321D01*
Y-7449D01*
X14657Y-7664D01*
X14743Y-7792D01*
X14871Y-7835D01*
X14957D01*
X15085Y-7792D01*
X15171Y-7664D01*
X15214Y-7449D01*
Y-7321D01*
X15171Y-7107D01*
X15085Y-6978D01*
X14957Y-6935D01*
X14871D01*
X15415Y-7449D02*
X16186D01*
X17138Y-7835D02*
X16795Y-6935D01*
X16452Y-7835D01*
X16581Y-7535D02*
X17009D01*
X17391Y-7749D02*
X17348Y-7792D01*
X17391Y-7835D01*
X17433Y-7792D01*
X17391Y-7749D01*
X17716Y-6935D02*
X18187D01*
X17930Y-7278D01*
X18059D01*
X18145Y-7321D01*
X18187Y-7364D01*
X18230Y-7492D01*
Y-7578D01*
X18187Y-7706D01*
X18102Y-7792D01*
X17973Y-7835D01*
X17845D01*
X17716Y-7792D01*
X17673Y-7749D01*
X17630Y-7664D01*
X18603Y-7021D02*
Y-7878D01*
X18646Y-7021D02*
Y-7878D01*
X18432Y-7021D02*
X18646D01*
X18432Y-7878D02*
X18646D01*
X20159Y-7149D02*
X20116Y-7064D01*
X20030Y-6978D01*
X19944Y-6935D01*
X19773D01*
X19687Y-6978D01*
X19601Y-7064D01*
X19559Y-7149D01*
X19516Y-7278D01*
Y-7492D01*
X19559Y-7621D01*
X19601Y-7706D01*
X19687Y-7792D01*
X19773Y-7835D01*
X19944D01*
X20030Y-7792D01*
X20116Y-7706D01*
X20159Y-7621D01*
X20411Y-6935D02*
Y-7835D01*
Y-6935D02*
X20797D01*
X20925Y-6978D01*
X20968Y-7021D01*
X21011Y-7107D01*
Y-7192D01*
X20968Y-7278D01*
X20925Y-7321D01*
X20797Y-7364D01*
X20411D02*
X20797D01*
X20925Y-7407D01*
X20968Y-7449D01*
X21011Y-7535D01*
Y-7664D01*
X20968Y-7749D01*
X20925Y-7792D01*
X20797Y-7835D01*
X20411D01*
X21812Y-7064D02*
X21727Y-6978D01*
X21598Y-6935D01*
X21427D01*
X21298Y-6978D01*
X21213Y-7064D01*
Y-7149D01*
X21255Y-7235D01*
X21298Y-7278D01*
X21384Y-7321D01*
X21641Y-7407D01*
X21727Y-7449D01*
X21770Y-7492D01*
X21812Y-7578D01*
Y-7706D01*
X21727Y-7792D01*
X21598Y-7835D01*
X21427D01*
X21298Y-7792D01*
X21213Y-7706D01*
X22057Y-7149D02*
Y-7107D01*
X22100Y-7021D01*
X22142Y-6978D01*
X22228Y-6935D01*
X22399D01*
X22485Y-6978D01*
X22528Y-7021D01*
X22571Y-7107D01*
Y-7192D01*
X22528Y-7278D01*
X22442Y-7407D01*
X22014Y-7835D01*
X22614D01*
X22815Y-7107D02*
X22901Y-7064D01*
X23029Y-6935D01*
Y-7835D01*
X23732Y-6935D02*
X23603Y-6978D01*
X23518Y-7107D01*
X23475Y-7321D01*
Y-7449D01*
X23518Y-7664D01*
X23603Y-7792D01*
X23732Y-7835D01*
X23818D01*
X23946Y-7792D01*
X24032Y-7664D01*
X24075Y-7449D01*
Y-7321D01*
X24032Y-7107D01*
X23946Y-6978D01*
X23818Y-6935D01*
X23732D01*
X24533D02*
X24405Y-6978D01*
X24319Y-7107D01*
X24276Y-7321D01*
Y-7449D01*
X24319Y-7664D01*
X24405Y-7792D01*
X24533Y-7835D01*
X24619D01*
X24748Y-7792D01*
X24833Y-7664D01*
X24876Y-7449D01*
Y-7321D01*
X24833Y-7107D01*
X24748Y-6978D01*
X24619Y-6935D01*
X24533D01*
X25634D02*
X25077D01*
Y-7835D01*
X25634D01*
X25077Y-7364D02*
X25420D01*
X26341Y-6935D02*
X25784D01*
Y-7835D01*
X26341D01*
X25784Y-7364D02*
X26127D01*
X26534Y-7749D02*
X26491Y-7792D01*
X26534Y-7835D01*
X26577Y-7792D01*
X26534Y-7749D01*
X27417Y-7149D02*
X27374Y-7064D01*
X27288Y-6978D01*
X27203Y-6935D01*
X27031D01*
X26946Y-6978D01*
X26860Y-7064D01*
X26817Y-7149D01*
X26774Y-7278D01*
Y-7492D01*
X26817Y-7621D01*
X26860Y-7706D01*
X26946Y-7792D01*
X27031Y-7835D01*
X27203D01*
X27288Y-7792D01*
X27374Y-7706D01*
X27417Y-7621D01*
Y-7492D01*
X27203D02*
X27417D01*
X28265Y-7149D02*
X28222Y-7064D01*
X28137Y-6978D01*
X28051Y-6935D01*
X27880D01*
X27794Y-6978D01*
X27708Y-7064D01*
X27665Y-7149D01*
X27623Y-7278D01*
Y-7492D01*
X27665Y-7621D01*
X27708Y-7706D01*
X27794Y-7792D01*
X27880Y-7835D01*
X28051D01*
X28137Y-7792D01*
X28222Y-7706D01*
X28265Y-7621D01*
Y-7492D01*
X28051D02*
X28265D01*
X28471Y-7107D02*
X28557Y-7064D01*
X28685Y-6935D01*
Y-7835D01*
X-4462Y-7407D02*
X-4077D01*
X-3948Y-7364D01*
X-3905Y-7321D01*
X-3863Y-7235D01*
Y-7107D01*
X-3905Y-7021D01*
X-3948Y-6978D01*
X-4077Y-6935D01*
X-4462D01*
Y-7835D01*
X-3661Y-6935D02*
Y-7835D01*
X-3147D01*
X-2791Y-6935D02*
X-2877Y-6978D01*
X-2963Y-7064D01*
X-3006Y-7149D01*
X-3048Y-7278D01*
Y-7492D01*
X-3006Y-7621D01*
X-2963Y-7706D01*
X-2877Y-7792D01*
X-2791Y-7835D01*
X-2620D01*
X-2534Y-7792D01*
X-2449Y-7706D01*
X-2406Y-7621D01*
X-2363Y-7492D01*
Y-7278D01*
X-2406Y-7149D01*
X-2449Y-7064D01*
X-2534Y-6978D01*
X-2620Y-6935D01*
X-2791D01*
X-1853D02*
Y-7835D01*
X-2153Y-6935D02*
X-1553D01*
X-739D02*
Y-7835D01*
Y-6935D02*
X-182D01*
X-739Y-7364D02*
X-396D01*
X-79Y-6935D02*
Y-7835D01*
X109Y-6935D02*
Y-7835D01*
X624D01*
X1279Y-6935D02*
X722D01*
Y-7835D01*
X1279D01*
X722Y-7364D02*
X1065D01*
X1472Y-7235D02*
X1429Y-7278D01*
X1472Y-7321D01*
X1515Y-7278D01*
X1472Y-7235D01*
Y-7749D02*
X1429Y-7792D01*
X1472Y-7835D01*
X1515Y-7792D01*
X1472Y-7749D01*
X-4462Y-4135D02*
Y-5035D01*
X-3948D01*
X-3164D02*
X-3507Y-4135D01*
X-3850Y-5035D01*
X-3721Y-4735D02*
X-3293D01*
X-2954Y-4135D02*
X-2611Y-4564D01*
Y-5035D01*
X-2269Y-4135D02*
X-2611Y-4564D01*
X-1596Y-4135D02*
X-2153D01*
Y-5035D01*
X-1596D01*
X-2153Y-4564D02*
X-1810D01*
X-1446Y-4135D02*
Y-5035D01*
Y-4135D02*
X-1060D01*
X-932Y-4178D01*
X-889Y-4221D01*
X-846Y-4307D01*
Y-4392D01*
X-889Y-4478D01*
X-932Y-4521D01*
X-1060Y-4564D01*
X-1446D01*
X-1146D02*
X-846Y-5035D01*
X62Y-4135D02*
Y-5035D01*
Y-4135D02*
X662Y-5035D01*
Y-4135D02*
Y-5035D01*
X1596D02*
X1253Y-4135D01*
X911Y-5035D01*
X1039Y-4735D02*
X1468D01*
X1806Y-4135D02*
Y-5035D01*
Y-4135D02*
X2149Y-5035D01*
X2492Y-4135D02*
X2149Y-5035D01*
X2492Y-4135D02*
Y-5035D01*
X3306Y-4135D02*
X2749D01*
Y-5035D01*
X3306D01*
X2749Y-4564D02*
X3092D01*
X3499Y-4435D02*
X3456Y-4478D01*
X3499Y-4521D01*
X3542Y-4478D01*
X3499Y-4435D01*
Y-4949D02*
X3456Y-4992D01*
X3499Y-5035D01*
X3542Y-4992D01*
X3499Y-4949D01*
X4528Y-4135D02*
Y-5035D01*
Y-4135D02*
X4827D01*
X4956Y-4178D01*
X5042Y-4264D01*
X5085Y-4349D01*
X5127Y-4478D01*
Y-4692D01*
X5085Y-4821D01*
X5042Y-4906D01*
X4956Y-4992D01*
X4827Y-5035D01*
X4528D01*
X5329Y-4435D02*
Y-5035D01*
Y-4692D02*
X5372Y-4564D01*
X5457Y-4478D01*
X5543Y-4435D01*
X5672D01*
X5839Y-4135D02*
X5882Y-4178D01*
X5924Y-4135D01*
X5882Y-4092D01*
X5839Y-4135D01*
X5882Y-4435D02*
Y-5035D01*
X6083Y-4135D02*
Y-5035D01*
X6271Y-4135D02*
Y-5035D01*
X7810Y-4349D02*
X7767Y-4264D01*
X7681Y-4178D01*
X7595Y-4135D01*
X7424D01*
X7338Y-4178D01*
X7253Y-4264D01*
X7210Y-4349D01*
X7167Y-4478D01*
Y-4692D01*
X7210Y-4821D01*
X7253Y-4906D01*
X7338Y-4992D01*
X7424Y-5035D01*
X7595D01*
X7681Y-4992D01*
X7767Y-4906D01*
X7810Y-4821D01*
Y-4692D01*
X7595D02*
X7810D01*
X8015Y-4435D02*
Y-4864D01*
X8058Y-4992D01*
X8144Y-5035D01*
X8272D01*
X8358Y-4992D01*
X8487Y-4864D01*
Y-4435D02*
Y-5035D01*
X8808Y-4135D02*
X8851Y-4178D01*
X8894Y-4135D01*
X8851Y-4092D01*
X8808Y-4135D01*
X8851Y-4435D02*
Y-5035D01*
X9566Y-4135D02*
Y-5035D01*
Y-4564D02*
X9481Y-4478D01*
X9395Y-4435D01*
X9267D01*
X9181Y-4478D01*
X9095Y-4564D01*
X9052Y-4692D01*
Y-4778D01*
X9095Y-4906D01*
X9181Y-4992D01*
X9267Y-5035D01*
X9395D01*
X9481Y-4992D01*
X9566Y-4906D01*
X9806Y-4692D02*
X10321D01*
Y-4607D01*
X10278Y-4521D01*
X10235Y-4478D01*
X10149Y-4435D01*
X10021D01*
X9935Y-4478D01*
X9849Y-4564D01*
X9806Y-4692D01*
Y-4778D01*
X9849Y-4906D01*
X9935Y-4992D01*
X10021Y-5035D01*
X10149D01*
X10235Y-4992D01*
X10321Y-4906D01*
X11520Y-3964D02*
X11435Y-4049D01*
X11349Y-4178D01*
X11263Y-4349D01*
X11220Y-4564D01*
Y-4735D01*
X11263Y-4949D01*
X11349Y-5121D01*
X11435Y-5249D01*
X11520Y-5335D01*
X11435Y-4049D02*
X11349Y-4221D01*
X11306Y-4349D01*
X11263Y-4564D01*
Y-4735D01*
X11306Y-4949D01*
X11349Y-5078D01*
X11435Y-5249D01*
X11692Y-4135D02*
Y-5035D01*
Y-4135D02*
X12077D01*
X12206Y-4178D01*
X12249Y-4221D01*
X12292Y-4307D01*
Y-4392D01*
X12249Y-4478D01*
X12206Y-4521D01*
X12077Y-4564D01*
X11692D02*
X12077D01*
X12206Y-4607D01*
X12249Y-4649D01*
X12292Y-4735D01*
Y-4864D01*
X12249Y-4949D01*
X12206Y-4992D01*
X12077Y-5035D01*
X11692D01*
X12707Y-4435D02*
X12622Y-4478D01*
X12536Y-4564D01*
X12493Y-4692D01*
Y-4778D01*
X12536Y-4906D01*
X12622Y-4992D01*
X12707Y-5035D01*
X12836D01*
X12921Y-4992D01*
X13007Y-4906D01*
X13050Y-4778D01*
Y-4692D01*
X13007Y-4564D01*
X12921Y-4478D01*
X12836Y-4435D01*
X12707D01*
X13376Y-4135D02*
Y-4864D01*
X13419Y-4992D01*
X13504Y-5035D01*
X13590D01*
X13247Y-4435D02*
X13547D01*
X13847Y-4135D02*
Y-4864D01*
X13890Y-4992D01*
X13976Y-5035D01*
X14061D01*
X13718Y-4435D02*
X14018D01*
X14404D02*
X14318Y-4478D01*
X14233Y-4564D01*
X14190Y-4692D01*
Y-4778D01*
X14233Y-4906D01*
X14318Y-4992D01*
X14404Y-5035D01*
X14533D01*
X14618Y-4992D01*
X14704Y-4906D01*
X14747Y-4778D01*
Y-4692D01*
X14704Y-4564D01*
X14618Y-4478D01*
X14533Y-4435D01*
X14404D01*
X14944D02*
Y-5035D01*
Y-4607D02*
X15072Y-4478D01*
X15158Y-4435D01*
X15287D01*
X15372Y-4478D01*
X15415Y-4607D01*
Y-5035D01*
Y-4607D02*
X15544Y-4478D01*
X15629Y-4435D01*
X15758D01*
X15844Y-4478D01*
X15887Y-4607D01*
Y-5035D01*
X16876Y-4135D02*
Y-5035D01*
X17391D01*
X18003Y-4435D02*
Y-5035D01*
Y-4564D02*
X17918Y-4478D01*
X17832Y-4435D01*
X17703D01*
X17618Y-4478D01*
X17532Y-4564D01*
X17489Y-4692D01*
Y-4778D01*
X17532Y-4906D01*
X17618Y-4992D01*
X17703Y-5035D01*
X17832D01*
X17918Y-4992D01*
X18003Y-4906D01*
X18286Y-4435D02*
X18543Y-5035D01*
X18800Y-4435D02*
X18543Y-5035D01*
X18457Y-5206D01*
X18372Y-5292D01*
X18286Y-5335D01*
X18243D01*
X18950Y-4692D02*
X19464D01*
Y-4607D01*
X19422Y-4521D01*
X19379Y-4478D01*
X19293Y-4435D01*
X19164D01*
X19079Y-4478D01*
X18993Y-4564D01*
X18950Y-4692D01*
Y-4778D01*
X18993Y-4906D01*
X19079Y-4992D01*
X19164Y-5035D01*
X19293D01*
X19379Y-4992D01*
X19464Y-4906D01*
X19657Y-4435D02*
Y-5035D01*
Y-4692D02*
X19700Y-4564D01*
X19786Y-4478D01*
X19871Y-4435D01*
X20000D01*
X20167Y-4992D02*
X20124Y-5035D01*
X20081Y-4992D01*
X20124Y-4949D01*
X20167Y-4992D01*
Y-5078D01*
X20124Y-5164D01*
X20081Y-5206D01*
X21371Y-4135D02*
Y-5035D01*
X21071Y-4135D02*
X21671D01*
X21992Y-4435D02*
X21907Y-4478D01*
X21821Y-4564D01*
X21778Y-4692D01*
Y-4778D01*
X21821Y-4906D01*
X21907Y-4992D01*
X21992Y-5035D01*
X22121D01*
X22207Y-4992D01*
X22292Y-4906D01*
X22335Y-4778D01*
Y-4692D01*
X22292Y-4564D01*
X22207Y-4478D01*
X22121Y-4435D01*
X21992D01*
X22532D02*
Y-5335D01*
Y-4564D02*
X22618Y-4478D01*
X22704Y-4435D01*
X22832D01*
X22918Y-4478D01*
X23004Y-4564D01*
X23046Y-4692D01*
Y-4778D01*
X23004Y-4906D01*
X22918Y-4992D01*
X22832Y-5035D01*
X22704D01*
X22618Y-4992D01*
X22532Y-4906D01*
X23946Y-4135D02*
Y-5035D01*
X24460D01*
X25073Y-4435D02*
Y-5035D01*
Y-4564D02*
X24987Y-4478D01*
X24902Y-4435D01*
X24773D01*
X24688Y-4478D01*
X24602Y-4564D01*
X24559Y-4692D01*
Y-4778D01*
X24602Y-4906D01*
X24688Y-4992D01*
X24773Y-5035D01*
X24902D01*
X24987Y-4992D01*
X25073Y-4906D01*
X25356Y-4435D02*
X25613Y-5035D01*
X25870Y-4435D02*
X25613Y-5035D01*
X25527Y-5206D01*
X25442Y-5292D01*
X25356Y-5335D01*
X25313D01*
X26020Y-4692D02*
X26534D01*
Y-4607D01*
X26491Y-4521D01*
X26449Y-4478D01*
X26363Y-4435D01*
X26234D01*
X26149Y-4478D01*
X26063Y-4564D01*
X26020Y-4692D01*
Y-4778D01*
X26063Y-4906D01*
X26149Y-4992D01*
X26234Y-5035D01*
X26363D01*
X26449Y-4992D01*
X26534Y-4906D01*
X26727Y-4435D02*
Y-5035D01*
Y-4692D02*
X26770Y-4564D01*
X26856Y-4478D01*
X26941Y-4435D01*
X27070D01*
X27151Y-3964D02*
X27237Y-4049D01*
X27323Y-4178D01*
X27408Y-4349D01*
X27451Y-4564D01*
Y-4735D01*
X27408Y-4949D01*
X27323Y-5121D01*
X27237Y-5249D01*
X27151Y-5335D01*
X27237Y-4049D02*
X27323Y-4221D01*
X27366Y-4349D01*
X27408Y-4564D01*
Y-4735D01*
X27366Y-4949D01*
X27323Y-5078D01*
X27237Y-5249D01*
D94*
X2050Y33047D02*
X2750D01*
X2400Y32697D02*
Y33397D01*
X2050Y31488D02*
X2750D01*
X2400Y31138D02*
Y31838D01*
X2050Y29929D02*
X2750D01*
X2400Y29579D02*
Y30279D01*
X2050Y28370D02*
X2750D01*
X2400Y28020D02*
Y28720D01*
X2050Y26811D02*
X2750D01*
X2400Y26461D02*
Y27161D01*
X2050Y25252D02*
X2750D01*
X2400Y24902D02*
Y25602D01*
X2050Y23693D02*
X2750D01*
X2400Y23343D02*
Y24043D01*
X2050Y22134D02*
X2750D01*
X2400Y21784D02*
Y22484D01*
X2050Y20575D02*
X2750D01*
X2400Y20225D02*
Y20925D01*
X2050Y19016D02*
X2750D01*
X2400Y18666D02*
Y19366D01*
X2050Y39100D02*
X2750D01*
X2400Y38750D02*
Y39450D01*
X2050Y37541D02*
X2750D01*
X2400Y37191D02*
Y37891D01*
X2050Y15898D02*
X2750D01*
X2400Y15548D02*
Y16248D01*
X2050Y14339D02*
X2750D01*
X2400Y13989D02*
Y14689D01*
X2050Y12780D02*
X2750D01*
X2400Y12430D02*
Y13130D01*
X2050Y11220D02*
X2750D01*
X2400Y10870D02*
Y11570D01*
X8596Y26622D02*
X8871D01*
X8734Y26484D02*
Y26760D01*
X8596Y26122D02*
X8871D01*
X8734Y25984D02*
Y26260D01*
X8596Y25622D02*
X8871D01*
X8734Y25484D02*
Y25760D01*
X8596Y25122D02*
X8871D01*
X8734Y24984D02*
Y25260D01*
X8596Y24622D02*
X8871D01*
X8734Y24484D02*
Y24760D01*
X8596Y24122D02*
X8871D01*
X8734Y23984D02*
Y24260D01*
X8596Y23622D02*
X8871D01*
X8734Y23484D02*
Y23760D01*
X8596Y23122D02*
X8871D01*
X8734Y22984D02*
Y23260D01*
X8596Y22622D02*
X8871D01*
X8734Y22484D02*
Y22760D01*
X8596Y22122D02*
X8871D01*
X8734Y21984D02*
Y22260D01*
X8596Y21622D02*
X8871D01*
X8734Y21484D02*
Y21760D01*
X8596Y21122D02*
X8871D01*
X8734Y20984D02*
Y21260D01*
X8596Y20622D02*
X8871D01*
X8734Y20484D02*
Y20760D01*
X8596Y20122D02*
X8871D01*
X8734Y19984D02*
Y20260D01*
X8596Y19622D02*
X8871D01*
X8734Y19484D02*
Y19760D01*
X19655Y29263D02*
X20639D01*
X20147Y28771D02*
Y29756D01*
X8238Y29263D02*
X9222D01*
X8730Y28771D02*
Y29756D01*
X19655Y16980D02*
X20639D01*
X20147Y16488D02*
Y17472D01*
X8238Y16980D02*
X9222D01*
X8730Y16488D02*
Y17472D01*
X8862Y35135D02*
X9138D01*
X9000Y34997D02*
Y35273D01*
X9362Y35135D02*
X9638D01*
X9500Y34997D02*
Y35273D01*
X9862Y35135D02*
X10138D01*
X10000Y34997D02*
Y35273D01*
X10362Y35135D02*
X10638D01*
X10500Y34997D02*
Y35273D01*
X10862Y35135D02*
X11138D01*
X11000Y34997D02*
Y35273D01*
X11362Y35135D02*
X11638D01*
X11500Y34997D02*
Y35273D01*
X11862Y35135D02*
X12138D01*
X12000Y34997D02*
Y35273D01*
X12362Y35135D02*
X12638D01*
X12500Y34997D02*
Y35273D01*
X12862Y35135D02*
X13138D01*
X13000Y34997D02*
Y35273D01*
X13362Y35135D02*
X13638D01*
X13500Y34997D02*
Y35273D01*
X13862Y35135D02*
X14138D01*
X14000Y34997D02*
Y35273D01*
X14362Y35135D02*
X14638D01*
X14500Y34997D02*
Y35273D01*
X14862Y35135D02*
X15138D01*
X15000Y34997D02*
Y35273D01*
X15362Y35135D02*
X15638D01*
X15500Y34997D02*
Y35273D01*
X15862Y35135D02*
X16138D01*
X16000Y34997D02*
Y35273D01*
X5866Y46549D02*
X6850D01*
X6358Y46057D02*
Y47041D01*
X5866Y35131D02*
X6850D01*
X6358Y34639D02*
Y35623D01*
X18150Y46549D02*
X19134D01*
X18642Y46057D02*
Y47041D01*
X18150Y35131D02*
X19134D01*
X18642Y34639D02*
Y35623D01*
X6071Y9659D02*
X6386D01*
X6228Y9501D02*
Y9816D01*
X7495Y4560D02*
X7845D01*
X7670Y4385D02*
Y4735D01*
X7495Y5560D02*
X7845D01*
X7670Y5385D02*
Y5735D01*
X7700Y8930D02*
X8100D01*
X7900Y8730D02*
Y9130D01*
X9700Y8930D02*
X10100D01*
X9900Y8730D02*
Y9130D01*
X16590Y49180D02*
X16990D01*
X16790Y48980D02*
Y49380D01*
X15590Y49180D02*
X15990D01*
X15790Y48980D02*
Y49380D01*
X14590Y49180D02*
X14990D01*
X14790Y48980D02*
Y49380D01*
X13590Y49180D02*
X13990D01*
X13790Y48980D02*
Y49380D01*
X2200Y43051D02*
X2600D01*
X2400Y42851D02*
Y43251D01*
X2200Y44051D02*
X2600D01*
X2400Y43851D02*
Y44251D01*
X10942Y40010D02*
X11218D01*
X11080Y39872D02*
Y40148D01*
X11942Y40010D02*
X12218D01*
X12080Y39872D02*
Y40148D01*
X12942Y40010D02*
X13218D01*
X13080Y39872D02*
Y40148D01*
X5404Y2958D02*
X5719D01*
X5561Y2801D02*
Y3116D01*
X7514Y2958D02*
X7829D01*
X7671Y2801D02*
Y3116D01*
X17884Y3318D02*
X18199D01*
X18041Y3161D02*
Y3476D01*
X22370Y49370D02*
X23870D01*
X23120Y48620D02*
Y50120D01*
X22370Y1880D02*
X23870D01*
X23120Y1130D02*
Y2630D01*
X1130Y1880D02*
X2630D01*
X1880Y1130D02*
Y2630D01*
X1130Y49370D02*
X2630D01*
X1880Y48620D02*
Y50120D01*
X2050Y4969D02*
X2750D01*
X2400Y4618D02*
Y5318D01*
X2050Y6528D02*
X2750D01*
X2400Y6178D02*
Y6878D01*
X2050Y8087D02*
X2750D01*
X2400Y7737D02*
Y8437D01*
X23031Y9843D02*
X23425D01*
X23228Y9646D02*
Y10039D01*
X23031Y8858D02*
X23425D01*
X23228Y8661D02*
Y9055D01*
X23031Y7874D02*
X23425D01*
X23228Y7677D02*
Y8071D01*
X23031Y6890D02*
X23425D01*
X23228Y6693D02*
Y7087D01*
X23031Y5906D02*
X23425D01*
X23228Y5709D02*
Y6102D01*
X11300Y49180D02*
X11700D01*
X11500Y48980D02*
Y49380D01*
X10300Y49180D02*
X10700D01*
X10500Y48980D02*
Y49380D01*
X9300Y49180D02*
X9700D01*
X9500Y48980D02*
Y49380D01*
X8300Y49180D02*
X8700D01*
X8500Y48980D02*
Y49380D01*
X3500Y12120D02*
X3580D01*
X3540Y12080D02*
Y12160D01*
X3520Y13460D02*
X3600D01*
X3560Y13420D02*
Y13500D01*
X17110Y18280D02*
X17190D01*
X17150Y18240D02*
Y18320D01*
X17110Y18010D02*
X17190D01*
X17150Y17970D02*
Y18050D01*
X4490Y19020D02*
X4570D01*
X4530Y18980D02*
Y19060D01*
X3965Y22145D02*
X4045D01*
X4005Y22105D02*
Y22185D01*
X3965Y27045D02*
X4045D01*
X4005Y27005D02*
Y27085D01*
X4150Y19020D02*
X4230D01*
X4190Y18980D02*
Y19060D01*
X3695Y22145D02*
X3775D01*
X3735Y22105D02*
Y22185D01*
X3678Y25252D02*
X3758D01*
X3718Y25212D02*
Y25292D01*
X3740Y26820D02*
X3820D01*
X3780Y26780D02*
Y26860D01*
X15190Y15790D02*
X15270D01*
X15230Y15750D02*
Y15830D01*
X17795Y16985D02*
X17875D01*
X17835Y16945D02*
Y17025D01*
X18010Y17200D02*
X18090D01*
X18050Y17160D02*
Y17240D01*
X7090Y19210D02*
X7170D01*
X7130Y19170D02*
Y19250D01*
X7090Y18900D02*
X7170D01*
X7130Y18860D02*
Y18940D01*
X7500Y18530D02*
X7580D01*
X7540Y18490D02*
Y18570D01*
X7620Y19870D02*
X7700D01*
X7660Y19830D02*
Y19910D01*
X10310Y18110D02*
X10390D01*
X10350Y18070D02*
Y18150D01*
X10210Y18400D02*
X10290D01*
X10250Y18360D02*
Y18440D01*
X13240Y16140D02*
X13320D01*
X13280Y16100D02*
Y16180D01*
X11010Y16120D02*
X11090D01*
X11050Y16080D02*
Y16160D01*
X11370Y15900D02*
X11450D01*
X11410Y15860D02*
Y15940D01*
X13040Y16360D02*
X13120D01*
X13080Y16320D02*
Y16400D01*
X11160Y16360D02*
X11240D01*
X11200Y16320D02*
Y16400D01*
X10980Y16580D02*
X11060D01*
X11020Y16540D02*
Y16620D01*
X11370Y15630D02*
X11450D01*
X11410Y15590D02*
Y15670D01*
X11360Y15360D02*
X11440D01*
X11400Y15320D02*
Y15400D01*
X11390Y15090D02*
X11470D01*
X11430Y15050D02*
Y15130D01*
X13210Y16580D02*
X13290D01*
X13250Y16540D02*
Y16620D01*
X12770Y14350D02*
X12850D01*
X12810Y14310D02*
Y14390D01*
X13030Y16800D02*
X13110D01*
X13070Y16760D02*
Y16840D01*
X14130Y14360D02*
X14210D01*
X14170Y14320D02*
Y14400D01*
X14750Y16700D02*
X14830D01*
X14790Y16660D02*
Y16740D01*
X14780Y17710D02*
X14860D01*
X14820Y17670D02*
Y17750D01*
X14170Y16710D02*
X14250D01*
X14210Y16670D02*
Y16750D01*
X14440Y16710D02*
X14520D01*
X14480Y16670D02*
Y16750D01*
X15490Y14360D02*
X15570D01*
X15530Y14320D02*
Y14400D01*
X20200Y20330D02*
X20280D01*
X20240Y20290D02*
Y20370D01*
X20280Y20060D02*
X20360D01*
X20320Y20020D02*
Y20100D01*
X20350Y19540D02*
X20430D01*
X20390Y19500D02*
Y19580D01*
X18890Y20050D02*
X18970D01*
X18930Y20010D02*
Y20090D01*
X18890Y20320D02*
X18970D01*
X18930Y20280D02*
Y20360D01*
X18610Y19800D02*
X18690D01*
X18650Y19760D02*
Y19840D01*
X20350Y20840D02*
X20430D01*
X20390Y20800D02*
Y20880D01*
X18960Y16460D02*
X19040D01*
X19000Y16420D02*
Y16500D01*
X18230Y15030D02*
X18310D01*
X18270Y14990D02*
Y15070D01*
X15584Y29196D02*
X15664D01*
X15624Y29156D02*
Y29236D01*
X14836Y27004D02*
X14916D01*
X14876Y26964D02*
Y27044D01*
X14836Y29196D02*
X14916D01*
X14876Y29156D02*
Y29236D01*
X17110Y29180D02*
X17190D01*
X17150Y29140D02*
Y29220D01*
X17630Y29130D02*
X17710D01*
X17670Y29090D02*
Y29170D01*
X9550Y23622D02*
X9630D01*
X9590Y23582D02*
Y23662D01*
X6610Y26770D02*
X6690D01*
X6650Y26730D02*
Y26810D01*
X4810Y26890D02*
X4890D01*
X4850Y26850D02*
Y26930D01*
X7900Y32770D02*
X7980D01*
X7940Y32730D02*
Y32810D01*
X7730Y34310D02*
X7810D01*
X7770Y34270D02*
Y34350D01*
X6190Y33220D02*
X6270D01*
X6230Y33180D02*
Y33260D01*
X9510Y33330D02*
X9590D01*
X9550Y33290D02*
Y33370D01*
X9530Y30730D02*
X9610D01*
X9570Y30690D02*
Y30770D01*
X5100Y30660D02*
X5180D01*
X5140Y30620D02*
Y30700D01*
X3950Y21360D02*
X4030D01*
X3990Y21320D02*
Y21400D01*
X1420Y21780D02*
X1500D01*
X1460Y21740D02*
Y21820D01*
X12130Y27050D02*
X12210D01*
X12170Y27010D02*
Y27090D01*
X22400Y29210D02*
X22480D01*
X22440Y29170D02*
Y29250D01*
X20530Y31770D02*
X20610D01*
X20570Y31730D02*
Y31810D01*
X20390Y33070D02*
X20470D01*
X20430Y33030D02*
Y33110D01*
X19900Y34380D02*
X19980D01*
X19940Y34340D02*
Y34420D01*
X17910Y33610D02*
X17990D01*
X17950Y33570D02*
Y33650D01*
X14950Y32730D02*
X15030D01*
X14990Y32690D02*
Y32770D01*
X16000Y33680D02*
X16080D01*
X16040Y33640D02*
Y33720D01*
X24400Y47830D02*
X24480D01*
X24440Y47790D02*
Y47870D01*
Y34530D02*
X24520D01*
X24480Y34490D02*
Y34570D01*
X7830Y20800D02*
X7910D01*
X7870Y20760D02*
Y20840D01*
X22760Y31100D02*
X22840D01*
X22800Y31060D02*
Y31140D01*
X21360Y31400D02*
X21440D01*
X21400Y31360D02*
Y31440D01*
X22760Y31400D02*
X22840D01*
X22800Y31360D02*
Y31440D01*
X21360Y31100D02*
X21440D01*
X21400Y31060D02*
Y31140D01*
X22214Y27684D02*
X22294D01*
X22254Y27644D02*
Y27724D01*
X22214Y26636D02*
X22294D01*
X22254Y26596D02*
Y26676D01*
X22310Y15700D02*
X22390D01*
X22350Y15660D02*
Y15740D01*
X20360Y15250D02*
X20440D01*
X20400Y15210D02*
Y15290D01*
X20620Y15420D02*
X20700D01*
X20660Y15380D02*
Y15460D01*
X21740Y16150D02*
X21820D01*
X21780Y16110D02*
Y16190D01*
X21349Y14960D02*
X21429D01*
X21389Y14920D02*
Y15000D01*
X21340Y14640D02*
X21420D01*
X21380Y14600D02*
Y14680D01*
X12710Y17280D02*
X12790D01*
X12750Y17240D02*
Y17320D01*
X12510Y17500D02*
X12590D01*
X12550Y17460D02*
Y17540D01*
X21020Y6430D02*
X21100D01*
X21060Y6390D02*
Y6470D01*
X21050Y3100D02*
X21130D01*
X21090Y3060D02*
Y3140D01*
X20660Y8350D02*
X20740D01*
X20700Y8310D02*
Y8390D01*
X21050Y8740D02*
X21130D01*
X21090Y8700D02*
Y8780D01*
X21130Y9110D02*
X21210D01*
X21170Y9070D02*
Y9150D01*
X4000Y7000D02*
X4080D01*
X4040Y6960D02*
Y7040D01*
X4000Y7580D02*
X4080D01*
X4040Y7540D02*
Y7620D01*
X4000Y8100D02*
X4080D01*
X4040Y8060D02*
Y8140D01*
X4000Y8590D02*
X4080D01*
X4040Y8550D02*
Y8630D01*
X23140Y24500D02*
X23220D01*
X23180Y24460D02*
Y24540D01*
X20090Y18500D02*
X20170D01*
X20130Y18460D02*
Y18540D01*
X11260Y31850D02*
X11340D01*
X11300Y31810D02*
Y31890D01*
X14230Y26970D02*
X14310D01*
X14270Y26930D02*
Y27010D01*
X14000Y25790D02*
X14080D01*
X14040Y25750D02*
Y25830D01*
X18090Y43690D02*
X18170D01*
X18130Y43650D02*
Y43730D01*
X10590Y36820D02*
X10670D01*
X10630Y36780D02*
Y36860D01*
X1340Y24270D02*
X1420D01*
X1380Y24230D02*
Y24310D01*
X1350Y27550D02*
X1430D01*
X1390Y27510D02*
Y27590D01*
X1230Y17540D02*
X1310D01*
X1270Y17500D02*
Y17580D01*
X1360Y13560D02*
X1440D01*
X1400Y13520D02*
Y13600D01*
X3850Y10680D02*
X3930D01*
X3890Y10640D02*
Y10720D01*
X7120Y10390D02*
X7200D01*
X7160Y10350D02*
Y10430D01*
X16800Y7820D02*
X16880D01*
X16840Y7780D02*
Y7860D01*
X6530Y1580D02*
X6610D01*
X6570Y1540D02*
Y1620D01*
X18130Y13090D02*
X18210D01*
X18170Y13050D02*
Y13130D01*
X17170Y14150D02*
X17250D01*
X17210Y14110D02*
Y14190D01*
X15800Y14150D02*
X15880D01*
X15840Y14110D02*
Y14190D01*
X14440Y14150D02*
X14520D01*
X14480Y14110D02*
Y14190D01*
X13070Y14150D02*
X13150D01*
X13110Y14110D02*
Y14190D01*
X15920Y11000D02*
X16000D01*
X15960Y10960D02*
Y11040D01*
X15890Y10390D02*
X15970D01*
X15930Y10350D02*
Y10430D01*
X15910Y12490D02*
X15990D01*
X15950Y12450D02*
Y12530D01*
X14730Y11330D02*
X14810D01*
X14770Y11290D02*
Y11370D01*
X14760Y12460D02*
X14840D01*
X14800Y12420D02*
Y12500D01*
X14770Y10360D02*
X14850D01*
X14810Y10320D02*
Y10400D01*
X19970Y9320D02*
X20050D01*
X20010Y9280D02*
Y9360D01*
X19980Y10560D02*
X20060D01*
X20020Y10520D02*
Y10600D01*
X19980Y11530D02*
X20060D01*
X20020Y11490D02*
Y11570D01*
X19970Y12480D02*
X20050D01*
X20010Y12440D02*
Y12520D01*
X19050Y10380D02*
X19130D01*
X19090Y10340D02*
Y10420D01*
X19980Y13580D02*
X20060D01*
X20020Y13540D02*
Y13620D01*
X7110Y15810D02*
X7190D01*
X7150Y15770D02*
Y15850D01*
X7710Y44540D02*
X7790D01*
X7750Y44500D02*
Y44580D01*
X4290Y46340D02*
X4370D01*
X4330Y46300D02*
Y46380D01*
X4310Y43570D02*
X4390D01*
X4350Y43530D02*
Y43610D01*
X3980Y41390D02*
X4060D01*
X4020Y41350D02*
Y41430D01*
X2310Y41180D02*
X2390D01*
X2350Y41140D02*
Y41220D01*
X9650Y41640D02*
X9730D01*
X9690Y41600D02*
Y41680D01*
X7170Y42760D02*
X7250D01*
X7210Y42720D02*
Y42800D01*
X8750Y39070D02*
X8830D01*
X8790Y39030D02*
Y39110D01*
X4220Y38850D02*
X4300D01*
X4260Y38810D02*
Y38890D01*
X7470Y37920D02*
X7550D01*
X7510Y37880D02*
Y37960D01*
X8580Y42100D02*
X8660D01*
X8620Y42060D02*
Y42140D01*
X9000Y42540D02*
X9080D01*
X9040Y42500D02*
Y42580D01*
X9490Y42830D02*
X9570D01*
X9530Y42790D02*
Y42870D01*
X14270Y9120D02*
X14350D01*
X14310Y9080D02*
Y9160D01*
X19920Y5750D02*
X20000D01*
X19960Y5710D02*
Y5790D01*
X23530Y19180D02*
X23610D01*
X23570Y19140D02*
Y19220D01*
X22040Y19180D02*
X22120D01*
X22080Y19140D02*
Y19220D01*
X23530Y19450D02*
X23610D01*
X23570Y19410D02*
Y19490D01*
X22010Y19450D02*
X22090D01*
X22050Y19410D02*
Y19490D01*
X18370Y41940D02*
X18450D01*
X18410Y41900D02*
Y41980D01*
X20610Y40450D02*
X20690D01*
X20650Y40410D02*
Y40490D01*
X18810Y41790D02*
X18890D01*
X18850Y41750D02*
Y41830D01*
X20835Y41175D02*
X20915D01*
X20875Y41135D02*
Y41215D01*
X21411Y40449D02*
X21491D01*
X21451Y40409D02*
Y40489D01*
X21744Y41084D02*
X21824D01*
X21784Y41044D02*
Y41124D01*
X22000Y41590D02*
X22080D01*
X22040Y41550D02*
Y41630D01*
X22150Y41350D02*
X22230D01*
X22190Y41310D02*
Y41390D01*
X23530Y20280D02*
X23610D01*
X23570Y20240D02*
Y20320D01*
X22410Y20280D02*
X22490D01*
X22450Y20240D02*
Y20320D01*
X23530Y20550D02*
X23610D01*
X23570Y20510D02*
Y20590D01*
X22410Y20550D02*
X22490D01*
X22450Y20510D02*
Y20590D01*
X22220Y38520D02*
X22300D01*
X22260Y38480D02*
Y38560D01*
X20810Y38530D02*
X20890D01*
X20850Y38490D02*
Y38570D01*
X20930Y12990D02*
X21010D01*
X20970Y12950D02*
Y13030D01*
X19440Y12990D02*
X19520D01*
X19480Y12950D02*
Y13030D01*
X21610Y45166D02*
X21690D01*
X21650Y45126D02*
Y45206D01*
X19100Y38540D02*
X19180D01*
X19140Y38500D02*
Y38580D01*
X17860Y38540D02*
X17940D01*
X17900Y38500D02*
Y38580D01*
X17211Y31960D02*
X17291D01*
X17251Y31920D02*
Y32000D01*
X16770Y31790D02*
X16850D01*
X16810Y31750D02*
Y31830D01*
X9780Y6430D02*
X9860D01*
X9820Y6390D02*
Y6470D01*
X8680Y10950D02*
X8760D01*
X8720Y10910D02*
Y10990D01*
X9260Y10950D02*
X9340D01*
X9300Y10910D02*
Y10990D01*
X11340Y13140D02*
X11420D01*
X11380Y13100D02*
Y13180D01*
X11880Y13140D02*
X11960D01*
X11920Y13100D02*
Y13180D01*
X9834Y11276D02*
X9914D01*
X9874Y11236D02*
Y11316D01*
X17430Y18740D02*
X17510D01*
X17470Y18700D02*
Y18780D01*
X17410Y19040D02*
X17490D01*
X17450Y19000D02*
Y19080D01*
X16210Y18800D02*
X16290D01*
X16250Y18760D02*
Y18840D01*
X16210Y18500D02*
X16290D01*
X16250Y18460D02*
Y18540D01*
X10800Y16800D02*
X10880D01*
X10840Y16760D02*
Y16840D01*
X7830Y20500D02*
X7910D01*
X7870Y20460D02*
Y20540D01*
X18554Y15914D02*
X18634D01*
X18594Y15874D02*
Y15954D01*
X18554Y17014D02*
X18634D01*
X18594Y16974D02*
Y17054D01*
X18550Y21650D02*
X18630D01*
X18590Y21610D02*
Y21690D01*
X16732Y26768D02*
X16812D01*
X16772Y26728D02*
Y26808D01*
X16358Y27098D02*
X16438D01*
X16398Y27058D02*
Y27138D01*
X17010Y26850D02*
X17090D01*
X17050Y26810D02*
Y26890D01*
X17410Y27250D02*
X17490D01*
X17450Y27210D02*
Y27290D01*
X17660Y19860D02*
X17740D01*
X17700Y19820D02*
Y19900D01*
X17930Y21700D02*
X18010D01*
X17970Y21660D02*
Y21740D01*
X14930Y25860D02*
X15010D01*
X14970Y25820D02*
Y25900D01*
X6240Y41790D02*
X6320D01*
X6280Y41750D02*
Y41830D01*
X13140Y27140D02*
X13220D01*
X13180Y27100D02*
Y27180D01*
X13130Y26010D02*
X13210D01*
X13170Y25970D02*
Y26050D01*
X13360Y26970D02*
X13440D01*
X13400Y26930D02*
Y27010D01*
X13340Y25790D02*
X13420D01*
X13380Y25750D02*
Y25830D01*
X14276Y9676D02*
X14356D01*
X14316Y9636D02*
Y9716D01*
X13526Y9676D02*
X13606D01*
X13566Y9636D02*
Y9716D01*
X21960Y21000D02*
X22040D01*
X22000Y20960D02*
Y21040D01*
X22060Y23220D02*
X22140D01*
X22100Y23180D02*
Y23260D01*
X20490Y27290D02*
X20570D01*
X20530Y27250D02*
Y27330D01*
X15270Y26990D02*
X15350D01*
X15310Y26950D02*
Y27030D01*
X15270Y25850D02*
X15350D01*
X15310Y25810D02*
Y25890D01*
X17930Y27290D02*
X18010D01*
X17970Y27250D02*
Y27330D01*
X17220Y11640D02*
X17300D01*
X17260Y11600D02*
Y11680D01*
X16170Y11640D02*
X16250D01*
X16210Y11600D02*
Y11680D01*
X12970Y13340D02*
X13050D01*
X13010Y13300D02*
Y13380D01*
X13570Y13340D02*
X13650D01*
X13610Y13300D02*
Y13380D01*
X14730Y13180D02*
X14810D01*
X14770Y13140D02*
Y13220D01*
X15940Y13200D02*
X16020D01*
X15980Y13160D02*
Y13240D01*
X24350Y13700D02*
X24430D01*
X24390Y13660D02*
Y13740D01*
X24350Y14780D02*
X24430D01*
X24390Y14740D02*
Y14820D01*
X21960Y4580D02*
X22040D01*
X22000Y4540D02*
Y4620D01*
X22600Y11050D02*
X22680D01*
X22640Y11010D02*
Y11090D01*
X18840Y17970D02*
X18920D01*
X18880Y17930D02*
Y18010D01*
X11290Y14450D02*
X11370D01*
X11330Y14410D02*
Y14490D01*
X11210Y13670D02*
X11290D01*
X11250Y13630D02*
Y13710D01*
X16780Y15910D02*
X16860D01*
X16820Y15870D02*
Y15950D01*
X18700Y4240D02*
X18780D01*
X18740Y4200D02*
Y4280D01*
X8170Y7720D02*
X8250D01*
X8210Y7680D02*
Y7760D01*
X19670Y15470D02*
X19750D01*
X19710Y15430D02*
Y15510D01*
X380Y3880D02*
X460D01*
X420Y3840D02*
Y3920D01*
X22840Y15930D02*
X22920D01*
X22880Y15890D02*
Y15970D01*
X21940Y15340D02*
X22020D01*
X21980Y15300D02*
Y15380D01*
X10560Y11270D02*
X10640D01*
X10600Y11230D02*
Y11310D01*
X4090Y33630D02*
X4170D01*
X4130Y33590D02*
Y33670D01*
X2080Y46410D02*
X2160D01*
X2120Y46370D02*
Y46450D01*
X9720Y43660D02*
X9800D01*
X9760Y43620D02*
Y43700D01*
X7160Y43710D02*
X7240D01*
X7200Y43670D02*
Y43750D01*
X4970Y18720D02*
X5050D01*
X5010Y18680D02*
Y18760D01*
X6400Y22840D02*
X6480D01*
X6440Y22800D02*
Y22880D01*
X3900Y28560D02*
X3980D01*
X3940Y28520D02*
Y28600D01*
X9430Y45490D02*
X9510D01*
X9470Y45450D02*
Y45530D01*
X7910Y46280D02*
X7990D01*
X7950Y46240D02*
Y46320D01*
X4010Y31620D02*
X4090D01*
X4050Y31580D02*
Y31660D01*
X3960Y23920D02*
X4040D01*
X4000Y23880D02*
Y23960D01*
X12610Y33450D02*
X12690D01*
X12650Y33410D02*
Y33490D01*
X10780Y48080D02*
X10860D01*
X10820Y48040D02*
Y48120D01*
X13830Y45560D02*
X13910D01*
X13870Y45520D02*
Y45600D01*
X11730Y34330D02*
X11810D01*
X11770Y34290D02*
Y34370D01*
X3320Y47650D02*
X3400D01*
X3360Y47610D02*
Y47690D01*
X8140Y48080D02*
X8220D01*
X8180Y48040D02*
Y48120D01*
X13160Y46940D02*
X13240D01*
X13200Y46900D02*
Y46980D01*
X16180Y46090D02*
X16260D01*
X16220Y46050D02*
Y46130D01*
X10700Y45970D02*
X10780D01*
X10740Y45930D02*
Y46010D01*
X14900Y41570D02*
X14980D01*
X14940Y41530D02*
Y41610D01*
X16500Y43730D02*
X16580D01*
X16540Y43690D02*
Y43770D01*
X17680Y47950D02*
X17760D01*
X17720Y47910D02*
Y47990D01*
X16280Y47660D02*
X16360D01*
X16320Y47620D02*
Y47700D01*
X20290Y46270D02*
X20370D01*
X20330Y46230D02*
Y46310D01*
X10380Y15880D02*
X10460D01*
X10420Y15840D02*
Y15920D01*
X20830Y43460D02*
X20910D01*
X20870Y43420D02*
Y43500D01*
X10060Y19140D02*
X10140D01*
X10100Y19100D02*
Y19180D01*
X16430Y41100D02*
X16510D01*
X16470Y41060D02*
Y41140D01*
X17260Y37430D02*
X17340D01*
X17300Y37390D02*
Y37470D01*
X14510Y36660D02*
X14590D01*
X14550Y36620D02*
Y36700D01*
X11530Y36400D02*
X11610D01*
X11570Y36360D02*
Y36440D01*
X19210Y39090D02*
X19290D01*
X19250Y39050D02*
Y39130D01*
X13620Y29770D02*
X13700D01*
X13660Y29730D02*
Y29810D01*
X9570Y38460D02*
X9650D01*
X9610Y38420D02*
Y38500D01*
X5970Y14520D02*
X6050D01*
X6010Y14480D02*
Y14560D01*
X12180Y45530D02*
X12260D01*
X12220Y45490D02*
Y45570D01*
X10050Y46940D02*
X10130D01*
X10090Y46900D02*
Y46980D01*
X13300Y36490D02*
X13380D01*
X13340Y36450D02*
Y36530D01*
X16170Y31950D02*
X16250D01*
X16210Y31910D02*
Y31990D01*
X12840Y30180D02*
X12920D01*
X12880Y30140D02*
Y30220D01*
X12800Y28550D02*
X12880D01*
X12840Y28510D02*
Y28590D01*
X17820Y39410D02*
X17900D01*
X17860Y39370D02*
Y39450D01*
X20100Y40950D02*
X20180D01*
X20140Y40910D02*
Y40990D01*
X18280Y31790D02*
X18360D01*
X18320Y31750D02*
Y31830D01*
X19440Y36440D02*
X19520D01*
X19480Y36400D02*
Y36480D01*
X20700Y35060D02*
X20780D01*
X20740Y35020D02*
Y35100D01*
X21180Y48660D02*
X21260D01*
X21220Y48620D02*
Y48700D01*
X20510Y39000D02*
X20590D01*
X20550Y38960D02*
Y39040D01*
X19180Y38110D02*
X19260D01*
X19220Y38070D02*
Y38150D01*
X19210Y40950D02*
X19290D01*
X19250Y40910D02*
Y40990D01*
X14840Y40060D02*
X14920D01*
X14880Y40020D02*
Y40100D01*
X11830Y41630D02*
X11910D01*
X11870Y41590D02*
Y41670D01*
X14870Y30970D02*
X14950D01*
X14910Y30930D02*
Y31010D01*
X11290Y1750D02*
X11370D01*
X11330Y1710D02*
Y1790D01*
X23620Y18670D02*
X23700D01*
X23660Y18630D02*
Y18710D01*
X17470Y7820D02*
X17550D01*
X17510Y7780D02*
Y7860D01*
X20080Y7170D02*
X20160D01*
X20120Y7130D02*
Y7210D01*
X23590Y11120D02*
X23670D01*
X23630Y11080D02*
Y11160D01*
X8190Y3750D02*
X8270D01*
X8230Y3710D02*
Y3790D01*
X20010Y8130D02*
X20090D01*
X20050Y8090D02*
Y8170D01*
X14850Y9080D02*
X14930D01*
X14890Y9040D02*
Y9120D01*
X450Y31800D02*
X530D01*
X490Y31760D02*
Y31840D01*
X460Y30370D02*
X540D01*
X500Y30330D02*
Y30410D01*
X460Y28630D02*
X540D01*
X500Y28590D02*
Y28670D01*
X12100Y17990D02*
X12180D01*
X12140Y17950D02*
Y18030D01*
X450Y34100D02*
X530D01*
X490Y34060D02*
Y34140D01*
X3530Y17300D02*
X3610D01*
X3570Y17260D02*
Y17340D01*
X6300Y17490D02*
X6380D01*
X6340Y17450D02*
Y17530D01*
X7190Y25950D02*
X7270D01*
X7230Y25910D02*
Y25990D01*
X390Y37200D02*
X470D01*
X430Y37160D02*
Y37240D01*
X440Y39160D02*
X520D01*
X480Y39120D02*
Y39200D01*
X15340Y8880D02*
X15420D01*
X15380Y8840D02*
Y8920D01*
X12060Y19470D02*
X12140D01*
X12100Y19430D02*
Y19510D01*
X24550Y6675D02*
X24630D01*
X24590Y6635D02*
Y6715D01*
X24530Y475D02*
X24610D01*
X24570Y435D02*
Y515D01*
X10000Y350D02*
X10080D01*
X10040Y310D02*
Y390D01*
X7080Y330D02*
X7160D01*
X7120Y290D02*
Y370D01*
X18630Y390D02*
X18710D01*
X18670Y350D02*
Y430D01*
X15890Y20300D02*
X15970D01*
X15930Y20260D02*
Y20340D01*
X23510Y12970D02*
X23590D01*
X23550Y12930D02*
Y13010D01*
X8290Y2240D02*
X8370D01*
X8330Y2200D02*
Y2280D01*
X19980Y4560D02*
X20060D01*
X20020Y4520D02*
Y4600D01*
X8390Y370D02*
X8470D01*
X8430Y330D02*
Y410D01*
X3790Y4920D02*
X3870D01*
X3830Y4880D02*
Y4960D01*
X17130Y5700D02*
X17210D01*
X17170Y5660D02*
Y5740D01*
X9060Y6430D02*
X9140D01*
X9100Y6390D02*
Y6470D01*
X16670Y3570D02*
X16750D01*
X16710Y3530D02*
Y3610D01*
X11260Y9050D02*
X11340D01*
X11300Y9010D02*
Y9090D01*
X7400Y8230D02*
X7480D01*
X7440Y8190D02*
Y8270D01*
X4950Y6720D02*
X5030D01*
X4990Y6680D02*
Y6760D01*
X13630Y1780D02*
X13710D01*
X13670Y1740D02*
Y1820D01*
X11500Y10740D02*
X11580D01*
X11540Y10700D02*
Y10780D01*
X19220Y2970D02*
X19300D01*
X19260Y2930D02*
Y3010D01*
X19210Y24500D02*
X19290D01*
X19250Y24460D02*
Y24540D01*
X24480Y16035D02*
X24560D01*
X24520Y15995D02*
Y16075D01*
X24480Y18035D02*
X24560D01*
X24520Y17995D02*
Y18075D01*
X24480Y20035D02*
X24560D01*
X24520Y19995D02*
Y20075D01*
X24480Y22035D02*
X24560D01*
X24520Y21995D02*
Y22075D01*
X24480Y24035D02*
X24560D01*
X24520Y23995D02*
Y24075D01*
X21140Y19590D02*
X21220D01*
X21180Y19550D02*
Y19630D01*
X21630Y17570D02*
X21710D01*
X21670Y17530D02*
Y17610D01*
X9750Y16020D02*
X9830D01*
X9790Y15980D02*
Y16060D01*
X24480Y32035D02*
X24560D01*
X24520Y31995D02*
Y32075D01*
X17000Y30980D02*
X17080D01*
X17040Y30940D02*
Y31020D01*
X24360Y50840D02*
X24440D01*
X24400Y50800D02*
Y50880D01*
X12500Y49690D02*
X12580D01*
X12540Y49650D02*
Y49730D01*
X20360Y50840D02*
X20440D01*
X20400Y50800D02*
Y50880D01*
X18360Y50840D02*
X18440D01*
X18400Y50800D02*
Y50880D01*
X16360Y50840D02*
X16440D01*
X16400Y50800D02*
Y50880D01*
X14360Y50840D02*
X14440D01*
X14400Y50800D02*
Y50880D01*
X12360Y50840D02*
X12440D01*
X12400Y50800D02*
Y50880D01*
X10240Y50840D02*
X10320D01*
X10280Y50800D02*
Y50880D01*
X8360Y50840D02*
X8440D01*
X8400Y50800D02*
Y50880D01*
X6360Y50840D02*
X6440D01*
X6400Y50800D02*
Y50880D01*
X4360Y50840D02*
X4440D01*
X4400Y50800D02*
Y50880D01*
X5000Y47770D02*
X5080D01*
X5040Y47730D02*
Y47810D01*
X360Y50840D02*
X440D01*
X400Y50800D02*
Y50880D01*
X13210Y43840D02*
X13290D01*
X13250Y43800D02*
Y43880D01*
X10760Y43820D02*
X10840D01*
X10800Y43780D02*
Y43860D01*
X360Y47760D02*
X440D01*
X400Y47720D02*
Y47800D01*
X450Y46390D02*
X530D01*
X490Y46350D02*
Y46430D01*
X460Y44820D02*
X540D01*
X500Y44780D02*
Y44860D01*
X460Y42820D02*
X540D01*
X500Y42780D02*
Y42860D01*
X12060Y20930D02*
X12140D01*
X12100Y20890D02*
Y20970D01*
X12060Y20190D02*
X12140D01*
X12100Y20150D02*
Y20230D01*
X12790Y17840D02*
X12870D01*
X12830Y17800D02*
Y17880D01*
X13410Y17630D02*
X13490D01*
X13450Y17590D02*
Y17670D01*
X4710Y4010D02*
X4790D01*
X4750Y3970D02*
Y4050D01*
X24560Y9945D02*
X24640D01*
X24600Y9905D02*
Y9985D01*
X1380Y19790D02*
X1460D01*
X1420Y19750D02*
Y19830D01*
X24540Y3645D02*
X24620D01*
X24580Y3605D02*
Y3685D01*
X10790Y12100D02*
X10870D01*
X10830Y12060D02*
Y12140D01*
X5500Y330D02*
X5580D01*
X5540Y290D02*
Y370D01*
X10480Y7340D02*
X10560D01*
X10520Y7300D02*
Y7380D01*
X16410Y400D02*
X16490D01*
X16450Y360D02*
Y440D01*
X13630Y400D02*
X13710D01*
X13670Y360D02*
Y440D01*
X20340Y460D02*
X20420D01*
X20380Y420D02*
Y500D01*
X21560Y470D02*
X21640D01*
X21600Y430D02*
Y510D01*
X3890Y330D02*
X3970D01*
X3930Y290D02*
Y370D01*
X400Y420D02*
X480D01*
X440Y380D02*
Y460D01*
X21900Y18510D02*
X21980D01*
X21940Y18470D02*
Y18550D01*
X12839Y20039D02*
X12919D01*
X12879Y19999D02*
Y20079D01*
X13990Y17620D02*
X14070D01*
X14030Y17580D02*
Y17660D01*
X10360Y5670D02*
X10440D01*
X10400Y5630D02*
Y5710D01*
X6600Y3960D02*
X6680D01*
X6640Y3920D02*
Y4000D01*
X12060Y21610D02*
X12140D01*
X12100Y21570D02*
Y21650D01*
X13640Y23090D02*
X13720D01*
X13680Y23050D02*
Y23130D01*
X12080Y18750D02*
X12160D01*
X12120Y18710D02*
Y18790D01*
X15630Y18220D02*
X15710D01*
X15670Y18180D02*
Y18260D01*
X15540Y17710D02*
X15620D01*
X15580Y17670D02*
Y17750D01*
X15690Y18900D02*
X15770D01*
X15730Y18860D02*
Y18940D01*
X15890Y19620D02*
X15970D01*
X15930Y19580D02*
Y19660D01*
X19020Y9260D02*
X19100D01*
X19060Y9220D02*
Y9300D01*
X7720Y11040D02*
X7800D01*
X7760Y11000D02*
Y11080D01*
X9140Y7560D02*
X9220D01*
X9180Y7520D02*
Y7600D01*
X15910Y8180D02*
X15990D01*
X15950Y8140D02*
Y8220D01*
X24570Y12450D02*
X24650D01*
X24610Y12410D02*
Y12490D01*
X10810Y10060D02*
X10890D01*
X10850Y10020D02*
Y10100D01*
X10160Y20800D02*
X10240D01*
X10200Y20760D02*
Y20840D01*
X17200Y16300D02*
X17280D01*
X17240Y16260D02*
Y16340D01*
X17520Y18390D02*
X17600D01*
X17560Y18350D02*
Y18430D01*
X3960Y15898D02*
X4040D01*
X4000Y15858D02*
Y15938D01*
X8280Y6580D02*
X8360D01*
X8320Y6540D02*
Y6620D01*
X7690Y36470D02*
X7770D01*
X7730Y36430D02*
Y36510D01*
X7020Y6680D02*
X7100D01*
X7060Y6640D02*
Y6720D01*
X16370Y7810D02*
X16450D01*
X16410Y7770D02*
Y7850D01*
X5110Y8850D02*
X5190D01*
X5150Y8810D02*
Y8890D01*
X9460Y10060D02*
X9540D01*
X9500Y10020D02*
Y10100D01*
X8100Y9940D02*
X8180D01*
X8140Y9900D02*
Y9980D01*
X13580Y20130D02*
X13660D01*
X13620Y20090D02*
Y20170D01*
X18030Y2000D02*
X18110D01*
X18070Y1960D02*
Y2040D01*
X13580Y21560D02*
X13660D01*
X13620Y21520D02*
Y21600D01*
X15720Y23140D02*
X15800D01*
X15760Y23100D02*
Y23180D01*
X15830Y22200D02*
X15910D01*
X15870Y22160D02*
Y22240D01*
X15890Y21620D02*
X15970D01*
X15930Y21580D02*
Y21660D01*
X15890Y21000D02*
X15970D01*
X15930Y20960D02*
Y21040D01*
X460Y40690D02*
X540D01*
X500Y40650D02*
Y40730D01*
X22910Y46860D02*
X22990D01*
X22950Y46820D02*
Y46900D01*
X20590Y38180D02*
X20670D01*
X20630Y38140D02*
Y38220D01*
X8450Y36470D02*
X8530D01*
X8490Y36430D02*
Y36510D01*
X8450Y37510D02*
X8530D01*
X8490Y37470D02*
Y37550D01*
X13700Y37500D02*
X13780D01*
X13740Y37460D02*
Y37540D01*
X14411Y38209D02*
X14491D01*
X14451Y38169D02*
Y38249D01*
X6260Y37590D02*
X6340D01*
X6300Y37550D02*
Y37630D01*
X6504Y39866D02*
X6584D01*
X6544Y39826D02*
Y39906D01*
X5200Y41790D02*
X5280D01*
X5240Y41750D02*
Y41830D01*
X5200Y45340D02*
X5280D01*
X5240Y45300D02*
Y45380D01*
X6220Y30570D02*
X6300D01*
X6260Y30530D02*
Y30610D01*
X6760Y30210D02*
X6840D01*
X6800Y30170D02*
Y30250D01*
X6000Y8630D02*
X6080D01*
X6040Y8590D02*
Y8670D01*
X9440Y6420D02*
X9520D01*
X9480Y6380D02*
Y6460D01*
X16090Y2930D02*
X16170D01*
X16130Y2890D02*
Y2970D01*
X3820Y2980D02*
X3900D01*
X3860Y2940D02*
Y3020D01*
X6900Y7660D02*
X6980D01*
X6940Y7620D02*
Y7700D01*
X10390Y4620D02*
X10470D01*
X10430Y4580D02*
Y4660D01*
X17250Y1400D02*
X17330D01*
X17290Y1360D02*
Y1440D01*
X12480Y11360D02*
X12560D01*
X12520Y11320D02*
Y11400D01*
X17780Y11140D02*
X17860D01*
X17820Y11100D02*
Y11180D01*
X10560Y11700D02*
X10640D01*
X10600Y11660D02*
Y11740D01*
X16860Y15040D02*
X16940D01*
X16900Y15000D02*
Y15080D01*
X17520Y29800D02*
X17600D01*
X17560Y29760D02*
Y29840D01*
X13340Y30870D02*
X13420D01*
X13380Y30830D02*
Y30910D01*
X13300Y31890D02*
X13380D01*
X13340Y31850D02*
Y31930D01*
X13710Y30870D02*
X13790D01*
X13750Y30830D02*
Y30910D01*
X13600Y31720D02*
X13680D01*
X13640Y31680D02*
Y31760D01*
X13930Y31530D02*
X14010D01*
X13970Y31490D02*
Y31570D01*
X14010Y30850D02*
X14090D01*
X14050Y30810D02*
Y30890D01*
X14270Y31350D02*
X14350D01*
X14310Y31310D02*
Y31390D01*
Y30850D02*
X14390D01*
X14350Y30810D02*
Y30890D01*
X15390D02*
X15470D01*
X15430Y30850D02*
Y30930D01*
X15680Y30900D02*
X15760D01*
X15720Y30860D02*
Y30940D01*
X17660Y31550D02*
X17740D01*
X17700Y31510D02*
Y31590D01*
X17260Y31300D02*
X17340D01*
X17300Y31260D02*
Y31340D01*
X16690Y32370D02*
X16770D01*
X16730Y32330D02*
Y32410D01*
X17680Y31890D02*
X17760D01*
X17720Y31850D02*
Y31930D01*
X18160Y30600D02*
X18240D01*
X18200Y30560D02*
Y30640D01*
X18740Y31180D02*
X18820D01*
X18780Y31140D02*
Y31220D01*
X17960Y30800D02*
X18040D01*
X18000Y30760D02*
Y30840D01*
X18530Y31370D02*
X18610D01*
X18570Y31330D02*
Y31410D01*
X16960Y9820D02*
X17040D01*
X17000Y9780D02*
Y9860D01*
X16400Y9820D02*
X16480D01*
X16440Y9780D02*
Y9860D01*
X17140Y7820D02*
X17220D01*
X17180Y7780D02*
Y7860D01*
X16050Y7810D02*
X16130D01*
X16090Y7770D02*
Y7850D01*
X11487Y5703D02*
X11567D01*
X11527Y5663D02*
Y5743D01*
X10818Y6332D02*
X10898D01*
X10858Y6292D02*
Y6372D01*
X11487Y6747D02*
X11567D01*
X11527Y6707D02*
Y6787D01*
X13460Y23950D02*
X13540D01*
X13500Y23910D02*
Y23990D01*
X9650Y23910D02*
X9730D01*
X9690Y23870D02*
Y23950D01*
X450Y35270D02*
X530D01*
X490Y35230D02*
Y35310D01*
X4640Y35400D02*
X4720D01*
X4680Y35360D02*
Y35440D01*
X6790Y37020D02*
X6870D01*
X6830Y36980D02*
Y37060D01*
X8590Y30760D02*
X8670D01*
X8630Y30720D02*
Y30800D01*
X8520Y27800D02*
X8600D01*
X8560Y27760D02*
Y27840D01*
X19150Y14630D02*
X19230D01*
X19190Y14590D02*
Y14670D01*
X19040Y30140D02*
X19120D01*
X19080Y30100D02*
Y30180D01*
X10050Y25170D02*
X10130D01*
X10090Y25130D02*
Y25210D01*
X12930Y25380D02*
X13010D01*
X12970Y25340D02*
Y25420D01*
X12790Y24440D02*
X12870D01*
X12830Y24400D02*
Y24480D01*
Y25110D02*
X12910D01*
X12870Y25070D02*
Y25150D01*
X12810Y24170D02*
X12890D01*
X12850Y24130D02*
Y24210D01*
X10270Y24961D02*
X10350D01*
X10310Y24921D02*
Y25001D01*
X19130Y43600D02*
X19210D01*
X19170Y43560D02*
Y43640D01*
X19600Y27970D02*
X19680D01*
X19640Y27930D02*
Y28010D01*
X7780Y18030D02*
X7860D01*
X7820Y17990D02*
Y18070D01*
X18090Y44680D02*
X18170D01*
X18130Y44640D02*
Y44720D01*
X4780Y23100D02*
X4860D01*
X4820Y23060D02*
Y23140D01*
X5940Y28280D02*
X6020D01*
X5980Y28240D02*
Y28320D01*
X5350Y27700D02*
X5430D01*
X5390Y27660D02*
Y27740D01*
X7020Y23100D02*
X7100D01*
X7060Y23060D02*
Y23140D01*
X7200Y23720D02*
X7280D01*
X7240Y23680D02*
Y23760D01*
X5870Y20480D02*
X5950D01*
X5910Y20440D02*
Y20520D01*
X5340Y23720D02*
X5420D01*
X5380Y23680D02*
Y23760D01*
X6150Y18610D02*
X6230D01*
X6190Y18570D02*
Y18650D01*
X5210Y37600D02*
X5290D01*
X5250Y37560D02*
Y37640D01*
M02*
