G04 Layer_Color=16711935*
%FSLAX24Y24*%
%MOIN*%
G70*
G01*
G75*
%ADD10C,0.0100*%
D10*
X-4952Y-6455D02*
X40728D01*
X-4952Y-8305D02*
Y-6455D01*
Y-8305D02*
X40728D01*
Y-6455D01*
Y-5505D02*
Y-3655D01*
X-4952Y-5505D02*
X40728D01*
X-4952D02*
Y-3655D01*
X40728D01*
X4528Y-7021D02*
Y-7878D01*
X4570Y-7021D02*
Y-7878D01*
X4528Y-7021D02*
X4742D01*
X4528Y-7878D02*
X4742D01*
X4857Y-7107D02*
X4943Y-7064D01*
X5072Y-6935D01*
Y-7835D01*
X5774Y-6935D02*
X5646Y-6978D01*
X5560Y-7107D01*
X5517Y-7321D01*
Y-7449D01*
X5560Y-7664D01*
X5646Y-7792D01*
X5774Y-7835D01*
X5860D01*
X5989Y-7792D01*
X6074Y-7664D01*
X6117Y-7449D01*
Y-7321D01*
X6074Y-7107D01*
X5989Y-6978D01*
X5860Y-6935D01*
X5774D01*
X6833D02*
X6404D01*
X6361Y-7321D01*
X6404Y-7278D01*
X6533Y-7235D01*
X6661D01*
X6790Y-7278D01*
X6876Y-7364D01*
X6918Y-7492D01*
Y-7578D01*
X6876Y-7706D01*
X6790Y-7792D01*
X6661Y-7835D01*
X6533D01*
X6404Y-7792D01*
X6361Y-7749D01*
X6319Y-7664D01*
X7120Y-7107D02*
X7206Y-7064D01*
X7334Y-6935D01*
Y-7835D01*
X7823Y-7749D02*
X7780Y-7792D01*
X7823Y-7835D01*
X7865Y-7792D01*
X7823Y-7749D01*
X8320Y-6935D02*
X8191Y-6978D01*
X8105Y-7107D01*
X8063Y-7321D01*
Y-7449D01*
X8105Y-7664D01*
X8191Y-7792D01*
X8320Y-7835D01*
X8405D01*
X8534Y-7792D01*
X8620Y-7664D01*
X8662Y-7449D01*
Y-7321D01*
X8620Y-7107D01*
X8534Y-6978D01*
X8405Y-6935D01*
X8320D01*
X9121D02*
X8992Y-6978D01*
X8907Y-7107D01*
X8864Y-7321D01*
Y-7449D01*
X8907Y-7664D01*
X8992Y-7792D01*
X9121Y-7835D01*
X9207D01*
X9335Y-7792D01*
X9421Y-7664D01*
X9464Y-7449D01*
Y-7321D01*
X9421Y-7107D01*
X9335Y-6978D01*
X9207Y-6935D01*
X9121D01*
X9922D02*
X9794Y-6978D01*
X9708Y-7107D01*
X9665Y-7321D01*
Y-7449D01*
X9708Y-7664D01*
X9794Y-7792D01*
X9922Y-7835D01*
X10008D01*
X10136Y-7792D01*
X10222Y-7664D01*
X10265Y-7449D01*
Y-7321D01*
X10222Y-7107D01*
X10136Y-6978D01*
X10008Y-6935D01*
X9922D01*
X10895D02*
X10466Y-7535D01*
X11109D01*
X10895Y-6935D02*
Y-7835D01*
X11268Y-7107D02*
X11353Y-7064D01*
X11482Y-6935D01*
Y-7835D01*
X11970Y-7749D02*
X11927Y-7792D01*
X11970Y-7835D01*
X12013Y-7792D01*
X11970Y-7749D01*
X12467Y-6935D02*
X12339Y-6978D01*
X12253Y-7107D01*
X12210Y-7321D01*
Y-7449D01*
X12253Y-7664D01*
X12339Y-7792D01*
X12467Y-7835D01*
X12553D01*
X12682Y-7792D01*
X12767Y-7664D01*
X12810Y-7449D01*
Y-7321D01*
X12767Y-7107D01*
X12682Y-6978D01*
X12553Y-6935D01*
X12467D01*
X13269D02*
X13140Y-6978D01*
X13054Y-7107D01*
X13011Y-7321D01*
Y-7449D01*
X13054Y-7664D01*
X13140Y-7792D01*
X13269Y-7835D01*
X13354D01*
X13483Y-7792D01*
X13568Y-7664D01*
X13611Y-7449D01*
Y-7321D01*
X13568Y-7107D01*
X13483Y-6978D01*
X13354Y-6935D01*
X13269D01*
X13813Y-8135D02*
X14498D01*
X14871Y-6935D02*
X14743Y-6978D01*
X14657Y-7107D01*
X14614Y-7321D01*
Y-7449D01*
X14657Y-7664D01*
X14743Y-7792D01*
X14871Y-7835D01*
X14957D01*
X15085Y-7792D01*
X15171Y-7664D01*
X15214Y-7449D01*
Y-7321D01*
X15171Y-7107D01*
X15085Y-6978D01*
X14957Y-6935D01*
X14871D01*
X15415Y-7449D02*
X16186D01*
X17138Y-7835D02*
X16795Y-6935D01*
X16452Y-7835D01*
X16581Y-7535D02*
X17009D01*
X17391Y-7749D02*
X17348Y-7792D01*
X17391Y-7835D01*
X17433Y-7792D01*
X17391Y-7749D01*
X17716Y-6935D02*
X18187D01*
X17930Y-7278D01*
X18059D01*
X18145Y-7321D01*
X18187Y-7364D01*
X18230Y-7492D01*
Y-7578D01*
X18187Y-7706D01*
X18102Y-7792D01*
X17973Y-7835D01*
X17845D01*
X17716Y-7792D01*
X17673Y-7749D01*
X17630Y-7664D01*
X18603Y-7021D02*
Y-7878D01*
X18646Y-7021D02*
Y-7878D01*
X18432Y-7021D02*
X18646D01*
X18432Y-7878D02*
X18646D01*
X20159Y-7149D02*
X20116Y-7064D01*
X20030Y-6978D01*
X19944Y-6935D01*
X19773D01*
X19687Y-6978D01*
X19601Y-7064D01*
X19559Y-7149D01*
X19516Y-7278D01*
Y-7492D01*
X19559Y-7621D01*
X19601Y-7706D01*
X19687Y-7792D01*
X19773Y-7835D01*
X19944D01*
X20030Y-7792D01*
X20116Y-7706D01*
X20159Y-7621D01*
X20411Y-6935D02*
Y-7835D01*
Y-6935D02*
X20797D01*
X20925Y-6978D01*
X20968Y-7021D01*
X21011Y-7107D01*
Y-7192D01*
X20968Y-7278D01*
X20925Y-7321D01*
X20797Y-7364D01*
X20411D02*
X20797D01*
X20925Y-7407D01*
X20968Y-7449D01*
X21011Y-7535D01*
Y-7664D01*
X20968Y-7749D01*
X20925Y-7792D01*
X20797Y-7835D01*
X20411D01*
X21812Y-7064D02*
X21727Y-6978D01*
X21598Y-6935D01*
X21427D01*
X21298Y-6978D01*
X21213Y-7064D01*
Y-7149D01*
X21255Y-7235D01*
X21298Y-7278D01*
X21384Y-7321D01*
X21641Y-7407D01*
X21727Y-7449D01*
X21770Y-7492D01*
X21812Y-7578D01*
Y-7706D01*
X21727Y-7792D01*
X21598Y-7835D01*
X21427D01*
X21298Y-7792D01*
X21213Y-7706D01*
X22057Y-7149D02*
Y-7107D01*
X22100Y-7021D01*
X22142Y-6978D01*
X22228Y-6935D01*
X22399D01*
X22485Y-6978D01*
X22528Y-7021D01*
X22571Y-7107D01*
Y-7192D01*
X22528Y-7278D01*
X22442Y-7407D01*
X22014Y-7835D01*
X22614D01*
X22815Y-7107D02*
X22901Y-7064D01*
X23029Y-6935D01*
Y-7835D01*
X23732Y-6935D02*
X23603Y-6978D01*
X23518Y-7107D01*
X23475Y-7321D01*
Y-7449D01*
X23518Y-7664D01*
X23603Y-7792D01*
X23732Y-7835D01*
X23818D01*
X23946Y-7792D01*
X24032Y-7664D01*
X24075Y-7449D01*
Y-7321D01*
X24032Y-7107D01*
X23946Y-6978D01*
X23818Y-6935D01*
X23732D01*
X24533D02*
X24405Y-6978D01*
X24319Y-7107D01*
X24276Y-7321D01*
Y-7449D01*
X24319Y-7664D01*
X24405Y-7792D01*
X24533Y-7835D01*
X24619D01*
X24748Y-7792D01*
X24833Y-7664D01*
X24876Y-7449D01*
Y-7321D01*
X24833Y-7107D01*
X24748Y-6978D01*
X24619Y-6935D01*
X24533D01*
X25634D02*
X25077D01*
Y-7835D01*
X25634D01*
X25077Y-7364D02*
X25420D01*
X26341Y-6935D02*
X25784D01*
Y-7835D01*
X26341D01*
X25784Y-7364D02*
X26127D01*
X26534Y-7749D02*
X26491Y-7792D01*
X26534Y-7835D01*
X26577Y-7792D01*
X26534Y-7749D01*
X27417Y-7149D02*
X27374Y-7064D01*
X27288Y-6978D01*
X27203Y-6935D01*
X27031D01*
X26946Y-6978D01*
X26860Y-7064D01*
X26817Y-7149D01*
X26774Y-7278D01*
Y-7492D01*
X26817Y-7621D01*
X26860Y-7706D01*
X26946Y-7792D01*
X27031Y-7835D01*
X27203D01*
X27288Y-7792D01*
X27374Y-7706D01*
X27417Y-7621D01*
Y-7492D01*
X27203D02*
X27417D01*
X27623Y-6935D02*
Y-7835D01*
Y-6935D02*
X27965Y-7835D01*
X28308Y-6935D02*
X27965Y-7835D01*
X28308Y-6935D02*
Y-7835D01*
X29122Y-7235D02*
X29079Y-7364D01*
X28994Y-7449D01*
X28865Y-7492D01*
X28822D01*
X28694Y-7449D01*
X28608Y-7364D01*
X28565Y-7235D01*
Y-7192D01*
X28608Y-7064D01*
X28694Y-6978D01*
X28822Y-6935D01*
X28865D01*
X28994Y-6978D01*
X29079Y-7064D01*
X29122Y-7235D01*
Y-7449D01*
X29079Y-7664D01*
X28994Y-7792D01*
X28865Y-7835D01*
X28780D01*
X28651Y-7792D01*
X28608Y-7706D01*
X-4462Y-7407D02*
X-4077D01*
X-3948Y-7364D01*
X-3905Y-7321D01*
X-3863Y-7235D01*
Y-7107D01*
X-3905Y-7021D01*
X-3948Y-6978D01*
X-4077Y-6935D01*
X-4462D01*
Y-7835D01*
X-3661Y-6935D02*
Y-7835D01*
X-3147D01*
X-2791Y-6935D02*
X-2877Y-6978D01*
X-2963Y-7064D01*
X-3006Y-7149D01*
X-3048Y-7278D01*
Y-7492D01*
X-3006Y-7621D01*
X-2963Y-7706D01*
X-2877Y-7792D01*
X-2791Y-7835D01*
X-2620D01*
X-2534Y-7792D01*
X-2449Y-7706D01*
X-2406Y-7621D01*
X-2363Y-7492D01*
Y-7278D01*
X-2406Y-7149D01*
X-2449Y-7064D01*
X-2534Y-6978D01*
X-2620Y-6935D01*
X-2791D01*
X-1853D02*
Y-7835D01*
X-2153Y-6935D02*
X-1553D01*
X-739D02*
Y-7835D01*
Y-6935D02*
X-182D01*
X-739Y-7364D02*
X-396D01*
X-79Y-6935D02*
Y-7835D01*
X109Y-6935D02*
Y-7835D01*
X624D01*
X1279Y-6935D02*
X722D01*
Y-7835D01*
X1279D01*
X722Y-7364D02*
X1065D01*
X1472Y-7235D02*
X1429Y-7278D01*
X1472Y-7321D01*
X1515Y-7278D01*
X1472Y-7235D01*
Y-7749D02*
X1429Y-7792D01*
X1472Y-7835D01*
X1515Y-7792D01*
X1472Y-7749D01*
X-4462Y-4135D02*
Y-5035D01*
X-3948D01*
X-3164D02*
X-3507Y-4135D01*
X-3850Y-5035D01*
X-3721Y-4735D02*
X-3293D01*
X-2954Y-4135D02*
X-2611Y-4564D01*
Y-5035D01*
X-2269Y-4135D02*
X-2611Y-4564D01*
X-1596Y-4135D02*
X-2153D01*
Y-5035D01*
X-1596D01*
X-2153Y-4564D02*
X-1810D01*
X-1446Y-4135D02*
Y-5035D01*
Y-4135D02*
X-1060D01*
X-932Y-4178D01*
X-889Y-4221D01*
X-846Y-4307D01*
Y-4392D01*
X-889Y-4478D01*
X-932Y-4521D01*
X-1060Y-4564D01*
X-1446D01*
X-1146D02*
X-846Y-5035D01*
X62Y-4135D02*
Y-5035D01*
Y-4135D02*
X662Y-5035D01*
Y-4135D02*
Y-5035D01*
X1596D02*
X1253Y-4135D01*
X911Y-5035D01*
X1039Y-4735D02*
X1468D01*
X1806Y-4135D02*
Y-5035D01*
Y-4135D02*
X2149Y-5035D01*
X2492Y-4135D02*
X2149Y-5035D01*
X2492Y-4135D02*
Y-5035D01*
X3306Y-4135D02*
X2749D01*
Y-5035D01*
X3306D01*
X2749Y-4564D02*
X3092D01*
X3499Y-4435D02*
X3456Y-4478D01*
X3499Y-4521D01*
X3542Y-4478D01*
X3499Y-4435D01*
Y-4949D02*
X3456Y-4992D01*
X3499Y-5035D01*
X3542Y-4992D01*
X3499Y-4949D01*
X4528Y-4607D02*
X4913D01*
X5042Y-4564D01*
X5085Y-4521D01*
X5127Y-4435D01*
Y-4307D01*
X5085Y-4221D01*
X5042Y-4178D01*
X4913Y-4135D01*
X4528D01*
Y-5035D01*
X5843Y-4435D02*
Y-5035D01*
Y-4564D02*
X5757Y-4478D01*
X5672Y-4435D01*
X5543D01*
X5457Y-4478D01*
X5372Y-4564D01*
X5329Y-4692D01*
Y-4778D01*
X5372Y-4906D01*
X5457Y-4992D01*
X5543Y-5035D01*
X5672D01*
X5757Y-4992D01*
X5843Y-4906D01*
X6083Y-4435D02*
Y-5035D01*
Y-4607D02*
X6211Y-4478D01*
X6297Y-4435D01*
X6426D01*
X6511Y-4478D01*
X6554Y-4607D01*
Y-5035D01*
X6790Y-4692D02*
X7304D01*
Y-4607D01*
X7261Y-4521D01*
X7218Y-4478D01*
X7133Y-4435D01*
X7004D01*
X6918Y-4478D01*
X6833Y-4564D01*
X6790Y-4692D01*
Y-4778D01*
X6833Y-4906D01*
X6918Y-4992D01*
X7004Y-5035D01*
X7133D01*
X7218Y-4992D01*
X7304Y-4906D01*
X7497Y-4135D02*
Y-5035D01*
X9035Y-4349D02*
X8992Y-4264D01*
X8907Y-4178D01*
X8821Y-4135D01*
X8650D01*
X8564Y-4178D01*
X8478Y-4264D01*
X8435Y-4349D01*
X8392Y-4478D01*
Y-4692D01*
X8435Y-4821D01*
X8478Y-4906D01*
X8564Y-4992D01*
X8650Y-5035D01*
X8821D01*
X8907Y-4992D01*
X8992Y-4906D01*
X9035Y-4821D01*
Y-4692D01*
X8821D02*
X9035D01*
X9241Y-4435D02*
Y-4864D01*
X9284Y-4992D01*
X9369Y-5035D01*
X9498D01*
X9584Y-4992D01*
X9712Y-4864D01*
Y-4435D02*
Y-5035D01*
X10034Y-4135D02*
X10076Y-4178D01*
X10119Y-4135D01*
X10076Y-4092D01*
X10034Y-4135D01*
X10076Y-4435D02*
Y-5035D01*
X10792Y-4135D02*
Y-5035D01*
Y-4564D02*
X10706Y-4478D01*
X10621Y-4435D01*
X10492D01*
X10406Y-4478D01*
X10321Y-4564D01*
X10278Y-4692D01*
Y-4778D01*
X10321Y-4906D01*
X10406Y-4992D01*
X10492Y-5035D01*
X10621D01*
X10706Y-4992D01*
X10792Y-4906D01*
X11032Y-4692D02*
X11546D01*
Y-4607D01*
X11503Y-4521D01*
X11460Y-4478D01*
X11375Y-4435D01*
X11246D01*
X11160Y-4478D01*
X11075Y-4564D01*
X11032Y-4692D01*
Y-4778D01*
X11075Y-4906D01*
X11160Y-4992D01*
X11246Y-5035D01*
X11375D01*
X11460Y-4992D01*
X11546Y-4906D01*
M02*
