G04 Layer_Color=65535*
%FSLAX24Y24*%
%MOIN*%
G70*
G01*
G75*
%ADD10C,0.0100*%
%ADD52C,0.0010*%
D10*
X20739Y12152D02*
Y34092D01*
X8139Y12152D02*
X20739D01*
X8139D02*
Y34092D01*
X20739D01*
X8139Y27063D02*
X9230D01*
Y19213D02*
Y27063D01*
X8139Y19213D02*
X9230D01*
X1530Y47140D02*
X23470D01*
Y34540D02*
Y47140D01*
X1530Y34540D02*
X23470D01*
X1530D02*
Y47140D01*
X8558Y34540D02*
Y35631D01*
X16408D01*
Y34540D02*
Y35631D01*
X11430Y17780D02*
X14580D01*
Y28410D01*
X11430D02*
X14580D01*
X11430Y17780D02*
Y28410D01*
X13398Y17780D02*
Y28410D01*
X15120Y17786D02*
X19057D01*
Y28416D01*
X15120D02*
X19057D01*
X15120Y17786D02*
Y28416D01*
X17876Y17786D02*
Y28416D01*
X19574Y1170D02*
X20756D01*
X19574Y11800D02*
X20756D01*
Y1170D02*
Y11800D01*
X14850Y1170D02*
Y11800D01*
X19574D01*
Y1170D02*
Y11800D01*
X14850Y1170D02*
X19574D01*
X13174D02*
X14356D01*
X13174Y11800D02*
X14356D01*
Y1170D02*
Y11800D01*
X8450Y1170D02*
Y11800D01*
X13174D01*
Y1170D02*
Y11800D01*
X8450Y1170D02*
X13174D01*
X10900Y36380D02*
X10800Y36480D01*
X10600D01*
X10500Y36380D01*
Y35980D01*
X10600Y35880D01*
X10800D01*
X10900Y35980D01*
X11100Y35880D02*
Y36480D01*
X11500Y35880D01*
Y36480D01*
X11700D02*
Y35880D01*
X12099D01*
X12699Y36380D02*
X12599Y36480D01*
X12399D01*
X12299Y36380D01*
Y35980D01*
X12399Y35880D01*
X12599D01*
X12699Y35980D01*
X12899Y36480D02*
Y35880D01*
X13199D01*
X13299Y35980D01*
Y36380D01*
X13199Y36480D01*
X12899D01*
X13499Y35880D02*
X13699D01*
X13599D01*
Y36480D01*
X13499Y36380D01*
X7670Y24580D02*
X7770Y24680D01*
Y24880D01*
X7670Y24980D01*
X7270D01*
X7170Y24880D01*
Y24680D01*
X7270Y24580D01*
X7170Y24380D02*
X7770D01*
X7170Y23980D01*
X7770D01*
Y23780D02*
X7170D01*
Y23381D01*
X7670Y22781D02*
X7770Y22881D01*
Y23081D01*
X7670Y23181D01*
X7270D01*
X7170Y23081D01*
Y22881D01*
X7270Y22781D01*
X7770Y22581D02*
X7170D01*
Y22281D01*
X7270Y22181D01*
X7670D01*
X7770Y22281D01*
Y22581D01*
X7170Y21581D02*
Y21981D01*
X7570Y21581D01*
X7670D01*
X7770Y21681D01*
Y21881D01*
X7670Y21981D01*
X11310Y48020D02*
Y47420D01*
X11710D01*
X12310Y47920D02*
X12210Y48020D01*
X12010D01*
X11910Y47920D01*
Y47520D01*
X12010Y47420D01*
X12210D01*
X12310Y47520D01*
X12510Y48020D02*
Y47420D01*
X12810D01*
X12909Y47520D01*
Y47920D01*
X12810Y48020D01*
X12510D01*
X13109Y47420D02*
X13309D01*
X13209D01*
Y48020D01*
X13109Y47920D01*
X21740Y24240D02*
X21140D01*
Y23840D01*
X21640Y23240D02*
X21740Y23340D01*
Y23540D01*
X21640Y23640D01*
X21240D01*
X21140Y23540D01*
Y23340D01*
X21240Y23240D01*
X21740Y23040D02*
X21140D01*
Y22740D01*
X21240Y22641D01*
X21640D01*
X21740Y22740D01*
Y23040D01*
X21140Y22041D02*
Y22441D01*
X21540Y22041D01*
X21640D01*
X21740Y22141D01*
Y22341D01*
X21640Y22441D01*
X8480Y27613D02*
Y27414D01*
Y27513D01*
X9080D01*
X8980Y27613D01*
X8008Y34881D02*
X8208D01*
X8108D01*
Y35481D01*
X8008Y35381D01*
X14320Y27530D02*
Y27930D01*
X14020D01*
Y27730D01*
Y27930D01*
X13720D01*
X14320Y26930D02*
Y27330D01*
X13720D01*
Y26930D01*
X14020Y27330D02*
Y27130D01*
X14320Y26730D02*
Y26331D01*
Y26530D01*
X13720D01*
X14220Y25731D02*
X14320Y25831D01*
Y26031D01*
X14220Y26131D01*
X13820D01*
X13720Y26031D01*
Y25831D01*
X13820Y25731D01*
X14320Y25231D02*
Y25431D01*
X14220Y25531D01*
X13820D01*
X13720Y25431D01*
Y25231D01*
X13820Y25131D01*
X14220D01*
X14320Y25231D01*
X13520Y24331D02*
X14120D01*
Y24031D01*
X14020Y23931D01*
X13820D01*
X13720Y24031D01*
Y24331D01*
X14120Y23631D02*
Y23431D01*
X14020Y23331D01*
X13720D01*
Y23631D01*
X13820Y23731D01*
X13920Y23631D01*
Y23331D01*
X14120Y23132D02*
X13720D01*
X13920D01*
X14020Y23032D01*
X14120Y22932D01*
Y22832D01*
X14220Y22432D02*
X14120D01*
Y22532D01*
Y22332D01*
Y22432D01*
X13820D01*
X13720Y22332D01*
Y21432D02*
X14120D01*
Y21132D01*
X14020Y21032D01*
X13720D01*
X14120Y20832D02*
X13820D01*
X13720Y20732D01*
Y20432D01*
X14120D01*
X13720Y20232D02*
X14120D01*
Y20133D01*
X14020Y20033D01*
X13720D01*
X14020D01*
X14120Y19933D01*
X14020Y19833D01*
X13720D01*
X14320Y19633D02*
X13720D01*
Y19333D01*
X13820Y19233D01*
X13920D01*
X14020D01*
X14120Y19333D01*
Y19633D01*
X13720Y18733D02*
Y18933D01*
X13820Y19033D01*
X14020D01*
X14120Y18933D01*
Y18733D01*
X14020Y18633D01*
X13920D01*
Y19033D01*
X14120Y18433D02*
X13720D01*
X13920D01*
X14020Y18333D01*
X14120Y18233D01*
Y18133D01*
X12110Y26700D02*
Y26500D01*
Y26600D01*
X12710D01*
X12610Y26700D01*
Y26200D02*
X12710Y26100D01*
Y25900D01*
X12610Y25800D01*
X12210D01*
X12110Y25900D01*
Y26100D01*
X12210Y26200D01*
X12610D01*
X12710Y25200D02*
Y25600D01*
X12410D01*
X12510Y25400D01*
Y25300D01*
X12410Y25200D01*
X12210D01*
X12110Y25300D01*
Y25500D01*
X12210Y25600D01*
X12110Y25001D02*
Y24801D01*
Y24901D01*
X12710D01*
X12610Y25001D01*
X12110Y24501D02*
X12210D01*
Y24401D01*
X12110D01*
Y24501D01*
X12610Y24001D02*
X12710Y23901D01*
Y23701D01*
X12610Y23601D01*
X12210D01*
X12110Y23701D01*
Y23901D01*
X12210Y24001D01*
X12610D01*
Y23401D02*
X12710Y23301D01*
Y23101D01*
X12610Y23001D01*
X12210D01*
X12110Y23101D01*
Y23301D01*
X12210Y23401D01*
X12610D01*
Y22801D02*
X12710Y22701D01*
Y22501D01*
X12610Y22401D01*
X12210D01*
X12110Y22501D01*
Y22701D01*
X12210Y22801D01*
X12610D01*
X12110Y21902D02*
X12710D01*
X12410Y22201D01*
Y21802D01*
X12110Y21602D02*
Y21402D01*
Y21502D01*
X12710D01*
X12610Y21602D01*
X12110Y21102D02*
X12210D01*
Y21002D01*
X12110D01*
Y21102D01*
X12610Y20602D02*
X12710Y20502D01*
Y20302D01*
X12610Y20202D01*
X12210D01*
X12110Y20302D01*
Y20502D01*
X12210Y20602D01*
X12610D01*
Y20002D02*
X12710Y19902D01*
Y19702D01*
X12610Y19602D01*
X12210D01*
X12110Y19702D01*
Y19902D01*
X12210Y20002D01*
X12610D01*
X12010Y19402D02*
Y19002D01*
X12610Y18803D02*
X12710Y18703D01*
Y18503D01*
X12610Y18403D01*
X12210D01*
X12110Y18503D01*
Y18703D01*
X12210Y18803D01*
X12610D01*
X18780Y27726D02*
X18180D01*
X18480D01*
Y27326D01*
X18780D01*
X18180D01*
X18580Y27026D02*
Y26826D01*
X18480Y26726D01*
X18180D01*
Y27026D01*
X18280Y27126D01*
X18380Y27026D01*
Y26726D01*
X18580Y26526D02*
X18180D01*
X18380D01*
X18480Y26426D01*
X18580Y26326D01*
Y26226D01*
X18780Y25527D02*
X18180D01*
Y25827D01*
X18280Y25927D01*
X18480D01*
X18580Y25827D01*
Y25527D01*
Y25327D02*
X18280D01*
X18180Y25227D01*
X18280Y25127D01*
X18180Y25027D01*
X18280Y24927D01*
X18580D01*
Y24627D02*
Y24427D01*
X18480Y24327D01*
X18180D01*
Y24627D01*
X18280Y24727D01*
X18380Y24627D01*
Y24327D01*
X18580Y24127D02*
X18180D01*
X18380D01*
X18480Y24027D01*
X18580Y23927D01*
Y23827D01*
X18180Y23227D02*
Y23427D01*
X18280Y23527D01*
X18480D01*
X18580Y23427D01*
Y23227D01*
X18480Y23127D01*
X18380D01*
Y23527D01*
X18580Y22328D02*
X18180Y22128D01*
X18580Y21928D01*
X18180Y21428D02*
Y21628D01*
X18280Y21728D01*
X18480D01*
X18580Y21628D01*
Y21428D01*
X18480Y21328D01*
X18380D01*
Y21728D01*
X18580Y21128D02*
X18180D01*
X18380D01*
X18480Y21028D01*
X18580Y20928D01*
Y20828D01*
X18180Y20528D02*
Y20228D01*
X18280Y20128D01*
X18380Y20228D01*
Y20428D01*
X18480Y20528D01*
X18580Y20428D01*
Y20128D01*
X18180Y19929D02*
Y19729D01*
Y19829D01*
X18580D01*
Y19929D01*
X18180Y19329D02*
Y19129D01*
X18280Y19029D01*
X18480D01*
X18580Y19129D01*
Y19329D01*
X18480Y19429D01*
X18280D01*
X18180Y19329D01*
Y18829D02*
X18580D01*
Y18529D01*
X18480Y18429D01*
X18180D01*
X15550Y25566D02*
Y25966D01*
X15950Y25566D01*
X16050D01*
X16150Y25666D01*
Y25866D01*
X16050Y25966D01*
Y25366D02*
X16150Y25266D01*
Y25066D01*
X16050Y24966D01*
X15650D01*
X15550Y25066D01*
Y25266D01*
X15650Y25366D01*
X16050D01*
X15550Y24766D02*
Y24566D01*
Y24666D01*
X16150D01*
X16050Y24766D01*
X16150Y24267D02*
Y23867D01*
X16050D01*
X15650Y24267D01*
X15550D01*
X15850Y23667D02*
Y23267D01*
X16050Y23067D02*
X16150Y22967D01*
Y22767D01*
X16050Y22667D01*
X15650D01*
X15550Y22767D01*
Y22967D01*
X15650Y23067D01*
X16050D01*
Y22467D02*
X16150Y22367D01*
Y22167D01*
X16050Y22067D01*
X15950D01*
X15850Y22167D01*
Y22267D01*
Y22167D01*
X15750Y22067D01*
X15650D01*
X15550Y22167D01*
Y22367D01*
X15650Y22467D01*
X15850Y21867D02*
Y21467D01*
X15550Y20868D02*
Y21268D01*
X15950Y20868D01*
X16050D01*
X16150Y20968D01*
Y21168D01*
X16050Y21268D01*
X15550Y20268D02*
Y20668D01*
X15950Y20268D01*
X16050D01*
X16150Y20368D01*
Y20568D01*
X16050Y20668D01*
X16690Y27846D02*
Y27666D01*
Y27756D01*
X17230D01*
X17140Y27846D01*
Y27396D02*
X17230Y27306D01*
Y27126D01*
X17140Y27036D01*
X16780D01*
X16690Y27126D01*
Y27306D01*
X16780Y27396D01*
X17140D01*
X17230Y26496D02*
Y26856D01*
X16960D01*
X17050Y26676D01*
Y26586D01*
X16960Y26496D01*
X16780D01*
X16690Y26586D01*
Y26766D01*
X16780Y26856D01*
X16690Y26316D02*
Y26137D01*
Y26227D01*
X17230D01*
X17140Y26316D01*
X16690Y25867D02*
X16780D01*
Y25777D01*
X16690D01*
Y25867D01*
X17140Y25417D02*
X17230Y25327D01*
Y25147D01*
X17140Y25057D01*
X16780D01*
X16690Y25147D01*
Y25327D01*
X16780Y25417D01*
X17140D01*
Y24877D02*
X17230Y24787D01*
Y24607D01*
X17140Y24517D01*
X16780D01*
X16690Y24607D01*
Y24787D01*
X16780Y24877D01*
X17140D01*
Y24337D02*
X17230Y24247D01*
Y24067D01*
X17140Y23977D01*
X16780D01*
X16690Y24067D01*
Y24247D01*
X16780Y24337D01*
X17140D01*
X16690Y23527D02*
X17230D01*
X16960Y23797D01*
Y23437D01*
X16690Y23257D02*
Y23078D01*
Y23168D01*
X17230D01*
X17140Y23257D01*
X16690Y22808D02*
X16780D01*
Y22718D01*
X16690D01*
Y22808D01*
X17140Y22358D02*
X17230Y22268D01*
Y22088D01*
X17140Y21998D01*
X16780D01*
X16690Y22088D01*
Y22268D01*
X16780Y22358D01*
X17140D01*
Y21818D02*
X17230Y21728D01*
Y21548D01*
X17140Y21458D01*
X16780D01*
X16690Y21548D01*
Y21728D01*
X16780Y21818D01*
X17140D01*
X16600Y21278D02*
Y20918D01*
X17140Y20738D02*
X17230Y20648D01*
Y20468D01*
X17140Y20378D01*
X16780D01*
X16690Y20468D01*
Y20648D01*
X16780Y20738D01*
X17140D01*
X16960Y20198D02*
Y19839D01*
X16690Y19659D02*
X17050D01*
X17230Y19479D01*
X17050Y19299D01*
X16690D01*
X16960D01*
Y19659D01*
X16690Y19119D02*
X16780D01*
Y19029D01*
X16690D01*
Y19119D01*
X17140Y18669D02*
X17230Y18579D01*
Y18399D01*
X17140Y18309D01*
X17050D01*
X16960Y18399D01*
Y18489D01*
Y18399D01*
X16870Y18309D01*
X16780D01*
X16690Y18399D01*
Y18579D01*
X16780Y18669D01*
X20360Y10630D02*
X20460Y10730D01*
Y10930D01*
X20360Y11030D01*
X20260D01*
X20160Y10930D01*
Y10730D01*
X20060Y10630D01*
X19960D01*
X19860Y10730D01*
Y10930D01*
X19960Y11030D01*
X19860Y10330D02*
Y10130D01*
X19960Y10030D01*
X20160D01*
X20260Y10130D01*
Y10330D01*
X20160Y10430D01*
X19960D01*
X19860Y10330D01*
Y9730D02*
X20360D01*
X20160D01*
Y9830D01*
Y9630D01*
Y9730D01*
X20360D01*
X20460Y9630D01*
X20360Y9231D02*
X20260D01*
Y9331D01*
Y9131D01*
Y9231D01*
X19960D01*
X19860Y9131D01*
X20260Y8831D02*
X19960D01*
X19860Y8731D01*
X19960Y8631D01*
X19860Y8531D01*
X19960Y8431D01*
X20260D01*
Y8131D02*
Y7931D01*
X20160Y7831D01*
X19860D01*
Y8131D01*
X19960Y8231D01*
X20060Y8131D01*
Y7831D01*
X20260Y7631D02*
X19860D01*
X20060D01*
X20160Y7531D01*
X20260Y7431D01*
Y7331D01*
X19860Y6731D02*
Y6931D01*
X19960Y7031D01*
X20160D01*
X20260Y6931D01*
Y6731D01*
X20160Y6631D01*
X20060D01*
Y7031D01*
X20260Y5832D02*
X19860Y5632D01*
X20260Y5432D01*
X19860Y4932D02*
Y5132D01*
X19960Y5232D01*
X20160D01*
X20260Y5132D01*
Y4932D01*
X20160Y4832D01*
X20060D01*
Y5232D01*
X20260Y4632D02*
X19860D01*
X20060D01*
X20160Y4532D01*
X20260Y4432D01*
Y4332D01*
X19860Y4032D02*
Y3732D01*
X19960Y3632D01*
X20060Y3732D01*
Y3932D01*
X20160Y4032D01*
X20260Y3932D01*
Y3632D01*
X19860Y3432D02*
Y3233D01*
Y3332D01*
X20260D01*
Y3432D01*
X19860Y2833D02*
Y2633D01*
X19960Y2533D01*
X20160D01*
X20260Y2633D01*
Y2833D01*
X20160Y2933D01*
X19960D01*
X19860Y2833D01*
Y2333D02*
X20260D01*
Y2033D01*
X20160Y1933D01*
X19860D01*
X14060Y11640D02*
X13460D01*
Y11340D01*
X13560Y11240D01*
X13660D01*
X13760Y11340D01*
Y11640D01*
Y11340D01*
X13860Y11240D01*
X13960D01*
X14060Y11340D01*
Y11640D01*
X13460Y10940D02*
Y10740D01*
X13560Y10640D01*
X13760D01*
X13860Y10740D01*
Y10940D01*
X13760Y11040D01*
X13560D01*
X13460Y10940D01*
Y10340D02*
Y10140D01*
X13560Y10041D01*
X13760D01*
X13860Y10140D01*
Y10340D01*
X13760Y10440D01*
X13560D01*
X13460Y10340D01*
X13960Y9741D02*
X13860D01*
Y9841D01*
Y9641D01*
Y9741D01*
X13560D01*
X13460Y9641D01*
Y9341D02*
Y9141D01*
Y9241D01*
X14060D01*
Y9341D01*
X13460Y8741D02*
Y8541D01*
X13560Y8441D01*
X13760D01*
X13860Y8541D01*
Y8741D01*
X13760Y8841D01*
X13560D01*
X13460Y8741D01*
X13860Y8141D02*
Y7941D01*
X13760Y7841D01*
X13460D01*
Y8141D01*
X13560Y8241D01*
X13660Y8141D01*
Y7841D01*
X14060Y7241D02*
X13460D01*
Y7541D01*
X13560Y7641D01*
X13760D01*
X13860Y7541D01*
Y7241D01*
X13460Y6742D02*
Y6942D01*
X13560Y7041D01*
X13760D01*
X13860Y6942D01*
Y6742D01*
X13760Y6642D01*
X13660D01*
Y7041D01*
X13860Y6442D02*
X13460D01*
X13660D01*
X13760Y6342D01*
X13860Y6242D01*
Y6142D01*
Y5242D02*
X13460Y5042D01*
X13860Y4842D01*
X13460Y4342D02*
Y4542D01*
X13560Y4642D01*
X13760D01*
X13860Y4542D01*
Y4342D01*
X13760Y4242D01*
X13660D01*
Y4642D01*
X13860Y4042D02*
X13460D01*
X13660D01*
X13760Y3942D01*
X13860Y3843D01*
Y3743D01*
X13460Y3443D02*
Y3143D01*
X13560Y3043D01*
X13660Y3143D01*
Y3343D01*
X13760Y3443D01*
X13860Y3343D01*
Y3043D01*
X13460Y2843D02*
Y2643D01*
Y2743D01*
X13860D01*
Y2843D01*
X13460Y2243D02*
Y2043D01*
X13560Y1943D01*
X13760D01*
X13860Y2043D01*
Y2243D01*
X13760Y2343D01*
X13560D01*
X13460Y2243D01*
Y1743D02*
X13860D01*
Y1443D01*
X13760Y1343D01*
X13460D01*
X-4952Y-6455D02*
X40728D01*
X-4952Y-8305D02*
Y-6455D01*
Y-8305D02*
X40728D01*
Y-6455D01*
Y-5505D02*
Y-3655D01*
X-4952Y-5505D02*
X40728D01*
X-4952D02*
Y-3655D01*
X40728D01*
X4528Y-7021D02*
Y-7878D01*
X4570Y-7021D02*
Y-7878D01*
X4528Y-7021D02*
X4742D01*
X4528Y-7878D02*
X4742D01*
X4857Y-7107D02*
X4943Y-7064D01*
X5072Y-6935D01*
Y-7835D01*
X5774Y-6935D02*
X5646Y-6978D01*
X5560Y-7107D01*
X5517Y-7321D01*
Y-7449D01*
X5560Y-7664D01*
X5646Y-7792D01*
X5774Y-7835D01*
X5860D01*
X5989Y-7792D01*
X6074Y-7664D01*
X6117Y-7449D01*
Y-7321D01*
X6074Y-7107D01*
X5989Y-6978D01*
X5860Y-6935D01*
X5774D01*
X6833D02*
X6404D01*
X6361Y-7321D01*
X6404Y-7278D01*
X6533Y-7235D01*
X6661D01*
X6790Y-7278D01*
X6876Y-7364D01*
X6918Y-7492D01*
Y-7578D01*
X6876Y-7706D01*
X6790Y-7792D01*
X6661Y-7835D01*
X6533D01*
X6404Y-7792D01*
X6361Y-7749D01*
X6319Y-7664D01*
X7120Y-7107D02*
X7206Y-7064D01*
X7334Y-6935D01*
Y-7835D01*
X7823Y-7749D02*
X7780Y-7792D01*
X7823Y-7835D01*
X7865Y-7792D01*
X7823Y-7749D01*
X8320Y-6935D02*
X8191Y-6978D01*
X8105Y-7107D01*
X8063Y-7321D01*
Y-7449D01*
X8105Y-7664D01*
X8191Y-7792D01*
X8320Y-7835D01*
X8405D01*
X8534Y-7792D01*
X8620Y-7664D01*
X8662Y-7449D01*
Y-7321D01*
X8620Y-7107D01*
X8534Y-6978D01*
X8405Y-6935D01*
X8320D01*
X9121D02*
X8992Y-6978D01*
X8907Y-7107D01*
X8864Y-7321D01*
Y-7449D01*
X8907Y-7664D01*
X8992Y-7792D01*
X9121Y-7835D01*
X9207D01*
X9335Y-7792D01*
X9421Y-7664D01*
X9464Y-7449D01*
Y-7321D01*
X9421Y-7107D01*
X9335Y-6978D01*
X9207Y-6935D01*
X9121D01*
X9922D02*
X9794Y-6978D01*
X9708Y-7107D01*
X9665Y-7321D01*
Y-7449D01*
X9708Y-7664D01*
X9794Y-7792D01*
X9922Y-7835D01*
X10008D01*
X10136Y-7792D01*
X10222Y-7664D01*
X10265Y-7449D01*
Y-7321D01*
X10222Y-7107D01*
X10136Y-6978D01*
X10008Y-6935D01*
X9922D01*
X10895D02*
X10466Y-7535D01*
X11109D01*
X10895Y-6935D02*
Y-7835D01*
X11268Y-7107D02*
X11353Y-7064D01*
X11482Y-6935D01*
Y-7835D01*
X11970Y-7749D02*
X11927Y-7792D01*
X11970Y-7835D01*
X12013Y-7792D01*
X11970Y-7749D01*
X12467Y-6935D02*
X12339Y-6978D01*
X12253Y-7107D01*
X12210Y-7321D01*
Y-7449D01*
X12253Y-7664D01*
X12339Y-7792D01*
X12467Y-7835D01*
X12553D01*
X12682Y-7792D01*
X12767Y-7664D01*
X12810Y-7449D01*
Y-7321D01*
X12767Y-7107D01*
X12682Y-6978D01*
X12553Y-6935D01*
X12467D01*
X13269D02*
X13140Y-6978D01*
X13054Y-7107D01*
X13011Y-7321D01*
Y-7449D01*
X13054Y-7664D01*
X13140Y-7792D01*
X13269Y-7835D01*
X13354D01*
X13483Y-7792D01*
X13568Y-7664D01*
X13611Y-7449D01*
Y-7321D01*
X13568Y-7107D01*
X13483Y-6978D01*
X13354Y-6935D01*
X13269D01*
X13813Y-8135D02*
X14498D01*
X14871Y-6935D02*
X14743Y-6978D01*
X14657Y-7107D01*
X14614Y-7321D01*
Y-7449D01*
X14657Y-7664D01*
X14743Y-7792D01*
X14871Y-7835D01*
X14957D01*
X15085Y-7792D01*
X15171Y-7664D01*
X15214Y-7449D01*
Y-7321D01*
X15171Y-7107D01*
X15085Y-6978D01*
X14957Y-6935D01*
X14871D01*
X15415Y-7449D02*
X16186D01*
X17138Y-7835D02*
X16795Y-6935D01*
X16452Y-7835D01*
X16581Y-7535D02*
X17009D01*
X17391Y-7749D02*
X17348Y-7792D01*
X17391Y-7835D01*
X17433Y-7792D01*
X17391Y-7749D01*
X17716Y-6935D02*
X18187D01*
X17930Y-7278D01*
X18059D01*
X18145Y-7321D01*
X18187Y-7364D01*
X18230Y-7492D01*
Y-7578D01*
X18187Y-7706D01*
X18102Y-7792D01*
X17973Y-7835D01*
X17845D01*
X17716Y-7792D01*
X17673Y-7749D01*
X17630Y-7664D01*
X18603Y-7021D02*
Y-7878D01*
X18646Y-7021D02*
Y-7878D01*
X18432Y-7021D02*
X18646D01*
X18432Y-7878D02*
X18646D01*
X20159Y-7149D02*
X20116Y-7064D01*
X20030Y-6978D01*
X19944Y-6935D01*
X19773D01*
X19687Y-6978D01*
X19601Y-7064D01*
X19559Y-7149D01*
X19516Y-7278D01*
Y-7492D01*
X19559Y-7621D01*
X19601Y-7706D01*
X19687Y-7792D01*
X19773Y-7835D01*
X19944D01*
X20030Y-7792D01*
X20116Y-7706D01*
X20159Y-7621D01*
X20411Y-6935D02*
Y-7835D01*
Y-6935D02*
X20797D01*
X20925Y-6978D01*
X20968Y-7021D01*
X21011Y-7107D01*
Y-7192D01*
X20968Y-7278D01*
X20925Y-7321D01*
X20797Y-7364D01*
X20411D02*
X20797D01*
X20925Y-7407D01*
X20968Y-7449D01*
X21011Y-7535D01*
Y-7664D01*
X20968Y-7749D01*
X20925Y-7792D01*
X20797Y-7835D01*
X20411D01*
X21812Y-7064D02*
X21727Y-6978D01*
X21598Y-6935D01*
X21427D01*
X21298Y-6978D01*
X21213Y-7064D01*
Y-7149D01*
X21255Y-7235D01*
X21298Y-7278D01*
X21384Y-7321D01*
X21641Y-7407D01*
X21727Y-7449D01*
X21770Y-7492D01*
X21812Y-7578D01*
Y-7706D01*
X21727Y-7792D01*
X21598Y-7835D01*
X21427D01*
X21298Y-7792D01*
X21213Y-7706D01*
X22057Y-7149D02*
Y-7107D01*
X22100Y-7021D01*
X22142Y-6978D01*
X22228Y-6935D01*
X22399D01*
X22485Y-6978D01*
X22528Y-7021D01*
X22571Y-7107D01*
Y-7192D01*
X22528Y-7278D01*
X22442Y-7407D01*
X22014Y-7835D01*
X22614D01*
X22815Y-7107D02*
X22901Y-7064D01*
X23029Y-6935D01*
Y-7835D01*
X23732Y-6935D02*
X23603Y-6978D01*
X23518Y-7107D01*
X23475Y-7321D01*
Y-7449D01*
X23518Y-7664D01*
X23603Y-7792D01*
X23732Y-7835D01*
X23818D01*
X23946Y-7792D01*
X24032Y-7664D01*
X24075Y-7449D01*
Y-7321D01*
X24032Y-7107D01*
X23946Y-6978D01*
X23818Y-6935D01*
X23732D01*
X24533D02*
X24405Y-6978D01*
X24319Y-7107D01*
X24276Y-7321D01*
Y-7449D01*
X24319Y-7664D01*
X24405Y-7792D01*
X24533Y-7835D01*
X24619D01*
X24748Y-7792D01*
X24833Y-7664D01*
X24876Y-7449D01*
Y-7321D01*
X24833Y-7107D01*
X24748Y-6978D01*
X24619Y-6935D01*
X24533D01*
X25634D02*
X25077D01*
Y-7835D01*
X25634D01*
X25077Y-7364D02*
X25420D01*
X26341Y-6935D02*
X25784D01*
Y-7835D01*
X26341D01*
X25784Y-7364D02*
X26127D01*
X26534Y-7749D02*
X26491Y-7792D01*
X26534Y-7835D01*
X26577Y-7792D01*
X26534Y-7749D01*
X27417Y-7149D02*
X27374Y-7064D01*
X27288Y-6978D01*
X27203Y-6935D01*
X27031D01*
X26946Y-6978D01*
X26860Y-7064D01*
X26817Y-7149D01*
X26774Y-7278D01*
Y-7492D01*
X26817Y-7621D01*
X26860Y-7706D01*
X26946Y-7792D01*
X27031Y-7835D01*
X27203D01*
X27288Y-7792D01*
X27374Y-7706D01*
X27417Y-7621D01*
Y-7492D01*
X27203D02*
X27417D01*
X27923Y-6935D02*
Y-7835D01*
X27623Y-6935D02*
X28222D01*
X28587D02*
X28501Y-6978D01*
X28415Y-7064D01*
X28372Y-7149D01*
X28330Y-7278D01*
Y-7492D01*
X28372Y-7621D01*
X28415Y-7706D01*
X28501Y-7792D01*
X28587Y-7835D01*
X28758D01*
X28844Y-7792D01*
X28929Y-7706D01*
X28972Y-7621D01*
X29015Y-7492D01*
Y-7278D01*
X28972Y-7149D01*
X28929Y-7064D01*
X28844Y-6978D01*
X28758Y-6935D01*
X28587D01*
X-4462Y-7407D02*
X-4077D01*
X-3948Y-7364D01*
X-3905Y-7321D01*
X-3863Y-7235D01*
Y-7107D01*
X-3905Y-7021D01*
X-3948Y-6978D01*
X-4077Y-6935D01*
X-4462D01*
Y-7835D01*
X-3661Y-6935D02*
Y-7835D01*
X-3147D01*
X-2791Y-6935D02*
X-2877Y-6978D01*
X-2963Y-7064D01*
X-3006Y-7149D01*
X-3048Y-7278D01*
Y-7492D01*
X-3006Y-7621D01*
X-2963Y-7706D01*
X-2877Y-7792D01*
X-2791Y-7835D01*
X-2620D01*
X-2534Y-7792D01*
X-2449Y-7706D01*
X-2406Y-7621D01*
X-2363Y-7492D01*
Y-7278D01*
X-2406Y-7149D01*
X-2449Y-7064D01*
X-2534Y-6978D01*
X-2620Y-6935D01*
X-2791D01*
X-1853D02*
Y-7835D01*
X-2153Y-6935D02*
X-1553D01*
X-739D02*
Y-7835D01*
Y-6935D02*
X-182D01*
X-739Y-7364D02*
X-396D01*
X-79Y-6935D02*
Y-7835D01*
X109Y-6935D02*
Y-7835D01*
X624D01*
X1279Y-6935D02*
X722D01*
Y-7835D01*
X1279D01*
X722Y-7364D02*
X1065D01*
X1472Y-7235D02*
X1429Y-7278D01*
X1472Y-7321D01*
X1515Y-7278D01*
X1472Y-7235D01*
Y-7749D02*
X1429Y-7792D01*
X1472Y-7835D01*
X1515Y-7792D01*
X1472Y-7749D01*
X-4462Y-4135D02*
Y-5035D01*
X-3948D01*
X-3164D02*
X-3507Y-4135D01*
X-3850Y-5035D01*
X-3721Y-4735D02*
X-3293D01*
X-2954Y-4135D02*
X-2611Y-4564D01*
Y-5035D01*
X-2269Y-4135D02*
X-2611Y-4564D01*
X-1596Y-4135D02*
X-2153D01*
Y-5035D01*
X-1596D01*
X-2153Y-4564D02*
X-1810D01*
X-1446Y-4135D02*
Y-5035D01*
Y-4135D02*
X-1060D01*
X-932Y-4178D01*
X-889Y-4221D01*
X-846Y-4307D01*
Y-4392D01*
X-889Y-4478D01*
X-932Y-4521D01*
X-1060Y-4564D01*
X-1446D01*
X-1146D02*
X-846Y-5035D01*
X62Y-4135D02*
Y-5035D01*
Y-4135D02*
X662Y-5035D01*
Y-4135D02*
Y-5035D01*
X1596D02*
X1253Y-4135D01*
X911Y-5035D01*
X1039Y-4735D02*
X1468D01*
X1806Y-4135D02*
Y-5035D01*
Y-4135D02*
X2149Y-5035D01*
X2492Y-4135D02*
X2149Y-5035D01*
X2492Y-4135D02*
Y-5035D01*
X3306Y-4135D02*
X2749D01*
Y-5035D01*
X3306D01*
X2749Y-4564D02*
X3092D01*
X3499Y-4435D02*
X3456Y-4478D01*
X3499Y-4521D01*
X3542Y-4478D01*
X3499Y-4435D01*
Y-4949D02*
X3456Y-4992D01*
X3499Y-5035D01*
X3542Y-4992D01*
X3499Y-4949D01*
X4827Y-4135D02*
Y-5035D01*
X4528Y-4135D02*
X5127D01*
X5449Y-4435D02*
X5363Y-4478D01*
X5277Y-4564D01*
X5235Y-4692D01*
Y-4778D01*
X5277Y-4906D01*
X5363Y-4992D01*
X5449Y-5035D01*
X5577D01*
X5663Y-4992D01*
X5749Y-4906D01*
X5792Y-4778D01*
Y-4692D01*
X5749Y-4564D01*
X5663Y-4478D01*
X5577Y-4435D01*
X5449D01*
X5989D02*
Y-5335D01*
Y-4564D02*
X6074Y-4478D01*
X6160Y-4435D01*
X6289D01*
X6374Y-4478D01*
X6460Y-4564D01*
X6503Y-4692D01*
Y-4778D01*
X6460Y-4906D01*
X6374Y-4992D01*
X6289Y-5035D01*
X6160D01*
X6074Y-4992D01*
X5989Y-4906D01*
X7660Y-4135D02*
X7574Y-4178D01*
X7488Y-4264D01*
X7446Y-4349D01*
X7403Y-4478D01*
Y-4692D01*
X7446Y-4821D01*
X7488Y-4906D01*
X7574Y-4992D01*
X7660Y-5035D01*
X7831D01*
X7917Y-4992D01*
X8003Y-4906D01*
X8045Y-4821D01*
X8088Y-4692D01*
Y-4478D01*
X8045Y-4349D01*
X8003Y-4264D01*
X7917Y-4178D01*
X7831Y-4135D01*
X7660D01*
X8298Y-4435D02*
X8555Y-5035D01*
X8812Y-4435D02*
X8555Y-5035D01*
X8958Y-4692D02*
X9472D01*
Y-4607D01*
X9429Y-4521D01*
X9387Y-4478D01*
X9301Y-4435D01*
X9172D01*
X9087Y-4478D01*
X9001Y-4564D01*
X8958Y-4692D01*
Y-4778D01*
X9001Y-4906D01*
X9087Y-4992D01*
X9172Y-5035D01*
X9301D01*
X9387Y-4992D01*
X9472Y-4906D01*
X9665Y-4435D02*
Y-5035D01*
Y-4692D02*
X9708Y-4564D01*
X9794Y-4478D01*
X9879Y-4435D01*
X10008D01*
X10089Y-4135D02*
Y-5035D01*
X10792Y-4435D02*
Y-5035D01*
Y-4564D02*
X10706Y-4478D01*
X10621Y-4435D01*
X10492D01*
X10406Y-4478D01*
X10321Y-4564D01*
X10278Y-4692D01*
Y-4778D01*
X10321Y-4906D01*
X10406Y-4992D01*
X10492Y-5035D01*
X10621D01*
X10706Y-4992D01*
X10792Y-4906D01*
X11075Y-4435D02*
X11332Y-5035D01*
X11589Y-4435D02*
X11332Y-5035D01*
X11246Y-5206D01*
X11160Y-5292D01*
X11075Y-5335D01*
X11032D01*
D52*
X5983Y50136D02*
X6853D01*
X5253Y48257D02*
X7643D01*
X5233Y48267D02*
X7643D01*
X5203Y48277D02*
X7643D01*
X5173Y48286D02*
X7633D01*
X5153Y48296D02*
X7623D01*
X5143Y48306D02*
X7613D01*
X5113Y48316D02*
X7603D01*
X5103Y48327D02*
X7573D01*
X5093Y48337D02*
X7563D01*
X5093Y48347D02*
X7553D01*
X5083Y48356D02*
X7533D01*
X5083Y48366D02*
X7513D01*
X5073Y48376D02*
X7503D01*
X5073Y48387D02*
X7483D01*
X5073Y48397D02*
X7473D01*
X5073Y48407D02*
X7443D01*
X5073Y48417D02*
X7433D01*
X5073Y48426D02*
X7423D01*
X5073Y48436D02*
X7403D01*
X5073Y48446D02*
X7383D01*
X5073Y48457D02*
X6153D01*
X6193D02*
X7373D01*
X5073Y48467D02*
X6123D01*
X6203D02*
X7353D01*
X5073Y48477D02*
X5803D01*
X5863D02*
X6113D01*
X6213D02*
X7333D01*
X5073Y48486D02*
X5793D01*
X5863D02*
X6103D01*
X6223D02*
X7323D01*
X7753D02*
X7763D01*
X5073Y48496D02*
X5783D01*
X5873D02*
X6103D01*
X6223D02*
X7303D01*
X7723D02*
X7783D01*
X5073Y48506D02*
X5783D01*
X5873D02*
X6093D01*
X6233D02*
X7293D01*
X7713D02*
X7783D01*
X5083Y48517D02*
X5783D01*
X5873D02*
X6093D01*
X6233D02*
X7273D01*
X7703D02*
X7783D01*
X5083Y48527D02*
X5783D01*
X5873D02*
X6093D01*
X6243D02*
X7263D01*
X7683D02*
X7783D01*
X5093Y48537D02*
X5773D01*
X5883D02*
X6083D01*
X6253D02*
X7243D01*
X7663D02*
X7773D01*
X5093Y48547D02*
X5773D01*
X5883D02*
X6083D01*
X6253D02*
X7223D01*
X7653D02*
X7763D01*
X5093Y48556D02*
X5773D01*
X5883D02*
X6083D01*
X6263D02*
X7203D01*
X7633D02*
X7753D01*
X5103Y48566D02*
X5773D01*
X5883D02*
X6073D01*
X6263D02*
X7193D01*
X7613D02*
X7753D01*
X5113Y48576D02*
X5763D01*
X5883D02*
X6073D01*
X6273D02*
X7183D01*
X7603D02*
X7753D01*
X5113Y48587D02*
X5763D01*
X5883D02*
X6073D01*
X6273D02*
X7153D01*
X7583D02*
X7743D01*
X5123Y48597D02*
X5753D01*
X5883D02*
X6073D01*
X6273D02*
X7143D01*
X7563D02*
X7743D01*
X5123Y48607D02*
X5753D01*
X5883D02*
X6073D01*
X6283D02*
X7123D01*
X7543D02*
X7733D01*
X5133Y48616D02*
X5753D01*
X5883D02*
X6073D01*
X6283D02*
X7103D01*
X7533D02*
X7723D01*
X5133Y48626D02*
X5743D01*
X5883D02*
X6073D01*
X6293D02*
X7093D01*
X7513D02*
X7723D01*
X5143Y48636D02*
X5743D01*
X5883D02*
X6063D01*
X6293D02*
X7083D01*
X7503D02*
X7713D01*
X5153Y48646D02*
X5743D01*
X5893D02*
X6063D01*
X6303D02*
X7063D01*
X7483D02*
X7713D01*
X5153Y48657D02*
X5743D01*
X5893D02*
X6063D01*
X6303D02*
X7043D01*
X7473D02*
X7703D01*
X5163Y48667D02*
X5733D01*
X5893D02*
X6063D01*
X6313D02*
X7033D01*
X7443D02*
X7703D01*
X5163Y48677D02*
X5733D01*
X5893D02*
X6063D01*
X6323D02*
X7013D01*
X7433D02*
X7693D01*
X5163Y48686D02*
X5733D01*
X5893D02*
X6063D01*
X6323D02*
X6993D01*
X7413D02*
X7683D01*
X5173Y48696D02*
X5723D01*
X5893D02*
X6063D01*
X6333D02*
X6983D01*
X7403D02*
X7683D01*
X5183Y48706D02*
X5723D01*
X5893D02*
X6063D01*
X6333D02*
X6973D01*
X7383D02*
X7673D01*
X5193Y48717D02*
X5723D01*
X5883D02*
X6063D01*
X6343D02*
X6943D01*
X7363D02*
X7673D01*
X5193Y48727D02*
X5713D01*
X5883D02*
X6063D01*
X6343D02*
X6933D01*
X7353D02*
X7663D01*
X5203Y48737D02*
X5713D01*
X5883D02*
X6063D01*
X6353D02*
X6923D01*
X7333D02*
X7663D01*
X5203Y48747D02*
X5713D01*
X5883D02*
X6063D01*
X6363D02*
X6903D01*
X7313D02*
X7653D01*
X5203Y48756D02*
X5713D01*
X5883D02*
X6073D01*
X6373D02*
X6883D01*
X7303D02*
X7643D01*
X5213Y48766D02*
X5713D01*
X5873D02*
X6073D01*
X6383D02*
X6863D01*
X7283D02*
X7643D01*
X5223Y48776D02*
X5703D01*
X5873D02*
X6073D01*
X6393D02*
X6853D01*
X7263D02*
X7643D01*
X5223Y48787D02*
X5703D01*
X5873D02*
X6083D01*
X6403D02*
X6833D01*
X7253D02*
X7633D01*
X5233Y48797D02*
X5703D01*
X5873D02*
X6083D01*
X6413D02*
X6823D01*
X7243D02*
X7633D01*
X5233Y48807D02*
X5703D01*
X5873D02*
X6093D01*
X6423D02*
X6803D01*
X7223D02*
X7623D01*
X5243Y48816D02*
X5693D01*
X5873D02*
X6103D01*
X6433D02*
X6793D01*
X7193D02*
X7613D01*
X5243Y48826D02*
X5693D01*
X5873D02*
X6103D01*
X6443D02*
X6763D01*
X7183D02*
X7613D01*
X5253Y48836D02*
X5683D01*
X5873D02*
X6113D01*
X6463D02*
X6743D01*
X7163D02*
X7603D01*
X5263Y48847D02*
X5683D01*
X5863D02*
X6113D01*
X6473D02*
X6733D01*
X7153D02*
X7603D01*
X5263Y48857D02*
X5683D01*
X5863D02*
X6123D01*
X6483D02*
X6713D01*
X7133D02*
X7593D01*
X5273Y48867D02*
X5683D01*
X5863D02*
X6133D01*
X6513D02*
X6683D01*
X7123D02*
X7583D01*
X5273Y48877D02*
X5673D01*
X5863D02*
X6143D01*
X6523D02*
X6673D01*
X7103D02*
X7583D01*
X5283Y48886D02*
X5673D01*
X5863D02*
X6153D01*
X6543D02*
X6653D01*
X7083D02*
X7573D01*
X5283Y48896D02*
X5673D01*
X5863D02*
X6163D01*
X7063D02*
X7573D01*
X5293Y48906D02*
X5673D01*
X5863D02*
X6173D01*
X7053D02*
X7563D01*
X5303Y48917D02*
X5673D01*
X5863D02*
X6173D01*
X7033D02*
X7563D01*
X5303Y48927D02*
X5673D01*
X5863D02*
X6183D01*
X7013D02*
X7553D01*
X5303Y48937D02*
X5663D01*
X5863D02*
X6193D01*
X7003D02*
X7543D01*
X5313Y48946D02*
X5663D01*
X5863D02*
X6203D01*
X6983D02*
X7543D01*
X5313Y48956D02*
X5663D01*
X5873D02*
X6223D01*
X6963D02*
X7533D01*
X5323Y48966D02*
X5653D01*
X5873D02*
X6233D01*
X6943D02*
X7533D01*
X5333Y48976D02*
X5653D01*
X5873D02*
X6243D01*
X6933D02*
X7533D01*
X5333Y48987D02*
X5653D01*
X5873D02*
X6253D01*
X6913D02*
X7523D01*
X5343Y48997D02*
X5653D01*
X5873D02*
X6263D01*
X6903D02*
X7513D01*
X5343Y49007D02*
X5643D01*
X5873D02*
X6273D01*
X6893D02*
X7503D01*
X5353Y49016D02*
X5643D01*
X5873D02*
X6283D01*
X6873D02*
X7503D01*
X5353Y49026D02*
X5643D01*
X5873D02*
X6303D01*
X6853D02*
X7503D01*
X5363Y49036D02*
X5643D01*
X5873D02*
X6313D01*
X6833D02*
X7493D01*
X5373Y49047D02*
X5643D01*
X5873D02*
X6323D01*
X6823D02*
X7493D01*
X5373Y49057D02*
X5633D01*
X5863D02*
X6323D01*
X6813D02*
X7483D01*
X5383Y49067D02*
X5633D01*
X5863D02*
X6323D01*
X6803D02*
X7473D01*
X5383Y49076D02*
X5633D01*
X5853D02*
X6323D01*
X6793D02*
X7473D01*
X5383Y49086D02*
X5633D01*
X5853D02*
X6323D01*
X6793D02*
X7463D01*
X5393Y49096D02*
X5633D01*
X5863D02*
X6313D01*
X6803D02*
X7463D01*
X5403Y49106D02*
X5633D01*
X5863D02*
X6293D01*
X6813D02*
X7453D01*
X5413Y49117D02*
X5633D01*
X5863D02*
X6273D01*
X6833D02*
X7453D01*
X5413Y49127D02*
X5643D01*
X5873D02*
X6263D01*
X6843D02*
X7443D01*
X5413Y49137D02*
X5643D01*
X5873D02*
X6243D01*
X6853D02*
X7433D01*
X5423Y49146D02*
X5643D01*
X5883D02*
X6223D01*
X6873D02*
X7433D01*
X5423Y49156D02*
X5643D01*
X5893D02*
X6213D01*
X6893D02*
X7423D01*
X5433Y49166D02*
X5653D01*
X5903D02*
X6203D01*
X6903D02*
X7423D01*
X5443Y49177D02*
X5653D01*
X5913D02*
X6183D01*
X6913D02*
X7423D01*
X5443Y49187D02*
X5653D01*
X5923D02*
X6153D01*
X6933D02*
X7413D01*
X5453Y49197D02*
X5663D01*
X5933D02*
X6143D01*
X6943D02*
X7403D01*
X5453Y49207D02*
X5663D01*
X5943D02*
X6133D01*
X6953D02*
X7403D01*
X5463Y49216D02*
X5663D01*
X5943D02*
X6113D01*
X6953D02*
X7393D01*
X5473Y49226D02*
X5663D01*
X5953D02*
X6103D01*
X6973D02*
X7393D01*
X5473Y49236D02*
X5663D01*
X5963D02*
X6083D01*
X6973D02*
X7383D01*
X5483Y49247D02*
X5663D01*
X5973D02*
X6073D01*
X6983D02*
X7383D01*
X5483Y49257D02*
X5673D01*
X5983D02*
X6053D01*
X6993D02*
X7373D01*
X5493Y49267D02*
X5673D01*
X6993D02*
X7363D01*
X5493Y49276D02*
X5673D01*
X7003D02*
X7363D01*
X5503Y49286D02*
X5673D01*
X7013D02*
X7353D01*
X5513Y49296D02*
X5673D01*
X7013D02*
X7353D01*
X5513Y49307D02*
X5673D01*
X7023D02*
X7343D01*
X5513Y49317D02*
X5683D01*
X7023D02*
X7343D01*
X5523Y49327D02*
X5683D01*
X7033D02*
X7333D01*
X5523Y49337D02*
X5683D01*
X7043D02*
X7323D01*
X5533Y49346D02*
X5693D01*
X7043D02*
X7323D01*
X5543Y49356D02*
X5693D01*
X7053D02*
X7323D01*
X5543Y49366D02*
X5693D01*
X7053D02*
X7313D01*
X5553Y49377D02*
X5703D01*
X7063D02*
X7303D01*
X5553Y49387D02*
X5703D01*
X7073D02*
X7303D01*
X5563Y49397D02*
X5703D01*
X7083D02*
X7293D01*
X5563Y49406D02*
X5703D01*
X7093D02*
X7293D01*
X5573Y49416D02*
X5713D01*
X7093D02*
X7283D01*
X5583Y49426D02*
X5713D01*
X7103D02*
X7283D01*
X5583Y49436D02*
X5713D01*
X7113D02*
X7273D01*
X5593Y49447D02*
X5713D01*
X7123D02*
X7263D01*
X5593Y49457D02*
X5713D01*
X7153D02*
X7243D01*
X5593Y49467D02*
X5713D01*
X5603Y49476D02*
X5703D01*
X5613Y49486D02*
X5703D01*
X5623Y49496D02*
X5693D01*
X5633Y49507D02*
X5683D01*
X5833Y49637D02*
X5863D01*
X5803Y49647D02*
X5883D01*
X5783Y49657D02*
X5893D01*
X5753Y49667D02*
X5903D01*
X5733Y49676D02*
X5913D01*
X5733Y49686D02*
X5923D01*
X5733Y49696D02*
X5933D01*
X5733Y49707D02*
X5943D01*
X5733Y49717D02*
X5953D01*
X5743Y49727D02*
X5963D01*
X5753Y49736D02*
X5973D01*
X5753Y49746D02*
X5993D01*
X5763Y49756D02*
X6003D01*
X5763Y49767D02*
X6013D01*
X5773Y49777D02*
X6243D01*
X5783Y49787D02*
X6323D01*
X5783Y49797D02*
X6373D01*
X5793Y49806D02*
X6453D01*
X5793Y49816D02*
X6543D01*
X5803Y49826D02*
X6583D01*
X5803Y49837D02*
X6613D01*
X5813Y49847D02*
X6673D01*
X5823Y49857D02*
X6703D01*
X5833Y49866D02*
X6723D01*
X5833Y49876D02*
X6753D01*
X5833Y49886D02*
X6793D01*
X5843Y49896D02*
X6813D01*
X5853Y49907D02*
X6833D01*
X5853Y49917D02*
X6863D01*
X5863Y49927D02*
X6873D01*
X5863Y49936D02*
X6893D01*
X5873Y49946D02*
X6903D01*
X5873Y49956D02*
X6923D01*
X5883Y49967D02*
X6933D01*
X5893Y49977D02*
X6933D01*
X5893Y49987D02*
X6933D01*
X5903Y49997D02*
X6933D01*
X5903Y50006D02*
X6923D01*
X5913Y50016D02*
X6923D01*
X5923Y50026D02*
X6913D01*
X5923Y50037D02*
X6903D01*
X5933Y50047D02*
X6903D01*
X5933Y50057D02*
X6893D01*
X5943Y50066D02*
X6893D01*
X5943Y50076D02*
X6883D01*
X5953Y50086D02*
X6883D01*
X5963Y50097D02*
X6873D01*
X5963Y50107D02*
X6873D01*
X5973Y50117D02*
X6863D01*
X5983Y50127D02*
X6863D01*
X5983Y50146D02*
X6853D01*
X5993Y50156D02*
X6843D01*
X6003Y50167D02*
X6843D01*
X6003Y50177D02*
X6833D01*
X6013Y50187D02*
X6833D01*
X6013Y50196D02*
X6823D01*
X6023Y50206D02*
X6823D01*
X6033Y50216D02*
X6813D01*
X6033Y50226D02*
X6803D01*
X6043Y50237D02*
X6803D01*
X6043Y50247D02*
X6803D01*
X6053Y50257D02*
X6793D01*
X6053Y50266D02*
X6793D01*
X6063Y50276D02*
X6783D01*
X6073Y50286D02*
X6783D01*
X6073Y50297D02*
X6773D01*
X6083Y50307D02*
X6763D01*
X6083Y50317D02*
X6763D01*
X6093Y50326D02*
X6753D01*
X6103Y50336D02*
X6753D01*
X6103Y50346D02*
X6743D01*
X6113Y50356D02*
X6743D01*
X6113Y50367D02*
X6733D01*
X6123Y50377D02*
X6733D01*
X6123Y50387D02*
X6723D01*
X6133Y50396D02*
X6723D01*
X6143Y50406D02*
X6713D01*
X6143Y50416D02*
X6713D01*
X6153Y50427D02*
X6703D01*
X6153Y50437D02*
X6703D01*
X6163Y50447D02*
X6693D01*
X6163Y50457D02*
X6693D01*
X6173Y50466D02*
X6683D01*
X6183Y50476D02*
X6683D01*
X6183Y50486D02*
X6673D01*
X6193Y50497D02*
X6673D01*
X6193Y50507D02*
X6663D01*
X6203Y50517D02*
X6663D01*
X6213Y50526D02*
X6653D01*
X6213Y50536D02*
X6653D01*
X6223Y50546D02*
X6643D01*
X6223Y50557D02*
X6643D01*
X6233Y50567D02*
X6633D01*
X6233Y50577D02*
X6623D01*
X6243Y50587D02*
X6623D01*
X6253Y50596D02*
X6613D01*
X6253Y50606D02*
X6613D01*
X6263Y50616D02*
X6603D01*
X6273Y50627D02*
X6593D01*
X6273Y50637D02*
X6583D01*
X6293Y50647D02*
X6583D01*
X6303Y50656D02*
X6573D01*
X6313Y50666D02*
X6563D01*
X6333Y50676D02*
X6553D01*
X6353Y50686D02*
X6543D01*
X6373Y50697D02*
X6533D01*
X6393Y50707D02*
X6523D01*
X6413Y50717D02*
X6513D01*
X6443Y50726D02*
X6493D01*
X18520Y41180D02*
X18660D01*
X14850D02*
X14980D01*
X11230D02*
X11370D01*
X19590Y41190D02*
X19830D01*
X19150D02*
X19310D01*
X18470D02*
X18720D01*
X17750D02*
X18110D01*
X17230D02*
X17400D01*
X16790D02*
X16980D01*
X16170D02*
X16350D01*
X15650D02*
X15880D01*
X14790D02*
X15040D01*
X14130D02*
X14360D01*
X13680D02*
X13840D01*
X13210D02*
X13450D01*
X12770D02*
X12930D01*
X12240D02*
X12590D01*
X11170D02*
X11420D01*
X10440D02*
X10600D01*
X9340D02*
X9580D01*
X8900D02*
X9060D01*
X8160D02*
X8690D01*
X7510D02*
X7740D01*
X6750D02*
X7110D01*
X6430D02*
X6630D01*
X5930D02*
X6100D01*
X5080D02*
X5480D01*
X19580Y41200D02*
X19840D01*
X19140D02*
X19320D01*
X18440D02*
X18750D01*
X17740D02*
X18120D01*
X17220D02*
X17410D01*
X16780D02*
X16990D01*
X16160D02*
X16370D01*
X15630D02*
X15890D01*
X14760D02*
X15070D01*
X14110D02*
X14370D01*
X13670D02*
X13850D01*
X13200D02*
X13460D01*
X12760D02*
X12940D01*
X12230D02*
X12600D01*
X11140D02*
X11450D01*
X10420D02*
X10610D01*
X9330D02*
X9590D01*
X8890D02*
X9070D01*
X8150D02*
X8700D01*
X7490D02*
X7750D01*
X6740D02*
X7120D01*
X6410D02*
X6630D01*
X5920D02*
X6110D01*
X5070D02*
X5530D01*
X19580Y41210D02*
X19840D01*
X19130D02*
X19320D01*
X18410D02*
X18770D01*
X17740D02*
X18120D01*
X17220D02*
X17410D01*
X16770D02*
X16990D01*
X16160D02*
X16370D01*
X15620D02*
X15900D01*
X14740D02*
X15100D01*
X14110D02*
X14370D01*
X13670D02*
X13850D01*
X13200D02*
X13460D01*
X12760D02*
X12940D01*
X12230D02*
X12600D01*
X11120D02*
X11480D01*
X10420D02*
X10620D01*
X9330D02*
X9590D01*
X8880D02*
X9070D01*
X8140D02*
X8700D01*
X7480D02*
X7760D01*
X6740D02*
X7120D01*
X6410D02*
X6630D01*
X5920D02*
X6120D01*
X5070D02*
X5560D01*
X19570Y41220D02*
X19840D01*
X19130D02*
X19320D01*
X18390D02*
X18790D01*
X17740D02*
X18120D01*
X17220D02*
X17410D01*
X16770D02*
X16990D01*
X16170D02*
X16370D01*
X15620D02*
X15900D01*
X14710D02*
X15120D01*
X14100D02*
X14370D01*
X13670D02*
X13850D01*
X13190D02*
X13460D01*
X12760D02*
X12940D01*
X12230D02*
X12600D01*
X11090D02*
X11500D01*
X10420D02*
X10620D01*
X9320D02*
X9590D01*
X8880D02*
X9070D01*
X8140D02*
X8700D01*
X7480D02*
X7760D01*
X6740D02*
X7120D01*
X6400D02*
X6630D01*
X5920D02*
X6120D01*
X5070D02*
X5580D01*
X19560Y41230D02*
X19840D01*
X19130D02*
X19320D01*
X18370D02*
X18810D01*
X17740D02*
X18120D01*
X17220D02*
X17410D01*
X16770D02*
X16980D01*
X16170D02*
X16380D01*
X15620D02*
X15910D01*
X14700D02*
X15140D01*
X14100D02*
X14370D01*
X13670D02*
X13850D01*
X13190D02*
X13460D01*
X12760D02*
X12940D01*
X12230D02*
X12600D01*
X11080D02*
X11520D01*
X10420D02*
X10620D01*
X9310D02*
X9590D01*
X8880D02*
X9070D01*
X8140D02*
X8700D01*
X7480D02*
X7770D01*
X6740D02*
X7120D01*
X6400D02*
X6620D01*
X5920D02*
X6120D01*
X5070D02*
X5600D01*
X19560Y41240D02*
X19840D01*
X19130D02*
X19320D01*
X18360D02*
X18830D01*
X17740D02*
X18120D01*
X17220D02*
X17410D01*
X16760D02*
X16980D01*
X16170D02*
X16380D01*
X15610D02*
X15910D01*
X14680D02*
X15150D01*
X14090D02*
X14370D01*
X13670D02*
X13850D01*
X13180D02*
X13460D01*
X12760D02*
X12940D01*
X12230D02*
X12600D01*
X11060D02*
X11530D01*
X10420D02*
X10620D01*
X9310D02*
X9590D01*
X8880D02*
X9070D01*
X8140D02*
X8700D01*
X7470D02*
X7770D01*
X6740D02*
X7120D01*
X6390D02*
X6620D01*
X5920D02*
X6120D01*
X5070D02*
X5620D01*
X19550Y41250D02*
X19840D01*
X19130D02*
X19320D01*
X18340D02*
X18840D01*
X17740D02*
X18120D01*
X17220D02*
X17410D01*
X16760D02*
X16980D01*
X16180D02*
X16380D01*
X15610D02*
X15910D01*
X14670D02*
X15160D01*
X14090D02*
X14370D01*
X13670D02*
X13850D01*
X13180D02*
X13460D01*
X12760D02*
X12940D01*
X12230D02*
X12600D01*
X11050D02*
X11540D01*
X10420D02*
X10620D01*
X9300D02*
X9590D01*
X8880D02*
X9070D01*
X8140D02*
X8700D01*
X7470D02*
X7770D01*
X6740D02*
X7120D01*
X6390D02*
X6610D01*
X5920D02*
X6120D01*
X5070D02*
X5630D01*
X19550Y41260D02*
X19840D01*
X19130D02*
X19320D01*
X18330D02*
X18850D01*
X17740D02*
X18120D01*
X17220D02*
X17410D01*
X16760D02*
X16970D01*
X16180D02*
X16390D01*
X15610D02*
X15920D01*
X14660D02*
X15180D01*
X14080D02*
X14370D01*
X13670D02*
X13850D01*
X13170D02*
X13460D01*
X12760D02*
X12940D01*
X12230D02*
X12600D01*
X11040D02*
X11560D01*
X10420D02*
X10620D01*
X9300D02*
X9590D01*
X8880D02*
X9070D01*
X8140D02*
X8700D01*
X7460D02*
X7780D01*
X6740D02*
X7120D01*
X6390D02*
X6610D01*
X5920D02*
X6120D01*
X5070D02*
X5640D01*
X19550Y41270D02*
X19840D01*
X19130D02*
X19320D01*
X18320D02*
X18860D01*
X17740D02*
X18120D01*
X17220D02*
X17410D01*
X16750D02*
X16970D01*
X16180D02*
X16390D01*
X15770D02*
X15920D01*
X15600D02*
X15760D01*
X14650D02*
X15190D01*
X14080D02*
X14370D01*
X13670D02*
X13850D01*
X13170D02*
X13460D01*
X12760D02*
X12940D01*
X12230D02*
X12600D01*
X11030D02*
X11570D01*
X10420D02*
X10620D01*
X9300D02*
X9590D01*
X8880D02*
X9070D01*
X8140D02*
X8700D01*
X7630D02*
X7780D01*
X7460D02*
X7620D01*
X6740D02*
X7120D01*
X6380D02*
X6600D01*
X5920D02*
X6120D01*
X5070D02*
X5650D01*
X19540Y41280D02*
X19840D01*
X19130D02*
X19320D01*
X18320D02*
X18870D01*
X17740D02*
X18120D01*
X17220D02*
X17410D01*
X16750D02*
X16970D01*
X16190D02*
X16390D01*
X15770D02*
X15920D01*
X15600D02*
X15760D01*
X14640D02*
X15190D01*
X14070D02*
X14370D01*
X13670D02*
X13850D01*
X13160D02*
X13460D01*
X12760D02*
X12940D01*
X12230D02*
X12600D01*
X11020D02*
X11570D01*
X10420D02*
X10620D01*
X9290D02*
X9590D01*
X8880D02*
X9070D01*
X8140D02*
X8700D01*
X7630D02*
X7780D01*
X7460D02*
X7620D01*
X6740D02*
X7120D01*
X6380D02*
X6600D01*
X5920D02*
X6120D01*
X5070D02*
X5660D01*
X19540Y41290D02*
X19840D01*
X19130D02*
X19320D01*
X18310D02*
X18880D01*
X17750D02*
X18110D01*
X17220D02*
X17410D01*
X16750D02*
X16960D01*
X16190D02*
X16390D01*
X15770D02*
X15930D01*
X15600D02*
X15760D01*
X14630D02*
X15200D01*
X14070D02*
X14370D01*
X13670D02*
X13850D01*
X13160D02*
X13460D01*
X12760D02*
X12940D01*
X12240D02*
X12590D01*
X11010D02*
X11580D01*
X10420D02*
X10620D01*
X9290D02*
X9590D01*
X8880D02*
X9070D01*
X8140D02*
X8700D01*
X7630D02*
X7790D01*
X7450D02*
X7620D01*
X6750D02*
X7110D01*
X6380D02*
X6590D01*
X5920D02*
X6120D01*
X5070D02*
X5670D01*
X19530Y41300D02*
X19840D01*
X19130D02*
X19320D01*
X18630D02*
X18890D01*
X18300D02*
X18550D01*
X17830D02*
X18030D01*
X17220D02*
X17410D01*
X16740D02*
X16960D01*
X16190D02*
X16400D01*
X15770D02*
X15930D01*
X15590D02*
X15760D01*
X14960D02*
X15210D01*
X14620D02*
X14870D01*
X14070D02*
X14370D01*
X13670D02*
X13850D01*
X13150D02*
X13460D01*
X12760D02*
X12940D01*
X12320D02*
X12510D01*
X11340D02*
X11590D01*
X11000D02*
X11250D01*
X10420D02*
X10620D01*
X9280D02*
X9590D01*
X8880D02*
X9070D01*
X8140D02*
X8700D01*
X7630D02*
X7790D01*
X7450D02*
X7620D01*
X6830D02*
X7030D01*
X6370D02*
X6590D01*
X5920D02*
X6120D01*
X5070D02*
X5680D01*
X19530Y41310D02*
X19840D01*
X19130D02*
X19320D01*
X18670D02*
X18890D01*
X18290D02*
X18520D01*
X17830D02*
X18030D01*
X17220D02*
X17410D01*
X16740D02*
X16960D01*
X16200D02*
X16400D01*
X15780D02*
X15930D01*
X15590D02*
X15760D01*
X14990D02*
X15220D01*
X14620D02*
X14840D01*
X14060D02*
X14370D01*
X13670D02*
X13850D01*
X13150D02*
X13460D01*
X12760D02*
X12940D01*
X12320D02*
X12510D01*
X11370D02*
X11600D01*
X11000D02*
X11220D01*
X10420D02*
X10620D01*
X9280D02*
X9590D01*
X8880D02*
X9070D01*
X8140D02*
X8690D01*
X7630D02*
X7790D01*
X7450D02*
X7620D01*
X6830D02*
X7030D01*
X6370D02*
X6580D01*
X5920D02*
X6120D01*
X5070D02*
X5690D01*
X19520Y41320D02*
X19840D01*
X19130D02*
X19320D01*
X18680D02*
X18900D01*
X18290D02*
X18500D01*
X17830D02*
X18030D01*
X17220D02*
X17410D01*
X16740D02*
X16950D01*
X16200D02*
X16400D01*
X15780D02*
X15940D01*
X15580D02*
X15760D01*
X15010D02*
X15220D01*
X14610D02*
X14830D01*
X14060D02*
X14370D01*
X13670D02*
X13850D01*
X13140D02*
X13460D01*
X12760D02*
X12940D01*
X12320D02*
X12510D01*
X11390D02*
X11600D01*
X10990D02*
X11210D01*
X10420D02*
X10620D01*
X9270D02*
X9590D01*
X8880D02*
X9070D01*
X8140D02*
X8340D01*
X7640D02*
X7800D01*
X7440D02*
X7610D01*
X6830D02*
X7030D01*
X6360D02*
X6580D01*
X5920D02*
X6120D01*
X5420D02*
X5690D01*
X5070D02*
X5260D01*
X19520Y41330D02*
X19840D01*
X19130D02*
X19320D01*
X18700D02*
X18910D01*
X18280D02*
X18490D01*
X17830D02*
X18030D01*
X17220D02*
X17410D01*
X16730D02*
X16950D01*
X16200D02*
X16410D01*
X15780D02*
X15940D01*
X15580D02*
X15750D01*
X15020D02*
X15230D01*
X14600D02*
X14810D01*
X14050D02*
X14370D01*
X13670D02*
X13850D01*
X13140D02*
X13460D01*
X12760D02*
X12940D01*
X12320D02*
X12510D01*
X11400D02*
X11610D01*
X10980D02*
X11190D01*
X10420D02*
X10620D01*
X9270D02*
X9590D01*
X8880D02*
X9070D01*
X8140D02*
X8340D01*
X7640D02*
X7800D01*
X7440D02*
X7610D01*
X6830D02*
X7030D01*
X6360D02*
X6570D01*
X5920D02*
X6120D01*
X5450D02*
X5700D01*
X5070D02*
X5260D01*
X19510Y41340D02*
X19840D01*
X19130D02*
X19320D01*
X18710D02*
X18910D01*
X18270D02*
X18480D01*
X17830D02*
X18030D01*
X17220D02*
X17410D01*
X16730D02*
X16940D01*
X16210D02*
X16410D01*
X15780D02*
X15940D01*
X15580D02*
X15750D01*
X15030D02*
X15240D01*
X14600D02*
X14800D01*
X14050D02*
X14370D01*
X13670D02*
X13850D01*
X13130D02*
X13460D01*
X12760D02*
X12940D01*
X12320D02*
X12510D01*
X11410D02*
X11620D01*
X10980D02*
X11180D01*
X10420D02*
X10620D01*
X9260D02*
X9590D01*
X8880D02*
X9070D01*
X8140D02*
X8340D01*
X7640D02*
X7800D01*
X7440D02*
X7610D01*
X6830D02*
X7030D01*
X6360D02*
X6570D01*
X5920D02*
X6120D01*
X5460D02*
X5700D01*
X5070D02*
X5260D01*
X19510Y41350D02*
X19840D01*
X19130D02*
X19320D01*
X18710D02*
X18920D01*
X18270D02*
X18470D01*
X17830D02*
X18030D01*
X17220D02*
X17410D01*
X16730D02*
X16940D01*
X16210D02*
X16410D01*
X15780D02*
X15950D01*
X15570D02*
X15750D01*
X15040D02*
X15240D01*
X14590D02*
X14800D01*
X14040D02*
X14370D01*
X13670D02*
X13850D01*
X13130D02*
X13460D01*
X12760D02*
X12940D01*
X12320D02*
X12510D01*
X11420D02*
X11620D01*
X10970D02*
X11180D01*
X10420D02*
X10620D01*
X9260D02*
X9590D01*
X8880D02*
X9070D01*
X8140D02*
X8340D01*
X7640D02*
X7810D01*
X7430D02*
X7610D01*
X6830D02*
X7030D01*
X6350D02*
X6560D01*
X5920D02*
X6120D01*
X5480D02*
X5710D01*
X5070D02*
X5260D01*
X19670Y41360D02*
X19840D01*
X19500D02*
X19660D01*
X19130D02*
X19320D01*
X18720D02*
X18920D01*
X18260D02*
X18460D01*
X17830D02*
X18030D01*
X17220D02*
X17410D01*
X16720D02*
X16940D01*
X16210D02*
X16420D01*
X15780D02*
X15950D01*
X15570D02*
X15750D01*
X15050D02*
X15240D01*
X14590D02*
X14790D01*
X14210D02*
X14370D01*
X14040D02*
X14200D01*
X13670D02*
X13850D01*
X13300D02*
X13460D01*
X13130D02*
X13290D01*
X12760D02*
X12940D01*
X12320D02*
X12510D01*
X11430D02*
X11630D01*
X10970D02*
X11170D01*
X10420D02*
X10620D01*
X9420D02*
X9590D01*
X9250D02*
X9410D01*
X8880D02*
X9070D01*
X8140D02*
X8340D01*
X7640D02*
X7810D01*
X7430D02*
X7610D01*
X6830D02*
X7030D01*
X6350D02*
X6560D01*
X5920D02*
X6120D01*
X5490D02*
X5710D01*
X5070D02*
X5260D01*
X19670Y41370D02*
X19840D01*
X19500D02*
X19660D01*
X19130D02*
X19320D01*
X18730D02*
X18920D01*
X18260D02*
X18460D01*
X17830D02*
X18030D01*
X17220D02*
X17410D01*
X16220D02*
X16930D01*
X15790D02*
X15950D01*
X15570D02*
X15750D01*
X15050D02*
X15250D01*
X14580D02*
X14780D01*
X14210D02*
X14370D01*
X14030D02*
X14190D01*
X13670D02*
X13850D01*
X13300D02*
X13460D01*
X13120D02*
X13280D01*
X12760D02*
X12940D01*
X12320D02*
X12510D01*
X11430D02*
X11630D01*
X10960D02*
X11160D01*
X10420D02*
X10620D01*
X9420D02*
X9590D01*
X9250D02*
X9410D01*
X8880D02*
X9070D01*
X8140D02*
X8340D01*
X7640D02*
X7810D01*
X7430D02*
X7610D01*
X6830D02*
X7030D01*
X6340D02*
X6550D01*
X5920D02*
X6120D01*
X5500D02*
X5720D01*
X5070D02*
X5260D01*
X19670Y41380D02*
X19840D01*
X19490D02*
X19660D01*
X19130D02*
X19320D01*
X18730D02*
X18930D01*
X18260D02*
X18450D01*
X17830D02*
X18030D01*
X17220D02*
X17410D01*
X16220D02*
X16930D01*
X15790D02*
X15960D01*
X15560D02*
X15750D01*
X15060D02*
X15250D01*
X14580D02*
X14780D01*
X14210D02*
X14370D01*
X14030D02*
X14190D01*
X13670D02*
X13850D01*
X13290D02*
X13460D01*
X13120D02*
X13280D01*
X12760D02*
X12940D01*
X12320D02*
X12510D01*
X11440D02*
X11630D01*
X10960D02*
X11160D01*
X10420D02*
X10620D01*
X9420D02*
X9590D01*
X9240D02*
X9410D01*
X8880D02*
X9070D01*
X8140D02*
X8340D01*
X7650D02*
X7820D01*
X7420D02*
X7600D01*
X6830D02*
X7030D01*
X6340D02*
X6550D01*
X5920D02*
X6120D01*
X5500D02*
X5720D01*
X5070D02*
X5260D01*
X19670Y41390D02*
X19840D01*
X19490D02*
X19650D01*
X19130D02*
X19320D01*
X18740D02*
X18930D01*
X18250D02*
X18450D01*
X17830D02*
X18030D01*
X17220D02*
X17410D01*
X16220D02*
X16930D01*
X15790D02*
X15960D01*
X15560D02*
X15740D01*
X15060D02*
X15260D01*
X14580D02*
X14770D01*
X14210D02*
X14370D01*
X14020D02*
X14190D01*
X13670D02*
X13850D01*
X13290D02*
X13460D01*
X13110D02*
X13280D01*
X12760D02*
X12940D01*
X12320D02*
X12510D01*
X11440D02*
X11640D01*
X10960D02*
X11150D01*
X10420D02*
X10620D01*
X9420D02*
X9590D01*
X9240D02*
X9400D01*
X8880D02*
X9070D01*
X8140D02*
X8340D01*
X7650D02*
X7820D01*
X7420D02*
X7600D01*
X6830D02*
X7030D01*
X6330D02*
X6540D01*
X5920D02*
X6120D01*
X5510D02*
X5720D01*
X5070D02*
X5260D01*
X19670Y41400D02*
X19840D01*
X19480D02*
X19650D01*
X19130D02*
X19320D01*
X18740D02*
X18940D01*
X18250D02*
X18450D01*
X17830D02*
X18030D01*
X17220D02*
X17410D01*
X16230D02*
X16920D01*
X15790D02*
X15960D01*
X15560D02*
X15740D01*
X15060D02*
X15260D01*
X14570D02*
X14770D01*
X14200D02*
X14370D01*
X14020D02*
X14180D01*
X13670D02*
X13850D01*
X13290D02*
X13460D01*
X13110D02*
X13270D01*
X12760D02*
X12940D01*
X12320D02*
X12510D01*
X11440D02*
X11640D01*
X10950D02*
X11150D01*
X10420D02*
X10620D01*
X9420D02*
X9590D01*
X9230D02*
X9400D01*
X8880D02*
X9070D01*
X8140D02*
X8340D01*
X7650D02*
X7820D01*
X7420D02*
X7600D01*
X6830D02*
X7030D01*
X6330D02*
X6540D01*
X5920D02*
X6120D01*
X5520D02*
X5730D01*
X5070D02*
X5260D01*
X19670Y41410D02*
X19840D01*
X19480D02*
X19650D01*
X19130D02*
X19320D01*
X18740D02*
X18940D01*
X18250D02*
X18440D01*
X17830D02*
X18030D01*
X17220D02*
X17410D01*
X16230D02*
X16920D01*
X15790D02*
X15970D01*
X15550D02*
X15740D01*
X15070D02*
X15260D01*
X14570D02*
X14770D01*
X14200D02*
X14370D01*
X14010D02*
X14180D01*
X13670D02*
X13850D01*
X13290D02*
X13460D01*
X13100D02*
X13270D01*
X12760D02*
X12940D01*
X12320D02*
X12510D01*
X11450D02*
X11640D01*
X10950D02*
X11150D01*
X10420D02*
X10620D01*
X9420D02*
X9590D01*
X9230D02*
X9400D01*
X8880D02*
X9070D01*
X8140D02*
X8340D01*
X7650D02*
X7830D01*
X7410D02*
X7600D01*
X6830D02*
X7030D01*
X6320D02*
X6530D01*
X5920D02*
X6120D01*
X5520D02*
X5730D01*
X5070D02*
X5260D01*
X19670Y41420D02*
X19840D01*
X19470D02*
X19640D01*
X19130D02*
X19320D01*
X18740D02*
X18940D01*
X18240D02*
X18440D01*
X17830D02*
X18030D01*
X17220D02*
X17410D01*
X16230D02*
X16920D01*
X15800D02*
X15970D01*
X15550D02*
X15740D01*
X15070D02*
X15270D01*
X14570D02*
X14760D01*
X14200D02*
X14370D01*
X14010D02*
X14180D01*
X13670D02*
X13850D01*
X13290D02*
X13460D01*
X13100D02*
X13270D01*
X12760D02*
X12940D01*
X12320D02*
X12510D01*
X11450D02*
X11650D01*
X10950D02*
X11140D01*
X10420D02*
X10620D01*
X9420D02*
X9590D01*
X9220D02*
X9390D01*
X8880D02*
X9070D01*
X8140D02*
X8340D01*
X7650D02*
X7830D01*
X7410D02*
X7600D01*
X6830D02*
X7030D01*
X6320D02*
X6530D01*
X5920D02*
X6120D01*
X5520D02*
X5730D01*
X5070D02*
X5260D01*
X19670Y41430D02*
X19840D01*
X19470D02*
X19640D01*
X19130D02*
X19320D01*
X18750D02*
X18940D01*
X18240D02*
X18440D01*
X17830D02*
X18030D01*
X17220D02*
X17410D01*
X16240D02*
X16910D01*
X15800D02*
X15980D01*
X15550D02*
X15740D01*
X15070D02*
X15270D01*
X14570D02*
X14760D01*
X14200D02*
X14370D01*
X14000D02*
X14170D01*
X13670D02*
X13850D01*
X13290D02*
X13460D01*
X13090D02*
X13260D01*
X12760D02*
X12940D01*
X12320D02*
X12510D01*
X11450D02*
X11650D01*
X10950D02*
X11140D01*
X10420D02*
X10620D01*
X9420D02*
X9590D01*
X9220D02*
X9390D01*
X8880D02*
X9070D01*
X8140D02*
X8340D01*
X7660D02*
X7830D01*
X7400D02*
X7590D01*
X6830D02*
X7030D01*
X6310D02*
X6520D01*
X5920D02*
X6120D01*
X5530D02*
X5730D01*
X5070D02*
X5260D01*
X19670Y41440D02*
X19840D01*
X19460D02*
X19640D01*
X19130D02*
X19320D01*
X18750D02*
X18950D01*
X18240D02*
X18440D01*
X17830D02*
X18030D01*
X17220D02*
X17410D01*
X16240D02*
X16910D01*
X15800D02*
X15980D01*
X15540D02*
X15730D01*
X15070D02*
X15270D01*
X14560D02*
X14760D01*
X14200D02*
X14370D01*
X14000D02*
X14170D01*
X13670D02*
X13850D01*
X13290D02*
X13460D01*
X13090D02*
X13260D01*
X12760D02*
X12940D01*
X12320D02*
X12510D01*
X11450D02*
X11650D01*
X10940D02*
X11140D01*
X10420D02*
X10620D01*
X9420D02*
X9590D01*
X9210D02*
X9390D01*
X8880D02*
X9070D01*
X8140D02*
X8340D01*
X7660D02*
X7840D01*
X7400D02*
X7590D01*
X6830D02*
X7030D01*
X6310D02*
X6510D01*
X5920D02*
X6120D01*
X5530D02*
X5730D01*
X5070D02*
X5260D01*
X19660Y41450D02*
X19840D01*
X19460D02*
X19630D01*
X19130D02*
X19320D01*
X18750D02*
X18950D01*
X18240D02*
X18430D01*
X17830D02*
X18030D01*
X17220D02*
X17410D01*
X16240D02*
X16900D01*
X15800D02*
X15980D01*
X15540D02*
X15730D01*
X15080D02*
X15270D01*
X14560D02*
X14760D01*
X14200D02*
X14370D01*
X13990D02*
X14170D01*
X13670D02*
X13850D01*
X13290D02*
X13460D01*
X13080D02*
X13260D01*
X12760D02*
X12940D01*
X12320D02*
X12510D01*
X11460D02*
X11650D01*
X10940D02*
X11140D01*
X10420D02*
X10620D01*
X9410D02*
X9590D01*
X9210D02*
X9380D01*
X8880D02*
X9070D01*
X8140D02*
X8340D01*
X7660D02*
X7840D01*
X7400D02*
X7590D01*
X6830D02*
X7030D01*
X6300D02*
X6510D01*
X5920D02*
X6120D01*
X5530D02*
X5740D01*
X5070D02*
X5260D01*
X19660Y41460D02*
X19840D01*
X19450D02*
X19630D01*
X19130D02*
X19320D01*
X18750D02*
X18950D01*
X18230D02*
X18430D01*
X17830D02*
X18030D01*
X17220D02*
X17410D01*
X16250D02*
X16900D01*
X15810D02*
X15990D01*
X15540D02*
X15730D01*
X15080D02*
X15270D01*
X14560D02*
X14760D01*
X14200D02*
X14370D01*
X13990D02*
X14160D01*
X13670D02*
X13850D01*
X13290D02*
X13460D01*
X13080D02*
X13250D01*
X12760D02*
X12940D01*
X12320D02*
X12510D01*
X11460D02*
X11660D01*
X10940D02*
X11140D01*
X10420D02*
X10620D01*
X9410D02*
X9590D01*
X9200D02*
X9380D01*
X8880D02*
X9070D01*
X8140D02*
X8340D01*
X7660D02*
X7840D01*
X7390D02*
X7590D01*
X6830D02*
X7030D01*
X6290D02*
X6500D01*
X5920D02*
X6120D01*
X5540D02*
X5740D01*
X5070D02*
X5260D01*
X19660Y41470D02*
X19840D01*
X19450D02*
X19630D01*
X19130D02*
X19320D01*
X18750D02*
X18950D01*
X18230D02*
X18430D01*
X17830D02*
X18030D01*
X17220D02*
X17410D01*
X16250D02*
X16900D01*
X15810D02*
X15990D01*
X15530D02*
X15730D01*
X15080D02*
X15280D01*
X14560D02*
X14760D01*
X14200D02*
X14370D01*
X13980D02*
X14160D01*
X13670D02*
X13850D01*
X13290D02*
X13460D01*
X13070D02*
X13250D01*
X12760D02*
X12940D01*
X12320D02*
X12510D01*
X11460D02*
X11660D01*
X10940D02*
X11140D01*
X10420D02*
X10620D01*
X9410D02*
X9590D01*
X9200D02*
X9380D01*
X8880D02*
X9070D01*
X8140D02*
X8340D01*
X7670D02*
X7850D01*
X7390D02*
X7580D01*
X6830D02*
X7030D01*
X6280D02*
X6500D01*
X5920D02*
X6120D01*
X5540D02*
X5740D01*
X5070D02*
X5260D01*
X19660Y41480D02*
X19840D01*
X19450D02*
X19620D01*
X19130D02*
X19320D01*
X18750D02*
X18950D01*
X18230D02*
X18430D01*
X17830D02*
X18030D01*
X17220D02*
X17410D01*
X16250D02*
X16890D01*
X15810D02*
X15990D01*
X15530D02*
X15720D01*
X15080D02*
X15280D01*
X14560D02*
X14760D01*
X14200D02*
X14370D01*
X13980D02*
X14160D01*
X13670D02*
X13850D01*
X13290D02*
X13460D01*
X13070D02*
X13250D01*
X12760D02*
X12940D01*
X12320D02*
X12510D01*
X11460D02*
X11660D01*
X10940D02*
X11140D01*
X10420D02*
X10620D01*
X9410D02*
X9590D01*
X9200D02*
X9370D01*
X8880D02*
X9070D01*
X8140D02*
X8340D01*
X7670D02*
X7850D01*
X7390D02*
X7580D01*
X6830D02*
X7030D01*
X6270D02*
X6490D01*
X5920D02*
X6120D01*
X5540D02*
X5740D01*
X5070D02*
X5260D01*
X19660Y41490D02*
X19840D01*
X19440D02*
X19620D01*
X19130D02*
X19320D01*
X18750D02*
X18960D01*
X18230D02*
X18430D01*
X17830D02*
X18030D01*
X17220D02*
X17410D01*
X16260D02*
X16890D01*
X15810D02*
X16000D01*
X15520D02*
X15720D01*
X15080D02*
X15280D01*
X14550D02*
X14750D01*
X14200D02*
X14370D01*
X13970D02*
X14150D01*
X13670D02*
X13850D01*
X13280D02*
X13460D01*
X13060D02*
X13240D01*
X12760D02*
X12940D01*
X12320D02*
X12510D01*
X11460D02*
X11660D01*
X10930D02*
X11130D01*
X10420D02*
X10620D01*
X9410D02*
X9590D01*
X9190D02*
X9370D01*
X8880D02*
X9070D01*
X8140D02*
X8340D01*
X7670D02*
X7850D01*
X7380D02*
X7580D01*
X6830D02*
X7030D01*
X6260D02*
X6490D01*
X5920D02*
X6120D01*
X5540D02*
X5740D01*
X5070D02*
X5260D01*
X19660Y41500D02*
X19840D01*
X19440D02*
X19620D01*
X19130D02*
X19320D01*
X18760D02*
X18960D01*
X18230D02*
X18430D01*
X17830D02*
X18030D01*
X17220D02*
X17410D01*
X16680D02*
X16890D01*
X16260D02*
X16460D01*
X15820D02*
X16000D01*
X15520D02*
X15720D01*
X15080D02*
X15280D01*
X14550D02*
X14750D01*
X14200D02*
X14370D01*
X13970D02*
X14150D01*
X13670D02*
X13850D01*
X13280D02*
X13460D01*
X13060D02*
X13240D01*
X12760D02*
X12940D01*
X12320D02*
X12510D01*
X11460D02*
X11660D01*
X10930D02*
X11130D01*
X10420D02*
X10620D01*
X9410D02*
X9590D01*
X9190D02*
X9370D01*
X8880D02*
X9070D01*
X8140D02*
X8340D01*
X7680D02*
X7860D01*
X7380D02*
X7570D01*
X6830D02*
X7030D01*
X6250D02*
X6480D01*
X5920D02*
X6120D01*
X5540D02*
X5740D01*
X5070D02*
X5260D01*
X19660Y41510D02*
X19840D01*
X19430D02*
X19610D01*
X19130D02*
X19320D01*
X18760D02*
X18960D01*
X18230D02*
X18430D01*
X17830D02*
X18030D01*
X17220D02*
X17410D01*
X16680D02*
X16880D01*
X16260D02*
X16460D01*
X15820D02*
X16000D01*
X15520D02*
X15710D01*
X15080D02*
X15280D01*
X14550D02*
X14750D01*
X14190D02*
X14370D01*
X13970D02*
X14150D01*
X13670D02*
X13850D01*
X13280D02*
X13460D01*
X13050D02*
X13240D01*
X12760D02*
X12940D01*
X12320D02*
X12510D01*
X11460D02*
X11660D01*
X10930D02*
X11130D01*
X10420D02*
X10620D01*
X9410D02*
X9590D01*
X9180D02*
X9360D01*
X8880D02*
X9070D01*
X8140D02*
X8340D01*
X7680D02*
X7860D01*
X7380D02*
X7570D01*
X6830D02*
X7030D01*
X6240D02*
X6470D01*
X5920D02*
X6120D01*
X5540D02*
X5740D01*
X5070D02*
X5260D01*
X19660Y41520D02*
X19840D01*
X19430D02*
X19610D01*
X19130D02*
X19320D01*
X18760D02*
X18960D01*
X18230D02*
X18430D01*
X17830D02*
X18030D01*
X17220D02*
X17410D01*
X16670D02*
X16880D01*
X16270D02*
X16460D01*
X15820D02*
X16010D01*
X15510D02*
X15710D01*
X15080D02*
X15280D01*
X14550D02*
X14750D01*
X14190D02*
X14370D01*
X13960D02*
X14140D01*
X13670D02*
X13850D01*
X13280D02*
X13460D01*
X13050D02*
X13230D01*
X12760D02*
X12940D01*
X12320D02*
X12510D01*
X11460D02*
X11660D01*
X10930D02*
X11130D01*
X10420D02*
X10620D01*
X9410D02*
X9590D01*
X9180D02*
X9360D01*
X8880D02*
X9070D01*
X8140D02*
X8340D01*
X7680D02*
X7870D01*
X7370D02*
X7570D01*
X6830D02*
X7030D01*
X6220D02*
X6460D01*
X5920D02*
X6120D01*
X5540D02*
X5740D01*
X5070D02*
X5260D01*
X19660Y41530D02*
X19840D01*
X19420D02*
X19610D01*
X19130D02*
X19320D01*
X18760D02*
X18960D01*
X18230D02*
X18430D01*
X17830D02*
X18030D01*
X17220D02*
X17410D01*
X16670D02*
X16880D01*
X16270D02*
X16470D01*
X15830D02*
X16010D01*
X15510D02*
X15710D01*
X15080D02*
X15280D01*
X14550D02*
X14750D01*
X14190D02*
X14370D01*
X13960D02*
X14140D01*
X13670D02*
X13850D01*
X13280D02*
X13460D01*
X13040D02*
X13230D01*
X12760D02*
X12940D01*
X12320D02*
X12510D01*
X11460D02*
X11660D01*
X10930D02*
X11130D01*
X10420D02*
X10620D01*
X9410D02*
X9590D01*
X9170D02*
X9360D01*
X8880D02*
X9070D01*
X8140D02*
X8340D01*
X7680D02*
X7870D01*
X7370D02*
X7570D01*
X6830D02*
X7030D01*
X6190D02*
X6450D01*
X5920D02*
X6120D01*
X5540D02*
X5740D01*
X5070D02*
X5260D01*
X19660Y41540D02*
X19840D01*
X19420D02*
X19600D01*
X19130D02*
X19320D01*
X18760D02*
X18960D01*
X18220D02*
X18430D01*
X17830D02*
X18030D01*
X17220D02*
X17410D01*
X16670D02*
X16870D01*
X16270D02*
X16470D01*
X15830D02*
X16010D01*
X15510D02*
X15700D01*
X15080D02*
X15280D01*
X14550D02*
X14750D01*
X14190D02*
X14370D01*
X13950D02*
X14140D01*
X13670D02*
X13850D01*
X13280D02*
X13460D01*
X13040D02*
X13220D01*
X12760D02*
X12940D01*
X12320D02*
X12510D01*
X11460D02*
X11660D01*
X10930D02*
X11130D01*
X10420D02*
X10620D01*
X9410D02*
X9590D01*
X9170D02*
X9350D01*
X8880D02*
X9070D01*
X8140D02*
X8340D01*
X7690D02*
X7870D01*
X7370D02*
X7560D01*
X6830D02*
X7030D01*
X5920D02*
X6440D01*
X5540D02*
X5750D01*
X5070D02*
X5260D01*
X19660Y41550D02*
X19840D01*
X19410D02*
X19600D01*
X19130D02*
X19320D01*
X18760D02*
X18960D01*
X18220D02*
X18430D01*
X17830D02*
X18030D01*
X17220D02*
X17410D01*
X16660D02*
X16870D01*
X16280D02*
X16470D01*
X15830D02*
X16020D01*
X15500D02*
X15700D01*
X15080D02*
X15280D01*
X14550D02*
X14750D01*
X14190D02*
X14370D01*
X13950D02*
X14130D01*
X13670D02*
X13850D01*
X13280D02*
X13460D01*
X13030D02*
X13220D01*
X12760D02*
X12940D01*
X12320D02*
X12510D01*
X11460D02*
X11670D01*
X10930D02*
X11130D01*
X10420D02*
X10620D01*
X9410D02*
X9590D01*
X9160D02*
X9350D01*
X8880D02*
X9070D01*
X8140D02*
X8650D01*
X7690D02*
X7880D01*
X7360D02*
X7560D01*
X6830D02*
X7030D01*
X5920D02*
X6420D01*
X5540D02*
X5750D01*
X5070D02*
X5260D01*
X19660Y41560D02*
X19840D01*
X19410D02*
X19590D01*
X19130D02*
X19320D01*
X18760D02*
X18960D01*
X18220D02*
X18430D01*
X17830D02*
X18030D01*
X17220D02*
X17410D01*
X16660D02*
X16860D01*
X16280D02*
X16470D01*
X15830D02*
X16020D01*
X15500D02*
X15700D01*
X15080D02*
X15280D01*
X14550D02*
X14750D01*
X14190D02*
X14370D01*
X13940D02*
X14130D01*
X13670D02*
X13850D01*
X13280D02*
X13460D01*
X13030D02*
X13220D01*
X12760D02*
X12940D01*
X12320D02*
X12510D01*
X11460D02*
X11670D01*
X10930D02*
X11130D01*
X10420D02*
X10620D01*
X9410D02*
X9590D01*
X9160D02*
X9340D01*
X8880D02*
X9070D01*
X8140D02*
X8670D01*
X7690D02*
X7880D01*
X7360D02*
X7560D01*
X6830D02*
X7030D01*
X5920D02*
X6400D01*
X5540D02*
X5750D01*
X5070D02*
X5260D01*
X19660Y41570D02*
X19840D01*
X19400D02*
X19590D01*
X19130D02*
X19320D01*
X18760D02*
X18960D01*
X18220D02*
X18430D01*
X17830D02*
X18030D01*
X17220D02*
X17410D01*
X16660D02*
X16860D01*
X16280D02*
X16480D01*
X15840D02*
X16020D01*
X15500D02*
X15700D01*
X15080D02*
X15290D01*
X14550D02*
X14750D01*
X14190D02*
X14370D01*
X13940D02*
X14120D01*
X13670D02*
X13850D01*
X13280D02*
X13460D01*
X13020D02*
X13210D01*
X12760D02*
X12940D01*
X12320D02*
X12510D01*
X11460D02*
X11670D01*
X10930D02*
X11130D01*
X10420D02*
X10620D01*
X9410D02*
X9590D01*
X9150D02*
X9340D01*
X8880D02*
X9070D01*
X8140D02*
X8670D01*
X7700D02*
X7880D01*
X7350D02*
X7550D01*
X6830D02*
X7030D01*
X5920D02*
X6380D01*
X5540D02*
X5750D01*
X5070D02*
X5260D01*
X19660Y41580D02*
X19840D01*
X19400D02*
X19580D01*
X19130D02*
X19320D01*
X18760D02*
X18960D01*
X18220D02*
X18430D01*
X17830D02*
X18030D01*
X17220D02*
X17410D01*
X16660D02*
X16860D01*
X16290D02*
X16480D01*
X15840D02*
X16030D01*
X15490D02*
X15690D01*
X15080D02*
X15290D01*
X14550D02*
X14750D01*
X14190D02*
X14370D01*
X13930D02*
X14120D01*
X13670D02*
X13850D01*
X13280D02*
X13460D01*
X13020D02*
X13210D01*
X12760D02*
X12940D01*
X12320D02*
X12510D01*
X11460D02*
X11670D01*
X10930D02*
X11130D01*
X10420D02*
X10620D01*
X9410D02*
X9590D01*
X9150D02*
X9330D01*
X8880D02*
X9070D01*
X8140D02*
X8670D01*
X7700D02*
X7890D01*
X7350D02*
X7550D01*
X6830D02*
X7030D01*
X5920D02*
X6350D01*
X5540D02*
X5750D01*
X5070D02*
X5260D01*
X19660Y41590D02*
X19840D01*
X19390D02*
X19580D01*
X19130D02*
X19320D01*
X18760D02*
X18960D01*
X18220D02*
X18430D01*
X17830D02*
X18030D01*
X17220D02*
X17410D01*
X16650D02*
X16850D01*
X16290D02*
X16480D01*
X15840D02*
X16030D01*
X15490D02*
X15690D01*
X15080D02*
X15290D01*
X14550D02*
X14750D01*
X14190D02*
X14370D01*
X13930D02*
X14110D01*
X13670D02*
X13850D01*
X13280D02*
X13460D01*
X13020D02*
X13200D01*
X12760D02*
X12940D01*
X12320D02*
X12510D01*
X11460D02*
X11670D01*
X10930D02*
X11130D01*
X10420D02*
X10620D01*
X9410D02*
X9590D01*
X9140D02*
X9330D01*
X8880D02*
X9070D01*
X8140D02*
X8670D01*
X7700D02*
X7890D01*
X7350D02*
X7550D01*
X6830D02*
X7030D01*
X5920D02*
X6360D01*
X5540D02*
X5750D01*
X5070D02*
X5260D01*
X19660Y41600D02*
X19840D01*
X19390D02*
X19570D01*
X19130D02*
X19320D01*
X18760D02*
X18960D01*
X18220D02*
X18430D01*
X17830D02*
X18030D01*
X17220D02*
X17410D01*
X16650D02*
X16850D01*
X16290D02*
X16490D01*
X15850D02*
X16030D01*
X15490D02*
X15690D01*
X15080D02*
X15290D01*
X14550D02*
X14750D01*
X14190D02*
X14370D01*
X13920D02*
X14110D01*
X13670D02*
X13850D01*
X13280D02*
X13460D01*
X13010D02*
X13200D01*
X12760D02*
X12940D01*
X12320D02*
X12510D01*
X11460D02*
X11670D01*
X10930D02*
X11130D01*
X10420D02*
X10620D01*
X9410D02*
X9590D01*
X9140D02*
X9320D01*
X8880D02*
X9070D01*
X8140D02*
X8670D01*
X7710D02*
X7890D01*
X7340D02*
X7550D01*
X6830D02*
X7030D01*
X5920D02*
X6400D01*
X5540D02*
X5750D01*
X5070D02*
X5260D01*
X19660Y41610D02*
X19840D01*
X19380D02*
X19570D01*
X19130D02*
X19320D01*
X18760D02*
X18960D01*
X18220D02*
X18430D01*
X17830D02*
X18030D01*
X17220D02*
X17410D01*
X16650D02*
X16850D01*
X16300D02*
X16490D01*
X15850D02*
X16040D01*
X15480D02*
X15680D01*
X15080D02*
X15280D01*
X14550D02*
X14750D01*
X14190D02*
X14370D01*
X13920D02*
X14100D01*
X13670D02*
X13850D01*
X13280D02*
X13460D01*
X13010D02*
X13190D01*
X12760D02*
X12940D01*
X12320D02*
X12510D01*
X11460D02*
X11670D01*
X10930D02*
X11130D01*
X10420D02*
X10620D01*
X9410D02*
X9590D01*
X9130D02*
X9320D01*
X8880D02*
X9070D01*
X8140D02*
X8670D01*
X7710D02*
X7900D01*
X7340D02*
X7540D01*
X6830D02*
X7030D01*
X5920D02*
X6430D01*
X5540D02*
X5750D01*
X5070D02*
X5260D01*
X19660Y41620D02*
X19840D01*
X19380D02*
X19570D01*
X19130D02*
X19320D01*
X18760D02*
X18960D01*
X18220D02*
X18430D01*
X17830D02*
X18030D01*
X17220D02*
X17410D01*
X16640D02*
X16840D01*
X16300D02*
X16490D01*
X15850D02*
X16040D01*
X15480D02*
X15680D01*
X15080D02*
X15280D01*
X14550D02*
X14750D01*
X14190D02*
X14370D01*
X13910D02*
X14100D01*
X13670D02*
X13850D01*
X13280D02*
X13460D01*
X13000D02*
X13190D01*
X12760D02*
X12940D01*
X12320D02*
X12510D01*
X11460D02*
X11660D01*
X10930D02*
X11130D01*
X10420D02*
X10620D01*
X9410D02*
X9590D01*
X9130D02*
X9320D01*
X8880D02*
X9070D01*
X8140D02*
X8670D01*
X7710D02*
X7900D01*
X7340D02*
X7540D01*
X6830D02*
X7030D01*
X5920D02*
X6450D01*
X5540D02*
X5750D01*
X5070D02*
X5260D01*
X19660Y41630D02*
X19840D01*
X19370D02*
X19560D01*
X19130D02*
X19320D01*
X18760D02*
X18960D01*
X18220D02*
X18430D01*
X17830D02*
X18030D01*
X17220D02*
X17410D01*
X16640D02*
X16840D01*
X16300D02*
X16490D01*
X15860D02*
X16040D01*
X15470D02*
X15680D01*
X15080D02*
X15280D01*
X14550D02*
X14750D01*
X14190D02*
X14370D01*
X13910D02*
X14100D01*
X13670D02*
X13850D01*
X13280D02*
X13460D01*
X13000D02*
X13180D01*
X12760D02*
X12940D01*
X12320D02*
X12510D01*
X11460D02*
X11660D01*
X10930D02*
X11130D01*
X10420D02*
X10620D01*
X9410D02*
X9590D01*
X9120D02*
X9310D01*
X8880D02*
X9070D01*
X8140D02*
X8670D01*
X7710D02*
X7900D01*
X7330D02*
X7540D01*
X6830D02*
X7030D01*
X5920D02*
X6470D01*
X5540D02*
X5750D01*
X5070D02*
X5260D01*
X19660Y41640D02*
X19840D01*
X19370D02*
X19560D01*
X19130D02*
X19320D01*
X18760D02*
X18960D01*
X18230D02*
X18430D01*
X17830D02*
X18030D01*
X17220D02*
X17410D01*
X16640D02*
X16840D01*
X16310D02*
X16500D01*
X15860D02*
X16050D01*
X15470D02*
X15670D01*
X15080D02*
X15280D01*
X14550D02*
X14750D01*
X14190D02*
X14370D01*
X13900D02*
X14090D01*
X13670D02*
X13850D01*
X13280D02*
X13460D01*
X12990D02*
X13180D01*
X12760D02*
X12940D01*
X12320D02*
X12510D01*
X11460D02*
X11660D01*
X10930D02*
X11130D01*
X10420D02*
X10620D01*
X9410D02*
X9590D01*
X9120D02*
X9310D01*
X8880D02*
X9070D01*
X8140D02*
X8670D01*
X7720D02*
X7910D01*
X7330D02*
X7530D01*
X6830D02*
X7030D01*
X5920D02*
X6490D01*
X5540D02*
X5740D01*
X5070D02*
X5260D01*
X19660Y41650D02*
X19840D01*
X19360D02*
X19550D01*
X19130D02*
X19320D01*
X18760D02*
X18960D01*
X18230D02*
X18430D01*
X17830D02*
X18030D01*
X17220D02*
X17410D01*
X16640D02*
X16830D01*
X16310D02*
X16500D01*
X15860D02*
X16050D01*
X15470D02*
X15670D01*
X15080D02*
X15280D01*
X14550D02*
X14750D01*
X14190D02*
X14370D01*
X13900D02*
X14090D01*
X13670D02*
X13850D01*
X13280D02*
X13460D01*
X12990D02*
X13170D01*
X12760D02*
X12940D01*
X12320D02*
X12510D01*
X11460D02*
X11660D01*
X10930D02*
X11130D01*
X10420D02*
X10620D01*
X9410D02*
X9590D01*
X9110D02*
X9300D01*
X8880D02*
X9070D01*
X8140D02*
X8670D01*
X7720D02*
X7910D01*
X7330D02*
X7530D01*
X6830D02*
X7030D01*
X6260D02*
X6500D01*
X5920D02*
X6120D01*
X5540D02*
X5740D01*
X5070D02*
X5260D01*
X19660Y41660D02*
X19840D01*
X19360D02*
X19550D01*
X19130D02*
X19320D01*
X18760D02*
X18960D01*
X18230D02*
X18430D01*
X17830D02*
X18030D01*
X17220D02*
X17410D01*
X16630D02*
X16830D01*
X16310D02*
X16500D01*
X15860D02*
X16050D01*
X15460D02*
X15670D01*
X15080D02*
X15280D01*
X14550D02*
X14750D01*
X14190D02*
X14370D01*
X13890D02*
X14080D01*
X13670D02*
X13850D01*
X13280D02*
X13460D01*
X12980D02*
X13170D01*
X12760D02*
X12940D01*
X12320D02*
X12510D01*
X11460D02*
X11660D01*
X10930D02*
X11130D01*
X10420D02*
X10620D01*
X9410D02*
X9590D01*
X9110D02*
X9300D01*
X8880D02*
X9070D01*
X8140D02*
X8660D01*
X7720D02*
X7910D01*
X7320D02*
X7530D01*
X6830D02*
X7030D01*
X6290D02*
X6510D01*
X5920D02*
X6120D01*
X5540D02*
X5740D01*
X5070D02*
X5260D01*
X19660Y41670D02*
X19840D01*
X19360D02*
X19540D01*
X19130D02*
X19310D01*
X18760D02*
X18960D01*
X18230D02*
X18430D01*
X17830D02*
X18030D01*
X17220D02*
X17410D01*
X16630D02*
X16820D01*
X16320D02*
X16500D01*
X15870D02*
X16060D01*
X15460D02*
X15670D01*
X15080D02*
X15280D01*
X14550D02*
X14750D01*
X14190D02*
X14370D01*
X13890D02*
X14080D01*
X13670D02*
X13850D01*
X13280D02*
X13460D01*
X12980D02*
X13170D01*
X12760D02*
X12940D01*
X12320D02*
X12510D01*
X11460D02*
X11660D01*
X10930D02*
X11130D01*
X10420D02*
X10620D01*
X9410D02*
X9590D01*
X9110D02*
X9290D01*
X8880D02*
X9060D01*
X8140D02*
X8340D01*
X7730D02*
X7920D01*
X7320D02*
X7520D01*
X6830D02*
X7030D01*
X6310D02*
X6520D01*
X5920D02*
X6120D01*
X5540D02*
X5740D01*
X5070D02*
X5260D01*
X19660Y41680D02*
X19840D01*
X19350D02*
X19540D01*
X19130D02*
X19310D01*
X18750D02*
X18950D01*
X18230D02*
X18430D01*
X17830D02*
X18030D01*
X17220D02*
X17410D01*
X16630D02*
X16820D01*
X16320D02*
X16510D01*
X15870D02*
X16060D01*
X15460D02*
X15660D01*
X15080D02*
X15280D01*
X14550D02*
X14750D01*
X14190D02*
X14370D01*
X13890D02*
X14070D01*
X13670D02*
X13850D01*
X13280D02*
X13460D01*
X12970D02*
X13160D01*
X12760D02*
X12940D01*
X12320D02*
X12510D01*
X11460D02*
X11660D01*
X10930D02*
X11130D01*
X10420D02*
X10620D01*
X9410D02*
X9590D01*
X9100D02*
X9290D01*
X8880D02*
X9060D01*
X8140D02*
X8340D01*
X7730D02*
X7920D01*
X7320D02*
X7520D01*
X6830D02*
X7030D01*
X6320D02*
X6530D01*
X5920D02*
X6120D01*
X5540D02*
X5740D01*
X5070D02*
X5260D01*
X19660Y41690D02*
X19840D01*
X19350D02*
X19530D01*
X19130D02*
X19310D01*
X18750D02*
X18950D01*
X18230D02*
X18430D01*
X17830D02*
X18030D01*
X17220D02*
X17410D01*
X16620D02*
X16820D01*
X16320D02*
X16510D01*
X15870D02*
X16060D01*
X15450D02*
X15660D01*
X15080D02*
X15280D01*
X14560D02*
X14750D01*
X14190D02*
X14370D01*
X13880D02*
X14070D01*
X13670D02*
X13850D01*
X13280D02*
X13460D01*
X12970D02*
X13160D01*
X12760D02*
X12930D01*
X12320D02*
X12510D01*
X11460D02*
X11660D01*
X10940D02*
X11140D01*
X10420D02*
X10620D01*
X9410D02*
X9590D01*
X9100D02*
X9280D01*
X8880D02*
X9060D01*
X8140D02*
X8340D01*
X7730D02*
X7920D01*
X7310D02*
X7520D01*
X6830D02*
X7030D01*
X6330D02*
X6530D01*
X5920D02*
X6120D01*
X5540D02*
X5740D01*
X5070D02*
X5260D01*
X19660Y41700D02*
X19840D01*
X19350D02*
X19530D01*
X19130D02*
X19310D01*
X18750D02*
X18950D01*
X18230D02*
X18430D01*
X17830D02*
X18030D01*
X17220D02*
X17410D01*
X16620D02*
X16810D01*
X16330D02*
X16510D01*
X15880D02*
X16070D01*
X15450D02*
X15660D01*
X15080D02*
X15280D01*
X14560D02*
X14760D01*
X14190D02*
X14370D01*
X13880D02*
X14060D01*
X13670D02*
X13850D01*
X13280D02*
X13460D01*
X12970D02*
X13150D01*
X12760D02*
X12930D01*
X12320D02*
X12510D01*
X11460D02*
X11660D01*
X10940D02*
X11140D01*
X10420D02*
X10620D01*
X9410D02*
X9590D01*
X9100D02*
X9280D01*
X8880D02*
X9060D01*
X8140D02*
X8340D01*
X7730D02*
X7930D01*
X7310D02*
X7520D01*
X6830D02*
X7030D01*
X6340D02*
X6540D01*
X5920D02*
X6120D01*
X5530D02*
X5740D01*
X5070D02*
X5260D01*
X19660Y41710D02*
X19840D01*
X19340D02*
X19520D01*
X19130D02*
X19310D01*
X18750D02*
X18950D01*
X18230D02*
X18430D01*
X17830D02*
X18030D01*
X17220D02*
X17410D01*
X16620D02*
X16810D01*
X16330D02*
X16520D01*
X15880D02*
X16070D01*
X15450D02*
X15650D01*
X15080D02*
X15270D01*
X14560D02*
X14760D01*
X14190D02*
X14370D01*
X13880D02*
X14060D01*
X13670D02*
X13840D01*
X13280D02*
X13460D01*
X12960D02*
X13150D01*
X12760D02*
X12930D01*
X12320D02*
X12510D01*
X11460D02*
X11650D01*
X10940D02*
X11140D01*
X10420D02*
X10620D01*
X9410D02*
X9590D01*
X9090D02*
X9270D01*
X8880D02*
X9060D01*
X8140D02*
X8340D01*
X7740D02*
X7930D01*
X7310D02*
X7510D01*
X6830D02*
X7030D01*
X6340D02*
X6540D01*
X5920D02*
X6120D01*
X5530D02*
X5740D01*
X5070D02*
X5260D01*
X19660Y41720D02*
X19840D01*
X19340D02*
X19520D01*
X19130D02*
X19310D01*
X18750D02*
X18950D01*
X18240D02*
X18430D01*
X17830D02*
X18030D01*
X17220D02*
X17410D01*
X16610D02*
X16810D01*
X16330D02*
X16520D01*
X15880D02*
X16080D01*
X15440D02*
X15650D01*
X15080D02*
X15270D01*
X14560D02*
X14760D01*
X14190D02*
X14370D01*
X13870D02*
X14050D01*
X13670D02*
X13840D01*
X13280D02*
X13460D01*
X12960D02*
X13140D01*
X12760D02*
X12930D01*
X12320D02*
X12510D01*
X11460D02*
X11650D01*
X10940D02*
X11140D01*
X10420D02*
X10620D01*
X9410D02*
X9590D01*
X9090D02*
X9270D01*
X8880D02*
X9060D01*
X8140D02*
X8340D01*
X7740D02*
X7930D01*
X7300D02*
X7510D01*
X6830D02*
X7030D01*
X6350D02*
X6540D01*
X5920D02*
X6120D01*
X5530D02*
X5730D01*
X5070D02*
X5260D01*
X19660Y41730D02*
X19840D01*
X19340D02*
X19520D01*
X19130D02*
X19310D01*
X18750D02*
X18950D01*
X18240D02*
X18440D01*
X17830D02*
X18030D01*
X17220D02*
X17410D01*
X16610D02*
X16800D01*
X16340D02*
X16520D01*
X15880D02*
X16080D01*
X15440D02*
X15650D01*
X15070D02*
X15270D01*
X14560D02*
X14760D01*
X14190D02*
X14370D01*
X13870D02*
X14050D01*
X13670D02*
X13840D01*
X13280D02*
X13460D01*
X12960D02*
X13140D01*
X12760D02*
X12930D01*
X12320D02*
X12510D01*
X11450D02*
X11650D01*
X10940D02*
X11140D01*
X10420D02*
X10620D01*
X9410D02*
X9590D01*
X9090D02*
X9270D01*
X8880D02*
X9060D01*
X8140D02*
X8340D01*
X7740D02*
X7940D01*
X7300D02*
X7510D01*
X6830D02*
X7030D01*
X6350D02*
X6550D01*
X5920D02*
X6120D01*
X5530D02*
X5730D01*
X5070D02*
X5260D01*
X19660Y41740D02*
X19840D01*
X19330D02*
X19510D01*
X19130D02*
X19310D01*
X18750D02*
X18940D01*
X18240D02*
X18440D01*
X17830D02*
X18030D01*
X17220D02*
X17410D01*
X16610D02*
X16800D01*
X16340D02*
X16520D01*
X15890D02*
X16080D01*
X15440D02*
X15640D01*
X15070D02*
X15270D01*
X14570D02*
X14760D01*
X14190D02*
X14370D01*
X13870D02*
X14040D01*
X13670D02*
X13840D01*
X13280D02*
X13460D01*
X12960D02*
X13130D01*
X12760D02*
X12930D01*
X12320D02*
X12510D01*
X11450D02*
X11650D01*
X10950D02*
X11140D01*
X10420D02*
X10620D01*
X9410D02*
X9590D01*
X9080D02*
X9260D01*
X8880D02*
X9060D01*
X8140D02*
X8340D01*
X7750D02*
X7940D01*
X7290D02*
X7500D01*
X6830D02*
X7030D01*
X6350D02*
X6550D01*
X5920D02*
X6120D01*
X5520D02*
X5730D01*
X5070D02*
X5260D01*
X19660Y41750D02*
X19840D01*
X19330D02*
X19510D01*
X19130D02*
X19300D01*
X18740D02*
X18940D01*
X18240D02*
X18440D01*
X17830D02*
X18030D01*
X17220D02*
X17410D01*
X16610D02*
X16800D01*
X16340D02*
X16530D01*
X15890D02*
X16090D01*
X15430D02*
X15640D01*
X15070D02*
X15270D01*
X14570D02*
X14760D01*
X14190D02*
X14370D01*
X13860D02*
X14040D01*
X13670D02*
X13840D01*
X13280D02*
X13460D01*
X12950D02*
X13130D01*
X12760D02*
X12930D01*
X12320D02*
X12510D01*
X11450D02*
X11650D01*
X10950D02*
X11150D01*
X10420D02*
X10620D01*
X9410D02*
X9590D01*
X9080D02*
X9260D01*
X8880D02*
X9050D01*
X8140D02*
X8340D01*
X7750D02*
X7940D01*
X7290D02*
X7500D01*
X6830D02*
X7030D01*
X6350D02*
X6550D01*
X5920D02*
X6120D01*
X5520D02*
X5730D01*
X5070D02*
X5260D01*
X19660Y41760D02*
X19840D01*
X19330D02*
X19500D01*
X19130D02*
X19300D01*
X18740D02*
X18940D01*
X18250D02*
X18440D01*
X17830D02*
X18030D01*
X17220D02*
X17410D01*
X16600D02*
X16790D01*
X16350D02*
X16530D01*
X15890D02*
X16090D01*
X15430D02*
X15640D01*
X15070D02*
X15260D01*
X14570D02*
X14770D01*
X14190D02*
X14370D01*
X13860D02*
X14040D01*
X13670D02*
X13840D01*
X13280D02*
X13460D01*
X12950D02*
X13120D01*
X12760D02*
X12930D01*
X12320D02*
X12510D01*
X11450D02*
X11640D01*
X10950D02*
X11150D01*
X10420D02*
X10620D01*
X9410D02*
X9590D01*
X9080D02*
X9250D01*
X8880D02*
X9050D01*
X8140D02*
X8340D01*
X7750D02*
X7950D01*
X7290D02*
X7500D01*
X6830D02*
X7030D01*
X6350D02*
X6550D01*
X5920D02*
X6120D01*
X5520D02*
X5720D01*
X5070D02*
X5260D01*
X19660Y41770D02*
X19840D01*
X19320D02*
X19500D01*
X19130D02*
X19300D01*
X18740D02*
X18930D01*
X18250D02*
X18450D01*
X17830D02*
X18030D01*
X17220D02*
X17410D01*
X16600D02*
X16790D01*
X16350D02*
X16530D01*
X15900D02*
X16090D01*
X15430D02*
X15640D01*
X15060D02*
X15260D01*
X14570D02*
X14770D01*
X14190D02*
X14370D01*
X13860D02*
X14030D01*
X13670D02*
X13840D01*
X13280D02*
X13460D01*
X12950D02*
X13120D01*
X12760D02*
X12920D01*
X12320D02*
X12510D01*
X11440D02*
X11640D01*
X10960D02*
X11150D01*
X10420D02*
X10620D01*
X9410D02*
X9590D01*
X9070D02*
X9250D01*
X8880D02*
X9050D01*
X8140D02*
X8340D01*
X7750D02*
X7950D01*
X7280D02*
X7490D01*
X6830D02*
X7030D01*
X6350D02*
X6550D01*
X5920D02*
X6120D01*
X5510D02*
X5720D01*
X5070D02*
X5260D01*
X19660Y41780D02*
X19840D01*
X19320D02*
X19490D01*
X19130D02*
X19300D01*
X18730D02*
X18930D01*
X18250D02*
X18450D01*
X17830D02*
X18030D01*
X17220D02*
X17410D01*
X16600D02*
X16780D01*
X16350D02*
X16530D01*
X15900D02*
X16100D01*
X15420D02*
X15630D01*
X15060D02*
X15260D01*
X14580D02*
X14770D01*
X14190D02*
X14370D01*
X13850D02*
X14030D01*
X13670D02*
X13830D01*
X13280D02*
X13460D01*
X12940D02*
X13110D01*
X12760D02*
X12920D01*
X12320D02*
X12510D01*
X11440D02*
X11640D01*
X10960D02*
X11160D01*
X10420D02*
X10620D01*
X9410D02*
X9590D01*
X9070D02*
X9240D01*
X8880D02*
X9050D01*
X8140D02*
X8340D01*
X7760D02*
X7950D01*
X7280D02*
X7490D01*
X6830D02*
X7030D01*
X6350D02*
X6550D01*
X5920D02*
X6120D01*
X5510D02*
X5720D01*
X5070D02*
X5260D01*
X19660Y41790D02*
X19840D01*
X19320D02*
X19490D01*
X19130D02*
X19300D01*
X18730D02*
X18930D01*
X18260D02*
X18450D01*
X17830D02*
X18030D01*
X17220D02*
X17410D01*
X16600D02*
X16780D01*
X16360D02*
X16540D01*
X15900D02*
X16100D01*
X15420D02*
X15630D01*
X15060D02*
X15250D01*
X14580D02*
X14780D01*
X14190D02*
X14370D01*
X13850D02*
X14020D01*
X13670D02*
X13830D01*
X13280D02*
X13460D01*
X12940D02*
X13110D01*
X12760D02*
X12920D01*
X12320D02*
X12510D01*
X11440D02*
X11630D01*
X10960D02*
X11160D01*
X10420D02*
X10620D01*
X9410D02*
X9590D01*
X9070D02*
X9240D01*
X8880D02*
X9050D01*
X8140D02*
X8340D01*
X7760D02*
X7960D01*
X7280D02*
X7490D01*
X6830D02*
X7030D01*
X6350D02*
X6550D01*
X5920D02*
X6120D01*
X5500D02*
X5710D01*
X5070D02*
X5260D01*
X19660Y41800D02*
X19840D01*
X19310D02*
X19480D01*
X19130D02*
X19300D01*
X18730D02*
X18920D01*
X18260D02*
X18460D01*
X17830D02*
X18030D01*
X17220D02*
X17410D01*
X16590D02*
X16780D01*
X16360D02*
X16540D01*
X15900D02*
X16100D01*
X15410D02*
X15630D01*
X15050D02*
X15250D01*
X14590D02*
X14780D01*
X14190D02*
X14370D01*
X13850D02*
X14020D01*
X13670D02*
X13830D01*
X13280D02*
X13460D01*
X12940D02*
X13110D01*
X12760D02*
X12920D01*
X12320D02*
X12510D01*
X11430D02*
X11630D01*
X10970D02*
X11160D01*
X10420D02*
X10620D01*
X9410D02*
X9590D01*
X9060D02*
X9230D01*
X8880D02*
X9050D01*
X8140D02*
X8340D01*
X7760D02*
X7960D01*
X7270D02*
X7490D01*
X6830D02*
X7030D01*
X6340D02*
X6550D01*
X5920D02*
X6120D01*
X5490D02*
X5710D01*
X5070D02*
X5260D01*
X19660Y41810D02*
X19840D01*
X19310D02*
X19480D01*
X19130D02*
X19300D01*
X18720D02*
X18920D01*
X18270D02*
X18460D01*
X17830D02*
X18030D01*
X17220D02*
X17410D01*
X16590D02*
X16770D01*
X16360D02*
X16540D01*
X15910D02*
X16110D01*
X15410D02*
X15620D01*
X15040D02*
X15240D01*
X14590D02*
X14790D01*
X14190D02*
X14370D01*
X13850D02*
X14010D01*
X13670D02*
X13830D01*
X13280D02*
X13460D01*
X12930D02*
X13100D01*
X12760D02*
X12920D01*
X12320D02*
X12510D01*
X11420D02*
X11620D01*
X10970D02*
X11170D01*
X10420D02*
X10620D01*
X9410D02*
X9590D01*
X9060D02*
X9230D01*
X8880D02*
X9050D01*
X8140D02*
X8340D01*
X7770D02*
X7960D01*
X7270D02*
X7480D01*
X6830D02*
X7030D01*
X6330D02*
X6550D01*
X5920D02*
X6120D01*
X5480D02*
X5700D01*
X5070D02*
X5260D01*
X19660Y41820D02*
X19840D01*
X19310D02*
X19470D01*
X19130D02*
X19290D01*
X18710D02*
X18910D01*
X18270D02*
X18470D01*
X17830D02*
X18030D01*
X17220D02*
X17410D01*
X16590D02*
X16770D01*
X16370D02*
X16540D01*
X15910D02*
X16110D01*
X15410D02*
X15620D01*
X15040D02*
X15240D01*
X14590D02*
X14800D01*
X14190D02*
X14370D01*
X13840D02*
X14010D01*
X13670D02*
X13830D01*
X13280D02*
X13460D01*
X12930D02*
X13100D01*
X12760D02*
X12920D01*
X12320D02*
X12510D01*
X11420D02*
X11620D01*
X10980D02*
X11180D01*
X10420D02*
X10620D01*
X9410D02*
X9590D01*
X9060D02*
X9220D01*
X8880D02*
X9040D01*
X8140D02*
X8340D01*
X7770D02*
X7970D01*
X7270D02*
X7480D01*
X6830D02*
X7030D01*
X6330D02*
X6550D01*
X5920D02*
X6120D01*
X5470D02*
X5700D01*
X5070D02*
X5260D01*
X19660Y41830D02*
X19840D01*
X19300D02*
X19470D01*
X19130D02*
X19290D01*
X18700D02*
X18910D01*
X18270D02*
X18480D01*
X17830D02*
X18030D01*
X17220D02*
X17410D01*
X16580D02*
X16770D01*
X16370D02*
X16550D01*
X15910D02*
X16110D01*
X15400D02*
X15620D01*
X15030D02*
X15230D01*
X14600D02*
X14800D01*
X14190D02*
X14370D01*
X13840D02*
X14000D01*
X13670D02*
X13830D01*
X13280D02*
X13460D01*
X12930D02*
X13090D01*
X12760D02*
X12920D01*
X12320D02*
X12510D01*
X11410D02*
X11610D01*
X10980D02*
X11190D01*
X10420D02*
X10620D01*
X9410D02*
X9590D01*
X9050D02*
X9220D01*
X8880D02*
X9040D01*
X8140D02*
X8340D01*
X7770D02*
X7970D01*
X7260D02*
X7480D01*
X6830D02*
X7030D01*
X6310D02*
X6540D01*
X5920D02*
X6120D01*
X5460D02*
X5690D01*
X5070D02*
X5260D01*
X19660Y41840D02*
X19840D01*
X19300D02*
X19460D01*
X19130D02*
X19290D01*
X18690D02*
X18900D01*
X18280D02*
X18490D01*
X17830D02*
X18030D01*
X17220D02*
X17410D01*
X16580D02*
X16760D01*
X16370D02*
X16550D01*
X15920D02*
X16120D01*
X15400D02*
X15620D01*
X15020D02*
X15230D01*
X14610D02*
X14810D01*
X14190D02*
X14370D01*
X13840D02*
X14000D01*
X13670D02*
X13830D01*
X13280D02*
X13460D01*
X12920D02*
X13090D01*
X12760D02*
X12910D01*
X12320D02*
X12510D01*
X11400D02*
X11610D01*
X10990D02*
X11190D01*
X10420D02*
X10620D01*
X9410D02*
X9590D01*
X9050D02*
X9210D01*
X8880D02*
X9040D01*
X8140D02*
X8340D01*
X7770D02*
X7980D01*
X7260D02*
X7470D01*
X6830D02*
X7030D01*
X6290D02*
X6540D01*
X5920D02*
X6120D01*
X5450D02*
X5690D01*
X5070D02*
X5260D01*
X19660Y41850D02*
X19840D01*
X19130D02*
X19460D01*
X18680D02*
X18900D01*
X18290D02*
X18500D01*
X17830D02*
X18030D01*
X16990D02*
X17640D01*
X16580D02*
X16760D01*
X16380D02*
X16550D01*
X15920D02*
X16120D01*
X15400D02*
X15610D01*
X15010D02*
X15220D01*
X14610D02*
X14830D01*
X14190D02*
X14370D01*
X13670D02*
X13990D01*
X13280D02*
X13460D01*
X12760D02*
X13080D01*
X12320D02*
X12510D01*
X11390D02*
X11600D01*
X10990D02*
X11210D01*
X10190D02*
X10840D01*
X9410D02*
X9590D01*
X8880D02*
X9210D01*
X8140D02*
X8340D01*
X7780D02*
X7980D01*
X7260D02*
X7470D01*
X6830D02*
X7030D01*
X6250D02*
X6540D01*
X5920D02*
X6120D01*
X5420D02*
X5680D01*
X5070D02*
X5260D01*
X19660Y41860D02*
X19840D01*
X19130D02*
X19460D01*
X18670D02*
X18890D01*
X18290D02*
X18520D01*
X17830D02*
X18030D01*
X16980D02*
X17650D01*
X16580D02*
X16750D01*
X16380D02*
X16550D01*
X15920D02*
X16120D01*
X15390D02*
X15610D01*
X14990D02*
X15220D01*
X14620D02*
X14840D01*
X14190D02*
X14370D01*
X13670D02*
X13990D01*
X13280D02*
X13460D01*
X12760D02*
X13080D01*
X12320D02*
X12510D01*
X11370D02*
X11600D01*
X11000D02*
X11220D01*
X10180D02*
X10850D01*
X9410D02*
X9590D01*
X8880D02*
X9210D01*
X8140D02*
X8690D01*
X7780D02*
X7980D01*
X7250D02*
X7470D01*
X6830D02*
X7030D01*
X5920D02*
X6530D01*
X5070D02*
X5670D01*
X19660Y41870D02*
X19840D01*
X19130D02*
X19450D01*
X18640D02*
X18880D01*
X18300D02*
X18540D01*
X17760D02*
X18100D01*
X16980D02*
X17650D01*
X16580D02*
X16750D01*
X16380D02*
X16560D01*
X15920D02*
X16130D01*
X15390D02*
X15610D01*
X14970D02*
X15210D01*
X14620D02*
X14860D01*
X14190D02*
X14370D01*
X13670D02*
X13990D01*
X13280D02*
X13460D01*
X12760D02*
X13070D01*
X12240D02*
X12580D01*
X11350D02*
X11590D01*
X11000D02*
X11250D01*
X10180D02*
X10860D01*
X9410D02*
X9590D01*
X8880D02*
X9200D01*
X8140D02*
X8700D01*
X7780D02*
X7990D01*
X7250D02*
X7460D01*
X6760D02*
X7100D01*
X5920D02*
X6530D01*
X5070D02*
X5670D01*
X19660Y41880D02*
X19840D01*
X19130D02*
X19450D01*
X18310D02*
X18880D01*
X17740D02*
X18110D01*
X16980D02*
X17650D01*
X16570D02*
X16750D01*
X16390D02*
X16560D01*
X15930D02*
X16130D01*
X15390D02*
X15600D01*
X14630D02*
X15200D01*
X14190D02*
X14370D01*
X13670D02*
X13980D01*
X13280D02*
X13460D01*
X12760D02*
X13070D01*
X12230D02*
X12600D01*
X11010D02*
X11580D01*
X10180D02*
X10860D01*
X9410D02*
X9590D01*
X8880D02*
X9200D01*
X8140D02*
X8700D01*
X7790D02*
X7990D01*
X7240D02*
X7460D01*
X6740D02*
X7110D01*
X5920D02*
X6520D01*
X5070D02*
X5660D01*
X19660Y41890D02*
X19840D01*
X19130D02*
X19440D01*
X18320D02*
X18870D01*
X17740D02*
X18120D01*
X16980D02*
X17650D01*
X16570D02*
X16740D01*
X16390D02*
X16560D01*
X15930D02*
X16130D01*
X15380D02*
X15600D01*
X14640D02*
X15190D01*
X14190D02*
X14370D01*
X13670D02*
X13980D01*
X13280D02*
X13460D01*
X12760D02*
X13060D01*
X12230D02*
X12600D01*
X11020D02*
X11570D01*
X10180D02*
X10860D01*
X9410D02*
X9590D01*
X8880D02*
X9190D01*
X8140D02*
X8700D01*
X7790D02*
X7990D01*
X7240D02*
X7460D01*
X6740D02*
X7120D01*
X5920D02*
X6510D01*
X5070D02*
X5650D01*
X19660Y41900D02*
X19840D01*
X19130D02*
X19440D01*
X18320D02*
X18860D01*
X17740D02*
X18120D01*
X16980D02*
X17650D01*
X16570D02*
X16740D01*
X16400D02*
X16560D01*
X15930D02*
X16140D01*
X15380D02*
X15600D01*
X14650D02*
X15180D01*
X14190D02*
X14370D01*
X13670D02*
X13970D01*
X13280D02*
X13460D01*
X12760D02*
X13060D01*
X12230D02*
X12600D01*
X11030D02*
X11570D01*
X10180D02*
X10860D01*
X9410D02*
X9590D01*
X8880D02*
X9190D01*
X8140D02*
X8700D01*
X7790D02*
X8000D01*
X7240D02*
X7460D01*
X6740D02*
X7120D01*
X5920D02*
X6500D01*
X5070D02*
X5640D01*
X19660Y41910D02*
X19840D01*
X19130D02*
X19430D01*
X18330D02*
X18850D01*
X17740D02*
X18120D01*
X16980D02*
X17650D01*
X16400D02*
X16740D01*
X15940D02*
X16140D01*
X15380D02*
X15590D01*
X14660D02*
X15170D01*
X14190D02*
X14370D01*
X13670D02*
X13970D01*
X13280D02*
X13460D01*
X12760D02*
X13060D01*
X12230D02*
X12600D01*
X11040D02*
X11560D01*
X10180D02*
X10860D01*
X9410D02*
X9590D01*
X8880D02*
X9180D01*
X8140D02*
X8700D01*
X7790D02*
X8000D01*
X7230D02*
X7450D01*
X6740D02*
X7120D01*
X5920D02*
X6490D01*
X5070D02*
X5630D01*
X19660Y41920D02*
X19840D01*
X19130D02*
X19430D01*
X18350D02*
X18840D01*
X17740D02*
X18120D01*
X16980D02*
X17650D01*
X16400D02*
X16730D01*
X15940D02*
X16140D01*
X15370D02*
X15590D01*
X14670D02*
X15160D01*
X14190D02*
X14370D01*
X13670D02*
X13960D01*
X13280D02*
X13460D01*
X12760D02*
X13050D01*
X12230D02*
X12600D01*
X11050D02*
X11540D01*
X10180D02*
X10860D01*
X9410D02*
X9590D01*
X8880D02*
X9180D01*
X8140D02*
X8700D01*
X7800D02*
X8000D01*
X7230D02*
X7450D01*
X6740D02*
X7120D01*
X5920D02*
X6480D01*
X5070D02*
X5620D01*
X19660Y41930D02*
X19840D01*
X19130D02*
X19420D01*
X18360D02*
X18830D01*
X17740D02*
X18120D01*
X16980D02*
X17650D01*
X16410D02*
X16730D01*
X15940D02*
X16150D01*
X15370D02*
X15590D01*
X14680D02*
X15150D01*
X14190D02*
X14370D01*
X13670D02*
X13960D01*
X13280D02*
X13460D01*
X12760D02*
X13050D01*
X12230D02*
X12600D01*
X11060D02*
X11530D01*
X10180D02*
X10860D01*
X9410D02*
X9590D01*
X8880D02*
X9170D01*
X8140D02*
X8700D01*
X7800D02*
X8010D01*
X7230D02*
X7450D01*
X6740D02*
X7120D01*
X5920D02*
X6470D01*
X5070D02*
X5600D01*
X19660Y41940D02*
X19840D01*
X19130D02*
X19420D01*
X18370D02*
X18810D01*
X17740D02*
X18120D01*
X16980D02*
X17650D01*
X16410D02*
X16730D01*
X15940D02*
X16150D01*
X15360D02*
X15590D01*
X14700D02*
X15130D01*
X14190D02*
X14370D01*
X13670D02*
X13950D01*
X13280D02*
X13460D01*
X12760D02*
X13040D01*
X12230D02*
X12600D01*
X11080D02*
X11520D01*
X10180D02*
X10860D01*
X9410D02*
X9590D01*
X8880D02*
X9170D01*
X8140D02*
X8700D01*
X7800D02*
X8010D01*
X7220D02*
X7440D01*
X6740D02*
X7120D01*
X5920D02*
X6450D01*
X5070D02*
X5580D01*
X19660Y41950D02*
X19840D01*
X19130D02*
X19410D01*
X18390D02*
X18790D01*
X17740D02*
X18120D01*
X16980D02*
X17650D01*
X16410D02*
X16720D01*
X15950D02*
X16150D01*
X15360D02*
X15580D01*
X14720D02*
X15120D01*
X14190D02*
X14370D01*
X13670D02*
X13950D01*
X13280D02*
X13460D01*
X12760D02*
X13040D01*
X12230D02*
X12600D01*
X11100D02*
X11500D01*
X10180D02*
X10860D01*
X9410D02*
X9590D01*
X8880D02*
X9160D01*
X8140D02*
X8700D01*
X7810D02*
X8010D01*
X7220D02*
X7440D01*
X6740D02*
X7120D01*
X5920D02*
X6430D01*
X5070D02*
X5560D01*
X19660Y41960D02*
X19840D01*
X19140D02*
X19410D01*
X18410D02*
X18770D01*
X17740D02*
X18120D01*
X16980D02*
X17650D01*
X16420D02*
X16720D01*
X15950D02*
X16150D01*
X15360D02*
X15580D01*
X14740D02*
X15100D01*
X14190D02*
X14370D01*
X13670D02*
X13940D01*
X13280D02*
X13460D01*
X12760D02*
X13030D01*
X12230D02*
X12600D01*
X11120D02*
X11480D01*
X10180D02*
X10860D01*
X9410D02*
X9590D01*
X8890D02*
X9160D01*
X8150D02*
X8700D01*
X7810D02*
X8010D01*
X7220D02*
X7440D01*
X6740D02*
X7120D01*
X5920D02*
X6400D01*
X5070D02*
X5530D01*
X19660Y41970D02*
X19830D01*
X19140D02*
X19400D01*
X18440D02*
X18750D01*
X17750D02*
X18110D01*
X16980D02*
X17650D01*
X16420D02*
X16710D01*
X15960D02*
X16150D01*
X15370D02*
X15570D01*
X14760D02*
X15070D01*
X14200D02*
X14370D01*
X13680D02*
X13930D01*
X13290D02*
X13460D01*
X12760D02*
X13020D01*
X12230D02*
X12600D01*
X11140D02*
X11450D01*
X10190D02*
X10850D01*
X9410D02*
X9580D01*
X8890D02*
X9150D01*
X8150D02*
X8690D01*
X7820D02*
X8010D01*
X7230D02*
X7430D01*
X6740D02*
X7110D01*
X5930D02*
X6360D01*
X5080D02*
X5500D01*
X19680Y41980D02*
X19810D01*
X19160D02*
X19360D01*
X18470D02*
X18710D01*
X17770D02*
X18090D01*
X17000D02*
X17630D01*
X16450D02*
X16680D01*
X15990D02*
X16130D01*
X15380D02*
X15540D01*
X14800D02*
X15040D01*
X14220D02*
X14350D01*
X13700D02*
X13900D01*
X13310D02*
X13440D01*
X12780D02*
X12990D01*
X12250D02*
X12580D01*
X11180D02*
X11420D01*
X10210D02*
X10830D01*
X9430D02*
X9560D01*
X8910D02*
X9110D01*
X8170D02*
X8670D01*
X7850D02*
X7990D01*
X7240D02*
X7400D01*
X6760D02*
X7090D01*
X5950D02*
X6280D01*
X5100D02*
X5420D01*
X18530Y41990D02*
X18650D01*
X14860D02*
X14980D01*
X11240D02*
X11360D01*
X5020Y42350D02*
X19910D01*
X5020Y42360D02*
X19910D01*
X5020Y42370D02*
X19910D01*
X5020Y42380D02*
X19910D01*
X5020Y42390D02*
X19910D01*
X5020Y42400D02*
X19910D01*
X5020Y42410D02*
X19910D01*
X5020Y42420D02*
X19910D01*
X5020Y42430D02*
X19910D01*
X5020Y42440D02*
X19910D01*
X5020Y42450D02*
X19910D01*
X5020Y42460D02*
X19910D01*
X5020Y42470D02*
X19910D01*
X5020Y42480D02*
X19910D01*
X5020Y42490D02*
X19910D01*
X17260Y42910D02*
X19470D01*
X14250D02*
X16370D01*
X11850D02*
X12550D01*
X8370D02*
X10480D01*
X5110D02*
X5810D01*
X17220Y42920D02*
X19510D01*
X14210D02*
X16390D01*
X11830D02*
X12570D01*
X8320D02*
X10500D01*
X5090D02*
X5830D01*
X17180Y42930D02*
X19550D01*
X14170D02*
X16400D01*
X11810D02*
X12590D01*
X8290D02*
X10520D01*
X5070D02*
X5850D01*
X17160Y42940D02*
X19580D01*
X14140D02*
X16410D01*
X11800D02*
X12600D01*
X8260D02*
X10530D01*
X5060D02*
X5860D01*
X17130Y42950D02*
X19600D01*
X14120D02*
X16420D01*
X11790D02*
X12610D01*
X8230D02*
X10540D01*
X5050D02*
X5870D01*
X17110Y42960D02*
X19620D01*
X14100D02*
X16430D01*
X11790D02*
X12620D01*
X8210D02*
X10540D01*
X5040D02*
X5870D01*
X17090Y42970D02*
X19640D01*
X14080D02*
X16430D01*
X11780D02*
X12620D01*
X8190D02*
X10550D01*
X5040D02*
X5880D01*
X17080Y42980D02*
X19650D01*
X14070D02*
X16440D01*
X11770D02*
X12630D01*
X8180D02*
X10550D01*
X5030D02*
X5880D01*
X17060Y42990D02*
X19670D01*
X14050D02*
X16440D01*
X11770D02*
X12630D01*
X8160D02*
X10560D01*
X5030D02*
X5890D01*
X17050Y43000D02*
X19680D01*
X14030D02*
X16450D01*
X11770D02*
X12630D01*
X8150D02*
X10560D01*
X5030D02*
X5890D01*
X17030Y43010D02*
X19700D01*
X14020D02*
X16450D01*
X11770D02*
X12630D01*
X8130D02*
X10560D01*
X5030D02*
X5890D01*
X17020Y43020D02*
X19710D01*
X14010D02*
X16450D01*
X11770D02*
X12640D01*
X8120D02*
X10560D01*
X5020D02*
X5890D01*
X17010Y43030D02*
X19720D01*
X14000D02*
X16450D01*
X11770D02*
X12640D01*
X8110D02*
X10560D01*
X5020D02*
X5890D01*
X17000Y43040D02*
X19730D01*
X13990D02*
X16450D01*
X11770D02*
X12640D01*
X8100D02*
X10560D01*
X5020D02*
X5890D01*
X16990Y43050D02*
X19740D01*
X13970D02*
X16450D01*
X11770D02*
X12640D01*
X8090D02*
X10560D01*
X5020D02*
X5890D01*
X16980Y43060D02*
X19750D01*
X13960D02*
X16450D01*
X11770D02*
X12640D01*
X8080D02*
X10560D01*
X5020D02*
X5890D01*
X16970Y43070D02*
X19760D01*
X13960D02*
X16450D01*
X11770D02*
X12640D01*
X8070D02*
X10560D01*
X5020D02*
X5890D01*
X16960Y43080D02*
X19770D01*
X13950D02*
X16450D01*
X11770D02*
X12640D01*
X8060D02*
X10560D01*
X5020D02*
X5890D01*
X16950Y43090D02*
X19780D01*
X13940D02*
X16450D01*
X11770D02*
X12640D01*
X8050D02*
X10560D01*
X5020D02*
X5890D01*
X16940Y43100D02*
X19790D01*
X13930D02*
X16450D01*
X11770D02*
X12640D01*
X8040D02*
X10560D01*
X5020D02*
X5890D01*
X16940Y43110D02*
X19800D01*
X13920D02*
X16450D01*
X11770D02*
X12640D01*
X8040D02*
X10560D01*
X5020D02*
X5890D01*
X16930Y43120D02*
X19800D01*
X13910D02*
X16450D01*
X11770D02*
X12640D01*
X8030D02*
X10560D01*
X5020D02*
X5890D01*
X16920Y43130D02*
X19810D01*
X13910D02*
X16450D01*
X11770D02*
X12640D01*
X8020D02*
X10560D01*
X5020D02*
X5890D01*
X16910Y43140D02*
X19820D01*
X13900D02*
X16450D01*
X11770D02*
X12640D01*
X8010D02*
X10560D01*
X5020D02*
X5890D01*
X16910Y43150D02*
X19820D01*
X13900D02*
X16450D01*
X11770D02*
X12640D01*
X8010D02*
X10560D01*
X5020D02*
X5890D01*
X16900Y43160D02*
X19830D01*
X13890D02*
X16450D01*
X11770D02*
X12640D01*
X8000D02*
X10560D01*
X5020D02*
X5890D01*
X16900Y43170D02*
X19840D01*
X13880D02*
X16450D01*
X11770D02*
X12640D01*
X8000D02*
X10560D01*
X5020D02*
X5890D01*
X16890Y43180D02*
X19840D01*
X13880D02*
X16450D01*
X11770D02*
X12640D01*
X7990D02*
X10560D01*
X5020D02*
X5890D01*
X16890Y43190D02*
X19850D01*
X13870D02*
X16450D01*
X11770D02*
X12640D01*
X7990D02*
X10560D01*
X5020D02*
X5890D01*
X16880Y43200D02*
X19850D01*
X13870D02*
X16450D01*
X11770D02*
X12640D01*
X7980D02*
X10560D01*
X5020D02*
X5890D01*
X16880Y43210D02*
X19860D01*
X13860D02*
X16450D01*
X11770D02*
X12640D01*
X7980D02*
X10560D01*
X5020D02*
X5890D01*
X16870Y43220D02*
X19860D01*
X13860D02*
X16450D01*
X11770D02*
X12640D01*
X7970D02*
X10560D01*
X5020D02*
X5890D01*
X16870Y43230D02*
X19860D01*
X13850D02*
X16450D01*
X11770D02*
X12640D01*
X7970D02*
X10560D01*
X5020D02*
X5890D01*
X16860Y43240D02*
X19870D01*
X13850D02*
X16440D01*
X11770D02*
X12640D01*
X7960D02*
X10560D01*
X5020D02*
X5890D01*
X16860Y43250D02*
X19870D01*
X13850D02*
X16440D01*
X11770D02*
X12640D01*
X7960D02*
X10550D01*
X5020D02*
X5890D01*
X16860Y43260D02*
X19880D01*
X13840D02*
X16440D01*
X11770D02*
X12640D01*
X7960D02*
X10550D01*
X5020D02*
X5890D01*
X16850Y43270D02*
X19880D01*
X13840D02*
X16430D01*
X11770D02*
X12640D01*
X7950D02*
X10540D01*
X5020D02*
X5890D01*
X16850Y43280D02*
X19880D01*
X13840D02*
X16430D01*
X11770D02*
X12640D01*
X7950D02*
X10540D01*
X5020D02*
X5890D01*
X16850Y43290D02*
X19880D01*
X13840D02*
X16420D01*
X11770D02*
X12640D01*
X7950D02*
X10530D01*
X5020D02*
X5890D01*
X16850Y43300D02*
X19890D01*
X13830D02*
X16410D01*
X11770D02*
X12640D01*
X7950D02*
X10520D01*
X5020D02*
X5890D01*
X16840Y43310D02*
X19890D01*
X13830D02*
X16400D01*
X11770D02*
X12640D01*
X7940D02*
X10510D01*
X5020D02*
X5890D01*
X16840Y43320D02*
X19890D01*
X13830D02*
X16380D01*
X11770D02*
X12640D01*
X7940D02*
X10490D01*
X5020D02*
X5890D01*
X16840Y43330D02*
X19890D01*
X13830D02*
X16350D01*
X11770D02*
X12640D01*
X7940D02*
X10460D01*
X5020D02*
X5890D01*
X18820Y43340D02*
X19890D01*
X16840D02*
X17910D01*
X13820D02*
X14900D01*
X11770D02*
X12640D01*
X7940D02*
X9010D01*
X5020D02*
X5890D01*
X18860Y43350D02*
X19900D01*
X16840D02*
X17880D01*
X13820D02*
X14860D01*
X11770D02*
X12640D01*
X7940D02*
X8980D01*
X5020D02*
X5890D01*
X18880Y43360D02*
X19900D01*
X16830D02*
X17850D01*
X13820D02*
X14840D01*
X11770D02*
X12640D01*
X7930D02*
X8950D01*
X5020D02*
X5890D01*
X18900Y43370D02*
X19900D01*
X16830D02*
X17840D01*
X13820D02*
X14820D01*
X11770D02*
X12640D01*
X7930D02*
X8940D01*
X5020D02*
X5890D01*
X18910Y43380D02*
X19900D01*
X16830D02*
X17820D01*
X13820D02*
X14810D01*
X11770D02*
X12640D01*
X7930D02*
X8920D01*
X5020D02*
X5890D01*
X18930Y43390D02*
X19900D01*
X16830D02*
X17810D01*
X13820D02*
X14790D01*
X11770D02*
X12640D01*
X7930D02*
X8910D01*
X5020D02*
X5890D01*
X18940Y43400D02*
X19900D01*
X16830D02*
X17790D01*
X13820D02*
X14780D01*
X11770D02*
X12640D01*
X7930D02*
X8900D01*
X5020D02*
X5890D01*
X18950Y43410D02*
X19900D01*
X16830D02*
X17780D01*
X13820D02*
X14770D01*
X11770D02*
X12640D01*
X7930D02*
X8880D01*
X5020D02*
X5890D01*
X18960Y43420D02*
X19900D01*
X16830D02*
X17770D01*
X13820D02*
X14760D01*
X11770D02*
X12640D01*
X7930D02*
X8870D01*
X5020D02*
X5890D01*
X18970Y43430D02*
X19900D01*
X16830D02*
X17770D01*
X13820D02*
X14750D01*
X11770D02*
X12640D01*
X7930D02*
X8870D01*
X5020D02*
X5890D01*
X18970Y43440D02*
X19900D01*
X16830D02*
X17760D01*
X13820D02*
X14740D01*
X11770D02*
X12640D01*
X7930D02*
X8860D01*
X5020D02*
X5890D01*
X18980Y43450D02*
X19900D01*
X16830D02*
X17750D01*
X13820D02*
X14740D01*
X11770D02*
X12640D01*
X7930D02*
X8850D01*
X5020D02*
X5890D01*
X18990Y43460D02*
X19900D01*
X16830D02*
X17740D01*
X13820D02*
X14730D01*
X11770D02*
X12640D01*
X7930D02*
X8840D01*
X5020D02*
X5890D01*
X19000Y43470D02*
X19900D01*
X16830D02*
X17740D01*
X13820D02*
X14720D01*
X11770D02*
X12640D01*
X7930D02*
X8840D01*
X5020D02*
X5890D01*
X19000Y43480D02*
X19900D01*
X16830D02*
X17730D01*
X13820D02*
X14720D01*
X11770D02*
X12640D01*
X7930D02*
X8830D01*
X5020D02*
X5890D01*
X19010Y43490D02*
X19900D01*
X16830D02*
X17730D01*
X13820D02*
X14710D01*
X11770D02*
X12640D01*
X7930D02*
X8830D01*
X5020D02*
X5890D01*
X19010Y43500D02*
X19900D01*
X16830D02*
X17720D01*
X13820D02*
X14710D01*
X11770D02*
X12640D01*
X7930D02*
X8820D01*
X5020D02*
X5890D01*
X19010Y43510D02*
X19900D01*
X16830D02*
X17720D01*
X13820D02*
X14710D01*
X11770D02*
X12640D01*
X7930D02*
X8820D01*
X5020D02*
X5890D01*
X19020Y43520D02*
X19900D01*
X16830D02*
X17710D01*
X13820D02*
X14700D01*
X11770D02*
X12640D01*
X7930D02*
X8820D01*
X5020D02*
X5890D01*
X19020Y43530D02*
X19900D01*
X16830D02*
X17710D01*
X13820D02*
X14700D01*
X11770D02*
X12640D01*
X7930D02*
X8810D01*
X5020D02*
X5890D01*
X19020Y43540D02*
X19900D01*
X16830D02*
X17710D01*
X13820D02*
X14700D01*
X11770D02*
X12640D01*
X7930D02*
X8810D01*
X5020D02*
X5890D01*
X19030Y43550D02*
X19900D01*
X16830D02*
X17710D01*
X13820D02*
X14690D01*
X11770D02*
X12640D01*
X7930D02*
X8810D01*
X5020D02*
X5890D01*
X19030Y43560D02*
X19900D01*
X16830D02*
X17700D01*
X13820D02*
X14690D01*
X11770D02*
X12640D01*
X7930D02*
X8810D01*
X5020D02*
X5890D01*
X19030Y43570D02*
X19900D01*
X16830D02*
X17700D01*
X13820D02*
X14690D01*
X11770D02*
X12640D01*
X7930D02*
X8800D01*
X5020D02*
X5890D01*
X19030Y43580D02*
X19900D01*
X16830D02*
X17700D01*
X13820D02*
X14690D01*
X11770D02*
X12640D01*
X7930D02*
X8800D01*
X5020D02*
X5890D01*
X19030Y43590D02*
X19900D01*
X16830D02*
X17700D01*
X13820D02*
X14690D01*
X11770D02*
X12640D01*
X7930D02*
X8800D01*
X5020D02*
X5890D01*
X19030Y43600D02*
X19900D01*
X16830D02*
X17700D01*
X13820D02*
X14690D01*
X11770D02*
X12640D01*
X7930D02*
X8800D01*
X5020D02*
X5890D01*
X19030Y43610D02*
X19900D01*
X16830D02*
X17700D01*
X13820D02*
X14690D01*
X11770D02*
X12640D01*
X7930D02*
X8800D01*
X5020D02*
X5890D01*
X19030Y43620D02*
X19900D01*
X16830D02*
X17700D01*
X13820D02*
X14690D01*
X11770D02*
X12640D01*
X7930D02*
X8800D01*
X5020D02*
X5890D01*
X19030Y43630D02*
X19900D01*
X16830D02*
X17700D01*
X13820D02*
X14690D01*
X11770D02*
X12640D01*
X7930D02*
X8800D01*
X5020D02*
X5890D01*
X19030Y43640D02*
X19900D01*
X16830D02*
X17700D01*
X13820D02*
X14690D01*
X11770D02*
X12640D01*
X7930D02*
X8800D01*
X5020D02*
X5890D01*
X19030Y43650D02*
X19900D01*
X16830D02*
X17700D01*
X13820D02*
X14690D01*
X11770D02*
X12640D01*
X7930D02*
X8800D01*
X5020D02*
X5890D01*
X19030Y43660D02*
X19900D01*
X16830D02*
X17700D01*
X13820D02*
X14690D01*
X11770D02*
X12640D01*
X7930D02*
X8800D01*
X5020D02*
X5890D01*
X19030Y43670D02*
X19900D01*
X16830D02*
X17700D01*
X13820D02*
X14690D01*
X11770D02*
X12640D01*
X7930D02*
X8800D01*
X5020D02*
X5890D01*
X19030Y43680D02*
X19900D01*
X16830D02*
X17700D01*
X13820D02*
X14690D01*
X11770D02*
X12640D01*
X7930D02*
X8800D01*
X5020D02*
X5890D01*
X19030Y43690D02*
X19900D01*
X16830D02*
X17700D01*
X13820D02*
X14690D01*
X11770D02*
X12640D01*
X7930D02*
X8800D01*
X5020D02*
X5890D01*
X19030Y43700D02*
X19900D01*
X16830D02*
X17700D01*
X13820D02*
X14690D01*
X11770D02*
X12640D01*
X7930D02*
X8800D01*
X5020D02*
X5890D01*
X19030Y43710D02*
X19900D01*
X16830D02*
X17700D01*
X13820D02*
X14690D01*
X11770D02*
X12640D01*
X7930D02*
X8800D01*
X5020D02*
X5890D01*
X19030Y43720D02*
X19900D01*
X16830D02*
X17700D01*
X13820D02*
X14690D01*
X11770D02*
X12640D01*
X7930D02*
X8800D01*
X5020D02*
X5890D01*
X19030Y43730D02*
X19900D01*
X16830D02*
X17700D01*
X13820D02*
X14690D01*
X11770D02*
X12640D01*
X7930D02*
X8800D01*
X5020D02*
X5890D01*
X19030Y43740D02*
X19900D01*
X16830D02*
X17700D01*
X13820D02*
X14690D01*
X11770D02*
X12640D01*
X7930D02*
X8800D01*
X5020D02*
X5890D01*
X19030Y43750D02*
X19900D01*
X16830D02*
X17700D01*
X13820D02*
X14690D01*
X11770D02*
X12640D01*
X7930D02*
X8800D01*
X5020D02*
X5890D01*
X19030Y43760D02*
X19900D01*
X16830D02*
X17700D01*
X13820D02*
X14690D01*
X11770D02*
X12640D01*
X7930D02*
X8800D01*
X5020D02*
X5890D01*
X19030Y43770D02*
X19900D01*
X16830D02*
X17700D01*
X13820D02*
X14690D01*
X11770D02*
X12640D01*
X7930D02*
X8800D01*
X5020D02*
X5890D01*
X19030Y43780D02*
X19900D01*
X16830D02*
X17700D01*
X13820D02*
X14690D01*
X11770D02*
X12640D01*
X7930D02*
X8800D01*
X5020D02*
X5890D01*
X19030Y43790D02*
X19900D01*
X16830D02*
X17700D01*
X13820D02*
X14690D01*
X11770D02*
X12640D01*
X7930D02*
X8800D01*
X5020D02*
X5890D01*
X19030Y43800D02*
X19900D01*
X16830D02*
X17700D01*
X13820D02*
X14690D01*
X11770D02*
X12640D01*
X7930D02*
X8800D01*
X5020D02*
X5890D01*
X19030Y43810D02*
X19900D01*
X16830D02*
X17700D01*
X13820D02*
X14690D01*
X11770D02*
X12640D01*
X7930D02*
X8800D01*
X5020D02*
X5890D01*
X19030Y43820D02*
X19900D01*
X16830D02*
X17700D01*
X13820D02*
X14690D01*
X11770D02*
X12640D01*
X7930D02*
X8800D01*
X5020D02*
X5890D01*
X19030Y43830D02*
X19900D01*
X16830D02*
X17700D01*
X13820D02*
X14690D01*
X11770D02*
X12640D01*
X7930D02*
X8800D01*
X5020D02*
X5890D01*
X19030Y43840D02*
X19900D01*
X16830D02*
X17700D01*
X13820D02*
X14690D01*
X11770D02*
X12640D01*
X7930D02*
X8800D01*
X5020D02*
X5890D01*
X19030Y43850D02*
X19900D01*
X16830D02*
X17700D01*
X13820D02*
X14690D01*
X11770D02*
X12640D01*
X7930D02*
X8800D01*
X5020D02*
X5890D01*
X19030Y43860D02*
X19900D01*
X16830D02*
X17700D01*
X13820D02*
X14690D01*
X11770D02*
X12640D01*
X7930D02*
X8800D01*
X5020D02*
X5890D01*
X19030Y43870D02*
X19900D01*
X16830D02*
X17700D01*
X13820D02*
X14690D01*
X11770D02*
X12640D01*
X7930D02*
X8800D01*
X5020D02*
X5890D01*
X19030Y43880D02*
X19900D01*
X16830D02*
X17700D01*
X13820D02*
X14690D01*
X11770D02*
X12640D01*
X7930D02*
X9860D01*
X5020D02*
X6960D01*
X19030Y43890D02*
X19900D01*
X16830D02*
X17700D01*
X13820D02*
X14690D01*
X11770D02*
X12640D01*
X7930D02*
X9890D01*
X5020D02*
X6980D01*
X19030Y43900D02*
X19900D01*
X16830D02*
X17700D01*
X13820D02*
X14690D01*
X11770D02*
X12640D01*
X7930D02*
X9900D01*
X5020D02*
X6990D01*
X19030Y43910D02*
X19900D01*
X16830D02*
X17700D01*
X13820D02*
X14690D01*
X11770D02*
X12640D01*
X7930D02*
X9910D01*
X5020D02*
X7000D01*
X19030Y43920D02*
X19900D01*
X16830D02*
X17700D01*
X13820D02*
X14690D01*
X11770D02*
X12640D01*
X7930D02*
X9920D01*
X5020D02*
X7010D01*
X19030Y43930D02*
X19900D01*
X16830D02*
X17700D01*
X13820D02*
X14690D01*
X11770D02*
X12640D01*
X7930D02*
X9930D01*
X5020D02*
X7020D01*
X19030Y43940D02*
X19900D01*
X16830D02*
X17700D01*
X13820D02*
X14690D01*
X11770D02*
X12640D01*
X7930D02*
X9930D01*
X5020D02*
X7020D01*
X19030Y43950D02*
X19900D01*
X16830D02*
X17700D01*
X13820D02*
X14690D01*
X11770D02*
X12640D01*
X7930D02*
X9940D01*
X5020D02*
X7030D01*
X19030Y43960D02*
X19900D01*
X16830D02*
X17700D01*
X13820D02*
X14690D01*
X11770D02*
X12640D01*
X7930D02*
X9940D01*
X5020D02*
X7030D01*
X19030Y43970D02*
X19900D01*
X16830D02*
X17700D01*
X13820D02*
X14690D01*
X11770D02*
X12640D01*
X7930D02*
X9940D01*
X5020D02*
X7040D01*
X19030Y43980D02*
X19900D01*
X16830D02*
X17700D01*
X13820D02*
X14690D01*
X11770D02*
X12640D01*
X7930D02*
X9940D01*
X5020D02*
X7040D01*
X19030Y43990D02*
X19900D01*
X16830D02*
X17700D01*
X13820D02*
X14690D01*
X11770D02*
X12640D01*
X7930D02*
X9940D01*
X5020D02*
X7040D01*
X19030Y44000D02*
X19900D01*
X16830D02*
X17700D01*
X13820D02*
X14690D01*
X11770D02*
X12640D01*
X7930D02*
X9950D01*
X5020D02*
X7040D01*
X19030Y44010D02*
X19900D01*
X16830D02*
X17700D01*
X13820D02*
X14690D01*
X11770D02*
X12640D01*
X7930D02*
X9950D01*
X5020D02*
X7040D01*
X19030Y44020D02*
X19900D01*
X16830D02*
X17700D01*
X13820D02*
X14690D01*
X11770D02*
X12640D01*
X7930D02*
X9950D01*
X5020D02*
X7040D01*
X19030Y44030D02*
X19900D01*
X16830D02*
X17700D01*
X13820D02*
X14690D01*
X11770D02*
X12640D01*
X7930D02*
X9950D01*
X5020D02*
X7040D01*
X19030Y44040D02*
X19900D01*
X16830D02*
X17700D01*
X13820D02*
X14690D01*
X11770D02*
X12640D01*
X7930D02*
X9950D01*
X5020D02*
X7040D01*
X19030Y44050D02*
X19900D01*
X16830D02*
X17700D01*
X13820D02*
X14690D01*
X11770D02*
X12640D01*
X7930D02*
X9950D01*
X5020D02*
X7040D01*
X19030Y44060D02*
X19900D01*
X16830D02*
X17700D01*
X13820D02*
X14690D01*
X11770D02*
X12640D01*
X7930D02*
X9950D01*
X5020D02*
X7040D01*
X19030Y44070D02*
X19900D01*
X16830D02*
X17700D01*
X13820D02*
X14690D01*
X11770D02*
X12640D01*
X7930D02*
X9950D01*
X5020D02*
X7040D01*
X19030Y44080D02*
X19900D01*
X16830D02*
X17700D01*
X13820D02*
X14690D01*
X11770D02*
X12640D01*
X7930D02*
X9950D01*
X5020D02*
X7040D01*
X19030Y44090D02*
X19900D01*
X16830D02*
X17700D01*
X13820D02*
X14690D01*
X11770D02*
X12640D01*
X7930D02*
X9950D01*
X5020D02*
X7040D01*
X19030Y44100D02*
X19900D01*
X16830D02*
X17700D01*
X13820D02*
X14690D01*
X11770D02*
X12640D01*
X7930D02*
X9950D01*
X5020D02*
X7040D01*
X19030Y44110D02*
X19900D01*
X16830D02*
X17700D01*
X13820D02*
X14690D01*
X11770D02*
X12640D01*
X7930D02*
X9950D01*
X5020D02*
X7040D01*
X19030Y44120D02*
X19900D01*
X16830D02*
X17700D01*
X13820D02*
X14690D01*
X11770D02*
X12640D01*
X7930D02*
X9950D01*
X5020D02*
X7040D01*
X19030Y44130D02*
X19900D01*
X16830D02*
X17700D01*
X13820D02*
X14690D01*
X11770D02*
X12640D01*
X7930D02*
X9950D01*
X5020D02*
X7040D01*
X19030Y44140D02*
X19900D01*
X16830D02*
X17700D01*
X13820D02*
X14690D01*
X11770D02*
X12640D01*
X7930D02*
X9950D01*
X5020D02*
X7040D01*
X19030Y44150D02*
X19900D01*
X16830D02*
X17700D01*
X13820D02*
X14690D01*
X11770D02*
X12640D01*
X7930D02*
X9950D01*
X5020D02*
X7040D01*
X19030Y44160D02*
X19900D01*
X16830D02*
X17700D01*
X13820D02*
X14690D01*
X11770D02*
X12640D01*
X7930D02*
X9950D01*
X5020D02*
X7040D01*
X19030Y44170D02*
X19900D01*
X16830D02*
X17700D01*
X13820D02*
X14690D01*
X11770D02*
X12640D01*
X7930D02*
X9950D01*
X5020D02*
X7040D01*
X19030Y44180D02*
X19900D01*
X16830D02*
X17700D01*
X13820D02*
X14690D01*
X11770D02*
X12640D01*
X7930D02*
X9950D01*
X5020D02*
X7040D01*
X19030Y44190D02*
X19900D01*
X16830D02*
X17700D01*
X13820D02*
X14690D01*
X11770D02*
X12640D01*
X7930D02*
X9940D01*
X5020D02*
X7040D01*
X19030Y44200D02*
X19900D01*
X16830D02*
X17700D01*
X13820D02*
X14690D01*
X11770D02*
X12640D01*
X7930D02*
X9940D01*
X5020D02*
X7040D01*
X19030Y44210D02*
X19900D01*
X16830D02*
X17700D01*
X13820D02*
X14690D01*
X11770D02*
X12640D01*
X7930D02*
X9940D01*
X5020D02*
X7030D01*
X19030Y44220D02*
X19900D01*
X16830D02*
X17700D01*
X13820D02*
X14690D01*
X11770D02*
X12640D01*
X7930D02*
X9940D01*
X5020D02*
X7030D01*
X19030Y44230D02*
X19900D01*
X16830D02*
X17700D01*
X13820D02*
X14690D01*
X11770D02*
X12640D01*
X7930D02*
X9930D01*
X5020D02*
X7030D01*
X19030Y44240D02*
X19900D01*
X16830D02*
X17700D01*
X13820D02*
X14690D01*
X11770D02*
X12640D01*
X7930D02*
X9930D01*
X5020D02*
X7020D01*
X19030Y44250D02*
X19900D01*
X16830D02*
X17700D01*
X13820D02*
X14690D01*
X11770D02*
X12640D01*
X7930D02*
X9920D01*
X5020D02*
X7020D01*
X19030Y44260D02*
X19900D01*
X16830D02*
X17700D01*
X13820D02*
X14690D01*
X11770D02*
X12640D01*
X7930D02*
X9910D01*
X5020D02*
X7010D01*
X19030Y44270D02*
X19900D01*
X16830D02*
X17700D01*
X13820D02*
X14690D01*
X11770D02*
X12640D01*
X7930D02*
X9900D01*
X5020D02*
X7000D01*
X19030Y44280D02*
X19900D01*
X16830D02*
X17700D01*
X13820D02*
X14690D01*
X11770D02*
X12640D01*
X7930D02*
X9890D01*
X5020D02*
X6980D01*
X19030Y44290D02*
X19900D01*
X16830D02*
X17700D01*
X13820D02*
X14690D01*
X11770D02*
X12640D01*
X7930D02*
X9870D01*
X5020D02*
X6970D01*
X19030Y44300D02*
X19900D01*
X16830D02*
X17700D01*
X13820D02*
X14690D01*
X11770D02*
X12640D01*
X7930D02*
X9840D01*
X5020D02*
X6930D01*
X19030Y44310D02*
X19900D01*
X16830D02*
X17700D01*
X13820D02*
X14690D01*
X11770D02*
X12640D01*
X7930D02*
X8800D01*
X5020D02*
X5890D01*
X19030Y44320D02*
X19900D01*
X16830D02*
X17700D01*
X13820D02*
X14690D01*
X11770D02*
X12640D01*
X7930D02*
X8800D01*
X5020D02*
X5890D01*
X19030Y44330D02*
X19900D01*
X16830D02*
X17700D01*
X13820D02*
X14690D01*
X11770D02*
X12640D01*
X7930D02*
X8800D01*
X5020D02*
X5890D01*
X19030Y44340D02*
X19900D01*
X16830D02*
X17700D01*
X13820D02*
X14690D01*
X11770D02*
X12640D01*
X7930D02*
X8800D01*
X5020D02*
X5890D01*
X19030Y44350D02*
X19900D01*
X16830D02*
X17700D01*
X13820D02*
X14690D01*
X11770D02*
X12640D01*
X7930D02*
X8800D01*
X5020D02*
X5890D01*
X19030Y44360D02*
X19900D01*
X16830D02*
X17700D01*
X13820D02*
X14690D01*
X11770D02*
X12640D01*
X7930D02*
X8800D01*
X5020D02*
X5890D01*
X19030Y44370D02*
X19900D01*
X16830D02*
X17700D01*
X13820D02*
X14690D01*
X11770D02*
X12640D01*
X7930D02*
X8800D01*
X5020D02*
X5890D01*
X19030Y44380D02*
X19900D01*
X16830D02*
X17700D01*
X13820D02*
X14690D01*
X11770D02*
X12640D01*
X7930D02*
X8800D01*
X5020D02*
X5890D01*
X19030Y44390D02*
X19900D01*
X16830D02*
X17700D01*
X13820D02*
X14690D01*
X11770D02*
X12640D01*
X7930D02*
X8800D01*
X5020D02*
X5890D01*
X19030Y44400D02*
X19900D01*
X16830D02*
X17700D01*
X13820D02*
X14690D01*
X11770D02*
X12640D01*
X7930D02*
X8800D01*
X5020D02*
X5890D01*
X19030Y44410D02*
X19900D01*
X16830D02*
X17700D01*
X13820D02*
X14690D01*
X11770D02*
X12640D01*
X7930D02*
X8800D01*
X5020D02*
X5890D01*
X19030Y44420D02*
X19900D01*
X16830D02*
X17700D01*
X13820D02*
X14690D01*
X11770D02*
X12640D01*
X7930D02*
X8800D01*
X5020D02*
X5890D01*
X19030Y44430D02*
X19900D01*
X16830D02*
X17700D01*
X13820D02*
X14690D01*
X11770D02*
X12640D01*
X7930D02*
X8800D01*
X5020D02*
X5890D01*
X19030Y44440D02*
X19900D01*
X16830D02*
X17700D01*
X13820D02*
X14690D01*
X11770D02*
X12640D01*
X7930D02*
X8800D01*
X5020D02*
X5890D01*
X19030Y44450D02*
X19900D01*
X16830D02*
X17700D01*
X13820D02*
X14690D01*
X11770D02*
X12640D01*
X7930D02*
X8800D01*
X5020D02*
X5890D01*
X19030Y44460D02*
X19900D01*
X16830D02*
X17700D01*
X13820D02*
X14690D01*
X11770D02*
X12640D01*
X7930D02*
X8800D01*
X5020D02*
X5890D01*
X19030Y44470D02*
X19900D01*
X16830D02*
X17700D01*
X13820D02*
X14690D01*
X11770D02*
X12640D01*
X7930D02*
X8800D01*
X5020D02*
X5890D01*
X19030Y44480D02*
X19900D01*
X16830D02*
X17700D01*
X13820D02*
X14690D01*
X11770D02*
X12640D01*
X7930D02*
X8800D01*
X5020D02*
X5890D01*
X19030Y44490D02*
X19900D01*
X16830D02*
X17700D01*
X13820D02*
X14690D01*
X11770D02*
X12640D01*
X7930D02*
X8800D01*
X5020D02*
X5890D01*
X19030Y44500D02*
X19900D01*
X16830D02*
X17700D01*
X13820D02*
X14690D01*
X11770D02*
X12640D01*
X7930D02*
X8800D01*
X5020D02*
X5890D01*
X19030Y44510D02*
X19900D01*
X16830D02*
X17700D01*
X13820D02*
X14690D01*
X11770D02*
X12640D01*
X7930D02*
X8800D01*
X5020D02*
X5890D01*
X19030Y44520D02*
X19900D01*
X16830D02*
X17700D01*
X13820D02*
X14690D01*
X11770D02*
X12640D01*
X7930D02*
X8800D01*
X5020D02*
X5890D01*
X19030Y44530D02*
X19900D01*
X16830D02*
X17700D01*
X13820D02*
X14690D01*
X11770D02*
X12640D01*
X7930D02*
X8800D01*
X5020D02*
X5890D01*
X19030Y44540D02*
X19900D01*
X16830D02*
X17700D01*
X13820D02*
X14690D01*
X11770D02*
X12640D01*
X7930D02*
X8800D01*
X5020D02*
X5890D01*
X19030Y44550D02*
X19900D01*
X16830D02*
X17700D01*
X13820D02*
X14690D01*
X11770D02*
X12640D01*
X7930D02*
X8800D01*
X5020D02*
X5890D01*
X19030Y44560D02*
X19900D01*
X16830D02*
X17700D01*
X13820D02*
X14690D01*
X11770D02*
X12640D01*
X7930D02*
X8800D01*
X5020D02*
X5890D01*
X19030Y44570D02*
X19900D01*
X16830D02*
X17700D01*
X13820D02*
X14690D01*
X11770D02*
X12640D01*
X7930D02*
X8800D01*
X5020D02*
X5890D01*
X19030Y44580D02*
X19900D01*
X16830D02*
X17700D01*
X13820D02*
X14690D01*
X11770D02*
X12640D01*
X7930D02*
X8800D01*
X5020D02*
X5890D01*
X19030Y44590D02*
X19900D01*
X16830D02*
X17700D01*
X13820D02*
X14690D01*
X11770D02*
X12640D01*
X7930D02*
X8800D01*
X5020D02*
X5900D01*
X19030Y44600D02*
X19900D01*
X16830D02*
X17700D01*
X13820D02*
X14690D01*
X11770D02*
X12640D01*
X7930D02*
X8800D01*
X5020D02*
X5900D01*
X19030Y44610D02*
X19900D01*
X16830D02*
X17700D01*
X13820D02*
X14690D01*
X11770D02*
X12640D01*
X7930D02*
X8800D01*
X5020D02*
X5900D01*
X19030Y44620D02*
X19900D01*
X16830D02*
X17710D01*
X13820D02*
X14690D01*
X11770D02*
X12640D01*
X7930D02*
X8810D01*
X5020D02*
X5900D01*
X19020Y44630D02*
X19900D01*
X16830D02*
X17710D01*
X13820D02*
X14690D01*
X11770D02*
X12640D01*
X7930D02*
X8810D01*
X5020D02*
X5900D01*
X19020Y44640D02*
X19900D01*
X16830D02*
X17710D01*
X13820D02*
X14700D01*
X11770D02*
X12640D01*
X7930D02*
X8810D01*
X5020D02*
X5900D01*
X19020Y44650D02*
X19900D01*
X16830D02*
X17710D01*
X13820D02*
X14700D01*
X11770D02*
X12640D01*
X7930D02*
X8810D01*
X5020D02*
X5910D01*
X19010Y44660D02*
X19900D01*
X16830D02*
X17720D01*
X13820D02*
X14700D01*
X11770D02*
X12640D01*
X7930D02*
X8820D01*
X5020D02*
X5910D01*
X19010Y44670D02*
X19900D01*
X16830D02*
X17720D01*
X13820D02*
X14710D01*
X11770D02*
X12640D01*
X7930D02*
X8820D01*
X5020D02*
X5910D01*
X19010Y44680D02*
X19900D01*
X16830D02*
X17720D01*
X13820D02*
X14710D01*
X11770D02*
X12640D01*
X7930D02*
X8820D01*
X5020D02*
X5920D01*
X19000Y44690D02*
X19900D01*
X16830D02*
X17730D01*
X13820D02*
X14720D01*
X11770D02*
X12640D01*
X7930D02*
X8830D01*
X5020D02*
X5920D01*
X19000Y44700D02*
X19900D01*
X16830D02*
X17740D01*
X13820D02*
X14720D01*
X11770D02*
X12640D01*
X7930D02*
X8840D01*
X5020D02*
X5930D01*
X18990Y44710D02*
X19900D01*
X16830D02*
X17740D01*
X13820D02*
X14730D01*
X11770D02*
X12640D01*
X7930D02*
X8840D01*
X5020D02*
X5930D01*
X18980Y44720D02*
X19900D01*
X16830D02*
X17750D01*
X13820D02*
X14730D01*
X11770D02*
X12640D01*
X7930D02*
X8850D01*
X5020D02*
X5940D01*
X18980Y44730D02*
X19900D01*
X16830D02*
X17760D01*
X13820D02*
X14740D01*
X11770D02*
X12640D01*
X7930D02*
X8850D01*
X5020D02*
X5950D01*
X18970Y44740D02*
X19900D01*
X16830D02*
X17760D01*
X13820D02*
X14750D01*
X11770D02*
X12640D01*
X7930D02*
X8860D01*
X5020D02*
X5960D01*
X18960Y44750D02*
X19900D01*
X16830D02*
X17770D01*
X13820D02*
X14760D01*
X11770D02*
X12640D01*
X7930D02*
X8870D01*
X5020D02*
X5960D01*
X18950Y44760D02*
X19900D01*
X16830D02*
X17780D01*
X13820D02*
X14770D01*
X11770D02*
X12640D01*
X7930D02*
X8880D01*
X5020D02*
X5970D01*
X18940Y44770D02*
X19900D01*
X16830D02*
X17790D01*
X13820D02*
X14780D01*
X11770D02*
X12640D01*
X7930D02*
X8890D01*
X5020D02*
X5980D01*
X18930Y44780D02*
X19900D01*
X16830D02*
X17800D01*
X13820D02*
X14790D01*
X11770D02*
X12640D01*
X7930D02*
X8900D01*
X5020D02*
X6000D01*
X18920Y44790D02*
X19900D01*
X16830D02*
X17820D01*
X13820D02*
X14800D01*
X11770D02*
X12640D01*
X7930D02*
X8920D01*
X5030D02*
X6010D01*
X18900Y44800D02*
X19900D01*
X16830D02*
X17830D01*
X13820D02*
X14820D01*
X11770D02*
X12640D01*
X7930D02*
X8930D01*
X5030D02*
X6020D01*
X18880Y44810D02*
X19900D01*
X16830D02*
X17850D01*
X13820D02*
X14840D01*
X11770D02*
X12640D01*
X7930D02*
X8950D01*
X5030D02*
X6040D01*
X18860Y44820D02*
X19900D01*
X16840D02*
X17870D01*
X13820D02*
X14850D01*
X11770D02*
X12640D01*
X7940D02*
X8970D01*
X5030D02*
X6060D01*
X18830Y44830D02*
X19890D01*
X16840D02*
X17900D01*
X13820D02*
X14890D01*
X11770D02*
X12640D01*
X7940D02*
X9000D01*
X5030D02*
X6090D01*
X18770Y44840D02*
X19890D01*
X16840D02*
X17960D01*
X13830D02*
X14950D01*
X11770D02*
X12640D01*
X7940D02*
X9060D01*
X5030D02*
X6160D01*
X16840Y44850D02*
X19890D01*
X13830D02*
X16370D01*
X10960D02*
X13440D01*
X7940D02*
X10480D01*
X5030D02*
X7580D01*
X16840Y44860D02*
X19890D01*
X13830D02*
X16390D01*
X10940D02*
X13460D01*
X7940D02*
X10500D01*
X5040D02*
X7600D01*
X16840Y44870D02*
X19890D01*
X13830D02*
X16400D01*
X10930D02*
X13470D01*
X7940D02*
X10520D01*
X5040D02*
X7610D01*
X16850Y44880D02*
X19880D01*
X13830D02*
X16420D01*
X10920D02*
X13480D01*
X7950D02*
X10530D01*
X5040D02*
X7620D01*
X16850Y44890D02*
X19880D01*
X13840D02*
X16420D01*
X10910D02*
X13490D01*
X7950D02*
X10540D01*
X5040D02*
X7630D01*
X16850Y44900D02*
X19880D01*
X13840D02*
X16430D01*
X10900D02*
X13500D01*
X7950D02*
X10540D01*
X5050D02*
X7640D01*
X16860Y44910D02*
X19880D01*
X13840D02*
X16440D01*
X10900D02*
X13500D01*
X7960D02*
X10550D01*
X5050D02*
X7640D01*
X16860Y44920D02*
X19870D01*
X13850D02*
X16440D01*
X10890D02*
X13510D01*
X7960D02*
X10550D01*
X5050D02*
X7650D01*
X16860Y44930D02*
X19870D01*
X13850D02*
X16440D01*
X10890D02*
X13510D01*
X7960D02*
X10560D01*
X5060D02*
X7650D01*
X16870Y44940D02*
X19870D01*
X13850D02*
X16450D01*
X10890D02*
X13510D01*
X7970D02*
X10560D01*
X5060D02*
X7650D01*
X16870Y44950D02*
X19860D01*
X13860D02*
X16450D01*
X10890D02*
X13510D01*
X7970D02*
X10560D01*
X5060D02*
X7650D01*
X16880Y44960D02*
X19860D01*
X13860D02*
X16450D01*
X10890D02*
X13520D01*
X7970D02*
X10560D01*
X5070D02*
X7650D01*
X16880Y44970D02*
X19850D01*
X13870D02*
X16450D01*
X10880D02*
X13520D01*
X7980D02*
X10560D01*
X5070D02*
X7660D01*
X16880Y44980D02*
X19850D01*
X13870D02*
X16450D01*
X10880D02*
X13520D01*
X7980D02*
X10560D01*
X5080D02*
X7660D01*
X16890Y44990D02*
X19840D01*
X13880D02*
X16450D01*
X10880D02*
X13520D01*
X7990D02*
X10560D01*
X5080D02*
X7660D01*
X16890Y45000D02*
X19840D01*
X13880D02*
X16450D01*
X10880D02*
X13520D01*
X7990D02*
X10560D01*
X5090D02*
X7660D01*
X16900Y45010D02*
X19830D01*
X13890D02*
X16450D01*
X10880D02*
X13520D01*
X8000D02*
X10560D01*
X5090D02*
X7660D01*
X16910Y45020D02*
X19830D01*
X13890D02*
X16450D01*
X10880D02*
X13520D01*
X8010D02*
X10560D01*
X5100D02*
X7660D01*
X16910Y45030D02*
X19820D01*
X13900D02*
X16450D01*
X10880D02*
X13520D01*
X8010D02*
X10560D01*
X5110D02*
X7660D01*
X16920Y45040D02*
X19810D01*
X13910D02*
X16450D01*
X10880D02*
X13520D01*
X8020D02*
X10560D01*
X5110D02*
X7660D01*
X16930Y45050D02*
X19810D01*
X13910D02*
X16450D01*
X10880D02*
X13520D01*
X8030D02*
X10560D01*
X5120D02*
X7660D01*
X16930Y45060D02*
X19800D01*
X13920D02*
X16450D01*
X10880D02*
X13520D01*
X8030D02*
X10560D01*
X5130D02*
X7660D01*
X16940Y45070D02*
X19790D01*
X13930D02*
X16450D01*
X10880D02*
X13520D01*
X8040D02*
X10560D01*
X5130D02*
X7660D01*
X16950Y45080D02*
X19780D01*
X13930D02*
X16450D01*
X10880D02*
X13520D01*
X8050D02*
X10560D01*
X5140D02*
X7660D01*
X16960Y45090D02*
X19770D01*
X13940D02*
X16450D01*
X10880D02*
X13520D01*
X8060D02*
X10560D01*
X5150D02*
X7660D01*
X16970Y45100D02*
X19770D01*
X13950D02*
X16450D01*
X10880D02*
X13520D01*
X8070D02*
X10560D01*
X5160D02*
X7660D01*
X16980Y45110D02*
X19760D01*
X13960D02*
X16450D01*
X10880D02*
X13520D01*
X8070D02*
X10560D01*
X5170D02*
X7660D01*
X16990Y45120D02*
X19750D01*
X13970D02*
X16450D01*
X10880D02*
X13520D01*
X8080D02*
X10560D01*
X5180D02*
X7660D01*
X17000Y45130D02*
X19740D01*
X13980D02*
X16450D01*
X10880D02*
X13520D01*
X8090D02*
X10560D01*
X5190D02*
X7660D01*
X17010Y45140D02*
X19720D01*
X13990D02*
X16450D01*
X10880D02*
X13520D01*
X8110D02*
X10560D01*
X5200D02*
X7660D01*
X17020Y45150D02*
X19710D01*
X14000D02*
X16450D01*
X10890D02*
X13520D01*
X8120D02*
X10560D01*
X5210D02*
X7650D01*
X17030Y45160D02*
X19700D01*
X14020D02*
X16450D01*
X10890D02*
X13520D01*
X8130D02*
X10560D01*
X5220D02*
X7650D01*
X17040Y45170D02*
X19690D01*
X14030D02*
X16450D01*
X10890D02*
X13510D01*
X8140D02*
X10560D01*
X5240D02*
X7650D01*
X17060Y45180D02*
X19670D01*
X14040D02*
X16440D01*
X10890D02*
X13510D01*
X8160D02*
X10560D01*
X5250D02*
X7650D01*
X17070Y45190D02*
X19660D01*
X14060D02*
X16440D01*
X10890D02*
X13510D01*
X8170D02*
X10550D01*
X5270D02*
X7650D01*
X17090Y45200D02*
X19640D01*
X14080D02*
X16440D01*
X10900D02*
X13500D01*
X8190D02*
X10550D01*
X5280D02*
X7640D01*
X17110Y45210D02*
X19620D01*
X14090D02*
X16430D01*
X10900D02*
X13500D01*
X8210D02*
X10540D01*
X5300D02*
X7640D01*
X17130Y45220D02*
X19600D01*
X14110D02*
X16430D01*
X10910D02*
X13490D01*
X8230D02*
X10540D01*
X5320D02*
X7630D01*
X17150Y45230D02*
X19580D01*
X14140D02*
X16420D01*
X10920D02*
X13480D01*
X8250D02*
X10530D01*
X5340D02*
X7620D01*
X17180Y45240D02*
X19550D01*
X14160D02*
X16410D01*
X10930D02*
X13470D01*
X8280D02*
X10520D01*
X5370D02*
X7610D01*
X17210Y45250D02*
X19520D01*
X14190D02*
X16390D01*
X10940D02*
X13460D01*
X8310D02*
X10510D01*
X5400D02*
X7600D01*
X17250Y45260D02*
X19480D01*
X14230D02*
X16380D01*
X10960D02*
X13440D01*
X8350D02*
X10490D01*
X5440D02*
X7580D01*
X17340Y45270D02*
X19390D01*
X14320D02*
X16330D01*
X11000D02*
X13400D01*
X8430D02*
X10450D01*
X5520D02*
X7540D01*
M02*
