G04 Layer_Physical_Order=1*
G04 Layer_Color=255*
%FSLAX24Y24*%
%MOIN*%
G70*
G01*
G75*
%ADD10C,0.0100*%
%ADD11C,0.0200*%
%ADD12C,0.0300*%
%ADD13R,0.1400X0.1400*%
%ADD14C,0.1400*%
%ADD15R,0.0394X0.0394*%
%ADD16C,0.0394*%
%ADD17C,0.0787*%
%ADD18R,0.0394X0.0394*%
%ADD19C,0.0600*%
%ADD20C,0.0750*%
%ADD21R,0.0750X0.0750*%
%ADD22R,0.0600X0.0600*%
%ADD23R,0.0472X0.0472*%
%ADD24C,0.0472*%
%ADD25C,0.1500*%
%ADD26R,0.0630X0.0630*%
%ADD27C,0.0630*%
%ADD28C,0.0200*%
G36*
X24852Y148D02*
X148D01*
Y34640D01*
X5312Y34640D01*
X5327Y34606D01*
X5422Y34451D01*
X5540Y34313D01*
X5678Y34195D01*
X5833Y34100D01*
X6000Y34030D01*
X6177Y33988D01*
X6358Y33973D01*
X6539Y33988D01*
X6716Y34030D01*
X6884Y34100D01*
X7039Y34195D01*
X7177Y34313D01*
X7295Y34451D01*
X7390Y34606D01*
X7459Y34774D01*
X7502Y34950D01*
X7516Y35131D01*
X7502Y35312D01*
X7459Y35489D01*
X7390Y35657D01*
X7295Y35812D01*
X7177Y35950D01*
X7039Y36068D01*
X6926Y36137D01*
X6918Y36201D01*
X10101Y39384D01*
X10148Y39365D01*
X10148Y39360D01*
X10148Y39268D01*
X10148Y37200D01*
Y39310D01*
X10148Y39318D01*
X10148Y39419D01*
Y43300D01*
X10148Y45650D01*
X8978Y46820D01*
X7480D01*
X7459Y46906D01*
X7390Y47074D01*
X7295Y47229D01*
X7177Y47367D01*
X7039Y47485D01*
X6884Y47580D01*
X6716Y47650D01*
X6539Y47692D01*
X6358Y47706D01*
X6177Y47692D01*
X6000Y47650D01*
X5833Y47580D01*
X5678Y47485D01*
X5540Y47367D01*
X5422Y47229D01*
X5327Y47074D01*
X5257Y46906D01*
X5236Y46820D01*
X148D01*
Y51102D01*
X24852D01*
Y148D01*
D02*
G37*
G36*
X9968Y45500D02*
X9968Y39560D01*
X6655Y36247D01*
X6539Y36275D01*
X6358Y36289D01*
X6177Y36275D01*
X6000Y36232D01*
X5833Y36163D01*
X5678Y36068D01*
X5540Y35950D01*
X5422Y35812D01*
X5327Y35657D01*
X5257Y35489D01*
X5215Y35312D01*
X5200Y35131D01*
X5213Y34970D01*
X5178Y34920D01*
X148Y34920D01*
Y46630D01*
X5170Y46630D01*
X5204Y46593D01*
X5200Y46549D01*
X5215Y46368D01*
X5257Y46191D01*
X5327Y46023D01*
X5422Y45868D01*
X5540Y45730D01*
X5678Y45612D01*
X5833Y45517D01*
X6000Y45447D01*
X6177Y45405D01*
X6358Y45391D01*
X6539Y45405D01*
X6716Y45447D01*
X6884Y45517D01*
X7039Y45612D01*
X7177Y45730D01*
X7295Y45868D01*
X7390Y46023D01*
X7459Y46191D01*
X7502Y46368D01*
X7516Y46549D01*
X7513Y46593D01*
X7546Y46630D01*
X8838Y46630D01*
X9968Y45500D01*
D02*
G37*
%LPC*%
G36*
X6228Y10083D02*
X6119Y10068D01*
X6017Y10026D01*
X5929Y9958D01*
X5862Y9871D01*
X5819Y9769D01*
X5805Y9659D01*
X5819Y9549D01*
X5862Y9447D01*
X5929Y9359D01*
X6017Y9292D01*
X6119Y9250D01*
X6228Y9235D01*
X6338Y9250D01*
X6440Y9292D01*
X6528Y9359D01*
X6595Y9447D01*
X6638Y9549D01*
X6652Y9659D01*
X6638Y9769D01*
X6595Y9871D01*
X6528Y9958D01*
X6440Y10026D01*
X6338Y10068D01*
X6228Y10083D01*
D02*
G37*
G36*
X3220Y16718D02*
X1580D01*
Y15078D01*
X1940D01*
X1952Y15029D01*
X1942Y15024D01*
X1817Y14921D01*
X1715Y14796D01*
X1639Y14654D01*
X1592Y14499D01*
X1576Y14339D01*
X1592Y14178D01*
X1639Y14023D01*
X1715Y13881D01*
X1817Y13756D01*
X1942Y13653D01*
X2068Y13586D01*
X2069Y13582D01*
Y13536D01*
X2068Y13532D01*
X1942Y13465D01*
X1817Y13362D01*
X1715Y13237D01*
X1639Y13095D01*
X1592Y12940D01*
X1576Y12780D01*
X1592Y12619D01*
X1639Y12464D01*
X1715Y12322D01*
X1817Y12197D01*
X1942Y12094D01*
X2068Y12027D01*
X2069Y12023D01*
Y11977D01*
X2068Y11973D01*
X1942Y11906D01*
X1817Y11803D01*
X1715Y11678D01*
X1639Y11536D01*
X1592Y11381D01*
X1576Y11220D01*
X1592Y11060D01*
X1639Y10905D01*
X1715Y10763D01*
X1817Y10638D01*
X1942Y10535D01*
X2085Y10459D01*
X2239Y10412D01*
X2400Y10396D01*
X2561Y10412D01*
X2715Y10459D01*
X2858Y10535D01*
X2983Y10638D01*
X3085Y10763D01*
X3161Y10905D01*
X3208Y11060D01*
X3224Y11220D01*
X3208Y11381D01*
X3161Y11536D01*
X3085Y11678D01*
X2983Y11803D01*
X2858Y11906D01*
X2732Y11973D01*
X2731Y11977D01*
Y12023D01*
X2732Y12027D01*
X2858Y12094D01*
X2983Y12197D01*
X3085Y12322D01*
X3161Y12464D01*
X3208Y12619D01*
X3224Y12780D01*
X3208Y12940D01*
X3161Y13095D01*
X3085Y13237D01*
X2983Y13362D01*
X2858Y13465D01*
X2732Y13532D01*
X2731Y13536D01*
Y13582D01*
X2732Y13586D01*
X2858Y13653D01*
X2983Y13756D01*
X3085Y13881D01*
X3161Y14023D01*
X3208Y14178D01*
X3224Y14339D01*
X3208Y14499D01*
X3161Y14654D01*
X3085Y14796D01*
X2983Y14921D01*
X2858Y15024D01*
X2848Y15029D01*
X2860Y15078D01*
X3220D01*
Y16718D01*
D02*
G37*
G36*
X23663Y10277D02*
X22793D01*
Y9408D01*
X23663D01*
Y10277D01*
D02*
G37*
G36*
X14316Y9900D02*
X14230Y9883D01*
X14179Y9849D01*
X13702D01*
X13652Y9883D01*
X13566Y9900D01*
X13480Y9883D01*
X13407Y9834D01*
X13359Y9762D01*
X13341Y9676D01*
X13359Y9590D01*
X13407Y9517D01*
X13480Y9469D01*
X13566Y9451D01*
X13652Y9469D01*
X13702Y9502D01*
X14179D01*
X14230Y9469D01*
X14316Y9451D01*
X14402Y9469D01*
X14474Y9517D01*
X14523Y9590D01*
X14540Y9676D01*
X14523Y9762D01*
X14474Y9834D01*
X14402Y9883D01*
X14316Y9900D01*
D02*
G37*
G36*
X17000Y10044D02*
X16914Y10027D01*
X16863Y9993D01*
X16577D01*
X16526Y10027D01*
X16440Y10044D01*
X16354Y10027D01*
X16281Y9979D01*
X16233Y9906D01*
X16216Y9820D01*
X16233Y9734D01*
X16281Y9661D01*
X16354Y9613D01*
X16440Y9596D01*
X16526Y9613D01*
X16577Y9647D01*
X16863D01*
X16914Y9613D01*
X17000Y9596D01*
X17086Y9613D01*
X17159Y9661D01*
X17207Y9734D01*
X17224Y9820D01*
X17207Y9906D01*
X17159Y9979D01*
X17086Y10027D01*
X17000Y10044D01*
D02*
G37*
G36*
X9950Y9403D02*
Y8980D01*
X10373D01*
X10363Y9054D01*
X10315Y9170D01*
X10239Y9269D01*
X10140Y9345D01*
X10024Y9393D01*
X9950Y9403D01*
D02*
G37*
G36*
X7900Y9429D02*
X7771Y9412D01*
X7650Y9362D01*
X7547Y9283D01*
X7468Y9180D01*
X7418Y9059D01*
X7401Y8930D01*
X7418Y8801D01*
X7468Y8680D01*
X7547Y8577D01*
X7650Y8498D01*
X7771Y8448D01*
X7900Y8431D01*
X8029Y8448D01*
X8150Y8498D01*
X8253Y8577D01*
X8332Y8680D01*
X8382Y8801D01*
X8399Y8930D01*
X8382Y9059D01*
X8332Y9180D01*
X8253Y9283D01*
X8150Y9362D01*
X8029Y9412D01*
X7900Y9429D01*
D02*
G37*
G36*
X23228Y9297D02*
X23115Y9282D01*
X23009Y9238D01*
X22918Y9168D01*
X22848Y9078D01*
X22805Y8972D01*
X22790Y8858D01*
X22805Y8745D01*
X22848Y8639D01*
X22918Y8548D01*
X23009Y8478D01*
X23115Y8435D01*
X23228Y8420D01*
X23342Y8435D01*
X23448Y8478D01*
X23539Y8548D01*
X23608Y8639D01*
X23652Y8745D01*
X23667Y8858D01*
X23652Y8972D01*
X23608Y9078D01*
X23539Y9168D01*
X23448Y9238D01*
X23342Y9282D01*
X23228Y9297D01*
D02*
G37*
G36*
X3200Y8887D02*
X2450D01*
Y8137D01*
X3200D01*
Y8887D01*
D02*
G37*
G36*
X9850Y9403D02*
X9776Y9393D01*
X9660Y9345D01*
X9561Y9269D01*
X9485Y9170D01*
X9437Y9054D01*
X9427Y8980D01*
X9850D01*
Y9403D01*
D02*
G37*
G36*
X10373Y8880D02*
X9950D01*
Y8457D01*
X10024Y8467D01*
X10140Y8515D01*
X10239Y8591D01*
X10315Y8690D01*
X10363Y8806D01*
X10373Y8880D01*
D02*
G37*
G36*
X9850D02*
X9427D01*
X9437Y8806D01*
X9485Y8690D01*
X9561Y8591D01*
X9660Y8515D01*
X9776Y8467D01*
X9850Y8457D01*
Y8880D01*
D02*
G37*
G36*
X9300Y11174D02*
X9214Y11157D01*
X9163Y11123D01*
X8857D01*
X8806Y11157D01*
X8720Y11174D01*
X8634Y11157D01*
X8561Y11109D01*
X8513Y11036D01*
X8496Y10950D01*
X8513Y10864D01*
X8561Y10791D01*
X8634Y10743D01*
X8720Y10726D01*
X8806Y10743D01*
X8857Y10777D01*
X9163D01*
X9214Y10743D01*
X9300Y10726D01*
X9386Y10743D01*
X9459Y10791D01*
X9507Y10864D01*
X9524Y10950D01*
X9507Y11036D01*
X9459Y11109D01*
X9386Y11157D01*
X9300Y11174D01*
D02*
G37*
G36*
X17150Y18504D02*
X17064Y18487D01*
X16991Y18439D01*
X16943Y18366D01*
X16926Y18280D01*
Y18010D01*
X16943Y17924D01*
X16991Y17851D01*
X17241Y17601D01*
X17314Y17553D01*
X17396Y17536D01*
X17733Y17200D01*
X17676Y17144D01*
X17628Y17071D01*
X17611Y16985D01*
X17628Y16899D01*
X17676Y16826D01*
X17749Y16778D01*
X17835Y16761D01*
X17921Y16778D01*
X17994Y16826D01*
X18209Y17041D01*
X18257Y17114D01*
X18274Y17200D01*
X18257Y17286D01*
X18209Y17359D01*
X17649Y17919D01*
X17576Y17967D01*
X17494Y17984D01*
X17374Y18103D01*
Y18280D01*
X17357Y18366D01*
X17309Y18439D01*
X17236Y18487D01*
X17150Y18504D01*
D02*
G37*
G36*
X20147Y18138D02*
X19966Y18124D01*
X19790Y18081D01*
X19622Y18012D01*
X19467Y17917D01*
X19329Y17799D01*
X19211Y17661D01*
X19116Y17506D01*
X19046Y17338D01*
X19004Y17161D01*
X18990Y16980D01*
X19004Y16799D01*
X19046Y16622D01*
X19116Y16454D01*
X19211Y16299D01*
X19329Y16161D01*
X19467Y16043D01*
X19622Y15948D01*
X19790Y15879D01*
X19966Y15836D01*
X20147Y15822D01*
X20328Y15836D01*
X20505Y15879D01*
X20673Y15948D01*
X20828Y16043D01*
X20966Y16161D01*
X21084Y16299D01*
X21179Y16454D01*
X21248Y16622D01*
X21291Y16799D01*
X21305Y16980D01*
X21291Y17161D01*
X21248Y17338D01*
X21179Y17506D01*
X21084Y17661D01*
X20966Y17799D01*
X20828Y17917D01*
X20673Y18012D01*
X20505Y18081D01*
X20328Y18124D01*
X20147Y18138D01*
D02*
G37*
G36*
X8730D02*
X8549Y18124D01*
X8372Y18081D01*
X8204Y18012D01*
X8049Y17917D01*
X7911Y17799D01*
X7793Y17661D01*
X7698Y17506D01*
X7629Y17338D01*
X7586Y17161D01*
X7572Y16980D01*
X7586Y16799D01*
X7629Y16622D01*
X7698Y16454D01*
X7793Y16299D01*
X7911Y16161D01*
X8049Y16043D01*
X8204Y15948D01*
X8372Y15879D01*
X8549Y15836D01*
X8730Y15822D01*
X8911Y15836D01*
X9088Y15879D01*
X9256Y15948D01*
X9411Y16043D01*
X9549Y16161D01*
X9667Y16299D01*
X9762Y16454D01*
X9831Y16622D01*
X9874Y16799D01*
X9888Y16980D01*
X9874Y17161D01*
X9831Y17338D01*
X9762Y17506D01*
X9667Y17661D01*
X9549Y17799D01*
X9411Y17917D01*
X9256Y18012D01*
X9088Y18081D01*
X8911Y18124D01*
X8730Y18138D01*
D02*
G37*
G36*
X3199Y23643D02*
X2400D01*
X1601D01*
X1612Y23536D01*
X1657Y23385D01*
X1732Y23246D01*
X1832Y23125D01*
X1953Y23025D01*
X2092Y22950D01*
X2097Y22949D01*
Y22899D01*
X2085Y22895D01*
X1942Y22819D01*
X1817Y22717D01*
X1715Y22592D01*
X1639Y22449D01*
X1592Y22295D01*
X1576Y22134D01*
X1592Y21973D01*
X1639Y21819D01*
X1715Y21676D01*
X1817Y21551D01*
X1942Y21449D01*
X2068Y21382D01*
X2069Y21378D01*
Y21331D01*
X2068Y21327D01*
X1942Y21260D01*
X1817Y21158D01*
X1715Y21033D01*
X1639Y20890D01*
X1592Y20736D01*
X1576Y20575D01*
X1592Y20414D01*
X1639Y20260D01*
X1715Y20117D01*
X1817Y19992D01*
X1942Y19890D01*
X2068Y19823D01*
X2069Y19819D01*
Y19772D01*
X2068Y19768D01*
X1942Y19701D01*
X1817Y19599D01*
X1715Y19474D01*
X1639Y19331D01*
X1592Y19177D01*
X1576Y19016D01*
X1592Y18855D01*
X1639Y18701D01*
X1715Y18558D01*
X1817Y18433D01*
X1942Y18331D01*
X2085Y18255D01*
X2239Y18208D01*
X2400Y18192D01*
X2561Y18208D01*
X2715Y18255D01*
X2858Y18331D01*
X2983Y18433D01*
X3085Y18558D01*
X3161Y18701D01*
X3190Y18796D01*
X4530D01*
X4616Y18813D01*
X4689Y18861D01*
X4737Y18934D01*
X4754Y19020D01*
X4737Y19106D01*
X4689Y19179D01*
X4616Y19227D01*
X4530Y19244D01*
X3188D01*
X3161Y19331D01*
X3085Y19474D01*
X2983Y19599D01*
X2858Y19701D01*
X2732Y19768D01*
X2731Y19772D01*
Y19819D01*
X2732Y19823D01*
X2858Y19890D01*
X2983Y19992D01*
X3085Y20117D01*
X3161Y20260D01*
X3208Y20414D01*
X3224Y20575D01*
X3208Y20736D01*
X3161Y20890D01*
X3085Y21033D01*
X2983Y21158D01*
X2858Y21260D01*
X2732Y21327D01*
X2731Y21331D01*
Y21378D01*
X2732Y21382D01*
X2858Y21449D01*
X2983Y21551D01*
X3085Y21676D01*
X3161Y21819D01*
X3192Y21921D01*
X4005D01*
X4091Y21938D01*
X4164Y21986D01*
X4212Y22059D01*
X4229Y22145D01*
X4212Y22231D01*
X4164Y22304D01*
X4091Y22352D01*
X4005Y22369D01*
X3186D01*
X3161Y22449D01*
X3085Y22592D01*
X2983Y22717D01*
X2858Y22819D01*
X2715Y22895D01*
X2703Y22899D01*
Y22949D01*
X2708Y22950D01*
X2847Y23025D01*
X2968Y23125D01*
X3068Y23246D01*
X3143Y23385D01*
X3188Y23536D01*
X3199Y23643D01*
D02*
G37*
G36*
X10250Y18624D02*
X10164Y18607D01*
X10091Y18559D01*
X10043Y18486D01*
X10031Y18426D01*
X10007Y18403D01*
X9970Y18346D01*
X9957Y18280D01*
Y17920D01*
X9970Y17854D01*
X10007Y17797D01*
X10647Y17157D01*
X10704Y17120D01*
X10770Y17107D01*
X12613D01*
X12664Y17073D01*
X12750Y17056D01*
X12836Y17073D01*
X12909Y17121D01*
X12957Y17194D01*
X12974Y17280D01*
X12957Y17366D01*
X12909Y17439D01*
X12836Y17487D01*
X12774Y17499D01*
X12774Y17500D01*
X12757Y17586D01*
X12709Y17659D01*
X12636Y17707D01*
X12550Y17724D01*
X12464Y17707D01*
X12413Y17673D01*
X10862D01*
X10539Y17997D01*
X10557Y18024D01*
X10574Y18110D01*
X10557Y18196D01*
X10509Y18269D01*
X10452Y18306D01*
X10457Y18314D01*
X10474Y18400D01*
X10457Y18486D01*
X10409Y18559D01*
X10336Y18607D01*
X10250Y18624D01*
D02*
G37*
G36*
X13070Y17024D02*
X12984Y17007D01*
X12933Y16973D01*
X10977D01*
X10926Y17007D01*
X10840Y17024D01*
X10754Y17007D01*
X10681Y16959D01*
X10633Y16886D01*
X10616Y16800D01*
X10633Y16714D01*
X10681Y16641D01*
X10754Y16593D01*
X10797Y16584D01*
X10796Y16580D01*
X10813Y16494D01*
X10861Y16421D01*
X10934Y16373D01*
X10945Y16371D01*
X10951Y16318D01*
X10891Y16279D01*
X10843Y16206D01*
X10826Y16120D01*
X10843Y16034D01*
X10891Y15961D01*
X10964Y15913D01*
X11050Y15896D01*
X11136Y15913D01*
X11137Y15914D01*
X11154Y15909D01*
X11188Y15888D01*
X11203Y15814D01*
X11236Y15765D01*
X11203Y15716D01*
X11186Y15630D01*
X11203Y15544D01*
X11231Y15502D01*
X11193Y15446D01*
X11176Y15360D01*
X11193Y15274D01*
X11241Y15203D01*
X11223Y15176D01*
X11206Y15090D01*
X11223Y15004D01*
X11271Y14931D01*
X11344Y14883D01*
X11430Y14866D01*
X11516Y14883D01*
X11567Y14917D01*
X11590D01*
X11657Y14930D01*
X11713Y14967D01*
X11962Y15217D01*
X13930D01*
X13996Y15230D01*
X14053Y15267D01*
X14402Y15617D01*
X15093D01*
X15144Y15583D01*
X15230Y15566D01*
X15316Y15583D01*
X15389Y15631D01*
X15437Y15704D01*
X15454Y15790D01*
X15437Y15876D01*
X15389Y15949D01*
X15316Y15997D01*
X15230Y16014D01*
X15144Y15997D01*
X15093Y15963D01*
X14555D01*
X14535Y16010D01*
X14913Y16387D01*
X14950Y16443D01*
X14963Y16509D01*
Y16563D01*
X14997Y16614D01*
X15014Y16700D01*
X14997Y16786D01*
X14949Y16859D01*
X14876Y16907D01*
X14790Y16924D01*
X14704Y16907D01*
X14641Y16865D01*
X14639Y16869D01*
X14566Y16917D01*
X14480Y16934D01*
X14394Y16917D01*
X14345Y16884D01*
X14296Y16917D01*
X14210Y16934D01*
X14124Y16917D01*
X14051Y16869D01*
X14003Y16796D01*
X13986Y16710D01*
X14003Y16624D01*
X14037Y16573D01*
Y16482D01*
X13628Y16073D01*
X13530D01*
X13499Y16112D01*
X13504Y16140D01*
X13487Y16226D01*
X13439Y16299D01*
X13377Y16340D01*
X13370Y16380D01*
X13372Y16397D01*
X13409Y16421D01*
X13457Y16494D01*
X13474Y16580D01*
X13457Y16666D01*
X13409Y16739D01*
X13336Y16787D01*
X13293Y16796D01*
X13294Y16800D01*
X13277Y16886D01*
X13229Y16959D01*
X13156Y17007D01*
X13070Y17024D01*
D02*
G37*
G36*
X21780Y16374D02*
X21694Y16357D01*
X21621Y16309D01*
X21573Y16236D01*
X21556Y16150D01*
X21573Y16064D01*
X21621Y15991D01*
X21694Y15943D01*
X21767Y15928D01*
X22117Y15577D01*
X22174Y15540D01*
X22202Y15534D01*
X22264Y15493D01*
X22350Y15476D01*
X22436Y15493D01*
X22509Y15541D01*
X22557Y15614D01*
X22574Y15700D01*
X22557Y15786D01*
X22509Y15859D01*
X22436Y15907D01*
X22350Y15924D01*
X22276Y15910D01*
X21997Y16188D01*
X21987Y16236D01*
X21939Y16309D01*
X21866Y16357D01*
X21780Y16374D01*
D02*
G37*
G36*
X11920Y13364D02*
X11834Y13347D01*
X11783Y13313D01*
X11517D01*
X11466Y13347D01*
X11380Y13364D01*
X11294Y13347D01*
X11221Y13299D01*
X11173Y13226D01*
X11156Y13140D01*
X11173Y13054D01*
X11221Y12981D01*
X11294Y12933D01*
X11380Y12916D01*
X11466Y12933D01*
X11517Y12967D01*
X11783D01*
X11834Y12933D01*
X11920Y12916D01*
X12006Y12933D01*
X12079Y12981D01*
X12127Y13054D01*
X12144Y13140D01*
X12127Y13226D01*
X12079Y13299D01*
X12006Y13347D01*
X11920Y13364D01*
D02*
G37*
G36*
X20970Y13214D02*
X20884Y13197D01*
X20833Y13163D01*
X19617D01*
X19566Y13197D01*
X19480Y13214D01*
X19394Y13197D01*
X19321Y13149D01*
X19273Y13076D01*
X19256Y12990D01*
X19273Y12904D01*
X19321Y12831D01*
X19394Y12783D01*
X19480Y12766D01*
X19566Y12783D01*
X19617Y12817D01*
X20833D01*
X20884Y12783D01*
X20970Y12766D01*
X21056Y12783D01*
X21129Y12831D01*
X21177Y12904D01*
X21194Y12990D01*
X21177Y13076D01*
X21129Y13149D01*
X21056Y13197D01*
X20970Y13214D01*
D02*
G37*
G36*
X17260Y11864D02*
X17174Y11847D01*
X17123Y11813D01*
X16347D01*
X16296Y11847D01*
X16210Y11864D01*
X16124Y11847D01*
X16051Y11799D01*
X16003Y11726D01*
X15986Y11640D01*
X16003Y11554D01*
X16051Y11481D01*
X16124Y11433D01*
X16210Y11416D01*
X16296Y11433D01*
X16347Y11467D01*
X17123D01*
X17174Y11433D01*
X17260Y11416D01*
X17346Y11433D01*
X17419Y11481D01*
X17467Y11554D01*
X17484Y11640D01*
X17467Y11726D01*
X17419Y11799D01*
X17346Y11847D01*
X17260Y11864D01*
D02*
G37*
G36*
X20660Y15644D02*
X20574Y15627D01*
X20501Y15579D01*
X20453Y15506D01*
X20445Y15465D01*
X20400Y15474D01*
X20314Y15457D01*
X20241Y15409D01*
X20193Y15336D01*
X20176Y15250D01*
X20193Y15164D01*
X20241Y15091D01*
X20314Y15043D01*
X20400Y15026D01*
X20427Y15031D01*
X20450Y15027D01*
X20558D01*
X21067Y14517D01*
X21124Y14480D01*
X21190Y14467D01*
X21190Y14467D01*
X21243D01*
X21294Y14433D01*
X21380Y14416D01*
X21466Y14433D01*
X21539Y14481D01*
X21587Y14554D01*
X21604Y14640D01*
X21587Y14726D01*
X21540Y14796D01*
X21547Y14801D01*
X21596Y14874D01*
X21613Y14960D01*
X21596Y15046D01*
X21547Y15119D01*
X21475Y15167D01*
X21389Y15184D01*
X21303Y15167D01*
X21252Y15133D01*
X21192D01*
X20879Y15446D01*
X20867Y15506D01*
X20819Y15579D01*
X20746Y15627D01*
X20660Y15644D01*
D02*
G37*
G36*
X13610Y13564D02*
X13524Y13547D01*
X13473Y13513D01*
X13147D01*
X13096Y13547D01*
X13010Y13564D01*
X12924Y13547D01*
X12851Y13499D01*
X12803Y13426D01*
X12786Y13340D01*
X12803Y13254D01*
X12851Y13181D01*
X12924Y13133D01*
X13010Y13116D01*
X13096Y13133D01*
X13147Y13167D01*
X13473D01*
X13524Y13133D01*
X13610Y13116D01*
X13696Y13133D01*
X13769Y13181D01*
X13817Y13254D01*
X13834Y13340D01*
X13817Y13426D01*
X13769Y13499D01*
X13696Y13547D01*
X13610Y13564D01*
D02*
G37*
G36*
X15980Y13424D02*
X15894Y13407D01*
X15843Y13373D01*
X14877D01*
X14856Y13387D01*
X14770Y13404D01*
X14684Y13387D01*
X14611Y13339D01*
X14563Y13266D01*
X14546Y13180D01*
X14563Y13094D01*
X14611Y13021D01*
X14684Y12973D01*
X14770Y12956D01*
X14856Y12973D01*
X14929Y13021D01*
X14932Y13027D01*
X15843D01*
X15894Y12993D01*
X15980Y12976D01*
X16066Y12993D01*
X16139Y13041D01*
X16187Y13114D01*
X16204Y13200D01*
X16187Y13286D01*
X16139Y13359D01*
X16066Y13407D01*
X15980Y13424D01*
D02*
G37*
G36*
X2350Y8887D02*
X1600D01*
Y8137D01*
X2350D01*
Y8887D01*
D02*
G37*
G36*
X5611Y3355D02*
Y3008D01*
X5958D01*
X5951Y3063D01*
X5910Y3160D01*
X5846Y3244D01*
X5763Y3308D01*
X5666Y3348D01*
X5611Y3355D01*
D02*
G37*
G36*
X5511D02*
X5457Y3348D01*
X5359Y3308D01*
X5276Y3244D01*
X5212Y3160D01*
X5171Y3063D01*
X5164Y3008D01*
X5511D01*
Y3355D01*
D02*
G37*
G36*
X18041Y3742D02*
X17931Y3728D01*
X17829Y3685D01*
X17742Y3618D01*
X17674Y3530D01*
X17632Y3428D01*
X17617Y3318D01*
X17632Y3209D01*
X17674Y3107D01*
X17742Y3019D01*
X17829Y2952D01*
X17931Y2909D01*
X18041Y2895D01*
X18151Y2909D01*
X18253Y2952D01*
X18341Y3019D01*
X18408Y3107D01*
X18450Y3209D01*
X18465Y3318D01*
X18450Y3428D01*
X18408Y3530D01*
X18341Y3618D01*
X18253Y3685D01*
X18151Y3728D01*
X18041Y3742D01*
D02*
G37*
G36*
X7620Y5510D02*
X7273D01*
X7280Y5456D01*
X7321Y5358D01*
X7385Y5275D01*
X7468Y5211D01*
X7566Y5170D01*
X7620Y5163D01*
Y5510D01*
D02*
G37*
G36*
X3200Y8037D02*
X2400D01*
X1600D01*
Y7287D01*
X1978D01*
X1990Y7238D01*
X1942Y7213D01*
X1817Y7110D01*
X1715Y6985D01*
X1639Y6843D01*
X1592Y6688D01*
X1576Y6528D01*
X1592Y6367D01*
X1639Y6212D01*
X1715Y6070D01*
X1817Y5945D01*
X1942Y5842D01*
X2068Y5775D01*
X2069Y5771D01*
Y5725D01*
X2068Y5721D01*
X1942Y5654D01*
X1817Y5551D01*
X1715Y5426D01*
X1639Y5284D01*
X1592Y5129D01*
X1576Y4969D01*
X1592Y4808D01*
X1639Y4653D01*
X1715Y4511D01*
X1817Y4386D01*
X1942Y4283D01*
X2085Y4207D01*
X2239Y4160D01*
X2400Y4145D01*
X2561Y4160D01*
X2715Y4207D01*
X2858Y4283D01*
X2983Y4386D01*
X3085Y4511D01*
X3161Y4653D01*
X3208Y4808D01*
X3224Y4969D01*
X3208Y5129D01*
X3161Y5284D01*
X3085Y5426D01*
X2983Y5551D01*
X2858Y5654D01*
X2732Y5721D01*
X2731Y5725D01*
Y5771D01*
X2732Y5775D01*
X2858Y5842D01*
X2983Y5945D01*
X3085Y6070D01*
X3161Y6212D01*
X3208Y6367D01*
X3224Y6528D01*
X3208Y6688D01*
X3161Y6843D01*
X3085Y6985D01*
X2983Y7110D01*
X2858Y7213D01*
X2810Y7238D01*
X2822Y7287D01*
X3200D01*
Y8037D01*
D02*
G37*
G36*
X7670Y4984D02*
X7560Y4969D01*
X7458Y4927D01*
X7370Y4860D01*
X7303Y4772D01*
X7261Y4670D01*
X7246Y4560D01*
X7261Y4450D01*
X7303Y4348D01*
X7370Y4260D01*
X7458Y4193D01*
X7560Y4151D01*
X7670Y4136D01*
X7780Y4151D01*
X7882Y4193D01*
X7970Y4260D01*
X8037Y4348D01*
X8079Y4450D01*
X8094Y4560D01*
X8079Y4670D01*
X8037Y4772D01*
X7970Y4860D01*
X7882Y4927D01*
X7780Y4969D01*
X7670Y4984D01*
D02*
G37*
G36*
X5958Y2908D02*
X5611D01*
Y2562D01*
X5666Y2569D01*
X5763Y2609D01*
X5846Y2673D01*
X5910Y2757D01*
X5951Y2854D01*
X5958Y2908D01*
D02*
G37*
G36*
X10945Y2975D02*
X10295D01*
X10248Y2965D01*
X10209Y2939D01*
X10182Y2899D01*
X10173Y2852D01*
Y2222D01*
X10182Y2176D01*
X10209Y2136D01*
X10248Y2109D01*
X10295Y2100D01*
X10945D01*
X10992Y2109D01*
X11031Y2136D01*
X11058Y2176D01*
X11067Y2222D01*
Y2852D01*
X11058Y2899D01*
X11031Y2939D01*
X10992Y2965D01*
X10945Y2975D01*
D02*
G37*
G36*
X23120Y3554D02*
X22902Y3539D01*
X22687Y3497D01*
X22480Y3426D01*
X22283Y3329D01*
X22101Y3208D01*
X21937Y3063D01*
X21792Y2899D01*
X21671Y2717D01*
X21574Y2520D01*
X21503Y2313D01*
X21461Y2098D01*
X21446Y1880D01*
X21461Y1662D01*
X21503Y1447D01*
X21574Y1240D01*
X21671Y1043D01*
X21792Y861D01*
X21937Y697D01*
X22101Y552D01*
X22283Y431D01*
X22480Y334D01*
X22687Y263D01*
X22902Y221D01*
X23120Y206D01*
X23338Y221D01*
X23553Y263D01*
X23760Y334D01*
X23957Y431D01*
X24139Y552D01*
X24303Y697D01*
X24448Y861D01*
X24569Y1043D01*
X24666Y1240D01*
X24737Y1447D01*
X24779Y1662D01*
X24794Y1880D01*
X24779Y2098D01*
X24737Y2313D01*
X24666Y2520D01*
X24569Y2717D01*
X24448Y2899D01*
X24303Y3063D01*
X24139Y3208D01*
X23957Y3329D01*
X23760Y3426D01*
X23553Y3497D01*
X23338Y3539D01*
X23120Y3554D01*
D02*
G37*
G36*
X1880D02*
X1662Y3539D01*
X1447Y3497D01*
X1240Y3426D01*
X1043Y3329D01*
X861Y3208D01*
X697Y3063D01*
X552Y2899D01*
X431Y2717D01*
X334Y2520D01*
X263Y2313D01*
X221Y2098D01*
X206Y1880D01*
X221Y1662D01*
X263Y1447D01*
X334Y1240D01*
X431Y1043D01*
X552Y861D01*
X697Y697D01*
X861Y552D01*
X1043Y431D01*
X1240Y334D01*
X1447Y263D01*
X1662Y221D01*
X1880Y206D01*
X2098Y221D01*
X2313Y263D01*
X2520Y334D01*
X2717Y431D01*
X2899Y552D01*
X3063Y697D01*
X3208Y861D01*
X3329Y1043D01*
X3426Y1240D01*
X3497Y1447D01*
X3539Y1662D01*
X3554Y1880D01*
X3539Y2098D01*
X3497Y2313D01*
X3426Y2520D01*
X3329Y2717D01*
X3208Y2899D01*
X3063Y3063D01*
X2899Y3208D01*
X2717Y3329D01*
X2520Y3426D01*
X2313Y3497D01*
X2098Y3539D01*
X1880Y3554D01*
D02*
G37*
G36*
X5511Y2908D02*
X5164D01*
X5171Y2854D01*
X5212Y2757D01*
X5276Y2673D01*
X5359Y2609D01*
X5457Y2569D01*
X5511Y2562D01*
Y2908D01*
D02*
G37*
G36*
X7671Y3382D02*
X7561Y3368D01*
X7459Y3325D01*
X7372Y3258D01*
X7304Y3170D01*
X7262Y3068D01*
X7247Y2958D01*
X7262Y2849D01*
X7304Y2747D01*
X7372Y2659D01*
X7459Y2592D01*
X7561Y2549D01*
X7671Y2535D01*
X7781Y2549D01*
X7883Y2592D01*
X7971Y2659D01*
X8038Y2747D01*
X8080Y2849D01*
X8095Y2958D01*
X8080Y3068D01*
X8038Y3170D01*
X7971Y3258D01*
X7883Y3325D01*
X7781Y3368D01*
X7671Y3382D01*
D02*
G37*
G36*
X14705Y2975D02*
X14055D01*
X14008Y2965D01*
X13969Y2939D01*
X13942Y2899D01*
X13933Y2852D01*
Y2222D01*
X13942Y2176D01*
X13969Y2136D01*
X14008Y2109D01*
X14055Y2100D01*
X14705D01*
X14752Y2109D01*
X14791Y2136D01*
X14818Y2176D01*
X14827Y2222D01*
Y2852D01*
X14818Y2899D01*
X14791Y2939D01*
X14752Y2965D01*
X14705Y2975D01*
D02*
G37*
G36*
X23178Y7302D02*
X23120Y7294D01*
X23019Y7252D01*
X22932Y7186D01*
X22866Y7099D01*
X22824Y6998D01*
X22816Y6940D01*
X23178D01*
Y7302D01*
D02*
G37*
G36*
Y6840D02*
X22816D01*
X22824Y6781D01*
X22866Y6680D01*
X22932Y6594D01*
X23019Y6527D01*
X23120Y6485D01*
X23178Y6478D01*
Y6840D01*
D02*
G37*
G36*
X23640D02*
X23278D01*
Y6478D01*
X23337Y6485D01*
X23438Y6527D01*
X23524Y6594D01*
X23591Y6680D01*
X23633Y6781D01*
X23640Y6840D01*
D02*
G37*
G36*
X21090Y8964D02*
X21004Y8947D01*
X20931Y8899D01*
X20883Y8826D01*
X20871Y8766D01*
X20674Y8569D01*
X20614Y8557D01*
X20541Y8509D01*
X20493Y8436D01*
X20476Y8350D01*
X20493Y8264D01*
X20541Y8191D01*
X20614Y8143D01*
X20700Y8126D01*
X20786Y8143D01*
X20859Y8191D01*
X20907Y8264D01*
X20919Y8324D01*
X21116Y8521D01*
X21176Y8533D01*
X21249Y8581D01*
X21297Y8654D01*
X21314Y8740D01*
X21297Y8826D01*
X21249Y8899D01*
X21176Y8947D01*
X21090Y8964D01*
D02*
G37*
G36*
X23228Y8313D02*
X23115Y8298D01*
X23009Y8254D01*
X22918Y8184D01*
X22848Y8093D01*
X22805Y7988D01*
X22790Y7874D01*
X22805Y7760D01*
X22848Y7655D01*
X22918Y7564D01*
X23009Y7494D01*
X23115Y7450D01*
X23228Y7435D01*
X23342Y7450D01*
X23448Y7494D01*
X23539Y7564D01*
X23608Y7655D01*
X23652Y7760D01*
X23667Y7874D01*
X23652Y7988D01*
X23608Y8093D01*
X23539Y8184D01*
X23448Y8254D01*
X23342Y8298D01*
X23228Y8313D01*
D02*
G37*
G36*
X23278Y7302D02*
Y6940D01*
X23640D01*
X23633Y6998D01*
X23591Y7099D01*
X23524Y7186D01*
X23438Y7252D01*
X23337Y7294D01*
X23278Y7302D01*
D02*
G37*
G36*
X23278Y6317D02*
Y5956D01*
X23640D01*
X23633Y6014D01*
X23591Y6115D01*
X23524Y6201D01*
X23438Y6268D01*
X23337Y6310D01*
X23278Y6317D01*
D02*
G37*
G36*
X23640Y5856D02*
X23278D01*
Y5494D01*
X23337Y5501D01*
X23438Y5543D01*
X23524Y5610D01*
X23591Y5696D01*
X23633Y5797D01*
X23640Y5856D01*
D02*
G37*
G36*
X23178D02*
X22816D01*
X22824Y5797D01*
X22866Y5696D01*
X22932Y5610D01*
X23019Y5543D01*
X23120Y5501D01*
X23178Y5494D01*
Y5856D01*
D02*
G37*
G36*
X8067Y5510D02*
X7720D01*
Y5163D01*
X7774Y5170D01*
X7872Y5211D01*
X7955Y5275D01*
X8019Y5358D01*
X8060Y5456D01*
X8067Y5510D01*
D02*
G37*
G36*
X23178Y6317D02*
X23120Y6310D01*
X23019Y6268D01*
X22932Y6201D01*
X22866Y6115D01*
X22824Y6014D01*
X22816Y5956D01*
X23178D01*
Y6317D01*
D02*
G37*
G36*
X7720Y5957D02*
Y5610D01*
X8067D01*
X8060Y5664D01*
X8019Y5762D01*
X7955Y5845D01*
X7872Y5909D01*
X7774Y5950D01*
X7720Y5957D01*
D02*
G37*
G36*
X7620Y5957D02*
X7566Y5950D01*
X7468Y5909D01*
X7385Y5845D01*
X7321Y5762D01*
X7280Y5664D01*
X7273Y5610D01*
X7620D01*
Y5957D01*
D02*
G37*
G36*
X7870Y21024D02*
X7784Y21007D01*
X7711Y20959D01*
X7663Y20886D01*
X7646Y20800D01*
Y20593D01*
X6971Y19919D01*
X6923Y19846D01*
X6906Y19760D01*
Y19210D01*
Y18900D01*
X6923Y18814D01*
X6971Y18741D01*
X7044Y18693D01*
X7130Y18676D01*
X7216Y18693D01*
X7289Y18741D01*
X7317Y18783D01*
X7367Y18768D01*
Y18667D01*
X7333Y18616D01*
X7316Y18530D01*
X7333Y18444D01*
X7381Y18371D01*
X7454Y18323D01*
X7540Y18306D01*
X7626Y18323D01*
X7699Y18371D01*
X7747Y18444D01*
X7764Y18530D01*
X7747Y18616D01*
X7713Y18667D01*
Y19279D01*
X7783Y19348D01*
X7820Y19404D01*
X7833Y19470D01*
X7833Y19470D01*
Y19733D01*
X7867Y19784D01*
X7884Y19870D01*
X7867Y19956D01*
X7819Y20029D01*
X7790Y20048D01*
X7785Y20098D01*
X8029Y20341D01*
X8077Y20414D01*
X8094Y20500D01*
Y20800D01*
X8077Y20886D01*
X8029Y20959D01*
X7956Y21007D01*
X7870Y21024D01*
D02*
G37*
G36*
X13030Y39960D02*
X12747D01*
X12752Y39922D01*
X12786Y39840D01*
X12840Y39770D01*
X12910Y39716D01*
X12992Y39682D01*
X13030Y39677D01*
Y39960D01*
D02*
G37*
G36*
X11436Y40366D02*
X10724D01*
Y39654D01*
X11436D01*
Y40366D01*
D02*
G37*
G36*
X12080Y40369D02*
X11987Y40357D01*
X11900Y40321D01*
X11826Y40264D01*
X11769Y40190D01*
X11733Y40103D01*
X11721Y40010D01*
X11733Y39917D01*
X11769Y39830D01*
X11826Y39756D01*
X11900Y39699D01*
X11987Y39663D01*
X12080Y39651D01*
X12173Y39663D01*
X12260Y39699D01*
X12334Y39756D01*
X12391Y39830D01*
X12427Y39917D01*
X12439Y40010D01*
X12427Y40103D01*
X12391Y40190D01*
X12334Y40264D01*
X12260Y40321D01*
X12173Y40357D01*
X12080Y40369D01*
D02*
G37*
G36*
X13130Y40343D02*
Y40060D01*
X13413D01*
X13408Y40098D01*
X13374Y40180D01*
X13320Y40250D01*
X13250Y40304D01*
X13168Y40338D01*
X13130Y40343D01*
D02*
G37*
G36*
X13030D02*
X12992Y40338D01*
X12910Y40304D01*
X12840Y40250D01*
X12786Y40180D01*
X12752Y40098D01*
X12747Y40060D01*
X13030D01*
Y40343D01*
D02*
G37*
G36*
X13413Y39960D02*
X13130D01*
Y39677D01*
X13168Y39682D01*
X13250Y39716D01*
X13320Y39770D01*
X13374Y39840D01*
X13408Y39922D01*
X13413Y39960D01*
D02*
G37*
G36*
X16000Y35455D02*
X15917Y35444D01*
X15840Y35412D01*
X15783Y35368D01*
X15750Y35364D01*
X15717Y35368D01*
X15660Y35412D01*
X15583Y35444D01*
X15500Y35455D01*
X15417Y35444D01*
X15340Y35412D01*
X15283Y35368D01*
X15250Y35364D01*
X15217Y35368D01*
X15160Y35412D01*
X15083Y35444D01*
X15000Y35455D01*
X14917Y35444D01*
X14840Y35412D01*
X14783Y35368D01*
X14750Y35364D01*
X14717Y35368D01*
X14660Y35412D01*
X14583Y35444D01*
X14500Y35455D01*
X14417Y35444D01*
X14340Y35412D01*
X14283Y35368D01*
X14250Y35364D01*
X14217Y35368D01*
X14160Y35412D01*
X14083Y35444D01*
X14000Y35455D01*
X13917Y35444D01*
X13840Y35412D01*
X13783Y35368D01*
X13750Y35364D01*
X13717Y35368D01*
X13660Y35412D01*
X13583Y35444D01*
X13500Y35455D01*
X13417Y35444D01*
X13340Y35412D01*
X13283Y35368D01*
X13250Y35364D01*
X13217Y35368D01*
X13160Y35412D01*
X13083Y35444D01*
X13000Y35455D01*
X12917Y35444D01*
X12840Y35412D01*
X12783Y35368D01*
X12750Y35364D01*
X12717Y35368D01*
X12660Y35412D01*
X12583Y35444D01*
X12500Y35455D01*
X12417Y35444D01*
X12340Y35412D01*
X12283Y35368D01*
X12250Y35364D01*
X12217Y35368D01*
X12160Y35412D01*
X12083Y35444D01*
X12000Y35455D01*
X11917Y35444D01*
X11840Y35412D01*
X11783Y35368D01*
X11750Y35364D01*
X11717Y35368D01*
X11660Y35412D01*
X11583Y35444D01*
X11500Y35455D01*
X11417Y35444D01*
X11340Y35412D01*
X11274Y35361D01*
X11262Y35346D01*
X11212D01*
X11212Y35347D01*
X11150Y35394D01*
X11077Y35424D01*
X11050Y35428D01*
Y35135D01*
Y34842D01*
X11077Y34846D01*
X11150Y34876D01*
X11212Y34923D01*
X11212Y34924D01*
X11262D01*
X11274Y34909D01*
X11340Y34858D01*
X11417Y34826D01*
X11500Y34815D01*
X11583Y34826D01*
X11660Y34858D01*
X11717Y34902D01*
X11750Y34906D01*
X11783Y34902D01*
X11840Y34858D01*
X11917Y34826D01*
X12000Y34815D01*
X12083Y34826D01*
X12160Y34858D01*
X12217Y34902D01*
X12250Y34906D01*
X12283Y34902D01*
X12340Y34858D01*
X12417Y34826D01*
X12500Y34815D01*
X12583Y34826D01*
X12660Y34858D01*
X12717Y34902D01*
X12750Y34906D01*
X12783Y34902D01*
X12840Y34858D01*
X12917Y34826D01*
X13000Y34815D01*
X13083Y34826D01*
X13160Y34858D01*
X13217Y34902D01*
X13250Y34906D01*
X13283Y34902D01*
X13340Y34858D01*
X13417Y34826D01*
X13500Y34815D01*
X13583Y34826D01*
X13660Y34858D01*
X13717Y34902D01*
X13750Y34906D01*
X13783Y34902D01*
X13840Y34858D01*
X13917Y34826D01*
X14000Y34815D01*
X14083Y34826D01*
X14160Y34858D01*
X14217Y34902D01*
X14250Y34906D01*
X14283Y34902D01*
X14340Y34858D01*
X14417Y34826D01*
X14500Y34815D01*
X14583Y34826D01*
X14660Y34858D01*
X14717Y34902D01*
X14750Y34906D01*
X14783Y34902D01*
X14840Y34858D01*
X14917Y34826D01*
X15000Y34815D01*
X15083Y34826D01*
X15160Y34858D01*
X15217Y34902D01*
X15250Y34906D01*
X15283Y34902D01*
X15340Y34858D01*
X15417Y34826D01*
X15500Y34815D01*
X15583Y34826D01*
X15660Y34858D01*
X15717Y34902D01*
X15750Y34906D01*
X15783Y34902D01*
X15840Y34858D01*
X15917Y34826D01*
X16000Y34815D01*
X16083Y34826D01*
X16160Y34858D01*
X16226Y34909D01*
X16277Y34975D01*
X16309Y35052D01*
X16320Y35135D01*
X16309Y35218D01*
X16277Y35295D01*
X16226Y35361D01*
X16160Y35412D01*
X16083Y35444D01*
X16000Y35455D01*
D02*
G37*
G36*
X10500D02*
X10417Y35444D01*
X10340Y35412D01*
X10283Y35368D01*
X10250Y35364D01*
X10217Y35368D01*
X10160Y35412D01*
X10083Y35444D01*
X10000Y35455D01*
X9917Y35444D01*
X9840Y35412D01*
X9783Y35368D01*
X9750Y35364D01*
X9717Y35368D01*
X9660Y35412D01*
X9583Y35444D01*
X9500Y35455D01*
X9417Y35444D01*
X9347Y35414D01*
X9297Y35432D01*
Y35432D01*
X9050D01*
Y35135D01*
Y34838D01*
X9297D01*
X9297Y34838D01*
X9347Y34855D01*
X9417Y34826D01*
X9500Y34815D01*
X9583Y34826D01*
X9660Y34858D01*
X9717Y34902D01*
X9750Y34906D01*
X9783Y34902D01*
X9840Y34858D01*
X9917Y34826D01*
X10000Y34815D01*
X10083Y34826D01*
X10160Y34858D01*
X10217Y34902D01*
X10250Y34906D01*
X10283Y34902D01*
X10340Y34858D01*
X10417Y34826D01*
X10500Y34815D01*
X10583Y34826D01*
X10660Y34858D01*
X10726Y34909D01*
X10738Y34924D01*
X10788D01*
X10788Y34923D01*
X10850Y34876D01*
X10922Y34846D01*
X10950Y34842D01*
Y35135D01*
Y35428D01*
X10922Y35424D01*
X10850Y35394D01*
X10788Y35347D01*
X10788Y35346D01*
X10738D01*
X10726Y35361D01*
X10660Y35412D01*
X10583Y35444D01*
X10500Y35455D01*
D02*
G37*
G36*
X19140Y38764D02*
X19054Y38747D01*
X19003Y38713D01*
X18037D01*
X17986Y38747D01*
X17900Y38764D01*
X17814Y38747D01*
X17741Y38699D01*
X17693Y38626D01*
X17676Y38540D01*
X17693Y38454D01*
X17741Y38381D01*
X17814Y38333D01*
X17900Y38316D01*
X17986Y38333D01*
X18037Y38367D01*
X19003D01*
X19054Y38333D01*
X19140Y38316D01*
X19226Y38333D01*
X19299Y38381D01*
X19347Y38454D01*
X19364Y38540D01*
X19347Y38626D01*
X19299Y38699D01*
X19226Y38747D01*
X19140Y38764D01*
D02*
G37*
G36*
X20850Y38754D02*
X20764Y38737D01*
X20691Y38689D01*
X20643Y38616D01*
X20626Y38530D01*
X20643Y38444D01*
X20691Y38371D01*
X20764Y38323D01*
X20850Y38306D01*
X20936Y38323D01*
X20987Y38357D01*
X22108D01*
X22174Y38313D01*
X22260Y38296D01*
X22346Y38313D01*
X22419Y38361D01*
X22467Y38434D01*
X22484Y38520D01*
X22467Y38606D01*
X22419Y38679D01*
X22346Y38727D01*
X22260Y38744D01*
X22174Y38727D01*
X22138Y38703D01*
X20987D01*
X20936Y38737D01*
X20850Y38754D01*
D02*
G37*
G36*
X8450Y49653D02*
X8376Y49643D01*
X8260Y49595D01*
X8161Y49519D01*
X8085Y49420D01*
X8037Y49304D01*
X8027Y49230D01*
X8450D01*
Y49653D01*
D02*
G37*
G36*
Y49130D02*
X8027D01*
X8037Y49056D01*
X8085Y48940D01*
X8161Y48841D01*
X8260Y48765D01*
X8376Y48717D01*
X8450Y48707D01*
Y49130D01*
D02*
G37*
G36*
X23120Y51044D02*
X22902Y51029D01*
X22687Y50987D01*
X22480Y50916D01*
X22283Y50819D01*
X22101Y50698D01*
X21937Y50553D01*
X21792Y50389D01*
X21671Y50207D01*
X21574Y50010D01*
X21503Y49803D01*
X21461Y49588D01*
X21446Y49370D01*
X21461Y49152D01*
X21503Y48937D01*
X21574Y48730D01*
X21671Y48533D01*
X21792Y48351D01*
X21937Y48187D01*
X22101Y48042D01*
X22283Y47921D01*
X22480Y47824D01*
X22687Y47753D01*
X22902Y47711D01*
X23120Y47696D01*
X23338Y47711D01*
X23553Y47753D01*
X23760Y47824D01*
X23957Y47921D01*
X24139Y48042D01*
X24303Y48187D01*
X24448Y48351D01*
X24569Y48533D01*
X24666Y48730D01*
X24737Y48937D01*
X24779Y49152D01*
X24794Y49370D01*
X24779Y49588D01*
X24737Y49803D01*
X24666Y50010D01*
X24569Y50207D01*
X24448Y50389D01*
X24303Y50553D01*
X24139Y50698D01*
X23957Y50819D01*
X23760Y50916D01*
X23553Y50987D01*
X23338Y51029D01*
X23120Y51044D01*
D02*
G37*
G36*
X14790Y49679D02*
X14661Y49662D01*
X14540Y49612D01*
X14437Y49533D01*
X14358Y49430D01*
X14317Y49332D01*
X14263D01*
X14222Y49430D01*
X14143Y49533D01*
X14040Y49612D01*
X13919Y49662D01*
X13790Y49679D01*
X13661Y49662D01*
X13540Y49612D01*
X13437Y49533D01*
X13358Y49430D01*
X13308Y49309D01*
X13291Y49180D01*
X13308Y49051D01*
X13358Y48930D01*
X13437Y48827D01*
X13540Y48748D01*
X13661Y48698D01*
X13790Y48681D01*
X13919Y48698D01*
X14040Y48748D01*
X14143Y48827D01*
X14222Y48930D01*
X14263Y49028D01*
X14317D01*
X14358Y48930D01*
X14437Y48827D01*
X14540Y48748D01*
X14661Y48698D01*
X14790Y48681D01*
X14919Y48698D01*
X15040Y48748D01*
X15143Y48827D01*
X15222Y48930D01*
X15272Y49051D01*
X15275Y49071D01*
X15325D01*
X15327Y49056D01*
X15375Y48940D01*
X15451Y48841D01*
X15550Y48765D01*
X15666Y48717D01*
X15740Y48707D01*
Y49180D01*
Y49653D01*
X15666Y49643D01*
X15550Y49595D01*
X15451Y49519D01*
X15375Y49420D01*
X15327Y49304D01*
X15325Y49289D01*
X15275D01*
X15272Y49309D01*
X15222Y49430D01*
X15143Y49533D01*
X15040Y49612D01*
X14919Y49662D01*
X14790Y49679D01*
D02*
G37*
G36*
X10500D02*
X10371Y49662D01*
X10250Y49612D01*
X10147Y49533D01*
X10068Y49430D01*
X10027Y49332D01*
X9973D01*
X9932Y49430D01*
X9853Y49533D01*
X9750Y49612D01*
X9629Y49662D01*
X9500Y49679D01*
X9371Y49662D01*
X9250Y49612D01*
X9147Y49533D01*
X9068Y49430D01*
X9018Y49309D01*
X9015Y49289D01*
X8965D01*
X8963Y49304D01*
X8915Y49420D01*
X8839Y49519D01*
X8740Y49595D01*
X8624Y49643D01*
X8550Y49653D01*
Y49180D01*
Y48707D01*
X8624Y48717D01*
X8740Y48765D01*
X8839Y48841D01*
X8915Y48940D01*
X8963Y49056D01*
X8965Y49071D01*
X9015D01*
X9018Y49051D01*
X9068Y48930D01*
X9147Y48827D01*
X9250Y48748D01*
X9371Y48698D01*
X9500Y48681D01*
X9629Y48698D01*
X9750Y48748D01*
X9853Y48827D01*
X9932Y48930D01*
X9973Y49028D01*
X10027D01*
X10068Y48930D01*
X10147Y48827D01*
X10250Y48748D01*
X10371Y48698D01*
X10500Y48681D01*
X10629Y48698D01*
X10750Y48748D01*
X10853Y48827D01*
X10932Y48930D01*
X10955Y48985D01*
X11005Y48975D01*
Y48685D01*
X11995D01*
Y49675D01*
X11005D01*
Y49385D01*
X10955Y49375D01*
X10932Y49430D01*
X10853Y49533D01*
X10750Y49612D01*
X10629Y49662D01*
X10500Y49679D01*
D02*
G37*
G36*
X17285Y49675D02*
X16295D01*
Y49333D01*
X16245Y49323D01*
X16205Y49420D01*
X16129Y49519D01*
X16030Y49595D01*
X15914Y49643D01*
X15840Y49653D01*
Y49180D01*
Y48707D01*
X15914Y48717D01*
X16030Y48765D01*
X16129Y48841D01*
X16205Y48940D01*
X16245Y49037D01*
X16295Y49027D01*
Y48685D01*
X17285D01*
Y49675D01*
D02*
G37*
G36*
X1880Y51044D02*
X1662Y51029D01*
X1447Y50987D01*
X1240Y50916D01*
X1043Y50819D01*
X861Y50698D01*
X697Y50553D01*
X552Y50389D01*
X431Y50207D01*
X334Y50010D01*
X263Y49803D01*
X221Y49588D01*
X206Y49370D01*
X221Y49152D01*
X263Y48937D01*
X334Y48730D01*
X431Y48533D01*
X552Y48351D01*
X697Y48187D01*
X861Y48042D01*
X1043Y47921D01*
X1240Y47824D01*
X1447Y47753D01*
X1662Y47711D01*
X1880Y47696D01*
X2098Y47711D01*
X2313Y47753D01*
X2520Y47824D01*
X2717Y47921D01*
X2899Y48042D01*
X3063Y48187D01*
X3208Y48351D01*
X3329Y48533D01*
X3426Y48730D01*
X3497Y48937D01*
X3539Y49152D01*
X3554Y49370D01*
X3539Y49588D01*
X3497Y49803D01*
X3426Y50010D01*
X3329Y50207D01*
X3208Y50389D01*
X3063Y50553D01*
X2899Y50698D01*
X2717Y50819D01*
X2520Y50916D01*
X2313Y50987D01*
X2098Y51029D01*
X1880Y51044D01*
D02*
G37*
G36*
X22040Y41814D02*
X21954Y41797D01*
X21903Y41763D01*
X21900D01*
X21900Y41763D01*
X21834Y41750D01*
X21777Y41713D01*
X21413Y41348D01*
X21012D01*
X20961Y41382D01*
X20875Y41399D01*
X20789Y41382D01*
X20716Y41334D01*
X20668Y41261D01*
X20651Y41175D01*
X20668Y41089D01*
X20716Y41016D01*
X20789Y40968D01*
X20875Y40951D01*
X20961Y40968D01*
X21012Y41002D01*
X21485D01*
X21551Y41015D01*
X21589Y40980D01*
X21625Y40925D01*
X21698Y40877D01*
X21784Y40860D01*
X21870Y40877D01*
X21942Y40925D01*
X21991Y40998D01*
X22003Y41058D01*
X22094Y41149D01*
X22104Y41143D01*
X22190Y41126D01*
X22276Y41143D01*
X22349Y41191D01*
X22397Y41264D01*
X22414Y41350D01*
X22397Y41436D01*
X22349Y41509D01*
X22276Y41557D01*
X22258Y41561D01*
X22264Y41590D01*
X22247Y41676D01*
X22199Y41749D01*
X22126Y41797D01*
X22040Y41814D01*
D02*
G37*
G36*
X18410Y42164D02*
X18324Y42147D01*
X18251Y42099D01*
X18203Y42026D01*
X18186Y41940D01*
X18203Y41854D01*
X18251Y41781D01*
X18324Y41733D01*
X18384Y41721D01*
X18437Y41667D01*
X18494Y41630D01*
X18560Y41617D01*
X18713D01*
X18764Y41583D01*
X18850Y41566D01*
X18936Y41583D01*
X19009Y41631D01*
X19057Y41704D01*
X19074Y41790D01*
X19057Y41876D01*
X19009Y41949D01*
X18936Y41997D01*
X18850Y42014D01*
X18764Y41997D01*
X18713Y41963D01*
X18632D01*
X18629Y41966D01*
X18617Y42026D01*
X18569Y42099D01*
X18496Y42147D01*
X18410Y42164D01*
D02*
G37*
G36*
X20650Y40674D02*
X20564Y40657D01*
X20491Y40609D01*
X20443Y40536D01*
X20426Y40450D01*
X20443Y40364D01*
X20491Y40291D01*
X20564Y40243D01*
X20650Y40226D01*
X20736Y40243D01*
X20785Y40276D01*
X21315D01*
X21365Y40242D01*
X21451Y40225D01*
X21537Y40242D01*
X21610Y40290D01*
X21658Y40363D01*
X21675Y40449D01*
X21658Y40535D01*
X21610Y40607D01*
X21537Y40656D01*
X21451Y40673D01*
X21365Y40656D01*
X21315Y40622D01*
X20788D01*
X20736Y40657D01*
X20650Y40674D01*
D02*
G37*
G36*
X18642Y47706D02*
X18461Y47692D01*
X18284Y47650D01*
X18116Y47580D01*
X17961Y47485D01*
X17823Y47367D01*
X17705Y47229D01*
X17610Y47074D01*
X17541Y46906D01*
X17498Y46730D01*
X17484Y46549D01*
X17498Y46368D01*
X17541Y46191D01*
X17610Y46023D01*
X17705Y45868D01*
X17823Y45730D01*
X17961Y45612D01*
X18116Y45517D01*
X18284Y45447D01*
X18461Y45405D01*
X18642Y45391D01*
X18823Y45405D01*
X18999Y45447D01*
X19167Y45517D01*
X19322Y45612D01*
X19460Y45730D01*
X19578Y45868D01*
X19673Y46023D01*
X19743Y46191D01*
X19785Y46368D01*
X19800Y46549D01*
X19785Y46730D01*
X19743Y46906D01*
X19673Y47074D01*
X19578Y47229D01*
X19460Y47367D01*
X19322Y47485D01*
X19167Y47580D01*
X18999Y47650D01*
X18823Y47692D01*
X18642Y47706D01*
D02*
G37*
G36*
X8950Y35432D02*
X8703D01*
Y35185D01*
X8950D01*
Y35432D01*
D02*
G37*
G36*
X12970Y25604D02*
X12884Y25587D01*
X12833Y25553D01*
X11110D01*
X11044Y25540D01*
X10987Y25503D01*
X10619Y25134D01*
X10447D01*
X10396Y25168D01*
X10311Y25185D01*
X10297Y25256D01*
X10249Y25329D01*
X10176Y25377D01*
X10090Y25394D01*
X10004Y25377D01*
X9931Y25329D01*
X9883Y25256D01*
X9866Y25170D01*
X9883Y25084D01*
X9917Y25033D01*
Y24870D01*
X9930Y24803D01*
X9967Y24747D01*
X10096Y24618D01*
X10153Y24581D01*
X10219Y24567D01*
X10401D01*
X10467Y24581D01*
X10523Y24617D01*
X10761D01*
X10827Y24631D01*
X10884Y24668D01*
X11152Y24937D01*
X12733D01*
X12784Y24903D01*
X12870Y24886D01*
X12956Y24903D01*
X13029Y24951D01*
X13077Y25024D01*
X13094Y25110D01*
X13079Y25188D01*
X13129Y25221D01*
X13177Y25294D01*
X13194Y25380D01*
X13177Y25466D01*
X13129Y25539D01*
X13056Y25587D01*
X12970Y25604D01*
D02*
G37*
G36*
X3199Y31438D02*
X2400D01*
X1601D01*
X1612Y31332D01*
X1657Y31181D01*
X1732Y31042D01*
X1832Y30920D01*
X1953Y30820D01*
X2092Y30746D01*
X2097Y30744D01*
Y30694D01*
X2085Y30691D01*
X1942Y30614D01*
X1817Y30512D01*
X1715Y30387D01*
X1639Y30245D01*
X1592Y30090D01*
X1576Y29929D01*
X1592Y29769D01*
X1639Y29614D01*
X1715Y29472D01*
X1817Y29347D01*
X1942Y29244D01*
X2068Y29177D01*
X2069Y29173D01*
Y29126D01*
X2068Y29122D01*
X1942Y29055D01*
X1817Y28953D01*
X1715Y28828D01*
X1639Y28686D01*
X1592Y28531D01*
X1576Y28370D01*
X1592Y28209D01*
X1639Y28055D01*
X1715Y27912D01*
X1817Y27788D01*
X1942Y27685D01*
X2068Y27618D01*
X2069Y27614D01*
Y27567D01*
X2068Y27563D01*
X1942Y27496D01*
X1817Y27394D01*
X1715Y27269D01*
X1639Y27127D01*
X1592Y26972D01*
X1576Y26811D01*
X1592Y26650D01*
X1639Y26496D01*
X1715Y26353D01*
X1817Y26229D01*
X1942Y26126D01*
X1952Y26121D01*
X1940Y26072D01*
X1580D01*
Y24432D01*
X1983D01*
X1995Y24384D01*
X1953Y24361D01*
X1832Y24262D01*
X1732Y24140D01*
X1657Y24001D01*
X1612Y23850D01*
X1601Y23743D01*
X2400D01*
X3199D01*
X3188Y23850D01*
X3143Y24001D01*
X3068Y24140D01*
X2968Y24262D01*
X2847Y24361D01*
X2805Y24384D01*
X2817Y24432D01*
X3220D01*
Y25079D01*
X3581D01*
X3632Y25045D01*
X3718Y25028D01*
X3804Y25045D01*
X3876Y25094D01*
X3925Y25166D01*
X3942Y25252D01*
X3925Y25338D01*
X3876Y25411D01*
X3804Y25459D01*
X3718Y25476D01*
X3632Y25459D01*
X3581Y25425D01*
X3220D01*
Y26072D01*
X2860D01*
X2848Y26121D01*
X2858Y26126D01*
X2983Y26229D01*
X3085Y26353D01*
X3161Y26496D01*
X3192Y26596D01*
X3780D01*
X3866Y26613D01*
X3939Y26661D01*
X4164Y26886D01*
X4212Y26959D01*
X4229Y27045D01*
X4212Y27131D01*
X4164Y27204D01*
X4091Y27252D01*
X4005Y27269D01*
X3919Y27252D01*
X3846Y27204D01*
X3687Y27044D01*
X3186D01*
X3161Y27127D01*
X3085Y27269D01*
X2983Y27394D01*
X2858Y27496D01*
X2732Y27563D01*
X2731Y27567D01*
Y27614D01*
X2732Y27618D01*
X2858Y27685D01*
X2983Y27788D01*
X3085Y27912D01*
X3161Y28055D01*
X3208Y28209D01*
X3224Y28370D01*
X3208Y28531D01*
X3161Y28686D01*
X3085Y28828D01*
X2983Y28953D01*
X2858Y29055D01*
X2732Y29122D01*
X2731Y29126D01*
Y29173D01*
X2732Y29177D01*
X2858Y29244D01*
X2983Y29347D01*
X3085Y29472D01*
X3161Y29614D01*
X3208Y29769D01*
X3224Y29929D01*
X3208Y30090D01*
X3161Y30245D01*
X3085Y30387D01*
X2983Y30512D01*
X2858Y30614D01*
X2715Y30691D01*
X2703Y30694D01*
Y30744D01*
X2708Y30746D01*
X2847Y30820D01*
X2968Y30920D01*
X3068Y31042D01*
X3143Y31181D01*
X3188Y31332D01*
X3199Y31438D01*
D02*
G37*
G36*
X9031Y26572D02*
X8734D01*
X8437D01*
Y26325D01*
X8437Y26325D01*
X8454Y26275D01*
X8425Y26204D01*
X8414Y26122D01*
X8425Y26039D01*
X8457Y25962D01*
X8508Y25896D01*
Y25848D01*
X8457Y25782D01*
X8425Y25704D01*
X8414Y25622D01*
X8425Y25539D01*
X8457Y25462D01*
X8508Y25396D01*
Y25348D01*
X8457Y25282D01*
X8425Y25204D01*
X8414Y25122D01*
X8425Y25039D01*
X8457Y24962D01*
X8508Y24896D01*
X8523Y24884D01*
Y24834D01*
X8522Y24833D01*
X8474Y24771D01*
X8444Y24699D01*
X8441Y24672D01*
X8734D01*
X9026D01*
X9023Y24699D01*
X8993Y24771D01*
X8945Y24833D01*
X8944Y24834D01*
Y24884D01*
X8960Y24896D01*
X9010Y24962D01*
X9042Y25039D01*
X9053Y25122D01*
X9042Y25204D01*
X9010Y25282D01*
X8960Y25348D01*
Y25396D01*
X9010Y25462D01*
X9042Y25539D01*
X9053Y25622D01*
X9042Y25704D01*
X9010Y25782D01*
X8960Y25848D01*
Y25896D01*
X9010Y25962D01*
X9042Y26039D01*
X9053Y26122D01*
X9042Y26204D01*
X9013Y26275D01*
X9031Y26325D01*
X9031D01*
Y26572D01*
D02*
G37*
G36*
X17450Y27474D02*
X17364Y27457D01*
X17291Y27409D01*
X17243Y27336D01*
X17231Y27276D01*
X17024Y27069D01*
X16964Y27057D01*
X16891Y27009D01*
X16843Y26936D01*
X16826Y26850D01*
X16843Y26764D01*
X16891Y26691D01*
X16964Y26643D01*
X17050Y26626D01*
X17136Y26643D01*
X17209Y26691D01*
X17257Y26764D01*
X17269Y26824D01*
X17476Y27031D01*
X17536Y27043D01*
X17609Y27091D01*
X17657Y27164D01*
X17674Y27250D01*
X17657Y27336D01*
X17609Y27409D01*
X17536Y27457D01*
X17450Y27474D01*
D02*
G37*
G36*
X14876Y27228D02*
X14790Y27211D01*
X14717Y27163D01*
X14669Y27090D01*
X14652Y27004D01*
X14669Y26918D01*
X14703Y26867D01*
Y26770D01*
X14716Y26704D01*
X14753Y26647D01*
X14793Y26608D01*
Y25990D01*
X14763Y25946D01*
X14746Y25860D01*
X14763Y25774D01*
X14812Y25702D01*
X14884Y25653D01*
X14970Y25636D01*
X15056Y25653D01*
X15129Y25702D01*
X15173Y25677D01*
X15225Y25642D01*
X15310Y25625D01*
X15396Y25642D01*
X15469Y25691D01*
X15518Y25764D01*
X15535Y25850D01*
X15518Y25935D01*
X15484Y25986D01*
Y26854D01*
X15518Y26905D01*
X15535Y26990D01*
X15518Y27076D01*
X15469Y27149D01*
X15396Y27198D01*
X15310Y27215D01*
X15225Y27198D01*
X15152Y27149D01*
X15126Y27111D01*
X15068Y27113D01*
X15035Y27163D01*
X14962Y27211D01*
X14876Y27228D01*
D02*
G37*
G36*
X13180Y27364D02*
X13094Y27347D01*
X13021Y27299D01*
X12973Y27226D01*
X12956Y27140D01*
X12973Y27054D01*
X13007Y27003D01*
Y26162D01*
X12963Y26096D01*
X12946Y26010D01*
X12963Y25924D01*
X13011Y25851D01*
X13084Y25803D01*
X13156Y25788D01*
X13173Y25704D01*
X13221Y25631D01*
X13294Y25583D01*
X13380Y25566D01*
X13466Y25583D01*
X13539Y25631D01*
X13587Y25704D01*
X13604Y25790D01*
X13587Y25876D01*
X13563Y25912D01*
Y26818D01*
X13607Y26884D01*
X13624Y26970D01*
X13607Y27056D01*
X13559Y27129D01*
X13486Y27177D01*
X13400Y27194D01*
X13394Y27193D01*
X13387Y27226D01*
X13339Y27299D01*
X13266Y27347D01*
X13180Y27364D01*
D02*
G37*
G36*
X12830Y24664D02*
X12744Y24647D01*
X12693Y24613D01*
X11640D01*
X11574Y24600D01*
X11517Y24563D01*
X11038Y24083D01*
X9827D01*
X9776Y24117D01*
X9690Y24134D01*
X9604Y24117D01*
X9531Y24069D01*
X9483Y23996D01*
X9466Y23910D01*
X9483Y23824D01*
X9487Y23818D01*
X9431Y23780D01*
X9383Y23708D01*
X9366Y23622D01*
X9383Y23536D01*
X9431Y23463D01*
X9504Y23414D01*
X9590Y23397D01*
X9676Y23414D01*
X9727Y23448D01*
X9801D01*
X9810Y23447D01*
X9876Y23460D01*
X9933Y23497D01*
X10002Y23567D01*
X11180D01*
X11247Y23580D01*
X11303Y23617D01*
X11682Y23997D01*
X12713D01*
X12764Y23963D01*
X12850Y23946D01*
X12936Y23963D01*
X13009Y24011D01*
X13057Y24084D01*
X13074Y24170D01*
X13057Y24256D01*
X13014Y24320D01*
X13037Y24354D01*
X13054Y24440D01*
X13037Y24526D01*
X12989Y24599D01*
X12916Y24647D01*
X12830Y24664D01*
D02*
G37*
G36*
X23570Y19674D02*
X23484Y19657D01*
X23433Y19623D01*
X22187D01*
X22136Y19657D01*
X22050Y19674D01*
X21964Y19657D01*
X21891Y19609D01*
X21843Y19536D01*
X21826Y19450D01*
X21843Y19364D01*
X21891Y19293D01*
X21873Y19266D01*
X21856Y19180D01*
X21873Y19094D01*
X21921Y19021D01*
X21994Y18973D01*
X22080Y18956D01*
X22166Y18973D01*
X22232Y19017D01*
X23418D01*
X23484Y18973D01*
X23570Y18956D01*
X23656Y18973D01*
X23729Y19021D01*
X23777Y19094D01*
X23794Y19180D01*
X23777Y19266D01*
X23744Y19315D01*
X23777Y19364D01*
X23794Y19450D01*
X23777Y19536D01*
X23729Y19609D01*
X23656Y19657D01*
X23570Y19674D01*
D02*
G37*
G36*
X9026Y24572D02*
X8734D01*
X8441D01*
X8444Y24544D01*
X8474Y24472D01*
X8522Y24410D01*
X8523Y24409D01*
Y24359D01*
X8508Y24348D01*
X8457Y24282D01*
X8425Y24204D01*
X8414Y24122D01*
X8425Y24039D01*
X8457Y23962D01*
X8508Y23896D01*
Y23848D01*
X8457Y23782D01*
X8425Y23704D01*
X8414Y23622D01*
X8425Y23539D01*
X8457Y23462D01*
X8508Y23396D01*
Y23348D01*
X8457Y23282D01*
X8425Y23204D01*
X8414Y23122D01*
X8425Y23039D01*
X8457Y22962D01*
X8508Y22896D01*
Y22848D01*
X8457Y22782D01*
X8425Y22704D01*
X8414Y22622D01*
X8425Y22539D01*
X8457Y22462D01*
X8508Y22396D01*
Y22348D01*
X8457Y22282D01*
X8425Y22204D01*
X8414Y22122D01*
X8425Y22039D01*
X8457Y21962D01*
X8508Y21896D01*
Y21848D01*
X8457Y21782D01*
X8425Y21704D01*
X8414Y21622D01*
X8425Y21539D01*
X8457Y21462D01*
X8508Y21396D01*
Y21348D01*
X8457Y21282D01*
X8425Y21204D01*
X8414Y21122D01*
X8425Y21039D01*
X8457Y20962D01*
X8508Y20896D01*
Y20848D01*
X8457Y20782D01*
X8425Y20704D01*
X8414Y20622D01*
X8425Y20539D01*
X8457Y20462D01*
X8508Y20396D01*
Y20348D01*
X8457Y20282D01*
X8425Y20204D01*
X8414Y20122D01*
X8425Y20039D01*
X8457Y19962D01*
X8508Y19896D01*
Y19848D01*
X8457Y19782D01*
X8425Y19704D01*
X8414Y19622D01*
X8425Y19539D01*
X8457Y19462D01*
X8508Y19396D01*
X8574Y19345D01*
X8651Y19313D01*
X8734Y19302D01*
X8816Y19313D01*
X8893Y19345D01*
X8960Y19396D01*
X9010Y19462D01*
X9042Y19539D01*
X9053Y19622D01*
X9042Y19704D01*
X9010Y19782D01*
X8960Y19848D01*
Y19896D01*
X9010Y19962D01*
X9042Y20039D01*
X9053Y20122D01*
X9042Y20204D01*
X9010Y20282D01*
X8960Y20348D01*
Y20396D01*
X9010Y20462D01*
X9042Y20539D01*
X9053Y20622D01*
X9042Y20704D01*
X9010Y20782D01*
X8960Y20848D01*
Y20896D01*
X9010Y20962D01*
X9042Y21039D01*
X9053Y21122D01*
X9042Y21204D01*
X9010Y21282D01*
X8960Y21348D01*
Y21396D01*
X9010Y21462D01*
X9042Y21539D01*
X9053Y21622D01*
X9042Y21704D01*
X9010Y21782D01*
X8960Y21848D01*
Y21896D01*
X9010Y21962D01*
X9042Y22039D01*
X9053Y22122D01*
X9042Y22204D01*
X9010Y22282D01*
X8960Y22348D01*
Y22396D01*
X9010Y22462D01*
X9042Y22539D01*
X9053Y22622D01*
X9042Y22704D01*
X9010Y22782D01*
X8960Y22848D01*
Y22896D01*
X9010Y22962D01*
X9042Y23039D01*
X9053Y23122D01*
X9042Y23204D01*
X9010Y23282D01*
X8960Y23348D01*
Y23396D01*
X9010Y23462D01*
X9042Y23539D01*
X9053Y23622D01*
X9042Y23704D01*
X9010Y23782D01*
X8960Y23848D01*
Y23896D01*
X9010Y23962D01*
X9042Y24039D01*
X9053Y24122D01*
X9042Y24204D01*
X9010Y24282D01*
X8960Y24348D01*
X8944Y24359D01*
Y24409D01*
X8945Y24410D01*
X8993Y24472D01*
X9023Y24544D01*
X9026Y24572D01*
D02*
G37*
G36*
X17450Y19264D02*
X17364Y19247D01*
X17313Y19213D01*
X16630D01*
X16564Y19200D01*
X16507Y19163D01*
X16346Y19001D01*
X16336Y19007D01*
X16250Y19024D01*
X16164Y19007D01*
X16091Y18959D01*
X16043Y18886D01*
X16026Y18800D01*
X16043Y18714D01*
X16086Y18650D01*
X16043Y18586D01*
X16026Y18500D01*
X16043Y18414D01*
X16091Y18341D01*
X16164Y18293D01*
X16250Y18276D01*
X16336Y18293D01*
X16389Y18329D01*
X16446Y18340D01*
X16503Y18377D01*
X16822Y18697D01*
X17148D01*
X17227Y18617D01*
X17284Y18580D01*
X17326Y18571D01*
X17384Y18533D01*
X17470Y18516D01*
X17556Y18533D01*
X17629Y18581D01*
X17677Y18654D01*
X17694Y18740D01*
X17677Y18826D01*
X17629Y18899D01*
X17623Y18903D01*
X17657Y18954D01*
X17674Y19040D01*
X17657Y19126D01*
X17609Y19199D01*
X17536Y19247D01*
X17450Y19264D01*
D02*
G37*
G36*
X7240Y23944D02*
X7154Y23927D01*
X7081Y23879D01*
X7033Y23806D01*
X7016Y23720D01*
X7033Y23634D01*
X7067Y23583D01*
Y23352D01*
X7034Y23319D01*
X6974Y23307D01*
X6901Y23259D01*
X6853Y23186D01*
X6836Y23100D01*
X6853Y23014D01*
X6901Y22941D01*
X6974Y22893D01*
X7060Y22876D01*
X7146Y22893D01*
X7219Y22941D01*
X7267Y23014D01*
X7279Y23074D01*
X7363Y23157D01*
X7400Y23214D01*
X7413Y23280D01*
Y23583D01*
X7447Y23634D01*
X7464Y23720D01*
X7447Y23806D01*
X7399Y23879D01*
X7326Y23927D01*
X7240Y23944D01*
D02*
G37*
G36*
X23570Y20774D02*
X23484Y20757D01*
X23433Y20723D01*
X22587D01*
X22536Y20757D01*
X22450Y20774D01*
X22364Y20757D01*
X22291Y20709D01*
X22243Y20636D01*
X22226Y20550D01*
X22243Y20464D01*
X22276Y20415D01*
X22243Y20366D01*
X22226Y20280D01*
X22243Y20194D01*
X22291Y20121D01*
X22364Y20073D01*
X22450Y20056D01*
X22536Y20073D01*
X22602Y20117D01*
X23418D01*
X23484Y20073D01*
X23570Y20056D01*
X23656Y20073D01*
X23729Y20121D01*
X23777Y20194D01*
X23794Y20280D01*
X23777Y20366D01*
X23744Y20415D01*
X23777Y20464D01*
X23794Y20550D01*
X23777Y20636D01*
X23729Y20709D01*
X23656Y20757D01*
X23570Y20774D01*
D02*
G37*
G36*
X20240Y20554D02*
X20154Y20537D01*
X20103Y20503D01*
X19052D01*
X19016Y20527D01*
X18930Y20544D01*
X18844Y20527D01*
X18771Y20479D01*
X18723Y20406D01*
X18706Y20320D01*
X18723Y20234D01*
X18756Y20185D01*
X18723Y20136D01*
X18706Y20050D01*
X18723Y19964D01*
X18771Y19891D01*
X18844Y19843D01*
X18930Y19826D01*
X19016Y19843D01*
X19082Y19887D01*
X20183D01*
X20234Y19853D01*
X20320Y19836D01*
X20406Y19853D01*
X20479Y19901D01*
X20527Y19974D01*
X20544Y20060D01*
X20527Y20146D01*
X20479Y20219D01*
X20445Y20241D01*
X20447Y20244D01*
X20464Y20330D01*
X20447Y20416D01*
X20399Y20489D01*
X20326Y20537D01*
X20240Y20554D01*
D02*
G37*
G36*
X3220Y33867D02*
X1580D01*
Y32227D01*
X1983D01*
X1995Y32179D01*
X1953Y32157D01*
X1832Y32057D01*
X1732Y31935D01*
X1657Y31796D01*
X1612Y31645D01*
X1601Y31538D01*
X2400D01*
X3199D01*
X3188Y31645D01*
X3143Y31796D01*
X3068Y31935D01*
X2968Y32057D01*
X2847Y32157D01*
X2805Y32179D01*
X2817Y32227D01*
X3220D01*
Y33867D01*
D02*
G37*
G36*
X16730Y32594D02*
X16644Y32577D01*
X16571Y32529D01*
X16523Y32456D01*
X16506Y32370D01*
X16523Y32284D01*
X16571Y32211D01*
X16644Y32163D01*
X16704Y32151D01*
X16793Y32062D01*
X16792Y32040D01*
X16781Y32008D01*
X16724Y31997D01*
X16651Y31949D01*
X16603Y31876D01*
X16586Y31790D01*
X16603Y31704D01*
X16651Y31631D01*
X16724Y31583D01*
X16784Y31571D01*
X17081Y31274D01*
X17093Y31214D01*
X17141Y31141D01*
X17214Y31093D01*
X17300Y31076D01*
X17386Y31093D01*
X17459Y31141D01*
X17507Y31214D01*
X17524Y31300D01*
X17519Y31327D01*
X17560Y31377D01*
X17563D01*
X17614Y31343D01*
X17700Y31326D01*
X17786Y31343D01*
X17859Y31391D01*
X17907Y31464D01*
X17924Y31550D01*
X17907Y31636D01*
X17859Y31709D01*
X17875Y31729D01*
X17879Y31731D01*
X17927Y31804D01*
X17944Y31890D01*
X17927Y31976D01*
X17879Y32049D01*
X17806Y32097D01*
X17746Y32109D01*
X17553Y32302D01*
X17497Y32340D01*
X17430Y32353D01*
X16992D01*
X16949Y32396D01*
X16937Y32456D01*
X16889Y32529D01*
X16816Y32577D01*
X16730Y32594D01*
D02*
G37*
G36*
X15720Y31124D02*
X15634Y31107D01*
X15568Y31063D01*
X15516Y31097D01*
X15430Y31114D01*
X15344Y31097D01*
X15271Y31049D01*
X15223Y30976D01*
X15206Y30890D01*
X15223Y30804D01*
X15257Y30753D01*
Y29822D01*
X14850Y29415D01*
X14790Y29403D01*
X14717Y29355D01*
X14669Y29282D01*
X14652Y29196D01*
X14669Y29110D01*
X14717Y29037D01*
X14790Y28989D01*
X14876Y28972D01*
X14962Y28989D01*
X15035Y29037D01*
X15083Y29110D01*
X15095Y29170D01*
X15402Y29477D01*
X15429Y29470D01*
X15451Y29455D01*
Y29333D01*
X15417Y29282D01*
X15400Y29196D01*
X15417Y29110D01*
X15465Y29037D01*
X15538Y28989D01*
X15624Y28972D01*
X15710Y28989D01*
X15783Y29037D01*
X15831Y29110D01*
X15848Y29196D01*
X15831Y29282D01*
X15797Y29333D01*
Y29392D01*
X15843Y29437D01*
X15880Y29494D01*
X15893Y29560D01*
Y30763D01*
X15927Y30814D01*
X15944Y30900D01*
X15927Y30986D01*
X15879Y31059D01*
X15806Y31107D01*
X15720Y31124D01*
D02*
G37*
G36*
X8950Y35085D02*
X8703D01*
Y34838D01*
X8950D01*
Y35085D01*
D02*
G37*
G36*
X18642Y36289D02*
X18461Y36275D01*
X18284Y36232D01*
X18116Y36163D01*
X17961Y36068D01*
X17823Y35950D01*
X17705Y35812D01*
X17610Y35657D01*
X17541Y35489D01*
X17498Y35312D01*
X17484Y35131D01*
X17498Y34950D01*
X17541Y34774D01*
X17610Y34606D01*
X17705Y34451D01*
X17823Y34313D01*
X17961Y34195D01*
X18116Y34100D01*
X18284Y34030D01*
X18461Y33988D01*
X18642Y33973D01*
X18823Y33988D01*
X18999Y34030D01*
X19167Y34100D01*
X19322Y34195D01*
X19460Y34313D01*
X19578Y34451D01*
X19673Y34606D01*
X19743Y34774D01*
X19785Y34950D01*
X19800Y35131D01*
X19785Y35312D01*
X19743Y35489D01*
X19673Y35657D01*
X19578Y35812D01*
X19460Y35950D01*
X19322Y36068D01*
X19167Y36163D01*
X18999Y36232D01*
X18823Y36275D01*
X18642Y36289D01*
D02*
G37*
G36*
X22800Y31624D02*
X22714Y31607D01*
X22663Y31573D01*
X21537D01*
X21486Y31607D01*
X21400Y31624D01*
X21314Y31607D01*
X21241Y31559D01*
X21193Y31486D01*
X21176Y31400D01*
X21193Y31314D01*
X21236Y31250D01*
X21193Y31186D01*
X21176Y31100D01*
X21193Y31014D01*
X21241Y30941D01*
X21314Y30893D01*
X21400Y30876D01*
X21486Y30893D01*
X21537Y30927D01*
X22663D01*
X22714Y30893D01*
X22800Y30876D01*
X22886Y30893D01*
X22959Y30941D01*
X23007Y31014D01*
X23024Y31100D01*
X23007Y31186D01*
X22964Y31250D01*
X23007Y31314D01*
X23024Y31400D01*
X23007Y31486D01*
X22959Y31559D01*
X22886Y31607D01*
X22800Y31624D01*
D02*
G37*
G36*
X13340Y32114D02*
X13254Y32097D01*
X13181Y32049D01*
X13133Y31976D01*
X13116Y31890D01*
X13133Y31804D01*
X13181Y31731D01*
X13207Y31714D01*
Y31007D01*
X13173Y30956D01*
X13156Y30870D01*
X13173Y30784D01*
X13221Y30711D01*
X13294Y30663D01*
X13380Y30646D01*
X13466Y30663D01*
X13534Y30708D01*
X13551Y30713D01*
X13579D01*
X13596Y30708D01*
X13664Y30663D01*
X13750Y30646D01*
X13836Y30663D01*
X13887Y30697D01*
X13891Y30691D01*
X13964Y30643D01*
X14050Y30626D01*
X14136Y30643D01*
X14200Y30686D01*
X14264Y30643D01*
X14350Y30626D01*
X14436Y30643D01*
X14509Y30691D01*
X14557Y30764D01*
X14574Y30850D01*
X14557Y30936D01*
X14523Y30987D01*
Y31295D01*
X14534Y31350D01*
X14517Y31436D01*
X14469Y31509D01*
X14396Y31557D01*
X14310Y31574D01*
X14239Y31560D01*
X14194Y31581D01*
X14182Y31590D01*
X14177Y31616D01*
X14129Y31689D01*
X14056Y31737D01*
X13970Y31754D01*
X13884Y31737D01*
X13853Y31777D01*
X13847Y31806D01*
X13799Y31879D01*
X13726Y31927D01*
X13640Y31944D01*
X13557Y31928D01*
X13547Y31976D01*
X13499Y32049D01*
X13426Y32097D01*
X13340Y32114D01*
D02*
G37*
G36*
X8730Y30421D02*
X8549Y30407D01*
X8372Y30365D01*
X8204Y30295D01*
X8049Y30200D01*
X7911Y30082D01*
X7793Y29944D01*
X7698Y29789D01*
X7629Y29621D01*
X7586Y29445D01*
X7572Y29263D01*
X7586Y29082D01*
X7629Y28906D01*
X7698Y28738D01*
X7793Y28583D01*
X7911Y28445D01*
X8049Y28327D01*
X8204Y28232D01*
X8372Y28162D01*
X8549Y28120D01*
X8730Y28106D01*
X8911Y28120D01*
X9088Y28162D01*
X9256Y28232D01*
X9411Y28327D01*
X9549Y28445D01*
X9667Y28583D01*
X9762Y28738D01*
X9831Y28906D01*
X9874Y29082D01*
X9888Y29263D01*
X9874Y29445D01*
X9831Y29621D01*
X9762Y29789D01*
X9667Y29944D01*
X9549Y30082D01*
X9411Y30200D01*
X9256Y30295D01*
X9088Y30365D01*
X8911Y30407D01*
X8730Y30421D01*
D02*
G37*
G36*
X9031Y26919D02*
X8784D01*
Y26672D01*
X9031D01*
Y26919D01*
D02*
G37*
G36*
X8684D02*
X8437D01*
Y26672D01*
X8684D01*
Y26919D01*
D02*
G37*
G36*
X18570Y31594D02*
X18484Y31577D01*
X18411Y31529D01*
X18363Y31456D01*
X18351Y31396D01*
X17974Y31019D01*
X17914Y31007D01*
X17841Y30959D01*
X17793Y30886D01*
X17776Y30800D01*
X17793Y30714D01*
X17841Y30641D01*
X17914Y30593D01*
X17980Y30580D01*
X17993Y30514D01*
X18041Y30441D01*
X18114Y30393D01*
X18200Y30376D01*
X18286Y30393D01*
X18359Y30441D01*
X18407Y30514D01*
X18419Y30574D01*
X18806Y30961D01*
X18866Y30973D01*
X18939Y31021D01*
X18987Y31094D01*
X19004Y31180D01*
X18987Y31266D01*
X18939Y31339D01*
X18866Y31387D01*
X18788Y31403D01*
X18777Y31456D01*
X18729Y31529D01*
X18656Y31577D01*
X18570Y31594D01*
D02*
G37*
G36*
X17560Y30024D02*
X17474Y30007D01*
X17401Y29959D01*
X17353Y29886D01*
X17341Y29826D01*
X17027Y29513D01*
X16990Y29456D01*
X16977Y29390D01*
Y29317D01*
X16943Y29266D01*
X16926Y29180D01*
X16943Y29094D01*
X16991Y29021D01*
X17064Y28973D01*
X17150Y28956D01*
X17236Y28973D01*
X17309Y29021D01*
X17357Y29094D01*
X17374Y29180D01*
X17357Y29266D01*
X17323Y29317D01*
Y29318D01*
X17586Y29581D01*
X17646Y29593D01*
X17719Y29641D01*
X17767Y29714D01*
X17784Y29800D01*
X17767Y29886D01*
X17719Y29959D01*
X17646Y30007D01*
X17560Y30024D01*
D02*
G37*
G36*
X20147Y30421D02*
X19966Y30407D01*
X19790Y30365D01*
X19622Y30295D01*
X19467Y30200D01*
X19329Y30082D01*
X19211Y29944D01*
X19116Y29789D01*
X19046Y29621D01*
X19004Y29445D01*
X18990Y29263D01*
X19004Y29082D01*
X19046Y28906D01*
X19116Y28738D01*
X19211Y28583D01*
X19329Y28445D01*
X19467Y28327D01*
X19622Y28232D01*
X19790Y28162D01*
X19966Y28120D01*
X20147Y28106D01*
X20328Y28120D01*
X20505Y28162D01*
X20673Y28232D01*
X20828Y28327D01*
X20966Y28445D01*
X21084Y28583D01*
X21179Y28738D01*
X21248Y28906D01*
X21291Y29082D01*
X21305Y29263D01*
X21291Y29445D01*
X21248Y29621D01*
X21179Y29789D01*
X21084Y29944D01*
X20966Y30082D01*
X20828Y30200D01*
X20673Y30295D01*
X20505Y30365D01*
X20328Y30407D01*
X20147Y30421D01*
D02*
G37*
G36*
X3200Y39900D02*
X2450D01*
Y39150D01*
X3200D01*
Y39900D01*
D02*
G37*
G36*
Y39050D02*
X2400D01*
X1600D01*
Y38300D01*
X1978D01*
X1990Y38252D01*
X1942Y38226D01*
X1817Y38124D01*
X1715Y37999D01*
X1639Y37856D01*
X1592Y37702D01*
X1576Y37541D01*
X1592Y37380D01*
X1639Y37226D01*
X1715Y37083D01*
X1817Y36958D01*
X1942Y36856D01*
X2085Y36780D01*
X2239Y36733D01*
X2400Y36717D01*
X2561Y36733D01*
X2715Y36780D01*
X2858Y36856D01*
X2983Y36958D01*
X3085Y37083D01*
X3161Y37226D01*
X3208Y37380D01*
X3224Y37541D01*
X3208Y37702D01*
X3161Y37856D01*
X3085Y37999D01*
X2983Y38124D01*
X2858Y38226D01*
X2810Y38252D01*
X2822Y38300D01*
X3200D01*
Y39050D01*
D02*
G37*
G36*
X2350Y39900D02*
X1600D01*
Y39150D01*
X2350D01*
Y39900D01*
D02*
G37*
G36*
X2820Y44471D02*
X1980D01*
Y43631D01*
X2820D01*
Y44471D01*
D02*
G37*
G36*
X2400Y43475D02*
X2290Y43460D01*
X2188Y43418D01*
X2100Y43351D01*
X2033Y43263D01*
X1991Y43161D01*
X1976Y43051D01*
X1991Y42942D01*
X2033Y42839D01*
X2100Y42752D01*
X2188Y42684D01*
X2290Y42642D01*
X2400Y42628D01*
X2510Y42642D01*
X2612Y42684D01*
X2700Y42752D01*
X2767Y42839D01*
X2809Y42942D01*
X2824Y43051D01*
X2809Y43161D01*
X2767Y43263D01*
X2700Y43351D01*
X2612Y43418D01*
X2510Y43460D01*
X2400Y43475D01*
D02*
G37*
%LPD*%
D10*
X17350Y18740D02*
X17470D01*
X17220Y18870D02*
X17350Y18740D01*
X16750Y18870D02*
X17220D01*
X16380Y18500D02*
X16750Y18870D01*
X16630Y19040D02*
X17450D01*
X16390Y18800D02*
X16630Y19040D01*
X16250Y18500D02*
X16380D01*
X16250Y18800D02*
X16390D01*
X2400Y25252D02*
X3718D01*
X14330Y15790D02*
X15230D01*
X13930Y15390D02*
X14330Y15790D01*
X11890Y15390D02*
X13930D01*
X13841Y15560D02*
X14790Y16509D01*
X11820Y15560D02*
X13841D01*
X13770Y15730D02*
X14480Y16440D01*
X11700Y15730D02*
X13770D01*
X13700Y15900D02*
X14210Y16410D01*
X11410Y15900D02*
X13700D01*
X14210Y16410D02*
Y16710D01*
X7660Y19470D02*
Y19870D01*
X7540Y19350D02*
X7660Y19470D01*
X7540Y18530D02*
Y19350D01*
X10350Y17940D02*
Y18110D01*
Y17940D02*
X10790Y17500D01*
X12550D01*
X10770Y17280D02*
X12750D01*
X10130Y17920D02*
X10770Y17280D01*
X10130Y17920D02*
Y18280D01*
X10250Y18400D01*
X13180Y26010D02*
Y27140D01*
X14790Y16509D02*
Y16700D01*
X14480Y16440D02*
Y16710D01*
X13010Y16140D02*
X13280D01*
X12990Y16120D02*
X13010Y16140D01*
X11050Y16120D02*
X12990D01*
X11200Y16360D02*
X13080D01*
X11600Y15630D02*
X11700Y15730D01*
X11020Y16580D02*
X13250D01*
X11590Y15090D02*
X11890Y15390D01*
X11620Y15360D02*
X11820Y15560D01*
X11410Y15630D02*
X11600D01*
X11400Y15360D02*
X11620D01*
X11430Y15090D02*
X11590D01*
X10840Y16800D02*
X13070D01*
X18940Y20330D02*
X20240D01*
X18940Y20060D02*
X20320D01*
X18930Y20320D02*
X18940Y20330D01*
X18930Y20050D02*
X18940Y20060D01*
X15720Y29560D02*
Y30900D01*
X15624Y29464D02*
X15720Y29560D01*
X15624Y29196D02*
Y29464D01*
X14876Y26770D02*
X14966Y26680D01*
X14876Y26770D02*
Y27004D01*
X14966Y25864D02*
Y26680D01*
Y25864D02*
X14970Y25860D01*
X15430Y29750D02*
Y30890D01*
X14876Y29196D02*
X15430Y29750D01*
X17150Y29390D02*
X17560Y29800D01*
X17150Y29180D02*
Y29390D01*
X9590Y23622D02*
X9808D01*
X9810Y23620D01*
X21400Y31100D02*
X22800D01*
X21400Y31400D02*
X22800D01*
X21190Y14640D02*
X21380D01*
X20630Y15200D02*
X21190Y14640D01*
X20450Y15200D02*
X20630D01*
X21120Y14960D02*
X21389D01*
X20660Y15420D02*
X21120Y14960D01*
X20400Y15250D02*
X20450Y15200D01*
X22240Y15700D02*
X22350D01*
X21780Y16150D02*
Y16160D01*
X20700Y8350D02*
X21090Y8740D01*
X20700Y8350D02*
Y8380D01*
X22090Y19190D02*
X23560D01*
X23570Y19180D01*
X22080D02*
X22090Y19190D01*
X22050Y19450D02*
X23570D01*
X18560Y41790D02*
X18850D01*
X18410Y41940D02*
X18560Y41790D01*
X21900Y41590D02*
X22040D01*
X21485Y41175D02*
X21900Y41590D01*
X20875Y41175D02*
X21485D01*
X22050Y41350D02*
X22190D01*
X21784Y41084D02*
X22050Y41350D01*
X22460Y20290D02*
X23560D01*
X23570Y20280D01*
X22450D02*
X22460Y20290D01*
X22450Y20550D02*
X23570D01*
X22250Y38530D02*
X22260Y38520D01*
X20850Y38530D02*
X22250D01*
X19480Y12990D02*
X20970D01*
X17900Y38540D02*
X19140D01*
X17251Y31819D02*
Y31960D01*
X17430Y32180D02*
X17720Y31890D01*
X16810Y31790D02*
X17300Y31300D01*
X8720Y10950D02*
X9300D01*
X11380Y13140D02*
X11920D01*
X18580Y21650D02*
X18590D01*
X17050Y26850D02*
X17450Y27250D01*
X13170Y26010D02*
X13180D01*
X13390Y26960D02*
X13400Y26970D01*
X13390Y25800D02*
Y26960D01*
X13380Y25790D02*
X13390Y25800D01*
X13566Y9676D02*
X14316D01*
X15310Y25850D02*
Y26990D01*
X16210Y11640D02*
X17260D01*
X13010Y13340D02*
X13610D01*
X14770Y13180D02*
X14790Y13200D01*
X15980D01*
X13380Y30870D02*
Y31850D01*
X13340Y31890D02*
X13380Y31850D01*
X13750Y30870D02*
Y31610D01*
X13640Y31720D02*
X13750Y31610D01*
X13970Y31530D02*
X14050Y31450D01*
Y30850D02*
Y31450D01*
X14310Y31350D02*
X14350Y31310D01*
Y30850D02*
Y31310D01*
X17251Y31819D02*
X17520Y31550D01*
X17700D01*
X16730Y32370D02*
X16920Y32180D01*
X17430D01*
X18200Y30600D02*
X18780Y31180D01*
X18000Y30800D02*
X18570Y31370D01*
X16440Y9820D02*
X17000D01*
X10691Y24961D02*
X11110Y25380D01*
X10761Y24791D02*
X11080Y25110D01*
X9690Y23910D02*
X11110D01*
X9810Y23620D02*
X9930Y23740D01*
X11180D01*
X11110Y23910D02*
X11640Y24440D01*
X11180Y23740D02*
X11610Y24170D01*
X10090Y24870D02*
X10219Y24741D01*
X10090Y24870D02*
Y25170D01*
X10090Y25170D01*
X11110Y25380D02*
X12970D01*
X10219Y24741D02*
X10401D01*
X10451Y24791D01*
X10761D01*
X11640Y24440D02*
X12830D01*
X11080Y25110D02*
X12870D01*
X11610Y24170D02*
X12850D01*
X10310Y24960D02*
Y24961D01*
X10691D01*
X21780Y16160D02*
X22240Y15700D01*
X20650Y40449D02*
X21451D01*
X7240Y23280D02*
Y23720D01*
X7060Y23100D02*
X7240Y23280D01*
X-4952Y-6455D02*
X40728D01*
X-4952Y-8305D02*
Y-6455D01*
Y-8305D02*
X40728D01*
Y-6455D01*
Y-5505D02*
Y-3655D01*
X-4952Y-5505D02*
X40728D01*
X-4952D02*
Y-3655D01*
X40728D01*
X4528Y-7021D02*
Y-7878D01*
X4570Y-7021D02*
Y-7878D01*
X4528Y-7021D02*
X4742D01*
X4528Y-7878D02*
X4742D01*
X4857Y-7107D02*
X4943Y-7064D01*
X5072Y-6935D01*
Y-7835D01*
X5774Y-6935D02*
X5646Y-6978D01*
X5560Y-7107D01*
X5517Y-7321D01*
Y-7449D01*
X5560Y-7664D01*
X5646Y-7792D01*
X5774Y-7835D01*
X5860D01*
X5989Y-7792D01*
X6074Y-7664D01*
X6117Y-7449D01*
Y-7321D01*
X6074Y-7107D01*
X5989Y-6978D01*
X5860Y-6935D01*
X5774D01*
X6833D02*
X6404D01*
X6361Y-7321D01*
X6404Y-7278D01*
X6533Y-7235D01*
X6661D01*
X6790Y-7278D01*
X6876Y-7364D01*
X6918Y-7492D01*
Y-7578D01*
X6876Y-7706D01*
X6790Y-7792D01*
X6661Y-7835D01*
X6533D01*
X6404Y-7792D01*
X6361Y-7749D01*
X6319Y-7664D01*
X7120Y-7107D02*
X7206Y-7064D01*
X7334Y-6935D01*
Y-7835D01*
X7823Y-7749D02*
X7780Y-7792D01*
X7823Y-7835D01*
X7865Y-7792D01*
X7823Y-7749D01*
X8320Y-6935D02*
X8191Y-6978D01*
X8105Y-7107D01*
X8063Y-7321D01*
Y-7449D01*
X8105Y-7664D01*
X8191Y-7792D01*
X8320Y-7835D01*
X8405D01*
X8534Y-7792D01*
X8620Y-7664D01*
X8662Y-7449D01*
Y-7321D01*
X8620Y-7107D01*
X8534Y-6978D01*
X8405Y-6935D01*
X8320D01*
X9121D02*
X8992Y-6978D01*
X8907Y-7107D01*
X8864Y-7321D01*
Y-7449D01*
X8907Y-7664D01*
X8992Y-7792D01*
X9121Y-7835D01*
X9207D01*
X9335Y-7792D01*
X9421Y-7664D01*
X9464Y-7449D01*
Y-7321D01*
X9421Y-7107D01*
X9335Y-6978D01*
X9207Y-6935D01*
X9121D01*
X9922D02*
X9794Y-6978D01*
X9708Y-7107D01*
X9665Y-7321D01*
Y-7449D01*
X9708Y-7664D01*
X9794Y-7792D01*
X9922Y-7835D01*
X10008D01*
X10136Y-7792D01*
X10222Y-7664D01*
X10265Y-7449D01*
Y-7321D01*
X10222Y-7107D01*
X10136Y-6978D01*
X10008Y-6935D01*
X9922D01*
X10895D02*
X10466Y-7535D01*
X11109D01*
X10895Y-6935D02*
Y-7835D01*
X11268Y-7107D02*
X11353Y-7064D01*
X11482Y-6935D01*
Y-7835D01*
X11970Y-7749D02*
X11927Y-7792D01*
X11970Y-7835D01*
X12013Y-7792D01*
X11970Y-7749D01*
X12467Y-6935D02*
X12339Y-6978D01*
X12253Y-7107D01*
X12210Y-7321D01*
Y-7449D01*
X12253Y-7664D01*
X12339Y-7792D01*
X12467Y-7835D01*
X12553D01*
X12682Y-7792D01*
X12767Y-7664D01*
X12810Y-7449D01*
Y-7321D01*
X12767Y-7107D01*
X12682Y-6978D01*
X12553Y-6935D01*
X12467D01*
X13269D02*
X13140Y-6978D01*
X13054Y-7107D01*
X13011Y-7321D01*
Y-7449D01*
X13054Y-7664D01*
X13140Y-7792D01*
X13269Y-7835D01*
X13354D01*
X13483Y-7792D01*
X13568Y-7664D01*
X13611Y-7449D01*
Y-7321D01*
X13568Y-7107D01*
X13483Y-6978D01*
X13354Y-6935D01*
X13269D01*
X13813Y-8135D02*
X14498D01*
X14871Y-6935D02*
X14743Y-6978D01*
X14657Y-7107D01*
X14614Y-7321D01*
Y-7449D01*
X14657Y-7664D01*
X14743Y-7792D01*
X14871Y-7835D01*
X14957D01*
X15085Y-7792D01*
X15171Y-7664D01*
X15214Y-7449D01*
Y-7321D01*
X15171Y-7107D01*
X15085Y-6978D01*
X14957Y-6935D01*
X14871D01*
X15415Y-7449D02*
X16186D01*
X17138Y-7835D02*
X16795Y-6935D01*
X16452Y-7835D01*
X16581Y-7535D02*
X17009D01*
X17391Y-7749D02*
X17348Y-7792D01*
X17391Y-7835D01*
X17433Y-7792D01*
X17391Y-7749D01*
X17716Y-6935D02*
X18187D01*
X17930Y-7278D01*
X18059D01*
X18145Y-7321D01*
X18187Y-7364D01*
X18230Y-7492D01*
Y-7578D01*
X18187Y-7706D01*
X18102Y-7792D01*
X17973Y-7835D01*
X17845D01*
X17716Y-7792D01*
X17673Y-7749D01*
X17630Y-7664D01*
X18603Y-7021D02*
Y-7878D01*
X18646Y-7021D02*
Y-7878D01*
X18432Y-7021D02*
X18646D01*
X18432Y-7878D02*
X18646D01*
X20159Y-7149D02*
X20116Y-7064D01*
X20030Y-6978D01*
X19944Y-6935D01*
X19773D01*
X19687Y-6978D01*
X19601Y-7064D01*
X19559Y-7149D01*
X19516Y-7278D01*
Y-7492D01*
X19559Y-7621D01*
X19601Y-7706D01*
X19687Y-7792D01*
X19773Y-7835D01*
X19944D01*
X20030Y-7792D01*
X20116Y-7706D01*
X20159Y-7621D01*
X20411Y-6935D02*
Y-7835D01*
Y-6935D02*
X20797D01*
X20925Y-6978D01*
X20968Y-7021D01*
X21011Y-7107D01*
Y-7192D01*
X20968Y-7278D01*
X20925Y-7321D01*
X20797Y-7364D01*
X20411D02*
X20797D01*
X20925Y-7407D01*
X20968Y-7449D01*
X21011Y-7535D01*
Y-7664D01*
X20968Y-7749D01*
X20925Y-7792D01*
X20797Y-7835D01*
X20411D01*
X21812Y-7064D02*
X21727Y-6978D01*
X21598Y-6935D01*
X21427D01*
X21298Y-6978D01*
X21213Y-7064D01*
Y-7149D01*
X21255Y-7235D01*
X21298Y-7278D01*
X21384Y-7321D01*
X21641Y-7407D01*
X21727Y-7449D01*
X21770Y-7492D01*
X21812Y-7578D01*
Y-7706D01*
X21727Y-7792D01*
X21598Y-7835D01*
X21427D01*
X21298Y-7792D01*
X21213Y-7706D01*
X22057Y-7149D02*
Y-7107D01*
X22100Y-7021D01*
X22142Y-6978D01*
X22228Y-6935D01*
X22399D01*
X22485Y-6978D01*
X22528Y-7021D01*
X22571Y-7107D01*
Y-7192D01*
X22528Y-7278D01*
X22442Y-7407D01*
X22014Y-7835D01*
X22614D01*
X22815Y-7107D02*
X22901Y-7064D01*
X23029Y-6935D01*
Y-7835D01*
X23732Y-6935D02*
X23603Y-6978D01*
X23518Y-7107D01*
X23475Y-7321D01*
Y-7449D01*
X23518Y-7664D01*
X23603Y-7792D01*
X23732Y-7835D01*
X23818D01*
X23946Y-7792D01*
X24032Y-7664D01*
X24075Y-7449D01*
Y-7321D01*
X24032Y-7107D01*
X23946Y-6978D01*
X23818Y-6935D01*
X23732D01*
X24533D02*
X24405Y-6978D01*
X24319Y-7107D01*
X24276Y-7321D01*
Y-7449D01*
X24319Y-7664D01*
X24405Y-7792D01*
X24533Y-7835D01*
X24619D01*
X24748Y-7792D01*
X24833Y-7664D01*
X24876Y-7449D01*
Y-7321D01*
X24833Y-7107D01*
X24748Y-6978D01*
X24619Y-6935D01*
X24533D01*
X25634D02*
X25077D01*
Y-7835D01*
X25634D01*
X25077Y-7364D02*
X25420D01*
X26341Y-6935D02*
X25784D01*
Y-7835D01*
X26341D01*
X25784Y-7364D02*
X26127D01*
X26534Y-7749D02*
X26491Y-7792D01*
X26534Y-7835D01*
X26577Y-7792D01*
X26534Y-7749D01*
X27417Y-7149D02*
X27374Y-7064D01*
X27288Y-6978D01*
X27203Y-6935D01*
X27031D01*
X26946Y-6978D01*
X26860Y-7064D01*
X26817Y-7149D01*
X26774Y-7278D01*
Y-7492D01*
X26817Y-7621D01*
X26860Y-7706D01*
X26946Y-7792D01*
X27031Y-7835D01*
X27203D01*
X27288Y-7792D01*
X27374Y-7706D01*
X27417Y-7621D01*
Y-7492D01*
X27203D02*
X27417D01*
X27923Y-6935D02*
Y-7835D01*
X27623Y-6935D02*
X28222D01*
X28330D02*
Y-7835D01*
X28844D01*
X-4462Y-7407D02*
X-4077D01*
X-3948Y-7364D01*
X-3905Y-7321D01*
X-3863Y-7235D01*
Y-7107D01*
X-3905Y-7021D01*
X-3948Y-6978D01*
X-4077Y-6935D01*
X-4462D01*
Y-7835D01*
X-3661Y-6935D02*
Y-7835D01*
X-3147D01*
X-2791Y-6935D02*
X-2877Y-6978D01*
X-2963Y-7064D01*
X-3006Y-7149D01*
X-3048Y-7278D01*
Y-7492D01*
X-3006Y-7621D01*
X-2963Y-7706D01*
X-2877Y-7792D01*
X-2791Y-7835D01*
X-2620D01*
X-2534Y-7792D01*
X-2449Y-7706D01*
X-2406Y-7621D01*
X-2363Y-7492D01*
Y-7278D01*
X-2406Y-7149D01*
X-2449Y-7064D01*
X-2534Y-6978D01*
X-2620Y-6935D01*
X-2791D01*
X-1853D02*
Y-7835D01*
X-2153Y-6935D02*
X-1553D01*
X-739D02*
Y-7835D01*
Y-6935D02*
X-182D01*
X-739Y-7364D02*
X-396D01*
X-79Y-6935D02*
Y-7835D01*
X109Y-6935D02*
Y-7835D01*
X624D01*
X1279Y-6935D02*
X722D01*
Y-7835D01*
X1279D01*
X722Y-7364D02*
X1065D01*
X1472Y-7235D02*
X1429Y-7278D01*
X1472Y-7321D01*
X1515Y-7278D01*
X1472Y-7235D01*
Y-7749D02*
X1429Y-7792D01*
X1472Y-7835D01*
X1515Y-7792D01*
X1472Y-7749D01*
X-4462Y-4135D02*
Y-5035D01*
X-3948D01*
X-3164D02*
X-3507Y-4135D01*
X-3850Y-5035D01*
X-3721Y-4735D02*
X-3293D01*
X-2954Y-4135D02*
X-2611Y-4564D01*
Y-5035D01*
X-2269Y-4135D02*
X-2611Y-4564D01*
X-1596Y-4135D02*
X-2153D01*
Y-5035D01*
X-1596D01*
X-2153Y-4564D02*
X-1810D01*
X-1446Y-4135D02*
Y-5035D01*
Y-4135D02*
X-1060D01*
X-932Y-4178D01*
X-889Y-4221D01*
X-846Y-4307D01*
Y-4392D01*
X-889Y-4478D01*
X-932Y-4521D01*
X-1060Y-4564D01*
X-1446D01*
X-1146D02*
X-846Y-5035D01*
X62Y-4135D02*
Y-5035D01*
Y-4135D02*
X662Y-5035D01*
Y-4135D02*
Y-5035D01*
X1596D02*
X1253Y-4135D01*
X911Y-5035D01*
X1039Y-4735D02*
X1468D01*
X1806Y-4135D02*
Y-5035D01*
Y-4135D02*
X2149Y-5035D01*
X2492Y-4135D02*
X2149Y-5035D01*
X2492Y-4135D02*
Y-5035D01*
X3306Y-4135D02*
X2749D01*
Y-5035D01*
X3306D01*
X2749Y-4564D02*
X3092D01*
X3499Y-4435D02*
X3456Y-4478D01*
X3499Y-4521D01*
X3542Y-4478D01*
X3499Y-4435D01*
Y-4949D02*
X3456Y-4992D01*
X3499Y-5035D01*
X3542Y-4992D01*
X3499Y-4949D01*
X4827Y-4135D02*
Y-5035D01*
X4528Y-4135D02*
X5127D01*
X5449Y-4435D02*
X5363Y-4478D01*
X5277Y-4564D01*
X5235Y-4692D01*
Y-4778D01*
X5277Y-4906D01*
X5363Y-4992D01*
X5449Y-5035D01*
X5577D01*
X5663Y-4992D01*
X5749Y-4906D01*
X5792Y-4778D01*
Y-4692D01*
X5749Y-4564D01*
X5663Y-4478D01*
X5577Y-4435D01*
X5449D01*
X5989D02*
Y-5335D01*
Y-4564D02*
X6074Y-4478D01*
X6160Y-4435D01*
X6289D01*
X6374Y-4478D01*
X6460Y-4564D01*
X6503Y-4692D01*
Y-4778D01*
X6460Y-4906D01*
X6374Y-4992D01*
X6289Y-5035D01*
X6160D01*
X6074Y-4992D01*
X5989Y-4906D01*
X7403Y-4135D02*
Y-5035D01*
X7917D01*
X8530Y-4435D02*
Y-5035D01*
Y-4564D02*
X8444Y-4478D01*
X8358Y-4435D01*
X8230D01*
X8144Y-4478D01*
X8058Y-4564D01*
X8015Y-4692D01*
Y-4778D01*
X8058Y-4906D01*
X8144Y-4992D01*
X8230Y-5035D01*
X8358D01*
X8444Y-4992D01*
X8530Y-4906D01*
X8812Y-4435D02*
X9069Y-5035D01*
X9327Y-4435D02*
X9069Y-5035D01*
X8984Y-5206D01*
X8898Y-5292D01*
X8812Y-5335D01*
X8770D01*
X9477Y-4692D02*
X9991D01*
Y-4607D01*
X9948Y-4521D01*
X9905Y-4478D01*
X9819Y-4435D01*
X9691D01*
X9605Y-4478D01*
X9519Y-4564D01*
X9477Y-4692D01*
Y-4778D01*
X9519Y-4906D01*
X9605Y-4992D01*
X9691Y-5035D01*
X9819D01*
X9905Y-4992D01*
X9991Y-4906D01*
X10183Y-4435D02*
Y-5035D01*
Y-4692D02*
X10226Y-4564D01*
X10312Y-4478D01*
X10398Y-4435D01*
X10526D01*
D11*
X17400Y17760D02*
X17490D01*
X17150Y18010D02*
X17400Y17760D01*
X17490D02*
X18050Y17200D01*
X17150Y18010D02*
Y18280D01*
X4190Y19020D02*
X4530D01*
X3735Y22145D02*
X4005D01*
X3780Y26820D02*
X4005Y27045D01*
X2400Y19016D02*
X2404Y19020D01*
X4190D01*
X2400Y22134D02*
X2411Y22145D01*
X3735D01*
X2400Y26811D02*
X2409Y26820D01*
X3780D01*
X17835Y16985D02*
X18050Y17200D01*
X7130Y19210D02*
Y19760D01*
X7870Y20500D01*
X7130Y18900D02*
Y19210D01*
X7870Y20500D02*
Y20800D01*
D12*
X2400Y8087D02*
X3467D01*
X2400D02*
Y9210D01*
X1273Y8087D02*
X2400D01*
D13*
Y33047D02*
D03*
Y25252D02*
D03*
Y39100D02*
D03*
Y15898D02*
D03*
Y8087D02*
D03*
D14*
Y31488D02*
D03*
Y29929D02*
D03*
Y28370D02*
D03*
Y26811D02*
D03*
Y23693D02*
D03*
Y22134D02*
D03*
Y20575D02*
D03*
Y19016D02*
D03*
Y37541D02*
D03*
Y14339D02*
D03*
Y12780D02*
D03*
Y11220D02*
D03*
Y4969D02*
D03*
Y6528D02*
D03*
D15*
X8734Y26622D02*
D03*
D16*
Y26122D02*
D03*
Y25622D02*
D03*
Y25122D02*
D03*
Y24622D02*
D03*
Y24122D02*
D03*
Y23622D02*
D03*
Y23122D02*
D03*
Y22622D02*
D03*
Y22122D02*
D03*
Y21622D02*
D03*
Y21122D02*
D03*
Y20622D02*
D03*
Y20122D02*
D03*
Y19622D02*
D03*
X9500Y35135D02*
D03*
X10000D02*
D03*
X10500D02*
D03*
X11000D02*
D03*
X11500D02*
D03*
X12000D02*
D03*
X12500D02*
D03*
X13000D02*
D03*
X13500D02*
D03*
X14000D02*
D03*
X14500D02*
D03*
X15000D02*
D03*
X15500D02*
D03*
X16000D02*
D03*
D17*
X20147Y29263D02*
D03*
X8730D02*
D03*
X20147Y16980D02*
D03*
X8730D02*
D03*
X6358Y46549D02*
D03*
Y35131D02*
D03*
X18642Y46549D02*
D03*
Y35131D02*
D03*
D18*
X9000Y35135D02*
D03*
D19*
X6228Y9659D02*
D03*
X7670Y4560D02*
D03*
Y5560D02*
D03*
X2400Y43051D02*
D03*
X5561Y2958D02*
D03*
X7671D02*
D03*
X18041Y3318D02*
D03*
D20*
X7900Y8930D02*
D03*
X9900D02*
D03*
X15790Y49180D02*
D03*
X14790D02*
D03*
X13790D02*
D03*
X10500D02*
D03*
X9500D02*
D03*
X8500D02*
D03*
D21*
X16790D02*
D03*
X11500D02*
D03*
D22*
X2400Y44051D02*
D03*
D23*
X11080Y40010D02*
D03*
D24*
X12080D02*
D03*
X13080D02*
D03*
D25*
X23120Y49370D02*
D03*
Y1880D02*
D03*
X1880D02*
D03*
Y49370D02*
D03*
D26*
X23228Y9843D02*
D03*
D27*
Y8858D02*
D03*
Y7874D02*
D03*
Y6890D02*
D03*
Y5906D02*
D03*
D28*
X3540Y12120D02*
D03*
X3560Y13460D02*
D03*
X17150Y18280D02*
D03*
Y18010D02*
D03*
X4530Y19020D02*
D03*
X4005Y22145D02*
D03*
Y27045D02*
D03*
X4190Y19020D02*
D03*
X3735Y22145D02*
D03*
X3718Y25252D02*
D03*
X3780Y26820D02*
D03*
X15230Y15790D02*
D03*
X17835Y16985D02*
D03*
X18050Y17200D02*
D03*
X7130Y19210D02*
D03*
Y18900D02*
D03*
X7540Y18530D02*
D03*
X7660Y19870D02*
D03*
X10350Y18110D02*
D03*
X10250Y18400D02*
D03*
X13280Y16140D02*
D03*
X11050Y16120D02*
D03*
X11410Y15900D02*
D03*
X13080Y16360D02*
D03*
X11200D02*
D03*
X11020Y16580D02*
D03*
X11410Y15630D02*
D03*
X11400Y15360D02*
D03*
X11430Y15090D02*
D03*
X13250Y16580D02*
D03*
X12810Y14350D02*
D03*
X13070Y16800D02*
D03*
X14170Y14360D02*
D03*
X14790Y16700D02*
D03*
X14820Y17710D02*
D03*
X14210Y16710D02*
D03*
X14480D02*
D03*
X15530Y14360D02*
D03*
X20240Y20330D02*
D03*
X20320Y20060D02*
D03*
X20390Y19540D02*
D03*
X18930Y20050D02*
D03*
Y20320D02*
D03*
X18650Y19800D02*
D03*
X20390Y20840D02*
D03*
X19000Y16460D02*
D03*
X18270Y15030D02*
D03*
X15624Y29196D02*
D03*
X14876Y27004D02*
D03*
Y29196D02*
D03*
X17150Y29180D02*
D03*
X17670Y29130D02*
D03*
X9590Y23622D02*
D03*
X6650Y26770D02*
D03*
X4850Y26890D02*
D03*
X7940Y32770D02*
D03*
X7770Y34310D02*
D03*
X6230Y33220D02*
D03*
X9550Y33330D02*
D03*
X9570Y30730D02*
D03*
X5140Y30660D02*
D03*
X3990Y21360D02*
D03*
X1460Y21780D02*
D03*
X12170Y27050D02*
D03*
X22440Y29210D02*
D03*
X20570Y31770D02*
D03*
X20430Y33070D02*
D03*
X19940Y34380D02*
D03*
X17950Y33610D02*
D03*
X14990Y32730D02*
D03*
X16040Y33680D02*
D03*
X24440Y47830D02*
D03*
X24480Y34530D02*
D03*
X7870Y20800D02*
D03*
X22800Y31100D02*
D03*
X21400Y31400D02*
D03*
X22800D02*
D03*
X21400Y31100D02*
D03*
X22254Y27684D02*
D03*
Y26636D02*
D03*
X22350Y15700D02*
D03*
X20400Y15250D02*
D03*
X20660Y15420D02*
D03*
X21780Y16150D02*
D03*
X21389Y14960D02*
D03*
X21380Y14640D02*
D03*
X12750Y17280D02*
D03*
X12550Y17500D02*
D03*
X21060Y6430D02*
D03*
X21090Y3100D02*
D03*
X20700Y8350D02*
D03*
X21090Y8740D02*
D03*
X21170Y9110D02*
D03*
X4040Y7000D02*
D03*
Y7580D02*
D03*
Y8100D02*
D03*
Y8590D02*
D03*
X23180Y24500D02*
D03*
X20130Y18500D02*
D03*
X11300Y31850D02*
D03*
X14270Y26970D02*
D03*
X14040Y25790D02*
D03*
X18130Y43690D02*
D03*
X10630Y36820D02*
D03*
X1380Y24270D02*
D03*
X1390Y27550D02*
D03*
X1270Y17540D02*
D03*
X1400Y13560D02*
D03*
X3890Y10680D02*
D03*
X7160Y10390D02*
D03*
X16840Y7820D02*
D03*
X6570Y1580D02*
D03*
X18170Y13090D02*
D03*
X17210Y14150D02*
D03*
X15840D02*
D03*
X14480D02*
D03*
X13110D02*
D03*
X15960Y11000D02*
D03*
X15930Y10390D02*
D03*
X15950Y12490D02*
D03*
X14770Y11330D02*
D03*
X14800Y12460D02*
D03*
X14810Y10360D02*
D03*
X20010Y9320D02*
D03*
X20020Y10560D02*
D03*
Y11530D02*
D03*
X20010Y12480D02*
D03*
X19090Y10380D02*
D03*
X20020Y13580D02*
D03*
X7150Y15810D02*
D03*
X7750Y44540D02*
D03*
X4330Y46340D02*
D03*
X4350Y43570D02*
D03*
X4020Y41390D02*
D03*
X2350Y41180D02*
D03*
X9690Y41640D02*
D03*
X7210Y42760D02*
D03*
X8790Y39070D02*
D03*
X4260Y38850D02*
D03*
X7510Y37920D02*
D03*
X8620Y42100D02*
D03*
X9040Y42540D02*
D03*
X9530Y42830D02*
D03*
X14310Y9120D02*
D03*
X19960Y5750D02*
D03*
X23570Y19180D02*
D03*
X22080D02*
D03*
X23570Y19450D02*
D03*
X22050D02*
D03*
X18410Y41940D02*
D03*
X20650Y40450D02*
D03*
X18850Y41790D02*
D03*
X20875Y41175D02*
D03*
X21451Y40449D02*
D03*
X21784Y41084D02*
D03*
X22040Y41590D02*
D03*
X22190Y41350D02*
D03*
X23570Y20280D02*
D03*
X22450D02*
D03*
X23570Y20550D02*
D03*
X22450D02*
D03*
X22260Y38520D02*
D03*
X20850Y38530D02*
D03*
X20970Y12990D02*
D03*
X19480D02*
D03*
X21650Y45166D02*
D03*
X19140Y38540D02*
D03*
X17900D02*
D03*
X17251Y31960D02*
D03*
X16810Y31790D02*
D03*
X9820Y6430D02*
D03*
X8720Y10950D02*
D03*
X9300D02*
D03*
X11380Y13140D02*
D03*
X11920D02*
D03*
X9874Y11276D02*
D03*
X17470Y18740D02*
D03*
X17450Y19040D02*
D03*
X16250Y18800D02*
D03*
Y18500D02*
D03*
X10840Y16800D02*
D03*
X7870Y20500D02*
D03*
X18594Y15914D02*
D03*
Y17014D02*
D03*
X18590Y21650D02*
D03*
X16772Y26768D02*
D03*
X16398Y27098D02*
D03*
X17050Y26850D02*
D03*
X17450Y27250D02*
D03*
X17700Y19860D02*
D03*
X17970Y21700D02*
D03*
X14970Y25860D02*
D03*
X6280Y41790D02*
D03*
X13180Y27140D02*
D03*
X13170Y26010D02*
D03*
X13400Y26970D02*
D03*
X13380Y25790D02*
D03*
X14316Y9676D02*
D03*
X13566D02*
D03*
X22000Y21000D02*
D03*
X22100Y23220D02*
D03*
X20530Y27290D02*
D03*
X15310Y26990D02*
D03*
Y25850D02*
D03*
X17970Y27290D02*
D03*
X17260Y11640D02*
D03*
X16210D02*
D03*
X13010Y13340D02*
D03*
X13610D02*
D03*
X14770Y13180D02*
D03*
X15980Y13200D02*
D03*
X24390Y13700D02*
D03*
Y14780D02*
D03*
X22000Y4580D02*
D03*
X22640Y11050D02*
D03*
X18880Y17970D02*
D03*
X11330Y14450D02*
D03*
X11250Y13670D02*
D03*
X16820Y15910D02*
D03*
X18740Y4240D02*
D03*
X8210Y7720D02*
D03*
X19710Y15470D02*
D03*
X420Y3880D02*
D03*
X22880Y15930D02*
D03*
X21980Y15340D02*
D03*
X10600Y11270D02*
D03*
X4130Y33630D02*
D03*
X2120Y46410D02*
D03*
X9760Y43660D02*
D03*
X7200Y43710D02*
D03*
X5010Y18720D02*
D03*
X6440Y22840D02*
D03*
X3940Y28560D02*
D03*
X9470Y45490D02*
D03*
X7950Y46280D02*
D03*
X4050Y31620D02*
D03*
X4000Y23920D02*
D03*
X12650Y33450D02*
D03*
X10820Y48080D02*
D03*
X13870Y45560D02*
D03*
X11770Y34330D02*
D03*
X3360Y47650D02*
D03*
X8180Y48080D02*
D03*
X13200Y46940D02*
D03*
X16220Y46090D02*
D03*
X10740Y45970D02*
D03*
X14940Y41570D02*
D03*
X16540Y43730D02*
D03*
X17720Y47950D02*
D03*
X16320Y47660D02*
D03*
X20330Y46270D02*
D03*
X10420Y15880D02*
D03*
X20870Y43460D02*
D03*
X10100Y19140D02*
D03*
X16470Y41100D02*
D03*
X17300Y37430D02*
D03*
X14550Y36660D02*
D03*
X11570Y36400D02*
D03*
X19250Y39090D02*
D03*
X13660Y29770D02*
D03*
X9610Y38460D02*
D03*
X6010Y14520D02*
D03*
X12220Y45530D02*
D03*
X10090Y46940D02*
D03*
X13340Y36490D02*
D03*
X16210Y31950D02*
D03*
X12880Y30180D02*
D03*
X12840Y28550D02*
D03*
X17860Y39410D02*
D03*
X20140Y40950D02*
D03*
X18320Y31790D02*
D03*
X19480Y36440D02*
D03*
X20740Y35060D02*
D03*
X21220Y48660D02*
D03*
X20550Y39000D02*
D03*
X19220Y38110D02*
D03*
X19250Y40950D02*
D03*
X14880Y40060D02*
D03*
X11870Y41630D02*
D03*
X14910Y30970D02*
D03*
X11330Y1750D02*
D03*
X23660Y18670D02*
D03*
X17510Y7820D02*
D03*
X20120Y7170D02*
D03*
X23630Y11120D02*
D03*
X8230Y3750D02*
D03*
X20050Y8130D02*
D03*
X14890Y9080D02*
D03*
X490Y31800D02*
D03*
X500Y30370D02*
D03*
Y28630D02*
D03*
X12140Y17990D02*
D03*
X490Y34100D02*
D03*
X3570Y17300D02*
D03*
X6340Y17490D02*
D03*
X7230Y25950D02*
D03*
X430Y37200D02*
D03*
X480Y39160D02*
D03*
X15380Y8880D02*
D03*
X12100Y19470D02*
D03*
X24590Y6675D02*
D03*
X24570Y475D02*
D03*
X10040Y350D02*
D03*
X7120Y330D02*
D03*
X18670Y390D02*
D03*
X15930Y20300D02*
D03*
X23550Y12970D02*
D03*
X8330Y2240D02*
D03*
X20020Y4560D02*
D03*
X8430Y370D02*
D03*
X3830Y4920D02*
D03*
X17170Y5700D02*
D03*
X9100Y6430D02*
D03*
X16710Y3570D02*
D03*
X11300Y9050D02*
D03*
X7440Y8230D02*
D03*
X4990Y6720D02*
D03*
X13670Y1780D02*
D03*
X11540Y10740D02*
D03*
X19260Y2970D02*
D03*
X19250Y24500D02*
D03*
X24520Y16035D02*
D03*
Y18035D02*
D03*
Y20035D02*
D03*
Y22035D02*
D03*
Y24035D02*
D03*
X21180Y19590D02*
D03*
X21670Y17570D02*
D03*
X9790Y16020D02*
D03*
X24520Y32035D02*
D03*
X17040Y30980D02*
D03*
X24400Y50840D02*
D03*
X12540Y49690D02*
D03*
X20400Y50840D02*
D03*
X18400D02*
D03*
X16400D02*
D03*
X14400D02*
D03*
X12400D02*
D03*
X10280D02*
D03*
X8400D02*
D03*
X6400D02*
D03*
X4400D02*
D03*
X5040Y47770D02*
D03*
X400Y50840D02*
D03*
X13250Y43840D02*
D03*
X10800Y43820D02*
D03*
X400Y47760D02*
D03*
X490Y46390D02*
D03*
X500Y44820D02*
D03*
Y42820D02*
D03*
X12100Y20930D02*
D03*
Y20190D02*
D03*
X12830Y17840D02*
D03*
X13450Y17630D02*
D03*
X4750Y4010D02*
D03*
X24600Y9945D02*
D03*
X1420Y19790D02*
D03*
X24580Y3645D02*
D03*
X10830Y12100D02*
D03*
X5540Y330D02*
D03*
X10520Y7340D02*
D03*
X16450Y400D02*
D03*
X13670D02*
D03*
X20380Y460D02*
D03*
X21600Y470D02*
D03*
X3930Y330D02*
D03*
X440Y420D02*
D03*
X21940Y18510D02*
D03*
X12879Y20039D02*
D03*
X14030Y17620D02*
D03*
X10400Y5670D02*
D03*
X6640Y3960D02*
D03*
X12100Y21610D02*
D03*
X13680Y23090D02*
D03*
X12120Y18750D02*
D03*
X15670Y18220D02*
D03*
X15580Y17710D02*
D03*
X15730Y18900D02*
D03*
X15930Y19620D02*
D03*
X19060Y9260D02*
D03*
X7760Y11040D02*
D03*
X9180Y7560D02*
D03*
X15950Y8180D02*
D03*
X24610Y12450D02*
D03*
X10850Y10060D02*
D03*
X10200Y20800D02*
D03*
X17240Y16300D02*
D03*
X17560Y18390D02*
D03*
X4000Y15898D02*
D03*
X8320Y6580D02*
D03*
X7730Y36470D02*
D03*
X7060Y6680D02*
D03*
X16410Y7810D02*
D03*
X5150Y8850D02*
D03*
X9500Y10060D02*
D03*
X8140Y9940D02*
D03*
X13620Y20130D02*
D03*
X18070Y2000D02*
D03*
X13620Y21560D02*
D03*
X15760Y23140D02*
D03*
X15870Y22200D02*
D03*
X15930Y21620D02*
D03*
Y21000D02*
D03*
X500Y40690D02*
D03*
X22950Y46860D02*
D03*
X20630Y38180D02*
D03*
X8490Y36470D02*
D03*
Y37510D02*
D03*
X13740Y37500D02*
D03*
X14451Y38209D02*
D03*
X6300Y37590D02*
D03*
X6544Y39866D02*
D03*
X5240Y41790D02*
D03*
Y45340D02*
D03*
X6260Y30570D02*
D03*
X6800Y30210D02*
D03*
X6040Y8630D02*
D03*
X9480Y6420D02*
D03*
X16130Y2930D02*
D03*
X3860Y2980D02*
D03*
X6940Y7660D02*
D03*
X10430Y4620D02*
D03*
X17290Y1400D02*
D03*
X12520Y11360D02*
D03*
X17820Y11140D02*
D03*
X10600Y11700D02*
D03*
X16900Y15040D02*
D03*
X17560Y29800D02*
D03*
X13380Y30870D02*
D03*
X13340Y31890D02*
D03*
X13750Y30870D02*
D03*
X13640Y31720D02*
D03*
X13970Y31530D02*
D03*
X14050Y30850D02*
D03*
X14310Y31350D02*
D03*
X14350Y30850D02*
D03*
X15430Y30890D02*
D03*
X15720Y30900D02*
D03*
X17700Y31550D02*
D03*
X17300Y31300D02*
D03*
X16730Y32370D02*
D03*
X17720Y31890D02*
D03*
X18200Y30600D02*
D03*
X18780Y31180D02*
D03*
X18000Y30800D02*
D03*
X18570Y31370D02*
D03*
X17000Y9820D02*
D03*
X16440D02*
D03*
X17180Y7820D02*
D03*
X16090Y7810D02*
D03*
X11527Y5703D02*
D03*
X10858Y6332D02*
D03*
X11527Y6747D02*
D03*
X13500Y23950D02*
D03*
X9690Y23910D02*
D03*
X490Y35270D02*
D03*
X4680Y35400D02*
D03*
X6830Y37020D02*
D03*
X8630Y30760D02*
D03*
X8560Y27800D02*
D03*
X19190Y14630D02*
D03*
X19080Y30140D02*
D03*
X10090Y25170D02*
D03*
X12970Y25380D02*
D03*
X12830Y24440D02*
D03*
X12870Y25110D02*
D03*
X12850Y24170D02*
D03*
X10310Y24961D02*
D03*
X19170Y43600D02*
D03*
X19640Y27970D02*
D03*
X7820Y18030D02*
D03*
X18130Y44680D02*
D03*
X4820Y23100D02*
D03*
X5980Y28280D02*
D03*
X5390Y27700D02*
D03*
X7060Y23100D02*
D03*
X7240Y23720D02*
D03*
X5910Y20480D02*
D03*
X5380Y23720D02*
D03*
X6190Y18610D02*
D03*
X5250Y37600D02*
D03*
M02*
