G04 Layer_Physical_Order=2*
G04 Layer_Color=16711680*
%FSLAX24Y24*%
%MOIN*%
G70*
G01*
G75*
%ADD10C,0.0100*%
%ADD11C,0.0200*%
%ADD12C,0.0300*%
%ADD13R,0.1400X0.1400*%
%ADD14C,0.1400*%
%ADD15R,0.0394X0.0394*%
%ADD16C,0.0394*%
%ADD17C,0.0787*%
%ADD18R,0.0394X0.0394*%
%ADD19C,0.0600*%
%ADD20C,0.0750*%
%ADD21R,0.0750X0.0750*%
%ADD22R,0.0600X0.0600*%
%ADD23R,0.0472X0.0472*%
%ADD24C,0.0472*%
%ADD25C,0.1500*%
%ADD26R,0.0630X0.0630*%
%ADD27C,0.0630*%
%ADD28C,0.0200*%
%ADD29C,0.0180*%
%ADD30C,0.0120*%
%ADD31R,0.0480X0.0360*%
%ADD32R,0.0400X0.0315*%
%ADD33R,0.0512X0.0591*%
%ADD34R,0.0256X0.0453*%
%ADD35R,0.0591X0.0512*%
%ADD36R,0.0354X0.0374*%
%ADD37R,0.0354X0.0374*%
%ADD38R,0.0360X0.0500*%
%ADD39R,0.0360X0.0360*%
%ADD40R,0.0236X0.0748*%
%ADD41R,0.0827X0.1102*%
%ADD42R,0.0236X0.0728*%
%ADD43R,0.0748X0.0374*%
%ADD44R,0.2717X0.2165*%
%ADD45R,0.0500X0.0500*%
%ADD46R,0.0866X0.0217*%
%ADD47R,0.1063X0.0709*%
%ADD48R,0.0787X0.2165*%
%ADD49O,0.0118X0.0827*%
%ADD50O,0.0827X0.0118*%
%ADD51C,0.0400*%
G36*
X23347Y24914D02*
Y23826D01*
X23300Y23807D01*
X22583Y24524D01*
X22527Y24562D01*
X22461Y24575D01*
X22298D01*
X22293Y24625D01*
X22344Y24635D01*
X22400Y24673D01*
X22511Y24783D01*
X23079D01*
X23145Y24796D01*
X23201Y24834D01*
X23300Y24933D01*
X23347Y24914D01*
D02*
G37*
G36*
X17700Y25826D02*
X20576D01*
Y23174D01*
X17700D01*
X17621Y23159D01*
X17596Y23174D01*
X17577Y23192D01*
X17582Y23220D01*
X17568Y23290D01*
X17549Y23319D01*
X17568Y23347D01*
X17582Y23417D01*
X17568Y23487D01*
X17549Y23516D01*
X17568Y23544D01*
X17582Y23614D01*
X17568Y23684D01*
X17549Y23713D01*
X17568Y23741D01*
X17582Y23811D01*
X17568Y23881D01*
X17549Y23909D01*
X17568Y23938D01*
X17582Y24008D01*
X17568Y24078D01*
X17549Y24106D01*
X17568Y24135D01*
X17582Y24205D01*
X17568Y24275D01*
X17549Y24303D01*
X17568Y24332D01*
X17582Y24402D01*
X17568Y24471D01*
X17549Y24500D01*
X17568Y24529D01*
X17582Y24598D01*
X17568Y24668D01*
X17549Y24697D01*
X17568Y24725D01*
X17582Y24795D01*
X17568Y24865D01*
X17549Y24894D01*
X17568Y24922D01*
X17582Y24992D01*
X17568Y25062D01*
X17549Y25091D01*
X17568Y25119D01*
X17582Y25189D01*
X17568Y25259D01*
X17549Y25287D01*
X17568Y25316D01*
X17582Y25386D01*
X17568Y25456D01*
X17549Y25484D01*
X17568Y25513D01*
X17582Y25583D01*
X17568Y25653D01*
X17549Y25681D01*
X17568Y25710D01*
X17582Y25780D01*
X17577Y25808D01*
X17596Y25826D01*
X17621Y25841D01*
X17700Y25826D01*
D02*
G37*
G36*
X13380Y24599D02*
Y24560D01*
X13736D01*
Y24460D01*
X13380D01*
Y24115D01*
X13714D01*
X13733Y24069D01*
X13647Y23983D01*
X13610Y23926D01*
X13597Y23860D01*
Y23612D01*
X13481Y23496D01*
X13294D01*
Y23699D01*
X12574D01*
X12554Y23749D01*
X12713Y23907D01*
X12750Y23964D01*
X12800Y23956D01*
X12850Y23946D01*
X12936Y23963D01*
X12987Y23997D01*
X12990D01*
X13056Y24010D01*
X13113Y24047D01*
X13233Y24167D01*
X13270Y24224D01*
X13283Y24290D01*
X13283Y24290D01*
Y24568D01*
X13334Y24618D01*
X13380Y24599D01*
D02*
G37*
G36*
X9567Y27534D02*
Y27342D01*
X9227Y27003D01*
X9190Y26946D01*
X9177Y26880D01*
Y25795D01*
X9000D01*
X8960Y25848D01*
Y25896D01*
X9010Y25962D01*
X9042Y26039D01*
X9053Y26122D01*
X9042Y26204D01*
X9013Y26275D01*
X9031Y26325D01*
X9031D01*
Y26572D01*
X8734D01*
Y26622D01*
X8684D01*
Y26919D01*
X8437D01*
Y26919D01*
X8430Y26922D01*
X8418Y26981D01*
X8583Y27146D01*
X9020D01*
X9106Y27163D01*
X9179Y27211D01*
X9520Y27553D01*
X9567Y27534D01*
D02*
G37*
G36*
X4850Y25635D02*
X5801D01*
Y25428D01*
X5795Y25380D01*
X4965D01*
Y24654D01*
X4965Y24628D01*
X4985Y24586D01*
Y24578D01*
Y24306D01*
X5380D01*
Y24256D01*
X5430D01*
Y23900D01*
X5751D01*
X5775Y23900D01*
X5801Y23861D01*
Y23836D01*
X5814Y23770D01*
X5851Y23713D01*
X6357Y23207D01*
X6414Y23170D01*
X6480Y23157D01*
X6808D01*
X6839Y23118D01*
X6836Y23100D01*
X6853Y23014D01*
X6887Y22963D01*
Y22890D01*
X6900Y22824D01*
X6937Y22767D01*
X6957Y22748D01*
Y21149D01*
X6360D01*
Y20549D01*
X6487D01*
Y20440D01*
X6500Y20374D01*
X6537Y20318D01*
X6545Y20310D01*
X6524Y20260D01*
X5775D01*
Y19534D01*
X5775Y19508D01*
X5795Y19466D01*
Y19458D01*
Y19186D01*
X6585D01*
Y19466D01*
X6605Y19508D01*
X6605Y19534D01*
Y19639D01*
X6655Y19660D01*
X6757Y19557D01*
X6814Y19520D01*
X6880Y19507D01*
X6978D01*
X7024Y19460D01*
X7016Y19398D01*
X6971Y19369D01*
X6923Y19296D01*
X6906Y19210D01*
Y18900D01*
Y18430D01*
X6923Y18344D01*
X6971Y18271D01*
X7096Y18147D01*
Y16260D01*
X7113Y16174D01*
X7161Y16101D01*
X7788Y15474D01*
X7769Y15428D01*
X7273D01*
Y15424D01*
X7203D01*
X3964Y18663D01*
Y18872D01*
X4014Y18887D01*
X4031Y18861D01*
X4104Y18813D01*
X4190Y18796D01*
X4630D01*
X4716Y18813D01*
X4789Y18861D01*
X5259Y19331D01*
X5307Y19404D01*
X5324Y19490D01*
Y20555D01*
X5460D01*
Y21155D01*
X4740D01*
Y20555D01*
X4876D01*
Y19583D01*
X4537Y19244D01*
X4190D01*
X4104Y19227D01*
X4031Y19179D01*
X4014Y19153D01*
X3964Y19168D01*
Y20860D01*
X3947Y20946D01*
X3899Y21019D01*
X3604Y21313D01*
Y21915D01*
X3640Y21934D01*
X3654Y21937D01*
X3735Y21921D01*
X4740D01*
Y21845D01*
X5460D01*
Y21921D01*
X5980D01*
Y21279D01*
X6580D01*
Y22019D01*
X6500D01*
X6487Y22086D01*
X6439Y22159D01*
X6294Y22304D01*
X6221Y22352D01*
X6135Y22369D01*
X5460D01*
Y22445D01*
X4740D01*
Y22369D01*
X4035D01*
X4010Y22374D01*
X3985Y22369D01*
X3735D01*
X3654Y22353D01*
X3640Y22356D01*
X3604Y22375D01*
Y25008D01*
X3654Y25040D01*
X3718Y25028D01*
X3804Y25045D01*
X3851Y25077D01*
X3910D01*
X3976Y25090D01*
X4033Y25127D01*
X4782Y25877D01*
X4850D01*
Y25635D01*
D02*
G37*
G36*
X13995Y23716D02*
Y22952D01*
X13869D01*
X13869Y22952D01*
X13802Y22939D01*
X13746Y22901D01*
X13536Y22691D01*
X13498Y22635D01*
X13485Y22569D01*
Y22350D01*
X13367Y22232D01*
X13294D01*
Y22947D01*
Y23149D01*
X13553D01*
X13619Y23163D01*
X13675Y23200D01*
X13893Y23417D01*
X13930Y23474D01*
X13943Y23540D01*
Y23742D01*
X13945Y23743D01*
X13995Y23716D01*
D02*
G37*
G36*
X17750Y20000D02*
X17996D01*
Y19831D01*
X17424Y19259D01*
X17410Y19260D01*
X17374Y19289D01*
Y20000D01*
X17650D01*
Y20356D01*
X17750D01*
Y20000D01*
D02*
G37*
G36*
X24852Y25458D02*
Y15400D01*
X24806Y15381D01*
X24569Y15619D01*
X24496Y15667D01*
X24410Y15684D01*
X23260D01*
X23174Y15667D01*
X23101Y15619D01*
X22947Y15465D01*
X22899Y15392D01*
X22882Y15306D01*
Y15195D01*
X22773D01*
Y16578D01*
X23303Y17107D01*
X23340Y17164D01*
X23353Y17230D01*
Y17266D01*
X23400Y17285D01*
X23515Y17170D01*
Y17082D01*
X23477Y17066D01*
X23389Y16998D01*
X23322Y16911D01*
X23279Y16809D01*
X23265Y16699D01*
X23279Y16589D01*
X23322Y16487D01*
X23389Y16399D01*
X23477Y16332D01*
X23579Y16290D01*
X23688Y16275D01*
X23798Y16290D01*
X23900Y16332D01*
X23988Y16399D01*
X24055Y16487D01*
X24098Y16589D01*
X24112Y16699D01*
X24098Y16809D01*
X24055Y16911D01*
X23988Y16998D01*
X23900Y17066D01*
X23862Y17082D01*
Y17242D01*
X23849Y17308D01*
X23811Y17364D01*
X23523Y17652D01*
Y18926D01*
X23562Y18957D01*
X23570Y18956D01*
X23656Y18973D01*
X23709Y19009D01*
X23766Y19020D01*
X23823Y19057D01*
X23923Y19157D01*
X23960Y19214D01*
X23973Y19280D01*
Y19887D01*
X24253Y20166D01*
X24253Y20166D01*
X24290Y20222D01*
X24303Y20288D01*
Y20971D01*
X24290Y21038D01*
X24253Y21094D01*
X24203Y21143D01*
Y24874D01*
X24806Y25477D01*
X24852Y25458D01*
D02*
G37*
G36*
X1715Y26353D02*
X1817Y26229D01*
X1942Y26126D01*
X1952Y26121D01*
X1940Y26072D01*
X1580D01*
Y24432D01*
X1983D01*
X1995Y24384D01*
X1953Y24361D01*
X1832Y24262D01*
X1732Y24140D01*
X1657Y24001D01*
X1612Y23850D01*
X1601Y23743D01*
X2400D01*
Y23643D01*
X1601D01*
X1612Y23536D01*
X1657Y23385D01*
X1732Y23246D01*
X1832Y23125D01*
X1953Y23025D01*
X2092Y22950D01*
X2097Y22949D01*
Y22899D01*
X2085Y22895D01*
X1942Y22819D01*
X1817Y22717D01*
X1715Y22592D01*
X1639Y22449D01*
X1592Y22295D01*
X1576Y22134D01*
X1592Y21973D01*
X1639Y21819D01*
X1715Y21676D01*
X1817Y21551D01*
X1942Y21449D01*
X2068Y21382D01*
X2069Y21378D01*
Y21331D01*
X2068Y21327D01*
X1942Y21260D01*
X1817Y21158D01*
X1715Y21033D01*
X1639Y20890D01*
X1592Y20736D01*
X1576Y20575D01*
X1592Y20414D01*
X1639Y20260D01*
X1715Y20117D01*
X1817Y19992D01*
X1942Y19890D01*
X2068Y19823D01*
X2069Y19819D01*
Y19772D01*
X2068Y19768D01*
X1942Y19701D01*
X1817Y19599D01*
X1715Y19474D01*
X1643Y19339D01*
X873D01*
Y25976D01*
X1385Y26488D01*
X1643D01*
X1715Y26353D01*
D02*
G37*
G36*
X21115Y20550D02*
X21096Y20503D01*
X20377D01*
X20326Y20537D01*
X20240Y20554D01*
X20162Y20539D01*
X20112Y20564D01*
Y21487D01*
X20159Y21506D01*
X21115Y20550D01*
D02*
G37*
G36*
X21100Y22841D02*
X21809D01*
X21827Y22827D01*
Y22630D01*
X21585D01*
Y21878D01*
X21585D01*
X21605Y21862D01*
Y21556D01*
X22000D01*
Y21506D01*
X22050D01*
Y21150D01*
X22327D01*
Y20821D01*
X22290Y20766D01*
X22277Y20700D01*
Y20687D01*
X22243Y20636D01*
X22226Y20550D01*
X22233Y20513D01*
X22187Y20488D01*
X20900Y21775D01*
Y21895D01*
X20909Y21941D01*
Y22650D01*
X20895Y22719D01*
X20855Y22779D01*
X20885Y22818D01*
X20918Y22850D01*
X21054D01*
X21100Y22841D01*
D02*
G37*
G36*
X24852Y47282D02*
X24830Y47263D01*
X23580D01*
X23514Y47250D01*
X23457Y47213D01*
X23420Y47156D01*
X23407Y47090D01*
Y35090D01*
X23420Y35024D01*
X23457Y34967D01*
X23514Y34930D01*
X23580Y34917D01*
X24830D01*
X24852Y34898D01*
Y30588D01*
X24806Y30569D01*
X24043Y31332D01*
Y31952D01*
X24030Y32018D01*
X23993Y32074D01*
X23163Y32903D01*
Y45710D01*
X23163Y45710D01*
X23150Y45776D01*
X23113Y45833D01*
X20153Y48793D01*
X20096Y48830D01*
X20030Y48843D01*
X18873D01*
X18533Y49183D01*
Y49701D01*
X18520Y49767D01*
X18483Y49823D01*
X17833Y50473D01*
X17777Y50510D01*
X17711Y50523D01*
X10850D01*
X10783Y50510D01*
X10727Y50473D01*
X10608Y50353D01*
X9970D01*
X9904Y50340D01*
X9847Y50303D01*
X9377Y49833D01*
X9340Y49776D01*
X9327Y49710D01*
Y49644D01*
X9250Y49612D01*
X9147Y49533D01*
X9068Y49430D01*
X9018Y49309D01*
X9015Y49289D01*
X8965D01*
X8963Y49304D01*
X8915Y49420D01*
X8839Y49519D01*
X8740Y49595D01*
X8624Y49643D01*
X8550Y49653D01*
Y49180D01*
Y48707D01*
X8624Y48717D01*
X8740Y48765D01*
X8839Y48841D01*
X8915Y48940D01*
X8963Y49056D01*
X8965Y49071D01*
X9015D01*
X9018Y49051D01*
X9068Y48930D01*
X9147Y48827D01*
X9250Y48748D01*
X9371Y48698D01*
X9500Y48681D01*
X9629Y48698D01*
X9750Y48748D01*
X9853Y48827D01*
X9932Y48930D01*
X9973Y49028D01*
X10027D01*
X10068Y48930D01*
X10147Y48827D01*
X10250Y48748D01*
X10371Y48698D01*
X10500Y48681D01*
X10629Y48698D01*
X10750Y48748D01*
X10853Y48827D01*
X10932Y48930D01*
X10955Y48985D01*
X11005Y48975D01*
Y48685D01*
X11995D01*
Y49007D01*
X12527D01*
Y48560D01*
X12540Y48494D01*
X12577Y48437D01*
X13097Y47917D01*
X13154Y47880D01*
X13220Y47867D01*
X14988D01*
X17527Y45328D01*
Y42650D01*
X17540Y42584D01*
X17577Y42527D01*
X18191Y41914D01*
X18203Y41854D01*
X18251Y41781D01*
X18324Y41733D01*
X18410Y41716D01*
X18415Y41717D01*
X18460Y41675D01*
X18470Y41624D01*
X18507Y41567D01*
X18717Y41357D01*
X18774Y41320D01*
X18840Y41307D01*
X20358D01*
X20477Y41188D01*
Y40587D01*
X20443Y40536D01*
X20426Y40450D01*
X20443Y40364D01*
X20491Y40291D01*
X20564Y40243D01*
X20650Y40226D01*
X20703Y40236D01*
X20715Y40229D01*
X20752Y40172D01*
X20897Y40028D01*
Y38784D01*
X20858Y38753D01*
X20850Y38754D01*
X20764Y38737D01*
X20713Y38703D01*
X19292D01*
X19226Y38747D01*
X19140Y38764D01*
X19054Y38747D01*
X19047Y38743D01*
X19003Y38766D01*
Y40752D01*
X19003Y40752D01*
X18990Y40818D01*
X18953Y40874D01*
X18953Y40874D01*
X16434Y43393D01*
X16378Y43430D01*
X16312Y43443D01*
X10148D01*
Y45650D01*
X8978Y46820D01*
X7480D01*
X7459Y46906D01*
X7390Y47074D01*
X7295Y47229D01*
X7177Y47367D01*
X7039Y47485D01*
X6884Y47580D01*
X6716Y47650D01*
X6539Y47692D01*
X6358Y47706D01*
X6177Y47692D01*
X6000Y47650D01*
X5833Y47580D01*
X5678Y47485D01*
X5540Y47367D01*
X5422Y47229D01*
X5327Y47074D01*
X5257Y46906D01*
X5236Y46820D01*
X4558D01*
X148Y46820D01*
Y51102D01*
X24852D01*
Y47282D01*
D02*
G37*
G36*
X18477Y30397D02*
X18533Y30360D01*
X18600Y30347D01*
X18600Y30347D01*
X19618D01*
X19628Y30298D01*
X19622Y30295D01*
X19467Y30200D01*
X19329Y30082D01*
X19211Y29944D01*
X19116Y29789D01*
X19061Y29658D01*
X19002Y29646D01*
X18300Y30348D01*
X18310Y30409D01*
X18359Y30441D01*
X18367Y30453D01*
X18416Y30458D01*
X18477Y30397D01*
D02*
G37*
G36*
X17814Y38333D02*
X17900Y38316D01*
X17938Y38323D01*
X17977Y38292D01*
Y37702D01*
X16607Y36333D01*
X16570Y36276D01*
X16557Y36210D01*
Y32507D01*
X16523Y32456D01*
X16506Y32370D01*
X16523Y32284D01*
X16571Y32211D01*
X16644Y32163D01*
X16645Y32163D01*
X16641Y32144D01*
Y31934D01*
X16603Y31876D01*
X16586Y31790D01*
X16603Y31704D01*
X16651Y31631D01*
X16687Y31607D01*
X16692Y31558D01*
X16618Y31483D01*
X15710D01*
X15644Y31470D01*
X15587Y31433D01*
X15307Y31153D01*
X15270Y31096D01*
X15257Y31030D01*
Y31027D01*
X15223Y30976D01*
X15206Y30890D01*
X15210Y30868D01*
X15178Y30829D01*
X14591D01*
X14574Y30850D01*
X14557Y30936D01*
X14521Y30990D01*
X14533Y30997D01*
X14693Y31157D01*
X14730Y31214D01*
X14743Y31280D01*
Y33338D01*
X16123Y34717D01*
X16123Y34717D01*
X16160Y34774D01*
X16173Y34840D01*
X16173Y34840D01*
Y34869D01*
X16226Y34909D01*
X16277Y34975D01*
X16309Y35052D01*
X16320Y35135D01*
X16309Y35218D01*
X16277Y35295D01*
X16226Y35361D01*
X16173Y35401D01*
Y36040D01*
X16415D01*
Y36788D01*
Y37457D01*
X16800D01*
X16866Y37470D01*
X16923Y37507D01*
X17003Y37587D01*
X17040Y37644D01*
X17053Y37710D01*
Y37770D01*
X17177D01*
Y38367D01*
X17763D01*
X17814Y38333D01*
D02*
G37*
G36*
X11783Y34902D02*
X11827Y34869D01*
Y34830D01*
X11840Y34764D01*
X11877Y34707D01*
X13027Y33558D01*
Y33002D01*
X10990Y30965D01*
X10943Y30984D01*
Y34008D01*
X11623Y34687D01*
X11660Y34744D01*
X11673Y34810D01*
Y34869D01*
X11717Y34902D01*
X11750Y34906D01*
X11783Y34902D01*
D02*
G37*
G36*
X17116Y31180D02*
X17141Y31141D01*
X17214Y31093D01*
X17300Y31076D01*
X17386Y31093D01*
X17437Y31127D01*
X17748D01*
X17858Y31016D01*
X17853Y30967D01*
X17841Y30959D01*
X17793Y30886D01*
X17790Y30873D01*
X17187D01*
X17187Y30873D01*
X17121Y30860D01*
X17075Y30829D01*
X15970D01*
X15938Y30868D01*
X15944Y30900D01*
X15939Y30928D01*
X15970Y30967D01*
X16760D01*
X16826Y30980D01*
X16883Y31017D01*
X17051Y31186D01*
X17116Y31180D01*
D02*
G37*
G36*
X17275Y28943D02*
Y28694D01*
X17670D01*
Y28594D01*
X17275D01*
Y28288D01*
X17255Y28272D01*
X17255D01*
Y27520D01*
X17424D01*
X17429Y27470D01*
X17364Y27457D01*
X17291Y27409D01*
X17280Y27392D01*
X17230Y27387D01*
X17219Y27399D01*
X17146Y27447D01*
X17060Y27464D01*
X16939D01*
X16935Y27470D01*
X16962Y27520D01*
X17035D01*
Y28268D01*
Y28937D01*
X17085Y28969D01*
X17150Y28956D01*
X17225Y28971D01*
X17275Y28943D01*
D02*
G37*
G36*
X16205Y28268D02*
Y27520D01*
X16396D01*
Y27420D01*
X16413Y27334D01*
X16461Y27261D01*
X16641Y27081D01*
X16651Y27075D01*
X16636Y27025D01*
X16448D01*
Y26768D01*
X16348D01*
Y27025D01*
X16324D01*
Y27045D01*
X15821D01*
X15797Y27074D01*
Y27165D01*
X16000D01*
Y27995D01*
X15797D01*
Y28235D01*
X16000D01*
Y28471D01*
X16205D01*
Y28268D01*
D02*
G37*
G36*
X13207Y30698D02*
Y30500D01*
X13220Y30434D01*
X13257Y30377D01*
X13611Y30023D01*
X13668Y29986D01*
X13734Y29973D01*
X14131D01*
X14150Y29926D01*
X13737Y29514D01*
X13700Y29458D01*
X13687Y29391D01*
Y27883D01*
X13617Y27813D01*
X13128D01*
X13062Y27800D01*
X13006Y27763D01*
X12667Y27424D01*
X12630Y27368D01*
X12617Y27305D01*
X11833Y26521D01*
X11783Y26542D01*
Y26932D01*
X12423Y27572D01*
X12460Y27628D01*
X12473Y27694D01*
Y30035D01*
X13157Y30718D01*
X13207Y30698D01*
D02*
G37*
G36*
X14500Y27414D02*
Y27165D01*
X14659D01*
X14685Y27115D01*
X14669Y27090D01*
X14652Y27004D01*
X14669Y26918D01*
X14717Y26845D01*
X14750Y26823D01*
X14735Y26773D01*
X13842D01*
X13826Y26823D01*
X13863Y26847D01*
X14450Y27435D01*
X14500Y27414D01*
D02*
G37*
G36*
X19211Y28583D02*
X19329Y28445D01*
X19467Y28327D01*
X19622Y28232D01*
X19790Y28162D01*
X19966Y28120D01*
X20014Y28116D01*
X20032Y28069D01*
X19568Y27605D01*
X19522Y27625D01*
Y27773D01*
X19509Y27840D01*
X19471Y27896D01*
X19143Y28223D01*
Y28601D01*
X19191Y28614D01*
X19211Y28583D01*
D02*
G37*
G36*
X22616Y29482D02*
Y27603D01*
X22610Y27555D01*
X22566Y27555D01*
X22304D01*
Y27160D01*
Y26765D01*
X22610Y26765D01*
X22616Y26717D01*
Y26583D01*
X22577Y26544D01*
X21120D01*
X21034Y26527D01*
X20961Y26479D01*
X20955Y26472D01*
X20909Y26491D01*
Y27031D01*
X20959Y27046D01*
X20967Y27037D01*
X21024Y27000D01*
X21090Y26987D01*
X21130D01*
Y26745D01*
X21856D01*
X21882Y26745D01*
X21924Y26765D01*
X21932D01*
X22204D01*
Y27160D01*
Y27555D01*
X21924D01*
X21882Y27575D01*
X21856Y27575D01*
X21475D01*
X21459Y27625D01*
X21493Y27647D01*
X22203Y28357D01*
X22240Y28414D01*
X22253Y28480D01*
X22253Y28480D01*
Y29779D01*
X22300Y29798D01*
X22616Y29482D01*
D02*
G37*
G36*
X15966Y23330D02*
X15944Y23308D01*
X15906Y23252D01*
X15893Y23186D01*
Y22537D01*
X15906Y22471D01*
X15944Y22414D01*
X16327Y22031D01*
Y19048D01*
X16288Y19017D01*
X16250Y19024D01*
X16164Y19007D01*
X16098Y18963D01*
X16084Y18960D01*
X16027Y18923D01*
X15907Y18803D01*
X15870Y18746D01*
X15857Y18680D01*
Y18409D01*
X15870Y18343D01*
X15907Y18287D01*
Y17874D01*
X15636Y17603D01*
X14290D01*
X14224Y17590D01*
X14167Y17553D01*
X14038Y17423D01*
X13322D01*
X13123Y17623D01*
X13066Y17660D01*
X13000Y17673D01*
X12687D01*
X12636Y17707D01*
X12550Y17724D01*
X12464Y17707D01*
X12391Y17659D01*
X12376Y17636D01*
X12327Y17631D01*
X12003Y17955D01*
Y21873D01*
X12417Y22286D01*
X12463Y22267D01*
Y22199D01*
X12705D01*
Y21899D01*
X12463D01*
Y21172D01*
X12463Y21147D01*
X12483Y21105D01*
Y21097D01*
Y20825D01*
X13274D01*
Y21105D01*
X13294Y21147D01*
X13294Y21172D01*
Y21885D01*
X13439D01*
X13505Y21898D01*
X13561Y21936D01*
X13781Y22156D01*
X13819Y22212D01*
X13832Y22279D01*
Y22497D01*
X13940Y22605D01*
X13995D01*
Y21576D01*
X15007D01*
Y20241D01*
X13995D01*
Y19212D01*
X13839D01*
X13772Y19199D01*
X13716Y19161D01*
X13340Y18785D01*
X13294Y18804D01*
X13294Y18941D01*
X13274Y18982D01*
Y18991D01*
Y19263D01*
X12879D01*
X12483D01*
Y18982D01*
X12463Y18941D01*
X12463Y18915D01*
Y18189D01*
X13294D01*
Y18391D01*
X13365D01*
X13431Y18404D01*
X13487Y18442D01*
X13910Y18865D01*
X13995D01*
Y17836D01*
X15022D01*
Y18865D01*
X15049D01*
X15115Y18878D01*
X15171Y18916D01*
X15303Y19047D01*
X15340Y19104D01*
X15353Y19170D01*
Y23308D01*
X15422Y23377D01*
X15947D01*
X15966Y23330D01*
D02*
G37*
G36*
X11545Y11010D02*
X12077Y10477D01*
X12134Y10440D01*
X12200Y10427D01*
X13038D01*
X13123Y10341D01*
X13104Y10295D01*
X11760D01*
Y10282D01*
X11752Y10277D01*
X11710Y10266D01*
X11693Y10293D01*
X11693Y10293D01*
X11245Y10741D01*
X11243Y10751D01*
X11254Y10802D01*
X11293Y10827D01*
X11479Y11014D01*
X11534Y11017D01*
X11545Y11010D01*
D02*
G37*
G36*
X19256Y14757D02*
Y12990D01*
Y10053D01*
X18840D01*
Y10295D01*
X17446D01*
X17427Y10341D01*
X17542Y10457D01*
X18720D01*
X18786Y10470D01*
X18843Y10507D01*
X19083Y10747D01*
X19120Y10804D01*
X19133Y10870D01*
Y14814D01*
X19180Y14833D01*
X19256Y14757D01*
D02*
G37*
G36*
X17890Y12134D02*
Y11989D01*
X18453D01*
X18474Y11939D01*
X18447Y11912D01*
X18411Y11859D01*
X18270D01*
Y11259D01*
X18787D01*
Y10942D01*
X18648Y10803D01*
X17470D01*
X17404Y10790D01*
X17347Y10753D01*
X17141Y10547D01*
X17095Y10566D01*
Y10768D01*
Y11425D01*
X17145Y11452D01*
X17174Y11433D01*
X17260Y11416D01*
X17346Y11433D01*
X17419Y11481D01*
X17467Y11554D01*
X17473Y11583D01*
X17490Y11594D01*
X17540Y11567D01*
Y11279D01*
X17770D01*
Y11559D01*
Y11839D01*
X17595D01*
X17574Y11889D01*
X17840Y12155D01*
X17890Y12134D01*
D02*
G37*
G36*
X3801Y13631D02*
X3874Y13583D01*
X3960Y13566D01*
X6497D01*
X6876Y13187D01*
Y12850D01*
X6893Y12764D01*
X6941Y12691D01*
X7091Y12541D01*
X7164Y12493D01*
X7212Y12483D01*
X7232Y12435D01*
X7224Y12424D01*
X6950D01*
X6864Y12407D01*
X6791Y12359D01*
X6557Y12124D01*
X4060D01*
X3974Y12107D01*
X3901Y12059D01*
X3288Y11445D01*
X3189D01*
X3161Y11536D01*
X3085Y11678D01*
X2983Y11803D01*
X2858Y11906D01*
X2732Y11973D01*
X2731Y11977D01*
Y12023D01*
X2732Y12027D01*
X2858Y12094D01*
X2983Y12197D01*
X3085Y12322D01*
X3161Y12464D01*
X3191Y12564D01*
X4798D01*
Y12314D01*
X6101D01*
Y13263D01*
X4798D01*
Y13012D01*
X3186D01*
X3161Y13095D01*
X3085Y13237D01*
X2983Y13362D01*
X2858Y13465D01*
X2732Y13532D01*
X2731Y13536D01*
Y13582D01*
X2732Y13586D01*
X2858Y13653D01*
X2983Y13756D01*
X3085Y13881D01*
X3161Y14023D01*
X3189Y14114D01*
X3319D01*
X3801Y13631D01*
D02*
G37*
G36*
X8496Y15187D02*
Y10950D01*
Y8140D01*
Y4784D01*
X8027D01*
X7970Y4860D01*
X7882Y4927D01*
X7780Y4969D01*
X7670Y4984D01*
X7560Y4969D01*
X7458Y4927D01*
X7370Y4860D01*
X7313Y4784D01*
X6264D01*
Y5130D01*
X6410D01*
Y5870D01*
X5670D01*
Y5130D01*
X5816D01*
Y4784D01*
X5573D01*
X3671Y6686D01*
X3598Y6735D01*
X3512Y6752D01*
X3189D01*
X3161Y6843D01*
X3085Y6985D01*
X2983Y7110D01*
X2858Y7213D01*
X2810Y7238D01*
X2822Y7287D01*
X3200D01*
Y8037D01*
X2400D01*
X1600D01*
Y7287D01*
X1978D01*
X1990Y7238D01*
X1942Y7213D01*
X1817Y7110D01*
X1715Y6985D01*
X1639Y6843D01*
X1592Y6688D01*
X1576Y6528D01*
X1592Y6367D01*
X1639Y6212D01*
X1715Y6070D01*
X1817Y5945D01*
X1942Y5842D01*
X2068Y5775D01*
X2069Y5771D01*
Y5725D01*
X2068Y5721D01*
X1942Y5654D01*
X1817Y5551D01*
X1715Y5426D01*
X1643Y5291D01*
X1375D01*
X873Y5794D01*
Y9507D01*
X5326D01*
X5403Y9431D01*
X5470Y9379D01*
X5548Y9347D01*
X5631Y9336D01*
X5959D01*
X6017Y9292D01*
X6119Y9250D01*
X6228Y9235D01*
X6338Y9250D01*
X6440Y9292D01*
X6498Y9336D01*
X7037D01*
X7406Y8968D01*
X7401Y8930D01*
X7418Y8801D01*
X7468Y8680D01*
X7547Y8577D01*
X7650Y8498D01*
X7771Y8448D01*
X7900Y8431D01*
X8029Y8448D01*
X8150Y8498D01*
X8253Y8577D01*
X8332Y8680D01*
X8382Y8801D01*
X8399Y8930D01*
X8382Y9059D01*
X8332Y9180D01*
X8253Y9283D01*
X8150Y9362D01*
X8029Y9412D01*
X7900Y9429D01*
X7862Y9424D01*
X7399Y9887D01*
X7332Y9938D01*
X7255Y9971D01*
X7171Y9982D01*
X6498D01*
X6453Y10016D01*
Y10106D01*
X6839Y10491D01*
X6887Y10564D01*
X6904Y10650D01*
Y11207D01*
X7173Y11476D01*
X7273D01*
Y11472D01*
X8379D01*
Y11928D01*
X8379D01*
Y11972D01*
X8379D01*
Y12428D01*
X8379D01*
Y12472D01*
X8379D01*
Y12922D01*
X8379Y12928D01*
X8379D01*
Y12972D01*
X8379D01*
Y13428D01*
X8379D01*
Y13472D01*
X8379D01*
Y13922D01*
X8379Y13928D01*
X8379D01*
Y13972D01*
X8379D01*
Y14422D01*
X8379Y14428D01*
X8379D01*
Y14472D01*
X8379D01*
Y14922D01*
X8379Y14928D01*
X8379D01*
Y14972D01*
X8379D01*
Y15238D01*
X8426Y15257D01*
X8496Y15187D01*
D02*
G37*
G36*
X1580Y15078D02*
X1940D01*
X1952Y15029D01*
X1942Y15024D01*
X1817Y14921D01*
X1715Y14796D01*
X1639Y14654D01*
X1592Y14499D01*
X1576Y14339D01*
X1592Y14178D01*
X1639Y14023D01*
X1715Y13881D01*
X1817Y13756D01*
X1942Y13653D01*
X2068Y13586D01*
X2069Y13582D01*
Y13536D01*
X2068Y13532D01*
X1942Y13465D01*
X1817Y13362D01*
X1715Y13237D01*
X1639Y13095D01*
X1592Y12940D01*
X1576Y12780D01*
X1592Y12619D01*
X1639Y12464D01*
X1715Y12322D01*
X1817Y12197D01*
X1942Y12094D01*
X2068Y12027D01*
X2069Y12023D01*
Y11977D01*
X2068Y11973D01*
X1942Y11906D01*
X1817Y11803D01*
X1715Y11678D01*
X1639Y11536D01*
X1592Y11381D01*
X1576Y11220D01*
X1592Y11060D01*
X1639Y10905D01*
X1715Y10763D01*
X1817Y10638D01*
X1942Y10535D01*
X2085Y10459D01*
X2239Y10412D01*
X2400Y10396D01*
X2561Y10412D01*
X2715Y10459D01*
X2858Y10535D01*
X2983Y10638D01*
X3085Y10763D01*
X3161Y10905D01*
X3189Y10996D01*
X3380D01*
X3466Y11013D01*
X3539Y11062D01*
X4153Y11676D01*
X6650D01*
X6672Y11680D01*
X6697Y11634D01*
X6521Y11459D01*
X6473Y11386D01*
X6456Y11300D01*
Y10743D01*
X6070Y10357D01*
X6021Y10284D01*
X6004Y10198D01*
Y10016D01*
X5959Y9982D01*
X5783D01*
Y10582D01*
X6101D01*
Y11530D01*
X4798D01*
Y10582D01*
X5137D01*
Y10153D01*
X873D01*
Y15575D01*
X1580D01*
Y15078D01*
D02*
G37*
G36*
X16427Y8047D02*
X16483Y8010D01*
X16550Y7997D01*
X17715D01*
X17817Y7895D01*
Y5882D01*
X17278Y5343D01*
X16467D01*
X16451Y5393D01*
X16799Y5741D01*
X16847Y5814D01*
X16864Y5900D01*
Y6170D01*
X17595D01*
Y6896D01*
X17595Y6922D01*
X17575Y6964D01*
Y6972D01*
Y7244D01*
X16785D01*
Y6964D01*
X16765Y6922D01*
X16765Y6896D01*
Y6770D01*
X16505D01*
Y6922D01*
X16505D01*
X16485Y6938D01*
Y7244D01*
X16090D01*
Y7294D01*
X16040D01*
Y7650D01*
X15727D01*
Y8677D01*
X15777Y8698D01*
X16427Y8047D01*
D02*
G37*
G36*
X19256Y5082D02*
Y4293D01*
X18506Y3543D01*
X18398D01*
X18341Y3618D01*
X18253Y3685D01*
X18151Y3728D01*
X18041Y3742D01*
X17931Y3728D01*
X17829Y3685D01*
X17742Y3618D01*
X17684Y3543D01*
X17298D01*
X17213Y3526D01*
X17140Y3477D01*
X16481Y2819D01*
X16433Y2746D01*
X16416Y2660D01*
Y1813D01*
X16107Y1504D01*
X9373D01*
X9024Y1853D01*
Y3207D01*
X9573Y3756D01*
X10530D01*
X10616Y3773D01*
X10689Y3821D01*
X10841Y3974D01*
X10884Y3946D01*
Y2975D01*
X10415D01*
Y3209D01*
X9348D01*
Y1866D01*
X10415D01*
Y2100D01*
X10945D01*
X10992Y2109D01*
X11031Y2136D01*
X11058Y2176D01*
X11067Y2222D01*
Y2852D01*
X11058Y2899D01*
X11045Y2919D01*
X11070Y2969D01*
X13930D01*
X13955Y2919D01*
X13942Y2899D01*
X13933Y2852D01*
Y2222D01*
X13942Y2176D01*
X13969Y2136D01*
X14008Y2109D01*
X14055Y2100D01*
X14585D01*
Y1866D01*
X15651D01*
Y3209D01*
X14585D01*
Y2975D01*
X14116D01*
Y3807D01*
X17843D01*
X17909Y3820D01*
X17965Y3857D01*
X19210Y5101D01*
X19256Y5082D01*
D02*
G37*
G36*
Y8695D02*
X19210Y8676D01*
X18467Y9419D01*
X18486Y9465D01*
X18840D01*
Y9707D01*
X19256D01*
Y8695D01*
D02*
G37*
G36*
X13347Y9650D02*
X13359Y9590D01*
X13407Y9517D01*
X13480Y9469D01*
X13566Y9451D01*
X13652Y9469D01*
X13712Y9509D01*
X13739Y9511D01*
X13772Y9499D01*
X13799Y9457D01*
X13929Y9327D01*
X13986Y9290D01*
X14052Y9277D01*
X15198D01*
X15712Y8763D01*
X15691Y8713D01*
X14105D01*
X14091Y8734D01*
X13513Y9313D01*
X13456Y9350D01*
X13390Y9363D01*
X11922D01*
X11867Y9419D01*
X11886Y9465D01*
X13260D01*
Y9666D01*
X13310Y9686D01*
X13347Y9650D01*
D02*
G37*
G36*
X9087Y10527D02*
X9144Y10490D01*
X9210Y10477D01*
X11018D01*
X11397Y10098D01*
Y9870D01*
Y9470D01*
X11410Y9404D01*
X11447Y9347D01*
X11727Y9067D01*
X11784Y9030D01*
X11850Y9017D01*
X13318D01*
X13576Y8759D01*
X13557Y8713D01*
X12301D01*
Y8715D01*
X10753D01*
Y8352D01*
X8944D01*
Y10605D01*
X8990Y10624D01*
X9087Y10527D01*
D02*
G37*
G36*
X17470Y16710D02*
Y16045D01*
X17622D01*
Y15974D01*
X17639Y15888D01*
X17687Y15815D01*
X17859Y15644D01*
X17840Y15597D01*
X17609D01*
X17483Y15723D01*
X17427Y15760D01*
X17361Y15773D01*
X16534D01*
X16515Y15820D01*
X17424Y16729D01*
X17470Y16710D01*
D02*
G37*
G36*
X24496Y15057D02*
Y13343D01*
X23921Y12769D01*
X23873Y12696D01*
X23856Y12610D01*
Y4893D01*
X23347Y4384D01*
X22710D01*
X22624Y4367D01*
X22551Y4319D01*
X21531Y3299D01*
X21485Y3318D01*
Y3546D01*
X21140D01*
Y3240D01*
X21408D01*
X21427Y3194D01*
X21007Y2774D01*
X20280D01*
X20194Y2757D01*
X20121Y2709D01*
X18367Y954D01*
X9063D01*
X7895Y2122D01*
Y2601D01*
X7971Y2659D01*
X8038Y2747D01*
X8080Y2849D01*
X8095Y2958D01*
X8080Y3068D01*
X8038Y3170D01*
X7971Y3258D01*
X7895Y3316D01*
Y4204D01*
X7970Y4260D01*
X8027Y4336D01*
X9330D01*
X9416Y4353D01*
X9489Y4401D01*
X9639Y4551D01*
X9687Y4624D01*
X9704Y4710D01*
Y4740D01*
X9895D01*
Y5466D01*
X9895Y5492D01*
X9875Y5534D01*
Y5542D01*
Y5814D01*
X9085D01*
Y5534D01*
X9065Y5492D01*
X9065Y5466D01*
Y4784D01*
X8944D01*
Y7903D01*
X10753D01*
Y7541D01*
X12210D01*
Y5764D01*
X12090D01*
X12004Y5747D01*
X11931Y5699D01*
X10437Y4204D01*
X9480D01*
X9394Y4187D01*
X9321Y4139D01*
X8641Y3459D01*
X8593Y3386D01*
X8576Y3300D01*
Y1760D01*
X8593Y1674D01*
X8641Y1601D01*
X9121Y1121D01*
X9194Y1073D01*
X9280Y1056D01*
X16200D01*
X16286Y1073D01*
X16359Y1121D01*
X16799Y1561D01*
X16847Y1634D01*
X16864Y1720D01*
Y2567D01*
X17391Y3094D01*
X17684D01*
X17742Y3019D01*
X17829Y2952D01*
X17931Y2909D01*
X18041Y2895D01*
X18151Y2909D01*
X18253Y2952D01*
X18341Y3019D01*
X18398Y3094D01*
X18598D01*
X18684Y3111D01*
X18757Y3160D01*
X19639Y4041D01*
X19687Y4114D01*
X19704Y4200D01*
Y6343D01*
X19750Y6362D01*
X20395Y5717D01*
X20379Y5679D01*
X20365Y5569D01*
X20379Y5459D01*
X20422Y5357D01*
X20489Y5269D01*
X20577Y5202D01*
X20679Y5160D01*
X20788Y5145D01*
X20867Y5156D01*
X20917Y5117D01*
Y4720D01*
X20675D01*
Y3968D01*
X20675D01*
X20695Y3952D01*
Y3646D01*
X21485D01*
Y3926D01*
X21505Y3968D01*
X21505Y3968D01*
X21505Y3968D01*
Y4720D01*
X21263D01*
Y5267D01*
X21250Y5334D01*
X21213Y5390D01*
X21182Y5421D01*
X21198Y5459D01*
X21212Y5569D01*
X21198Y5679D01*
X21155Y5781D01*
X21088Y5868D01*
X21000Y5936D01*
X20898Y5978D01*
X20788Y5993D01*
X20679Y5978D01*
X20640Y5962D01*
X19923Y6679D01*
Y14048D01*
X20060Y14185D01*
X20107Y14166D01*
Y9150D01*
X20120Y9083D01*
X20157Y9027D01*
X20586Y8599D01*
X20580Y8534D01*
X20541Y8509D01*
X20493Y8436D01*
X20476Y8350D01*
X20493Y8264D01*
X20513Y8234D01*
Y8129D01*
X20389D01*
Y7515D01*
X20983D01*
Y8129D01*
X20859D01*
Y8192D01*
X20907Y8264D01*
X20917Y8313D01*
X20950Y8307D01*
X21261D01*
Y8129D01*
X21137D01*
Y7515D01*
X21731D01*
Y8129D01*
X21607D01*
Y8307D01*
X22164D01*
X22194Y8301D01*
X22224Y8307D01*
X22551D01*
X22824Y8034D01*
X22805Y7988D01*
X22790Y7874D01*
X22805Y7760D01*
X22848Y7655D01*
X22918Y7564D01*
X23009Y7494D01*
X23115Y7450D01*
X23228Y7435D01*
X23342Y7450D01*
X23448Y7494D01*
X23539Y7564D01*
X23608Y7655D01*
X23652Y7760D01*
X23667Y7874D01*
X23652Y7988D01*
X23608Y8093D01*
X23539Y8184D01*
X23448Y8254D01*
X23342Y8298D01*
X23228Y8313D01*
X23115Y8298D01*
X23069Y8279D01*
X22745Y8603D01*
X22746Y8657D01*
X22771Y8685D01*
X22829D01*
X22848Y8639D01*
X22918Y8548D01*
X23009Y8478D01*
X23115Y8435D01*
X23228Y8420D01*
X23342Y8435D01*
X23448Y8478D01*
X23539Y8548D01*
X23608Y8639D01*
X23652Y8745D01*
X23667Y8858D01*
X23652Y8972D01*
X23608Y9078D01*
X23539Y9168D01*
X23448Y9238D01*
X23342Y9282D01*
X23228Y9297D01*
X23115Y9282D01*
X23009Y9238D01*
X22918Y9168D01*
X22848Y9078D01*
X22829Y9032D01*
X22658D01*
X22592Y9018D01*
X22536Y8981D01*
X22468Y8913D01*
X21227D01*
X21176Y8947D01*
X21090Y8964D01*
X21004Y8947D01*
X20982Y8933D01*
X20623Y9292D01*
Y10981D01*
X20673Y11002D01*
X20777Y10897D01*
X20834Y10860D01*
X20900Y10847D01*
X22110D01*
X22176Y10860D01*
X22233Y10897D01*
X22389Y11053D01*
X22426Y11110D01*
X22429Y11122D01*
X22514D01*
Y11142D01*
X22590D01*
Y11468D01*
Y11794D01*
X22514D01*
Y11814D01*
X22018D01*
Y11193D01*
X21765D01*
Y11818D01*
Y12570D01*
X21523D01*
Y12990D01*
Y13515D01*
X21921D01*
Y13096D01*
X21934Y13030D01*
X21971Y12973D01*
X22077Y12868D01*
X22056Y12818D01*
X22018D01*
Y12126D01*
X22474D01*
X22480Y12094D01*
X22517Y12037D01*
X22714Y11841D01*
X22695Y11794D01*
X22690D01*
Y11468D01*
Y11142D01*
X22766D01*
Y11122D01*
X22831D01*
X22837Y11072D01*
X22517Y10753D01*
X22480Y10696D01*
X22467Y10630D01*
Y10537D01*
X21585D01*
Y10740D01*
X20755D01*
Y10014D01*
X20755Y9988D01*
X20775Y9946D01*
Y9938D01*
Y9666D01*
X21565D01*
Y9946D01*
X21585Y9988D01*
X21585Y10014D01*
Y10191D01*
X22467D01*
Y9940D01*
X22480Y9874D01*
X22517Y9817D01*
X22615Y9720D01*
X22615Y9720D01*
X22671Y9682D01*
X22737Y9669D01*
X22737Y9669D01*
X22793D01*
Y9408D01*
X23663D01*
Y10277D01*
X22813D01*
Y10558D01*
X23137Y10881D01*
X23137Y10881D01*
X23174Y10938D01*
X23187Y11004D01*
Y11122D01*
X23262D01*
Y11814D01*
X23182D01*
X23174Y11852D01*
X23137Y11909D01*
X23137Y11909D01*
X22966Y12079D01*
X22985Y12126D01*
X23262D01*
Y12818D01*
X23238D01*
Y12951D01*
X23265Y12977D01*
X23313Y13050D01*
X23330Y13136D01*
Y13249D01*
X23366Y13285D01*
X23482Y13285D01*
X23524Y13305D01*
X23532D01*
X23804D01*
Y13700D01*
Y14095D01*
X23524D01*
X23482Y14115D01*
X23456Y14115D01*
X23330D01*
Y14329D01*
X23366Y14365D01*
X23482Y14365D01*
X23524Y14385D01*
X23532D01*
X23804D01*
Y14780D01*
Y15175D01*
X23528D01*
X23518Y15186D01*
X23521Y15204D01*
X23550Y15236D01*
X24317D01*
X24496Y15057D01*
D02*
G37*
G36*
X20234Y19853D02*
X20320Y19836D01*
X20406Y19853D01*
X20457Y19887D01*
X21297D01*
X21657Y19527D01*
Y19320D01*
X21670Y19254D01*
X21707Y19197D01*
X21827Y19077D01*
X21884Y19040D01*
X21913Y19034D01*
X21921Y19021D01*
X21994Y18973D01*
X22080Y18956D01*
X22088Y18957D01*
X22127Y18926D01*
Y17652D01*
X21537Y17063D01*
X21500Y17007D01*
X21487Y16940D01*
Y16662D01*
X21172Y16347D01*
X21132Y16378D01*
X21179Y16454D01*
X21248Y16622D01*
X21291Y16799D01*
X21305Y16980D01*
X21291Y17161D01*
X21248Y17338D01*
X21179Y17506D01*
X21084Y17661D01*
X20966Y17799D01*
X20828Y17917D01*
X20673Y18012D01*
X20505Y18081D01*
X20328Y18124D01*
X20147Y18138D01*
X19966Y18124D01*
X19790Y18081D01*
X19622Y18012D01*
X19467Y17917D01*
X19329Y17799D01*
X19211Y17661D01*
X19116Y17506D01*
X19046Y17338D01*
X19004Y17161D01*
X18990Y16980D01*
X18996Y16893D01*
X18963Y16856D01*
X18949Y16855D01*
X18644D01*
Y16510D01*
X18950D01*
Y16846D01*
X19000Y16848D01*
X19004Y16799D01*
X19046Y16622D01*
X19116Y16454D01*
X19211Y16299D01*
X19329Y16161D01*
X19467Y16043D01*
X19622Y15948D01*
X19790Y15879D01*
X19966Y15836D01*
X20147Y15822D01*
X20328Y15836D01*
X20505Y15879D01*
X20673Y15948D01*
X20749Y15995D01*
X20781Y15956D01*
X20638Y15813D01*
X20569D01*
X20503Y15800D01*
X20446Y15763D01*
X20277Y15594D01*
X20240Y15537D01*
X20227Y15471D01*
Y15387D01*
X20193Y15336D01*
X20176Y15250D01*
X20193Y15164D01*
X20241Y15091D01*
X20314Y15043D01*
X20350Y15036D01*
X20366Y14981D01*
X19750Y14366D01*
X19704Y14385D01*
Y14850D01*
X19687Y14936D01*
X19639Y15009D01*
X18959Y15689D01*
X18947Y15696D01*
X18841Y15803D01*
X18768Y15851D01*
X18682Y15868D01*
X18269D01*
X18139Y15999D01*
X18158Y16045D01*
X18222Y16045D01*
X18264Y16065D01*
X18272D01*
X18544D01*
Y16460D01*
Y16855D01*
X18264D01*
X18222Y16875D01*
X18196Y16875D01*
X18113D01*
X18092Y16925D01*
X18209Y17041D01*
X18257Y17114D01*
X18274Y17200D01*
X18257Y17286D01*
X18209Y17359D01*
X18158Y17392D01*
X18147Y17452D01*
X18783Y18087D01*
X18820Y18144D01*
X18833Y18210D01*
Y18308D01*
X20062Y19536D01*
X20099Y19592D01*
X20112Y19659D01*
X20112Y19659D01*
Y19885D01*
X20161Y19901D01*
X20234Y19853D01*
D02*
G37*
G36*
X10467Y22074D02*
Y18562D01*
X10417Y18547D01*
X10409Y18559D01*
X10336Y18607D01*
X10276Y18619D01*
X9713Y19183D01*
X9656Y19220D01*
X9590Y19233D01*
X8762D01*
X8746Y19255D01*
X8770Y19307D01*
X8816Y19313D01*
X8893Y19345D01*
X8960Y19396D01*
X9000Y19448D01*
X9262D01*
X9328Y19462D01*
X9384Y19499D01*
X9473Y19587D01*
X9473Y19587D01*
X9510Y19644D01*
X9523Y19710D01*
Y19898D01*
X9643Y20017D01*
X9680Y20073D01*
X9693Y20140D01*
Y20327D01*
X9813Y20447D01*
X9850Y20503D01*
X9863Y20569D01*
Y20747D01*
X9983Y20866D01*
X10020Y20922D01*
X10033Y20989D01*
Y21167D01*
X10153Y21286D01*
X10190Y21342D01*
X10203Y21408D01*
Y21606D01*
X10323Y21725D01*
X10360Y21782D01*
X10373Y21848D01*
Y22046D01*
X10420Y22093D01*
X10467Y22074D01*
D02*
G37*
G36*
X18717Y19927D02*
X18774Y19890D01*
X18774Y19890D01*
X18844Y19843D01*
X18852Y19841D01*
X18867Y19793D01*
X17857Y18784D01*
X17820Y18728D01*
X17807Y18661D01*
Y18571D01*
X17421Y18184D01*
X17374Y18204D01*
Y18484D01*
X17424Y18525D01*
X17470Y18516D01*
X17556Y18533D01*
X17629Y18581D01*
X17677Y18654D01*
X17689Y18714D01*
X18487Y19512D01*
X18524Y19568D01*
X18537Y19634D01*
Y20042D01*
X18587Y20057D01*
X18587Y20057D01*
X18717Y19927D01*
D02*
G37*
G36*
X22133Y15618D02*
X22146Y15610D01*
X22191Y15541D01*
X22264Y15493D01*
X22350Y15476D01*
X22388Y15483D01*
X22427Y15452D01*
Y14345D01*
X22267D01*
Y14386D01*
X22254Y14452D01*
X22217Y14509D01*
X21963Y14763D01*
X21906Y14800D01*
X21840Y14813D01*
X21609D01*
X21585Y14857D01*
X21596Y14874D01*
X21613Y14960D01*
X21596Y15046D01*
X21547Y15119D01*
X21537Y15126D01*
X21532Y15176D01*
X21903Y15547D01*
X21940D01*
X22007Y15560D01*
X22063Y15597D01*
X22095Y15629D01*
X22133Y15618D01*
D02*
G37*
G36*
X13100Y13083D02*
Y12581D01*
X13700D01*
Y13059D01*
X13710Y13067D01*
X13850D01*
Y12581D01*
X14450D01*
Y13067D01*
X14538D01*
X14547Y13057D01*
X14604Y13020D01*
X14618Y13017D01*
X14684Y12973D01*
X14770Y12956D01*
X14856Y12973D01*
X14929Y13021D01*
X14934Y13029D01*
X14984Y13014D01*
Y10044D01*
X14997Y9977D01*
X15034Y9921D01*
X15060Y9895D01*
X15041Y9849D01*
X14452D01*
X14402Y9883D01*
X14316Y9900D01*
X14230Y9883D01*
X14157Y9834D01*
X14145Y9817D01*
X14095Y9832D01*
Y10020D01*
X14335D01*
Y10768D01*
Y11520D01*
X14093D01*
Y11540D01*
X14080Y11606D01*
X14043Y11661D01*
X14047Y11683D01*
X14059Y11711D01*
X14080D01*
Y12451D01*
X13480D01*
Y11711D01*
X13607D01*
Y11680D01*
X13620Y11614D01*
X13649Y11570D01*
X13630Y11520D01*
X13505D01*
Y10768D01*
Y10521D01*
X13455Y10500D01*
X13233Y10723D01*
X13176Y10760D01*
X13110Y10773D01*
X12272D01*
X11833Y11212D01*
Y12882D01*
X11883Y12923D01*
X11920Y12916D01*
X12006Y12933D01*
X12055Y12965D01*
X12105Y12956D01*
Y12294D01*
X12105Y12268D01*
X12125Y12226D01*
Y12218D01*
Y11946D01*
X12520D01*
X12915D01*
Y12226D01*
X12935Y12268D01*
X12935Y12294D01*
Y13020D01*
X12935Y13020D01*
X12935D01*
X12969Y13054D01*
X13036Y13121D01*
X13050Y13124D01*
X13100Y13083D01*
D02*
G37*
G36*
X16150Y12989D02*
Y12581D01*
X16150Y12581D01*
X16150D01*
X16133Y12538D01*
X16087Y12493D01*
X16050Y12436D01*
X16037Y12370D01*
Y11777D01*
X16003Y11726D01*
X15986Y11640D01*
X16003Y11554D01*
X16051Y11481D01*
X16124Y11433D01*
X16210Y11416D01*
X16226Y11419D01*
X16265Y11387D01*
Y10768D01*
Y10020D01*
X16265D01*
X16268Y10003D01*
X16253Y9982D01*
X16190Y9977D01*
X15840Y10327D01*
Y12976D01*
X15884Y12999D01*
X15894Y12993D01*
X15980Y12976D01*
X16066Y12993D01*
X16100Y13016D01*
X16150Y12989D01*
D02*
G37*
G36*
X10605Y15997D02*
X10662Y15960D01*
X10728Y15947D01*
X10836D01*
X10855Y15900D01*
X10383Y15428D01*
X9321D01*
Y14972D01*
X9321D01*
Y14928D01*
X9321D01*
Y14472D01*
X9321D01*
Y14428D01*
X9321D01*
Y13972D01*
X9321D01*
Y13928D01*
X9321D01*
Y13472D01*
X9321D01*
Y13428D01*
X9321D01*
Y12972D01*
X9321D01*
Y12928D01*
X9321D01*
Y12472D01*
X9321D01*
Y12428D01*
X9321D01*
Y11972D01*
X10427D01*
Y12032D01*
X10466Y12040D01*
X10523Y12077D01*
X10623Y12177D01*
X10660Y12234D01*
X10673Y12300D01*
Y12448D01*
X10793Y12567D01*
X10830Y12624D01*
X10843Y12690D01*
Y13378D01*
X10963Y13497D01*
X11000Y13553D01*
X11013Y13620D01*
Y14267D01*
X11133Y14387D01*
X11170Y14443D01*
X11183Y14509D01*
Y14917D01*
X11293D01*
X11344Y14883D01*
X11430Y14866D01*
X11448Y14869D01*
X11487Y14838D01*
Y13389D01*
X11437Y13353D01*
X11380Y13364D01*
X11294Y13347D01*
X11221Y13299D01*
X11173Y13226D01*
X11156Y13140D01*
X11173Y13054D01*
X11207Y13003D01*
Y11232D01*
X11098Y11123D01*
X9437D01*
X9386Y11157D01*
X9300Y11174D01*
X9214Y11157D01*
X9197Y11146D01*
X9153Y11170D01*
Y15380D01*
X9140Y15446D01*
X9103Y15503D01*
X8821Y15784D01*
X8839Y15831D01*
X8911Y15836D01*
X9088Y15879D01*
X9256Y15948D01*
X9411Y16043D01*
X9549Y16161D01*
X9667Y16299D01*
X9762Y16454D01*
X9831Y16622D01*
X9848Y16693D01*
X9896Y16707D01*
X10605Y15997D01*
D02*
G37*
G36*
X1715Y18558D02*
X1817Y18433D01*
X1942Y18331D01*
X2085Y18255D01*
X2239Y18208D01*
X2400Y18192D01*
X2561Y18208D01*
X2715Y18255D01*
X2858Y18331D01*
X2983Y18433D01*
X3085Y18558D01*
X3136Y18653D01*
X3186Y18640D01*
Y18380D01*
X3203Y18294D01*
X3251Y18221D01*
X6486Y14987D01*
Y14810D01*
X6503Y14724D01*
X6551Y14651D01*
X6876Y14327D01*
Y13892D01*
X6826Y13872D01*
X6749Y13949D01*
X6676Y13997D01*
X6590Y14014D01*
X4053D01*
X3570Y14497D01*
X3497Y14546D01*
X3411Y14563D01*
X3189D01*
X3161Y14654D01*
X3085Y14796D01*
X2983Y14921D01*
X2858Y15024D01*
X2848Y15029D01*
X2860Y15078D01*
X3220D01*
Y16718D01*
X1580D01*
Y16220D01*
X873D01*
Y18693D01*
X1643D01*
X1715Y18558D01*
D02*
G37*
G36*
X12495Y14947D02*
X12530Y14924D01*
Y14731D01*
X12810D01*
Y14681D01*
X12860D01*
Y14401D01*
X13078D01*
X13120Y14381D01*
Y14381D01*
X13120Y14381D01*
X13720D01*
Y14897D01*
X13890D01*
Y14731D01*
X14170D01*
Y14681D01*
X14220D01*
Y14401D01*
X14438D01*
X14480Y14381D01*
Y14381D01*
X14480Y14381D01*
X15080D01*
Y14887D01*
X15250D01*
Y14731D01*
X15530D01*
Y14681D01*
X15580D01*
Y14401D01*
X15810D01*
X15850Y14381D01*
Y14381D01*
X16450D01*
Y14981D01*
X16317D01*
X16310Y15016D01*
X16297Y15037D01*
X16323Y15087D01*
X17148D01*
X17208Y15027D01*
X17195Y14969D01*
X17178Y14961D01*
X17170Y14961D01*
X16950D01*
Y14681D01*
Y14401D01*
X17170D01*
X17178Y14401D01*
X17220Y14381D01*
X17222Y14381D01*
X17820D01*
Y14981D01*
X17689D01*
X17680Y15026D01*
X17673Y15037D01*
X17697Y15081D01*
X18364D01*
X18437Y15007D01*
X18418Y14961D01*
X18320D01*
Y14681D01*
Y14401D01*
X18550D01*
X18587Y14369D01*
Y12052D01*
X18540Y12005D01*
X18490Y12026D01*
Y12729D01*
X17890D01*
Y12532D01*
X17799D01*
X17732Y12519D01*
X17676Y12481D01*
X17237Y12043D01*
X17200Y11986D01*
X17187Y11920D01*
Y11899D01*
X17185Y11896D01*
X17180Y11893D01*
X17130Y11922D01*
Y12451D01*
X16602D01*
X16582Y12501D01*
X16610Y12544D01*
X16618Y12581D01*
X16750D01*
Y13067D01*
X16900D01*
Y12581D01*
X17500D01*
Y13181D01*
X17367D01*
X17360Y13216D01*
X17323Y13272D01*
X17233Y13363D01*
X17176Y13400D01*
X17143Y13407D01*
X17126Y13461D01*
X17373Y13708D01*
X17600D01*
Y13511D01*
X18200D01*
Y14251D01*
X17600D01*
Y14055D01*
X17301D01*
X17235Y14041D01*
X17179Y14004D01*
X16876Y13701D01*
X16830Y13721D01*
Y14251D01*
X16230D01*
Y14055D01*
X15961D01*
X15961Y14055D01*
X15895Y14041D01*
X15839Y14004D01*
X15506Y13671D01*
X15460Y13691D01*
Y14251D01*
X14860D01*
Y13573D01*
X14802D01*
X14371Y14004D01*
X14315Y14041D01*
X14249Y14055D01*
X14100D01*
Y14251D01*
X13500D01*
Y13671D01*
X13450Y13666D01*
X13440Y13716D01*
X13403Y13773D01*
X13171Y14004D01*
X13115Y14041D01*
X13049Y14055D01*
X12740D01*
Y14251D01*
X12140D01*
Y13511D01*
X12740D01*
Y13708D01*
X12977D01*
X13084Y13600D01*
X13061Y13557D01*
X13057Y13555D01*
X13010Y13564D01*
X12924Y13547D01*
X12851Y13499D01*
X12803Y13426D01*
X12791Y13366D01*
X12738Y13313D01*
X12057D01*
X12006Y13347D01*
X11920Y13364D01*
X11883Y13357D01*
X11833Y13398D01*
Y14381D01*
X12360D01*
Y14981D01*
X12229D01*
X12220Y15026D01*
X12183Y15082D01*
X12003Y15262D01*
Y15374D01*
X12050Y15393D01*
X12495Y14947D01*
D02*
G37*
G36*
X17977Y40398D02*
Y38788D01*
X17938Y38757D01*
X17900Y38764D01*
X17814Y38747D01*
X17763Y38713D01*
X17551D01*
Y39310D01*
X17427D01*
Y39525D01*
X17630D01*
Y40355D01*
X17478D01*
Y40396D01*
X17461Y40482D01*
X17413Y40555D01*
X17159Y40809D01*
X17086Y40857D01*
X17000Y40874D01*
X11320D01*
X11234Y40857D01*
X11161Y40809D01*
X10921Y40569D01*
X10873Y40496D01*
X10856Y40410D01*
Y40366D01*
X10724D01*
Y39654D01*
X10856D01*
Y38983D01*
X10081Y38209D01*
X10033Y38136D01*
X10016Y38050D01*
Y37925D01*
X9378Y37925D01*
X9336Y37905D01*
X9056D01*
Y37510D01*
Y37115D01*
X9336D01*
X9378Y37095D01*
X9404Y37095D01*
X9530D01*
Y36921D01*
X9494Y36885D01*
X9378Y36885D01*
X9336Y36865D01*
X9328D01*
X9056D01*
Y36470D01*
Y36075D01*
X9336D01*
X9378Y36055D01*
X9404Y36055D01*
X9500D01*
X9517Y36005D01*
X9341Y35829D01*
X9293Y35756D01*
X9276Y35670D01*
Y35432D01*
X9050D01*
Y35135D01*
Y34838D01*
X9276D01*
Y34730D01*
X9293Y34644D01*
X9341Y34571D01*
X9986Y33927D01*
Y28653D01*
X8927Y27594D01*
X8490D01*
X8404Y27577D01*
X8331Y27529D01*
X8170Y27367D01*
X8123Y27386D01*
Y28223D01*
X8173Y28251D01*
X8204Y28232D01*
X8372Y28162D01*
X8549Y28120D01*
X8730Y28106D01*
X8911Y28120D01*
X9088Y28162D01*
X9256Y28232D01*
X9411Y28327D01*
X9549Y28445D01*
X9667Y28583D01*
X9762Y28738D01*
X9831Y28906D01*
X9874Y29082D01*
X9888Y29263D01*
X9874Y29445D01*
X9831Y29621D01*
X9762Y29789D01*
X9667Y29944D01*
X9549Y30082D01*
X9411Y30200D01*
X9256Y30295D01*
X9088Y30365D01*
X8911Y30407D01*
X8730Y30421D01*
X8549Y30407D01*
X8372Y30365D01*
X8204Y30295D01*
X8049Y30200D01*
X7911Y30082D01*
X7793Y29944D01*
X7698Y29789D01*
X7692Y29775D01*
X7643Y29784D01*
Y30238D01*
X7993Y30587D01*
X8030Y30644D01*
X8043Y30710D01*
Y31760D01*
X8030Y31826D01*
X7993Y31883D01*
X7889Y31987D01*
X7832Y32024D01*
X7766Y32037D01*
X7715D01*
Y32240D01*
X6885D01*
Y32037D01*
X6675D01*
Y32240D01*
X5845D01*
Y32039D01*
X5635D01*
Y32238D01*
Y32990D01*
X4805D01*
Y32787D01*
X4698D01*
X4323Y33163D01*
X4266Y33200D01*
X4200Y33213D01*
X3220D01*
Y33867D01*
X1580D01*
Y32227D01*
X1983D01*
X1995Y32179D01*
X1953Y32157D01*
X1832Y32057D01*
X1732Y31935D01*
X1657Y31796D01*
X1612Y31645D01*
X1601Y31538D01*
X2400D01*
X3199D01*
X3188Y31645D01*
X3143Y31796D01*
X3068Y31935D01*
X2968Y32057D01*
X2847Y32157D01*
X2805Y32179D01*
X2817Y32227D01*
X3220D01*
Y32867D01*
X4128D01*
X4503Y32491D01*
X4560Y32454D01*
X4626Y32441D01*
X4805D01*
Y32238D01*
Y31490D01*
X5635D01*
Y31693D01*
X5845D01*
X5845Y31488D01*
X5865Y31446D01*
Y31438D01*
Y31166D01*
X6260D01*
X6655D01*
Y31446D01*
X6675Y31488D01*
X6675Y31514D01*
Y31691D01*
X6885D01*
Y31488D01*
Y30740D01*
X7127D01*
Y28660D01*
X7140Y28593D01*
X7177Y28537D01*
X7245Y28469D01*
X7226Y28423D01*
X7030D01*
Y28949D01*
X6430D01*
Y28349D01*
X6513D01*
X6522Y28339D01*
X6538Y28299D01*
X6510Y28256D01*
X6497Y28190D01*
Y28115D01*
X6298Y28115D01*
X6256Y28095D01*
X6248D01*
X5976D01*
Y27700D01*
Y27305D01*
X6256D01*
X6298Y27285D01*
X6324Y27285D01*
X7050D01*
Y28077D01*
X7258D01*
X7427Y27908D01*
Y25272D01*
X7117Y24963D01*
X7080Y24906D01*
X7067Y24840D01*
Y23857D01*
X7033Y23806D01*
X7016Y23720D01*
X7017Y23712D01*
X6986Y23673D01*
X6802D01*
X6753Y23722D01*
Y23880D01*
X6995D01*
Y24628D01*
Y25380D01*
X6165D01*
X6147Y25423D01*
Y25635D01*
X6350D01*
Y26465D01*
X4850D01*
Y26223D01*
X4710D01*
X4644Y26210D01*
X4587Y26173D01*
X3846Y25431D01*
X3804Y25459D01*
X3718Y25476D01*
X3654Y25464D01*
X3604Y25496D01*
Y26613D01*
X3654Y26639D01*
X3694Y26613D01*
X3780Y26596D01*
X3866Y26613D01*
X3939Y26661D01*
X4164Y26886D01*
X5259Y27981D01*
X5307Y28054D01*
X5324Y28140D01*
Y28305D01*
X5460D01*
Y28905D01*
X4740D01*
Y28305D01*
X4876D01*
Y28233D01*
X3846Y27204D01*
X3654Y27012D01*
X3604Y27032D01*
Y27390D01*
X3587Y27476D01*
X3539Y27549D01*
X3116Y27971D01*
X3161Y28055D01*
X3208Y28209D01*
X3224Y28370D01*
X3208Y28531D01*
X3161Y28686D01*
X3085Y28828D01*
X2983Y28953D01*
X2858Y29055D01*
X2732Y29122D01*
X2731Y29126D01*
Y29173D01*
X2732Y29177D01*
X2858Y29244D01*
X2983Y29347D01*
X3085Y29472D01*
X3161Y29614D01*
X3178Y29671D01*
X4740D01*
Y29595D01*
X5460D01*
Y29671D01*
X5835D01*
X5921Y29688D01*
X5994Y29736D01*
X6000Y29743D01*
X6050Y29738D01*
Y29079D01*
X6650D01*
Y29819D01*
X6574D01*
Y29830D01*
X6557Y29916D01*
X6508Y29989D01*
X6369Y30129D01*
X6296Y30177D01*
X6210Y30194D01*
X5910D01*
X5824Y30177D01*
X5751Y30129D01*
X5742Y30119D01*
X5460D01*
Y30195D01*
X4740D01*
Y30119D01*
X3199D01*
X3161Y30245D01*
X3085Y30387D01*
X2983Y30512D01*
X2858Y30614D01*
X2715Y30691D01*
X2703Y30694D01*
Y30744D01*
X2708Y30746D01*
X2847Y30820D01*
X2968Y30920D01*
X3068Y31042D01*
X3143Y31181D01*
X3188Y31332D01*
X3199Y31438D01*
X2400D01*
X1601D01*
X1612Y31332D01*
X1657Y31181D01*
X1732Y31042D01*
X1832Y30920D01*
X1953Y30820D01*
X2092Y30746D01*
X2097Y30744D01*
Y30694D01*
X2085Y30691D01*
X1942Y30614D01*
X1817Y30512D01*
X1715Y30387D01*
X1639Y30245D01*
X1592Y30090D01*
X1576Y29929D01*
X1592Y29769D01*
X1639Y29614D01*
X1715Y29472D01*
X1817Y29347D01*
X1942Y29244D01*
X2068Y29177D01*
X2069Y29173D01*
Y29126D01*
X2068Y29122D01*
X1942Y29055D01*
X1817Y28953D01*
X1715Y28828D01*
X1639Y28686D01*
X1592Y28531D01*
X1576Y28370D01*
X1592Y28209D01*
X1639Y28055D01*
X1715Y27912D01*
X1817Y27788D01*
X1942Y27685D01*
X2068Y27618D01*
X2069Y27614D01*
Y27567D01*
X2068Y27563D01*
X1942Y27496D01*
X1817Y27394D01*
X1715Y27269D01*
X1643Y27134D01*
X1251D01*
X1168Y27123D01*
X1090Y27091D01*
X1023Y27039D01*
X322Y26338D01*
X270Y26271D01*
X238Y26194D01*
X227Y26110D01*
Y19010D01*
Y15890D01*
Y9830D01*
Y5660D01*
X238Y5576D01*
X270Y5499D01*
X322Y5432D01*
X1013Y4740D01*
X1080Y4689D01*
X1158Y4657D01*
X1242Y4646D01*
X1643D01*
X1715Y4511D01*
X1817Y4386D01*
X1942Y4283D01*
X2085Y4207D01*
X2239Y4160D01*
X2400Y4145D01*
X2561Y4160D01*
X2715Y4207D01*
X2858Y4283D01*
X2983Y4386D01*
X3085Y4511D01*
X3161Y4653D01*
X3208Y4808D01*
X3224Y4969D01*
X3208Y5129D01*
X3161Y5284D01*
X3085Y5426D01*
X2983Y5551D01*
X2858Y5654D01*
X2732Y5721D01*
X2731Y5725D01*
Y5771D01*
X2732Y5775D01*
X2858Y5842D01*
X2983Y5945D01*
X3085Y6070D01*
X3161Y6212D01*
X3189Y6303D01*
X3420D01*
X5321Y4401D01*
X5394Y4353D01*
X5480Y4336D01*
X5735D01*
X5791Y4325D01*
X5847Y4336D01*
X7313D01*
X7370Y4260D01*
X7447Y4202D01*
Y3316D01*
X7372Y3258D01*
X7304Y3170D01*
X7262Y3068D01*
X7247Y2958D01*
X7262Y2849D01*
X7304Y2747D01*
X7372Y2659D01*
X7447Y2601D01*
Y2029D01*
X7464Y1943D01*
X7512Y1870D01*
X8811Y571D01*
X8884Y523D01*
X8970Y506D01*
X18460D01*
X18546Y523D01*
X18619Y571D01*
X20373Y2326D01*
X21100D01*
X21186Y2343D01*
X21259Y2391D01*
X21664Y2797D01*
X21703Y2765D01*
X21671Y2717D01*
X21574Y2520D01*
X21503Y2313D01*
X21461Y2098D01*
X21446Y1880D01*
X21461Y1662D01*
X21503Y1447D01*
X21574Y1240D01*
X21671Y1043D01*
X21792Y861D01*
X21937Y697D01*
X22101Y552D01*
X22283Y431D01*
X22480Y334D01*
X22687Y263D01*
X22902Y221D01*
X23120Y206D01*
X23338Y221D01*
X23553Y263D01*
X23760Y334D01*
X23957Y431D01*
X24139Y552D01*
X24303Y697D01*
X24448Y861D01*
X24569Y1043D01*
X24666Y1240D01*
X24737Y1447D01*
X24779Y1662D01*
X24794Y1880D01*
X24779Y2098D01*
X24737Y2313D01*
X24666Y2520D01*
X24569Y2717D01*
X24448Y2899D01*
X24303Y3063D01*
X24139Y3208D01*
X23957Y3329D01*
X23760Y3426D01*
X23553Y3497D01*
X23338Y3539D01*
X23120Y3554D01*
X22902Y3539D01*
X22687Y3497D01*
X22480Y3426D01*
X22283Y3329D01*
X22235Y3297D01*
X22203Y3336D01*
X22803Y3936D01*
X23440D01*
X23526Y3953D01*
X23599Y4001D01*
X24239Y4641D01*
X24287Y4714D01*
X24304Y4800D01*
Y12517D01*
X24806Y13019D01*
X24852Y13000D01*
Y148D01*
X148D01*
Y34640D01*
X5312Y34640D01*
X5327Y34606D01*
X5422Y34451D01*
X5540Y34313D01*
X5678Y34195D01*
X5833Y34100D01*
X6000Y34030D01*
X6177Y33988D01*
X6358Y33973D01*
X6539Y33988D01*
X6716Y34030D01*
X6884Y34100D01*
X7039Y34195D01*
X7177Y34313D01*
X7295Y34451D01*
X7390Y34606D01*
X7459Y34774D01*
X7502Y34950D01*
X7516Y35131D01*
X7502Y35312D01*
X7459Y35489D01*
X7390Y35657D01*
X7295Y35812D01*
X7177Y35950D01*
X7039Y36068D01*
X6922Y36139D01*
X6917Y36189D01*
X8600Y37873D01*
X8650Y37852D01*
Y37560D01*
X8956D01*
Y37905D01*
X8704D01*
X8683Y37955D01*
X10148Y39420D01*
Y42417D01*
X15958D01*
X17977Y40398D01*
D02*
G37*
G36*
X16906Y40405D02*
X16881Y40355D01*
X16130D01*
Y39603D01*
X15330D01*
X15264Y39590D01*
X15207Y39553D01*
X15117Y39462D01*
X15080Y39406D01*
X15074Y39379D01*
X14940D01*
Y38639D01*
X15540D01*
Y39257D01*
X16209D01*
Y38696D01*
X16260D01*
X16280Y38646D01*
X16017Y38382D01*
X15920D01*
Y38509D01*
X15320D01*
Y37909D01*
X15920D01*
Y38035D01*
X16089D01*
X16155Y38049D01*
X16211Y38086D01*
X16492Y38367D01*
X16583D01*
Y37803D01*
X16110D01*
X16044Y37790D01*
X15987Y37753D01*
X15987Y37753D01*
X15877Y37643D01*
X15840Y37586D01*
X15831Y37540D01*
X15585D01*
Y36788D01*
Y36040D01*
X15827D01*
Y35401D01*
X15783Y35368D01*
X15750Y35364D01*
X15717Y35368D01*
X15660Y35412D01*
X15583Y35444D01*
X15500Y35455D01*
X15417Y35444D01*
X15340Y35412D01*
X15283Y35368D01*
X15250Y35364D01*
X15217Y35368D01*
X15160Y35412D01*
X15083Y35444D01*
X15000Y35455D01*
X14917Y35444D01*
X14840Y35412D01*
X14783Y35368D01*
X14750Y35364D01*
X14717Y35368D01*
X14660Y35412D01*
X14583Y35444D01*
X14500Y35455D01*
X14417Y35444D01*
X14340Y35412D01*
X14283Y35368D01*
X14250Y35364D01*
X14217Y35368D01*
X14160Y35412D01*
X14083Y35444D01*
X14000Y35455D01*
X13917Y35444D01*
X13840Y35412D01*
X13783Y35368D01*
X13750Y35364D01*
X13717Y35368D01*
X13660Y35412D01*
X13583Y35444D01*
X13500Y35455D01*
X13417Y35444D01*
X13340Y35412D01*
X13283Y35368D01*
X13250Y35364D01*
X13217Y35368D01*
X13160Y35412D01*
X13083Y35444D01*
X13000Y35455D01*
X12917Y35444D01*
X12840Y35412D01*
X12783Y35368D01*
X12750Y35364D01*
X12717Y35368D01*
X12660Y35412D01*
X12583Y35444D01*
X12500Y35455D01*
X12417Y35444D01*
X12340Y35412D01*
X12283Y35368D01*
X12250Y35364D01*
X12217Y35368D01*
X12160Y35412D01*
X12083Y35444D01*
X12000Y35455D01*
X11917Y35444D01*
X11840Y35412D01*
X11783Y35368D01*
X11750Y35364D01*
X11717Y35368D01*
X11660Y35412D01*
X11583Y35444D01*
X11500Y35455D01*
X11417Y35444D01*
X11340Y35412D01*
X11274Y35361D01*
X11262Y35346D01*
X11212D01*
X11212Y35347D01*
X11150Y35394D01*
X11077Y35424D01*
X11050Y35428D01*
Y35135D01*
X10950D01*
Y35428D01*
X10922Y35424D01*
X10850Y35394D01*
X10788Y35347D01*
X10788Y35346D01*
X10738D01*
X10726Y35361D01*
X10660Y35412D01*
X10583Y35444D01*
X10500Y35455D01*
X10417Y35444D01*
X10340Y35412D01*
X10283Y35368D01*
X10250Y35364D01*
X10217Y35368D01*
X10173Y35401D01*
Y35588D01*
X11312Y36727D01*
X11860D01*
X11926Y36740D01*
X11983Y36777D01*
X12093Y36887D01*
X12093Y36887D01*
X12130Y36944D01*
X12143Y37010D01*
Y37085D01*
X12806D01*
X12832Y37085D01*
X12874Y37105D01*
X12882D01*
X13154D01*
Y37500D01*
Y37895D01*
X12874D01*
X12832Y37915D01*
X12806Y37915D01*
X12143D01*
Y38288D01*
X12203Y38347D01*
X12203Y38347D01*
X12240Y38404D01*
X12253Y38470D01*
Y39696D01*
X12260Y39699D01*
X12334Y39756D01*
X12391Y39830D01*
X12427Y39917D01*
X12439Y40010D01*
X12427Y40103D01*
X12391Y40190D01*
X12334Y40264D01*
X12260Y40321D01*
X12173Y40357D01*
X12080Y40369D01*
X11987Y40357D01*
X11900Y40321D01*
X11826Y40264D01*
X11769Y40190D01*
X11733Y40103D01*
X11721Y40010D01*
X11733Y39917D01*
X11769Y39830D01*
X11826Y39756D01*
X11900Y39699D01*
X11907Y39696D01*
Y38542D01*
X11847Y38483D01*
X11810Y38426D01*
X11797Y38360D01*
Y37915D01*
X10484D01*
X10473Y37965D01*
X11239Y38731D01*
X11287Y38804D01*
X11304Y38890D01*
Y39654D01*
X11436D01*
Y40366D01*
X11436D01*
X11441Y40414D01*
X11448Y40426D01*
X16890D01*
X16906Y40405D01*
D02*
G37*
G36*
X20764Y38323D02*
X20850Y38306D01*
X20858Y38307D01*
X20897Y38276D01*
Y32206D01*
X20910Y32140D01*
X20947Y32084D01*
X21363Y31668D01*
X21347Y31614D01*
X21314Y31607D01*
X21241Y31559D01*
X21193Y31486D01*
X21184Y31443D01*
X19122D01*
X19043Y31523D01*
X18986Y31560D01*
X18920Y31573D01*
X18662D01*
X18656Y31577D01*
X18570Y31594D01*
X18484Y31577D01*
X18411Y31529D01*
X18399Y31511D01*
X18350Y31506D01*
X17939Y31916D01*
X17927Y31976D01*
X17879Y32049D01*
X17806Y32097D01*
X17720Y32114D01*
X17683Y32107D01*
X17633Y32148D01*
Y32672D01*
X17620Y32739D01*
X17583Y32794D01*
Y34554D01*
X17633Y34568D01*
X17705Y34451D01*
X17823Y34313D01*
X17961Y34195D01*
X18116Y34100D01*
X18284Y34030D01*
X18461Y33988D01*
X18642Y33973D01*
X18823Y33988D01*
X18999Y34030D01*
X19167Y34100D01*
X19322Y34195D01*
X19460Y34313D01*
X19578Y34451D01*
X19673Y34606D01*
X19743Y34774D01*
X19785Y34950D01*
X19800Y35131D01*
X19785Y35312D01*
X19743Y35489D01*
X19673Y35657D01*
X19578Y35812D01*
X19460Y35950D01*
X19322Y36068D01*
X19167Y36163D01*
X18999Y36232D01*
X18823Y36275D01*
X18642Y36289D01*
X18461Y36275D01*
X18284Y36232D01*
X18116Y36163D01*
X17961Y36068D01*
X17823Y35950D01*
X17705Y35812D01*
X17633Y35695D01*
X17583Y35709D01*
Y35857D01*
X18953Y37226D01*
X18990Y37282D01*
X19003Y37348D01*
Y38314D01*
X19047Y38337D01*
X19054Y38333D01*
X19140Y38316D01*
X19226Y38333D01*
X19262Y38357D01*
X20713D01*
X20764Y38323D01*
D02*
G37*
G36*
X21967Y45028D02*
Y41800D01*
X21954Y41797D01*
X21881Y41749D01*
X21873Y41737D01*
X21823Y41752D01*
Y41919D01*
X21888D01*
Y42888D01*
X21412D01*
Y42888D01*
X21388D01*
Y42888D01*
X20912D01*
Y42888D01*
X20888D01*
Y42888D01*
X20412D01*
Y42888D01*
X20388D01*
Y42888D01*
X19933D01*
Y43970D01*
X19920Y44036D01*
X19907Y44057D01*
X19935Y44104D01*
X20388D01*
Y44104D01*
X20412Y44104D01*
Y44104D01*
X20888D01*
Y44104D01*
X20912D01*
Y44104D01*
X21388D01*
Y44109D01*
X21432Y44124D01*
X21438Y44124D01*
X21600D01*
Y44588D01*
Y45053D01*
X21438D01*
X21432Y45053D01*
X21430Y45053D01*
X21414Y45061D01*
X21400Y45115D01*
X21522Y45237D01*
X21758D01*
X21967Y45028D01*
D02*
G37*
G36*
X9968Y45495D02*
X9968Y43443D01*
X9782D01*
X9453Y43773D01*
X9396Y43810D01*
X9330Y43823D01*
X8082D01*
X6969Y44937D01*
X6912Y44974D01*
X6846Y44987D01*
X6695D01*
Y45190D01*
X5865D01*
Y44438D01*
Y44239D01*
X5655D01*
X5655Y44442D01*
X5635Y44484D01*
Y44492D01*
Y44764D01*
X4845D01*
Y44484D01*
X4825Y44442D01*
X4825Y44416D01*
Y44239D01*
X2820D01*
Y44471D01*
X1980D01*
Y43631D01*
X2820D01*
Y43893D01*
X4825D01*
Y43690D01*
X5655D01*
Y43893D01*
X5865D01*
Y43690D01*
X6695D01*
Y44438D01*
Y44641D01*
X6774D01*
X7870Y43545D01*
X7849Y43495D01*
X7730D01*
Y43253D01*
X6695D01*
Y43450D01*
X5865D01*
Y43247D01*
X5655D01*
Y43450D01*
X4825D01*
Y43247D01*
X2773D01*
X2767Y43263D01*
X2700Y43351D01*
X2612Y43418D01*
X2510Y43460D01*
X2400Y43475D01*
X2290Y43460D01*
X2188Y43418D01*
X2100Y43351D01*
X2033Y43263D01*
X1991Y43161D01*
X1976Y43051D01*
X1991Y42942D01*
X2033Y42839D01*
X2100Y42752D01*
X2188Y42684D01*
X2290Y42642D01*
X2400Y42628D01*
X2510Y42642D01*
X2612Y42684D01*
X2700Y42752D01*
X2767Y42839D01*
X2792Y42901D01*
X4825D01*
X4825Y42698D01*
X4845Y42656D01*
Y42648D01*
Y42376D01*
X5635D01*
Y42656D01*
X5655Y42698D01*
X5655Y42724D01*
Y42901D01*
X5865D01*
X5865Y42698D01*
X5885Y42656D01*
Y42648D01*
Y42376D01*
X6675D01*
Y42656D01*
X6695Y42698D01*
X6695Y42724D01*
Y42907D01*
X7730D01*
Y42665D01*
X9230D01*
Y42907D01*
X9420D01*
X9486Y42920D01*
X9497Y42927D01*
X9653D01*
X9667Y42901D01*
X9671Y42877D01*
X9507Y42713D01*
X9470Y42657D01*
X9457Y42590D01*
Y42561D01*
X8037Y41142D01*
X8000Y41086D01*
X7987Y41020D01*
Y40990D01*
X7745D01*
Y40787D01*
X7535D01*
Y40990D01*
X6705D01*
Y40264D01*
X6705Y40238D01*
X6725Y40196D01*
Y40188D01*
Y39916D01*
X7515D01*
Y40196D01*
X7535Y40238D01*
X7535Y40264D01*
Y40441D01*
X7745D01*
Y40238D01*
Y39490D01*
X7924D01*
X7945Y39440D01*
X7921Y39417D01*
X7884Y39360D01*
X7871Y39294D01*
Y39285D01*
X6920D01*
Y39037D01*
X6715D01*
Y39240D01*
X5885D01*
Y39037D01*
X5665D01*
Y39240D01*
X5423D01*
Y39450D01*
X5665D01*
Y40198D01*
Y40950D01*
X4835D01*
Y40747D01*
X4384D01*
X4318Y40734D01*
X4261Y40697D01*
X3787Y40223D01*
X3750Y40166D01*
X3737Y40100D01*
Y37892D01*
X3559Y37714D01*
X3204D01*
X3161Y37856D01*
X3085Y37999D01*
X2983Y38124D01*
X2858Y38226D01*
X2810Y38252D01*
X2822Y38300D01*
X3200D01*
Y39050D01*
X2400D01*
X1600D01*
Y38300D01*
X1978D01*
X1990Y38252D01*
X1942Y38226D01*
X1817Y38124D01*
X1715Y37999D01*
X1639Y37856D01*
X1592Y37702D01*
X1576Y37541D01*
X1592Y37380D01*
X1639Y37226D01*
X1715Y37083D01*
X1817Y36958D01*
X1942Y36856D01*
X2085Y36780D01*
X2239Y36733D01*
X2400Y36717D01*
X2561Y36733D01*
X2715Y36780D01*
X2858Y36856D01*
X2983Y36958D01*
X3085Y37083D01*
X3161Y37226D01*
X3204Y37368D01*
X3631D01*
X3697Y37381D01*
X3754Y37418D01*
X4033Y37697D01*
X4070Y37754D01*
X4083Y37820D01*
Y40028D01*
X4456Y40401D01*
X4835D01*
Y40198D01*
Y39450D01*
X5077D01*
Y39240D01*
X4835D01*
Y38514D01*
X4835Y38488D01*
X4855Y38446D01*
Y38438D01*
Y38166D01*
X5645D01*
Y38446D01*
X5665Y38488D01*
X5665Y38514D01*
Y38691D01*
X5885D01*
X5885Y38488D01*
X5905Y38446D01*
Y38438D01*
Y38166D01*
X6695D01*
Y38446D01*
X6715Y38488D01*
X6715Y38514D01*
Y38691D01*
X6920D01*
Y38455D01*
X8420D01*
Y39285D01*
X8341D01*
X8315Y39335D01*
X8320Y39344D01*
X8333Y39410D01*
Y39490D01*
X8575D01*
Y39693D01*
X8785D01*
Y39490D01*
X9615D01*
Y40238D01*
Y40990D01*
X9373D01*
Y41747D01*
X9918Y42292D01*
X9938Y42289D01*
X9968Y42274D01*
X9968Y39560D01*
X6655Y36247D01*
X6539Y36275D01*
X6358Y36289D01*
X6177Y36275D01*
X6000Y36232D01*
X5833Y36163D01*
X5678Y36068D01*
X5540Y35950D01*
X5422Y35812D01*
X5327Y35657D01*
X5257Y35489D01*
X5215Y35312D01*
X5200Y35131D01*
X5213Y34975D01*
X5176Y34925D01*
X148D01*
Y46625D01*
X5170D01*
X5204Y46588D01*
X5200Y46549D01*
X5215Y46368D01*
X5257Y46191D01*
X5327Y46023D01*
X5422Y45868D01*
X5540Y45730D01*
X5678Y45612D01*
X5833Y45517D01*
X6000Y45447D01*
X6177Y45405D01*
X6358Y45391D01*
X6539Y45405D01*
X6716Y45447D01*
X6884Y45517D01*
X7039Y45612D01*
X7177Y45730D01*
X7295Y45868D01*
X7390Y46023D01*
X7459Y46191D01*
X7502Y46368D01*
X7516Y46549D01*
X7513Y46588D01*
X7547Y46625D01*
X8838D01*
X9968Y45495D01*
D02*
G37*
G36*
X17847Y49488D02*
Y49213D01*
X17800Y49194D01*
X17692Y49303D01*
X17636Y49340D01*
X17570Y49353D01*
X17285D01*
Y49675D01*
X16295D01*
Y49333D01*
X16245Y49323D01*
X16205Y49420D01*
X16129Y49519D01*
X16030Y49595D01*
X15914Y49643D01*
X15840Y49653D01*
Y49180D01*
Y48707D01*
X15914Y48717D01*
X16030Y48765D01*
X16129Y48841D01*
X16205Y48940D01*
X16245Y49037D01*
X16295Y49027D01*
Y48685D01*
X17285D01*
Y49007D01*
X17498D01*
X18467Y48037D01*
X18523Y48000D01*
X18590Y47987D01*
X19747D01*
X21904Y45830D01*
X21880Y45784D01*
X21880Y45783D01*
X21130D01*
X21130Y45783D01*
X21064Y45770D01*
X21007Y45733D01*
X21007Y45733D01*
X20527Y45253D01*
X20490Y45196D01*
X20477Y45130D01*
Y45073D01*
X20412D01*
Y45073D01*
X20388Y45073D01*
Y45073D01*
X20323D01*
Y45126D01*
X20310Y45192D01*
X20273Y45249D01*
X20059Y45463D01*
X20002Y45500D01*
X19936Y45513D01*
X19257D01*
X19243Y45563D01*
X19322Y45612D01*
X19460Y45730D01*
X19578Y45868D01*
X19673Y46023D01*
X19743Y46191D01*
X19785Y46368D01*
X19800Y46549D01*
X19785Y46730D01*
X19743Y46906D01*
X19673Y47074D01*
X19578Y47229D01*
X19460Y47367D01*
X19322Y47485D01*
X19167Y47580D01*
X18999Y47650D01*
X18823Y47692D01*
X18642Y47706D01*
X18461Y47692D01*
X18284Y47650D01*
X18116Y47580D01*
X17961Y47485D01*
X17823Y47367D01*
X17705Y47229D01*
X17610Y47074D01*
X17541Y46906D01*
X17498Y46730D01*
X17484Y46549D01*
X17498Y46368D01*
X17541Y46191D01*
X17610Y46023D01*
X17705Y45868D01*
X17823Y45730D01*
X17961Y45612D01*
X18116Y45517D01*
X18284Y45447D01*
X18461Y45405D01*
X18540Y45399D01*
X18557Y45352D01*
X18507Y45303D01*
X18470Y45246D01*
X18457Y45180D01*
Y42209D01*
X18407Y42188D01*
X17873Y42722D01*
Y45400D01*
X17860Y45466D01*
X17823Y45523D01*
X15183Y48163D01*
X15126Y48200D01*
X15060Y48213D01*
X13292D01*
X12873Y48632D01*
Y49007D01*
X13326D01*
X13358Y48930D01*
X13437Y48827D01*
X13540Y48748D01*
X13661Y48698D01*
X13790Y48681D01*
X13919Y48698D01*
X14040Y48748D01*
X14143Y48827D01*
X14222Y48930D01*
X14263Y49028D01*
X14317D01*
X14358Y48930D01*
X14437Y48827D01*
X14540Y48748D01*
X14661Y48698D01*
X14790Y48681D01*
X14919Y48698D01*
X15040Y48748D01*
X15143Y48827D01*
X15222Y48930D01*
X15272Y49051D01*
X15275Y49071D01*
X15325D01*
X15327Y49056D01*
X15375Y48940D01*
X15451Y48841D01*
X15550Y48765D01*
X15666Y48717D01*
X15740Y48707D01*
Y49180D01*
Y49653D01*
X15666Y49643D01*
X15550Y49595D01*
X15451Y49519D01*
X15375Y49420D01*
X15327Y49304D01*
X15325Y49289D01*
X15275D01*
X15272Y49309D01*
X15222Y49430D01*
X15143Y49533D01*
X15040Y49612D01*
X14963Y49644D01*
Y49738D01*
X15062Y49837D01*
X17498D01*
X17847Y49488D01*
D02*
G37*
G36*
X10360Y37085D02*
X11120D01*
X11136Y37035D01*
X11117Y37023D01*
X10180Y36085D01*
X10130Y36106D01*
Y36885D01*
X9978D01*
Y37095D01*
X10130D01*
Y37286D01*
X10360D01*
Y37085D01*
D02*
G37*
G36*
X14695Y49960D02*
X14667Y49933D01*
X14630Y49876D01*
X14617Y49810D01*
Y49644D01*
X14540Y49612D01*
X14437Y49533D01*
X14358Y49430D01*
X14317Y49332D01*
X14263D01*
X14222Y49430D01*
X14143Y49533D01*
X14040Y49612D01*
X13919Y49662D01*
X13790Y49679D01*
X13661Y49662D01*
X13540Y49612D01*
X13437Y49533D01*
X13358Y49430D01*
X13326Y49353D01*
X11995D01*
Y49675D01*
X11005D01*
Y49385D01*
X10955Y49375D01*
X10932Y49430D01*
X10853Y49533D01*
X10750Y49612D01*
X10680Y49641D01*
X10675Y49690D01*
X10992Y50007D01*
X14676D01*
X14695Y49960D01*
D02*
G37*
%LPC*%
G36*
X9031Y26919D02*
X8784D01*
Y26672D01*
X9031D01*
Y26919D01*
D02*
G37*
G36*
X5330Y24206D02*
X4985D01*
Y23900D01*
X5330D01*
Y24206D01*
D02*
G37*
G36*
X6190Y20799D02*
X5960D01*
Y20569D01*
X6190D01*
Y20799D01*
D02*
G37*
G36*
X5860D02*
X5630D01*
Y20569D01*
X5860D01*
Y20799D01*
D02*
G37*
G36*
Y21129D02*
X5630D01*
Y20899D01*
X5860D01*
Y21129D01*
D02*
G37*
G36*
X6190D02*
X5960D01*
Y20899D01*
X6190D01*
Y21129D01*
D02*
G37*
G36*
X6585Y19086D02*
X6240D01*
Y18780D01*
X6585D01*
Y19086D01*
D02*
G37*
G36*
X6140D02*
X5795D01*
Y18780D01*
X6140D01*
Y19086D01*
D02*
G37*
G36*
X21950Y21456D02*
X21605D01*
Y21150D01*
X21950D01*
Y21456D01*
D02*
G37*
G36*
X8450Y49653D02*
X8376Y49643D01*
X8260Y49595D01*
X8161Y49519D01*
X8085Y49420D01*
X8037Y49304D01*
X8027Y49230D01*
X8450D01*
Y49653D01*
D02*
G37*
G36*
X20472Y50407D02*
X20343Y50395D01*
X20219Y50357D01*
X20104Y50296D01*
X20003Y50213D01*
X19921Y50113D01*
X19860Y49998D01*
X19822Y49873D01*
X19809Y49744D01*
X19822Y49615D01*
X19860Y49490D01*
X19921Y49376D01*
X20003Y49275D01*
X20104Y49193D01*
X20219Y49131D01*
X20343Y49094D01*
X20472Y49081D01*
X20602Y49094D01*
X20726Y49131D01*
X20841Y49193D01*
X20941Y49275D01*
X21024Y49376D01*
X21085Y49490D01*
X21123Y49615D01*
X21136Y49744D01*
X21123Y49873D01*
X21085Y49998D01*
X21024Y50113D01*
X20941Y50213D01*
X20841Y50296D01*
X20726Y50357D01*
X20602Y50395D01*
X20472Y50407D01*
D02*
G37*
G36*
X1880Y51044D02*
X1662Y51029D01*
X1447Y50987D01*
X1240Y50916D01*
X1043Y50819D01*
X861Y50698D01*
X697Y50553D01*
X552Y50389D01*
X431Y50207D01*
X334Y50010D01*
X263Y49803D01*
X221Y49588D01*
X206Y49370D01*
X221Y49152D01*
X263Y48937D01*
X334Y48730D01*
X431Y48533D01*
X552Y48351D01*
X697Y48187D01*
X861Y48042D01*
X1043Y47921D01*
X1240Y47824D01*
X1447Y47753D01*
X1662Y47711D01*
X1880Y47696D01*
X2098Y47711D01*
X2313Y47753D01*
X2520Y47824D01*
X2717Y47921D01*
X2899Y48042D01*
X3063Y48187D01*
X3208Y48351D01*
X3329Y48533D01*
X3426Y48730D01*
X3497Y48937D01*
X3539Y49152D01*
X3554Y49370D01*
X3539Y49588D01*
X3497Y49803D01*
X3426Y50010D01*
X3329Y50207D01*
X3208Y50389D01*
X3063Y50553D01*
X2899Y50698D01*
X2717Y50819D01*
X2520Y50916D01*
X2313Y50987D01*
X2098Y51029D01*
X1880Y51044D01*
D02*
G37*
G36*
X23120D02*
X22902Y51029D01*
X22687Y50987D01*
X22480Y50916D01*
X22283Y50819D01*
X22101Y50698D01*
X21937Y50553D01*
X21792Y50389D01*
X21671Y50207D01*
X21574Y50010D01*
X21503Y49803D01*
X21461Y49588D01*
X21446Y49370D01*
X21461Y49152D01*
X21503Y48937D01*
X21574Y48730D01*
X21671Y48533D01*
X21792Y48351D01*
X21937Y48187D01*
X22101Y48042D01*
X22283Y47921D01*
X22480Y47824D01*
X22687Y47753D01*
X22902Y47711D01*
X23120Y47696D01*
X23338Y47711D01*
X23553Y47753D01*
X23760Y47824D01*
X23957Y47921D01*
X24139Y48042D01*
X24303Y48187D01*
X24448Y48351D01*
X24569Y48533D01*
X24666Y48730D01*
X24737Y48937D01*
X24779Y49152D01*
X24794Y49370D01*
X24779Y49588D01*
X24737Y49803D01*
X24666Y50010D01*
X24569Y50207D01*
X24448Y50389D01*
X24303Y50553D01*
X24139Y50698D01*
X23957Y50819D01*
X23760Y50916D01*
X23553Y50987D01*
X23338Y51029D01*
X23120Y51044D01*
D02*
G37*
G36*
X8450Y49130D02*
X8027D01*
X8037Y49056D01*
X8085Y48940D01*
X8161Y48841D01*
X8260Y48765D01*
X8376Y48717D01*
X8450Y48707D01*
Y49130D01*
D02*
G37*
G36*
X4728Y50202D02*
X4611Y50186D01*
X4501Y50141D01*
X4407Y50069D01*
X4335Y49975D01*
X4290Y49865D01*
X4274Y49748D01*
X4290Y49630D01*
X4335Y49521D01*
X4407Y49427D01*
X4501Y49355D01*
X4611Y49310D01*
X4728Y49294D01*
X4846Y49310D01*
X4955Y49355D01*
X5049Y49427D01*
X5121Y49521D01*
X5167Y49630D01*
X5182Y49748D01*
X5167Y49865D01*
X5121Y49975D01*
X5049Y50069D01*
X4955Y50141D01*
X4846Y50186D01*
X4728Y50202D01*
D02*
G37*
G36*
X13274Y20725D02*
X12929D01*
Y20419D01*
X13274D01*
Y20725D01*
D02*
G37*
G36*
X12829D02*
X12483D01*
Y20419D01*
X12829D01*
Y20725D01*
D02*
G37*
G36*
X13274Y19669D02*
X12929D01*
Y19363D01*
X13274D01*
Y19669D01*
D02*
G37*
G36*
X12829D02*
X12483D01*
Y19363D01*
X12829D01*
Y19669D01*
D02*
G37*
G36*
X18100Y11839D02*
X17870D01*
Y11609D01*
X18100D01*
Y11839D01*
D02*
G37*
G36*
Y11509D02*
X17870D01*
Y11279D01*
X18100D01*
Y11509D01*
D02*
G37*
G36*
X3200Y8887D02*
X2450D01*
Y8137D01*
X3200D01*
Y8887D01*
D02*
G37*
G36*
X2350D02*
X1600D01*
Y8137D01*
X2350D01*
Y8887D01*
D02*
G37*
G36*
X5990Y8450D02*
X5645D01*
Y8144D01*
X5990D01*
Y8450D01*
D02*
G37*
G36*
X6435D02*
X6090D01*
Y8144D01*
X6435D01*
Y8450D01*
D02*
G37*
G36*
X7720Y5957D02*
Y5610D01*
X8067D01*
X8060Y5664D01*
X8019Y5762D01*
X7955Y5845D01*
X7872Y5909D01*
X7774Y5950D01*
X7720Y5957D01*
D02*
G37*
G36*
X7620Y5957D02*
X7566Y5950D01*
X7468Y5909D01*
X7385Y5845D01*
X7321Y5762D01*
X7280Y5664D01*
X7273Y5610D01*
X7620D01*
Y5957D01*
D02*
G37*
G36*
Y5510D02*
X7273D01*
X7280Y5456D01*
X7321Y5358D01*
X7385Y5275D01*
X7468Y5211D01*
X7566Y5170D01*
X7620Y5163D01*
Y5510D01*
D02*
G37*
G36*
X8067D02*
X7720D01*
Y5163D01*
X7774Y5170D01*
X7872Y5211D01*
X7955Y5275D01*
X8019Y5358D01*
X8060Y5456D01*
X8067Y5510D01*
D02*
G37*
G36*
X6435Y8044D02*
X6040D01*
X5645D01*
Y7764D01*
X5625Y7722D01*
X5625Y7696D01*
Y6970D01*
X5867D01*
Y6810D01*
X5670D01*
Y6070D01*
X6410D01*
Y6810D01*
X6213D01*
Y6970D01*
X6455D01*
Y7696D01*
X6455Y7722D01*
X6435Y7764D01*
Y7772D01*
Y8044D01*
D02*
G37*
G36*
X17575Y7650D02*
X17230D01*
Y7344D01*
X17575D01*
Y7650D01*
D02*
G37*
G36*
X17130D02*
X16785D01*
Y7344D01*
X17130D01*
Y7650D01*
D02*
G37*
G36*
X16485D02*
X16140D01*
Y7344D01*
X16485D01*
Y7650D01*
D02*
G37*
G36*
X9950Y9403D02*
Y8980D01*
X10373D01*
X10363Y9054D01*
X10315Y9170D01*
X10239Y9269D01*
X10140Y9345D01*
X10024Y9393D01*
X9950Y9403D01*
D02*
G37*
G36*
X9850Y9403D02*
X9776Y9393D01*
X9660Y9345D01*
X9561Y9269D01*
X9485Y9170D01*
X9437Y9054D01*
X9427Y8980D01*
X9850D01*
Y9403D01*
D02*
G37*
G36*
X10373Y8880D02*
X9950D01*
Y8457D01*
X10024Y8467D01*
X10140Y8515D01*
X10239Y8591D01*
X10315Y8690D01*
X10363Y8806D01*
X10373Y8880D01*
D02*
G37*
G36*
X9850D02*
X9427D01*
X9437Y8806D01*
X9485Y8690D01*
X9561Y8591D01*
X9660Y8515D01*
X9776Y8467D01*
X9850Y8457D01*
Y8880D01*
D02*
G37*
G36*
X21120Y9566D02*
X20775D01*
Y9260D01*
X21120D01*
Y9566D01*
D02*
G37*
G36*
X21565D02*
X21220D01*
Y9260D01*
X21565D01*
Y9566D01*
D02*
G37*
G36*
X23640Y5856D02*
X23278D01*
Y5494D01*
X23337Y5501D01*
X23438Y5543D01*
X23524Y5610D01*
X23591Y5696D01*
X23633Y5797D01*
X23640Y5856D01*
D02*
G37*
G36*
X9430Y6220D02*
X9085D01*
Y5914D01*
X9430D01*
Y6220D01*
D02*
G37*
G36*
X23278Y6317D02*
Y5956D01*
X23640D01*
X23633Y6014D01*
X23591Y6115D01*
X23524Y6201D01*
X23438Y6268D01*
X23337Y6310D01*
X23278Y6317D01*
D02*
G37*
G36*
X23178Y6317D02*
X23120Y6310D01*
X23019Y6268D01*
X22932Y6201D01*
X22866Y6115D01*
X22824Y6014D01*
X22816Y5956D01*
X23178D01*
Y6317D01*
D02*
G37*
G36*
X9875Y6220D02*
X9530D01*
Y5914D01*
X9875D01*
Y6220D01*
D02*
G37*
G36*
X21040Y3546D02*
X20695D01*
Y3240D01*
X21040D01*
Y3546D01*
D02*
G37*
G36*
X23178Y5856D02*
X22816D01*
X22824Y5797D01*
X22866Y5696D01*
X22932Y5610D01*
X23019Y5543D01*
X23120Y5501D01*
X23178Y5494D01*
Y5856D01*
D02*
G37*
G36*
X11477Y6282D02*
X11053D01*
Y6045D01*
X11477D01*
Y6282D01*
D02*
G37*
G36*
X21337Y7125D02*
X21110D01*
Y6888D01*
X21337D01*
Y7125D01*
D02*
G37*
G36*
X21010D02*
X20783D01*
Y6888D01*
X21010D01*
Y7125D01*
D02*
G37*
G36*
X21337Y6788D02*
X21110D01*
Y6551D01*
X21337D01*
Y6788D01*
D02*
G37*
G36*
X23278Y7302D02*
Y6940D01*
X23640D01*
X23633Y6998D01*
X23591Y7099D01*
X23524Y7186D01*
X23438Y7252D01*
X23337Y7294D01*
X23278Y7302D01*
D02*
G37*
G36*
X23178Y7302D02*
X23120Y7294D01*
X23019Y7252D01*
X22932Y7186D01*
X22866Y7099D01*
X22824Y6998D01*
X22816Y6940D01*
X23178D01*
Y7302D01*
D02*
G37*
G36*
X11477Y6619D02*
X11053D01*
Y6382D01*
X11477D01*
Y6619D01*
D02*
G37*
G36*
X12001Y6282D02*
X11577D01*
Y6045D01*
X12001D01*
Y6282D01*
D02*
G37*
G36*
Y6619D02*
X11577D01*
Y6382D01*
X12001D01*
Y6619D01*
D02*
G37*
G36*
X21010Y6788D02*
X20783D01*
Y6551D01*
X21010D01*
Y6788D01*
D02*
G37*
G36*
X23178Y6840D02*
X22816D01*
X22824Y6781D01*
X22866Y6680D01*
X22932Y6594D01*
X23019Y6527D01*
X23120Y6485D01*
X23178Y6478D01*
Y6840D01*
D02*
G37*
G36*
X23640D02*
X23278D01*
Y6478D01*
X23337Y6485D01*
X23438Y6527D01*
X23524Y6594D01*
X23591Y6680D01*
X23633Y6781D01*
X23640Y6840D01*
D02*
G37*
G36*
X24210Y14730D02*
X23904D01*
Y14385D01*
X24210D01*
Y14730D01*
D02*
G37*
G36*
Y13650D02*
X23904D01*
Y13305D01*
X24210D01*
Y13650D01*
D02*
G37*
G36*
X23904Y14095D02*
Y13750D01*
X24210D01*
Y14095D01*
X23904D01*
D02*
G37*
G36*
Y15175D02*
Y14830D01*
X24210D01*
Y15175D01*
X23904D01*
D02*
G37*
G36*
X18950Y16410D02*
X18644D01*
Y16065D01*
X18950D01*
Y16410D01*
D02*
G37*
G36*
X12915Y11846D02*
X12570D01*
Y11540D01*
X12915D01*
Y11846D01*
D02*
G37*
G36*
X12470D02*
X12125D01*
Y11540D01*
X12470D01*
Y11846D01*
D02*
G37*
G36*
X10407Y11908D02*
X9924D01*
Y11750D01*
X10407D01*
Y11908D01*
D02*
G37*
G36*
X9824D02*
X9341D01*
Y11750D01*
X9824D01*
Y11908D01*
D02*
G37*
G36*
X10407Y11650D02*
X9924D01*
Y11492D01*
X10407D01*
Y11650D01*
D02*
G37*
G36*
X9824D02*
X9341D01*
Y11492D01*
X9824D01*
Y11650D01*
D02*
G37*
G36*
X14120Y14631D02*
X13890D01*
Y14401D01*
X14120D01*
Y14631D01*
D02*
G37*
G36*
X12760D02*
X12530D01*
Y14401D01*
X12760D01*
Y14631D01*
D02*
G37*
G36*
X18220D02*
X17990D01*
Y14401D01*
X18220D01*
Y14631D01*
D02*
G37*
G36*
X16850Y14961D02*
X16620D01*
Y14731D01*
X16850D01*
Y14961D01*
D02*
G37*
G36*
X15480Y14631D02*
X15250D01*
Y14401D01*
X15480D01*
Y14631D01*
D02*
G37*
G36*
X16850D02*
X16620D01*
Y14401D01*
X16850D01*
Y14631D01*
D02*
G37*
G36*
X18220Y14961D02*
X17990D01*
Y14731D01*
X18220D01*
Y14961D01*
D02*
G37*
G36*
X5511Y2908D02*
X5164D01*
X5171Y2854D01*
X5212Y2757D01*
X5276Y2673D01*
X5359Y2609D01*
X5457Y2569D01*
X5511Y2562D01*
Y2908D01*
D02*
G37*
G36*
X1880Y3554D02*
X1662Y3539D01*
X1447Y3497D01*
X1240Y3426D01*
X1043Y3329D01*
X861Y3208D01*
X697Y3063D01*
X552Y2899D01*
X431Y2717D01*
X334Y2520D01*
X263Y2313D01*
X221Y2098D01*
X206Y1880D01*
X221Y1662D01*
X263Y1447D01*
X334Y1240D01*
X431Y1043D01*
X552Y861D01*
X697Y697D01*
X861Y552D01*
X1043Y431D01*
X1240Y334D01*
X1447Y263D01*
X1662Y221D01*
X1880Y206D01*
X2098Y221D01*
X2313Y263D01*
X2520Y334D01*
X2717Y431D01*
X2899Y552D01*
X3063Y697D01*
X3208Y861D01*
X3329Y1043D01*
X3426Y1240D01*
X3497Y1447D01*
X3539Y1662D01*
X3554Y1880D01*
X3539Y2098D01*
X3497Y2313D01*
X3426Y2520D01*
X3329Y2717D01*
X3208Y2899D01*
X3063Y3063D01*
X2899Y3208D01*
X2717Y3329D01*
X2520Y3426D01*
X2313Y3497D01*
X2098Y3539D01*
X1880Y3554D01*
D02*
G37*
G36*
X20476Y2033D02*
X20359Y2017D01*
X20249Y1972D01*
X20155Y1900D01*
X20083Y1806D01*
X20038Y1696D01*
X20022Y1579D01*
X20038Y1461D01*
X20083Y1352D01*
X20155Y1258D01*
X20249Y1186D01*
X20359Y1140D01*
X20476Y1125D01*
X20594Y1140D01*
X20703Y1186D01*
X20797Y1258D01*
X20869Y1352D01*
X20915Y1461D01*
X20930Y1579D01*
X20915Y1696D01*
X20869Y1806D01*
X20797Y1900D01*
X20703Y1972D01*
X20594Y2017D01*
X20476Y2033D01*
D02*
G37*
G36*
X5611Y3355D02*
Y3008D01*
X5958D01*
X5951Y3063D01*
X5910Y3160D01*
X5846Y3244D01*
X5763Y3308D01*
X5666Y3348D01*
X5611Y3355D01*
D02*
G37*
G36*
X5511D02*
X5457Y3348D01*
X5359Y3308D01*
X5276Y3244D01*
X5212Y3160D01*
X5171Y3063D01*
X5164Y3008D01*
X5511D01*
Y3355D01*
D02*
G37*
G36*
X5958Y2908D02*
X5611D01*
Y2562D01*
X5666Y2569D01*
X5763Y2609D01*
X5846Y2673D01*
X5910Y2757D01*
X5951Y2854D01*
X5958Y2908D01*
D02*
G37*
G36*
X6210Y31066D02*
X5865D01*
Y30760D01*
X6210D01*
Y31066D01*
D02*
G37*
G36*
X8956Y36865D02*
X8650D01*
Y36520D01*
X8956D01*
Y36865D01*
D02*
G37*
G36*
X6655Y31066D02*
X6310D01*
Y30760D01*
X6655D01*
Y31066D01*
D02*
G37*
G36*
X8950Y35085D02*
X8703D01*
Y34838D01*
X8950D01*
Y35085D01*
D02*
G37*
G36*
Y35432D02*
X8703D01*
Y35185D01*
X8950D01*
Y35432D01*
D02*
G37*
G36*
X8956Y36420D02*
X8650D01*
Y36075D01*
X8956D01*
Y36420D01*
D02*
G37*
G36*
X6260Y28929D02*
X6030D01*
Y28699D01*
X6260D01*
Y28929D01*
D02*
G37*
G36*
X8956Y37460D02*
X8650D01*
Y37115D01*
X8956D01*
Y37460D01*
D02*
G37*
G36*
X5876Y27650D02*
X5570D01*
Y27305D01*
X5876D01*
Y27650D01*
D02*
G37*
G36*
Y28095D02*
X5570D01*
Y27750D01*
X5876D01*
Y28095D01*
D02*
G37*
G36*
X5930Y28929D02*
X5700D01*
Y28699D01*
X5930D01*
Y28929D01*
D02*
G37*
G36*
X6260Y28599D02*
X6030D01*
Y28369D01*
X6260D01*
Y28599D01*
D02*
G37*
G36*
X5930D02*
X5700D01*
Y28369D01*
X5930D01*
Y28599D01*
D02*
G37*
G36*
X14820Y38159D02*
X14590D01*
Y37929D01*
X14820D01*
Y38159D01*
D02*
G37*
G36*
X15150D02*
X14920D01*
Y37929D01*
X15150D01*
Y38159D01*
D02*
G37*
G36*
X14820Y38489D02*
X14590D01*
Y38259D01*
X14820D01*
Y38489D01*
D02*
G37*
G36*
X15150D02*
X14920D01*
Y38259D01*
X15150D01*
Y38489D01*
D02*
G37*
G36*
X13560Y37450D02*
X13254D01*
Y37105D01*
X13560D01*
Y37450D01*
D02*
G37*
G36*
X13254Y37895D02*
Y37550D01*
X13560D01*
Y37895D01*
X13254D01*
D02*
G37*
G36*
X13130Y40343D02*
Y40060D01*
X13413D01*
X13408Y40098D01*
X13374Y40180D01*
X13320Y40250D01*
X13250Y40304D01*
X13168Y40338D01*
X13130Y40343D01*
D02*
G37*
G36*
X13030D02*
X12992Y40338D01*
X12910Y40304D01*
X12840Y40250D01*
X12786Y40180D01*
X12752Y40098D01*
X12747Y40060D01*
X13030D01*
Y40343D01*
D02*
G37*
G36*
Y39960D02*
X12747D01*
X12752Y39922D01*
X12786Y39840D01*
X12840Y39770D01*
X12910Y39716D01*
X12992Y39682D01*
X13030Y39677D01*
Y39960D01*
D02*
G37*
G36*
X13413D02*
X13130D01*
Y39677D01*
X13168Y39682D01*
X13250Y39716D01*
X13320Y39770D01*
X13374Y39840D01*
X13408Y39922D01*
X13413Y39960D01*
D02*
G37*
G36*
X21868Y44538D02*
X21700D01*
Y44124D01*
X21868D01*
Y44538D01*
D02*
G37*
G36*
X21700Y45053D02*
Y44639D01*
X21868D01*
Y45053D01*
X21700D01*
D02*
G37*
G36*
X5190Y45170D02*
X4845D01*
Y44864D01*
X5190D01*
Y45170D01*
D02*
G37*
G36*
X5635D02*
X5290D01*
Y44864D01*
X5635D01*
Y45170D01*
D02*
G37*
G36*
X6695Y38066D02*
X6350D01*
Y37760D01*
X6695D01*
Y38066D01*
D02*
G37*
G36*
X5645D02*
X5300D01*
Y37760D01*
X5645D01*
Y38066D01*
D02*
G37*
G36*
X6250D02*
X5905D01*
Y37760D01*
X6250D01*
Y38066D01*
D02*
G37*
G36*
X5200D02*
X4855D01*
Y37760D01*
X5200D01*
Y38066D01*
D02*
G37*
G36*
X5190Y42276D02*
X4845D01*
Y41970D01*
X5190D01*
Y42276D01*
D02*
G37*
G36*
X6675D02*
X6330D01*
Y41970D01*
X6675D01*
Y42276D01*
D02*
G37*
G36*
X5635D02*
X5290D01*
Y41970D01*
X5635D01*
Y42276D01*
D02*
G37*
G36*
X6230D02*
X5885D01*
Y41970D01*
X6230D01*
Y42276D01*
D02*
G37*
G36*
X3200Y39900D02*
X2450D01*
Y39150D01*
X3200D01*
Y39900D01*
D02*
G37*
G36*
X7070Y39816D02*
X6725D01*
Y39510D01*
X7070D01*
Y39816D01*
D02*
G37*
G36*
X7515D02*
X7170D01*
Y39510D01*
X7515D01*
Y39816D01*
D02*
G37*
G36*
X2350Y39900D02*
X1600D01*
Y39150D01*
X2350D01*
Y39900D01*
D02*
G37*
%LPD*%
D10*
X16051Y16570D02*
X17980Y18499D01*
X16122Y16400D02*
X18150Y18428D01*
X16192Y16230D02*
X18320Y18358D01*
X16262Y16060D02*
X18490Y18288D01*
X16240Y15790D02*
X18660Y18210D01*
X14971Y16570D02*
X16051D01*
X17980Y18499D02*
Y18661D01*
X15042Y16400D02*
X16122D01*
X18150Y18428D02*
Y18591D01*
X15112Y16230D02*
X16192D01*
X18320Y18358D02*
Y18520D01*
X15182Y16060D02*
X16262D01*
X18490Y18288D02*
Y18450D01*
X15230Y15790D02*
X16240D01*
X18660Y18210D02*
Y18380D01*
X3718Y25252D02*
X3720Y25250D01*
X2400Y33047D02*
X2407Y33040D01*
X14820Y16740D02*
X15979D01*
X15042Y15920D02*
X15182Y16060D01*
X14972Y16090D02*
X15112Y16230D01*
X14952Y16310D02*
X15042Y16400D01*
X14881Y16480D02*
X14971Y16570D01*
X14790Y16710D02*
X14820Y16740D01*
X14030Y16090D02*
X14972D01*
X14058Y16310D02*
X14952D01*
X14129Y16480D02*
X14881D01*
X14580Y16920D02*
X15919D01*
X14431Y17090D02*
X15848D01*
X15778Y17260D02*
X16250Y17732D01*
X14360Y17260D02*
X15778D01*
X15707Y17430D02*
X16080Y17802D01*
X14290Y17430D02*
X15707D01*
X15351Y15600D02*
X17361D01*
X15321Y15570D02*
X15351Y15600D01*
X15422Y15430D02*
X17290D01*
X15392Y15400D02*
X15422Y15430D01*
X15492Y15260D02*
X17220D01*
X15462Y15230D02*
X15492Y15260D01*
X15562Y15090D02*
X16010D01*
X15532Y15060D02*
X15562Y15090D01*
X15120Y15570D02*
X15321D01*
X15050Y15400D02*
X15392D01*
X14979Y15230D02*
X15462D01*
X14909Y15060D02*
X15532D01*
X15979Y16740D02*
X16840Y17601D01*
X15919Y16920D02*
X16670Y17671D01*
X15848Y17090D02*
X16500Y17742D01*
X13120Y17080D02*
X14180D01*
X14210Y16869D02*
X14431Y17090D01*
X14210Y16710D02*
Y16869D01*
X14180Y17080D02*
X14360Y17260D01*
X14110Y17250D02*
X14290Y17430D01*
X13250Y17250D02*
X14110D01*
X7410Y19100D02*
Y19320D01*
Y19100D02*
X8320Y18190D01*
X7580Y19190D02*
X8410Y18360D01*
X7750Y19261D02*
Y19470D01*
Y19261D02*
X8461Y18550D01*
X7920Y19331D02*
X8531Y18720D01*
X8100Y19392D02*
X8602Y18890D01*
X8270Y19462D02*
X8672Y19060D01*
X7540Y16351D02*
Y18530D01*
X8320Y18190D02*
X9170D01*
X8672Y19060D02*
X9590D01*
X8602Y18890D02*
X9432D01*
X8531Y18720D02*
X9361D01*
X8461Y18550D02*
X9291D01*
X8410Y18360D02*
X9240D01*
X10130Y17470D01*
X9291Y18550D02*
X10300Y17541D01*
X9361Y18720D02*
X10470Y17611D01*
X9432Y18890D02*
X10212Y18110D01*
X9590Y19060D02*
X10250Y18400D01*
X10470Y17170D02*
Y17611D01*
X10300Y17029D02*
Y17541D01*
X10130Y16958D02*
Y17470D01*
X10212Y18110D02*
X10350D01*
X9960Y16888D02*
Y17400D01*
X9170Y18190D02*
X9960Y17400D01*
X10470Y17170D02*
X10840Y16800D01*
X10300Y17029D02*
X10749Y16580D01*
X10130Y16958D02*
X10728Y16360D01*
X9960Y16888D02*
X10728Y16120D01*
X10640Y17390D02*
X11660Y16370D01*
X10640Y17390D02*
Y22437D01*
X10810Y17460D02*
X11830Y16440D01*
X10810Y17460D02*
Y22367D01*
X10980Y17531D02*
Y22296D01*
Y17531D02*
X12000Y16511D01*
X11150Y17601D02*
Y22226D01*
Y17601D02*
X12170Y16581D01*
X11320Y17672D02*
Y22156D01*
Y17672D02*
X12340Y16652D01*
X11490Y17742D02*
X12510Y16722D01*
X11490Y17742D02*
Y22085D01*
X11660Y17812D02*
X12680Y16793D01*
X11660Y17812D02*
Y22015D01*
X11830Y17883D02*
X12850Y16863D01*
X11830Y17883D02*
Y21944D01*
X11660Y11140D02*
Y16370D01*
X11830Y15190D02*
Y16440D01*
X12000Y15688D02*
Y16511D01*
X12170Y15758D02*
Y16581D01*
X12340Y15829D02*
Y16652D01*
X12510Y15899D02*
Y16722D01*
X12680Y15970D02*
Y16793D01*
X12850Y16040D02*
Y16863D01*
X10749Y16580D02*
X11020D01*
X10728Y16120D02*
X11050D01*
X10728Y16360D02*
X11200D01*
X16840Y17601D02*
Y22320D01*
X16670Y17671D02*
Y22212D01*
X16500Y17742D02*
Y22103D01*
X16250Y17732D02*
Y18500D01*
X16080Y17802D02*
Y18359D01*
X11830Y21944D02*
X12360Y22474D01*
X11660Y22015D02*
X12190Y22545D01*
X11490Y22085D02*
X12020Y22615D01*
X11320Y22156D02*
X11850Y22686D01*
X11150Y22226D02*
X11680Y22756D01*
X10980Y22296D02*
X11510Y22826D01*
X10810Y22367D02*
X11340Y22897D01*
X10640Y22437D02*
X11170Y22967D01*
X13640Y15920D02*
X13810Y15750D01*
X13570D02*
X13740Y15580D01*
X13499D02*
X13669Y15410D01*
X13429D02*
X13599Y15240D01*
X13358D02*
X13528Y15070D01*
X12970Y15920D02*
X13640D01*
X12850Y16040D02*
X12970Y15920D01*
X12900Y15750D02*
X13570D01*
X12680Y15970D02*
X12900Y15750D01*
X12829Y15580D02*
X13499D01*
X12510Y15899D02*
X12829Y15580D01*
X12759Y15410D02*
X13429D01*
X12340Y15829D02*
X12759Y15410D01*
X12688Y15240D02*
X13358D01*
X12170Y15758D02*
X12688Y15240D01*
X13288Y15070D02*
X13420Y14938D01*
X12618Y15070D02*
X13288D01*
X12000Y15688D02*
X12618Y15070D01*
X13730Y16140D02*
X13950Y15920D01*
X13280Y16140D02*
X13730D01*
X13080Y16360D02*
X13761D01*
X11100Y15900D02*
X11410D01*
X10500Y15300D02*
X11100Y15900D01*
X13250Y16580D02*
X13788D01*
X13070Y16800D02*
X13809D01*
X13788Y16580D02*
X14058Y16310D01*
X13809Y16800D02*
X14129Y16480D01*
X13950Y16170D02*
Y16171D01*
X13761Y16360D02*
X13950Y16171D01*
Y16170D02*
X14030Y16090D01*
X13420Y14681D02*
Y14938D01*
X13810Y15750D02*
X14940D01*
X13740Y15580D02*
X14870D01*
X13669Y15410D02*
X14799D01*
X13599Y15240D02*
X14729D01*
X13528Y15070D02*
X14658D01*
X11090Y15090D02*
X11430D01*
X11010Y15010D02*
X11090Y15090D01*
X11010Y14509D02*
Y15010D01*
X11090Y15630D02*
X11410D01*
X10670Y14650D02*
Y15210D01*
X11090Y15630D01*
X11060Y15360D02*
X11400D01*
X10840Y15140D02*
X11060Y15360D01*
X10840Y14580D02*
Y15140D01*
X10500Y15200D02*
Y15300D01*
X12810Y14350D02*
Y14681D01*
X14170Y14360D02*
Y14681D01*
X13950Y15920D02*
X15042D01*
X14480Y16820D02*
X14580Y16920D01*
X14790Y16700D02*
Y16710D01*
X14940Y15750D02*
X15120Y15570D01*
X14870Y15580D02*
X15050Y15400D01*
X14799Y15410D02*
X14979Y15230D01*
X14729Y15240D02*
X14909Y15060D01*
X14480Y16710D02*
Y16820D01*
X14658Y15070D02*
X14780Y14948D01*
Y14681D02*
Y14948D01*
X16010Y15090D02*
X16150Y14950D01*
X15530Y14360D02*
Y14681D01*
X15544Y14695D01*
X13000Y17500D02*
X13250Y17250D01*
X12920Y17280D02*
X13120Y17080D01*
X19742Y19702D02*
Y22295D01*
X18490Y18450D02*
X19742Y19702D01*
X19545Y19746D02*
Y22295D01*
X18320Y18520D02*
X19545Y19746D01*
X16150Y14681D02*
Y14950D01*
X18660Y18380D02*
X19939Y19659D01*
X18150Y18591D02*
X19348Y19789D01*
X17980Y18661D02*
X19152Y19833D01*
X19939Y19659D02*
Y22295D01*
X19152Y19833D02*
Y22295D01*
X19348Y19789D02*
Y22295D01*
X20240Y20330D02*
X21340D01*
X20320Y20060D02*
X21369D01*
X21340Y20330D02*
X22050Y19620D01*
X21369Y20060D02*
X21830Y19599D01*
X18840Y20050D02*
X18930D01*
X18710Y20180D02*
X18840Y20050D01*
X18980Y21380D02*
Y21812D01*
X18930Y21330D02*
X18980Y21380D01*
X18810Y21510D02*
Y21741D01*
X18710Y21410D02*
X18810Y21510D01*
X18710Y20180D02*
Y21410D01*
X18930Y20320D02*
Y21330D01*
X18758Y21793D02*
X18810Y21741D01*
X18955Y21837D02*
X18980Y21812D01*
X18758Y21793D02*
Y22295D01*
X18955Y21837D02*
Y22295D01*
X18364Y19634D02*
Y22295D01*
X18169Y19759D02*
Y21579D01*
X18190Y21600D01*
X20136Y21774D02*
X22300Y19610D01*
X20333Y21818D02*
Y22295D01*
Y21818D02*
X22470Y19680D01*
X22300Y17580D02*
Y19610D01*
X22470Y17510D02*
Y19680D01*
X21660Y16940D02*
X22300Y17580D01*
X21830Y16870D02*
X22470Y17510D01*
X22670Y17441D02*
Y23230D01*
X22000Y16771D02*
X22670Y17441D01*
X22840Y17371D02*
Y23301D01*
X22170Y16701D02*
X22840Y17371D01*
X23010Y17300D02*
Y23371D01*
X22350Y16640D02*
X23010Y17300D01*
X23180Y17230D02*
Y23442D01*
X22600Y16650D02*
X23180Y17230D01*
X22600Y12970D02*
Y16650D01*
X23350Y17580D02*
Y23512D01*
Y17580D02*
X23688Y17242D01*
Y16699D02*
Y17242D01*
X20710Y15640D02*
X21660Y16590D01*
X21830Y16520D02*
Y16870D01*
X20730Y15420D02*
X21830Y16520D01*
X19750Y14120D02*
X21780Y16150D01*
X22000Y16020D02*
Y16771D01*
X21870Y15890D02*
X22000Y16020D01*
X21760Y15890D02*
X21870D01*
X20280Y14410D02*
X21760Y15890D01*
X22170Y15950D02*
Y16701D01*
X21940Y15720D02*
X22170Y15950D01*
X21831Y15720D02*
X21940D01*
X20450Y14339D02*
X21831Y15720D01*
X20400Y15471D02*
X20569Y15640D01*
X20400Y15250D02*
Y15471D01*
X18594Y16460D02*
X19000D01*
X22094Y13096D02*
Y13930D01*
X20569Y15640D02*
X20710D01*
X20749Y14320D02*
X21389Y14960D01*
X20280Y9150D02*
Y14410D01*
X20450Y9220D02*
Y14339D01*
X20750Y11170D02*
Y14320D01*
X22640Y12160D02*
X23014Y11786D01*
X22640Y12160D02*
Y12930D01*
X22600Y12970D02*
X22640Y12930D01*
X13960Y3980D02*
X17843D01*
X8400Y25050D02*
X8472Y25122D01*
X8734D01*
X8432Y24122D02*
X8734D01*
X17290Y15430D02*
X17466Y15254D01*
X17361Y15600D02*
X17537Y15424D01*
X18506D01*
X17466Y15254D02*
X18436D01*
X18270Y14681D02*
Y15030D01*
Y14681D02*
X18270Y14681D01*
X18436Y15254D02*
X18760Y14930D01*
X18506Y15424D02*
X18960Y14970D01*
X17670Y27570D02*
Y27896D01*
Y27570D02*
X17730Y27510D01*
X15624Y28650D02*
Y29196D01*
X15630Y28644D02*
X16620D01*
X15624Y28650D02*
X15630Y28644D01*
X15624Y27580D02*
Y28650D01*
Y27074D02*
Y27580D01*
X15540Y26990D02*
X15624Y27074D01*
X15310Y26990D02*
X15540D01*
X15110Y26770D02*
X16002D01*
X14876Y27004D02*
X15110Y26770D01*
X14876Y27004D02*
Y27580D01*
Y28650D02*
Y29196D01*
X14656Y29466D02*
X16054D01*
X14370Y29180D02*
X14656Y29466D01*
X14370Y27600D02*
Y29180D01*
X17670Y28644D02*
Y29130D01*
X16054Y29466D02*
X16340Y29180D01*
X17150D01*
X17328Y30360D02*
X18043D01*
X19348Y26705D02*
Y27773D01*
X17398Y30190D02*
X17973D01*
X19152Y26705D02*
Y27730D01*
X18955Y26705D02*
Y27686D01*
X18758Y26705D02*
Y27643D01*
X18561Y26705D02*
Y27599D01*
X18364Y26705D02*
Y27540D01*
X17469Y30020D02*
X17902D01*
X17561Y29799D02*
X17883D01*
X16421Y29580D02*
X17862D01*
X16350Y29410D02*
X17791D01*
X17730Y27510D02*
X18085D01*
X16620Y28644D02*
X16830D01*
X13740Y26970D02*
X14370Y27600D01*
X13780Y27250D02*
X14200Y27670D01*
Y29250D02*
X14586Y29636D01*
X14200Y27670D02*
Y29250D01*
X13290Y27250D02*
X13780D01*
X13400Y26970D02*
X13740D01*
X8734Y24122D02*
X9282D01*
X8734Y25122D02*
X9282D01*
X10000Y35135D02*
Y35660D01*
X9350Y23622D02*
X9590D01*
X9401Y23122D02*
X9810Y23531D01*
X7766Y31864D02*
X7870Y31760D01*
X7300Y31864D02*
X7766D01*
X7470Y30310D02*
X7870Y30710D01*
Y31760D01*
X17240Y35999D02*
X18660Y37419D01*
X17070Y36069D02*
X18490Y37489D01*
X16900Y36140D02*
X18320Y37560D01*
X17220Y31991D02*
Y32068D01*
Y31991D02*
X17251Y31960D01*
X17410Y35928D02*
X18830Y37348D01*
X17030Y32118D02*
X17120Y32208D01*
X16815Y32144D02*
X16950Y32279D01*
X17410Y32722D02*
Y35928D01*
Y32722D02*
X17460Y32672D01*
Y32068D02*
Y32672D01*
X17457Y32065D02*
X17460Y32068D01*
X17457Y32065D02*
X17457D01*
X17471Y32051D01*
X17240Y32652D02*
Y35999D01*
Y32652D02*
X17290Y32602D01*
Y32138D02*
Y32602D01*
X17220Y32068D02*
X17290Y32138D01*
X17070Y32582D02*
Y36069D01*
Y32582D02*
X17120Y32532D01*
Y32208D02*
Y32532D01*
X16900Y32511D02*
Y36140D01*
Y32511D02*
X16950Y32461D01*
Y32279D02*
Y32461D01*
X22020Y32600D02*
X22580Y32040D01*
X22410Y30797D02*
Y31969D01*
X21850Y32529D02*
X22410Y31969D01*
X21510Y32388D02*
X22070Y31828D01*
X21630Y30440D02*
Y31646D01*
X21070Y32206D02*
X21630Y31646D01*
X22990Y32832D02*
Y45710D01*
Y32832D02*
X23870Y31952D01*
Y31260D02*
Y31952D01*
X22820Y32761D02*
X23700Y31881D01*
X22820Y32761D02*
Y45640D01*
X22650Y32691D02*
X23530Y31811D01*
X22650Y32691D02*
Y45569D01*
X22480Y32620D02*
X23360Y31740D01*
X22480Y32620D02*
Y45499D01*
X23190Y30978D02*
Y31670D01*
X22200Y32660D02*
X23190Y31670D01*
X21070Y32206D02*
Y40100D01*
X21510Y32388D02*
Y40282D01*
X21680Y32459D02*
Y40700D01*
X21850Y32529D02*
Y40830D01*
X22020Y32600D02*
Y41190D01*
X21680Y32459D02*
X22240Y31899D01*
X22200Y32660D02*
Y38300D01*
X22070Y30656D02*
Y31828D01*
X22240Y30726D02*
Y31899D01*
X22580Y30867D02*
Y32040D01*
X23360Y31049D02*
Y31740D01*
X23530Y31119D02*
Y31811D01*
X23700Y31190D02*
Y31881D01*
X19050Y31270D02*
X21259D01*
X18920Y31400D02*
X19050Y31270D01*
X18600Y31400D02*
X18920D01*
X22800D02*
X22940D01*
X23020Y31320D01*
Y30908D02*
Y31320D01*
X21389Y31400D02*
X21400D01*
X21259Y31270D02*
X21389Y31400D01*
X18780Y31180D02*
X18860Y31100D01*
X21400D01*
X22800Y30887D02*
Y31100D01*
Y30887D02*
X23740Y29948D01*
X22580Y30867D02*
X23570Y29877D01*
X22410Y30797D02*
X23400Y29807D01*
X22240Y30726D02*
X23230Y29736D01*
X22070Y30656D02*
X23060Y29666D01*
X21630Y30440D02*
X22080Y29990D01*
X23020Y30908D02*
X23910Y30018D01*
X23190Y30978D02*
X24080Y30088D01*
X23360Y31049D02*
X24250Y30159D01*
X23530Y31119D02*
X24420Y30229D01*
X23700Y31190D02*
X24590Y30300D01*
X23870Y31260D02*
X24760Y30370D01*
X23910Y26028D02*
Y30018D01*
X24080Y25958D02*
Y30088D01*
X24250Y25887D02*
Y30159D01*
X24420Y25817D02*
Y30229D01*
X24590Y25746D02*
Y30300D01*
X24760Y25676D02*
Y30370D01*
X18750Y30860D02*
X20970D01*
X18670Y30690D02*
X20899D01*
X21740Y29849D01*
X23060Y26380D02*
Y29666D01*
X23230Y26310D02*
Y29736D01*
X23400Y26239D02*
Y29807D01*
X23570Y26169D02*
Y29877D01*
X23740Y26098D02*
Y29948D01*
X24030Y24946D02*
X24760Y25676D01*
X24030Y21071D02*
Y24946D01*
X23860Y21001D02*
Y25016D01*
X24590Y25746D01*
X23690Y25087D02*
X24420Y25817D01*
X23520Y25157D02*
X24250Y25887D01*
X23520Y20860D02*
Y25157D01*
X22254Y27160D02*
Y27684D01*
Y26636D02*
Y27160D01*
X21090D02*
X21506D01*
X21020Y27230D02*
X21090Y27160D01*
X20810Y27230D02*
X21020D01*
X21570Y28691D02*
Y29779D01*
X21159Y28280D02*
X21570Y28691D01*
X21060Y28280D02*
X21159D01*
X21740Y28621D02*
Y29849D01*
X21229Y28110D02*
X21740Y28621D01*
X21131Y28110D02*
X21229D01*
X21910Y28550D02*
Y29920D01*
X21300Y27940D02*
X21910Y28550D01*
X21201Y27940D02*
X21300D01*
X22080Y28480D02*
Y29990D01*
X21370Y27770D02*
X22080Y28480D01*
X21272Y27770D02*
X21370D01*
X20829Y30520D02*
X21570Y29779D01*
X18600Y30520D02*
X20829D01*
X20970Y30860D02*
X21910Y29920D01*
X20919Y28139D02*
X21060Y28280D01*
X20699Y28139D02*
X20919D01*
X20990Y27969D02*
X21131Y28110D01*
X20769Y27969D02*
X20990D01*
X21060Y27799D02*
X21201Y27940D01*
X20839Y27799D02*
X21060D01*
X21130Y27629D02*
X21272Y27770D01*
X20910Y27629D02*
X21130D01*
X20791Y27510D02*
X20910Y27629D01*
X20438Y27510D02*
X20791D01*
X20579Y28020D02*
X20699Y28139D01*
X20227Y28020D02*
X20579D01*
X20650Y27850D02*
X20769Y27969D01*
X20298Y27850D02*
X20650D01*
X20720Y27680D02*
X20839Y27799D01*
X20368Y27680D02*
X20720D01*
X19545Y27338D02*
X20227Y28020D01*
X19545Y26705D02*
Y27338D01*
X19742Y27294D02*
X20298Y27850D01*
X19742Y26705D02*
Y27294D01*
X20136Y27447D02*
X20368Y27680D01*
X20136Y26705D02*
Y27447D01*
X20310Y27198D02*
Y27381D01*
X20438Y27510D01*
X22439Y24956D02*
X23079D01*
X22368Y25126D02*
X23008D01*
X22298Y25296D02*
X22938D01*
X22228Y25466D02*
X22868D01*
X22157Y25636D02*
X22797D01*
X22087Y25806D02*
X22727D01*
X23079Y24956D02*
X24080Y25958D01*
X23008Y25126D02*
X23910Y26028D01*
X22938Y25296D02*
X23740Y26098D01*
X22868Y25466D02*
X23570Y26169D01*
X22797Y25636D02*
X23400Y26239D01*
X22727Y25806D02*
X23230Y26310D01*
X22656Y25976D02*
X23060Y26380D01*
X21455Y25976D02*
X22656D01*
X22278Y24795D02*
X22439Y24956D01*
X22234Y24992D02*
X22368Y25126D01*
X22191Y25189D02*
X22298Y25296D01*
X22147Y25386D02*
X22228Y25466D01*
X22104Y25583D02*
X22157Y25636D01*
X22060Y25780D02*
X22087Y25806D01*
X21455Y25780D02*
X22060D01*
X21455Y25583D02*
X22104D01*
X21455Y25386D02*
X22147D01*
X21455Y25189D02*
X22191D01*
X21455Y24992D02*
X22234D01*
X21455Y24795D02*
X22278D01*
X22350Y15700D02*
Y16640D01*
X21660Y16590D02*
Y16940D01*
X20660Y15420D02*
X20730D01*
X19750Y6607D02*
Y14120D01*
X22094Y13930D02*
Y14386D01*
X21840Y14640D02*
X22094Y14386D01*
X21380Y14640D02*
X21840D01*
X13640Y31720D02*
X14060Y32140D01*
X13970Y31530D02*
X14230Y31790D01*
X14310Y31350D02*
X14400Y31440D01*
X13062Y31830D02*
X13270D01*
X14260Y31300D02*
X14310Y31350D01*
X13930Y31490D02*
X13970Y31530D01*
X13580Y31660D02*
X13640Y31720D01*
X9262Y22622D02*
X9380Y22740D01*
X12750Y17280D02*
X12920D01*
X12550Y17500D02*
X13000D01*
X22200Y8480D02*
X22622D01*
X23228Y7874D01*
X22540Y8740D02*
X22658Y8858D01*
X23228D01*
X21060Y6430D02*
Y6838D01*
X19750Y6607D02*
X20788Y5569D01*
X21090Y3100D02*
Y3596D01*
Y4344D02*
Y5267D01*
X20788Y5569D02*
X21090Y5267D01*
X21440Y8480D02*
X22200D01*
X20950D02*
X21440D01*
X21434Y8474D02*
X21440Y8480D01*
X21434Y7822D02*
Y8474D01*
X20686Y8336D02*
X20700Y8350D01*
X20686Y7822D02*
Y8336D01*
X20280Y9150D02*
X20950Y8480D01*
X20450Y9220D02*
X20930Y8740D01*
X21090D01*
X22540D01*
X22640Y10360D02*
Y10630D01*
Y9940D02*
Y10360D01*
X22636Y10364D02*
X22640Y10360D01*
X21170Y10364D02*
X22636D01*
X23014Y11004D02*
Y11468D01*
X22640Y10630D02*
X23014Y11004D01*
X22640Y9940D02*
X22737Y9843D01*
X23228D01*
X21170Y9110D02*
Y9616D01*
X21340Y11020D02*
X22110D01*
X20900D02*
X21340D01*
X21350Y11030D01*
Y11446D01*
X22110Y11020D02*
X22266Y11176D01*
X20750Y11170D02*
X20900Y11020D01*
X22266Y11176D02*
Y11468D01*
X23014D02*
Y11786D01*
X22266Y12472D02*
Y12924D01*
X22640Y11050D02*
Y11468D01*
X10500Y14800D02*
Y15200D01*
X10400Y14700D02*
X10500Y14800D01*
Y14480D02*
X10670Y14650D01*
X9630Y42930D02*
X16171D01*
X9460Y42560D02*
Y42760D01*
X12700Y49180D02*
X13790D01*
X11500D02*
X12700D01*
Y48560D02*
Y49180D01*
Y48560D02*
X13220Y48040D01*
X15060D01*
X17700Y45400D01*
X16790Y49180D02*
X17570D01*
X18590Y48160D01*
X17711Y50350D02*
X18360Y49701D01*
X17640Y50180D02*
X18190Y49630D01*
X18360Y49111D02*
Y49701D01*
Y49111D02*
X18801Y48670D01*
X18190Y49040D02*
X18730Y48500D01*
X18190Y49040D02*
Y49630D01*
X17570Y50010D02*
X18020Y49560D01*
Y48970D02*
Y49560D01*
Y48970D02*
X18660Y48330D01*
X10850Y50350D02*
X17711D01*
X10920Y50180D02*
X17640D01*
X14990Y50010D02*
X17570D01*
X18801Y48670D02*
X20030D01*
X18730Y48500D02*
X19960D01*
X18660Y48330D02*
X19889D01*
X14790Y49180D02*
Y49810D01*
X14990Y50010D01*
X10680Y50180D02*
X10850Y50350D01*
X9970Y50180D02*
X10680D01*
X10500Y49760D02*
X10920Y50180D01*
X9500Y49710D02*
X9970Y50180D01*
X19819Y48160D02*
X22480Y45499D01*
X18590Y48160D02*
X19819D01*
X19889Y48330D02*
X22650Y45569D01*
X19960Y48500D02*
X22820Y45640D01*
X20030Y48670D02*
X22990Y45710D01*
X9500Y49180D02*
Y49710D01*
X10500Y49180D02*
Y49760D01*
X24030Y21071D02*
X24130Y20971D01*
Y20288D02*
Y20971D01*
X23800Y19958D02*
X24130Y20288D01*
X23800Y19280D02*
Y19958D01*
X21950Y19200D02*
X22060D01*
X23700Y19180D02*
X23800Y19280D01*
X23570Y19180D02*
X23700D01*
X21830Y19320D02*
X21950Y19200D01*
X22060D02*
X22080Y19180D01*
X21830Y19320D02*
Y19599D01*
X23960Y20359D02*
Y20901D01*
X23860Y21001D02*
X23960Y20901D01*
X23560Y19959D02*
X23960Y20359D01*
X23560Y19460D02*
X23570Y19450D01*
X23560Y19460D02*
Y19959D01*
X22050Y19450D02*
Y19620D01*
X17700Y42650D02*
X18410Y41940D01*
X17700Y42650D02*
Y45400D01*
X18840Y41480D02*
X20430D01*
X18630Y41690D02*
X18840Y41480D01*
X20650Y40450D02*
Y41260D01*
X20430Y41480D02*
X20650Y41260D01*
X18850Y41790D02*
Y41800D01*
X20875Y40295D02*
Y41175D01*
X20650Y41810D02*
X20690Y41770D01*
X20650Y41810D02*
Y42403D01*
X21550Y40830D02*
Y41330D01*
X21150Y41730D02*
X21550Y41330D01*
X21150Y41730D02*
Y42403D01*
X21451Y40341D02*
Y40449D01*
X20140Y41770D02*
X20150Y41780D01*
Y42403D01*
X19170Y41800D02*
X19200Y41770D01*
X19170Y41800D02*
Y42402D01*
X21550Y40830D02*
X21680Y40700D01*
X21784Y40896D02*
X21850Y40830D01*
X21784Y40896D02*
Y41084D01*
X21650Y41560D02*
X22020Y41190D01*
X21650Y41560D02*
Y42403D01*
X22040Y41590D02*
X22140Y41690D01*
Y45100D01*
X22190Y41350D02*
X22310Y41470D01*
Y45180D01*
X21880Y45610D02*
X22310Y45180D01*
X21130Y45610D02*
X21880D01*
X21830Y45410D02*
X22140Y45100D01*
X21450Y45410D02*
X21830D01*
X20650Y45130D02*
X21130Y45610D01*
X20650Y44588D02*
Y45130D01*
X21150Y45110D02*
X21450Y45410D01*
X21150Y44588D02*
Y45110D01*
X22461Y24402D02*
X23350Y23512D01*
X22417Y24205D02*
X23180Y23442D01*
X22373Y24008D02*
X23010Y23371D01*
X22330Y23811D02*
X22840Y23301D01*
X22286Y23614D02*
X22670Y23230D01*
X23690Y20930D02*
Y25087D01*
X22220Y23440D02*
X22500Y23160D01*
Y20750D02*
Y23160D01*
X22450Y20700D02*
X22500Y20750D01*
X23580Y47090D02*
X24830D01*
X23580Y35090D02*
Y47090D01*
Y35090D02*
X24830D01*
Y47090D01*
X23690Y20930D02*
X23790Y20830D01*
Y20459D02*
Y20830D01*
X23611Y20280D02*
X23790Y20459D01*
X23570Y20280D02*
X23611D01*
X22130Y20300D02*
X22430D01*
X20726Y21704D02*
Y22295D01*
Y21704D02*
X22130Y20300D01*
X22430D02*
X22450Y20280D01*
X23520Y20860D02*
X23570Y20810D01*
Y20550D02*
Y20810D01*
X22450Y20550D02*
Y20700D01*
X22009Y23440D02*
X22220D01*
X21986Y23417D02*
X22009Y23440D01*
X21455Y23417D02*
X21986D01*
X22260Y38360D02*
Y38520D01*
X22200Y38300D02*
X22260Y38360D01*
X19150Y38530D02*
X20850D01*
X21451Y40341D02*
X21510Y40282D01*
X20875Y40295D02*
X21070Y40100D01*
X20333Y26705D02*
Y27175D01*
X20310Y27198D02*
X20333Y27175D01*
X19760Y41816D02*
Y43970D01*
X18190Y27199D02*
Y27405D01*
X18167Y27176D02*
X18190Y27199D01*
X18167Y26057D02*
Y26705D01*
X18085Y27510D02*
X18190Y27405D01*
X18167Y26705D02*
Y27176D01*
X18160Y26050D02*
X18167Y26057D01*
X21455Y23024D02*
X21926D01*
X20826D02*
X21455D01*
X22000Y22254D02*
Y22950D01*
X21926Y23024D02*
X22000Y22950D01*
X21346Y13930D02*
X21350Y13926D01*
Y12194D02*
Y12990D01*
Y13926D01*
X20970Y12990D02*
X21350D01*
X20800Y23050D02*
X20826Y23024D01*
X18464Y9880D02*
X19480D01*
X17466Y23024D02*
X17620Y22870D01*
X17774Y22295D02*
Y22716D01*
Y21834D02*
Y22295D01*
X17700Y21760D02*
X17774Y21834D01*
X17700Y21104D02*
Y21760D01*
X17620Y22870D02*
X17774Y22716D01*
X17045Y23024D02*
X17466D01*
X20150Y44588D02*
Y45126D01*
X19140Y38540D02*
X19150Y38530D01*
X21650Y44588D02*
Y45166D01*
X16420Y38540D02*
X17900D01*
X17471Y31869D02*
Y32051D01*
X17460Y31858D02*
X17471Y31869D01*
X17460Y31840D02*
Y31858D01*
X16760Y31140D02*
X17460Y31840D01*
X17030Y31650D02*
Y32118D01*
X16815Y31795D02*
Y32144D01*
X16730Y36210D02*
X18150Y37630D01*
X16730Y32370D02*
Y36210D01*
X16690Y31310D02*
X17030Y31650D01*
X16810Y31790D02*
X16815Y31795D01*
X8700Y10970D02*
X8720Y10950D01*
X9300D02*
X11170D01*
X11380Y11160D01*
Y13140D01*
X17450Y19040D02*
X18169Y19759D01*
X17470Y18740D02*
X18364Y19634D01*
X16150Y18800D02*
X16250D01*
X16030Y18680D02*
X16150Y18800D01*
X16030Y18409D02*
Y18680D01*
Y18409D02*
X16080Y18359D01*
X16460Y22700D02*
X16840Y22320D01*
X16263Y22618D02*
X16670Y22212D01*
X16066Y22537D02*
X16500Y22103D01*
X18594Y15914D02*
Y16460D01*
Y17014D01*
X18561Y21679D02*
X18590Y21650D01*
X18561Y21679D02*
Y22295D01*
X16002Y26770D02*
X16004Y26768D01*
X16398D02*
X16772D01*
X16398D02*
Y27098D01*
X15872Y26320D02*
X16930D01*
X17050Y26440D01*
Y26850D01*
X17450Y27250D02*
X17700D01*
X15592Y26600D02*
X15872Y26320D01*
X15391Y26080D02*
X15661Y25810D01*
X15461Y26250D02*
X15732Y25980D01*
X16159Y25810D02*
X16386Y25583D01*
X16230Y25980D02*
X16430Y25780D01*
X15661Y25810D02*
X16159D01*
X15732Y25980D02*
X16230D01*
X16300Y26150D02*
X16474Y25976D01*
X15802Y26150D02*
X16300D01*
X15532Y26420D02*
X15802Y26150D01*
X16091Y25630D02*
X16335Y25386D01*
X15441Y25630D02*
X16091D01*
X16020Y25460D02*
X16291Y25189D01*
X15370Y25460D02*
X16020D01*
X15950Y25290D02*
X16248Y24992D01*
X15300Y25290D02*
X15950D01*
X15880Y25120D02*
X16177Y24822D01*
X15230Y25120D02*
X15880D01*
X15809Y24950D02*
X16107Y24652D01*
X15159Y24950D02*
X15809D01*
X15739Y24780D02*
X16037Y24482D01*
X15089Y24780D02*
X15739D01*
X15310Y25760D02*
X15441Y25630D01*
X14970Y25860D02*
X15370Y25460D01*
X15050Y25540D02*
X15300Y25290D01*
X14980Y25370D02*
X15230Y25120D01*
X14909Y25200D02*
X15159Y24950D01*
X14839Y25030D02*
X15089Y24780D01*
X16386Y25583D02*
X17045D01*
X16430Y25780D02*
X17045D01*
X16474Y25976D02*
X17045D01*
X17700Y19860D02*
Y20356D01*
X18190Y21600D02*
Y21792D01*
X18167Y21815D02*
X18190Y21792D01*
X18167Y21815D02*
Y22295D01*
X17970Y21700D02*
Y22295D01*
X13552Y26420D02*
X15532D01*
X13481Y26250D02*
X15461D01*
X13411Y26080D02*
X15391D01*
X13402Y26570D02*
X13552Y26420D01*
X13332Y26400D02*
X13481Y26250D01*
X13261Y26230D02*
X13411Y26080D01*
X12989Y26230D02*
X13261D01*
X12919Y26400D02*
X13332D01*
X12848Y26570D02*
X13402D01*
X12778Y26740D02*
X13472D01*
X13612Y26600D02*
X15592D01*
X13472Y26740D02*
X13612Y26600D01*
X18320Y37560D02*
Y40540D01*
X16100Y42760D02*
X18320Y40540D01*
X9800Y42760D02*
X16100D01*
X9630Y42590D02*
X9800Y42760D01*
X9630Y42490D02*
Y42590D01*
X8160Y41020D02*
X9630Y42490D01*
X7120Y40614D02*
X8160D01*
X8160Y40614D01*
Y41020D01*
X16291Y25189D02*
X17045D01*
X16171Y42930D02*
X18490Y40611D01*
X8690Y41790D02*
X9460Y42560D01*
X6280Y41790D02*
X8690D01*
X6280D02*
Y42326D01*
X18490Y37489D02*
Y40611D01*
X18660Y37419D02*
Y40681D01*
X9420Y43080D02*
X9440Y43100D01*
X16241D01*
X8854Y43080D02*
X9420D01*
X16241Y43100D02*
X18660Y40681D01*
X18830Y37348D02*
Y40752D01*
X16312Y43270D02*
X18830Y40752D01*
X9710Y43270D02*
X16312D01*
X9330Y43650D02*
X9710Y43270D01*
X6280Y44814D02*
X6846D01*
X8010Y43650D02*
X9330D01*
X6846Y44814D02*
X8010Y43650D01*
X13180Y27140D02*
X13290Y27250D01*
X18760Y11980D02*
Y14930D01*
X18570Y11790D02*
X18760Y11980D01*
X18570Y11559D02*
Y11790D01*
X13000Y26000D02*
X13160D01*
X13170Y26010D01*
X12060Y14681D02*
Y14960D01*
X11830Y15190D02*
X12060Y14960D01*
X18960Y10870D02*
Y14970D01*
X18720Y10630D02*
X18960Y10870D01*
X17470Y10630D02*
X18720D01*
X17200Y10360D02*
X17470Y10630D01*
X17200Y9880D02*
X17716D01*
X17200D02*
Y10360D01*
X13362Y9880D02*
Y10349D01*
X13110Y10600D02*
X13362Y10349D01*
Y9880D02*
X13566Y9676D01*
X12200Y10600D02*
X13110D01*
X11660Y11140D02*
X12200Y10600D01*
X12884Y9880D02*
X13362D01*
X21455Y24402D02*
X22461D01*
X21455Y24205D02*
X22417D01*
X21455Y24008D02*
X22373D01*
X21455Y23811D02*
X22330D01*
X21455Y23614D02*
X22286D01*
X22000Y21000D02*
Y21506D01*
X21455Y23220D02*
X22100D01*
X20726Y27146D02*
X20810Y27230D01*
X20726Y26705D02*
Y27146D01*
X20530Y26705D02*
Y27290D01*
X15310Y25760D02*
Y25850D01*
X16335Y25386D02*
X17045D01*
X17700Y27250D02*
X17774Y27176D01*
Y26705D02*
Y27176D01*
X17970Y26705D02*
Y27290D01*
X17220Y15260D02*
X17520Y14960D01*
Y14681D02*
Y14960D01*
X16495Y23614D02*
X17045D01*
X16066Y23186D02*
X16495Y23614D01*
X16066Y22537D02*
Y23186D01*
X9874Y15200D02*
X10500D01*
X9874Y14700D02*
X10400D01*
X16538Y23417D02*
X17045D01*
X16263Y23142D02*
X16538Y23417D01*
X16263Y22618D02*
Y23142D01*
X10500Y14200D02*
Y14480D01*
X9874Y14200D02*
X10500D01*
Y13830D02*
Y14200D01*
X10370Y13700D02*
X10500Y13830D01*
X9874Y13700D02*
X10370D01*
X10840Y14339D02*
X11010Y14509D01*
X10840Y13620D02*
Y14339D01*
X10670Y13450D02*
X10840Y13620D01*
X10670Y12690D02*
Y13450D01*
X10500Y12520D02*
X10670Y12690D01*
X10500Y12300D02*
Y12520D01*
X10400Y12200D02*
X10500Y12300D01*
X9874Y12200D02*
X10400D01*
X16582Y23220D02*
X17045D01*
X16460Y23099D02*
X16582Y23220D01*
X16460Y22700D02*
Y23099D01*
X10670Y13690D02*
Y14410D01*
X10840Y14580D01*
X10500Y13520D02*
X10670Y13690D01*
X10500Y13200D02*
Y13520D01*
X9874Y13200D02*
X10500D01*
Y12800D02*
Y13200D01*
X10400Y12700D02*
X10500Y12800D01*
X9874Y12700D02*
X10400D01*
X6260Y31864D02*
X7300D01*
X6258Y31866D02*
X6260Y31864D01*
X5220Y31866D02*
X6258D01*
X18150Y37630D02*
Y40470D01*
X16030Y42590D02*
X18150Y40470D01*
X9870Y42590D02*
X16030D01*
X17799Y12359D02*
X18190D01*
X17360Y11920D02*
X17799Y12359D01*
X17360Y11740D02*
Y11920D01*
X17260Y11640D02*
X17360Y11740D01*
X16210Y11640D02*
Y12370D01*
X16450Y12610D01*
Y12881D01*
X14160Y13240D02*
X14610D01*
X13710D02*
X14160D01*
X14150Y13230D02*
X14160Y13240D01*
X14150Y12881D02*
Y13230D01*
X12520Y13140D02*
X12810D01*
X11920D02*
X12520D01*
Y12644D02*
Y13140D01*
X12810D02*
X13010Y13340D01*
X13610D02*
X13710Y13240D01*
X14610D02*
X14670Y13180D01*
X14770D01*
X15980Y13200D02*
X16020Y13240D01*
X17110D01*
X17200Y13150D01*
Y12881D02*
Y13150D01*
X12440Y13881D02*
X13049D01*
X13280Y13650D01*
Y13310D02*
Y13650D01*
X13800Y13881D02*
X14249D01*
X14730Y13400D01*
X14880D01*
X15157Y13123D01*
X15160Y13470D02*
Y13881D01*
Y13470D02*
X15327Y13303D01*
X15890Y13440D02*
X16860D01*
X15667Y13217D02*
X15890Y13440D01*
X23854Y13700D02*
X24390D01*
X23854Y14780D02*
X24390D01*
X22094Y13096D02*
X22266Y12924D01*
X23226Y9840D02*
X23228Y9843D01*
X22194Y8474D02*
X22200Y8480D01*
X12879Y20039D02*
Y20775D01*
Y19313D02*
Y20039D01*
Y22059D02*
Y22575D01*
Y21523D02*
Y22059D01*
X13869Y22779D02*
X14509D01*
X8490Y36470D02*
X9006D01*
X8490Y37510D02*
X9006D01*
X13204Y37500D02*
X13740D01*
X14451Y38209D02*
X14870D01*
X16000Y35135D02*
Y36416D01*
X16000Y36416D01*
Y37164D02*
Y37520D01*
X16110Y37630D01*
X16800D01*
X16880Y37710D01*
Y38077D01*
X15240Y39009D02*
Y39340D01*
X15330Y39430D01*
X16506D01*
Y39003D02*
Y39430D01*
Y39940D01*
X15620Y38209D02*
X16089D01*
X16420Y38540D01*
X10000Y35660D02*
X11240Y36900D01*
X11860D01*
X11970Y37010D01*
Y37500D01*
X12456D01*
X11484D02*
X11970D01*
Y38360D01*
X12080Y38470D01*
Y40010D01*
X17254Y39003D02*
X17254Y39003D01*
Y39940D01*
X6300Y37590D02*
Y38116D01*
Y38864D02*
X7290D01*
X7296Y38870D01*
X8044D02*
Y39294D01*
X8160Y39410D01*
Y39866D01*
X9200D01*
X6544Y39866D02*
X7120D01*
X5240Y41790D02*
Y42326D01*
Y43074D02*
X6280D01*
X2423D02*
X5240D01*
X2400Y43051D02*
X2423Y43074D01*
X5240Y44066D02*
X6280D01*
X6280Y44066D01*
X2415Y44066D02*
X5240D01*
X2400Y44051D02*
X2415Y44066D01*
X6286Y43080D02*
X8106D01*
X6280Y43074D02*
X6286Y43080D01*
X5240Y44814D02*
Y45340D01*
X9800Y42520D02*
X9870Y42590D01*
X9200Y40614D02*
Y41819D01*
X9800Y42419D01*
Y42520D01*
X6260Y30570D02*
Y31116D01*
X6040Y8094D02*
Y8630D01*
Y6440D02*
Y7346D01*
X16678Y9780D02*
Y10394D01*
X16680Y10396D01*
X13922Y9580D02*
Y10394D01*
X13920Y10396D02*
X13922Y10394D01*
X16680Y11144D02*
Y11570D01*
X16830Y11720D01*
Y12081D01*
X13400Y12881D02*
Y13190D01*
X13280Y13310D02*
X13400Y13190D01*
X13780Y11680D02*
X13920Y11540D01*
X13780Y11680D02*
Y12081D01*
X13920Y11144D02*
Y11540D01*
X12520Y11360D02*
Y11896D01*
X17820Y11140D02*
Y11559D01*
X15961Y13881D02*
X16530D01*
X15497Y13417D02*
X15961Y13881D01*
X17301D02*
X17900D01*
X16860Y13440D02*
X17301Y13881D01*
X16900Y14681D02*
Y15040D01*
X13770Y23860D02*
X13940Y24030D01*
X15070D01*
X15380Y23720D01*
X16020D01*
X16308Y24008D01*
X17045D01*
X16351Y23811D02*
X17045D01*
X16090Y23550D02*
X16351Y23811D01*
X15350Y23550D02*
X16090D01*
X15180Y23380D02*
X15350Y23550D01*
X15180Y19170D02*
Y23380D01*
X15049Y19039D02*
X15180Y19170D01*
X14509Y19039D02*
X15049D01*
X12879Y18565D02*
X13365D01*
X13839Y19039D01*
X14509D01*
X16248Y24992D02*
X17045D01*
X16177Y24822D02*
X16511D01*
X16538Y24795D02*
X17045D01*
X16511Y24822D02*
X16538Y24795D01*
X16495Y24598D02*
X17045D01*
X16107Y24652D02*
X16441D01*
X16495Y24598D01*
X16037Y24482D02*
X16371D01*
X16451Y24402D02*
X17045D01*
X16371Y24482D02*
X16451Y24402D01*
X15573Y24205D02*
X17045D01*
X15538Y24239D02*
X15573Y24205D01*
X14484Y24510D02*
X15267D01*
X15538Y24239D01*
X16195Y29806D02*
X16421Y29580D01*
X17560Y29800D02*
X17561Y29799D01*
X16265Y29976D02*
X16491Y29750D01*
X17199D01*
X17469Y30020D01*
X17128Y29920D02*
X17398Y30190D01*
X16562Y29920D02*
X17128D01*
X16336Y30146D02*
X16562Y29920D01*
X13734Y30146D02*
X16336D01*
X13380Y30500D02*
X13734Y30146D01*
X13380Y30500D02*
Y30870D01*
X17058Y30090D02*
X17328Y30360D01*
X16632Y30090D02*
X17058D01*
X16406Y30316D02*
X16632Y30090D01*
X13914Y30316D02*
X16406D01*
X13750Y30480D02*
X13914Y30316D01*
X13750Y30480D02*
Y30870D01*
X14050Y30576D02*
Y30850D01*
Y30576D02*
X14140Y30486D01*
X17214D01*
X17258Y30530D01*
X14350Y30686D02*
Y30850D01*
Y30686D02*
X14380Y30656D01*
X17143D01*
X15720Y30900D02*
Y31060D01*
X15800Y31140D01*
X15430Y30890D02*
Y31030D01*
X15710Y31310D01*
X17143Y30656D02*
X17187Y30700D01*
X15800Y31140D02*
X16760D01*
X15710Y31310D02*
X16690D01*
X17720Y31890D02*
X18750Y30860D01*
X17820Y31300D02*
X18600Y30520D01*
X17700Y31550D02*
X17810D01*
X18670Y30690D01*
X17300Y31300D02*
X17820D01*
X17258Y30530D02*
X18130D01*
X18200Y30600D01*
X17187Y30700D02*
X17900D01*
X18000Y30800D01*
X18570Y31370D02*
X18600Y31400D01*
X20136Y21774D02*
Y22295D01*
X20726Y26294D02*
Y26705D01*
Y26294D02*
X20890Y26130D01*
X13878Y3463D02*
Y3898D01*
X13960Y3980D01*
X13484Y3463D02*
Y3884D01*
X13750Y4150D01*
X13091Y3463D02*
Y3891D01*
X13520Y4320D01*
X12697Y3463D02*
Y3947D01*
X13240Y4490D01*
X12303Y3463D02*
Y3913D01*
X13050Y4660D01*
X11909Y3463D02*
Y3939D01*
X12800Y4830D01*
X11516Y3463D02*
Y3936D01*
X12580Y5000D01*
X11122Y3463D02*
Y3922D01*
X12370Y5170D01*
X17140Y9820D02*
X17200Y9880D01*
X17000Y9820D02*
X17140D01*
X13922Y9580D02*
X14052Y9450D01*
X14316Y9676D02*
X15284D01*
X15667Y10255D02*
Y13217D01*
X16440Y9722D02*
Y9820D01*
X15497Y10184D02*
Y13417D01*
X15327Y10114D02*
Y13303D01*
X15157Y10044D02*
Y13123D01*
X14052Y9450D02*
X15270D01*
X16550Y8170D01*
X15327Y10114D02*
X16761Y8680D01*
X15497Y10184D02*
X16831Y8850D01*
X15667Y10255D02*
X16902Y9020D01*
X16440Y9722D02*
X16972Y9190D01*
X16678Y9780D02*
X17098Y9360D01*
X15284Y9676D02*
X16620Y8340D01*
X15157Y10044D02*
X16690Y8510D01*
X17098Y9360D02*
X18280D01*
X19180Y8460D01*
X18210Y9190D02*
X19010Y8390D01*
Y5387D02*
Y8390D01*
X16902Y9020D02*
X18139D01*
X18840Y8319D01*
Y5458D02*
Y8319D01*
X16831Y8850D02*
X18069D01*
X18670Y8249D01*
Y5528D02*
Y8249D01*
X16761Y8680D02*
X17998D01*
X18500Y8178D01*
Y5599D02*
Y8178D01*
X16690Y8510D02*
X17928D01*
X18330Y8108D01*
Y5669D02*
Y8108D01*
X16620Y8340D02*
X17858D01*
X18160Y8037D01*
Y5740D02*
Y8037D01*
X16550Y8170D02*
X17787D01*
X17990Y7967D01*
Y5810D02*
Y7967D01*
X16972Y9190D02*
X18210D01*
X17180Y7294D02*
Y7820D01*
X16090Y7294D02*
Y7810D01*
X8980Y10880D02*
X9210Y10650D01*
X11090D01*
X11570Y10170D01*
Y9470D02*
X11850Y9190D01*
X13390D01*
X13968Y8612D01*
Y7230D02*
Y8612D01*
X11580Y9880D02*
X12136D01*
X11570Y9870D02*
X11580Y9880D01*
X11570Y9470D02*
Y9870D01*
Y10170D01*
X17350Y5170D02*
X17990Y5810D01*
X12370Y5170D02*
X17350D01*
X17420Y5000D02*
X18160Y5740D01*
X12580Y5000D02*
X17420D01*
X12800Y4830D02*
X17491D01*
X18330Y5669D01*
X17561Y4660D02*
X18500Y5599D01*
X13050Y4660D02*
X17561D01*
X13240Y4490D02*
X17632D01*
X18670Y5528D01*
X17702Y4320D02*
X18840Y5458D01*
X13520Y4320D02*
X17702D01*
X13750Y4150D02*
X17773D01*
X19010Y5387D01*
X17843Y3980D02*
X19180Y5317D01*
Y8460D01*
X8980Y10880D02*
Y15380D01*
X13736Y24186D02*
Y24510D01*
X13500Y23950D02*
X13736Y24186D01*
X8734Y22622D02*
X9262D01*
X9350Y22200D02*
Y22470D01*
X9272Y22122D02*
X9350Y22200D01*
X8734Y22122D02*
X9272D01*
X9350Y21960D02*
X9520Y22130D01*
X9350Y21690D02*
Y21960D01*
X9282Y21622D02*
X9350Y21690D01*
X8734Y21622D02*
X9282D01*
X9520Y21620D02*
Y21889D01*
X9350Y21450D02*
X9520Y21620D01*
X9350Y21200D02*
Y21450D01*
X9272Y21122D02*
X9350Y21200D01*
X8734Y21122D02*
X9272D01*
X9520Y21379D02*
X9690Y21549D01*
X9520Y21130D02*
Y21379D01*
X9350Y20960D02*
X9520Y21130D01*
X9350Y20710D02*
Y20960D01*
X9262Y20622D02*
X9350Y20710D01*
X8734Y20622D02*
X9262D01*
X9690Y21059D02*
Y21309D01*
X9520Y20889D02*
X9690Y21059D01*
X9520Y20640D02*
Y20889D01*
X9350Y20470D02*
X9520Y20640D01*
X9350Y20210D02*
Y20470D01*
X9262Y20122D02*
X9350Y20210D01*
X8734Y20122D02*
X9262D01*
X9690Y20819D02*
X9860Y20989D01*
X9690Y20569D02*
Y20819D01*
X9520Y20399D02*
X9690Y20569D01*
X9520Y20140D02*
Y20399D01*
X9350Y19970D02*
X9520Y20140D01*
X8734Y19622D02*
X9262D01*
X9350Y19710D01*
Y19970D01*
X10310Y24961D02*
Y25150D01*
X9350Y26880D02*
X9740Y27270D01*
X9520Y26810D02*
X9910Y27200D01*
X10310Y25150D02*
X10370Y25210D01*
Y26458D01*
X10200Y25280D02*
Y26528D01*
X10370Y26458D02*
X10760Y26848D01*
X10200Y26528D02*
X10590Y26918D01*
X9350Y23622D02*
Y23950D01*
X8734Y23622D02*
X9350D01*
X9282Y24122D02*
X9350Y24190D01*
Y23950D02*
X9520Y24120D01*
X9690Y23910D02*
X9810Y23790D01*
X13500Y25030D02*
X14839D01*
X13430Y25200D02*
X14909D01*
X13290Y25370D02*
X14980D01*
X9740Y27270D02*
Y27779D01*
X10430Y28469D01*
X9910Y27200D02*
Y27708D01*
X10600Y28398D01*
X10080Y27129D02*
Y27638D01*
X10770Y28328D01*
X10250Y27059D02*
Y27568D01*
X10940Y28258D01*
X10420Y26988D02*
Y27497D01*
X11110Y28187D01*
X10590Y26918D02*
Y27427D01*
X11280Y28117D01*
X10760Y26848D02*
Y27356D01*
X11450Y28046D01*
X10930Y26777D02*
Y27286D01*
X11620Y27976D01*
X11100Y26707D02*
Y27216D01*
X11270Y26636D02*
Y27145D01*
X11440Y26566D02*
Y27075D01*
X11610Y26495D02*
Y27004D01*
X8734Y25622D02*
X9250D01*
X9350Y25722D01*
Y26880D01*
Y25482D02*
X9520Y25652D01*
Y26810D01*
X10090Y24968D02*
Y25170D01*
X10200Y25280D01*
X13110Y24640D02*
X13500Y25030D01*
X9282Y25122D02*
X9350Y25190D01*
Y25482D01*
X13553Y23323D02*
X13770Y23540D01*
Y23860D01*
X12879Y22059D02*
X13439D01*
X13659Y22279D01*
Y22569D01*
X13869Y22779D01*
X9860Y20989D02*
Y21238D01*
X9690Y21309D02*
X9860Y21479D01*
X9690Y21549D02*
Y21819D01*
X9520Y21889D02*
X9690Y22059D01*
Y22329D01*
X9520Y22130D02*
Y22399D01*
X9350Y22470D02*
X9550Y22670D01*
X12879Y23323D02*
X13553D01*
X9860Y21238D02*
X10030Y21408D01*
Y21678D01*
X9860Y21479D02*
Y21748D01*
X10030Y21918D01*
X9690Y21819D02*
X9860Y21989D01*
Y22258D01*
X9690Y22329D02*
X9890Y22529D01*
X9520Y22399D02*
X9720Y22599D01*
X10030Y21678D02*
X10200Y21848D01*
X12940Y24550D02*
Y24710D01*
X10200Y21848D02*
Y22118D01*
X10400Y22318D01*
X10030Y21918D02*
Y22188D01*
X10230Y22388D01*
Y22508D01*
X9860Y22258D02*
X10060Y22458D01*
Y22579D01*
X12940Y24710D02*
X13430Y25200D01*
X10400Y22318D02*
Y22438D01*
X9550Y22790D02*
X10150Y23390D01*
X9380Y22860D02*
X9980Y23460D01*
X13030Y25110D02*
X13290Y25370D01*
X13030Y25790D02*
X13380D01*
X12970Y25380D02*
X13130Y25540D01*
X15050D01*
X12990Y24170D02*
X13110Y24290D01*
Y24640D01*
X12830Y24440D02*
X12940Y24550D01*
X12870Y25110D02*
X13030D01*
X12850Y24170D02*
X12990D01*
X10310Y24961D02*
X10310Y24961D01*
X10310Y24948D02*
Y24961D01*
X10400Y22438D02*
X11000Y23038D01*
X10230Y22508D02*
X10830Y23108D01*
X10060Y22579D02*
X10660Y23179D01*
X9890Y22649D02*
X10490Y23249D01*
X9720Y22719D02*
X10320Y23319D01*
X9980Y24858D02*
X10090Y24968D01*
X10150Y23390D02*
Y24788D01*
X10310Y24948D01*
X9810Y23531D02*
Y23790D01*
X8734Y23122D02*
X9401D01*
X9550Y22670D02*
Y22790D01*
X9720Y22599D02*
Y22719D01*
X9890Y22529D02*
Y22649D01*
X9460Y42760D02*
X9530Y42830D01*
X9630Y42930D01*
X9380Y22740D02*
Y22860D01*
X19170Y43150D02*
Y43600D01*
X19580Y44150D02*
X19760Y43970D01*
X19196Y44150D02*
X19580D01*
X19180Y44166D02*
X19196Y44150D01*
X18630Y41690D02*
Y45180D01*
X18790Y45340D01*
X19936D02*
X20150Y45126D01*
X19180Y44914D02*
Y45340D01*
X18790D02*
X19180D01*
X19936D01*
X10000Y34650D02*
Y35135D01*
Y34650D02*
X10430Y34220D01*
X10770Y34080D02*
X11500Y34810D01*
Y35135D01*
X10500Y34440D02*
Y35135D01*
Y34440D02*
X10600Y34340D01*
X12000Y34830D02*
Y35135D01*
Y34830D02*
X13200Y33630D01*
Y32930D02*
Y33630D01*
X12500Y34570D02*
Y35135D01*
Y34570D02*
X13370Y33700D01*
Y32860D02*
Y33700D01*
X13000Y34311D02*
Y35135D01*
Y34311D02*
X13540Y33771D01*
Y32789D02*
Y33771D01*
X13500Y34051D02*
Y35135D01*
Y34051D02*
X13710Y33841D01*
Y32719D02*
Y33841D01*
X16000Y34840D02*
Y35135D01*
X15500Y34580D02*
Y35135D01*
X15000Y34321D02*
Y35135D01*
X14060Y32140D02*
Y33621D01*
X14500Y34061D01*
Y35135D01*
X14570Y33410D02*
X16000Y34840D01*
X14400Y31440D02*
Y33480D01*
X15500Y34580D01*
X14230Y31790D02*
Y33551D01*
X15000Y34321D01*
X13890Y32450D02*
Y33720D01*
X14000Y33830D01*
Y35135D01*
X8560Y15800D02*
X8980Y15380D01*
X7540Y16351D02*
X8091Y15800D01*
X8560D01*
X18120Y27784D02*
X18364Y27540D01*
X18120Y27784D02*
Y29081D01*
X17791Y29410D02*
X18120Y29081D01*
X18290Y27870D02*
X18561Y27599D01*
X18290Y27870D02*
Y29152D01*
X17862Y29580D02*
X18290Y29152D01*
X18460Y27940D02*
X18758Y27643D01*
X18460Y27940D02*
Y29222D01*
X17883Y29799D02*
X18460Y29222D01*
X18630Y28011D02*
X18955Y27686D01*
X18630Y28011D02*
Y29292D01*
X17902Y30020D02*
X18630Y29292D01*
X18800Y28081D02*
X19152Y27730D01*
X18800Y28081D02*
Y29363D01*
X17973Y30190D02*
X18800Y29363D01*
X13335Y31895D02*
X13890Y32450D01*
X18970Y28152D02*
X19348Y27773D01*
X18970Y28152D02*
Y29433D01*
X18043Y30360D02*
X18970Y29433D01*
X7470Y20060D02*
X7660Y19870D01*
X7470Y28730D02*
Y30310D01*
Y28730D02*
X7950Y28250D01*
X7300Y28660D02*
X7780Y28180D01*
X7300Y28660D02*
Y31116D01*
X12360Y22474D02*
Y23800D01*
X12590Y24030D01*
Y25350D01*
X13030Y25790D01*
X12190Y22545D02*
Y23885D01*
X12420Y24115D01*
Y25420D01*
X13000Y26000D01*
X12020Y22615D02*
Y23955D01*
X12250Y24185D01*
Y25491D01*
X12989Y26230D01*
X11850Y22686D02*
Y24026D01*
X12080Y24256D01*
Y25561D01*
X12919Y26400D01*
X11680Y22756D02*
Y24096D01*
X11910Y24326D01*
Y25632D01*
X12848Y26570D01*
X11510Y22826D02*
Y24167D01*
X11740Y24397D01*
Y25702D01*
X12778Y26740D01*
X11340Y22897D02*
Y24237D01*
X11570Y24467D01*
Y25773D01*
X11170Y22967D02*
Y24307D01*
X11400Y24537D01*
Y25843D01*
X11000Y23038D02*
Y24378D01*
X11220Y24598D01*
Y26105D01*
X11610Y26495D01*
X10830Y23108D02*
Y24448D01*
X11050Y24668D01*
Y26176D01*
X11440Y26566D01*
X10660Y23179D02*
Y24519D01*
X10880Y24739D01*
Y26246D01*
X11270Y26636D01*
X10490Y23249D02*
Y24589D01*
X10710Y24809D01*
Y26317D01*
X11100Y26707D01*
X10320Y23319D02*
Y24660D01*
X10540Y24880D01*
Y26387D01*
X10930Y26777D01*
X9980Y23460D02*
Y24858D01*
X9690Y23910D02*
Y24809D01*
X9860Y24979D01*
Y25270D01*
X10030Y25440D01*
Y26598D01*
X10420Y26988D01*
X9520Y24120D02*
Y24879D01*
X9690Y25049D01*
Y25341D01*
X9860Y25511D01*
Y26669D01*
X10250Y27059D01*
X9350Y24190D02*
Y24950D01*
X9520Y25120D01*
Y25411D01*
X9690Y25581D01*
Y26739D01*
X10080Y27129D01*
X5390Y27700D02*
X5926D01*
X6730Y28250D02*
Y28649D01*
X6670Y28190D02*
X6730Y28250D01*
X6670Y27704D02*
Y28190D01*
Y27704D02*
X6674Y27700D01*
X6730Y28250D02*
X7330D01*
X7600Y27980D01*
Y25200D02*
Y27980D01*
X7920Y19331D02*
Y20080D01*
X7640Y20360D02*
X7920Y20080D01*
X5980Y25004D02*
X6580D01*
X5974Y25010D02*
X5980Y25004D01*
X5974Y25010D02*
Y26050D01*
X5380Y25004D02*
X5968D01*
X5974Y25010D01*
Y23836D02*
Y25010D01*
X6580Y23650D02*
Y24256D01*
X5974Y23836D02*
X6480Y23330D01*
X6580Y23650D02*
X6730Y23500D01*
X6480Y23330D02*
X7210D01*
X7300Y23240D01*
X6730Y23500D02*
X7470D01*
X8270Y19462D02*
Y23960D01*
X8432Y24122D01*
X7470Y23500D02*
Y24790D01*
X8400Y24857D02*
Y25050D01*
X7950Y25030D02*
Y28250D01*
X7780Y25100D02*
Y28180D01*
X8100Y19392D02*
Y24557D01*
X8400Y24857D01*
X7240Y24840D02*
X7600Y25200D01*
X7640Y24720D02*
X7950Y25030D01*
X7470Y24790D02*
X7780Y25100D01*
X7240Y23720D02*
Y24840D01*
X7060Y22890D02*
Y23100D01*
X7640Y20360D02*
Y24720D01*
X7470Y20060D02*
Y23500D01*
X7060Y22890D02*
X7130Y22820D01*
X4710Y26050D02*
X5226D01*
X3910Y25250D02*
X4710Y26050D01*
X3720Y25250D02*
X3910D01*
X6660Y20440D02*
Y20849D01*
Y20440D02*
X6740Y20360D01*
X6190Y19884D02*
X6740D01*
X7580Y19190D02*
Y19390D01*
X7300Y19919D02*
Y23240D01*
Y19919D02*
X7569Y19650D01*
X7570D01*
X7750Y19470D01*
X7130Y19840D02*
X7580Y19390D01*
X7130Y19840D02*
Y22820D01*
X7050Y19680D02*
X7410Y19320D01*
X6740Y19820D02*
X6880Y19680D01*
X7050D01*
X6740Y19820D02*
Y19884D01*
Y20360D01*
X5380Y23720D02*
Y24256D01*
X6190Y18610D02*
Y19136D01*
X14570Y31280D02*
Y33410D01*
X14586Y29636D02*
X16124D01*
X16350Y29410D01*
X14876Y27580D02*
Y28650D01*
X11570Y25773D02*
X12960Y27162D01*
Y27231D01*
X13199Y27470D01*
X13759D01*
X14030Y27741D01*
Y29321D01*
X14515Y29806D01*
X16195D01*
X11400Y25843D02*
X12790Y27233D01*
Y27302D01*
X13128Y27640D01*
X13689D01*
X13860Y27811D01*
Y29391D01*
X14445Y29976D01*
X16265D01*
X11610Y27004D02*
X12300Y27694D01*
Y30107D01*
X13313Y31120D01*
X14410D01*
X14570Y31280D01*
X11440Y27075D02*
X12130Y27765D01*
Y30177D01*
X13253Y31300D01*
X14260D01*
X11270Y27145D02*
X11960Y27835D01*
Y30247D01*
X13203Y31490D01*
X13930D01*
X11100Y27216D02*
X11790Y27906D01*
Y30318D01*
X13132Y31660D01*
X13580D01*
X11620Y27976D02*
Y30388D01*
X13062Y31830D01*
X11450Y28046D02*
Y30459D01*
X13710Y32719D01*
X11280Y28117D02*
Y30529D01*
X13540Y32789D01*
X11110Y28187D02*
Y30600D01*
X13370Y32860D01*
X10940Y28258D02*
Y30670D01*
X13200Y32930D01*
X10770Y28328D02*
Y34080D01*
X10600Y28398D02*
Y34340D01*
X10430Y28469D02*
Y34220D01*
X5250Y37600D02*
Y38116D01*
Y38864D02*
X6300D01*
X4626Y32614D02*
X5220D01*
X2407Y33040D02*
X4200D01*
X4626Y32614D01*
X5250Y38864D02*
Y39826D01*
X4384Y40574D02*
X5250D01*
X3910Y40100D02*
X4384Y40574D01*
X3910Y37820D02*
Y40100D01*
X3631Y37541D02*
X3910Y37820D01*
X2400Y37541D02*
X3631D01*
X18850Y41800D02*
X19170D01*
X24530Y46690D02*
Y46490D01*
Y46590D01*
X23930D01*
X24030Y46690D01*
Y46190D02*
X23930Y46090D01*
Y45890D01*
X24030Y45790D01*
X24430D01*
X24530Y45890D01*
Y46090D01*
X24430Y46190D01*
X24030D01*
X23930Y45190D02*
Y45590D01*
X24230D01*
X24130Y45390D01*
Y45290D01*
X24230Y45190D01*
X24430D01*
X24530Y45290D01*
Y45490D01*
X24430Y45590D01*
X24530Y44991D02*
Y44791D01*
Y44891D01*
X23930D01*
X24030Y44991D01*
X24530Y44491D02*
X24430D01*
Y44391D01*
X24530D01*
Y44491D01*
X24030Y43991D02*
X23930Y43891D01*
Y43691D01*
X24030Y43591D01*
X24430D01*
X24530Y43691D01*
Y43891D01*
X24430Y43991D01*
X24030D01*
Y43391D02*
X23930Y43291D01*
Y43091D01*
X24030Y42991D01*
X24430D01*
X24530Y43091D01*
Y43291D01*
X24430Y43391D01*
X24030D01*
Y42791D02*
X23930Y42691D01*
Y42491D01*
X24030Y42391D01*
X24430D01*
X24530Y42491D01*
Y42691D01*
X24430Y42791D01*
X24030D01*
X24530Y41892D02*
X23930D01*
X24230Y42191D01*
Y41792D01*
X24530Y41592D02*
Y41392D01*
Y41492D01*
X23930D01*
X24030Y41592D01*
X24530Y41092D02*
X24430D01*
Y40992D01*
X24530D01*
Y41092D01*
X24030Y40592D02*
X23930Y40492D01*
Y40292D01*
X24030Y40192D01*
X24430D01*
X24530Y40292D01*
Y40492D01*
X24430Y40592D01*
X24030D01*
Y39992D02*
X23930Y39892D01*
Y39692D01*
X24030Y39592D01*
X24430D01*
X24530Y39692D01*
Y39892D01*
X24430Y39992D01*
X24030D01*
X24630Y39392D02*
Y38992D01*
X24030Y38793D02*
X23930Y38693D01*
Y38493D01*
X24030Y38393D01*
X24430D01*
X24530Y38493D01*
Y38693D01*
X24430Y38793D01*
X24030D01*
X24230Y38193D02*
Y37793D01*
X24530Y37593D02*
X24130D01*
X23930Y37393D01*
X24130Y37193D01*
X24530D01*
X24230D01*
Y37593D01*
X24530Y36993D02*
X24430D01*
Y36893D01*
X24530D01*
Y36993D01*
X24030Y36493D02*
X23930Y36393D01*
Y36193D01*
X24030Y36093D01*
X24130D01*
X24230Y36193D01*
Y36293D01*
Y36193D01*
X24330Y36093D01*
X24430D01*
X24530Y36193D01*
Y36393D01*
X24430Y36493D01*
X-4952Y-6455D02*
X40728D01*
X-4952Y-8305D02*
Y-6455D01*
Y-8305D02*
X40728D01*
Y-6455D01*
Y-5505D02*
Y-3655D01*
X-4952Y-5505D02*
X40728D01*
X-4952D02*
Y-3655D01*
X40728D01*
X4528Y-7021D02*
Y-7878D01*
X4570Y-7021D02*
Y-7878D01*
X4528Y-7021D02*
X4742D01*
X4528Y-7878D02*
X4742D01*
X4857Y-7107D02*
X4943Y-7064D01*
X5072Y-6935D01*
Y-7835D01*
X5774Y-6935D02*
X5646Y-6978D01*
X5560Y-7107D01*
X5517Y-7321D01*
Y-7449D01*
X5560Y-7664D01*
X5646Y-7792D01*
X5774Y-7835D01*
X5860D01*
X5989Y-7792D01*
X6074Y-7664D01*
X6117Y-7449D01*
Y-7321D01*
X6074Y-7107D01*
X5989Y-6978D01*
X5860Y-6935D01*
X5774D01*
X6833D02*
X6404D01*
X6361Y-7321D01*
X6404Y-7278D01*
X6533Y-7235D01*
X6661D01*
X6790Y-7278D01*
X6876Y-7364D01*
X6918Y-7492D01*
Y-7578D01*
X6876Y-7706D01*
X6790Y-7792D01*
X6661Y-7835D01*
X6533D01*
X6404Y-7792D01*
X6361Y-7749D01*
X6319Y-7664D01*
X7120Y-7107D02*
X7206Y-7064D01*
X7334Y-6935D01*
Y-7835D01*
X7823Y-7749D02*
X7780Y-7792D01*
X7823Y-7835D01*
X7865Y-7792D01*
X7823Y-7749D01*
X8320Y-6935D02*
X8191Y-6978D01*
X8105Y-7107D01*
X8063Y-7321D01*
Y-7449D01*
X8105Y-7664D01*
X8191Y-7792D01*
X8320Y-7835D01*
X8405D01*
X8534Y-7792D01*
X8620Y-7664D01*
X8662Y-7449D01*
Y-7321D01*
X8620Y-7107D01*
X8534Y-6978D01*
X8405Y-6935D01*
X8320D01*
X9121D02*
X8992Y-6978D01*
X8907Y-7107D01*
X8864Y-7321D01*
Y-7449D01*
X8907Y-7664D01*
X8992Y-7792D01*
X9121Y-7835D01*
X9207D01*
X9335Y-7792D01*
X9421Y-7664D01*
X9464Y-7449D01*
Y-7321D01*
X9421Y-7107D01*
X9335Y-6978D01*
X9207Y-6935D01*
X9121D01*
X9922D02*
X9794Y-6978D01*
X9708Y-7107D01*
X9665Y-7321D01*
Y-7449D01*
X9708Y-7664D01*
X9794Y-7792D01*
X9922Y-7835D01*
X10008D01*
X10136Y-7792D01*
X10222Y-7664D01*
X10265Y-7449D01*
Y-7321D01*
X10222Y-7107D01*
X10136Y-6978D01*
X10008Y-6935D01*
X9922D01*
X10895D02*
X10466Y-7535D01*
X11109D01*
X10895Y-6935D02*
Y-7835D01*
X11268Y-7107D02*
X11353Y-7064D01*
X11482Y-6935D01*
Y-7835D01*
X11970Y-7749D02*
X11927Y-7792D01*
X11970Y-7835D01*
X12013Y-7792D01*
X11970Y-7749D01*
X12467Y-6935D02*
X12339Y-6978D01*
X12253Y-7107D01*
X12210Y-7321D01*
Y-7449D01*
X12253Y-7664D01*
X12339Y-7792D01*
X12467Y-7835D01*
X12553D01*
X12682Y-7792D01*
X12767Y-7664D01*
X12810Y-7449D01*
Y-7321D01*
X12767Y-7107D01*
X12682Y-6978D01*
X12553Y-6935D01*
X12467D01*
X13269D02*
X13140Y-6978D01*
X13054Y-7107D01*
X13011Y-7321D01*
Y-7449D01*
X13054Y-7664D01*
X13140Y-7792D01*
X13269Y-7835D01*
X13354D01*
X13483Y-7792D01*
X13568Y-7664D01*
X13611Y-7449D01*
Y-7321D01*
X13568Y-7107D01*
X13483Y-6978D01*
X13354Y-6935D01*
X13269D01*
X13813Y-8135D02*
X14498D01*
X14871Y-6935D02*
X14743Y-6978D01*
X14657Y-7107D01*
X14614Y-7321D01*
Y-7449D01*
X14657Y-7664D01*
X14743Y-7792D01*
X14871Y-7835D01*
X14957D01*
X15085Y-7792D01*
X15171Y-7664D01*
X15214Y-7449D01*
Y-7321D01*
X15171Y-7107D01*
X15085Y-6978D01*
X14957Y-6935D01*
X14871D01*
X15415Y-7449D02*
X16186D01*
X17138Y-7835D02*
X16795Y-6935D01*
X16452Y-7835D01*
X16581Y-7535D02*
X17009D01*
X17391Y-7749D02*
X17348Y-7792D01*
X17391Y-7835D01*
X17433Y-7792D01*
X17391Y-7749D01*
X17716Y-6935D02*
X18187D01*
X17930Y-7278D01*
X18059D01*
X18145Y-7321D01*
X18187Y-7364D01*
X18230Y-7492D01*
Y-7578D01*
X18187Y-7706D01*
X18102Y-7792D01*
X17973Y-7835D01*
X17845D01*
X17716Y-7792D01*
X17673Y-7749D01*
X17630Y-7664D01*
X18603Y-7021D02*
Y-7878D01*
X18646Y-7021D02*
Y-7878D01*
X18432Y-7021D02*
X18646D01*
X18432Y-7878D02*
X18646D01*
X20159Y-7149D02*
X20116Y-7064D01*
X20030Y-6978D01*
X19944Y-6935D01*
X19773D01*
X19687Y-6978D01*
X19601Y-7064D01*
X19559Y-7149D01*
X19516Y-7278D01*
Y-7492D01*
X19559Y-7621D01*
X19601Y-7706D01*
X19687Y-7792D01*
X19773Y-7835D01*
X19944D01*
X20030Y-7792D01*
X20116Y-7706D01*
X20159Y-7621D01*
X20411Y-6935D02*
Y-7835D01*
Y-6935D02*
X20797D01*
X20925Y-6978D01*
X20968Y-7021D01*
X21011Y-7107D01*
Y-7192D01*
X20968Y-7278D01*
X20925Y-7321D01*
X20797Y-7364D01*
X20411D02*
X20797D01*
X20925Y-7407D01*
X20968Y-7449D01*
X21011Y-7535D01*
Y-7664D01*
X20968Y-7749D01*
X20925Y-7792D01*
X20797Y-7835D01*
X20411D01*
X21812Y-7064D02*
X21727Y-6978D01*
X21598Y-6935D01*
X21427D01*
X21298Y-6978D01*
X21213Y-7064D01*
Y-7149D01*
X21255Y-7235D01*
X21298Y-7278D01*
X21384Y-7321D01*
X21641Y-7407D01*
X21727Y-7449D01*
X21770Y-7492D01*
X21812Y-7578D01*
Y-7706D01*
X21727Y-7792D01*
X21598Y-7835D01*
X21427D01*
X21298Y-7792D01*
X21213Y-7706D01*
X22057Y-7149D02*
Y-7107D01*
X22100Y-7021D01*
X22142Y-6978D01*
X22228Y-6935D01*
X22399D01*
X22485Y-6978D01*
X22528Y-7021D01*
X22571Y-7107D01*
Y-7192D01*
X22528Y-7278D01*
X22442Y-7407D01*
X22014Y-7835D01*
X22614D01*
X22815Y-7107D02*
X22901Y-7064D01*
X23029Y-6935D01*
Y-7835D01*
X23732Y-6935D02*
X23603Y-6978D01*
X23518Y-7107D01*
X23475Y-7321D01*
Y-7449D01*
X23518Y-7664D01*
X23603Y-7792D01*
X23732Y-7835D01*
X23818D01*
X23946Y-7792D01*
X24032Y-7664D01*
X24075Y-7449D01*
Y-7321D01*
X24032Y-7107D01*
X23946Y-6978D01*
X23818Y-6935D01*
X23732D01*
X24533D02*
X24405Y-6978D01*
X24319Y-7107D01*
X24276Y-7321D01*
Y-7449D01*
X24319Y-7664D01*
X24405Y-7792D01*
X24533Y-7835D01*
X24619D01*
X24748Y-7792D01*
X24833Y-7664D01*
X24876Y-7449D01*
Y-7321D01*
X24833Y-7107D01*
X24748Y-6978D01*
X24619Y-6935D01*
X24533D01*
X25634D02*
X25077D01*
Y-7835D01*
X25634D01*
X25077Y-7364D02*
X25420D01*
X26341Y-6935D02*
X25784D01*
Y-7835D01*
X26341D01*
X25784Y-7364D02*
X26127D01*
X26534Y-7749D02*
X26491Y-7792D01*
X26534Y-7835D01*
X26577Y-7792D01*
X26534Y-7749D01*
X27417Y-7149D02*
X27374Y-7064D01*
X27288Y-6978D01*
X27203Y-6935D01*
X27031D01*
X26946Y-6978D01*
X26860Y-7064D01*
X26817Y-7149D01*
X26774Y-7278D01*
Y-7492D01*
X26817Y-7621D01*
X26860Y-7706D01*
X26946Y-7792D01*
X27031Y-7835D01*
X27203D01*
X27288Y-7792D01*
X27374Y-7706D01*
X27417Y-7621D01*
Y-7492D01*
X27203D02*
X27417D01*
X27623Y-6935D02*
Y-7835D01*
Y-6935D02*
X28008D01*
X28137Y-6978D01*
X28180Y-7021D01*
X28222Y-7107D01*
Y-7192D01*
X28180Y-7278D01*
X28137Y-7321D01*
X28008Y-7364D01*
X27623D02*
X28008D01*
X28137Y-7407D01*
X28180Y-7449D01*
X28222Y-7535D01*
Y-7664D01*
X28180Y-7749D01*
X28137Y-7792D01*
X28008Y-7835D01*
X27623D01*
X28424Y-6935D02*
Y-7835D01*
X28938D01*
X-4462Y-7407D02*
X-4077D01*
X-3948Y-7364D01*
X-3905Y-7321D01*
X-3863Y-7235D01*
Y-7107D01*
X-3905Y-7021D01*
X-3948Y-6978D01*
X-4077Y-6935D01*
X-4462D01*
Y-7835D01*
X-3661Y-6935D02*
Y-7835D01*
X-3147D01*
X-2791Y-6935D02*
X-2877Y-6978D01*
X-2963Y-7064D01*
X-3006Y-7149D01*
X-3048Y-7278D01*
Y-7492D01*
X-3006Y-7621D01*
X-2963Y-7706D01*
X-2877Y-7792D01*
X-2791Y-7835D01*
X-2620D01*
X-2534Y-7792D01*
X-2449Y-7706D01*
X-2406Y-7621D01*
X-2363Y-7492D01*
Y-7278D01*
X-2406Y-7149D01*
X-2449Y-7064D01*
X-2534Y-6978D01*
X-2620Y-6935D01*
X-2791D01*
X-1853D02*
Y-7835D01*
X-2153Y-6935D02*
X-1553D01*
X-739D02*
Y-7835D01*
Y-6935D02*
X-182D01*
X-739Y-7364D02*
X-396D01*
X-79Y-6935D02*
Y-7835D01*
X109Y-6935D02*
Y-7835D01*
X624D01*
X1279Y-6935D02*
X722D01*
Y-7835D01*
X1279D01*
X722Y-7364D02*
X1065D01*
X1472Y-7235D02*
X1429Y-7278D01*
X1472Y-7321D01*
X1515Y-7278D01*
X1472Y-7235D01*
Y-7749D02*
X1429Y-7792D01*
X1472Y-7835D01*
X1515Y-7792D01*
X1472Y-7749D01*
X-4462Y-4135D02*
Y-5035D01*
X-3948D01*
X-3164D02*
X-3507Y-4135D01*
X-3850Y-5035D01*
X-3721Y-4735D02*
X-3293D01*
X-2954Y-4135D02*
X-2611Y-4564D01*
Y-5035D01*
X-2269Y-4135D02*
X-2611Y-4564D01*
X-1596Y-4135D02*
X-2153D01*
Y-5035D01*
X-1596D01*
X-2153Y-4564D02*
X-1810D01*
X-1446Y-4135D02*
Y-5035D01*
Y-4135D02*
X-1060D01*
X-932Y-4178D01*
X-889Y-4221D01*
X-846Y-4307D01*
Y-4392D01*
X-889Y-4478D01*
X-932Y-4521D01*
X-1060Y-4564D01*
X-1446D01*
X-1146D02*
X-846Y-5035D01*
X62Y-4135D02*
Y-5035D01*
Y-4135D02*
X662Y-5035D01*
Y-4135D02*
Y-5035D01*
X1596D02*
X1253Y-4135D01*
X911Y-5035D01*
X1039Y-4735D02*
X1468D01*
X1806Y-4135D02*
Y-5035D01*
Y-4135D02*
X2149Y-5035D01*
X2492Y-4135D02*
X2149Y-5035D01*
X2492Y-4135D02*
Y-5035D01*
X3306Y-4135D02*
X2749D01*
Y-5035D01*
X3306D01*
X2749Y-4564D02*
X3092D01*
X3499Y-4435D02*
X3456Y-4478D01*
X3499Y-4521D01*
X3542Y-4478D01*
X3499Y-4435D01*
Y-4949D02*
X3456Y-4992D01*
X3499Y-5035D01*
X3542Y-4992D01*
X3499Y-4949D01*
X4528Y-4135D02*
Y-5035D01*
Y-4135D02*
X4913D01*
X5042Y-4178D01*
X5085Y-4221D01*
X5127Y-4307D01*
Y-4392D01*
X5085Y-4478D01*
X5042Y-4521D01*
X4913Y-4564D01*
X4528D02*
X4913D01*
X5042Y-4607D01*
X5085Y-4649D01*
X5127Y-4735D01*
Y-4864D01*
X5085Y-4949D01*
X5042Y-4992D01*
X4913Y-5035D01*
X4528D01*
X5543Y-4435D02*
X5457Y-4478D01*
X5372Y-4564D01*
X5329Y-4692D01*
Y-4778D01*
X5372Y-4906D01*
X5457Y-4992D01*
X5543Y-5035D01*
X5672D01*
X5757Y-4992D01*
X5843Y-4906D01*
X5886Y-4778D01*
Y-4692D01*
X5843Y-4564D01*
X5757Y-4478D01*
X5672Y-4435D01*
X5543D01*
X6211Y-4135D02*
Y-4864D01*
X6254Y-4992D01*
X6340Y-5035D01*
X6426D01*
X6083Y-4435D02*
X6383D01*
X6683Y-4135D02*
Y-4864D01*
X6726Y-4992D01*
X6811Y-5035D01*
X6897D01*
X6554Y-4435D02*
X6854D01*
X7240D02*
X7154Y-4478D01*
X7068Y-4564D01*
X7026Y-4692D01*
Y-4778D01*
X7068Y-4906D01*
X7154Y-4992D01*
X7240Y-5035D01*
X7368D01*
X7454Y-4992D01*
X7540Y-4906D01*
X7583Y-4778D01*
Y-4692D01*
X7540Y-4564D01*
X7454Y-4478D01*
X7368Y-4435D01*
X7240D01*
X7780D02*
Y-5035D01*
Y-4607D02*
X7908Y-4478D01*
X7994Y-4435D01*
X8123D01*
X8208Y-4478D01*
X8251Y-4607D01*
Y-5035D01*
Y-4607D02*
X8380Y-4478D01*
X8465Y-4435D01*
X8594D01*
X8680Y-4478D01*
X8722Y-4607D01*
Y-5035D01*
X9712Y-4135D02*
Y-5035D01*
X10226D01*
X10839Y-4435D02*
Y-5035D01*
Y-4564D02*
X10753Y-4478D01*
X10668Y-4435D01*
X10539D01*
X10453Y-4478D01*
X10368Y-4564D01*
X10325Y-4692D01*
Y-4778D01*
X10368Y-4906D01*
X10453Y-4992D01*
X10539Y-5035D01*
X10668D01*
X10753Y-4992D01*
X10839Y-4906D01*
X11122Y-4435D02*
X11379Y-5035D01*
X11636Y-4435D02*
X11379Y-5035D01*
X11293Y-5206D01*
X11208Y-5292D01*
X11122Y-5335D01*
X11079D01*
X11786Y-4692D02*
X12300D01*
Y-4607D01*
X12257Y-4521D01*
X12214Y-4478D01*
X12129Y-4435D01*
X12000D01*
X11915Y-4478D01*
X11829Y-4564D01*
X11786Y-4692D01*
Y-4778D01*
X11829Y-4906D01*
X11915Y-4992D01*
X12000Y-5035D01*
X12129D01*
X12214Y-4992D01*
X12300Y-4906D01*
X12493Y-4435D02*
Y-5035D01*
Y-4692D02*
X12536Y-4564D01*
X12622Y-4478D01*
X12707Y-4435D01*
X12836D01*
D11*
X17150Y22400D02*
X17620Y22870D01*
X17150Y18010D02*
Y18280D01*
Y22400D01*
X4530Y19020D02*
X4630D01*
X4190D02*
X4530D01*
X4005Y22145D02*
X5100D01*
X3735D02*
X4005D01*
X4010Y22150D01*
X4005Y27045D02*
X5100Y28140D01*
X3780Y26820D02*
X4005Y27045D01*
X3380Y21220D02*
Y27390D01*
Y21220D02*
X3740Y20860D01*
X2400Y28370D02*
X3380Y27390D01*
X3410Y18380D02*
Y19565D01*
X2400Y20575D02*
X3410Y19565D01*
X5100Y28140D02*
Y28605D01*
X2400Y29929D02*
X2434Y29895D01*
X5100D01*
X17835Y16985D02*
X18050Y17200D01*
X17835Y16471D02*
Y16985D01*
X7320Y16260D02*
Y18240D01*
X7130Y18430D02*
X7320Y18240D01*
X7130Y18430D02*
Y18900D01*
Y19210D01*
X23260Y15460D02*
X24410D01*
X23106Y13136D02*
Y13700D01*
X23014Y13044D02*
X23106Y13136D01*
X23014Y12472D02*
Y13044D01*
X3960Y13790D02*
X6590D01*
X3411Y14339D02*
X3960Y13790D01*
X2400Y14339D02*
X3411D01*
X6590Y13790D02*
X7100Y13280D01*
Y13190D02*
Y13280D01*
X2400Y12780D02*
X2409Y12788D01*
X5450D01*
X4060Y11900D02*
X6650D01*
X6950Y12200D01*
X7080Y11700D02*
X7826D01*
X6680Y11300D02*
X7080Y11700D01*
X6680Y10650D02*
Y11300D01*
X12090Y5540D02*
X16280D01*
X10530Y3980D02*
X12090Y5540D01*
X9480Y3980D02*
X10530D01*
X8800Y3300D02*
X9480Y3980D01*
X8800Y1760D02*
Y3300D01*
Y1760D02*
X9280Y1280D01*
X16200D01*
X16640Y1720D01*
Y2660D01*
X17298Y3318D01*
X6710Y14810D02*
X7100Y14420D01*
X3740Y18570D02*
X7100Y15210D01*
X8420Y15580D02*
X8720Y15280D01*
X7100Y15210D02*
X7110Y15200D01*
X8170Y26122D02*
Y27050D01*
X8490Y27370D02*
X9020D01*
X8170Y27050D02*
X8490Y27370D01*
X18176Y15644D02*
X18682D01*
X17846Y15974D02*
X18176Y15644D01*
X17846Y15974D02*
Y16460D01*
X17835Y16471D02*
X17846Y16460D01*
X18682Y15644D02*
X18796Y15530D01*
X16800Y27240D02*
X17060D01*
X16620Y27420D02*
X16800Y27240D01*
X16620Y27420D02*
Y27896D01*
X17060Y27240D02*
X17440Y26860D01*
X8170Y26122D02*
X8734D01*
X9500Y35135D02*
Y35670D01*
X7870Y20500D02*
Y20800D01*
X21290Y32297D02*
Y40191D01*
Y32297D02*
X21850Y31737D01*
Y30565D02*
Y31737D01*
Y30565D02*
X22840Y29575D01*
Y26490D02*
Y29575D01*
X22670Y26320D02*
X22840Y26490D01*
X21120Y26320D02*
X22670D01*
X20930Y26130D02*
X21120Y26320D01*
X20890Y26130D02*
X20930D01*
X18796Y15530D02*
X18800D01*
X19480Y12990D02*
Y14850D01*
X18800Y15530D02*
X19480Y14850D01*
X6228Y9659D02*
Y10198D01*
X6680Y10650D01*
X21100Y2550D02*
X22710Y4160D01*
X20280Y2550D02*
X21100D01*
X18460Y730D02*
X20280Y2550D01*
X24080Y4800D02*
Y12610D01*
X23440Y4160D02*
X24080Y4800D01*
X22710Y4160D02*
X23440D01*
X24080Y12610D02*
X24720Y13250D01*
X21160Y40321D02*
Y41300D01*
X20690Y41770D02*
X21160Y41300D01*
X20140Y41770D02*
X20690D01*
X21160Y40321D02*
X21290Y40191D01*
X19200Y41770D02*
X20140D01*
X20800Y25950D02*
Y26040D01*
Y23050D02*
Y25950D01*
X20700Y26050D02*
X20800Y25950D01*
X20700Y22950D02*
X20800Y23050D01*
X18160Y26050D02*
X20700D01*
X19480Y4200D02*
Y9880D01*
Y12990D01*
X18598Y3318D02*
X19480Y4200D01*
X18041Y3318D02*
X18598D01*
X17700Y26050D02*
X18160D01*
X17440Y26310D02*
X17700Y26050D01*
X17620Y22870D02*
X17700Y22950D01*
X20700D01*
X17440Y26310D02*
Y26860D01*
X17298Y3318D02*
X18041D01*
X9874Y11276D02*
Y11700D01*
X24720Y13250D02*
Y15150D01*
X24410Y15460D02*
X24720Y15150D01*
X23106Y15306D02*
X23260Y15460D01*
X23106Y14780D02*
Y15306D01*
Y13700D02*
Y14780D01*
X9500Y35670D02*
X9754Y35924D01*
Y36470D01*
Y37510D01*
X10726D02*
X10736Y37500D01*
X10240Y37510D02*
Y38050D01*
X11080Y38890D01*
Y40010D01*
X10240Y37510D02*
X10726D01*
X9754D02*
X10240D01*
X11080Y40010D02*
Y40410D01*
X11320Y40650D01*
X17000D01*
X17254Y40396D01*
Y39940D02*
Y40396D01*
X7250Y14700D02*
X7826D01*
X7100Y14850D02*
X7250Y14700D01*
X7100Y14850D02*
Y15210D01*
X7250Y13700D02*
X7826D01*
X7100Y13850D02*
X7250Y13700D01*
X7110Y15200D02*
X7826D01*
X7250Y12700D02*
X7826D01*
X7100Y12850D02*
X7250Y12700D01*
X7100Y14200D02*
X7826D01*
X7100Y13850D02*
Y14200D01*
Y14420D01*
X7110Y13200D02*
X7826D01*
X7100Y13190D02*
X7110Y13200D01*
X7100Y12850D02*
Y13190D01*
X3380Y11220D02*
X4060Y11900D01*
X6950Y12200D02*
X7826D01*
X9480Y5864D02*
Y6420D01*
X2400Y6528D02*
X3512D01*
X5480Y4560D01*
X5780D02*
X5791Y4549D01*
X5480Y4560D02*
X5780D01*
X6040Y4570D02*
Y5500D01*
Y4570D02*
X6050Y4560D01*
X5780D02*
X6050D01*
X7670D01*
X8800D01*
X9874Y11700D02*
X10600D01*
X20800Y26040D02*
X20890Y26130D01*
X8720Y4640D02*
X8800Y4560D01*
X9330D01*
X9480Y4710D01*
Y5116D01*
X7671Y2958D02*
Y4559D01*
X7670Y4560D02*
X7671Y4559D01*
Y2029D02*
Y2958D01*
Y2029D02*
X8970Y730D01*
X18460D01*
X11527Y5703D02*
Y6332D01*
X10858D02*
X11527D01*
Y6747D01*
X8732Y8128D02*
X11527D01*
X8720Y8140D02*
X8732Y8128D01*
X8720Y4640D02*
Y8140D01*
Y10950D01*
X14652Y6546D02*
X16090D01*
X13968Y7230D02*
X14652Y6546D01*
X16280Y5540D02*
X16640Y5900D01*
Y6546D01*
X16090D02*
X16640D01*
X17180D01*
X8720Y10950D02*
Y15280D01*
X9020Y27370D02*
X10210Y28560D01*
X9500Y34730D02*
Y35135D01*
Y34730D02*
X10210Y34020D01*
X7320Y16260D02*
X8000Y15580D01*
X8420D01*
X2400Y11220D02*
X3380D01*
X6350Y29449D02*
Y29830D01*
X6210Y29970D02*
X6350Y29830D01*
X5910Y29970D02*
X6210D01*
X5835Y29895D02*
X5910Y29970D01*
X5100Y29895D02*
X5835D01*
X5980Y28280D02*
Y28649D01*
X6710Y14810D02*
Y15080D01*
X3410Y18380D02*
X6710Y15080D01*
X8170Y24938D02*
Y26122D01*
X7870Y20800D02*
Y24638D01*
X8170Y24938D01*
X5910Y20480D02*
Y20849D01*
X6280Y21649D02*
Y22000D01*
X6135Y22145D02*
X6280Y22000D01*
X5100Y22145D02*
X6135D01*
X3740Y18570D02*
Y20860D01*
X5100Y19490D02*
Y20855D01*
X4630Y19020D02*
X5100Y19490D01*
X10210Y28560D02*
Y34020D01*
D12*
X2400Y8087D02*
Y9180D01*
X1317Y8087D02*
X2400D01*
X3447D01*
D13*
X2400Y33047D02*
D03*
Y25252D02*
D03*
Y39100D02*
D03*
Y15898D02*
D03*
Y8087D02*
D03*
D14*
Y31488D02*
D03*
Y29929D02*
D03*
Y28370D02*
D03*
Y26811D02*
D03*
Y23693D02*
D03*
Y22134D02*
D03*
Y20575D02*
D03*
Y19016D02*
D03*
Y37541D02*
D03*
Y14339D02*
D03*
Y12780D02*
D03*
Y11220D02*
D03*
Y4969D02*
D03*
Y6528D02*
D03*
D15*
X8734Y26622D02*
D03*
D16*
Y26122D02*
D03*
Y25622D02*
D03*
Y25122D02*
D03*
Y24622D02*
D03*
Y24122D02*
D03*
Y23622D02*
D03*
Y23122D02*
D03*
Y22622D02*
D03*
Y22122D02*
D03*
Y21622D02*
D03*
Y21122D02*
D03*
Y20622D02*
D03*
Y20122D02*
D03*
Y19622D02*
D03*
X9500Y35135D02*
D03*
X10000D02*
D03*
X10500D02*
D03*
X11000D02*
D03*
X11500D02*
D03*
X12000D02*
D03*
X12500D02*
D03*
X13000D02*
D03*
X13500D02*
D03*
X14000D02*
D03*
X14500D02*
D03*
X15000D02*
D03*
X15500D02*
D03*
X16000D02*
D03*
D17*
X20147Y29263D02*
D03*
X8730D02*
D03*
X20147Y16980D02*
D03*
X8730D02*
D03*
X6358Y46549D02*
D03*
Y35131D02*
D03*
X18642Y46549D02*
D03*
Y35131D02*
D03*
D18*
X9000Y35135D02*
D03*
D19*
X23688Y16699D02*
D03*
X20788Y5569D02*
D03*
X15538Y24239D02*
D03*
X6228Y9659D02*
D03*
X7670Y4560D02*
D03*
Y5560D02*
D03*
X2400Y43051D02*
D03*
X5561Y2958D02*
D03*
X7671D02*
D03*
X18041Y3318D02*
D03*
D20*
X7900Y8930D02*
D03*
X9900D02*
D03*
X15790Y49180D02*
D03*
X14790D02*
D03*
X13790D02*
D03*
X10500D02*
D03*
X9500D02*
D03*
X8500D02*
D03*
D21*
X16790D02*
D03*
X11500D02*
D03*
D22*
X2400Y44051D02*
D03*
D23*
X11080Y40010D02*
D03*
D24*
X12080D02*
D03*
X13080D02*
D03*
D25*
X23120Y49370D02*
D03*
Y1880D02*
D03*
X1880D02*
D03*
Y49370D02*
D03*
D26*
X23228Y9843D02*
D03*
D27*
Y8858D02*
D03*
Y7874D02*
D03*
Y6890D02*
D03*
Y5906D02*
D03*
D28*
X3540Y12120D02*
D03*
X3560Y13460D02*
D03*
X17150Y18280D02*
D03*
Y18010D02*
D03*
X4530Y19020D02*
D03*
X4005Y22145D02*
D03*
Y27045D02*
D03*
X4190Y19020D02*
D03*
X3735Y22145D02*
D03*
X3718Y25252D02*
D03*
X3780Y26820D02*
D03*
X15230Y15790D02*
D03*
X17835Y16985D02*
D03*
X18050Y17200D02*
D03*
X7130Y19210D02*
D03*
Y18900D02*
D03*
X7540Y18530D02*
D03*
X7660Y19870D02*
D03*
X10350Y18110D02*
D03*
X10250Y18400D02*
D03*
X13280Y16140D02*
D03*
X11050Y16120D02*
D03*
X11410Y15900D02*
D03*
X13080Y16360D02*
D03*
X11200D02*
D03*
X11020Y16580D02*
D03*
X11410Y15630D02*
D03*
X11400Y15360D02*
D03*
X11430Y15090D02*
D03*
X13250Y16580D02*
D03*
X12810Y14350D02*
D03*
X13070Y16800D02*
D03*
X14170Y14360D02*
D03*
X14790Y16700D02*
D03*
X14820Y17710D02*
D03*
X14210Y16710D02*
D03*
X14480D02*
D03*
X15530Y14360D02*
D03*
X20240Y20330D02*
D03*
X20320Y20060D02*
D03*
X20390Y19540D02*
D03*
X18930Y20050D02*
D03*
Y20320D02*
D03*
X18650Y19800D02*
D03*
X20390Y20840D02*
D03*
X19000Y16460D02*
D03*
X18270Y15030D02*
D03*
X15624Y29196D02*
D03*
X14876Y27004D02*
D03*
Y29196D02*
D03*
X17150Y29180D02*
D03*
X17670Y29130D02*
D03*
X9590Y23622D02*
D03*
X6650Y26770D02*
D03*
X4850Y26890D02*
D03*
X7940Y32770D02*
D03*
X7770Y34310D02*
D03*
X6230Y33220D02*
D03*
X9550Y33330D02*
D03*
X9570Y30730D02*
D03*
X5140Y30660D02*
D03*
X3990Y21360D02*
D03*
X1460Y21780D02*
D03*
X12170Y27050D02*
D03*
X22440Y29210D02*
D03*
X20570Y31770D02*
D03*
X20430Y33070D02*
D03*
X19940Y34380D02*
D03*
X17950Y33610D02*
D03*
X14990Y32730D02*
D03*
X16040Y33680D02*
D03*
X24440Y47830D02*
D03*
X24480Y34530D02*
D03*
X7870Y20800D02*
D03*
X22800Y31100D02*
D03*
X21400Y31400D02*
D03*
X22800D02*
D03*
X21400Y31100D02*
D03*
X22254Y27684D02*
D03*
Y26636D02*
D03*
X22350Y15700D02*
D03*
X20400Y15250D02*
D03*
X20660Y15420D02*
D03*
X21780Y16150D02*
D03*
X21389Y14960D02*
D03*
X21380Y14640D02*
D03*
X12750Y17280D02*
D03*
X12550Y17500D02*
D03*
X21060Y6430D02*
D03*
X21090Y3100D02*
D03*
X20700Y8350D02*
D03*
X21090Y8740D02*
D03*
X21170Y9110D02*
D03*
X4040Y7000D02*
D03*
Y7580D02*
D03*
Y8100D02*
D03*
Y8590D02*
D03*
X23180Y24500D02*
D03*
X20130Y18500D02*
D03*
X11300Y31850D02*
D03*
X14270Y26970D02*
D03*
X14040Y25790D02*
D03*
X18130Y43690D02*
D03*
X10630Y36820D02*
D03*
X1380Y24270D02*
D03*
X1390Y27550D02*
D03*
X1270Y17540D02*
D03*
X1400Y13560D02*
D03*
X3890Y10680D02*
D03*
X7160Y10390D02*
D03*
X16840Y7820D02*
D03*
X6570Y1580D02*
D03*
X18170Y13090D02*
D03*
X17210Y14150D02*
D03*
X15840D02*
D03*
X14480D02*
D03*
X13110D02*
D03*
X15960Y11000D02*
D03*
X15930Y10390D02*
D03*
X15950Y12490D02*
D03*
X14770Y11330D02*
D03*
X14800Y12460D02*
D03*
X14810Y10360D02*
D03*
X20010Y9320D02*
D03*
X20020Y10560D02*
D03*
Y11530D02*
D03*
X20010Y12480D02*
D03*
X19090Y10380D02*
D03*
X20020Y13580D02*
D03*
X7150Y15810D02*
D03*
X7750Y44540D02*
D03*
X4330Y46340D02*
D03*
X4350Y43570D02*
D03*
X4020Y41390D02*
D03*
X2350Y41180D02*
D03*
X9690Y41640D02*
D03*
X7210Y42760D02*
D03*
X8790Y39070D02*
D03*
X4260Y38850D02*
D03*
X7510Y37920D02*
D03*
X8620Y42100D02*
D03*
X9040Y42540D02*
D03*
X9530Y42830D02*
D03*
X14310Y9120D02*
D03*
X19960Y5750D02*
D03*
X23570Y19180D02*
D03*
X22080D02*
D03*
X23570Y19450D02*
D03*
X22050D02*
D03*
X18410Y41940D02*
D03*
X20650Y40450D02*
D03*
X18850Y41790D02*
D03*
X20875Y41175D02*
D03*
X21451Y40449D02*
D03*
X21784Y41084D02*
D03*
X22040Y41590D02*
D03*
X22190Y41350D02*
D03*
X23570Y20280D02*
D03*
X22450D02*
D03*
X23570Y20550D02*
D03*
X22450D02*
D03*
X22260Y38520D02*
D03*
X20850Y38530D02*
D03*
X20970Y12990D02*
D03*
X19480D02*
D03*
X21650Y45166D02*
D03*
X19140Y38540D02*
D03*
X17900D02*
D03*
X17251Y31960D02*
D03*
X16810Y31790D02*
D03*
X9820Y6430D02*
D03*
X8720Y10950D02*
D03*
X9300D02*
D03*
X11380Y13140D02*
D03*
X11920D02*
D03*
X9874Y11276D02*
D03*
X17470Y18740D02*
D03*
X17450Y19040D02*
D03*
X16250Y18800D02*
D03*
Y18500D02*
D03*
X10840Y16800D02*
D03*
X7870Y20500D02*
D03*
X18594Y15914D02*
D03*
Y17014D02*
D03*
X18590Y21650D02*
D03*
X16772Y26768D02*
D03*
X16398Y27098D02*
D03*
X17050Y26850D02*
D03*
X17450Y27250D02*
D03*
X17700Y19860D02*
D03*
X17970Y21700D02*
D03*
X14970Y25860D02*
D03*
X6280Y41790D02*
D03*
X13180Y27140D02*
D03*
X13170Y26010D02*
D03*
X13400Y26970D02*
D03*
X13380Y25790D02*
D03*
X14316Y9676D02*
D03*
X13566D02*
D03*
X22000Y21000D02*
D03*
X22100Y23220D02*
D03*
X20530Y27290D02*
D03*
X15310Y26990D02*
D03*
Y25850D02*
D03*
X17970Y27290D02*
D03*
X17260Y11640D02*
D03*
X16210D02*
D03*
X13010Y13340D02*
D03*
X13610D02*
D03*
X14770Y13180D02*
D03*
X15980Y13200D02*
D03*
X24390Y13700D02*
D03*
Y14780D02*
D03*
X22000Y4580D02*
D03*
X22640Y11050D02*
D03*
X18880Y17970D02*
D03*
X11330Y14450D02*
D03*
X11250Y13670D02*
D03*
X16820Y15910D02*
D03*
X18740Y4240D02*
D03*
X8210Y7720D02*
D03*
X19710Y15470D02*
D03*
X420Y3880D02*
D03*
X22880Y15930D02*
D03*
X21980Y15340D02*
D03*
X10600Y11270D02*
D03*
X4130Y33630D02*
D03*
X2120Y46410D02*
D03*
X9760Y43660D02*
D03*
X7200Y43710D02*
D03*
X5010Y18720D02*
D03*
X6440Y22840D02*
D03*
X3940Y28560D02*
D03*
X9470Y45490D02*
D03*
X7950Y46280D02*
D03*
X4050Y31620D02*
D03*
X4000Y23920D02*
D03*
X12650Y33450D02*
D03*
X10820Y48080D02*
D03*
X13870Y45560D02*
D03*
X11770Y34330D02*
D03*
X3360Y47650D02*
D03*
X8180Y48080D02*
D03*
X13200Y46940D02*
D03*
X16220Y46090D02*
D03*
X10740Y45970D02*
D03*
X14940Y41570D02*
D03*
X16540Y43730D02*
D03*
X17720Y47950D02*
D03*
X16320Y47660D02*
D03*
X20330Y46270D02*
D03*
X10420Y15880D02*
D03*
X20870Y43460D02*
D03*
X10100Y19140D02*
D03*
X16470Y41100D02*
D03*
X17300Y37430D02*
D03*
X14550Y36660D02*
D03*
X11570Y36400D02*
D03*
X19250Y39090D02*
D03*
X13660Y29770D02*
D03*
X9610Y38460D02*
D03*
X6010Y14520D02*
D03*
X12220Y45530D02*
D03*
X10090Y46940D02*
D03*
X13340Y36490D02*
D03*
X16210Y31950D02*
D03*
X12880Y30180D02*
D03*
X12840Y28550D02*
D03*
X17860Y39410D02*
D03*
X20140Y40950D02*
D03*
X18320Y31790D02*
D03*
X19480Y36440D02*
D03*
X20740Y35060D02*
D03*
X21220Y48660D02*
D03*
X20550Y39000D02*
D03*
X19220Y38110D02*
D03*
X19250Y40950D02*
D03*
X14880Y40060D02*
D03*
X11870Y41630D02*
D03*
X14910Y30970D02*
D03*
X11330Y1750D02*
D03*
X23660Y18670D02*
D03*
X17510Y7820D02*
D03*
X20120Y7170D02*
D03*
X23630Y11120D02*
D03*
X8230Y3750D02*
D03*
X20050Y8130D02*
D03*
X14890Y9080D02*
D03*
X490Y31800D02*
D03*
X500Y30370D02*
D03*
Y28630D02*
D03*
X12140Y17990D02*
D03*
X490Y34100D02*
D03*
X3570Y17300D02*
D03*
X6340Y17490D02*
D03*
X7230Y25950D02*
D03*
X430Y37200D02*
D03*
X480Y39160D02*
D03*
X15380Y8880D02*
D03*
X12100Y19470D02*
D03*
X24590Y6675D02*
D03*
X24570Y475D02*
D03*
X10040Y350D02*
D03*
X7120Y330D02*
D03*
X18670Y390D02*
D03*
X15930Y20300D02*
D03*
X23550Y12970D02*
D03*
X8330Y2240D02*
D03*
X20020Y4560D02*
D03*
X8430Y370D02*
D03*
X3830Y4920D02*
D03*
X17170Y5700D02*
D03*
X9100Y6430D02*
D03*
X16710Y3570D02*
D03*
X11300Y9050D02*
D03*
X7440Y8230D02*
D03*
X4990Y6720D02*
D03*
X13670Y1780D02*
D03*
X11540Y10740D02*
D03*
X19260Y2970D02*
D03*
X19250Y24500D02*
D03*
X24520Y16035D02*
D03*
Y18035D02*
D03*
Y20035D02*
D03*
Y22035D02*
D03*
Y24035D02*
D03*
X21180Y19590D02*
D03*
X21670Y17570D02*
D03*
X9790Y16020D02*
D03*
X24520Y32035D02*
D03*
X17040Y30980D02*
D03*
X24400Y50840D02*
D03*
X12540Y49690D02*
D03*
X20400Y50840D02*
D03*
X18400D02*
D03*
X16400D02*
D03*
X14400D02*
D03*
X12400D02*
D03*
X10280D02*
D03*
X8400D02*
D03*
X6400D02*
D03*
X4400D02*
D03*
X5040Y47770D02*
D03*
X400Y50840D02*
D03*
X13250Y43840D02*
D03*
X10800Y43820D02*
D03*
X400Y47760D02*
D03*
X490Y46390D02*
D03*
X500Y44820D02*
D03*
Y42820D02*
D03*
X12100Y20930D02*
D03*
Y20190D02*
D03*
X12830Y17840D02*
D03*
X13450Y17630D02*
D03*
X4750Y4010D02*
D03*
X24600Y9945D02*
D03*
X1420Y19790D02*
D03*
X24580Y3645D02*
D03*
X10830Y12100D02*
D03*
X5540Y330D02*
D03*
X10520Y7340D02*
D03*
X16450Y400D02*
D03*
X13670D02*
D03*
X20380Y460D02*
D03*
X21600Y470D02*
D03*
X3930Y330D02*
D03*
X440Y420D02*
D03*
X21940Y18510D02*
D03*
X12879Y20039D02*
D03*
X14030Y17620D02*
D03*
X10400Y5670D02*
D03*
X6640Y3960D02*
D03*
X12100Y21610D02*
D03*
X13680Y23090D02*
D03*
X12120Y18750D02*
D03*
X15670Y18220D02*
D03*
X15580Y17710D02*
D03*
X15730Y18900D02*
D03*
X15930Y19620D02*
D03*
X19060Y9260D02*
D03*
X7760Y11040D02*
D03*
X9180Y7560D02*
D03*
X15950Y8180D02*
D03*
X24610Y12450D02*
D03*
X10850Y10060D02*
D03*
X10200Y20800D02*
D03*
X17240Y16300D02*
D03*
X17560Y18390D02*
D03*
X4000Y15898D02*
D03*
X8320Y6580D02*
D03*
X7730Y36470D02*
D03*
X7060Y6680D02*
D03*
X16410Y7810D02*
D03*
X5150Y8850D02*
D03*
X9500Y10060D02*
D03*
X8140Y9940D02*
D03*
X13620Y20130D02*
D03*
X18070Y2000D02*
D03*
X13620Y21560D02*
D03*
X15760Y23140D02*
D03*
X15870Y22200D02*
D03*
X15930Y21620D02*
D03*
Y21000D02*
D03*
X500Y40690D02*
D03*
X22950Y46860D02*
D03*
X20630Y38180D02*
D03*
X8490Y36470D02*
D03*
Y37510D02*
D03*
X13740Y37500D02*
D03*
X14451Y38209D02*
D03*
X6300Y37590D02*
D03*
X6544Y39866D02*
D03*
X5240Y41790D02*
D03*
Y45340D02*
D03*
X6260Y30570D02*
D03*
X6800Y30210D02*
D03*
X6040Y8630D02*
D03*
X9480Y6420D02*
D03*
X16130Y2930D02*
D03*
X3860Y2980D02*
D03*
X6940Y7660D02*
D03*
X10430Y4620D02*
D03*
X17290Y1400D02*
D03*
X12520Y11360D02*
D03*
X17820Y11140D02*
D03*
X10600Y11700D02*
D03*
X16900Y15040D02*
D03*
X17560Y29800D02*
D03*
X13380Y30870D02*
D03*
X13340Y31890D02*
D03*
X13750Y30870D02*
D03*
X13640Y31720D02*
D03*
X13970Y31530D02*
D03*
X14050Y30850D02*
D03*
X14310Y31350D02*
D03*
X14350Y30850D02*
D03*
X15430Y30890D02*
D03*
X15720Y30900D02*
D03*
X17700Y31550D02*
D03*
X17300Y31300D02*
D03*
X16730Y32370D02*
D03*
X17720Y31890D02*
D03*
X18200Y30600D02*
D03*
X18780Y31180D02*
D03*
X18000Y30800D02*
D03*
X18570Y31370D02*
D03*
X17000Y9820D02*
D03*
X16440D02*
D03*
X17180Y7820D02*
D03*
X16090Y7810D02*
D03*
X11527Y5703D02*
D03*
X10858Y6332D02*
D03*
X11527Y6747D02*
D03*
X13500Y23950D02*
D03*
X9690Y23910D02*
D03*
X490Y35270D02*
D03*
X4680Y35400D02*
D03*
X6830Y37020D02*
D03*
X8630Y30760D02*
D03*
X8560Y27800D02*
D03*
X19190Y14630D02*
D03*
X19080Y30140D02*
D03*
X10090Y25170D02*
D03*
X12970Y25380D02*
D03*
X12830Y24440D02*
D03*
X12870Y25110D02*
D03*
X12850Y24170D02*
D03*
X10310Y24961D02*
D03*
X19170Y43600D02*
D03*
X19640Y27970D02*
D03*
X7820Y18030D02*
D03*
X18130Y44680D02*
D03*
X4820Y23100D02*
D03*
X5980Y28280D02*
D03*
X5390Y27700D02*
D03*
X7060Y23100D02*
D03*
X7240Y23720D02*
D03*
X5910Y20480D02*
D03*
X5380Y23720D02*
D03*
X6190Y18610D02*
D03*
X5250Y37600D02*
D03*
D29*
X4788Y49748D02*
G03*
X4788Y49748I-60J0D01*
G01*
X20536Y1579D02*
G03*
X20536Y1579I-60J0D01*
G01*
D30*
X20972Y49744D02*
G03*
X20972Y49744I-500J0D01*
G01*
X19972D02*
X20972D01*
X20472Y49244D02*
Y50244D01*
D31*
X5100Y20855D02*
D03*
Y22145D02*
D03*
Y28605D02*
D03*
Y29895D02*
D03*
D32*
X16398Y26768D02*
D03*
X16004D02*
D03*
D33*
X23854Y14780D02*
D03*
X23106D02*
D03*
X21346Y13930D02*
D03*
X22094D02*
D03*
X23854Y13700D02*
D03*
X23106D02*
D03*
X12884Y9880D02*
D03*
X12136D02*
D03*
X17716D02*
D03*
X18464D02*
D03*
X5226Y26050D02*
D03*
X5974D02*
D03*
X8106Y43080D02*
D03*
X8854D02*
D03*
X16506Y39940D02*
D03*
X17254D02*
D03*
X13204Y37500D02*
D03*
X12456D02*
D03*
X10736D02*
D03*
X11484D02*
D03*
X9006Y37510D02*
D03*
X9754D02*
D03*
X9006Y36470D02*
D03*
X9754D02*
D03*
X8044Y38870D02*
D03*
X7296D02*
D03*
X13736Y24510D02*
D03*
X14484D02*
D03*
X14876Y27580D02*
D03*
X15624D02*
D03*
X14876Y28650D02*
D03*
X15624D02*
D03*
X18594Y16460D02*
D03*
X17846D02*
D03*
X22254Y27160D02*
D03*
X21506D02*
D03*
X6674Y27700D02*
D03*
X5926D02*
D03*
D34*
X23014Y12472D02*
D03*
X22266D02*
D03*
Y11468D02*
D03*
X22640D02*
D03*
X23014D02*
D03*
D35*
X21350Y11446D02*
D03*
Y12194D02*
D03*
X21170Y10364D02*
D03*
Y9616D02*
D03*
X21090Y3596D02*
D03*
Y4344D02*
D03*
X12520Y11896D02*
D03*
Y12644D02*
D03*
X13920Y11144D02*
D03*
Y10396D02*
D03*
X16680Y11144D02*
D03*
Y10396D02*
D03*
X19180Y44914D02*
D03*
Y44166D02*
D03*
X19170Y43150D02*
D03*
Y42402D02*
D03*
X16090Y7294D02*
D03*
Y6546D02*
D03*
X17180Y7294D02*
D03*
Y6546D02*
D03*
X9480Y5864D02*
D03*
Y5116D02*
D03*
X6580Y25004D02*
D03*
Y24256D02*
D03*
X5380D02*
D03*
Y25004D02*
D03*
X5220Y32614D02*
D03*
Y31866D02*
D03*
X6260Y31116D02*
D03*
Y31864D02*
D03*
X7300D02*
D03*
Y31116D02*
D03*
X8160Y40614D02*
D03*
Y39866D02*
D03*
X9200Y40614D02*
D03*
Y39866D02*
D03*
X6300Y38116D02*
D03*
Y38864D02*
D03*
X16000Y36416D02*
D03*
Y37164D02*
D03*
X5240Y44814D02*
D03*
Y44066D02*
D03*
X6280Y44066D02*
D03*
Y44814D02*
D03*
Y43074D02*
D03*
Y42326D02*
D03*
X5240D02*
D03*
Y43074D02*
D03*
X5250Y38864D02*
D03*
Y38116D02*
D03*
X7120Y39866D02*
D03*
Y40614D02*
D03*
X5250Y40574D02*
D03*
Y39826D02*
D03*
X6040Y8094D02*
D03*
Y7346D02*
D03*
X12879Y18565D02*
D03*
Y19313D02*
D03*
Y21523D02*
D03*
Y20775D02*
D03*
X17670Y28644D02*
D03*
Y27896D02*
D03*
X22000Y21506D02*
D03*
Y22254D02*
D03*
X17700Y20356D02*
D03*
Y21104D02*
D03*
X12879Y22575D02*
D03*
Y23323D02*
D03*
X16620Y28644D02*
D03*
Y27896D02*
D03*
X6190Y19884D02*
D03*
Y19136D02*
D03*
D36*
X20686Y7822D02*
D03*
X21060Y6838D02*
D03*
D37*
X21434Y7822D02*
D03*
X16506Y39003D02*
D03*
X17254D02*
D03*
X16880Y38077D02*
D03*
D38*
X16830Y12081D02*
D03*
X13780D02*
D03*
X15240Y39009D02*
D03*
X18190Y12359D02*
D03*
X12440Y13881D02*
D03*
X13800D02*
D03*
X15160D02*
D03*
X16530D02*
D03*
X17900D02*
D03*
X6350Y29449D02*
D03*
X6280Y21649D02*
D03*
D39*
X16450Y12881D02*
D03*
X17200D02*
D03*
X13400D02*
D03*
X14150D02*
D03*
X14870Y38209D02*
D03*
X15620D02*
D03*
X18570Y11559D02*
D03*
X17820D02*
D03*
X12060Y14681D02*
D03*
X12810D02*
D03*
X13420D02*
D03*
X14170D02*
D03*
X14780D02*
D03*
X15530D02*
D03*
X16150D02*
D03*
X16900D02*
D03*
X17520D02*
D03*
X18270D02*
D03*
X5980Y28649D02*
D03*
X6730D02*
D03*
X5910Y20849D02*
D03*
X6660D02*
D03*
D40*
X11909Y3463D02*
D03*
X12303D02*
D03*
X12697D02*
D03*
X13484D02*
D03*
X11122D02*
D03*
X13878D02*
D03*
X11516D02*
D03*
X13091D02*
D03*
D41*
X15118Y2537D02*
D03*
X9882D02*
D03*
D42*
X21650Y42403D02*
D03*
X21150D02*
D03*
X20650D02*
D03*
X20150D02*
D03*
X21650Y44588D02*
D03*
X21150D02*
D03*
X20650D02*
D03*
X20150Y44588D02*
D03*
D43*
X11527Y6332D02*
D03*
Y8128D02*
D03*
D44*
X13968Y7230D02*
D03*
D45*
X6040Y6440D02*
D03*
Y5500D02*
D03*
D46*
X7826Y11700D02*
D03*
Y12200D02*
D03*
Y12700D02*
D03*
Y13200D02*
D03*
Y13700D02*
D03*
Y14200D02*
D03*
Y14700D02*
D03*
Y15200D02*
D03*
X9874Y11700D02*
D03*
Y12200D02*
D03*
Y12700D02*
D03*
Y13200D02*
D03*
Y13700D02*
D03*
Y14200D02*
D03*
Y14700D02*
D03*
Y15200D02*
D03*
D47*
X5450Y11056D02*
D03*
Y12788D02*
D03*
D48*
X14509Y22779D02*
D03*
Y19039D02*
D03*
D49*
X17774Y22295D02*
D03*
X17970D02*
D03*
X18167D02*
D03*
X18364D02*
D03*
X18561D02*
D03*
X18758D02*
D03*
X18955D02*
D03*
X19152D02*
D03*
X19348D02*
D03*
X19545D02*
D03*
X19742D02*
D03*
X19939D02*
D03*
X20136D02*
D03*
X20333D02*
D03*
X20530D02*
D03*
X20726D02*
D03*
Y26705D02*
D03*
X20530D02*
D03*
X20333D02*
D03*
X20136D02*
D03*
X19939D02*
D03*
X19742D02*
D03*
X19545D02*
D03*
X19348D02*
D03*
X19152D02*
D03*
X18955D02*
D03*
X18758D02*
D03*
X18561D02*
D03*
X18364D02*
D03*
X18167D02*
D03*
X17970D02*
D03*
X17774D02*
D03*
D50*
X21455Y23024D02*
D03*
Y23220D02*
D03*
Y23417D02*
D03*
Y23614D02*
D03*
Y23811D02*
D03*
Y24008D02*
D03*
Y24205D02*
D03*
Y24402D02*
D03*
Y24598D02*
D03*
Y24795D02*
D03*
Y24992D02*
D03*
Y25189D02*
D03*
Y25386D02*
D03*
Y25583D02*
D03*
Y25780D02*
D03*
Y25976D02*
D03*
X17045D02*
D03*
Y25780D02*
D03*
Y25583D02*
D03*
Y25386D02*
D03*
Y25189D02*
D03*
Y24992D02*
D03*
Y24795D02*
D03*
Y24598D02*
D03*
Y24402D02*
D03*
Y24205D02*
D03*
Y24008D02*
D03*
Y23811D02*
D03*
Y23614D02*
D03*
Y23417D02*
D03*
Y23220D02*
D03*
Y23024D02*
D03*
D51*
X550Y15890D02*
Y19010D01*
Y9830D02*
Y15890D01*
X558Y15898D01*
X2400D01*
X550Y19010D02*
X556Y19016D01*
X2400D01*
X1251Y26811D02*
X2400D01*
X550Y26110D02*
X1251Y26811D01*
X550Y19010D02*
Y26110D01*
X5631Y9659D02*
X6228D01*
X5460Y9830D02*
X5631Y9659D01*
X5460Y9830D02*
Y11054D01*
X6228Y9659D02*
X7171D01*
X7900Y8930D01*
X550Y9830D02*
X5460D01*
X1242Y4969D02*
X2400D01*
X550Y5660D02*
X1242Y4969D01*
X550Y5660D02*
Y9830D01*
M02*
