G04 Layer_Color=16711935*
%FSLAX24Y24*%
%MOIN*%
G70*
G01*
G75*
%ADD10C,0.0100*%
%ADD53R,0.1480X0.1480*%
%ADD54C,0.1480*%
%ADD55R,0.0474X0.0474*%
%ADD56C,0.0474*%
%ADD57C,0.0867*%
%ADD58R,0.0474X0.0474*%
%ADD59C,0.0680*%
%ADD60C,0.0830*%
%ADD61R,0.0830X0.0830*%
%ADD62R,0.0680X0.0680*%
%ADD63R,0.0552X0.0552*%
%ADD64C,0.0552*%
%ADD65C,0.1580*%
%ADD66R,0.0710X0.0710*%
%ADD67C,0.0710*%
%ADD68C,0.0440*%
%ADD69C,0.0800*%
%ADD70R,0.1050X0.0500*%
%ADD71R,0.0560X0.0440*%
%ADD72R,0.0592X0.0671*%
%ADD73R,0.0336X0.0533*%
%ADD74R,0.0671X0.0592*%
%ADD75R,0.0434X0.0454*%
%ADD76R,0.0434X0.0454*%
%ADD77R,0.0440X0.0580*%
%ADD78R,0.0440X0.0440*%
%ADD79R,0.0316X0.0828*%
%ADD80R,0.0907X0.1182*%
%ADD81R,0.0316X0.0808*%
%ADD82R,0.0828X0.0454*%
%ADD83R,0.2797X0.2245*%
%ADD84R,0.0580X0.0580*%
%ADD85R,0.0946X0.0297*%
%ADD86R,0.1143X0.0789*%
%ADD87R,0.0867X0.2245*%
%ADD88O,0.0198X0.0907*%
%ADD89O,0.0907X0.0198*%
D10*
X-4952Y-6455D02*
X40728D01*
X-4952Y-8305D02*
Y-6455D01*
Y-8305D02*
X40728D01*
Y-6455D01*
Y-5505D02*
Y-3655D01*
X-4952Y-5505D02*
X40728D01*
X-4952D02*
Y-3655D01*
X40728D01*
X4528Y-7021D02*
Y-7878D01*
X4570Y-7021D02*
Y-7878D01*
X4528Y-7021D02*
X4742D01*
X4528Y-7878D02*
X4742D01*
X4857Y-7107D02*
X4943Y-7064D01*
X5072Y-6935D01*
Y-7835D01*
X5774Y-6935D02*
X5646Y-6978D01*
X5560Y-7107D01*
X5517Y-7321D01*
Y-7449D01*
X5560Y-7664D01*
X5646Y-7792D01*
X5774Y-7835D01*
X5860D01*
X5989Y-7792D01*
X6074Y-7664D01*
X6117Y-7449D01*
Y-7321D01*
X6074Y-7107D01*
X5989Y-6978D01*
X5860Y-6935D01*
X5774D01*
X6833D02*
X6404D01*
X6361Y-7321D01*
X6404Y-7278D01*
X6533Y-7235D01*
X6661D01*
X6790Y-7278D01*
X6876Y-7364D01*
X6918Y-7492D01*
Y-7578D01*
X6876Y-7706D01*
X6790Y-7792D01*
X6661Y-7835D01*
X6533D01*
X6404Y-7792D01*
X6361Y-7749D01*
X6319Y-7664D01*
X7120Y-7107D02*
X7206Y-7064D01*
X7334Y-6935D01*
Y-7835D01*
X7823Y-7749D02*
X7780Y-7792D01*
X7823Y-7835D01*
X7865Y-7792D01*
X7823Y-7749D01*
X8320Y-6935D02*
X8191Y-6978D01*
X8105Y-7107D01*
X8063Y-7321D01*
Y-7449D01*
X8105Y-7664D01*
X8191Y-7792D01*
X8320Y-7835D01*
X8405D01*
X8534Y-7792D01*
X8620Y-7664D01*
X8662Y-7449D01*
Y-7321D01*
X8620Y-7107D01*
X8534Y-6978D01*
X8405Y-6935D01*
X8320D01*
X9121D02*
X8992Y-6978D01*
X8907Y-7107D01*
X8864Y-7321D01*
Y-7449D01*
X8907Y-7664D01*
X8992Y-7792D01*
X9121Y-7835D01*
X9207D01*
X9335Y-7792D01*
X9421Y-7664D01*
X9464Y-7449D01*
Y-7321D01*
X9421Y-7107D01*
X9335Y-6978D01*
X9207Y-6935D01*
X9121D01*
X9922D02*
X9794Y-6978D01*
X9708Y-7107D01*
X9665Y-7321D01*
Y-7449D01*
X9708Y-7664D01*
X9794Y-7792D01*
X9922Y-7835D01*
X10008D01*
X10136Y-7792D01*
X10222Y-7664D01*
X10265Y-7449D01*
Y-7321D01*
X10222Y-7107D01*
X10136Y-6978D01*
X10008Y-6935D01*
X9922D01*
X10895D02*
X10466Y-7535D01*
X11109D01*
X10895Y-6935D02*
Y-7835D01*
X11268Y-7107D02*
X11353Y-7064D01*
X11482Y-6935D01*
Y-7835D01*
X11970Y-7749D02*
X11927Y-7792D01*
X11970Y-7835D01*
X12013Y-7792D01*
X11970Y-7749D01*
X12467Y-6935D02*
X12339Y-6978D01*
X12253Y-7107D01*
X12210Y-7321D01*
Y-7449D01*
X12253Y-7664D01*
X12339Y-7792D01*
X12467Y-7835D01*
X12553D01*
X12682Y-7792D01*
X12767Y-7664D01*
X12810Y-7449D01*
Y-7321D01*
X12767Y-7107D01*
X12682Y-6978D01*
X12553Y-6935D01*
X12467D01*
X13269D02*
X13140Y-6978D01*
X13054Y-7107D01*
X13011Y-7321D01*
Y-7449D01*
X13054Y-7664D01*
X13140Y-7792D01*
X13269Y-7835D01*
X13354D01*
X13483Y-7792D01*
X13568Y-7664D01*
X13611Y-7449D01*
Y-7321D01*
X13568Y-7107D01*
X13483Y-6978D01*
X13354Y-6935D01*
X13269D01*
X13813Y-8135D02*
X14498D01*
X14871Y-6935D02*
X14743Y-6978D01*
X14657Y-7107D01*
X14614Y-7321D01*
Y-7449D01*
X14657Y-7664D01*
X14743Y-7792D01*
X14871Y-7835D01*
X14957D01*
X15085Y-7792D01*
X15171Y-7664D01*
X15214Y-7449D01*
Y-7321D01*
X15171Y-7107D01*
X15085Y-6978D01*
X14957Y-6935D01*
X14871D01*
X15415Y-7449D02*
X16186D01*
X17138Y-7835D02*
X16795Y-6935D01*
X16452Y-7835D01*
X16581Y-7535D02*
X17009D01*
X17391Y-7749D02*
X17348Y-7792D01*
X17391Y-7835D01*
X17433Y-7792D01*
X17391Y-7749D01*
X17716Y-6935D02*
X18187D01*
X17930Y-7278D01*
X18059D01*
X18145Y-7321D01*
X18187Y-7364D01*
X18230Y-7492D01*
Y-7578D01*
X18187Y-7706D01*
X18102Y-7792D01*
X17973Y-7835D01*
X17845D01*
X17716Y-7792D01*
X17673Y-7749D01*
X17630Y-7664D01*
X18603Y-7021D02*
Y-7878D01*
X18646Y-7021D02*
Y-7878D01*
X18432Y-7021D02*
X18646D01*
X18432Y-7878D02*
X18646D01*
X20159Y-7149D02*
X20116Y-7064D01*
X20030Y-6978D01*
X19944Y-6935D01*
X19773D01*
X19687Y-6978D01*
X19601Y-7064D01*
X19559Y-7149D01*
X19516Y-7278D01*
Y-7492D01*
X19559Y-7621D01*
X19601Y-7706D01*
X19687Y-7792D01*
X19773Y-7835D01*
X19944D01*
X20030Y-7792D01*
X20116Y-7706D01*
X20159Y-7621D01*
X20411Y-6935D02*
Y-7835D01*
Y-6935D02*
X20797D01*
X20925Y-6978D01*
X20968Y-7021D01*
X21011Y-7107D01*
Y-7192D01*
X20968Y-7278D01*
X20925Y-7321D01*
X20797Y-7364D01*
X20411D02*
X20797D01*
X20925Y-7407D01*
X20968Y-7449D01*
X21011Y-7535D01*
Y-7664D01*
X20968Y-7749D01*
X20925Y-7792D01*
X20797Y-7835D01*
X20411D01*
X21812Y-7064D02*
X21727Y-6978D01*
X21598Y-6935D01*
X21427D01*
X21298Y-6978D01*
X21213Y-7064D01*
Y-7149D01*
X21255Y-7235D01*
X21298Y-7278D01*
X21384Y-7321D01*
X21641Y-7407D01*
X21727Y-7449D01*
X21770Y-7492D01*
X21812Y-7578D01*
Y-7706D01*
X21727Y-7792D01*
X21598Y-7835D01*
X21427D01*
X21298Y-7792D01*
X21213Y-7706D01*
X22057Y-7149D02*
Y-7107D01*
X22100Y-7021D01*
X22142Y-6978D01*
X22228Y-6935D01*
X22399D01*
X22485Y-6978D01*
X22528Y-7021D01*
X22571Y-7107D01*
Y-7192D01*
X22528Y-7278D01*
X22442Y-7407D01*
X22014Y-7835D01*
X22614D01*
X22815Y-7107D02*
X22901Y-7064D01*
X23029Y-6935D01*
Y-7835D01*
X23732Y-6935D02*
X23603Y-6978D01*
X23518Y-7107D01*
X23475Y-7321D01*
Y-7449D01*
X23518Y-7664D01*
X23603Y-7792D01*
X23732Y-7835D01*
X23818D01*
X23946Y-7792D01*
X24032Y-7664D01*
X24075Y-7449D01*
Y-7321D01*
X24032Y-7107D01*
X23946Y-6978D01*
X23818Y-6935D01*
X23732D01*
X24533D02*
X24405Y-6978D01*
X24319Y-7107D01*
X24276Y-7321D01*
Y-7449D01*
X24319Y-7664D01*
X24405Y-7792D01*
X24533Y-7835D01*
X24619D01*
X24748Y-7792D01*
X24833Y-7664D01*
X24876Y-7449D01*
Y-7321D01*
X24833Y-7107D01*
X24748Y-6978D01*
X24619Y-6935D01*
X24533D01*
X25634D02*
X25077D01*
Y-7835D01*
X25634D01*
X25077Y-7364D02*
X25420D01*
X26341Y-6935D02*
X25784D01*
Y-7835D01*
X26341D01*
X25784Y-7364D02*
X26127D01*
X26534Y-7749D02*
X26491Y-7792D01*
X26534Y-7835D01*
X26577Y-7792D01*
X26534Y-7749D01*
X27417Y-7149D02*
X27374Y-7064D01*
X27288Y-6978D01*
X27203Y-6935D01*
X27031D01*
X26946Y-6978D01*
X26860Y-7064D01*
X26817Y-7149D01*
X26774Y-7278D01*
Y-7492D01*
X26817Y-7621D01*
X26860Y-7706D01*
X26946Y-7792D01*
X27031Y-7835D01*
X27203D01*
X27288Y-7792D01*
X27374Y-7706D01*
X27417Y-7621D01*
Y-7492D01*
X27203D02*
X27417D01*
X27623Y-6935D02*
Y-7835D01*
Y-6935D02*
X28008D01*
X28137Y-6978D01*
X28180Y-7021D01*
X28222Y-7107D01*
Y-7192D01*
X28180Y-7278D01*
X28137Y-7321D01*
X28008Y-7364D01*
X27623D02*
X28008D01*
X28137Y-7407D01*
X28180Y-7449D01*
X28222Y-7535D01*
Y-7664D01*
X28180Y-7749D01*
X28137Y-7792D01*
X28008Y-7835D01*
X27623D01*
X29024Y-7064D02*
X28938Y-6978D01*
X28809Y-6935D01*
X28638D01*
X28510Y-6978D01*
X28424Y-7064D01*
Y-7149D01*
X28467Y-7235D01*
X28510Y-7278D01*
X28595Y-7321D01*
X28852Y-7407D01*
X28938Y-7449D01*
X28981Y-7492D01*
X29024Y-7578D01*
Y-7706D01*
X28938Y-7792D01*
X28809Y-7835D01*
X28638D01*
X28510Y-7792D01*
X28424Y-7706D01*
X-4462Y-7407D02*
X-4077D01*
X-3948Y-7364D01*
X-3905Y-7321D01*
X-3863Y-7235D01*
Y-7107D01*
X-3905Y-7021D01*
X-3948Y-6978D01*
X-4077Y-6935D01*
X-4462D01*
Y-7835D01*
X-3661Y-6935D02*
Y-7835D01*
X-3147D01*
X-2791Y-6935D02*
X-2877Y-6978D01*
X-2963Y-7064D01*
X-3006Y-7149D01*
X-3048Y-7278D01*
Y-7492D01*
X-3006Y-7621D01*
X-2963Y-7706D01*
X-2877Y-7792D01*
X-2791Y-7835D01*
X-2620D01*
X-2534Y-7792D01*
X-2449Y-7706D01*
X-2406Y-7621D01*
X-2363Y-7492D01*
Y-7278D01*
X-2406Y-7149D01*
X-2449Y-7064D01*
X-2534Y-6978D01*
X-2620Y-6935D01*
X-2791D01*
X-1853D02*
Y-7835D01*
X-2153Y-6935D02*
X-1553D01*
X-739D02*
Y-7835D01*
Y-6935D02*
X-182D01*
X-739Y-7364D02*
X-396D01*
X-79Y-6935D02*
Y-7835D01*
X109Y-6935D02*
Y-7835D01*
X624D01*
X1279Y-6935D02*
X722D01*
Y-7835D01*
X1279D01*
X722Y-7364D02*
X1065D01*
X1472Y-7235D02*
X1429Y-7278D01*
X1472Y-7321D01*
X1515Y-7278D01*
X1472Y-7235D01*
Y-7749D02*
X1429Y-7792D01*
X1472Y-7835D01*
X1515Y-7792D01*
X1472Y-7749D01*
X-4462Y-4135D02*
Y-5035D01*
X-3948D01*
X-3164D02*
X-3507Y-4135D01*
X-3850Y-5035D01*
X-3721Y-4735D02*
X-3293D01*
X-2954Y-4135D02*
X-2611Y-4564D01*
Y-5035D01*
X-2269Y-4135D02*
X-2611Y-4564D01*
X-1596Y-4135D02*
X-2153D01*
Y-5035D01*
X-1596D01*
X-2153Y-4564D02*
X-1810D01*
X-1446Y-4135D02*
Y-5035D01*
Y-4135D02*
X-1060D01*
X-932Y-4178D01*
X-889Y-4221D01*
X-846Y-4307D01*
Y-4392D01*
X-889Y-4478D01*
X-932Y-4521D01*
X-1060Y-4564D01*
X-1446D01*
X-1146D02*
X-846Y-5035D01*
X62Y-4135D02*
Y-5035D01*
Y-4135D02*
X662Y-5035D01*
Y-4135D02*
Y-5035D01*
X1596D02*
X1253Y-4135D01*
X911Y-5035D01*
X1039Y-4735D02*
X1468D01*
X1806Y-4135D02*
Y-5035D01*
Y-4135D02*
X2149Y-5035D01*
X2492Y-4135D02*
X2149Y-5035D01*
X2492Y-4135D02*
Y-5035D01*
X3306Y-4135D02*
X2749D01*
Y-5035D01*
X3306D01*
X2749Y-4564D02*
X3092D01*
X3499Y-4435D02*
X3456Y-4478D01*
X3499Y-4521D01*
X3542Y-4478D01*
X3499Y-4435D01*
Y-4949D02*
X3456Y-4992D01*
X3499Y-5035D01*
X3542Y-4992D01*
X3499Y-4949D01*
X4528Y-4135D02*
Y-5035D01*
Y-4135D02*
X4913D01*
X5042Y-4178D01*
X5085Y-4221D01*
X5127Y-4307D01*
Y-4392D01*
X5085Y-4478D01*
X5042Y-4521D01*
X4913Y-4564D01*
X4528D02*
X4913D01*
X5042Y-4607D01*
X5085Y-4649D01*
X5127Y-4735D01*
Y-4864D01*
X5085Y-4949D01*
X5042Y-4992D01*
X4913Y-5035D01*
X4528D01*
X5543Y-4435D02*
X5457Y-4478D01*
X5372Y-4564D01*
X5329Y-4692D01*
Y-4778D01*
X5372Y-4906D01*
X5457Y-4992D01*
X5543Y-5035D01*
X5672D01*
X5757Y-4992D01*
X5843Y-4906D01*
X5886Y-4778D01*
Y-4692D01*
X5843Y-4564D01*
X5757Y-4478D01*
X5672Y-4435D01*
X5543D01*
X6211Y-4135D02*
Y-4864D01*
X6254Y-4992D01*
X6340Y-5035D01*
X6426D01*
X6083Y-4435D02*
X6383D01*
X6683Y-4135D02*
Y-4864D01*
X6726Y-4992D01*
X6811Y-5035D01*
X6897D01*
X6554Y-4435D02*
X6854D01*
X7240D02*
X7154Y-4478D01*
X7068Y-4564D01*
X7026Y-4692D01*
Y-4778D01*
X7068Y-4906D01*
X7154Y-4992D01*
X7240Y-5035D01*
X7368D01*
X7454Y-4992D01*
X7540Y-4906D01*
X7583Y-4778D01*
Y-4692D01*
X7540Y-4564D01*
X7454Y-4478D01*
X7368Y-4435D01*
X7240D01*
X7780D02*
Y-5035D01*
Y-4607D02*
X7908Y-4478D01*
X7994Y-4435D01*
X8123D01*
X8208Y-4478D01*
X8251Y-4607D01*
Y-5035D01*
Y-4607D02*
X8380Y-4478D01*
X8465Y-4435D01*
X8594D01*
X8680Y-4478D01*
X8722Y-4607D01*
Y-5035D01*
X10312Y-4264D02*
X10226Y-4178D01*
X10098Y-4135D01*
X9926D01*
X9798Y-4178D01*
X9712Y-4264D01*
Y-4349D01*
X9755Y-4435D01*
X9798Y-4478D01*
X9884Y-4521D01*
X10141Y-4607D01*
X10226Y-4649D01*
X10269Y-4692D01*
X10312Y-4778D01*
Y-4906D01*
X10226Y-4992D01*
X10098Y-5035D01*
X9926D01*
X9798Y-4992D01*
X9712Y-4906D01*
X10728Y-4435D02*
X10642Y-4478D01*
X10556Y-4564D01*
X10513Y-4692D01*
Y-4778D01*
X10556Y-4906D01*
X10642Y-4992D01*
X10728Y-5035D01*
X10856D01*
X10942Y-4992D01*
X11028Y-4906D01*
X11070Y-4778D01*
Y-4692D01*
X11028Y-4564D01*
X10942Y-4478D01*
X10856Y-4435D01*
X10728D01*
X11268Y-4135D02*
Y-5035D01*
X11970Y-4135D02*
Y-5035D01*
Y-4564D02*
X11885Y-4478D01*
X11799Y-4435D01*
X11670D01*
X11585Y-4478D01*
X11499Y-4564D01*
X11456Y-4692D01*
Y-4778D01*
X11499Y-4906D01*
X11585Y-4992D01*
X11670Y-5035D01*
X11799D01*
X11885Y-4992D01*
X11970Y-4906D01*
X12210Y-4692D02*
X12724D01*
Y-4607D01*
X12682Y-4521D01*
X12639Y-4478D01*
X12553Y-4435D01*
X12424D01*
X12339Y-4478D01*
X12253Y-4564D01*
X12210Y-4692D01*
Y-4778D01*
X12253Y-4906D01*
X12339Y-4992D01*
X12424Y-5035D01*
X12553D01*
X12639Y-4992D01*
X12724Y-4906D01*
X12917Y-4435D02*
Y-5035D01*
Y-4692D02*
X12960Y-4564D01*
X13046Y-4478D01*
X13131Y-4435D01*
X13260D01*
X14048Y-4135D02*
Y-5035D01*
Y-4135D02*
X14391Y-5035D01*
X14734Y-4135D02*
X14391Y-5035D01*
X14734Y-4135D02*
Y-5035D01*
X15505Y-4435D02*
Y-5035D01*
Y-4564D02*
X15420Y-4478D01*
X15334Y-4435D01*
X15205D01*
X15120Y-4478D01*
X15034Y-4564D01*
X14991Y-4692D01*
Y-4778D01*
X15034Y-4906D01*
X15120Y-4992D01*
X15205Y-5035D01*
X15334D01*
X15420Y-4992D01*
X15505Y-4906D01*
X16216Y-4564D02*
X16174Y-4478D01*
X16045Y-4435D01*
X15917D01*
X15788Y-4478D01*
X15745Y-4564D01*
X15788Y-4649D01*
X15874Y-4692D01*
X16088Y-4735D01*
X16174Y-4778D01*
X16216Y-4864D01*
Y-4906D01*
X16174Y-4992D01*
X16045Y-5035D01*
X15917D01*
X15788Y-4992D01*
X15745Y-4906D01*
X16405Y-4135D02*
Y-5035D01*
X16833Y-4435D02*
X16405Y-4864D01*
X16576Y-4692D02*
X16876Y-5035D01*
D53*
X2400Y33047D02*
D03*
Y25252D02*
D03*
Y39100D02*
D03*
Y15898D02*
D03*
Y8087D02*
D03*
D54*
Y31488D02*
D03*
Y29929D02*
D03*
Y28370D02*
D03*
Y26811D02*
D03*
Y23693D02*
D03*
Y22134D02*
D03*
Y20575D02*
D03*
Y19016D02*
D03*
Y37541D02*
D03*
Y14339D02*
D03*
Y12780D02*
D03*
Y11220D02*
D03*
Y4969D02*
D03*
Y6528D02*
D03*
D55*
X8734Y26622D02*
D03*
D56*
Y26122D02*
D03*
Y25622D02*
D03*
Y25122D02*
D03*
Y24622D02*
D03*
Y24122D02*
D03*
Y23622D02*
D03*
Y23122D02*
D03*
Y22622D02*
D03*
Y22122D02*
D03*
Y21622D02*
D03*
Y21122D02*
D03*
Y20622D02*
D03*
Y20122D02*
D03*
Y19622D02*
D03*
X9500Y35135D02*
D03*
X10000D02*
D03*
X10500D02*
D03*
X11000D02*
D03*
X11500D02*
D03*
X12000D02*
D03*
X12500D02*
D03*
X13000D02*
D03*
X13500D02*
D03*
X14000D02*
D03*
X14500D02*
D03*
X15000D02*
D03*
X15500D02*
D03*
X16000D02*
D03*
D57*
X20147Y29263D02*
D03*
X8730D02*
D03*
X20147Y16980D02*
D03*
X8730D02*
D03*
X6358Y46549D02*
D03*
Y35131D02*
D03*
X18642Y46549D02*
D03*
Y35131D02*
D03*
D58*
X9000Y35135D02*
D03*
D59*
X23688Y16699D02*
D03*
X20788Y5569D02*
D03*
X15538Y24239D02*
D03*
X6228Y9659D02*
D03*
X7670Y4560D02*
D03*
Y5560D02*
D03*
X2400Y43051D02*
D03*
X5561Y2958D02*
D03*
X7671D02*
D03*
X18041Y3318D02*
D03*
D60*
X7900Y8930D02*
D03*
X9900D02*
D03*
X15790Y49180D02*
D03*
X14790D02*
D03*
X13790D02*
D03*
X10500D02*
D03*
X9500D02*
D03*
X8500D02*
D03*
D61*
X16790D02*
D03*
X11500D02*
D03*
D62*
X2400Y44051D02*
D03*
D63*
X11080Y40010D02*
D03*
D64*
X12080D02*
D03*
X13080D02*
D03*
D65*
X23120Y49370D02*
D03*
Y1880D02*
D03*
X1880D02*
D03*
Y49370D02*
D03*
D66*
X23228Y9843D02*
D03*
D67*
Y8858D02*
D03*
Y7874D02*
D03*
Y6890D02*
D03*
Y5906D02*
D03*
D68*
X4928Y49748D02*
G03*
X4928Y49748I-200J0D01*
G01*
X20676Y1579D02*
G03*
X20676Y1579I-200J0D01*
G01*
D69*
X20672Y49744D02*
G03*
X20672Y49744I-200J0D01*
G01*
D70*
X22665Y11470D02*
D03*
D71*
X5100Y20855D02*
D03*
Y22145D02*
D03*
Y28605D02*
D03*
Y29895D02*
D03*
D72*
X23854Y14780D02*
D03*
X23106D02*
D03*
X21346Y13930D02*
D03*
X22094D02*
D03*
X23854Y13700D02*
D03*
X23106D02*
D03*
X12884Y9880D02*
D03*
X12136D02*
D03*
X17716D02*
D03*
X18464D02*
D03*
X5226Y26050D02*
D03*
X5974D02*
D03*
X8106Y43080D02*
D03*
X8854D02*
D03*
X16506Y39940D02*
D03*
X17254D02*
D03*
X13204Y37500D02*
D03*
X12456D02*
D03*
X10736D02*
D03*
X11484D02*
D03*
X9006Y37510D02*
D03*
X9754D02*
D03*
X9006Y36470D02*
D03*
X9754D02*
D03*
X8044Y38870D02*
D03*
X7296D02*
D03*
X13736Y24510D02*
D03*
X14484D02*
D03*
X14876Y27580D02*
D03*
X15624D02*
D03*
X14876Y28650D02*
D03*
X15624D02*
D03*
X18594Y16460D02*
D03*
X17846D02*
D03*
X22254Y27160D02*
D03*
X21506D02*
D03*
X6674Y27700D02*
D03*
X5926D02*
D03*
D73*
X23014Y12472D02*
D03*
X22266D02*
D03*
Y11468D02*
D03*
X22640D02*
D03*
X23014D02*
D03*
D74*
X21350Y11446D02*
D03*
Y12194D02*
D03*
X21170Y10364D02*
D03*
Y9616D02*
D03*
X21090Y3596D02*
D03*
Y4344D02*
D03*
X12520Y11896D02*
D03*
Y12644D02*
D03*
X13920Y11144D02*
D03*
Y10396D02*
D03*
X16680Y11144D02*
D03*
Y10396D02*
D03*
X19180Y44914D02*
D03*
Y44166D02*
D03*
X19170Y43150D02*
D03*
Y42402D02*
D03*
X16090Y7294D02*
D03*
Y6546D02*
D03*
X17180Y7294D02*
D03*
Y6546D02*
D03*
X9480Y5864D02*
D03*
Y5116D02*
D03*
X6580Y25004D02*
D03*
Y24256D02*
D03*
X5380D02*
D03*
Y25004D02*
D03*
X5220Y32614D02*
D03*
Y31866D02*
D03*
X6260Y31116D02*
D03*
Y31864D02*
D03*
X7300D02*
D03*
Y31116D02*
D03*
X8160Y40614D02*
D03*
Y39866D02*
D03*
X9200Y40614D02*
D03*
Y39866D02*
D03*
X6300Y38116D02*
D03*
Y38864D02*
D03*
X16000Y36416D02*
D03*
Y37164D02*
D03*
X5240Y44814D02*
D03*
Y44066D02*
D03*
X6280Y44066D02*
D03*
Y44814D02*
D03*
Y43074D02*
D03*
Y42326D02*
D03*
X5240D02*
D03*
Y43074D02*
D03*
X5250Y38864D02*
D03*
Y38116D02*
D03*
X7120Y39866D02*
D03*
Y40614D02*
D03*
X5250Y40574D02*
D03*
Y39826D02*
D03*
X6040Y8094D02*
D03*
Y7346D02*
D03*
X12879Y18565D02*
D03*
Y19313D02*
D03*
Y21523D02*
D03*
Y20775D02*
D03*
X17670Y28644D02*
D03*
Y27896D02*
D03*
X22000Y21506D02*
D03*
Y22254D02*
D03*
X17700Y20356D02*
D03*
Y21104D02*
D03*
X12879Y22575D02*
D03*
Y23323D02*
D03*
X16620Y28644D02*
D03*
Y27896D02*
D03*
X6190Y19884D02*
D03*
Y19136D02*
D03*
D75*
X20686Y7822D02*
D03*
X21060Y6838D02*
D03*
D76*
X21434Y7822D02*
D03*
X16506Y39003D02*
D03*
X17254D02*
D03*
X16880Y38077D02*
D03*
D77*
X16830Y12081D02*
D03*
X13780D02*
D03*
X15240Y39009D02*
D03*
X18190Y12359D02*
D03*
X12440Y13881D02*
D03*
X13800D02*
D03*
X15160D02*
D03*
X16530D02*
D03*
X17900D02*
D03*
X6350Y29449D02*
D03*
X6280Y21649D02*
D03*
D78*
X16450Y12881D02*
D03*
X17200D02*
D03*
X13400D02*
D03*
X14150D02*
D03*
X14870Y38209D02*
D03*
X15620D02*
D03*
X18570Y11559D02*
D03*
X17820D02*
D03*
X12060Y14681D02*
D03*
X12810D02*
D03*
X13420D02*
D03*
X14170D02*
D03*
X14780D02*
D03*
X15530D02*
D03*
X16150D02*
D03*
X16900D02*
D03*
X17520D02*
D03*
X18270D02*
D03*
X5980Y28649D02*
D03*
X6730D02*
D03*
X5910Y20849D02*
D03*
X6660D02*
D03*
D79*
X11909Y3463D02*
D03*
X12303D02*
D03*
X12697D02*
D03*
X13484D02*
D03*
X11122D02*
D03*
X13878D02*
D03*
X11516D02*
D03*
X13091D02*
D03*
D80*
X15118Y2537D02*
D03*
X9882D02*
D03*
D81*
X21650Y42403D02*
D03*
X21150D02*
D03*
X20650D02*
D03*
X20150D02*
D03*
X21650Y44588D02*
D03*
X21150D02*
D03*
X20650D02*
D03*
X20150Y44588D02*
D03*
D82*
X11527Y6332D02*
D03*
Y8128D02*
D03*
D83*
X13968Y7230D02*
D03*
D84*
X6040Y6440D02*
D03*
Y5500D02*
D03*
D85*
X7826Y11700D02*
D03*
Y12200D02*
D03*
Y12700D02*
D03*
Y13200D02*
D03*
Y13700D02*
D03*
Y14200D02*
D03*
Y14700D02*
D03*
Y15200D02*
D03*
X9874Y11700D02*
D03*
Y12200D02*
D03*
Y12700D02*
D03*
Y13200D02*
D03*
Y13700D02*
D03*
Y14200D02*
D03*
Y14700D02*
D03*
Y15200D02*
D03*
D86*
X5450Y11056D02*
D03*
Y12788D02*
D03*
D87*
X14509Y22779D02*
D03*
Y19039D02*
D03*
D88*
X17774Y22295D02*
D03*
X17970D02*
D03*
X18167D02*
D03*
X18364D02*
D03*
X18561D02*
D03*
X18758D02*
D03*
X18955D02*
D03*
X19152D02*
D03*
X19348D02*
D03*
X19545D02*
D03*
X19742D02*
D03*
X19939D02*
D03*
X20136D02*
D03*
X20333D02*
D03*
X20530D02*
D03*
X20726D02*
D03*
Y26705D02*
D03*
X20530D02*
D03*
X20333D02*
D03*
X20136D02*
D03*
X19939D02*
D03*
X19742D02*
D03*
X19545D02*
D03*
X19348D02*
D03*
X19152D02*
D03*
X18955D02*
D03*
X18758D02*
D03*
X18561D02*
D03*
X18364D02*
D03*
X18167D02*
D03*
X17970D02*
D03*
X17774D02*
D03*
D89*
X21455Y23024D02*
D03*
Y23220D02*
D03*
Y23417D02*
D03*
Y23614D02*
D03*
Y23811D02*
D03*
Y24008D02*
D03*
Y24205D02*
D03*
Y24402D02*
D03*
Y24598D02*
D03*
Y24795D02*
D03*
Y24992D02*
D03*
Y25189D02*
D03*
Y25386D02*
D03*
Y25583D02*
D03*
Y25780D02*
D03*
Y25976D02*
D03*
X17045D02*
D03*
Y25780D02*
D03*
Y25583D02*
D03*
Y25386D02*
D03*
Y25189D02*
D03*
Y24992D02*
D03*
Y24795D02*
D03*
Y24598D02*
D03*
Y24402D02*
D03*
Y24205D02*
D03*
Y24008D02*
D03*
Y23811D02*
D03*
Y23614D02*
D03*
Y23417D02*
D03*
Y23220D02*
D03*
Y23024D02*
D03*
M02*
