G04 Layer_Color=32896*
%FSLAX24Y24*%
%MOIN*%
G70*
G01*
G75*
%ADD10C,0.0100*%
%ADD11C,0.0200*%
%ADD30C,0.0120*%
%ADD90C,0.0098*%
%ADD91C,0.0079*%
%ADD92C,0.0080*%
%ADD93C,0.0079*%
%ADD94C,0.0050*%
%ADD95C,0.0060*%
%ADD96C,0.0236*%
%ADD97R,0.0709X0.0200*%
D10*
X24140Y16700D02*
G03*
X24140Y16700I-450J0D01*
G01*
X21240Y5570D02*
G03*
X21240Y5570I-450J0D01*
G01*
X21172Y49744D02*
G03*
X21172Y49744I-700J0D01*
G01*
X15990Y24240D02*
G03*
X15990Y24240I-450J0D01*
G01*
X7400Y7930D02*
X8400D01*
X7900Y7430D02*
Y8430D01*
X13290Y49930D02*
X17290D01*
X13290Y50180D02*
X17290D01*
X13290Y47880D02*
Y50180D01*
Y47880D02*
X17290D01*
Y50180D01*
X1400Y42051D02*
X3400D01*
X1400D02*
Y45051D01*
X3400D01*
Y42051D02*
Y45051D01*
X4000Y43051D02*
Y44051D01*
X3400Y43051D02*
X4000D01*
X3400Y44051D02*
X4000D01*
X8000Y49930D02*
X12000D01*
X8000Y50180D02*
X12000D01*
X8000Y47880D02*
Y50180D01*
Y47880D02*
X12000D01*
Y50180D01*
X3330Y34700D02*
X3430Y34800D01*
X3630D01*
X3730Y34700D01*
Y34300D01*
X3630Y34200D01*
X3430D01*
X3330Y34300D01*
X3130Y34200D02*
Y34800D01*
X2730Y34200D01*
Y34800D01*
X2530Y34200D02*
X2330D01*
X2430D01*
Y34800D01*
X2530Y34700D01*
X2031D02*
X1931Y34800D01*
X1731D01*
X1631Y34700D01*
Y34300D01*
X1731Y34200D01*
X1931D01*
X2031Y34300D01*
Y34700D01*
X6510Y18500D02*
X5910D01*
Y18200D01*
X6010Y18100D01*
X6210D01*
X6310Y18200D01*
Y18500D01*
Y18300D02*
X6510Y18100D01*
Y17500D02*
Y17900D01*
X6110Y17500D01*
X6010D01*
X5910Y17600D01*
Y17800D01*
X6010Y17900D01*
Y17300D02*
X5910Y17200D01*
Y17000D01*
X6010Y16901D01*
X6110D01*
X6210Y17000D01*
X6310Y16901D01*
X6410D01*
X6510Y17000D01*
Y17200D01*
X6410Y17300D01*
X6310D01*
X6210Y17200D01*
X6110Y17300D01*
X6010D01*
X6210Y17200D02*
Y17000D01*
X7870Y28320D02*
X7270D01*
Y28020D01*
X7370Y27920D01*
X7570D01*
X7670Y28020D01*
Y28320D01*
Y28120D02*
X7870Y27920D01*
Y27320D02*
Y27720D01*
X7470Y27320D01*
X7370D01*
X7270Y27420D01*
Y27620D01*
X7370Y27720D01*
X7270Y27120D02*
Y26721D01*
X7370D01*
X7770Y27120D01*
X7870D01*
X6970Y22220D02*
Y22620D01*
X7070Y22720D01*
X7270D01*
X7370Y22620D01*
Y22220D01*
X7270Y22120D01*
X7070D01*
X7170Y22320D02*
X6970Y22120D01*
X7070D02*
X6970Y22220D01*
X6770Y22120D02*
X6570D01*
X6670D01*
Y22720D01*
X6770Y22620D01*
X5870Y22120D02*
X6270D01*
X5870Y22520D01*
Y22620D01*
X5970Y22720D01*
X6170D01*
X6270Y22620D01*
X6590Y29960D02*
Y30360D01*
X6690Y30460D01*
X6890D01*
X6990Y30360D01*
Y29960D01*
X6890Y29860D01*
X6690D01*
X6790Y30060D02*
X6590Y29860D01*
X6690D02*
X6590Y29960D01*
X6390Y29860D02*
X6190D01*
X6290D01*
Y30460D01*
X6390Y30360D01*
X5890Y29860D02*
X5690D01*
X5790D01*
Y30460D01*
X5890Y30360D01*
X4800Y20410D02*
X5400D01*
Y20110D01*
X5300Y20010D01*
X4900D01*
X4800Y20110D01*
Y20410D01*
X4900Y19810D02*
X4800Y19710D01*
Y19510D01*
X4900Y19410D01*
X5000D01*
X5100Y19510D01*
Y19610D01*
Y19510D01*
X5200Y19410D01*
X5300D01*
X5400Y19510D01*
Y19710D01*
X5300Y19810D01*
X4830Y31250D02*
X5430D01*
Y30950D01*
X5330Y30850D01*
X4930D01*
X4830Y30950D01*
Y31250D01*
X5430Y30250D02*
Y30650D01*
X5030Y30250D01*
X4930D01*
X4830Y30350D01*
Y30550D01*
X4930Y30650D01*
X2810Y41231D02*
X2910Y41331D01*
X3110D01*
X3210Y41231D01*
Y40831D01*
X3110Y40731D01*
X2910D01*
X2810Y40831D01*
X2610Y40731D02*
Y41331D01*
X2210Y40731D01*
Y41331D01*
X2010Y40831D02*
X1910Y40731D01*
X1710D01*
X1611Y40831D01*
Y41231D01*
X1710Y41331D01*
X1910D01*
X2010Y41231D01*
Y41131D01*
X1910Y41031D01*
X1611D01*
X3780Y10170D02*
X3380D01*
X3580D01*
Y9570D01*
X3180D02*
Y10170D01*
X2880D01*
X2780Y10070D01*
Y9870D01*
X2880Y9770D01*
X3180D01*
X2580Y10170D02*
X2181D01*
Y10070D01*
X2580Y9670D01*
Y9570D01*
X18560Y17590D02*
X18660Y17690D01*
X18860D01*
X18960Y17590D01*
Y17190D01*
X18860Y17090D01*
X18660D01*
X18560Y17190D01*
X18360Y17090D02*
X18160D01*
X18260D01*
Y17690D01*
X18360Y17590D01*
X17860D02*
X17760Y17690D01*
X17560D01*
X17460Y17590D01*
Y17490D01*
X17560Y17390D01*
X17460Y17290D01*
Y17190D01*
X17560Y17090D01*
X17760D01*
X17860Y17190D01*
Y17290D01*
X17760Y17390D01*
X17860Y17490D01*
Y17590D01*
X17760Y17390D02*
X17560D01*
X14470Y25640D02*
X14570Y25740D01*
X14770D01*
X14870Y25640D01*
Y25240D01*
X14770Y25140D01*
X14570D01*
X14470Y25240D01*
X14270Y25140D02*
X14070D01*
X14170D01*
Y25740D01*
X14270Y25640D01*
X13370Y25140D02*
X13770D01*
X13370Y25540D01*
Y25640D01*
X13470Y25740D01*
X13670D01*
X13770Y25640D01*
X13890Y27790D02*
X13990Y27890D01*
X14190D01*
X14290Y27790D01*
Y27390D01*
X14190Y27290D01*
X13990D01*
X13890Y27390D01*
X13690Y27290D02*
X13490D01*
X13590D01*
Y27890D01*
X13690Y27790D01*
X12790Y27890D02*
X12990Y27790D01*
X13190Y27590D01*
Y27390D01*
X13090Y27290D01*
X12890D01*
X12790Y27390D01*
Y27490D01*
X12890Y27590D01*
X13190D01*
X13900Y28830D02*
X14000Y28930D01*
X14200D01*
X14300Y28830D01*
Y28430D01*
X14200Y28330D01*
X14000D01*
X13900Y28430D01*
X13700Y28330D02*
X13500D01*
X13600D01*
Y28930D01*
X13700Y28830D01*
X13200Y28930D02*
X12800D01*
Y28830D01*
X13200Y28430D01*
Y28330D01*
X18370Y28640D02*
X18270Y28740D01*
Y28940D01*
X18370Y29040D01*
X18770D01*
X18870Y28940D01*
Y28740D01*
X18770Y28640D01*
X18870Y28440D02*
Y28240D01*
Y28340D01*
X18270D01*
X18370Y28440D01*
X18770Y27940D02*
X18870Y27840D01*
Y27640D01*
X18770Y27540D01*
X18370D01*
X18270Y27640D01*
Y27840D01*
X18370Y27940D01*
X18470D01*
X18570Y27840D01*
Y27540D01*
X22260Y28320D02*
X22360Y28420D01*
X22560D01*
X22660Y28320D01*
Y27920D01*
X22560Y27820D01*
X22360D01*
X22260Y27920D01*
X21660Y27820D02*
X22060D01*
X21660Y28220D01*
Y28320D01*
X21760Y28420D01*
X21960D01*
X22060Y28320D01*
X21460D02*
X21360Y28420D01*
X21160D01*
X21061Y28320D01*
Y27920D01*
X21160Y27820D01*
X21360D01*
X21460Y27920D01*
Y28320D01*
X22710Y22180D02*
X22610Y22280D01*
Y22480D01*
X22710Y22580D01*
X23110D01*
X23210Y22480D01*
Y22280D01*
X23110Y22180D01*
X23210Y21580D02*
Y21980D01*
X22810Y21580D01*
X22710D01*
X22610Y21680D01*
Y21880D01*
X22710Y21980D01*
X23210Y21380D02*
Y21180D01*
Y21280D01*
X22610D01*
X22710Y21380D01*
X18420Y21120D02*
X18320Y21220D01*
Y21420D01*
X18420Y21520D01*
X18820D01*
X18920Y21420D01*
Y21220D01*
X18820Y21120D01*
X18920Y20520D02*
Y20920D01*
X18520Y20520D01*
X18420D01*
X18320Y20620D01*
Y20820D01*
X18420Y20920D01*
X18920Y19921D02*
Y20320D01*
X18520Y19921D01*
X18420D01*
X18320Y20020D01*
Y20220D01*
X18420Y20320D01*
X5470Y50140D02*
Y50540D01*
X5770D01*
Y50340D01*
Y50540D01*
X6070D01*
X5470Y49940D02*
X6070D01*
Y49640D01*
X5970Y49540D01*
X5570D01*
X5470Y49640D01*
Y49940D01*
X6070Y49340D02*
Y49140D01*
Y49240D01*
X5470D01*
X5570Y49340D01*
X19166Y1900D02*
Y2300D01*
X19466D01*
Y2100D01*
Y2300D01*
X19766D01*
X19166Y1700D02*
X19766D01*
Y1400D01*
X19666Y1300D01*
X19266D01*
X19166Y1400D01*
Y1700D01*
X19766Y701D02*
Y1100D01*
X19366Y701D01*
X19266D01*
X19166Y800D01*
Y1000D01*
X19266Y1100D01*
X18921Y50164D02*
Y50364D01*
X19021Y50464D01*
X19421D01*
X19521Y50364D01*
Y50164D01*
X19421Y50064D01*
X19021D01*
X18921Y50164D01*
X19521Y49864D02*
X18921D01*
Y49564D01*
X19021Y49464D01*
X19221D01*
X19321Y49564D01*
Y49864D01*
Y49664D02*
X19521Y49464D01*
Y49264D02*
Y49065D01*
Y49165D01*
X18921D01*
X19021Y49264D01*
X11749Y19269D02*
X11649Y19369D01*
Y19569D01*
X11749Y19669D01*
X12149D01*
X12249Y19569D01*
Y19369D01*
X12149Y19269D01*
X12249Y19069D02*
Y18869D01*
Y18969D01*
X11649D01*
X11749Y19069D01*
Y18569D02*
X11649Y18469D01*
Y18269D01*
X11749Y18169D01*
X12149D01*
X12249Y18269D01*
Y18469D01*
X12149Y18569D01*
X11749D01*
X11739Y21449D02*
X11639Y21549D01*
Y21749D01*
X11739Y21849D01*
X12139D01*
X12239Y21749D01*
Y21549D01*
X12139Y21449D01*
X12239Y21249D02*
Y21049D01*
Y21149D01*
X11639D01*
X11739Y21249D01*
X12239Y20749D02*
Y20549D01*
Y20649D01*
X11639D01*
X11739Y20749D01*
X12219Y23739D02*
X11619D01*
Y23439D01*
X11719Y23339D01*
X11919D01*
X12019Y23439D01*
Y23739D01*
Y23539D02*
X12219Y23339D01*
Y23139D02*
Y22939D01*
Y23039D01*
X11619D01*
X11719Y23139D01*
X12219Y22339D02*
X11619D01*
X11919Y22639D01*
Y22239D01*
X15310Y18040D02*
X15910Y17640D01*
X15310D02*
X15910Y18040D01*
Y17440D02*
Y17240D01*
Y17340D01*
X15310D01*
X15410Y17440D01*
X16320Y30210D02*
X16920D01*
Y29810D01*
X16320Y29210D02*
Y29610D01*
X16620D01*
X16520Y29410D01*
Y29310D01*
X16620Y29210D01*
X16820D01*
X16920Y29310D01*
Y29510D01*
X16820Y29610D01*
X7560Y38110D02*
X7660Y38210D01*
X7860D01*
X7960Y38110D01*
Y37710D01*
X7860Y37610D01*
X7660D01*
X7560Y37710D01*
X7360Y37610D02*
X7160D01*
X7260D01*
Y38210D01*
X7360Y38110D01*
X23790Y15890D02*
X23890Y15990D01*
X24090D01*
X24190Y15890D01*
Y15490D01*
X24090Y15390D01*
X23890D01*
X23790Y15490D01*
X23190Y15390D02*
X23590D01*
X23190Y15790D01*
Y15890D01*
X23290Y15990D01*
X23490D01*
X23590Y15890D01*
X23970Y13020D02*
X24070Y13120D01*
X24270D01*
X24370Y13020D01*
Y12620D01*
X24270Y12520D01*
X24070D01*
X23970Y12620D01*
X23770Y13020D02*
X23670Y13120D01*
X23470D01*
X23370Y13020D01*
Y12920D01*
X23470Y12820D01*
X23570D01*
X23470D01*
X23370Y12720D01*
Y12620D01*
X23470Y12520D01*
X23670D01*
X23770Y12620D01*
X4110Y45000D02*
X4010Y45100D01*
Y45300D01*
X4110Y45400D01*
X4510D01*
X4610Y45300D01*
Y45100D01*
X4510Y45000D01*
X4610Y44500D02*
X4010D01*
X4310Y44800D01*
Y44400D01*
X7020Y42790D02*
X6920Y42890D01*
Y43090D01*
X7020Y43190D01*
X7420D01*
X7520Y43090D01*
Y42890D01*
X7420Y42790D01*
X6920Y42190D02*
Y42590D01*
X7220D01*
X7120Y42390D01*
Y42290D01*
X7220Y42190D01*
X7420D01*
X7520Y42290D01*
Y42490D01*
X7420Y42590D01*
X20050Y10090D02*
X19950Y10190D01*
Y10390D01*
X20050Y10490D01*
X20450D01*
X20550Y10390D01*
Y10190D01*
X20450Y10090D01*
X19950Y9490D02*
X20050Y9690D01*
X20250Y9890D01*
X20450D01*
X20550Y9790D01*
Y9590D01*
X20450Y9490D01*
X20350D01*
X20250Y9590D01*
Y9890D01*
X5010Y37120D02*
X4910Y37220D01*
Y37420D01*
X5010Y37520D01*
X5410D01*
X5510Y37420D01*
Y37220D01*
X5410Y37120D01*
X4910Y36920D02*
Y36520D01*
X5010D01*
X5410Y36920D01*
X5510D01*
X6030Y33050D02*
X5930Y33150D01*
Y33350D01*
X6030Y33450D01*
X6430D01*
X6530Y33350D01*
Y33150D01*
X6430Y33050D01*
X6030Y32850D02*
X5930Y32750D01*
Y32550D01*
X6030Y32450D01*
X6130D01*
X6230Y32550D01*
X6330Y32450D01*
X6430D01*
X6530Y32550D01*
Y32750D01*
X6430Y32850D01*
X6330D01*
X6230Y32750D01*
X6130Y32850D01*
X6030D01*
X6230Y32750D02*
Y32550D01*
X5150Y23250D02*
X5050Y23350D01*
Y23550D01*
X5150Y23650D01*
X5550D01*
X5650Y23550D01*
Y23350D01*
X5550Y23250D01*
Y23050D02*
X5650Y22950D01*
Y22750D01*
X5550Y22650D01*
X5150D01*
X5050Y22750D01*
Y22950D01*
X5150Y23050D01*
X5250D01*
X5350Y22950D01*
Y22650D01*
X11420Y12600D02*
X11320Y12700D01*
Y12900D01*
X11420Y13000D01*
X11820D01*
X11920Y12900D01*
Y12700D01*
X11820Y12600D01*
X11920Y12400D02*
Y12200D01*
Y12300D01*
X11320D01*
X11420Y12400D01*
Y11900D02*
X11320Y11800D01*
Y11600D01*
X11420Y11500D01*
X11520D01*
X11620Y11600D01*
Y11700D01*
Y11600D01*
X11720Y11500D01*
X11820D01*
X11920Y11600D01*
Y11800D01*
X11820Y11900D01*
X11450Y36660D02*
X11550Y36760D01*
X11750D01*
X11850Y36660D01*
Y36260D01*
X11750Y36160D01*
X11550D01*
X11450Y36260D01*
X11250Y36160D02*
X11050D01*
X11150D01*
Y36760D01*
X11250Y36660D01*
X10450Y36160D02*
Y36760D01*
X10750Y36460D01*
X10350D01*
X9720Y38630D02*
X9820Y38730D01*
X10020D01*
X10120Y38630D01*
Y38230D01*
X10020Y38130D01*
X9820D01*
X9720Y38230D01*
X9520Y38130D02*
X9320D01*
X9420D01*
Y38730D01*
X9520Y38630D01*
X8620Y38730D02*
X9020D01*
Y38430D01*
X8820Y38530D01*
X8720D01*
X8620Y38430D01*
Y38230D01*
X8720Y38130D01*
X8920D01*
X9020Y38230D01*
X18010Y43116D02*
X17910Y43216D01*
Y43416D01*
X18010Y43516D01*
X18410D01*
X18510Y43416D01*
Y43216D01*
X18410Y43116D01*
X18510Y42516D02*
Y42916D01*
X18110Y42516D01*
X18010D01*
X17910Y42616D01*
Y42816D01*
X18010Y42916D01*
X18510Y42016D02*
X17910D01*
X18210Y42316D01*
Y41916D01*
X17010Y5540D02*
X16910Y5640D01*
Y5840D01*
X17010Y5940D01*
X17410D01*
X17510Y5840D01*
Y5640D01*
X17410Y5540D01*
X17510Y4940D02*
Y5340D01*
X17110Y4940D01*
X17010D01*
X16910Y5040D01*
Y5240D01*
X17010Y5340D01*
X16910Y4341D02*
Y4740D01*
X17210D01*
X17110Y4540D01*
Y4440D01*
X17210Y4341D01*
X17410D01*
X17510Y4440D01*
Y4640D01*
X17410Y4740D01*
X15900Y5520D02*
X15800Y5620D01*
Y5820D01*
X15900Y5920D01*
X16300D01*
X16400Y5820D01*
Y5620D01*
X16300Y5520D01*
X16400Y4920D02*
Y5320D01*
X16000Y4920D01*
X15900D01*
X15800Y5020D01*
Y5220D01*
X15900Y5320D01*
X15800Y4321D02*
X15900Y4520D01*
X16100Y4720D01*
X16300D01*
X16400Y4620D01*
Y4420D01*
X16300Y4321D01*
X16200D01*
X16100Y4420D01*
Y4720D01*
X10210Y5940D02*
X10110Y6040D01*
Y6240D01*
X10210Y6340D01*
X10610D01*
X10710Y6240D01*
Y6040D01*
X10610Y5940D01*
X10710Y5340D02*
Y5740D01*
X10310Y5340D01*
X10210D01*
X10110Y5440D01*
Y5640D01*
X10210Y5740D01*
X10110Y5140D02*
Y4741D01*
X10210D01*
X10610Y5140D01*
X10710D01*
X7750Y6840D02*
X7850Y6940D01*
X8050D01*
X8150Y6840D01*
Y6440D01*
X8050Y6340D01*
X7850D01*
X7750Y6440D01*
X7150Y6940D02*
X7550D01*
Y6340D01*
X7150D01*
X7550Y6640D02*
X7350D01*
X6950Y6340D02*
X6750D01*
X6850D01*
Y6940D01*
X6950Y6840D01*
X6420Y4150D02*
X6520Y4250D01*
X6720D01*
X6820Y4150D01*
Y3750D01*
X6720Y3650D01*
X6520D01*
X6420Y3750D01*
X5820Y4250D02*
X6220D01*
Y3650D01*
X5820D01*
X6220Y3950D02*
X6020D01*
X5221Y3650D02*
X5620D01*
X5221Y4050D01*
Y4150D01*
X5320Y4250D01*
X5520D01*
X5620Y4150D01*
X2900Y46400D02*
X3000Y46500D01*
X3200D01*
X3300Y46400D01*
Y46000D01*
X3200Y45900D01*
X3000D01*
X2900Y46000D01*
X2700Y45900D02*
Y46500D01*
X2300Y45900D01*
Y46500D01*
X1800Y45900D02*
Y46500D01*
X2100Y46200D01*
X1701D01*
X23530Y4570D02*
X23630Y4670D01*
X23830D01*
X23930Y4570D01*
Y4170D01*
X23830Y4070D01*
X23630D01*
X23530Y4170D01*
X23330Y4070D02*
Y4670D01*
X22930Y4070D01*
Y4670D01*
X22331D02*
X22530Y4570D01*
X22730Y4370D01*
Y4170D01*
X22630Y4070D01*
X22430D01*
X22331Y4170D01*
Y4270D01*
X22430Y4370D01*
X22730D01*
X7180Y49750D02*
X7080Y49850D01*
Y50050D01*
X7180Y50150D01*
X7580D01*
X7680Y50050D01*
Y49850D01*
X7580Y49750D01*
X7680Y49550D02*
X7080D01*
X7680Y49150D01*
X7080D01*
X7180Y48950D02*
X7080Y48850D01*
Y48650D01*
X7180Y48551D01*
X7280D01*
X7380Y48650D01*
X7480Y48551D01*
X7580D01*
X7680Y48650D01*
Y48850D01*
X7580Y48950D01*
X7480D01*
X7380Y48850D01*
X7280Y48950D01*
X7180D01*
X7380Y48850D02*
Y48650D01*
X4000Y18012D02*
X4100Y18112D01*
X4300D01*
X4400Y18012D01*
Y17612D01*
X4300Y17512D01*
X4100D01*
X4000Y17612D01*
X3800Y17512D02*
Y18112D01*
X3400Y17512D01*
Y18112D01*
X3200Y18012D02*
X3100Y18112D01*
X2900D01*
X2801Y18012D01*
Y17912D01*
X2900Y17812D01*
X3000D01*
X2900D01*
X2801Y17712D01*
Y17612D01*
X2900Y17512D01*
X3100D01*
X3200Y17612D01*
X17780Y49460D02*
X17680Y49560D01*
Y49760D01*
X17780Y49860D01*
X18180D01*
X18280Y49760D01*
Y49560D01*
X18180Y49460D01*
X18280Y49260D02*
X17680D01*
X18280Y48860D01*
X17680D01*
Y48660D02*
Y48261D01*
X17780D01*
X18180Y48660D01*
X18280D01*
X4860Y16200D02*
X4760Y16300D01*
Y16500D01*
X4860Y16600D01*
X5260D01*
X5360Y16500D01*
Y16300D01*
X5260Y16200D01*
X5360Y16000D02*
X4760D01*
X5360Y15600D01*
X4760D01*
X5360Y15001D02*
Y15400D01*
X4960Y15001D01*
X4860D01*
X4760Y15100D01*
Y15300D01*
X4860Y15400D01*
X3940Y3830D02*
X4040Y3930D01*
X4240D01*
X4340Y3830D01*
Y3430D01*
X4240Y3330D01*
X4040D01*
X3940Y3430D01*
X3740Y3330D02*
Y3930D01*
X3340Y3330D01*
Y3930D01*
X3140Y3330D02*
X2940D01*
X3040D01*
Y3930D01*
X3140Y3830D01*
X21607Y8906D02*
Y8307D01*
X21307D01*
X21207Y8407D01*
Y8807D01*
X21307Y8906D01*
X21607D01*
X21008Y8307D02*
X20808D01*
X20908D01*
Y8906D01*
X21008Y8807D01*
X6930Y45140D02*
X7530D01*
Y44740D01*
Y44540D02*
Y44340D01*
Y44440D01*
X6930D01*
X7030Y44540D01*
X5690Y41720D02*
Y41120D01*
X5290D01*
X4690D02*
X5090D01*
X4690Y41520D01*
Y41620D01*
X4790Y41720D01*
X4990D01*
X5090Y41620D01*
X4890Y34230D02*
X5490D01*
Y33830D01*
X4990Y33630D02*
X4890Y33530D01*
Y33330D01*
X4990Y33230D01*
X5090D01*
X5190Y33330D01*
Y33430D01*
Y33330D01*
X5290Y33230D01*
X5390D01*
X5490Y33330D01*
Y33530D01*
X5390Y33630D01*
X7570Y26280D02*
Y25680D01*
X7170D01*
X6670D02*
Y26280D01*
X6970Y25980D01*
X6570D01*
X4830Y6490D02*
X5430D01*
Y6090D01*
X4830Y5490D02*
Y5890D01*
X5430D01*
Y5490D01*
X5130Y5890D02*
Y5690D01*
X4830Y5290D02*
X5430D01*
Y4990D01*
X5330Y4891D01*
X4930D01*
X4830Y4990D01*
Y5290D01*
X5430Y4691D02*
Y4491D01*
Y4591D01*
X4830D01*
X4930Y4691D01*
X15040Y12590D02*
X14640D01*
X14540Y12690D01*
Y12890D01*
X14640Y12990D01*
X15040D01*
X15140Y12890D01*
Y12690D01*
X14940Y12790D02*
X15140Y12590D01*
Y12690D02*
X15040Y12590D01*
X15140Y12390D02*
Y12190D01*
Y12290D01*
X14540D01*
X14640Y12390D01*
X15950Y12590D02*
X15550D01*
X15450Y12690D01*
Y12890D01*
X15550Y12990D01*
X15950D01*
X16050Y12890D01*
Y12690D01*
X15850Y12790D02*
X16050Y12590D01*
Y12690D02*
X15950Y12590D01*
X16050Y11990D02*
Y12390D01*
X15650Y11990D01*
X15550D01*
X15450Y12090D01*
Y12290D01*
X15550Y12390D01*
X12520Y15240D02*
Y15640D01*
X12620Y15740D01*
X12820D01*
X12920Y15640D01*
Y15240D01*
X12820Y15140D01*
X12620D01*
X12720Y15340D02*
X12520Y15140D01*
X12620D02*
X12520Y15240D01*
X12320Y15640D02*
X12220Y15740D01*
X12020D01*
X11920Y15640D01*
Y15540D01*
X12020Y15440D01*
X12120D01*
X12020D01*
X11920Y15340D01*
Y15240D01*
X12020Y15140D01*
X12220D01*
X12320Y15240D01*
X18360Y38680D02*
X17960D01*
X17860Y38780D01*
Y38980D01*
X17960Y39080D01*
X18360D01*
X18460Y38980D01*
Y38780D01*
X18260Y38880D02*
X18460Y38680D01*
Y38780D02*
X18360Y38680D01*
Y38480D02*
X18460Y38380D01*
Y38180D01*
X18360Y38080D01*
X17960D01*
X17860Y38180D01*
Y38380D01*
X17960Y38480D01*
X18060D01*
X18160Y38380D01*
Y38080D01*
X17990Y15240D02*
Y15640D01*
X18090Y15740D01*
X18290D01*
X18390Y15640D01*
Y15240D01*
X18290Y15140D01*
X18090D01*
X18190Y15340D02*
X17990Y15140D01*
X18090D02*
X17990Y15240D01*
X17490Y15140D02*
Y15740D01*
X17790Y15440D01*
X17390D01*
X16620Y15240D02*
Y15640D01*
X16720Y15740D01*
X16920D01*
X17020Y15640D01*
Y15240D01*
X16920Y15140D01*
X16720D01*
X16820Y15340D02*
X16620Y15140D01*
X16720D02*
X16620Y15240D01*
X16020Y15740D02*
X16420D01*
Y15440D01*
X16220Y15540D01*
X16120D01*
X16020Y15440D01*
Y15240D01*
X16120Y15140D01*
X16320D01*
X16420Y15240D01*
X15420Y39590D02*
Y39990D01*
X15520Y40090D01*
X15720D01*
X15820Y39990D01*
Y39590D01*
X15720Y39490D01*
X15520D01*
X15620Y39690D02*
X15420Y39490D01*
X15520D02*
X15420Y39590D01*
X15220Y39490D02*
X15020D01*
X15120D01*
Y40090D01*
X15220Y39990D01*
X14720D02*
X14620Y40090D01*
X14420D01*
X14320Y39990D01*
Y39590D01*
X14420Y39490D01*
X14620D01*
X14720Y39590D01*
Y39990D01*
X15260Y15240D02*
Y15640D01*
X15360Y15740D01*
X15560D01*
X15660Y15640D01*
Y15240D01*
X15560Y15140D01*
X15360D01*
X15460Y15340D02*
X15260Y15140D01*
X15360D02*
X15260Y15240D01*
X14660Y15740D02*
X14860Y15640D01*
X15060Y15440D01*
Y15240D01*
X14960Y15140D01*
X14760D01*
X14660Y15240D01*
Y15340D01*
X14760Y15440D01*
X15060D01*
X13880Y15240D02*
Y15640D01*
X13980Y15740D01*
X14180D01*
X14280Y15640D01*
Y15240D01*
X14180Y15140D01*
X13980D01*
X14080Y15340D02*
X13880Y15140D01*
X13980D02*
X13880Y15240D01*
X13680Y15740D02*
X13280D01*
Y15640D01*
X13680Y15240D01*
Y15140D01*
X18280Y12890D02*
Y13290D01*
X18380Y13390D01*
X18580D01*
X18680Y13290D01*
Y12890D01*
X18580Y12790D01*
X18380D01*
X18480Y12990D02*
X18280Y12790D01*
X18380D02*
X18280Y12890D01*
X18080Y13290D02*
X17980Y13390D01*
X17780D01*
X17680Y13290D01*
Y13190D01*
X17780Y13090D01*
X17680Y12990D01*
Y12890D01*
X17780Y12790D01*
X17980D01*
X18080Y12890D01*
Y12990D01*
X17980Y13090D01*
X18080Y13190D01*
Y13290D01*
X17980Y13090D02*
X17780D01*
X20750Y12220D02*
X20150D01*
Y11920D01*
X20250Y11820D01*
X20450D01*
X20550Y11920D01*
Y12220D01*
Y12020D02*
X20750Y11820D01*
Y11620D02*
Y11420D01*
Y11520D01*
X20150D01*
X20250Y11620D01*
X22460Y14570D02*
Y15170D01*
X22160D01*
X22060Y15070D01*
Y14870D01*
X22160Y14770D01*
X22460D01*
X22260D02*
X22060Y14570D01*
X21460D02*
X21860D01*
X21460Y14970D01*
Y15070D01*
X21560Y15170D01*
X21760D01*
X21860Y15070D01*
X20470Y4450D02*
X19870D01*
Y4150D01*
X19970Y4050D01*
X20170D01*
X20270Y4150D01*
Y4450D01*
Y4250D02*
X20470Y4050D01*
X19970Y3850D02*
X19870Y3750D01*
Y3550D01*
X19970Y3450D01*
X20070D01*
X20170Y3550D01*
Y3650D01*
Y3550D01*
X20270Y3450D01*
X20370D01*
X20470Y3550D01*
Y3750D01*
X20370Y3850D01*
X9800Y41220D02*
Y41820D01*
X9500D01*
X9400Y41720D01*
Y41520D01*
X9500Y41420D01*
X9800D01*
X9600D02*
X9400Y41220D01*
X8900D02*
Y41820D01*
X9200Y41520D01*
X8800D01*
X8940Y43720D02*
Y44320D01*
X8640D01*
X8540Y44220D01*
Y44020D01*
X8640Y43920D01*
X8940D01*
X8740D02*
X8540Y43720D01*
X7940Y44320D02*
X8340D01*
Y44020D01*
X8140Y44120D01*
X8040D01*
X7940Y44020D01*
Y43820D01*
X8040Y43720D01*
X8240D01*
X8340Y43820D01*
X8530Y41220D02*
Y41820D01*
X8230D01*
X8130Y41720D01*
Y41520D01*
X8230Y41420D01*
X8530D01*
X8330D02*
X8130Y41220D01*
X7530Y41820D02*
X7730Y41720D01*
X7930Y41520D01*
Y41320D01*
X7830Y41220D01*
X7630D01*
X7530Y41320D01*
Y41420D01*
X7630Y41520D01*
X7930D01*
X4610Y42760D02*
X4010D01*
Y42460D01*
X4110Y42360D01*
X4310D01*
X4410Y42460D01*
Y42760D01*
Y42560D02*
X4610Y42360D01*
X4010Y42160D02*
Y41760D01*
X4110D01*
X4510Y42160D01*
X4610D01*
X6500Y40950D02*
X5900D01*
Y40650D01*
X6000Y40550D01*
X6200D01*
X6300Y40650D01*
Y40950D01*
Y40750D02*
X6500Y40550D01*
X6000Y40350D02*
X5900Y40250D01*
Y40050D01*
X6000Y39950D01*
X6100D01*
X6200Y40050D01*
X6300Y39950D01*
X6400D01*
X6500Y40050D01*
Y40250D01*
X6400Y40350D01*
X6300D01*
X6200Y40250D01*
X6100Y40350D01*
X6000D01*
X6200Y40250D02*
Y40050D01*
X6610Y37530D02*
X6010D01*
Y37230D01*
X6110Y37130D01*
X6310D01*
X6410Y37230D01*
Y37530D01*
Y37330D02*
X6610Y37130D01*
X6510Y36930D02*
X6610Y36830D01*
Y36630D01*
X6510Y36530D01*
X6110D01*
X6010Y36630D01*
Y36830D01*
X6110Y36930D01*
X6210D01*
X6310Y36830D01*
Y36530D01*
X7580Y33950D02*
X6980D01*
Y33650D01*
X7080Y33550D01*
X7280D01*
X7380Y33650D01*
Y33950D01*
Y33750D02*
X7580Y33550D01*
Y33350D02*
Y33150D01*
Y33250D01*
X6980D01*
X7080Y33350D01*
Y32850D02*
X6980Y32750D01*
Y32550D01*
X7080Y32450D01*
X7480D01*
X7580Y32550D01*
Y32750D01*
X7480Y32850D01*
X7080D01*
X7830Y25280D02*
X7230D01*
Y24980D01*
X7330Y24880D01*
X7530D01*
X7630Y24980D01*
Y25280D01*
Y25080D02*
X7830Y24880D01*
Y24680D02*
Y24480D01*
Y24580D01*
X7230D01*
X7330Y24680D01*
X7830Y24180D02*
Y23980D01*
Y24080D01*
X7230D01*
X7330Y24180D01*
X6910Y12672D02*
X6310D01*
Y12372D01*
X6410Y12272D01*
X6610D01*
X6710Y12372D01*
Y12672D01*
Y12472D02*
X6910Y12272D01*
Y12072D02*
Y11872D01*
Y11972D01*
X6310D01*
X6410Y12072D01*
X6910Y11173D02*
Y11572D01*
X6510Y11173D01*
X6410D01*
X6310Y11272D01*
Y11472D01*
X6410Y11572D01*
X11860Y38130D02*
Y38730D01*
X11560D01*
X11460Y38630D01*
Y38430D01*
X11560Y38330D01*
X11860D01*
X11660D02*
X11460Y38130D01*
X11260D02*
X11060D01*
X11160D01*
Y38730D01*
X11260Y38630D01*
X10360Y38730D02*
X10560Y38630D01*
X10760Y38430D01*
Y38230D01*
X10660Y38130D01*
X10460D01*
X10360Y38230D01*
Y38330D01*
X10460Y38430D01*
X10760D01*
X12800Y41200D02*
Y41800D01*
X12500D01*
X12400Y41700D01*
Y41500D01*
X12500Y41400D01*
X12800D01*
X12600D02*
X12400Y41200D01*
X12200D02*
X12000D01*
X12100D01*
Y41800D01*
X12200Y41700D01*
X11700Y41800D02*
X11300D01*
Y41700D01*
X11700Y41300D01*
Y41200D01*
X18920Y10500D02*
Y11100D01*
X18620D01*
X18520Y11000D01*
Y10800D01*
X18620Y10700D01*
X18920D01*
X18720D02*
X18520Y10500D01*
X18320D02*
X18120D01*
X18220D01*
Y11100D01*
X18320Y11000D01*
X17820D02*
X17720Y11100D01*
X17520D01*
X17420Y11000D01*
Y10900D01*
X17520Y10800D01*
X17420Y10700D01*
Y10600D01*
X17520Y10500D01*
X17720D01*
X17820Y10600D01*
Y10700D01*
X17720Y10800D01*
X17820Y10900D01*
Y11000D01*
X17720Y10800D02*
X17520D01*
X13220Y10490D02*
Y11090D01*
X12920D01*
X12820Y10990D01*
Y10790D01*
X12920Y10690D01*
X13220D01*
X13020D02*
X12820Y10490D01*
X12620D02*
X12420D01*
X12520D01*
Y11090D01*
X12620Y10990D01*
X12120Y10590D02*
X12020Y10490D01*
X11820D01*
X11720Y10590D01*
Y10990D01*
X11820Y11090D01*
X12020D01*
X12120Y10990D01*
Y10890D01*
X12020Y10790D01*
X11720D01*
X13730Y38130D02*
Y38730D01*
X13430D01*
X13330Y38630D01*
Y38430D01*
X13430Y38330D01*
X13730D01*
X13530D02*
X13330Y38130D01*
X12730D02*
X13130D01*
X12730Y38530D01*
Y38630D01*
X12830Y38730D01*
X13030D01*
X13130Y38630D01*
X12530D02*
X12430Y38730D01*
X12230D01*
X12131Y38630D01*
Y38230D01*
X12230Y38130D01*
X12430D01*
X12530Y38230D01*
Y38630D01*
X15130Y11490D02*
X14530D01*
Y11190D01*
X14630Y11090D01*
X14830D01*
X14930Y11190D01*
Y11490D01*
Y11290D02*
X15130Y11090D01*
Y10490D02*
Y10890D01*
X14730Y10490D01*
X14630D01*
X14530Y10590D01*
Y10790D01*
X14630Y10890D01*
X15130Y10290D02*
Y10090D01*
Y10190D01*
X14530D01*
X14630Y10290D01*
X16070Y11490D02*
X15470D01*
Y11190D01*
X15570Y11090D01*
X15770D01*
X15870Y11190D01*
Y11490D01*
Y11290D02*
X16070Y11090D01*
Y10490D02*
Y10890D01*
X15670Y10490D01*
X15570D01*
X15470Y10590D01*
Y10790D01*
X15570Y10890D01*
X16070Y9891D02*
Y10290D01*
X15670Y9891D01*
X15570D01*
X15470Y9990D01*
Y10190D01*
X15570Y10290D01*
X15400Y37560D02*
X14800D01*
Y37260D01*
X14900Y37160D01*
X15100D01*
X15200Y37260D01*
Y37560D01*
Y37360D02*
X15400Y37160D01*
Y36560D02*
Y36960D01*
X15000Y36560D01*
X14900D01*
X14800Y36660D01*
Y36860D01*
X14900Y36960D01*
Y36360D02*
X14800Y36260D01*
Y36060D01*
X14900Y35961D01*
X15000D01*
X15100Y36060D01*
Y36160D01*
Y36060D01*
X15200Y35961D01*
X15300D01*
X15400Y36060D01*
Y36260D01*
X15300Y36360D01*
X17630Y40560D02*
Y41160D01*
X17330D01*
X17230Y41060D01*
Y40860D01*
X17330Y40760D01*
X17630D01*
X17430D02*
X17230Y40560D01*
X16630D02*
X17030D01*
X16630Y40960D01*
Y41060D01*
X16730Y41160D01*
X16930D01*
X17030Y41060D01*
X16130Y40560D02*
Y41160D01*
X16430Y40860D01*
X16031D01*
X18530Y45430D02*
X17930D01*
Y45130D01*
X18030Y45030D01*
X18230D01*
X18330Y45130D01*
Y45430D01*
Y45230D02*
X18530Y45030D01*
Y44430D02*
Y44830D01*
X18130Y44430D01*
X18030D01*
X17930Y44530D01*
Y44730D01*
X18030Y44830D01*
X17930Y43831D02*
Y44230D01*
X18230D01*
X18130Y44030D01*
Y43930D01*
X18230Y43831D01*
X18430D01*
X18530Y43930D01*
Y44130D01*
X18430Y44230D01*
X5400Y8510D02*
X4800D01*
Y8210D01*
X4900Y8110D01*
X5100D01*
X5200Y8210D01*
Y8510D01*
Y8310D02*
X5400Y8110D01*
Y7510D02*
Y7910D01*
X5000Y7510D01*
X4900D01*
X4800Y7610D01*
Y7810D01*
X4900Y7910D01*
X4800Y6911D02*
X4900Y7110D01*
X5100Y7310D01*
X5300D01*
X5400Y7210D01*
Y7010D01*
X5300Y6911D01*
X5200D01*
X5100Y7010D01*
Y7310D01*
X20090Y5820D02*
X19690D01*
X19890D01*
Y5220D01*
X19490D02*
Y5820D01*
X19190D01*
X19090Y5720D01*
Y5520D01*
X19190Y5420D01*
X19490D01*
X18890Y5220D02*
X18690D01*
X18790D01*
Y5820D01*
X18890Y5720D01*
X24420Y17990D02*
X24020D01*
X24220D01*
Y17390D01*
X23820D02*
Y17990D01*
X23520D01*
X23420Y17890D01*
Y17690D01*
X23520Y17590D01*
X23820D01*
X22821Y17390D02*
X23220D01*
X22821Y17790D01*
Y17890D01*
X22920Y17990D01*
X23120D01*
X23220Y17890D01*
X15680Y23610D02*
Y23210D01*
Y23410D01*
X16280D01*
Y23010D02*
X15680D01*
Y22710D01*
X15780Y22610D01*
X15980D01*
X16080Y22710D01*
Y23010D01*
X15780Y22410D02*
X15680Y22310D01*
Y22110D01*
X15780Y22011D01*
X15880D01*
X15980Y22110D01*
Y22210D01*
Y22110D01*
X16080Y22011D01*
X16180D01*
X16280Y22110D01*
Y22310D01*
X16180Y22410D01*
X16780Y2690D02*
Y2290D01*
Y2490D01*
X17380D01*
Y2090D02*
X16780D01*
Y1790D01*
X16880Y1690D01*
X17080D01*
X17180Y1790D01*
Y2090D01*
X17380Y1190D02*
X16780D01*
X17080Y1490D01*
Y1091D01*
X6350Y2350D02*
Y1950D01*
Y2150D01*
X6950D01*
Y1750D02*
X6350D01*
Y1450D01*
X6450Y1350D01*
X6650D01*
X6750Y1450D01*
Y1750D01*
X6350Y751D02*
Y1150D01*
X6650D01*
X6550Y950D01*
Y850D01*
X6650Y751D01*
X6850D01*
X6950Y850D01*
Y1050D01*
X6850Y1150D01*
X4280Y2370D02*
Y1970D01*
Y2170D01*
X4880D01*
Y1770D02*
X4280D01*
Y1470D01*
X4380Y1370D01*
X4580D01*
X4680Y1470D01*
Y1770D01*
X4280Y771D02*
X4380Y970D01*
X4580Y1170D01*
X4780D01*
X4880Y1070D01*
Y870D01*
X4780Y771D01*
X4680D01*
X4580Y870D01*
Y1170D01*
X24410Y12240D02*
Y11740D01*
X24310Y11640D01*
X24110D01*
X24010Y11740D01*
Y12240D01*
X23810Y11640D02*
X23610D01*
X23710D01*
Y12240D01*
X23810Y12140D01*
X22400Y25160D02*
X22900D01*
X23000Y25060D01*
Y24860D01*
X22900Y24760D01*
X22400D01*
X23000Y24160D02*
Y24560D01*
X22600Y24160D01*
X22500D01*
X22400Y24260D01*
Y24460D01*
X22500Y24560D01*
X11230Y16340D02*
Y15840D01*
X11130Y15740D01*
X10930D01*
X10830Y15840D01*
Y16340D01*
X10630Y16240D02*
X10530Y16340D01*
X10330D01*
X10230Y16240D01*
Y16140D01*
X10330Y16040D01*
X10430D01*
X10330D01*
X10230Y15940D01*
Y15840D01*
X10330Y15740D01*
X10530D01*
X10630Y15840D01*
X21460Y45966D02*
Y45466D01*
X21360Y45366D01*
X21160D01*
X21060Y45466D01*
Y45966D01*
X20560Y45366D02*
Y45966D01*
X20860Y45666D01*
X20460D01*
X14020Y5580D02*
Y5080D01*
X13920Y4980D01*
X13720D01*
X13620Y5080D01*
Y5580D01*
X13020D02*
X13420D01*
Y5280D01*
X13220Y5380D01*
X13120D01*
X13020Y5280D01*
Y5080D01*
X13120Y4980D01*
X13320D01*
X13420Y5080D01*
X15890Y2110D02*
X15790Y2210D01*
Y2410D01*
X15890Y2510D01*
X16290D01*
X16390Y2410D01*
Y2210D01*
X16290Y2110D01*
X16390Y1910D02*
X15790D01*
X16390Y1510D01*
X15790D01*
Y911D02*
Y1310D01*
X16090D01*
X15990Y1110D01*
Y1010D01*
X16090Y911D01*
X16290D01*
X16390Y1010D01*
Y1210D01*
X16290Y1310D01*
X2700Y40420D02*
Y40220D01*
Y40320D01*
X2100D01*
X2200Y40420D01*
X2690Y17178D02*
Y16978D01*
Y17078D01*
X2090D01*
X2190Y17178D01*
X15750Y26320D02*
X15350D01*
X15750Y26053D01*
X15350D01*
X15750Y25920D02*
X15350D01*
Y25720D01*
X15417Y25654D01*
X15550D01*
X15617Y25720D01*
Y25920D01*
Y25787D02*
X15750Y25654D01*
X15417Y25254D02*
X15350Y25320D01*
Y25454D01*
X15417Y25520D01*
X15483D01*
X15550Y25454D01*
Y25320D01*
X15617Y25254D01*
X15683D01*
X15750Y25320D01*
Y25454D01*
X15683Y25520D01*
X15350Y25120D02*
Y24854D01*
Y24987D01*
X15750D01*
X24600Y18760D02*
Y18427D01*
X24533Y18360D01*
X24400D01*
X24333Y18427D01*
Y18760D01*
X23934Y18693D02*
X24000Y18760D01*
X24133D01*
X24200Y18693D01*
Y18627D01*
X24133Y18560D01*
X24000D01*
X23934Y18493D01*
Y18427D01*
X24000Y18360D01*
X24133D01*
X24200Y18427D01*
X23800Y18760D02*
Y18360D01*
X23600D01*
X23534Y18427D01*
Y18493D01*
X23600Y18560D01*
X23800D01*
X23600D01*
X23534Y18627D01*
Y18693D01*
X23600Y18760D01*
X23800D01*
X23400Y18293D02*
X23134D01*
X22734Y18693D02*
X22801Y18760D01*
X22934D01*
X23001Y18693D01*
Y18627D01*
X22934Y18560D01*
X22801D01*
X22734Y18493D01*
Y18427D01*
X22801Y18360D01*
X22934D01*
X23001Y18427D01*
X22401Y18760D02*
X22534D01*
X22601Y18693D01*
Y18427D01*
X22534Y18360D01*
X22401D01*
X22334Y18427D01*
Y18693D01*
X22401Y18760D01*
X21934D02*
X22201D01*
Y18560D01*
X22067D01*
X22201D01*
Y18360D01*
X24350Y8560D02*
X24767D01*
X24850Y8477D01*
Y8310D01*
X24767Y8227D01*
X24350D01*
X24433Y7727D02*
X24350Y7810D01*
Y7977D01*
X24433Y8060D01*
X24517D01*
X24600Y7977D01*
Y7810D01*
X24683Y7727D01*
X24767D01*
X24850Y7810D01*
Y7977D01*
X24767Y8060D01*
X24350Y7560D02*
X24850D01*
Y7310D01*
X24767Y7227D01*
X24683D01*
X24600Y7310D01*
Y7560D01*
Y7310D01*
X24517Y7227D01*
X24433D01*
X24350Y7310D01*
Y7560D01*
X20470Y6560D02*
Y6227D01*
X20403Y6160D01*
X20270D01*
X20203Y6227D01*
Y6560D01*
X19804Y6493D02*
X19870Y6560D01*
X20003D01*
X20070Y6493D01*
Y6427D01*
X20003Y6360D01*
X19870D01*
X19804Y6293D01*
Y6227D01*
X19870Y6160D01*
X20003D01*
X20070Y6227D01*
X19670Y6560D02*
Y6160D01*
X19470D01*
X19404Y6227D01*
Y6293D01*
X19470Y6360D01*
X19670D01*
X19470D01*
X19404Y6427D01*
Y6493D01*
X19470Y6560D01*
X19670D01*
X19270Y6093D02*
X19004D01*
X18871Y6560D02*
X18737D01*
X18804D01*
Y6160D01*
X18871D01*
X18737D01*
X18537Y6560D02*
Y6160D01*
X18337D01*
X18271Y6227D01*
Y6493D01*
X18337Y6560D01*
X18537D01*
X2140Y45361D02*
Y45561D01*
Y45461D01*
X2740D01*
X2640Y45361D01*
X640Y31310D02*
X240D01*
Y31510D01*
X307Y31577D01*
X373D01*
X440Y31510D01*
Y31310D01*
Y31510D01*
X507Y31577D01*
X573D01*
X640Y31510D01*
Y31310D01*
Y31710D02*
X240D01*
Y31910D01*
X307Y31976D01*
X373D01*
X440Y31910D01*
Y31710D01*
Y31910D01*
X507Y31976D01*
X573D01*
X640Y31910D01*
Y31710D01*
X573Y32376D02*
X640Y32310D01*
Y32176D01*
X573Y32110D01*
X507D01*
X440Y32176D01*
Y32310D01*
X373Y32376D01*
X307D01*
X240Y32310D01*
Y32176D01*
X307Y32110D01*
X173Y32510D02*
Y32776D01*
X240Y32909D02*
X640D01*
Y33109D01*
X573Y33176D01*
X440D01*
X373Y33109D01*
Y32909D01*
Y33043D02*
X240Y33176D01*
X16630Y47550D02*
X17030D01*
Y47350D01*
X16963Y47283D01*
X16697D01*
X16630Y47350D01*
Y47550D01*
Y47150D02*
Y47017D01*
Y47083D01*
X17030D01*
Y47150D01*
Y47017D01*
X16630Y46617D02*
Y46750D01*
X16697Y46817D01*
X16963D01*
X17030Y46750D01*
Y46617D01*
X16963Y46550D01*
X16697D01*
X16630Y46617D01*
X15617Y47283D02*
X15550Y47350D01*
Y47483D01*
X15617Y47550D01*
X15883D01*
X15950Y47483D01*
Y47350D01*
X15883Y47283D01*
X15750D01*
Y47417D01*
X15950Y47150D02*
X15550D01*
X15950Y46884D01*
X15550D01*
Y46750D02*
X15950D01*
Y46550D01*
X15883Y46484D01*
X15617D01*
X15550Y46550D01*
Y46750D01*
X13547Y47550D02*
X13813D01*
X13946Y47417D01*
X13813Y47283D01*
X13547D01*
Y47150D02*
X13946D01*
Y46950D01*
X13880Y46883D01*
X13613D01*
X13547Y46950D01*
Y47150D01*
Y46750D02*
X13946D01*
Y46550D01*
X13880Y46484D01*
X13613D01*
X13547Y46550D01*
Y46750D01*
X14577Y47283D02*
X14510Y47350D01*
Y47483D01*
X14577Y47550D01*
X14843D01*
X14910Y47483D01*
Y47350D01*
X14843Y47283D01*
X14510Y47150D02*
X14910D01*
Y46884D01*
X14510Y46750D02*
X14910D01*
X14777D01*
X14510Y46484D01*
X14710Y46684D01*
X14910Y46484D01*
X8570Y50380D02*
Y50880D01*
X8670Y50980D01*
X8870D01*
X8970Y50880D01*
Y50380D01*
X9570Y50480D02*
X9470Y50380D01*
X9270D01*
X9170Y50480D01*
Y50580D01*
X9270Y50680D01*
X9470D01*
X9570Y50780D01*
Y50880D01*
X9470Y50980D01*
X9270D01*
X9170Y50880D01*
X9770Y50980D02*
Y50580D01*
X9970Y50380D01*
X10169Y50580D01*
Y50980D01*
Y50680D01*
X9770D01*
X10369Y50980D02*
Y50380D01*
X10669D01*
X10769Y50480D01*
Y50680D01*
X10669Y50780D01*
X10369D01*
X10569D02*
X10769Y50980D01*
X10969Y50380D02*
X11369D01*
X11169D01*
Y50980D01*
X11569D02*
X11769D01*
X11669D01*
Y50380D01*
X11569Y50480D01*
X14890Y50520D02*
X14790Y50420D01*
X14590D01*
X14490Y50520D01*
Y50620D01*
X14590Y50720D01*
X14790D01*
X14890Y50820D01*
Y50920D01*
X14790Y51020D01*
X14590D01*
X14490Y50920D01*
X15090Y50420D02*
Y51020D01*
X15290Y50820D01*
X15490Y51020D01*
Y50420D01*
X15690D02*
Y51020D01*
X15990D01*
X16089Y50920D01*
Y50520D01*
X15990Y50420D01*
X15690D01*
X1030Y43110D02*
Y43510D01*
Y43310D01*
X430D01*
Y43710D02*
Y43910D01*
Y43810D01*
X1030D01*
X930Y43710D01*
X547Y7919D02*
X613Y7853D01*
Y7719D01*
X547Y7653D01*
X280D01*
X214Y7719D01*
Y7853D01*
X280Y7919D01*
X414D01*
Y7786D01*
X214Y8052D02*
X613D01*
X214Y8319D01*
X613D01*
Y8452D02*
X214D01*
Y8652D01*
X280Y8719D01*
X547D01*
X613Y8652D01*
Y8452D01*
X595Y6557D02*
Y6290D01*
X395D01*
X461Y6423D01*
Y6490D01*
X395Y6557D01*
X262D01*
X195Y6490D01*
Y6357D01*
X262Y6290D01*
X595Y6690D02*
X328D01*
X195Y6823D01*
X328Y6957D01*
X595D01*
X195Y4637D02*
Y4370D01*
X461Y4637D01*
X528D01*
X595Y4570D01*
Y4437D01*
X528Y4370D01*
X195Y4970D02*
X595D01*
X395Y4770D01*
Y5037D01*
X595Y5170D02*
X328D01*
X195Y5303D01*
X328Y5436D01*
X595D01*
X610Y14110D02*
X343D01*
X210Y14243D01*
X343Y14377D01*
X610D01*
Y14776D02*
Y14510D01*
X410D01*
Y14643D01*
Y14510D01*
X210D01*
X610Y14910D02*
Y15043D01*
Y14976D01*
X210D01*
Y14910D01*
Y15043D01*
X610Y15243D02*
X210D01*
Y15510D01*
X610Y15643D02*
X210D01*
Y15909D01*
X620Y10820D02*
X220D01*
X420D01*
Y11087D01*
X620D01*
X220D01*
X620Y11486D02*
Y11220D01*
X220D01*
Y11486D01*
X420Y11220D02*
Y11353D01*
X220Y11620D02*
X487D01*
X620Y11753D01*
X487Y11886D01*
X220D01*
X420D01*
Y11620D01*
X620Y12020D02*
Y12286D01*
Y12153D01*
X220D01*
X620Y12686D02*
Y12419D01*
X220D01*
Y12686D01*
X420Y12419D02*
Y12553D01*
X220Y12819D02*
X620D01*
Y13019D01*
X553Y13086D01*
X420D01*
X353Y13019D01*
Y12819D01*
Y12953D02*
X220Y13086D01*
X650Y19990D02*
X383D01*
X250Y20123D01*
X383Y20257D01*
X650D01*
Y20390D02*
X250D01*
Y20590D01*
X317Y20656D01*
X383D01*
X450Y20590D01*
Y20390D01*
Y20590D01*
X517Y20656D01*
X583D01*
X650Y20590D01*
Y20390D01*
X250Y20790D02*
X650D01*
Y20990D01*
X583Y21056D01*
X450D01*
X383Y20990D01*
Y20790D01*
Y20923D02*
X250Y21056D01*
X650Y21190D02*
X250D01*
Y21390D01*
X317Y21456D01*
X383D01*
X450Y21390D01*
Y21190D01*
Y21390D01*
X517Y21456D01*
X583D01*
X650Y21390D01*
Y21190D01*
Y21589D02*
X583D01*
X450Y21723D01*
X583Y21856D01*
X650D01*
X450Y21723D02*
X250D01*
X183Y21989D02*
Y22256D01*
X650Y22389D02*
X250D01*
Y22656D01*
X640Y23560D02*
X240D01*
Y23760D01*
X307Y23827D01*
X373D01*
X440Y23760D01*
Y23560D01*
Y23760D01*
X507Y23827D01*
X573D01*
X640Y23760D01*
Y23560D01*
Y23960D02*
X240D01*
Y24160D01*
X307Y24226D01*
X373D01*
X440Y24160D01*
Y23960D01*
Y24160D01*
X507Y24226D01*
X573D01*
X640Y24160D01*
Y23960D01*
X573Y24626D02*
X640Y24560D01*
Y24426D01*
X573Y24360D01*
X507D01*
X440Y24426D01*
Y24560D01*
X373Y24626D01*
X307D01*
X240Y24560D01*
Y24426D01*
X307Y24360D01*
X173Y24760D02*
Y25026D01*
X640Y25159D02*
X240D01*
Y25426D01*
X2700Y9407D02*
Y9207D01*
Y9307D01*
X2100D01*
X2200Y9407D01*
X650Y27780D02*
X383D01*
X250Y27913D01*
X383Y28047D01*
X650D01*
Y28180D02*
X250D01*
Y28380D01*
X317Y28446D01*
X383D01*
X450Y28380D01*
Y28180D01*
Y28380D01*
X517Y28446D01*
X583D01*
X650Y28380D01*
Y28180D01*
X250Y28580D02*
X650D01*
Y28780D01*
X583Y28846D01*
X450D01*
X383Y28780D01*
Y28580D01*
Y28713D02*
X250Y28846D01*
X650Y28980D02*
X250D01*
Y29180D01*
X317Y29246D01*
X383D01*
X450Y29180D01*
Y28980D01*
Y29180D01*
X517Y29246D01*
X583D01*
X650Y29180D01*
Y28980D01*
Y29379D02*
X583D01*
X450Y29513D01*
X583Y29646D01*
X650D01*
X450Y29513D02*
X250D01*
X183Y29779D02*
Y30046D01*
X250Y30179D02*
X650D01*
Y30379D01*
X583Y30446D01*
X450D01*
X383Y30379D01*
Y30179D01*
Y30313D02*
X250Y30446D01*
X620Y37770D02*
X220D01*
Y38037D01*
X620Y38170D02*
X220D01*
Y38436D01*
X553Y38836D02*
X620Y38770D01*
Y38636D01*
X553Y38570D01*
X287D01*
X220Y38636D01*
Y38770D01*
X287Y38836D01*
X200Y18717D02*
Y18450D01*
X467Y18717D01*
X533D01*
X600Y18650D01*
Y18517D01*
X533Y18450D01*
X200Y19050D02*
X600D01*
X400Y18850D01*
Y19116D01*
X600Y19250D02*
X333D01*
X200Y19383D01*
X333Y19516D01*
X600D01*
X210Y26497D02*
Y26230D01*
X477Y26497D01*
X543D01*
X610Y26430D01*
Y26297D01*
X543Y26230D01*
X210Y26830D02*
X610D01*
X410Y26630D01*
Y26896D01*
X610Y27030D02*
X343D01*
X210Y27163D01*
X343Y27296D01*
X610D01*
X-4952Y-6455D02*
X40728D01*
X-4952Y-8305D02*
Y-6455D01*
Y-8305D02*
X40728D01*
Y-6455D01*
Y-5505D02*
Y-3655D01*
X-4952Y-5505D02*
X40728D01*
X-4952D02*
Y-3655D01*
X40728D01*
X4528Y-7021D02*
Y-7878D01*
X4570Y-7021D02*
Y-7878D01*
X4528Y-7021D02*
X4742D01*
X4528Y-7878D02*
X4742D01*
X4857Y-7107D02*
X4943Y-7064D01*
X5072Y-6935D01*
Y-7835D01*
X5774Y-6935D02*
X5646Y-6978D01*
X5560Y-7107D01*
X5517Y-7321D01*
Y-7449D01*
X5560Y-7664D01*
X5646Y-7792D01*
X5774Y-7835D01*
X5860D01*
X5989Y-7792D01*
X6074Y-7664D01*
X6117Y-7449D01*
Y-7321D01*
X6074Y-7107D01*
X5989Y-6978D01*
X5860Y-6935D01*
X5774D01*
X6833D02*
X6404D01*
X6361Y-7321D01*
X6404Y-7278D01*
X6533Y-7235D01*
X6661D01*
X6790Y-7278D01*
X6876Y-7364D01*
X6918Y-7492D01*
Y-7578D01*
X6876Y-7706D01*
X6790Y-7792D01*
X6661Y-7835D01*
X6533D01*
X6404Y-7792D01*
X6361Y-7749D01*
X6319Y-7664D01*
X7120Y-7107D02*
X7206Y-7064D01*
X7334Y-6935D01*
Y-7835D01*
X7823Y-7749D02*
X7780Y-7792D01*
X7823Y-7835D01*
X7865Y-7792D01*
X7823Y-7749D01*
X8320Y-6935D02*
X8191Y-6978D01*
X8105Y-7107D01*
X8063Y-7321D01*
Y-7449D01*
X8105Y-7664D01*
X8191Y-7792D01*
X8320Y-7835D01*
X8405D01*
X8534Y-7792D01*
X8620Y-7664D01*
X8662Y-7449D01*
Y-7321D01*
X8620Y-7107D01*
X8534Y-6978D01*
X8405Y-6935D01*
X8320D01*
X9121D02*
X8992Y-6978D01*
X8907Y-7107D01*
X8864Y-7321D01*
Y-7449D01*
X8907Y-7664D01*
X8992Y-7792D01*
X9121Y-7835D01*
X9207D01*
X9335Y-7792D01*
X9421Y-7664D01*
X9464Y-7449D01*
Y-7321D01*
X9421Y-7107D01*
X9335Y-6978D01*
X9207Y-6935D01*
X9121D01*
X9922D02*
X9794Y-6978D01*
X9708Y-7107D01*
X9665Y-7321D01*
Y-7449D01*
X9708Y-7664D01*
X9794Y-7792D01*
X9922Y-7835D01*
X10008D01*
X10136Y-7792D01*
X10222Y-7664D01*
X10265Y-7449D01*
Y-7321D01*
X10222Y-7107D01*
X10136Y-6978D01*
X10008Y-6935D01*
X9922D01*
X10895D02*
X10466Y-7535D01*
X11109D01*
X10895Y-6935D02*
Y-7835D01*
X11268Y-7107D02*
X11353Y-7064D01*
X11482Y-6935D01*
Y-7835D01*
X11970Y-7749D02*
X11927Y-7792D01*
X11970Y-7835D01*
X12013Y-7792D01*
X11970Y-7749D01*
X12467Y-6935D02*
X12339Y-6978D01*
X12253Y-7107D01*
X12210Y-7321D01*
Y-7449D01*
X12253Y-7664D01*
X12339Y-7792D01*
X12467Y-7835D01*
X12553D01*
X12682Y-7792D01*
X12767Y-7664D01*
X12810Y-7449D01*
Y-7321D01*
X12767Y-7107D01*
X12682Y-6978D01*
X12553Y-6935D01*
X12467D01*
X13269D02*
X13140Y-6978D01*
X13054Y-7107D01*
X13011Y-7321D01*
Y-7449D01*
X13054Y-7664D01*
X13140Y-7792D01*
X13269Y-7835D01*
X13354D01*
X13483Y-7792D01*
X13568Y-7664D01*
X13611Y-7449D01*
Y-7321D01*
X13568Y-7107D01*
X13483Y-6978D01*
X13354Y-6935D01*
X13269D01*
X13813Y-8135D02*
X14498D01*
X14871Y-6935D02*
X14743Y-6978D01*
X14657Y-7107D01*
X14614Y-7321D01*
Y-7449D01*
X14657Y-7664D01*
X14743Y-7792D01*
X14871Y-7835D01*
X14957D01*
X15085Y-7792D01*
X15171Y-7664D01*
X15214Y-7449D01*
Y-7321D01*
X15171Y-7107D01*
X15085Y-6978D01*
X14957Y-6935D01*
X14871D01*
X15415Y-7449D02*
X16186D01*
X17138Y-7835D02*
X16795Y-6935D01*
X16452Y-7835D01*
X16581Y-7535D02*
X17009D01*
X17391Y-7749D02*
X17348Y-7792D01*
X17391Y-7835D01*
X17433Y-7792D01*
X17391Y-7749D01*
X17716Y-6935D02*
X18187D01*
X17930Y-7278D01*
X18059D01*
X18145Y-7321D01*
X18187Y-7364D01*
X18230Y-7492D01*
Y-7578D01*
X18187Y-7706D01*
X18102Y-7792D01*
X17973Y-7835D01*
X17845D01*
X17716Y-7792D01*
X17673Y-7749D01*
X17630Y-7664D01*
X18603Y-7021D02*
Y-7878D01*
X18646Y-7021D02*
Y-7878D01*
X18432Y-7021D02*
X18646D01*
X18432Y-7878D02*
X18646D01*
X20159Y-7149D02*
X20116Y-7064D01*
X20030Y-6978D01*
X19944Y-6935D01*
X19773D01*
X19687Y-6978D01*
X19601Y-7064D01*
X19559Y-7149D01*
X19516Y-7278D01*
Y-7492D01*
X19559Y-7621D01*
X19601Y-7706D01*
X19687Y-7792D01*
X19773Y-7835D01*
X19944D01*
X20030Y-7792D01*
X20116Y-7706D01*
X20159Y-7621D01*
X20411Y-6935D02*
Y-7835D01*
Y-6935D02*
X20797D01*
X20925Y-6978D01*
X20968Y-7021D01*
X21011Y-7107D01*
Y-7192D01*
X20968Y-7278D01*
X20925Y-7321D01*
X20797Y-7364D01*
X20411D02*
X20797D01*
X20925Y-7407D01*
X20968Y-7449D01*
X21011Y-7535D01*
Y-7664D01*
X20968Y-7749D01*
X20925Y-7792D01*
X20797Y-7835D01*
X20411D01*
X21812Y-7064D02*
X21727Y-6978D01*
X21598Y-6935D01*
X21427D01*
X21298Y-6978D01*
X21213Y-7064D01*
Y-7149D01*
X21255Y-7235D01*
X21298Y-7278D01*
X21384Y-7321D01*
X21641Y-7407D01*
X21727Y-7449D01*
X21770Y-7492D01*
X21812Y-7578D01*
Y-7706D01*
X21727Y-7792D01*
X21598Y-7835D01*
X21427D01*
X21298Y-7792D01*
X21213Y-7706D01*
X22057Y-7149D02*
Y-7107D01*
X22100Y-7021D01*
X22142Y-6978D01*
X22228Y-6935D01*
X22399D01*
X22485Y-6978D01*
X22528Y-7021D01*
X22571Y-7107D01*
Y-7192D01*
X22528Y-7278D01*
X22442Y-7407D01*
X22014Y-7835D01*
X22614D01*
X22815Y-7107D02*
X22901Y-7064D01*
X23029Y-6935D01*
Y-7835D01*
X23732Y-6935D02*
X23603Y-6978D01*
X23518Y-7107D01*
X23475Y-7321D01*
Y-7449D01*
X23518Y-7664D01*
X23603Y-7792D01*
X23732Y-7835D01*
X23818D01*
X23946Y-7792D01*
X24032Y-7664D01*
X24075Y-7449D01*
Y-7321D01*
X24032Y-7107D01*
X23946Y-6978D01*
X23818Y-6935D01*
X23732D01*
X24533D02*
X24405Y-6978D01*
X24319Y-7107D01*
X24276Y-7321D01*
Y-7449D01*
X24319Y-7664D01*
X24405Y-7792D01*
X24533Y-7835D01*
X24619D01*
X24748Y-7792D01*
X24833Y-7664D01*
X24876Y-7449D01*
Y-7321D01*
X24833Y-7107D01*
X24748Y-6978D01*
X24619Y-6935D01*
X24533D01*
X25634D02*
X25077D01*
Y-7835D01*
X25634D01*
X25077Y-7364D02*
X25420D01*
X26341Y-6935D02*
X25784D01*
Y-7835D01*
X26341D01*
X25784Y-7364D02*
X26127D01*
X26534Y-7749D02*
X26491Y-7792D01*
X26534Y-7835D01*
X26577Y-7792D01*
X26534Y-7749D01*
X27417Y-7149D02*
X27374Y-7064D01*
X27288Y-6978D01*
X27203Y-6935D01*
X27031D01*
X26946Y-6978D01*
X26860Y-7064D01*
X26817Y-7149D01*
X26774Y-7278D01*
Y-7492D01*
X26817Y-7621D01*
X26860Y-7706D01*
X26946Y-7792D01*
X27031Y-7835D01*
X27203D01*
X27288Y-7792D01*
X27374Y-7706D01*
X27417Y-7621D01*
Y-7492D01*
X27203D02*
X27417D01*
X27623Y-6935D02*
Y-7835D01*
Y-6935D02*
X28008D01*
X28137Y-6978D01*
X28180Y-7021D01*
X28222Y-7107D01*
Y-7192D01*
X28180Y-7278D01*
X28137Y-7321D01*
X28008Y-7364D01*
X27623D02*
X28008D01*
X28137Y-7407D01*
X28180Y-7449D01*
X28222Y-7535D01*
Y-7664D01*
X28180Y-7749D01*
X28137Y-7792D01*
X28008Y-7835D01*
X27623D01*
X28681Y-6935D02*
X28595Y-6978D01*
X28510Y-7064D01*
X28467Y-7149D01*
X28424Y-7278D01*
Y-7492D01*
X28467Y-7621D01*
X28510Y-7706D01*
X28595Y-7792D01*
X28681Y-7835D01*
X28852D01*
X28938Y-7792D01*
X29024Y-7706D01*
X29067Y-7621D01*
X29109Y-7492D01*
Y-7278D01*
X29067Y-7149D01*
X29024Y-7064D01*
X28938Y-6978D01*
X28852Y-6935D01*
X28681D01*
X-4462Y-7407D02*
X-4077D01*
X-3948Y-7364D01*
X-3905Y-7321D01*
X-3863Y-7235D01*
Y-7107D01*
X-3905Y-7021D01*
X-3948Y-6978D01*
X-4077Y-6935D01*
X-4462D01*
Y-7835D01*
X-3661Y-6935D02*
Y-7835D01*
X-3147D01*
X-2791Y-6935D02*
X-2877Y-6978D01*
X-2963Y-7064D01*
X-3006Y-7149D01*
X-3048Y-7278D01*
Y-7492D01*
X-3006Y-7621D01*
X-2963Y-7706D01*
X-2877Y-7792D01*
X-2791Y-7835D01*
X-2620D01*
X-2534Y-7792D01*
X-2449Y-7706D01*
X-2406Y-7621D01*
X-2363Y-7492D01*
Y-7278D01*
X-2406Y-7149D01*
X-2449Y-7064D01*
X-2534Y-6978D01*
X-2620Y-6935D01*
X-2791D01*
X-1853D02*
Y-7835D01*
X-2153Y-6935D02*
X-1553D01*
X-739D02*
Y-7835D01*
Y-6935D02*
X-182D01*
X-739Y-7364D02*
X-396D01*
X-79Y-6935D02*
Y-7835D01*
X109Y-6935D02*
Y-7835D01*
X624D01*
X1279Y-6935D02*
X722D01*
Y-7835D01*
X1279D01*
X722Y-7364D02*
X1065D01*
X1472Y-7235D02*
X1429Y-7278D01*
X1472Y-7321D01*
X1515Y-7278D01*
X1472Y-7235D01*
Y-7749D02*
X1429Y-7792D01*
X1472Y-7835D01*
X1515Y-7792D01*
X1472Y-7749D01*
X-4462Y-4135D02*
Y-5035D01*
X-3948D01*
X-3164D02*
X-3507Y-4135D01*
X-3850Y-5035D01*
X-3721Y-4735D02*
X-3293D01*
X-2954Y-4135D02*
X-2611Y-4564D01*
Y-5035D01*
X-2269Y-4135D02*
X-2611Y-4564D01*
X-1596Y-4135D02*
X-2153D01*
Y-5035D01*
X-1596D01*
X-2153Y-4564D02*
X-1810D01*
X-1446Y-4135D02*
Y-5035D01*
Y-4135D02*
X-1060D01*
X-932Y-4178D01*
X-889Y-4221D01*
X-846Y-4307D01*
Y-4392D01*
X-889Y-4478D01*
X-932Y-4521D01*
X-1060Y-4564D01*
X-1446D01*
X-1146D02*
X-846Y-5035D01*
X62Y-4135D02*
Y-5035D01*
Y-4135D02*
X662Y-5035D01*
Y-4135D02*
Y-5035D01*
X1596D02*
X1253Y-4135D01*
X911Y-5035D01*
X1039Y-4735D02*
X1468D01*
X1806Y-4135D02*
Y-5035D01*
Y-4135D02*
X2149Y-5035D01*
X2492Y-4135D02*
X2149Y-5035D01*
X2492Y-4135D02*
Y-5035D01*
X3306Y-4135D02*
X2749D01*
Y-5035D01*
X3306D01*
X2749Y-4564D02*
X3092D01*
X3499Y-4435D02*
X3456Y-4478D01*
X3499Y-4521D01*
X3542Y-4478D01*
X3499Y-4435D01*
Y-4949D02*
X3456Y-4992D01*
X3499Y-5035D01*
X3542Y-4992D01*
X3499Y-4949D01*
X4528Y-4135D02*
Y-5035D01*
Y-4135D02*
X4913D01*
X5042Y-4178D01*
X5085Y-4221D01*
X5127Y-4307D01*
Y-4392D01*
X5085Y-4478D01*
X5042Y-4521D01*
X4913Y-4564D01*
X4528D02*
X4913D01*
X5042Y-4607D01*
X5085Y-4649D01*
X5127Y-4735D01*
Y-4864D01*
X5085Y-4949D01*
X5042Y-4992D01*
X4913Y-5035D01*
X4528D01*
X5543Y-4435D02*
X5457Y-4478D01*
X5372Y-4564D01*
X5329Y-4692D01*
Y-4778D01*
X5372Y-4906D01*
X5457Y-4992D01*
X5543Y-5035D01*
X5672D01*
X5757Y-4992D01*
X5843Y-4906D01*
X5886Y-4778D01*
Y-4692D01*
X5843Y-4564D01*
X5757Y-4478D01*
X5672Y-4435D01*
X5543D01*
X6211Y-4135D02*
Y-4864D01*
X6254Y-4992D01*
X6340Y-5035D01*
X6426D01*
X6083Y-4435D02*
X6383D01*
X6683Y-4135D02*
Y-4864D01*
X6726Y-4992D01*
X6811Y-5035D01*
X6897D01*
X6554Y-4435D02*
X6854D01*
X7240D02*
X7154Y-4478D01*
X7068Y-4564D01*
X7026Y-4692D01*
Y-4778D01*
X7068Y-4906D01*
X7154Y-4992D01*
X7240Y-5035D01*
X7368D01*
X7454Y-4992D01*
X7540Y-4906D01*
X7583Y-4778D01*
Y-4692D01*
X7540Y-4564D01*
X7454Y-4478D01*
X7368Y-4435D01*
X7240D01*
X7780D02*
Y-5035D01*
Y-4607D02*
X7908Y-4478D01*
X7994Y-4435D01*
X8123D01*
X8208Y-4478D01*
X8251Y-4607D01*
Y-5035D01*
Y-4607D02*
X8380Y-4478D01*
X8465Y-4435D01*
X8594D01*
X8680Y-4478D01*
X8722Y-4607D01*
Y-5035D01*
X9969Y-4135D02*
X9884Y-4178D01*
X9798Y-4264D01*
X9755Y-4349D01*
X9712Y-4478D01*
Y-4692D01*
X9755Y-4821D01*
X9798Y-4906D01*
X9884Y-4992D01*
X9969Y-5035D01*
X10141D01*
X10226Y-4992D01*
X10312Y-4906D01*
X10355Y-4821D01*
X10398Y-4692D01*
Y-4478D01*
X10355Y-4349D01*
X10312Y-4264D01*
X10226Y-4178D01*
X10141Y-4135D01*
X9969D01*
X10608Y-4435D02*
X10865Y-5035D01*
X11122Y-4435D02*
X10865Y-5035D01*
X11268Y-4692D02*
X11782D01*
Y-4607D01*
X11739Y-4521D01*
X11696Y-4478D01*
X11610Y-4435D01*
X11482D01*
X11396Y-4478D01*
X11310Y-4564D01*
X11268Y-4692D01*
Y-4778D01*
X11310Y-4906D01*
X11396Y-4992D01*
X11482Y-5035D01*
X11610D01*
X11696Y-4992D01*
X11782Y-4906D01*
X11975Y-4435D02*
Y-5035D01*
Y-4692D02*
X12017Y-4564D01*
X12103Y-4478D01*
X12189Y-4435D01*
X12317D01*
X12399Y-4135D02*
Y-5035D01*
X13101Y-4435D02*
Y-5035D01*
Y-4564D02*
X13016Y-4478D01*
X12930Y-4435D01*
X12802D01*
X12716Y-4478D01*
X12630Y-4564D01*
X12587Y-4692D01*
Y-4778D01*
X12630Y-4906D01*
X12716Y-4992D01*
X12802Y-5035D01*
X12930D01*
X13016Y-4992D01*
X13101Y-4906D01*
X13384Y-4435D02*
X13641Y-5035D01*
X13898Y-4435D02*
X13641Y-5035D01*
X13556Y-5206D01*
X13470Y-5292D01*
X13384Y-5335D01*
X13341D01*
D11*
X1170Y26247D02*
Y33647D01*
Y18452D02*
Y25852D01*
X1140Y36775D02*
Y39850D01*
X1170Y10458D02*
Y16648D01*
X1140Y4217D02*
Y8837D01*
D30*
X4400Y26197D02*
Y33697D01*
X860Y26197D02*
Y33697D01*
Y26197D02*
X1650D01*
X3150D02*
X4400D01*
X860Y33697D02*
X1450D01*
X3350D02*
X4400D01*
Y18402D02*
Y25902D01*
X860Y18402D02*
Y25902D01*
Y18402D02*
X1650D01*
X3150D02*
X4400D01*
X860Y25902D02*
X1450D01*
X3350D02*
X4400D01*
X850Y39900D02*
X4400D01*
X850Y36725D02*
Y39900D01*
Y36725D02*
X4400D01*
Y39900D01*
X860Y16698D02*
X4400D01*
X860Y10408D02*
Y16698D01*
Y10408D02*
X4400D01*
Y16698D01*
X17200Y12031D02*
X17400D01*
X16800Y12931D02*
X16850D01*
X16250Y12031D02*
X16450D01*
X17400D02*
Y12481D01*
X16250Y12031D02*
Y12481D01*
X14150Y12031D02*
X14350D01*
X13750Y12931D02*
X13800D01*
X13200Y12031D02*
X13400D01*
X14350D02*
Y12481D01*
X13200Y12031D02*
Y12481D01*
X15820Y38609D02*
Y39059D01*
X14670Y38609D02*
Y39059D01*
X15620D02*
X15820D01*
X15220Y38159D02*
X15270D01*
X14670Y39059D02*
X14870D01*
X4400Y4167D02*
Y8887D01*
X850Y4167D02*
X4400D01*
X850D02*
Y8887D01*
X4400D01*
X17620Y12409D02*
X17820D01*
X18170Y11509D02*
X18220D01*
X18570Y12409D02*
X18770D01*
X17620Y11959D02*
Y12409D01*
X18770Y11959D02*
Y12409D01*
X12810Y13831D02*
X13010D01*
X12410Y14731D02*
X12460D01*
X11860Y13831D02*
X12060D01*
X13010D02*
Y14281D01*
X11860Y13831D02*
Y14281D01*
X14170Y13831D02*
X14370D01*
X13770Y14731D02*
X13820D01*
X13220Y13831D02*
X13420D01*
X14370D02*
Y14281D01*
X13220Y13831D02*
Y14281D01*
X15530Y13831D02*
X15730D01*
X15130Y14731D02*
X15180D01*
X14580Y13831D02*
X14780D01*
X15730D02*
Y14281D01*
X14580Y13831D02*
Y14281D01*
X16900Y13831D02*
X17100D01*
X16500Y14731D02*
X16550D01*
X15950Y13831D02*
X16150D01*
X17100D02*
Y14281D01*
X15950Y13831D02*
Y14281D01*
X18270Y13831D02*
X18470D01*
X17870Y14731D02*
X17920D01*
X17320Y13831D02*
X17520D01*
X18470D02*
Y14281D01*
X17320Y13831D02*
Y14281D01*
X6930Y29049D02*
Y29499D01*
X5780Y29049D02*
Y29499D01*
X6730D02*
X6930D01*
X6330Y28599D02*
X6380D01*
X5780Y29499D02*
X5980D01*
X6860Y21249D02*
Y21699D01*
X5710Y21249D02*
Y21699D01*
X6660D02*
X6860D01*
X6260Y20799D02*
X6310D01*
X5710Y21699D02*
X5910D01*
D90*
X23408Y11468D02*
G03*
X23408Y11468I-49J0D01*
G01*
X20341Y7822D02*
G03*
X20341Y7822I-49J0D01*
G01*
X13927Y4053D02*
G03*
X13927Y4053I-49J0D01*
G01*
X19865Y44588D02*
G03*
X19865Y44588I-49J0D01*
G01*
X11577Y5929D02*
G03*
X11577Y5929I-49J0D01*
G01*
X9923Y15525D02*
G03*
X9923Y15525I-49J0D01*
G01*
X17094Y22748D02*
G03*
X17094Y22748I-49J0D01*
G01*
D91*
X19916Y43371D02*
G03*
X19916Y43621I0J125D01*
G01*
X8706Y15418D02*
G03*
X8994Y15418I144J0D01*
G01*
X4746Y21193D02*
X5454D01*
Y21857D01*
X4746Y21193D02*
Y21857D01*
Y28943D02*
X5454D01*
Y29607D01*
X4746Y28943D02*
Y29607D01*
X3930Y9210D02*
X6680Y9210D01*
X3930Y9210D02*
Y10110D01*
X6680D01*
Y9210D02*
Y10110D01*
X22069Y12088D02*
X23211D01*
X22069Y11852D02*
X23211D01*
X22069D02*
Y12088D01*
X23211Y11852D02*
Y12088D01*
X21395Y6838D02*
X21572D01*
X20548D02*
X20725D01*
X20548D02*
Y7478D01*
X21572Y6838D02*
Y7478D01*
X10453Y2931D02*
X14547D01*
X14867Y730D02*
Y1337D01*
X14867Y1337D02*
X15000D01*
X15000Y1337D02*
Y1829D01*
X14867Y730D02*
X15256D01*
Y215D02*
Y730D01*
X9744Y215D02*
Y730D01*
X10133D01*
X10000Y1337D02*
Y1829D01*
X10000Y1337D02*
X10133D01*
X10133Y730D02*
Y1337D01*
X9744Y215D02*
X15256D01*
X21884Y42925D02*
Y44067D01*
X19916Y42925D02*
X21884D01*
X19916D02*
Y43371D01*
Y43621D02*
Y44067D01*
X21884D01*
X12256Y5911D02*
X12453D01*
X12256D02*
Y8549D01*
X12453D01*
X10080Y39010D02*
Y41010D01*
X14080D01*
Y40010D02*
Y41010D01*
Y39010D02*
Y40010D01*
X10080Y39010D02*
X14080D01*
X16093Y37733D02*
Y39347D01*
X17667D01*
Y37733D02*
Y39347D01*
X16093Y37733D02*
X17667D01*
X8417Y11481D02*
Y15418D01*
X9283Y11481D02*
Y15418D01*
X8417Y11481D02*
X9283D01*
X8417Y15418D02*
X8706D01*
X8994D02*
X9283D01*
X6010Y3410D02*
X6010Y660D01*
X5110D02*
X6010D01*
X5110D02*
Y3410D01*
X6010D01*
X7220D02*
X8120D01*
X7220Y660D02*
Y3410D01*
Y660D02*
X8120D01*
X8120Y3410D02*
X8120Y660D01*
X18490Y3770D02*
X18490Y1020D01*
X17590D02*
X18490D01*
X17590D02*
Y3770D01*
X18490D01*
X17616Y26134D02*
X20884D01*
X17616Y22866D02*
X20884D01*
Y26134D01*
X17616Y22866D02*
Y26134D01*
X21878Y4943D02*
X24178D01*
Y10793D01*
X21878Y4943D02*
Y10793D01*
X24178D01*
X5300Y9360D02*
X5700D01*
X5300Y9760D01*
Y9860D01*
X5400Y9960D01*
X5600D01*
X5700Y9860D01*
X4800Y9360D02*
Y9960D01*
X5100Y9660D01*
X4700D01*
X4500Y9960D02*
Y9560D01*
X4300Y9360D01*
X4101Y9560D01*
Y9960D01*
X5360Y2030D02*
X5260Y2130D01*
Y2330D01*
X5360Y2430D01*
X5760D01*
X5860Y2330D01*
Y2130D01*
X5760Y2030D01*
X5560D01*
Y2230D01*
X5860Y1830D02*
X5260D01*
X5860Y1430D01*
X5260D01*
Y1230D02*
X5860D01*
Y930D01*
X5760Y831D01*
X5360D01*
X5260Y930D01*
Y1230D01*
X7370Y2030D02*
Y2430D01*
X7670D01*
X7570Y2230D01*
Y2130D01*
X7670Y2030D01*
X7870D01*
X7970Y2130D01*
Y2330D01*
X7870Y2430D01*
X7370Y1830D02*
X7770D01*
X7970Y1630D01*
X7770Y1430D01*
X7370D01*
X7470Y1230D02*
X7370Y1130D01*
Y930D01*
X7470Y831D01*
X7870D01*
X7970Y930D01*
Y1130D01*
X7870Y1230D01*
X7470D01*
X17840Y2790D02*
X17740Y2690D01*
Y2490D01*
X17840Y2390D01*
X17940D01*
X18040Y2490D01*
Y2590D01*
Y2490D01*
X18140Y2390D01*
X18240D01*
X18340Y2490D01*
Y2690D01*
X18240Y2790D01*
X17740Y2190D02*
X18140D01*
X18340Y1990D01*
X18140Y1790D01*
X17740D01*
X17840Y1590D02*
X17740Y1490D01*
Y1290D01*
X17840Y1191D01*
X17940D01*
X18040Y1290D01*
Y1390D01*
Y1290D01*
X18140Y1191D01*
X18240D01*
X18340Y1290D01*
Y1490D01*
X18240Y1590D01*
D92*
X8670Y5060D02*
G03*
X8670Y5060I-1000J0D01*
G01*
X10900Y8930D02*
G03*
X10900Y8930I-2000J0D01*
G01*
X6920Y4710D02*
X7320D01*
X7120Y4510D02*
Y4910D01*
D93*
X6170Y5970D02*
G03*
X6170Y5970I-130J0D01*
G01*
X22695Y14330D02*
X23330D01*
X22695Y15230D02*
X23330D01*
X23630D02*
X24265D01*
X23630Y14330D02*
X24265D01*
X22695D02*
Y15230D01*
X24265Y14330D02*
Y15230D01*
X22505Y13480D02*
Y14380D01*
X20935Y13480D02*
Y14380D01*
X21870Y13480D02*
X22505D01*
X21870Y14380D02*
X22505D01*
X20935D02*
X21570D01*
X20935Y13480D02*
X21570D01*
X22695Y13250D02*
X23330D01*
X22695Y14150D02*
X23330D01*
X23630D02*
X24265D01*
X23630Y13250D02*
X24265D01*
X22695D02*
Y14150D01*
X24265Y13250D02*
Y14150D01*
X20900Y12605D02*
X21800D01*
X20900Y11035D02*
X21800D01*
Y11970D02*
Y12605D01*
X20900Y11970D02*
Y12605D01*
Y11035D02*
Y11670D01*
X21800Y11035D02*
Y11670D01*
X21620Y9205D02*
Y9840D01*
X20720Y9205D02*
Y9840D01*
Y10140D02*
Y10775D01*
X21620Y10140D02*
Y10775D01*
X20720Y9205D02*
X21620D01*
X20720Y10775D02*
X21620D01*
X20640Y4755D02*
X21540D01*
X20640Y3185D02*
X21540D01*
Y4120D02*
Y4755D01*
X20640Y4120D02*
Y4755D01*
Y3185D02*
Y3820D01*
X21540Y3185D02*
Y3820D01*
X12070Y12420D02*
Y13055D01*
X12970Y12420D02*
Y13055D01*
Y11485D02*
Y12120D01*
X12070Y11485D02*
Y12120D01*
Y13055D02*
X12970D01*
X12070Y11485D02*
X12970D01*
X11725Y9430D02*
Y10330D01*
X13295Y9430D02*
Y10330D01*
X11725D02*
X12360D01*
X11725Y9430D02*
X12360D01*
X12660D02*
X13295D01*
X12660Y10330D02*
X13295D01*
X13470Y9985D02*
X14370D01*
X13470Y11555D02*
X14370D01*
X13470Y9985D02*
Y10620D01*
X14370Y9985D02*
Y10620D01*
Y10920D02*
Y11555D01*
X13470Y10920D02*
Y11555D01*
X16230Y9985D02*
X17130D01*
X16230Y11555D02*
X17130D01*
X16230Y9985D02*
Y10620D01*
X17130Y9985D02*
Y10620D01*
Y10920D02*
Y11555D01*
X16230Y10920D02*
Y11555D01*
X18875Y9430D02*
Y10330D01*
X17305Y9430D02*
Y10330D01*
X18240Y9430D02*
X18875D01*
X18240Y10330D02*
X18875D01*
X17305D02*
X17940D01*
X17305Y9430D02*
X17940D01*
X18730Y43755D02*
X19630D01*
X18730Y45325D02*
X19630D01*
X18730Y43755D02*
Y44390D01*
X19630Y43755D02*
Y44390D01*
Y44690D02*
Y45325D01*
X18730Y44690D02*
Y45325D01*
X19620Y41991D02*
Y42626D01*
X18720Y41991D02*
Y42626D01*
Y42926D02*
Y43561D01*
X19620Y42926D02*
Y43561D01*
X18720Y41991D02*
X19620D01*
X18720Y43561D02*
X19620D01*
X16540Y6135D02*
Y6770D01*
X15640Y6135D02*
Y6770D01*
Y7070D02*
Y7705D01*
X16540Y7070D02*
Y7705D01*
X15640Y6135D02*
X16540D01*
X15640Y7705D02*
X16540D01*
X17630Y6135D02*
Y6770D01*
X16730Y6135D02*
Y6770D01*
Y7070D02*
Y7705D01*
X17630Y7070D02*
Y7705D01*
X16730Y6135D02*
X17630D01*
X16730Y7705D02*
X17630D01*
X9930Y4705D02*
Y5340D01*
X9030Y4705D02*
Y5340D01*
Y5640D02*
Y6275D01*
X9930Y5640D02*
Y6275D01*
X9030Y4705D02*
X9930D01*
X9030Y6275D02*
X9930D01*
X6130Y23845D02*
X7030D01*
X6130Y25415D02*
X7030D01*
X6130Y23845D02*
Y24480D01*
X7030Y23845D02*
Y24480D01*
Y24780D02*
Y25415D01*
X6130Y24780D02*
Y25415D01*
X4930Y24780D02*
Y25415D01*
X5830Y24780D02*
Y25415D01*
Y23845D02*
Y24480D01*
X4930Y23845D02*
Y24480D01*
Y25415D02*
X5830D01*
X4930Y23845D02*
X5830D01*
X5750Y26500D02*
X6385D01*
X5750Y25600D02*
X6385D01*
X4815D02*
X5450D01*
X4815Y26500D02*
X5450D01*
X6385Y25600D02*
Y26500D01*
X4815Y25600D02*
Y26500D01*
X5670Y31455D02*
Y32090D01*
X4770Y31455D02*
Y32090D01*
Y32390D02*
Y33025D01*
X5670Y32390D02*
Y33025D01*
X4770Y31455D02*
X5670D01*
X4770Y33025D02*
X5670D01*
X5810Y31640D02*
Y32275D01*
X6710Y31640D02*
Y32275D01*
Y30705D02*
Y31340D01*
X5810Y30705D02*
Y31340D01*
Y32275D02*
X6710D01*
X5810Y30705D02*
X6710D01*
X6850D02*
X7750D01*
X6850Y32275D02*
X7750D01*
X6850Y30705D02*
Y31340D01*
X7750Y30705D02*
Y31340D01*
Y31640D02*
Y32275D01*
X6850Y31640D02*
Y32275D01*
X7710Y39455D02*
X8610D01*
X7710Y41025D02*
X8610D01*
X7710Y39455D02*
Y40090D01*
X8610Y39455D02*
Y40090D01*
Y40390D02*
Y41025D01*
X7710Y40390D02*
Y41025D01*
X8750Y39455D02*
X9650D01*
X8750Y41025D02*
X9650D01*
X8750Y39455D02*
Y40090D01*
X9650Y39455D02*
Y40090D01*
Y40390D02*
Y41025D01*
X8750Y40390D02*
Y41025D01*
X5850Y39275D02*
X6750D01*
X5850Y37705D02*
X6750D01*
Y38640D02*
Y39275D01*
X5850Y38640D02*
Y39275D01*
Y37705D02*
Y38340D01*
X6750Y37705D02*
Y38340D01*
X9265Y42630D02*
Y43530D01*
X7695Y42630D02*
Y43530D01*
X8630Y42630D02*
X9265D01*
X8630Y43530D02*
X9265D01*
X7695D02*
X8330D01*
X7695Y42630D02*
X8330D01*
X17665Y39490D02*
Y40390D01*
X16095Y39490D02*
Y40390D01*
X17030Y39490D02*
X17665D01*
X17030Y40390D02*
X17665D01*
X16095D02*
X16730D01*
X16095Y39490D02*
X16730D01*
X15550Y37575D02*
X16450D01*
X15550Y36005D02*
X16450D01*
Y36940D02*
Y37575D01*
X15550Y36940D02*
Y37575D01*
Y36005D02*
Y36640D01*
X16450Y36005D02*
Y36640D01*
X12045Y37050D02*
Y37950D01*
X13615Y37050D02*
Y37950D01*
X12045D02*
X12680D01*
X12045Y37050D02*
X12680D01*
X12980D02*
X13615D01*
X12980Y37950D02*
X13615D01*
X11895Y37050D02*
Y37950D01*
X10325Y37050D02*
Y37950D01*
X11260Y37050D02*
X11895D01*
X11260Y37950D02*
X11895D01*
X10325D02*
X10960D01*
X10325Y37050D02*
X10960D01*
X9530Y37960D02*
X10165D01*
X9530Y37060D02*
X10165D01*
X8595D02*
X9230D01*
X8595Y37960D02*
X9230D01*
X10165Y37060D02*
Y37960D01*
X8595Y37060D02*
Y37960D01*
X9530Y36920D02*
X10165D01*
X9530Y36020D02*
X10165D01*
X8595D02*
X9230D01*
X8595Y36920D02*
X9230D01*
X10165Y36020D02*
Y36920D01*
X8595Y36020D02*
Y36920D01*
X5690Y43655D02*
Y44290D01*
X4790Y43655D02*
Y44290D01*
Y44590D02*
Y45225D01*
X5690Y44590D02*
Y45225D01*
X4790Y43655D02*
X5690D01*
X4790Y45225D02*
X5690D01*
X5830Y44590D02*
Y45225D01*
X6730Y44590D02*
Y45225D01*
Y43655D02*
Y44290D01*
X5830Y43655D02*
Y44290D01*
Y45225D02*
X6730D01*
X5830Y43655D02*
X6730D01*
Y41915D02*
Y42550D01*
X5830Y41915D02*
Y42550D01*
Y42850D02*
Y43485D01*
X6730Y42850D02*
Y43485D01*
X5830Y41915D02*
X6730D01*
X5830Y43485D02*
X6730D01*
X4790D02*
X5690D01*
X4790Y41915D02*
X5690D01*
Y42850D02*
Y43485D01*
X4790Y42850D02*
Y43485D01*
Y41915D02*
Y42550D01*
X5690Y41915D02*
Y42550D01*
X6885Y38420D02*
X7520D01*
X6885Y39320D02*
X7520D01*
X7820D02*
X8455D01*
X7820Y38420D02*
X8455D01*
X6885D02*
Y39320D01*
X8455Y38420D02*
Y39320D01*
X5700Y37705D02*
Y38340D01*
X4800Y37705D02*
Y38340D01*
Y38640D02*
Y39275D01*
X5700Y38640D02*
Y39275D01*
X4800Y37705D02*
X5700D01*
X4800Y39275D02*
X5700D01*
X6670Y41025D02*
X7570D01*
X6670Y39455D02*
X7570D01*
Y40390D02*
Y41025D01*
X6670Y40390D02*
Y41025D01*
Y39455D02*
Y40090D01*
X7570Y39455D02*
Y40090D01*
X5700Y39415D02*
Y40050D01*
X4800Y39415D02*
Y40050D01*
Y40350D02*
Y40985D01*
X5700Y40350D02*
Y40985D01*
X4800Y39415D02*
X5700D01*
X4800Y40985D02*
X5700D01*
X5590Y6935D02*
X6490D01*
X5590Y8505D02*
X6490D01*
X5590Y6935D02*
Y7570D01*
X6490Y6935D02*
Y7570D01*
Y7870D02*
Y8505D01*
X5590Y7870D02*
Y8505D01*
X5640Y5470D02*
Y6470D01*
X6440Y6470D02*
X6440Y5470D01*
X4770Y13292D02*
X6130D01*
X4770Y10552D02*
X6130D01*
Y12462D02*
Y13292D01*
X4770Y12462D02*
Y13292D01*
Y10552D02*
Y11382D01*
X6130Y10552D02*
Y11382D01*
X12429Y19089D02*
Y19724D01*
X13329Y19089D02*
Y19724D01*
Y18154D02*
Y18789D01*
X12429Y18154D02*
Y18789D01*
Y19724D02*
X13329D01*
X12429Y18154D02*
X13329D01*
Y20364D02*
Y20999D01*
X12429Y20364D02*
Y20999D01*
Y21299D02*
Y21934D01*
X13329Y21299D02*
Y21934D01*
X12429Y20364D02*
X13329D01*
X12429Y21934D02*
X13329D01*
X14260Y24960D02*
X14895D01*
X14260Y24060D02*
X14895D01*
X13325D02*
X13960D01*
X13325Y24960D02*
X13960D01*
X14895Y24060D02*
Y24960D01*
X13325Y24060D02*
Y24960D01*
X15400Y28030D02*
X16035D01*
X15400Y27130D02*
X16035D01*
X14465D02*
X15100D01*
X14465Y28030D02*
X15100D01*
X16035Y27130D02*
Y28030D01*
X14465Y27130D02*
Y28030D01*
X15400Y29100D02*
X16035D01*
X15400Y28200D02*
X16035D01*
X14465D02*
X15100D01*
X14465Y29100D02*
X15100D01*
X16035Y28200D02*
Y29100D01*
X14465Y28200D02*
Y29100D01*
X17435Y16010D02*
X18070D01*
X17435Y16910D02*
X18070D01*
X18370D02*
X19005D01*
X18370Y16010D02*
X19005D01*
X17435D02*
Y16910D01*
X19005Y16010D02*
Y16910D01*
X18120Y27485D02*
Y28120D01*
X17220Y27485D02*
Y28120D01*
Y28420D02*
Y29055D01*
X18120Y28420D02*
Y29055D01*
X17220Y27485D02*
X18120D01*
X17220Y29055D02*
X18120D01*
X21095Y26710D02*
X21730D01*
X21095Y27610D02*
X21730D01*
X22030D02*
X22665D01*
X22030Y26710D02*
X22665D01*
X21095D02*
Y27610D01*
X22665Y26710D02*
Y27610D01*
X21550Y22030D02*
Y22665D01*
X22450Y22030D02*
Y22665D01*
Y21095D02*
Y21730D01*
X21550Y21095D02*
Y21730D01*
Y22665D02*
X22450D01*
X21550Y21095D02*
X22450D01*
X17250Y20880D02*
Y21515D01*
X18150Y20880D02*
Y21515D01*
Y19945D02*
Y20580D01*
X17250Y19945D02*
Y20580D01*
Y21515D02*
X18150D01*
X17250Y19945D02*
X18150D01*
X12429Y23734D02*
X13329D01*
X12429Y22164D02*
X13329D01*
Y23099D02*
Y23734D01*
X12429Y23099D02*
Y23734D01*
Y22164D02*
Y22799D01*
X13329Y22164D02*
Y22799D01*
X17070Y27485D02*
Y28120D01*
X16170Y27485D02*
Y28120D01*
Y28420D02*
Y29055D01*
X17070Y28420D02*
Y29055D01*
X16170Y27485D02*
X17070D01*
X16170Y29055D02*
X17070D01*
X5515Y27250D02*
X6150D01*
X5515Y28150D02*
X6150D01*
X6450D02*
X7085D01*
X6450Y27250D02*
X7085D01*
X5515D02*
Y28150D01*
X7085Y27250D02*
Y28150D01*
X6640Y18725D02*
Y19360D01*
X5740Y18725D02*
Y19360D01*
Y19660D02*
Y20295D01*
X6640Y19660D02*
Y20295D01*
X5740Y18725D02*
X6640D01*
X5740Y20295D02*
X6640D01*
X5910Y5070D02*
Y4803D01*
X6043Y4670D01*
X6177Y4803D01*
Y5070D01*
Y4870D01*
X5910D01*
D94*
X5198Y49748D02*
G03*
X5198Y49748I-470J0D01*
G01*
X20946Y1579D02*
G03*
X20946Y1579I-470J0D01*
G01*
D95*
X15001Y18796D02*
G03*
X15493Y19649I-492J852D01*
G01*
X14016Y23011D02*
G03*
X13524Y22159I492J-852D01*
G01*
Y19649D02*
G03*
X14016Y18796I984J0D01*
G01*
X15296Y22159D02*
G03*
X15015Y22762I-787J0D01*
G01*
X13721Y19659D02*
G03*
X14002Y19055I787J0D01*
G01*
X15015D02*
G03*
X15296Y19659I-506J603D01*
G01*
X14002Y22762D02*
G03*
X13721Y22159I506J-603D01*
G01*
X15493D02*
G03*
X15001Y23011I-984J0D01*
G01*
X13524Y19649D02*
Y22149D01*
X15493Y19658D02*
Y22159D01*
X15296Y19659D02*
Y22159D01*
X13721Y19659D02*
Y22159D01*
D96*
X18128Y23260D02*
G03*
X18128Y23260I-118J0D01*
G01*
D97*
X5100Y21293D02*
D03*
Y29043D02*
D03*
M02*
